<svg viewBox="0 0 460 256" version="1.1" xmlns="http://www.w3.org/2000/svg" xmlns:xlink="http://www.w3.org/1999/xlink" id="HJf30cEWm"><style>@-webkit-keyframes rkubGnA5E-X_rJHEJoV-Q_Animation{0%{-webkit-transform: translate(-2px, 0px);transform: translate(-2px, 0px);}16.67%{-webkit-transform: translate(1px, 0px);transform: translate(1px, 0px);}66.67%{-webkit-transform: translate(1px, 0px);transform: translate(1px, 0px);}83.33%{-webkit-transform: translate(-2px, 0px);transform: translate(-2px, 0px);}100%{-webkit-transform: translate(-2px, 0px);transform: translate(-2px, 0px);}}@keyframes rkubGnA5E-X_rJHEJoV-Q_Animation{0%{-webkit-transform: translate(-2px, 0px);transform: translate(-2px, 0px);}16.67%{-webkit-transform: translate(1px, 0px);transform: translate(1px, 0px);}66.67%{-webkit-transform: translate(1px, 0px);transform: translate(1px, 0px);}83.33%{-webkit-transform: translate(-2px, 0px);transform: translate(-2px, 0px);}100%{-webkit-transform: translate(-2px, 0px);transform: translate(-2px, 0px);}}@-webkit-keyframes HJw-G2Aq4ZQ_Hyk-Jj4W7_Animation{0%{-webkit-transform: translate(0px, 0px);transform: translate(0px, 0px);}16.67%{-webkit-transform: translate(5px, 0px);transform: translate(5px, 0px);}66.67%{-webkit-transform: translate(5px, 0px);transform: translate(5px, 0px);}83.33%{-webkit-transform: translate(0px, 0px);transform: translate(0px, 0px);}100%{-webkit-transform: translate(0px, 0px);transform: translate(0px, 0px);}}@keyframes HJw-G2Aq4ZQ_Hyk-Jj4W7_Animation{0%{-webkit-transform: translate(0px, 0px);transform: translate(0px, 0px);}16.67%{-webkit-transform: translate(5px, 0px);transform: translate(5px, 0px);}66.67%{-webkit-transform: translate(5px, 0px);transform: translate(5px, 0px);}83.33%{-webkit-transform: translate(0px, 0px);transform: translate(0px, 0px);}100%{-webkit-transform: translate(0px, 0px);transform: translate(0px, 0px);}}@-webkit-keyframes BkS-GnRcVWQ_S19TCq4WQ_Animation{16.67%{-webkit-transform: translate(0px, 0px);transform: translate(0px, 0px);}33.33%{-webkit-transform: translate(0px, -5px);transform: translate(0px, -5px);}66.67%{-webkit-transform: translate(0px, -5px);transform: translate(0px, -5px);}83.33%{-webkit-transform: translate(0px, 0px);transform: translate(0px, 0px);}0%{-webkit-transform: translate(0px, 0px);transform: translate(0px, 0px);}100%{-webkit-transform: translate(0px, 0px);transform: translate(0px, 0px);}}@keyframes BkS-GnRcVWQ_S19TCq4WQ_Animation{16.67%{-webkit-transform: translate(0px, 0px);transform: translate(0px, 0px);}33.33%{-webkit-transform: translate(0px, -5px);transform: translate(0px, -5px);}66.67%{-webkit-transform: translate(0px, -5px);transform: translate(0px, -5px);}83.33%{-webkit-transform: translate(0px, 0px);transform: translate(0px, 0px);}0%{-webkit-transform: translate(0px, 0px);transform: translate(0px, 0px);}100%{-webkit-transform: translate(0px, 0px);transform: translate(0px, 0px);}}#HJf30cEWm *{-webkit-animation-duration: 3s;animation-duration: 3s;-webkit-animation-iteration-count: infinite;animation-iteration-count: infinite;-webkit-animation-timing-function: cubic-bezier(0, 0, 1, 1);animation-timing-function: cubic-bezier(0, 0, 1, 1);}#SJgfhRcEbm{stroke: none;stroke-width: 1;fill: none;}#By-GnCcNZ7{-webkit-transform:  translate(-730.000000px, -644.000000px);transform:  translate(-730.000000px, -644.000000px);}#ByQMnCqEb7{-webkit-transform:  translate(0.000000px, 600.000000px);transform:  translate(0.000000px, 600.000000px);}#ByVMhCqN-m{-webkit-transform:  translate(730.000000px, 20.000000px);transform:  translate(730.000000px, 20.000000px);}#SJuz309VbQ{fill: #595959;}#SktM3RqE-m{fill: #595959;}#SJ5f30cEWm{fill: #66A7AF;}#BkifhC9VWQ{fill: #494949;}#rk3zh05VZQ{fill: #525252;}#HJTM3A9N-m{fill: #E5AE81;}#SJCGnC5VWX{fill: #F2F3CD;}#Hy1lz3CcV-X{-webkit-transform:  translate(21.000000px, 83.000000px);transform:  translate(21.000000px, 83.000000px);}#BJWgMnC9V-7{fill: #494949;}#BJGez305NWX{fill: #494949;}#SkQlGn0c4ZX{fill: #F2F3CD;}#Hy4lMnAc4b7{fill: #C3403F;}#HJHxz20q4-7{fill: #9F403F;}#SJIxfn0q4bQ{fill: #EAD7B3;}#SJPlfhR9EbX{fill: #C3403F;}#ry_ezn05V-Q{fill: #9F403F;}#rktlGhAq4Z7{fill: #595959;}#ByqxGh0c4-Q{fill: #E5AE81;}#rJslG3C5VbQ{fill: #493638;}#rynxGhR9V-m{fill: #493638;}#rJagfhR5EW7{fill: #D46162;}#rkCxGnA54W7{fill: #DE876C;}#BkkZMhRqVZX{fill: #DE876C;}#Byg-MhR9V-X{fill: #BA6162;}#S1Wbz2Rq4bQ{fill: #493638;}#ryMZzh0q4Z7{fill: #595959;}#BymZf2Ac4WX{fill: #E5AE81;}#SkEWfn09EZm{fill: #F2F3CD;}#BkS-GnRcVWQ{fill: #493638;}#BJ8WfnA9NWX{fill: #493638;}#HJw-G2Aq4ZQ{fill: #493638;}#rkubGnA5E-X{fill: #493638;}#SkF-MhCcEWm{fill: #F2F3CD;}#H1cZGh0cNZX{fill: #F2F3CD;}#BJibGhRc4b7{-webkit-transform:  translate(217.000000px, 0.000000px);transform:  translate(217.000000px, 0.000000px);}#BkS-GnRcVWQ_S19TCq4WQ{-webkit-animation-name: BkS-GnRcVWQ_S19TCq4WQ_Animation;animation-name: BkS-GnRcVWQ_S19TCq4WQ_Animation;-webkit-transform-origin: 50% 50%;transform-origin: 50% 50%;transform-box: fill-box;-webkit-transform: translate(0px, 0px);transform: translate(0px, 0px);}#HJw-G2Aq4ZQ_Hyk-Jj4W7{-webkit-animation-name: HJw-G2Aq4ZQ_Hyk-Jj4W7_Animation;animation-name: HJw-G2Aq4ZQ_Hyk-Jj4W7_Animation;-webkit-transform-origin: 50% 50%;transform-origin: 50% 50%;transform-box: fill-box;-webkit-transform: translate(0px, 0px);transform: translate(0px, 0px);}#rkubGnA5E-X_rJHEJoV-Q{-webkit-animation-name: rkubGnA5E-X_rJHEJoV-Q_Animation;animation-name: rkubGnA5E-X_rJHEJoV-Q_Animation;-webkit-transform-origin: 50% 50%;transform-origin: 50% 50%;transform-box: fill-box;-webkit-transform: translate(0px, 0px);transform: translate(0px, 0px);}</style>
    <!-- Generator: Sketch 50.2 (55047) - http://www.bohemiancoding.com/sketch -->
    <title>boss</title>
    <desc>Created with Sketch.</desc>
    <defs>
        <rect id="path-1" x="0" y="0" width="460" height="280"/>
        <polygon id="path-3" points="0.567104381 0.278438164 438.523371 0.278438164 438.523371 346.707648 0.567104381 346.707648"/>
        <polygon id="path-5" points="0.153163255 0.787567568 14.203 0.787567568 14.203 30.5804554 0.153163255 30.5804554"/>
    </defs>
    <g id="SJgfhRcEbm" fill-rule="evenodd">
        <g id="By-GnCcNZ7">
            <g id="HJMG209V-X">
                <g id="ByQMnCqEb7">
                    <g id="ByVMhCqN-m">
                        <g id="SyBfnA9E-m">
                            <mask id="mask-2" fill="white">
                                <use xlink:href="#path-1"/>
                            </mask>
                            <g id="ByUM2CcE-Q"/>
                            <g mask="url(#mask-2)" id="BJwzhA94bQ">
                                <path d="M183,396.331967 C183,396.331967 203.955037,441.171313 206.812807,507 L210.62289,507 C210.62289,507 221.607446,420.650947 203.955037,383.929631 C191.572477,358.171124 183,396.331967 183,396.331967" id="SJuz309VbQ"/>
                                <path d="M249,403.332102 C249,403.332102 269.954298,448.171732 272.812082,514 L276.623017,514 C276.623017,514 287.607623,427.651236 269.954298,390.929687 C257.572516,365.171018 249,403.332102 249,403.332102" id="SktM3RqE-m"/>
                                <path d="M87,522.162182 C87,522.162182 155.698553,485.797273 387,522.162182 C387,522.162182 352.268337,544.297273 87,522.162182" id="SJ5f30cEWm"/>
                                <path d="M208.371584,507.188051 C208.371584,507.188051 199.323317,507.779859 193,509.479431 C193.078318,510.444971 205.63812,511.279349 208.438835,510.911148 C209.639993,510.541367 209.961777,509.206046 209.961777,509.206046 L210.759428,510.692282 L213,510.249018 L210.924576,507 L208.371584,507.188051 Z" id="BkifhC9VWQ"/>
                                <path d="M203.908188,384.040881 C191.553312,357.96146 183,396.597734 183,396.597734 C183,396.597734 189.005056,409.640407 195.016774,432 C199.275526,424.402072 204.541088,416.585778 211,408.977693 C209.446896,399.527045 207.168456,390.921928 203.908188,384.040881" id="rk3zh05VZQ"/>
                                <path d="M20,217.299353 L17.5610173,216.796896 C17.5610173,216.796896 10.487711,209.503338 8.78050866,209 C8.53686685,210.005795 9.51228895,214.281967 10.487711,215.538991 C10.2440692,215.035653 0,212.772834 0,212.772834 C0,212.772834 4.87796538,221.826753 8.29237016,223.838344 C10.9758495,224.845021 20,220.820958 20,220.820958 L20,217.299353 Z" id="HJTM3A9N-m"/>
                                <polygon id="SJCGnC5VWX" points="25.7494054 216.480303 19.2497184 216 19 222 26 221.039394"/>
                                <g id="Hy1lz3CcV-X">
                                    <mask id="mask-4" fill="white">
                                        <use xlink:href="#path-3"/>
                                    </mask>
                                    <g id="S1glf2C9NW7"/>
                                    <path d="M387.378784,95.2265227 C383.273925,90.0508585 374.197078,83.200542 359.364731,66.9175251 C309.812083,28.272286 283.339129,0.278438164 283.339129,0.278438164 L210.495232,21.0028874 C210.495232,21.0028874 199.997697,25.7854527 182.820672,34.3950758 C166.994931,45.2719333 153.744657,57.1696749 142.731192,68.9928198 C107.372878,96.4502425 50.6833444,132.93218 1.52119771,130.528325 L0.567104381,139.13711 C0.567104381,139.13711 57.7357749,141.024656 107.338594,117.722851 C98.5619387,133.611093 95.0256891,144.397429 95.0256891,144.397429 C66.3970358,267.791131 164.689554,332.836868 164.689554,332.836868 L176.140346,306.053329 C176.140346,306.053329 176.785049,306.471573 177.973276,307.223407 C188.076965,313.6186 237.480771,344.139513 263.951217,346.707648 C278.882234,268.245416 325.958085,191.023668 358.129678,144.521477 C382.024657,152.631554 391.406714,159.809593 391.406714,159.809593 C386.31515,176.806726 345.745697,186.394486 345.745697,186.394486 L340.987773,196.225315 C395.320085,198.774172 438.523539,163.455607 438.523539,163.455607 C426.501628,138.707131 406.327697,114.58225 387.378784,95.2265227" id="BJWgMnC9V-7" mask="url(#mask-4)"/>
                                </g>
                                <path d="M272.371781,512.188064 C272.371781,512.188064 263.323047,512.779912 257,514.4796 C257.079166,515.445206 269.638434,516.278851 272.43903,515.911415 C273.639285,515.541608 273.961907,514.205406 273.961907,514.205406 L274.759523,515.692534 L277,515.24924 L274.924665,512 L272.371781,512.188064 Z" id="BJGez305NWX"/>
                                <path d="M287,103 C287,103 197.881595,176.214444 188.82652,259 C188.82652,259 167.857533,185.306707 224.093038,109.698857 L287,103 Z" id="SkQlGn0c4ZX"/>
                                <polygon id="Hy4lMnAc4b7" points="221 123.897502 222.877182 139 244 127.795003 230.85726 120"/>
                                <path d="M243,126.818451 L231.342736,120 L221,124.03294 L221.655969,129.233798 L228.141434,126.8052 C228.141434,126.8052 230.962964,130.446772 233.788811,134 L242.274118,129.561557 C242.519244,128.62952 242.764369,127.706317 243,126.818451" id="HJHxz20q4-7"/>
                                <path d="M218.671502,116.781863 C218.671502,116.781863 212.408704,124.818634 210,131.436273 C213.854095,130.018799 229.270474,122.927288 229.270474,122.927288 L249.825083,139 L276,113 C276,113 230.715865,120.091512 218.671502,116.781863" id="SJIxfn0q4bQ"/>
                                <path d="M226,133.806719 L207.272896,197.568643 C207.272896,197.568643 189.505962,248.958937 189.025456,258 C186.144946,253.717128 182.543256,221.59809 187.344948,193.524264 C197.909344,166.401076 224.07966,130 224.07966,130 L226,133.806719 Z" id="SJPlfhR9EbX"/>
                                <path d="M185,235.813015 C185.685156,247.317809 187.224478,255.927672 188.598931,258 C189.071995,248.973008 206.562934,197.662692 206.562934,197.662692 L225,134 L188.125867,239.946016 L185,235.813015 Z" id="ry_ezn05V-Q"/>
                                <path d="M303,94 C303,94 272.367107,158.289119 266.624698,190.913348 L229.290651,192.832025 L236.948874,221.61806 L189.085399,260 C189.085399,260 182.385082,200.508413 287.683554,103.595905 L303,94 Z" id="rktlGhAq4Z7"/>
                                <path d="M243.576208,27.3607968 C243.576208,27.3607968 226.313758,33.5737724 221.038886,55.080484 C215.764015,76.5871956 199.460403,84.7114693 202.337758,97.6156638 C205.214273,110.519858 217.682532,115.776347 230.149111,116.732834 C242.616529,117.688483 296.323239,117.688483 308.310818,87.5792542 C320.299238,57.4700255 291.048367,11.1114117 243.576208,27.3607968" id="ByqxGh0c4-Q"/>
                                <path d="M237.892434,83.1514854 C237.892434,83.1514854 243.088331,79.3687332 252.064416,85.5156019 C261.040501,91.6624707 275.685213,87.4065637 270.489317,83.1514854 C270.489317,83.1514854 269.426294,82.3236717 268.363271,83.2699812 C268.363271,83.2699812 269.190342,81.8513456 270.961219,82.6783306 C272.732924,83.5061443 273.795947,85.751765 272.261021,89.2983541 C270.725268,92.8441146 257.261968,98.2824942 244.388133,94.9720681 C244.388133,94.9720681 235.412048,94.1450831 235.057707,87.7612226 C235.057707,87.7612226 234.349853,85.160943 237.892434,83.1514854" id="rJslG3C5VbQ"/>
                                <path d="M232.107566,80.1514778 C232.107566,80.1514778 226.910841,76.3687505 217.934756,82.5155787 C208.959499,88.6624068 194.313959,84.406528 199.510683,80.1514778 C199.510683,80.1514778 200.573706,79.3236695 201.636729,80.2699728 C201.636729,80.2699728 200.809658,78.8513465 199.038781,79.6783261 C197.267076,80.5061343 196.204053,82.7517402 197.738979,86.2983059 C199.274732,89.8448716 212.738032,95.2823866 225.611867,91.9719824 C225.611867,91.9719824 234.587124,91.1450028 234.942293,84.7611846 C234.942293,84.7611846 235.650147,82.1609221 232.107566,80.1514778" id="rynxGhR9V-m"/>
                                <path d="M235.989644,63.1583415 C235.989644,63.1583415 236.899194,76.911974 229.006139,75.4596559 C221.386782,74.0580953 213.769095,78.730237 220.752601,83.7126541 C227.735272,88.6958899 240.274541,91.3426455 246.623031,80.130979 C252.972355,68.9201311 235.196083,79.0413311 237.100296,72.1898935 C239.004509,65.338456 241.068102,59.4211193 235.989644,63.1583415" id="rJagfhR5EW7"/>
                                <path d="M303.2987,71.1907054 C303.2987,70.2310529 313.943051,56.1533463 320.829991,64.7919008 C327.716931,73.4304552 317.07258,91.0271679 304.863876,84.6292043 C292.655172,78.2295587 303.2987,71.1907054 303.2987,71.1907054" id="rkCxGnA54W7"/>
                                <path d="M301.363346,80 C301.363346,80 291.76725,119.299925 235.467968,112.383118 C235.467968,112.383118 212.756703,118.042849 203,97.763523 C203,97.763523 204.439583,113.955082 228.430663,116.470886 C252.421743,118.985863 304.882419,113.326958 310,82.2009148 L301.363346,80 Z" id="BkkZMhRqVZX"/>
                                <path d="M308,78.8828266 C308,78.8828266 312.286016,69.0649348 316.333364,70.0725768 C318.714206,71.0793364 313.952522,72.0860961 313.952522,73.0928557 C313.952522,74.0996153 317.99987,75.1072573 315.619028,78.3798879 C313.238186,81.6525185 309.428672,81.9039878 308,78.8828266" id="Byg-MhR9V-X"/>
                                <path d="M296.482222,39.1152046 C296.482222,39.1152046 303.15021,44.397606 293.148645,50.1596902 C283.146245,55.9226159 283.146245,67.4476258 288.861902,73.6893928 C294.577559,79.9320013 293.624393,86.6551341 292.672897,90.0162797 C292.672897,93.3782669 302.038461,87.6153412 301.403295,80.4125256 C300.768964,73.20971 306.483787,64.566163 310.770529,62.1652244 C315.056437,59.7642859 317.437683,56.882823 315.056437,53.5216774 C312.675192,50.1596902 301.721296,37.6744732 296.482222,39.1152046" id="S1Wbz2Rq4bQ"/>
                                <path d="M217,113 C217,113 183.719989,146.152908 171.559742,171.017379 L184.360135,183.768885 L169,198.432655 C169,198.432655 177.320213,245.610794 188.520662,259 C188.520662,259 182.440538,174.842747 217,113" id="ryMZzh0q4Z7"/>
                                <path d="M361.112574,275.746257 C361.112574,275.746257 350.103602,279.570982 350.628708,273.859828 C351.155553,268.148674 353.857589,268.748483 353.857589,268.748483 C353.857589,268.748483 343.423278,263.739198 345.20464,262.864163 C346.985132,261.988291 353.283798,260.121102 356.942153,261.480502 C360.600508,262.839902 358.213188,271.095017 358.213188,271.095017 L363,273.132863 L361.112574,275.746257 Z" id="BymZf2Ac4WX"/>
                                <polygon id="SkEWfn09EZm" points="368 270.330883 360.996099 270 359 277 366.369941 276.672665"/>
                                <g id="BkS-GnRcVWQ_S19TCq4WQ" data-animator-group="true" data-animator-type="0"><path d="M239,62.1433209 L241.83354,64.0952222 C241.83354,64.0952222 258.833126,45.0603354 264.499379,46.0362861 L273,49.4533964 C273,49.4533964 246.083851,68.0007355 243.25031,68.9766861 C239.945065,69.4642338 239,62.1433209 239,62.1433209" id="BkS-GnRcVWQ"/></g>
                                <path d="M236,63.3397216 L233.584574,64.9001686 C233.584574,64.9001686 219.93094,48.3632472 215.179828,49.0189992 L208,51.645477 C208,51.645477 229.934026,68.0644324 232.269712,68.9699948 C235.0124,69.4791567 236,63.3397216 236,63.3397216" id="BJ8WfnA9NWX"/>
                                <g id="HJw-G2Aq4ZQ_Hyk-Jj4W7" data-animator-group="true" data-animator-type="0"><path d="M249,70.5003983 C249,71.8808348 248.32866,73 247.500404,73 C246.67134,73 246,71.8808348 246,70.5003983 C246,69.1199618 246.67134,68 247.500404,68 C248.32866,68 249,69.1199618 249,70.5003983" id="HJw-G2Aq4ZQ"/></g>
                                <g id="rkubGnA5E-X_rJHEJoV-Q" data-animator-group="true" data-animator-type="0"><path d="M230,70.5003983 C230,71.8808348 229.32866,73 228.500404,73 C227.67134,73 227,71.8808348 227,70.5003983 C227,69.1199618 227.67134,68 228.500404,68 C229.32866,68 230,69.1199618 230,70.5003983" id="rkubGnA5E-X"/></g>
                                <path d="M191,288.000438 C191,291.866496 188.985493,295 186.500438,295 C184.014507,295 182,291.866496 182,288.000438 C182,284.134381 184.014507,281 186.500438,281 C188.985493,281 191,284.134381 191,288.000438" id="SkF-MhCcEWm"/>
                                <path d="M196,341.000438 C196,344.866496 193.985493,348 191.500438,348 C189.014507,348 187,344.866496 187,341.000438 C187,337.134381 189.014507,334 191.500438,334 C193.985493,334 196,337.134381 196,341.000438" id="H1cZGh0cNZX"/>
                                <g id="BJibGhRc4b7">
                                    <mask id="mask-6" fill="white">
                                        <use xlink:href="#path-5"/>
                                    </mask>
                                    <g id="rJnWzhCcN-m"/>
                                </g>
                            </g>
                        </g>
                    </g>
                </g>
            </g>
        </g>
    </g>
<script>(function(){var a=document.querySelector('#HJf30cEWm'),b=a.querySelectorAll('style'),c=function(d){b.forEach(function(f){var g=f.textContent;g&amp;&amp;(f.textContent=g.replace(/transform-box:[^;\r\n]*/gi,'transform-box: '+d))})};c('initial'),window.requestAnimationFrame(function(){return c('fill-box')})})();</script></svg>