<?xml version="1.0" encoding="utf-8"?>
<!-- Generator: Adobe Illustrator 22.1.0, SVG Export Plug-In . SVG Version: 6.00 Build 0)  -->
<svg version="1.1" id="Layer_1" xmlns="http://www.w3.org/2000/svg" xmlns:xlink="http://www.w3.org/1999/xlink" x="0px" y="0px"
	 viewBox="0 0 113 111" style="enable-background:new 0 0 113 111;" xml:space="preserve">
<style type="text/css">
	.st0{fill:#FCC62F;}
	.st1{fill:#231F20;}
	.st2{fill:#FFFFFF;}
	.st3{fill:#29BFAF;}
	.st4{fill:#ED1C24;}
</style>
<g id="Group-3" transform="translate(0.000000, -0.678000)">
	<g id="Clip-2">
	</g>
	<path id="Fill-1" class="st0" d="M111.3,56.3c0,30.7-24.9,55.7-55.7,55.7S0,87.1,0,56.3C0,25.6,24.9,0.7,55.7,0.7
		S111.3,25.6,111.3,56.3"/>
</g>
<g id="emoji-_x2F_-confused-emoji">
	<path id="Fill-4" class="st1" d="M38.4,34.3c-0.6-0.3-1.2-0.3-1.4,0c-2.1,3.6-6.5,5.2-10.4,3.9c-0.3-0.1-0.8,0.3-1.1,0.9
		c-0.3,0.6-0.2,1.3,0.2,1.4c5,1.8,10.7-0.3,13.4-5C39.3,35.1,39,34.6,38.4,34.3"/>
	<path id="Fill-6" class="st1" d="M74.5,35.4c0.1,0.7,0.5,1.2,0.8,1.2c4.2-0.4,8,2.3,9.1,6.4c0.1,0.3,0.7,0.5,1.4,0.3
		c0.7-0.1,1.2-0.6,1.1-1c-1.4-5.2-6.3-8.7-11.7-8.3C74.6,34.2,74.4,34.8,74.5,35.4"/>
	<path id="Fill-8" class="st2" d="M81.9,52.6c0,4.1-3.3,7.5-7.5,7.5S67,56.7,67,52.6s3.3-7.5,7.5-7.5S81.9,48.5,81.9,52.6"/>
	<path id="Fill-10" class="st1" d="M79.5,52.6c0,2.8-2.3,5-5,5c-2.8,0-5-2.3-5-5c0-2.8,2.3-5,5-5S79.5,49.8,79.5,52.6"/>
	<path id="Fill-12" class="st2" d="M45.8,52.6c0,4.1-3.3,7.5-7.5,7.5c-4.1,0-7.5-3.3-7.5-7.5c0-4.1,3.3-7.5,7.5-7.5
		C42.4,45.1,45.8,48.5,45.8,52.6"/>
	<path id="Fill-14" class="st1" d="M43.3,52.6c0,2.8-2.3,5-5,5c-2.8,0-5-2.3-5-5c0-2.8,2.3-5,5-5C41.1,47.6,43.3,49.8,43.3,52.6"/>
	<path id="Fill-16" class="st3" d="M106.2,16c0,0-15.1,25.1,0,25.1S106.2,16,106.2,16"/>
	<g>
		<path id="Fill-18" class="st1" d="M79,76.1c-2.6,3.6-5.8,6.3-9.5,8.2c-7.6,3.9-16.7,4-24.6-0.1c-3.6-1.8-6.8-4.5-9.6-8.1
			c-0.8-0.8-0.7-1.8,0.1-2.2c0.4-0.2,11-0.2,21.7-0.2c10.6,0,21.3,0.1,21.7,0.2C79.6,74.3,79.8,75.3,79,76.1"/>
		<path id="Fill-20" class="st4" d="M69.5,84.3c-7.6,3.9-16.7,4-24.6-0.1c2.2-1.6,6.8-2.7,12.2-2.7C62.6,81.5,67.4,82.7,69.5,84.3"
			/>
	</g>
</g>
</svg>
