<svg version="1.1" id="SkaYxAwl7" xmlns="http://www.w3.org/2000/svg" xmlns:xlink="http://www.w3.org/1999/xlink" x="0px" y="0px" viewBox="0 0 113 111" style="enable-background:new 0 0 113 111;" xml:space="preserve"><style>@-webkit-keyframes rkEaKeRvgm_B1l8fRDgX_Animation{25%{-webkit-transform:  translate(0px, 2px);transform:  translate(0px, 2px);}37.50%{-webkit-transform:  translate(0px, 2px);transform:  translate(0px, 2px);}50%{-webkit-transform:  translate(0px, 0px);transform:  translate(0px, 0px);}62.50%{-webkit-transform:  translate(0px, 2px);transform:  translate(0px, 2px);}0%{-webkit-transform:  translate(0px, 2px);transform:  translate(0px, 2px);}}@keyframes rkEaKeRvgm_B1l8fRDgX_Animation{25%{-webkit-transform:  translate(0px, 2px);transform:  translate(0px, 2px);}37.50%{-webkit-transform:  translate(0px, 2px);transform:  translate(0px, 2px);}50%{-webkit-transform:  translate(0px, 0px);transform:  translate(0px, 0px);}62.50%{-webkit-transform:  translate(0px, 2px);transform:  translate(0px, 2px);}0%{-webkit-transform:  translate(0px, 2px);transform:  translate(0px, 2px);}}@-webkit-keyframes S1qTtlADlX_HJYAeRDg7_Animation{0%{-webkit-transform:  translate(0px, -10px);transform:  translate(0px, -10px);}75%{-webkit-transform:  translate(0px, 0px);transform:  translate(0px, 0px);}100%{-webkit-transform:  translate(0px, 0px);transform:  translate(0px, 0px);}}@keyframes S1qTtlADlX_HJYAeRDg7_Animation{0%{-webkit-transform:  translate(0px, -10px);transform:  translate(0px, -10px);}75%{-webkit-transform:  translate(0px, 0px);transform:  translate(0px, 0px);}100%{-webkit-transform:  translate(0px, 0px);transform:  translate(0px, 0px);}}@-webkit-keyframes S1qTtlADlX_Animation{0%{opacity:  0;}25%{opacity:  1;}50%{opacity:  1;}75%{opacity:  0;}100%{opacity:  0;}}@keyframes S1qTtlADlX_Animation{0%{opacity:  0;}25%{opacity:  1;}50%{opacity:  1;}75%{opacity:  0;}100%{opacity:  0;}}@-webkit-keyframes BJiTtlRDgm_BkljxCvxm_Animation{0%{-webkit-transform:  scale(1, 1);transform:  scale(1, 1);}25%{-webkit-transform:  scale(1.2, 1.2);transform:  scale(1.2, 1.2);}50%{-webkit-transform:  scale(1, 1);transform:  scale(1, 1);}75%{-webkit-transform:  scale(1.2, 1.2);transform:  scale(1.2, 1.2);}100%{-webkit-transform:  scale(1, 1);transform:  scale(1, 1);}}@keyframes BJiTtlRDgm_BkljxCvxm_Animation{0%{-webkit-transform:  scale(1, 1);transform:  scale(1, 1);}25%{-webkit-transform:  scale(1.2, 1.2);transform:  scale(1.2, 1.2);}50%{-webkit-transform:  scale(1, 1);transform:  scale(1, 1);}75%{-webkit-transform:  scale(1.2, 1.2);transform:  scale(1.2, 1.2);}100%{-webkit-transform:  scale(1, 1);transform:  scale(1, 1);}}#SkaYxAwl7 *{-webkit-animation-duration:  0.8s;animation-duration:  0.8s;-webkit-animation-iteration-count:  infinite;animation-iteration-count:  infinite;-webkit-animation-timing-function:  cubic-bezier(0, 0, 1, 1);animation-timing-function:  cubic-bezier(0, 0, 1, 1);}#S1xaKg0PeQ{-webkit-transform:  translate(0.000000px, -0.678000px);transform:  translate(0.000000px, -0.678000px);}#rkM6FlCvlX{fill: #FCC62F;}#rkEaKeRvgm{fill: #231F20;}#HJSatgRweX{fill: #231F20;}#ByIpYlRPg7{fill: #FFFFFF;}#HyDTKxAvem{fill: #231F20;}#S1uaKlADgQ{fill: #FFFFFF;}#SJYaYeCvxX{fill: #231F20;}#S1qTtlADlX{fill: #29BFAF;-webkit-animation-name:  S1qTtlADlX_Animation;animation-name:  S1qTtlADlX_Animation;-webkit-transform-origin:  50% 50%;transform-origin:  50% 50%;transform-box:  fill-box;opacity:  0;}#rk3pYgCwlm{fill: #231F20;}#rkaaYgRDlQ{fill: #ED1C24;}#BJiTtlRDgm_BkljxCvxm{-webkit-animation-name:  BJiTtlRDgm_BkljxCvxm_Animation;animation-name:  BJiTtlRDgm_BkljxCvxm_Animation;-webkit-transform-origin:  50% 50%;transform-origin:  50% 50%;transform-box:  fill-box;-webkit-transform:  scale(1, 1);transform:  scale(1, 1);}#S1qTtlADlX_HJYAeRDg7{-webkit-animation-name:  S1qTtlADlX_HJYAeRDg7_Animation;animation-name:  S1qTtlADlX_HJYAeRDg7_Animation;-webkit-transform-origin:  50% 50%;transform-origin:  50% 50%;transform-box:  fill-box;-webkit-transform:  translate(0px, -10px);transform:  translate(0px, -10px);}#rkEaKeRvgm_B1l8fRDgX{-webkit-animation-name:  rkEaKeRvgm_B1l8fRDgX_Animation;animation-name:  rkEaKeRvgm_B1l8fRDgX_Animation;-webkit-transform-origin:  50% 50%;transform-origin:  50% 50%;transform-box:  fill-box;-webkit-transform:  translate(0px, 2px);transform:  translate(0px, 2px);}</style>

<g id="S1xaKg0PeQ">
	<g id="Sy-ptlADxX">
	</g>
	<path id="rkM6FlCvlX" d="M111.3,56.3c0,30.7-24.9,55.7-55.7,55.7S0,87.1,0,56.3C0,25.6,24.9,0.7,55.7,0.7&#10;&#9;&#9;S111.3,25.6,111.3,56.3"/>
</g>
<g id="B176FeCvgm">
	<g id="rkEaKeRvgm_B1l8fRDgX" data-animator-group="true" data-animator-type="0"><path id="rkEaKeRvgm" d="M38.4,34.3c-0.6-0.3-1.2-0.3-1.4,0c-2.1,3.6-6.5,5.2-10.4,3.9c-0.3-0.1-0.8,0.3-1.1,0.9&#10;&#9;&#9;c-0.3,0.6-0.2,1.3,0.2,1.4c5,1.8,10.7-0.3,13.4-5C39.3,35.1,39,34.6,38.4,34.3"/></g>
	<path id="HJSatgRweX" d="M74.5,35.4c0.1,0.7,0.5,1.2,0.8,1.2c4.2-0.4,8,2.3,9.1,6.4c0.1,0.3,0.7,0.5,1.4,0.3&#10;&#9;&#9;c0.7-0.1,1.2-0.6,1.1-1c-1.4-5.2-6.3-8.7-11.7-8.3C74.6,34.2,74.4,34.8,74.5,35.4"/>
	<path id="ByIpYlRPg7" d="M81.9,52.6c0,4.1-3.3,7.5-7.5,7.5S67,56.7,67,52.6s3.3-7.5,7.5-7.5S81.9,48.5,81.9,52.6"/>
	<path id="HyDTKxAvem" d="M79.5,52.6c0,2.8-2.3,5-5,5c-2.8,0-5-2.3-5-5c0-2.8,2.3-5,5-5S79.5,49.8,79.5,52.6"/>
	<path id="S1uaKlADgQ" d="M45.8,52.6c0,4.1-3.3,7.5-7.5,7.5c-4.1,0-7.5-3.3-7.5-7.5c0-4.1,3.3-7.5,7.5-7.5&#10;&#9;&#9;C42.4,45.1,45.8,48.5,45.8,52.6"/>
	<path id="SJYaYeCvxX" d="M43.3,52.6c0,2.8-2.3,5-5,5c-2.8,0-5-2.3-5-5c0-2.8,2.3-5,5-5C41.1,47.6,43.3,49.8,43.3,52.6"/>
	<g id="S1qTtlADlX_HJYAeRDg7" data-animator-group="true" data-animator-type="0"><path id="S1qTtlADlX" d="M106.2,16c0,0-15.1,25.1,0,25.1S106.2,16,106.2,16"/></g>
	<g id="BJiTtlRDgm_BkljxCvxm" data-animator-group="true" data-animator-type="2"><g id="BJiTtlRDgm">
		<path id="rk3pYgCwlm" d="M79,76.1c-2.6,3.6-5.8,6.3-9.5,8.2c-7.6,3.9-16.7,4-24.6-0.1c-3.6-1.8-6.8-4.5-9.6-8.1&#10;&#9;&#9;&#9;c-0.8-0.8-0.7-1.8,0.1-2.2c0.4-0.2,11-0.2,21.7-0.2c10.6,0,21.3,0.1,21.7,0.2C79.6,74.3,79.8,75.3,79,76.1"/>
		<path id="rkaaYgRDlQ" d="M69.5,84.3c-7.6,3.9-16.7,4-24.6-0.1c2.2-1.6,6.8-2.7,12.2-2.7C62.6,81.5,67.4,82.7,69.5,84.3"/>
	</g></g>
</g>
<script>(function(){var a=document.querySelector('#SkaYxAwl7'),b=a.querySelectorAll('style'),c=function(d){b.forEach(function(f){var g=f.textContent;g&amp;&amp;(f.textContent=g.replace(/transform-box:[^;\r\n]*/gi,'transform-box: '+d))})};c('initial'),window.requestAnimationFrame(function(){return c('fill-box')})})();</script></svg>