<?xml version="1.0" encoding="utf-8"?>
<!-- Generator: Adobe Illustrator 22.1.0, SVG Export Plug-In . SVG Version: 6.00 Build 0)  -->
<svg version="1.1" id="Layer_1" xmlns="http://www.w3.org/2000/svg" xmlns:xlink="http://www.w3.org/1999/xlink" x="0px" y="0px"
	 viewBox="0 0 111 111" style="enable-background:new 0 0 111 111;" xml:space="preserve">
<style type="text/css">
	.st0{fill:#FCC62F;}
	.st1{fill:#231F20;}
	.st2{fill:#ED1C24;}
	.st3{fill:none;stroke:#231F20;stroke-width:3;stroke-linecap:round;stroke-miterlimit:10;}
	.st4{fill:#FFFFFF;}
</style>
<g>
	<circle class="st0" cx="55.7" cy="55.7" r="55.7"/>
	<g>
		<path id="Fill-12" class="st1" d="M77.7,74.6c-2.6,5.1-5.8,9-9.5,11.6c-7.6,5.5-16.7,5.6-24.6-0.2c-3.6-2.6-6.8-6.4-9.6-11.5
			c-0.8-1.2-0.7-2.6,0.1-3.1c0.4-0.2,11-0.3,21.7-0.3c10.6,0,21.3,0.1,21.7,0.3C78.4,72,78.5,73.5,77.7,74.6"/>
		<path id="Fill-14" class="st2" d="M68,86.5c-7.6,5.5-16.7,5.6-24.6-0.2c2.2-2.3,6.8-3.8,12.2-3.8C61.1,82.5,65.8,84.2,68,86.5"/>
	</g>
	<g>
		<line class="st3" x1="23.2" y1="48.6" x2="35.6" y2="48.6"/>
		<line class="st3" x1="75.7" y1="48.6" x2="88.1" y2="48.6"/>
	</g>
	<g>
		<path id="Fill-4" class="st4" d="M36.9,48.6c0,4.1-3.3,7.5-7.5,7.5c-4.1,0-7.5-3.3-7.5-7.5s3.3-7.5,7.5-7.5
			C33.5,41.1,36.9,44.4,36.9,48.6"/>
		<path id="Fill-6" class="st1" d="M34.4,48.6c0,2.8-2.3,5-5,5s-5-2.3-5-5c0-2.8,2.3-5,5-5S34.4,45.8,34.4,48.6"/>
		<path id="Fill-8" class="st4" d="M89.4,48.6c0,4.1-3.3,7.5-7.5,7.5c-4.1,0-7.5-3.3-7.5-7.5s3.3-7.5,7.5-7.5
			C86.1,41.1,89.4,44.4,89.4,48.6"/>
		<path id="Fill-10" class="st1" d="M87,48.6c0,2.8-2.3,5-5,5c-2.8,0-5-2.3-5-5c0-2.8,2.3-5,5-5C84.7,43.5,87,45.8,87,48.6"/>
	</g>
</g>
</svg>
