<?xml version="1.0" encoding="utf-8"?>
<!-- Generator: Adobe Illustrator 22.1.0, SVG Export Plug-In . SVG Version: 6.00 Build 0)  -->
<svg version="1.1" id="Layer_1" xmlns="http://www.w3.org/2000/svg" xmlns:xlink="http://www.w3.org/1999/xlink" x="0px" y="0px"
	 viewBox="0 0 274 200" style="enable-background:new 0 0 274 200;" xml:space="preserve">
<style type="text/css">
	.st0{fill:#302866;}
	.st1{fill:#F9C8C0;}
	.st2{fill:#FFFFFF;}
	.st3{fill:#F59082;}
	.st4{fill:#72391B;}
	.st5{fill:#EA524E;}
	.st6{fill:#A55E5D;}
	.st7{fill:#4D3E91;}
	.st8{fill:#FBD648;}
	.st9{opacity:0.3;fill:#2A2166;enable-background:new    ;}
	.st10{fill:#F6948A;}
	.st11{fill:#738CBF;}
	.st12{fill:#EFE9DA;}
	.st13{fill:#84201E;}
	.st14{fill:#3EA386;}
	.st15{fill:#16727D;}
	.st16{fill:#75B67C;}
	.st17{fill:#F7C0B7;}
	.st18{fill:#67A56B;}
</style>
<g>
	<g id="Group-30" transform="translate(215.692042, 18.912530)">
		<g id="Clip-29">
		</g>
		<path id="Fill-28" class="st0" d="M18.5,54.4l-3.6-1.8C1.8,46-3.4,30,3.3,17l1-2C11,1.9,27.2-3.8,40.3,2.8L44.1,5
			C57.2,11.6,62,27.8,55.3,40.8l-1,2C47.6,55.9,31.6,61.1,18.5,54.4z"/>
	</g>
	<path id="Fill-31" class="st1" d="M213.9,57.6c1.5,8.9,8,16.8,17.3,19.4l0.8,0.2c12.7,3.5,26.3-4.1,29.9-16.8l2-7
		c3.5-12.7-4.5-25-17.2-28.6l-0.8-0.2c-12.7-3.5-26.2,2.9-29.7,15.6l-2,7c-0.1,0.3-0.1,0.7-0.1,1c0,0.1,0,0.2,0,0.3
		c-0.3,1.2-0.4,2.5-0.5,3.8C213.5,54.1,213.6,55.9,213.9,57.6z"/>
	<path id="Fill-33" class="st2" d="M221.6,57.5c-0.8,2.9,1.1,7.5,4.8,8.5s7.7-1.9,8.6-4.8L221.6,57.5z"/>
	<path id="Fill-37" class="st3" d="M227.6,55l3.1,0.9c0.5,0.1,1-0.1,1.1-0.6l0.1-0.2c0.1-0.5-0.2-1-0.6-1.1l-3.1-0.9
		c-0.5-0.1-1,0.1-1.1,0.6v0.2C226.8,54.4,227.1,54.9,227.6,55z"/>
	<path id="Fill-41" class="st1" d="M255.4,59.5c-0.8,2.9,0.9,5.8,3.7,6.6c2.9,0.8,5.8-0.9,6.6-3.7c0.8-2.9-0.9-5.8-3.7-6.6
		C259.1,55,256.2,56.7,255.4,59.5z"/>
	<path class="st4" d="M243.2,54.8c-1,0-1.8-0.7-1.9-1.7c0-0.2-0.2-1.1-1.3-1.5s-2.3,0.7-2.3,0.7c-0.7,0.7-1.9,0.7-2.7,0
		c-0.7-0.7-0.8-1.9,0-2.7c1-1.1,3.5-2.6,6.3-1.6c2.7,1,3.7,3.4,3.8,4.7c0.1,1-0.7,2-1.7,2.1C243.3,54.8,243.2,54.8,243.2,54.8z"/>
	<path class="st4" d="M226.7,50.1c-1,0-1.8-0.7-1.9-1.7c0-0.2-0.2-1.1-1.3-1.5s-2.3,0.7-2.3,0.7c-0.7,0.7-1.9,0.7-2.7,0
		c-0.7-0.7-0.8-1.9,0-2.7c1-1.1,3.5-2.6,6.3-1.6c2.7,1,3.7,3.4,3.8,4.7c0.1,1-0.7,2-1.7,2.1C226.8,50.1,226.8,50.1,226.7,50.1z"/>
	<path id="Fill-47" class="st0" d="M243.7,38c0,6.4,5.2,11.6,11.6,11.6s11.6-5.2,11.6-11.6s-5.2-11.6-11.6-11.6S243.7,31.6,243.7,38
		z"/>
	<path id="Fill-49" class="st0" d="M238.9,15.4c-5.5,0.7-9.5,5.8-8.7,11.3s5.8,9.4,11.3,8.7c5.5-0.7,9.5-5.8,8.7-11.3
		C249.5,18.6,244.4,14.6,238.9,15.4z"/>
	<path id="Fill-51" class="st0" d="M251.5,52.1c0,3.5,2.8,6.3,6.3,6.3c3.5,0,6.3-2.8,6.3-6.3s-2.8-6.3-6.3-6.3
		C254.4,45.8,251.5,48.6,251.5,52.1z"/>
	<path id="Fill-53" class="st0" d="M265.4,55.6l-30.3-29.7c0,0,12.6-9.1,22.7,2C268,39,269.5,50.1,265.4,55.6z"/>
	<path id="Fill-55" class="st3" d="M236.7,59.2l6.3,2c1.1,0.3,2.2-0.3,2.5-1.3c0.3-1.1-0.3-2.2-1.3-2.5l-6.3-2
		c-1.1-0.3-2.2,0.3-2.5,1.3C235,57.7,235.6,58.8,236.7,59.2z"/>
	<path id="Fill-71" class="st0" d="M212.9,27.9c0,6.4,5.2,11.6,11.6,11.6c6.4,0,11.6-5.2,11.6-11.6s-5.2-11.6-11.6-11.6
		C218.1,16.3,212.9,21.5,212.9,27.9z"/>
	<path id="Fill-73" class="st0" d="M230.1,35.9c0,5.1,4.1,9.2,9.2,9.2c5.1,0,9.2-4.1,9.2-9.2s-4.1-9.2-9.2-9.2
		C234.2,26.7,230.1,30.8,230.1,35.9z"/>
</g>
<path id="Fill-79" class="st5" d="M224.9,82.2c-0.2,0.7-0.9,1.2-1.6,1c-0.7-0.2-1.2-0.9-1-1.6s0.9-1.2,1.6-1S225.1,81.5,224.9,82.2"
	/>
<g>
	<path id="Fill-145" class="st6" d="M84.7,27.6l1.6,5.5c4,14.1-4.3,28.9-18.6,32.8c-14.4,3.9-29.2-4.5-33.2-18.6l-1.6-5.5
		c-1.4-4.8-1.4-9.6-0.2-14.1c0.7-2.3,1.6-4.6,2.8-6.6c3.4-5.7,9-10.1,16-12.1c7-1.9,14.1-0.9,20,2.2c0.2,0.1,0.4,0.2,0.6,0.3
		c2,1.1,3.7,2.4,5.3,4C80.9,18.6,83.4,22.8,84.7,27.6"/>
	<path id="Fill-146" class="st1" d="M46.3,49.7c0.6,2.1-0.7,4.4-2.9,5S39,54,38.3,51.9c-0.6-2.1,0.7-4.4,2.9-5
		C43.5,46.3,45.7,47.6,46.3,49.7"/>
	<path id="Fill-147" class="st1" d="M84.2,33.1l1.8,6.3c0.1,0.4,0,0.8,0.1,1.2c0.6,2.7,0.6,5.5,0.1,8.1c-1.3,7.9-7.3,14.9-15.6,17.2
		l-0.7,0.2c-11.5,3.1-23.8-3.7-27-15l-1.8-6.3C38,33.6,45.3,22.6,56.7,19.4l0.7-0.2C68.9,16.1,81,21.8,84.2,33.1"/>
	<path class="st5" d="M73.5,56.6c-2.1,0-4-1.3-5.2-2.8c-0.3-0.4-0.3-1.1,0.2-1.4c0.4-0.3,1.1-0.3,1.4,0.2c0.9,1.2,2.7,2.3,4.3,1.9
		c1.6-0.4,2.6-2.3,2.7-3.8c0.1-0.6,0.6-1,1.1-0.9c0.6,0.1,1,0.6,0.9,1.1c-0.3,2.3-1.7,4.9-4.2,5.6C74.3,56.6,73.9,56.6,73.5,56.6z"
		/>
	<path id="Fill-150" class="st3" d="M73.9,46.4l-2.8,0.8c-0.4,0.1-0.9-0.1-1-0.6v-0.2c-0.1-0.4,0.1-0.9,0.6-1l2.8-0.8
		c0.4-0.1,0.9,0.1,1,0.6v0.2C74.6,45.8,74.3,46.3,73.9,46.4"/>
	<path class="st4" d="M74.2,41c-0.1,0-0.3,0-0.4,0c-1-0.2-1.6-1.2-1.4-2.2c0.3-1.4,1.6-4,4.4-4.6s4.8,1,5.6,2c0.6,0.8,0.5,2-0.4,2.6
		s-2,0.5-2.6-0.4c-0.1-0.1-0.7-0.8-1.9-0.6c-1.2,0.2-1.6,1.7-1.6,1.7C75.8,40.4,75,41,74.2,41z"/>
	<path class="st4" d="M57.9,45.5c-0.1,0-0.3,0-0.4,0c-1-0.2-1.6-1.2-1.4-2.2c0.3-1.4,1.6-4,4.4-4.6c2.8-0.6,4.8,1,5.6,2
		c0.6,0.8,0.5,2-0.4,2.6c-0.8,0.6-2,0.5-2.6-0.4c-0.1-0.1-0.7-0.8-1.9-0.6s-1.6,1.7-1.6,1.8C59.5,44.9,58.7,45.5,57.9,45.5z"/>
	<path id="Fill-153" class="st3" d="M62,51c0.6,2.1-0.7,4.3-2.8,4.9c-2.2,0.6-4.4-0.7-5-2.8s0.7-4.3,2.8-4.9S61.4,48.8,62,51"/>
	<path id="Fill-154" class="st3" d="M85.9,40.6c0.6,2.7,0.6,5.4,0.2,8c-1.9,0.1-3.7-1.1-4.2-2.9c-0.6-2.1,0.7-4.3,2.8-4.9
		C85.1,40.6,85.5,40.6,85.9,40.6"/>
	<path id="Fill-156" class="st6" d="M41.3,46.9c0.8,1.7-0.5-8.3,7.5-15.7l3.2,7.1l29-12.8c0,0-4.8-15.1-21.3-10.9
		C43.3,18.7,35.7,35.6,41.3,46.9"/>
	<path id="Fill-157" class="st6" d="M51.4,8.3c2,6.1-1.4,12.7-7.7,14.6c-6.2,2-12.9-1.4-14.8-7.5c-2-6.1,1.4-12.7,7.7-14.6
		C42.8-1.1,49.5,2.2,51.4,8.3"/>
	<polygon id="Fill-158" class="st7" points="30.9,20.2 49.7,4.7 53.2,8.6 33.9,24.1 	"/>
	<path id="Fill-165" class="st8" d="M33.3,17.5L49,16c3.2-0.3,4.6-4.1,2.3-6.4L47.5,6c-2.4-2.3-6.4-0.7-6.5,2.6l-0.4,16
		c-0.1,3.3-4.2,4.9-6.5,2.5l-3.2-3.2C28.7,21.6,30.1,17.8,33.3,17.5"/>
	<path id="Fill-166" class="st2" d="M43.8,14.5c1.2,1.5,1,3.8-0.6,5s-3.9,1-5.1-0.6c-1.2-1.5-1-3.8,0.6-5S42.6,13,43.8,14.5"/>
</g>
<g>
	<path id="Fill-119" class="st9" d="M3.2,199.8h117.6c1.8,0,3.2-1.4,3.2-3.2s-1.4-3.2-3.2-3.2H3.2c-1.8,0-3.2,1.4-3.2,3.2
		C0,198.4,1.4,199.8,3.2,199.8"/>
	<path id="Fill-120" class="st10" d="M116.7,109.2h0.3c2.3,0,4.2-2.4,4.2-4.7c0-2.3-1.9-4.4-4.2-4.4c-0.1,0-12.4-0.1-20.5-3
		c-10.2-3.6-16.9-12.7-17-12.8c-1.4-1.9-4-2.3-5.9-0.9s-2.3,4-0.9,5.8c0.3,0.5,8.3,11.6,20.9,16.1
		C102.5,108.6,114.7,109.2,116.7,109.2"/>
	<path id="Fill-121" class="st7" d="M79,98.3l9.1-8.3L80,81.2c-2.3-2.5-6.2-2.7-8.7-0.4s-2.7,6.2-0.4,8.7L79,98.3z"/>
	<path id="Fill-122" class="st1" d="M93.4,100.8l8.3,2.4c0.6,0.2,1,0.9,0.8,1.5s-0.9,1-1.5,0.8l-8.3-2.4c-0.6-0.2-1-0.9-0.8-1.5
		C92.1,101,92.7,100.6,93.4,100.8"/>
	<path id="Fill-123" class="st5" d="M103,188.6c0,1.3,1.8,2.4,4,2.4s4-1.1,4-2.4v-80.2c0-1.3-1.8-2.4-4-2.4s-4,1.1-4,2.4V188.6z"/>
	<path id="Fill-124" class="st11" d="M93.5,189.8c-0.3-0.9-0.4-1.7-0.5-2.5C93,188.1,93.2,188.9,93.5,189.8"/>
	<path id="Fill-125" class="st0" d="M82.7,107.3c0,1.9,1.5,3.4,3.4,3.4h34.6c1.9,0,3.4-1.5,3.4-3.4s-1.5-3.4-3.4-3.4H86.1
		C84.2,103.9,82.7,105.5,82.7,107.3"/>
	<path id="Fill-126" class="st5" d="M92.9,187.3c0.1,0.8,0.3,1.6,0.5,2.5C93.2,188.9,93,188.1,92.9,187.3 M11.9,186.7
		c0,2.3,2,3.8,4.5,3.8h103.4c2.6,0,4.7-1.3,4.7-3.6c0-1.2-0.4-2.1-1.3-2.8c-0.8-0.8-2-1.1-3.3-1.1H119c-1.4-5.7-6.7-10.1-13-10.1
		s-11.6,4.2-13,10.1c-0.2,0.8-0.3,1.6-0.4,2.5c0-0.9,0.2-2,0.4-2.4H43.1c-1.5-5.7-6.7-9.9-12.9-9.9s-11.4,4.2-12.9,9.9h-0.7
		C14.1,182.9,11.9,184.4,11.9,186.7"/>
	<path id="Fill-127" class="st0" d="M95.1,187.7c0,6,4.9,10.9,10.9,10.9s10.9-4.9,10.9-10.9s-4.9-10.9-10.9-10.9
		S95.1,181.7,95.1,187.7"/>
	<path id="Fill-128" class="st12" d="M102.4,187.7c0,2,1.6,3.6,3.6,3.6s3.6-1.6,3.6-3.6s-1.6-3.6-3.6-3.6
		C104,184.1,102.4,185.7,102.4,187.7"/>
	<path id="Fill-129" class="st0" d="M18.9,187.7c0,6,4.9,10.9,10.9,10.9s10.9-4.9,10.9-10.9s-4.9-10.9-10.9-10.9
		S18.9,181.7,18.9,187.7"/>
	<path id="Fill-130" class="st12" d="M26.2,187.7c0,2,1.6,3.6,3.6,3.6s3.6-1.6,3.6-3.6s-1.6-3.6-3.6-3.6
		C27.9,184.1,26.2,185.7,26.2,187.7"/>
	<path id="Fill-131" class="st13" d="M46,186h43.3c0.8,0,1.4-0.6,1.4-1.4s-0.6-1.4-1.4-1.4H46c-0.8,0-1.4,0.6-1.4,1.4
		S45.3,186,46,186"/>
	<polygon id="Fill-132" class="st2" points="67.5,184.4 85.6,184.4 85.6,182.7 67.5,182.7 	"/>
	<polygon id="Fill-133" class="st1" points="68.9,177.7 77.7,177.7 77.7,131.5 68.9,131.5 	"/>
	<path id="Fill-134" class="st7" d="M85.7,183H67.6v-6.7h9.9c4.7,0,8.1,2.7,8.1,6.5L85.7,183L85.7,183z"/>
	<path id="Fill-135" class="st1" d="M35.4,167.5L30,161c0,0,17.1-6.8,20.2-12c2.4-4.1,1.6-19.2,1.6-19.2l7.5,4.4
		c0,0,1,14.8-1.4,18.8C54.7,158.3,35.4,167.5,35.4,167.5"/>
	<polygon id="Fill-136" class="st2" points="33.2,178.5 25,162.4 26.5,161.6 34.7,177.7 	"/>
	<path id="Fill-137" class="st7" d="M34.4,178l-8.1-16.1l6-3l4.5,8.9c2.1,4.2,1.2,8.5-2.1,10.2L34.4,178z"/>
	<polygon id="Fill-138" class="st14" points="44.3,148.8 60.7,148.8 60.7,130.2 44.3,130.2 	"/>
	<polygon id="Fill-139" class="st14" points="64.4,148.8 81.5,148.8 81.5,130.2 64.4,130.2 	"/>
	<polygon id="Fill-140" class="st14" points="44.6,142 79.2,142 79.2,129.6 44.6,129.6 	"/>
	<path id="Fill-141" class="st7" d="M82.6,130.9H43.5V87c0-5,2.4-9.6,5.5-13c0.2-0.2,0.5-0.3,0.7-0.5c0.5-0.5,1-0.9,1.6-1.3
		c1.2-1,2.5-1.8,3.9-2.4c0.3-0.1,0.6-0.3,0.9-0.4c2.2-0.9,4.7-1.4,7.3-1.4c3,0,5.8,0.9,8.2,2.4c0.3,0.2,0.5,0.3,0.8,0.5
		c0.9,0.6,1.7,1.3,2.4,2.1c0.5,0.5,1,1.1,1.5,1.7c3.1,4,4.9,9.4,4.9,14.7l0.2,7.1l0.2,6.8l0.3,7.9L82.6,130.9z"/>
	<polygon id="Fill-142" class="st15" points="43.5,149.6 61.1,149.6 61.1,145.5 43.5,145.5 	"/>
	<polygon id="Fill-143" class="st15" points="64,149.3 82.2,149.3 82.2,145.2 64,145.2 	"/>
	<path id="Fill-144" class="st2" d="M71.6,70.3c-0.2,4-3.6,7.2-7.7,7.2c-4.3,0-7.7-3.5-7.7-7.7c0-0.2,0-0.3,0-0.5
		c2.2-0.9,4.7-1.4,7.3-1.4C66.5,67.9,69.3,68.8,71.6,70.3"/>
	<path id="Fill-155" class="st1" d="M59.5,60.8v9.4c0,2.2,1.3,3.9,3.6,3.9l0,0c2.3,0,4.9-1.6,4.9-3.9v-9.4
		C68,60.8,59.5,60.8,59.5,60.8z"/>
	<path id="Fill-159" class="st1" d="M95.9,102.7l1.2,1.6c1.5,1.9,1.1,4.7-0.8,6.2s-4.7,1.1-6.2-0.8l-1.2-1.6
		c-1.5-1.9-1.1-4.7,0.8-6.2C91.6,100.4,94.4,100.8,95.9,102.7"/>
	<path id="Fill-160" class="st1" d="M90.8,106.1l5.5,7.2c0.4,0.5,0.3,1.3-0.2,1.7c-0.5,0.4-1.3,0.3-1.7-0.2l-5.5-7.2
		c-0.4-0.5-0.3-1.3,0.2-1.7C89.6,105.4,90.4,105.5,90.8,106.1"/>
	<path id="Fill-161" class="st1" d="M94.4,105.9l4.4,5.8c0.4,0.5,0.3,1.3-0.2,1.7c-0.5,0.4-1.3,0.3-1.7-0.2l-4.4-5.8
		c-0.4-0.5-0.3-1.3,0.2-1.7C93.3,105.3,94,105.4,94.4,105.9"/>
	<path id="Fill-162" class="st1" d="M95.7,103l5.2,6.8c0.4,0.5,0.3,1.3-0.2,1.7c-0.5,0.4-1.3,0.3-1.7-0.2l-5.2-6.8
		c-0.4-0.5-0.3-1.3,0.2-1.7C94.6,102.3,95.3,102.4,95.7,103"/>
	<path id="Fill-163" class="st1" d="M91.3,108.7c-1.5,0-14.7-0.1-23.6-4.3C55.5,98.8,48.5,87.5,48.2,87c-1.2-2-0.6-4.5,1.4-5.7
		s4.6-0.6,5.8,1.4c0.1,0.1,6,9.7,15.8,14.1c6.4,2.9,16.8,3.5,20.2,3.5l0,0c2.3,0,4.2,1.9,4.2,4.2c0,2.3-1.9,4.2-4.2,4.2
		C91.4,108.7,91.4,108.7,91.3,108.7"/>
	<path id="Fill-164" class="st7" d="M53.8,96.6l9.8-7.4l-7.3-9.5c-2.1-2.7-5.9-3.2-8.6-1.2c-2.7,2.1-3.2,5.9-1.2,8.6L53.8,96.6z"/>
	<path id="Fill-167" class="st10" d="M121.5,103.4l0.1,0.3c0.5,2.2-1,4.4-3.2,4.8s-4.4-1-4.8-3.2l-0.1-0.3c-0.4-2.2,0.6-4.4,2.8-4.8
		l0.7-0.2C119.3,100.1,121,101.2,121.5,103.4"/>
	<path id="Fill-168" class="st10" d="M115.5,103.6l1.3,6.2c0.1,0.5-0.2,1.1-0.8,1.2h-0.2c-0.5,0.1-1.1-0.2-1.2-0.8l-1.3-6.2
		c-0.1-0.5,0.2-1.1,0.8-1.2h0.2C114.8,102.7,115.3,103.1,115.5,103.6"/>
	<path id="Fill-169" class="st10" d="M118.9,105.5l1,4.8c0.1,0.5-0.2,1.1-0.8,1.2h-0.2c-0.5,0.1-1.1-0.2-1.2-0.8l-1-4.8
		c-0.1-0.5,0.2-1.1,0.8-1.2h0.2C118.3,104.6,118.8,105,118.9,105.5"/>
	<path id="Fill-170" class="st10" d="M121.3,102.9l1.2,5.8c0.1,0.5-0.2,1.1-0.8,1.2h-0.2c-0.5,0.1-1.1-0.2-1.2-0.8l-1.2-5.8
		c-0.1-0.5,0.2-1.1,0.8-1.2h0.2C120.7,102,121.2,102.3,121.3,102.9"/>
</g>
<g>
	<polygon id="Fill-6" class="st1" points="247,189.3 256.2,189.3 256.2,144 247,144 	"/>
	<g id="Group-20">
		<g transform="translate(53.000000, 0.000000)">
			<path id="Fill-7" class="st2" d="M203.5,187.2c0,1,0.1,7,0.1,7h-10.9v-7H203.5z"/>
			<path id="Fill-9" class="st0" d="M188.5,197.3h15.1v-7h-8.3c-3.9,0-6.8,2.8-6.8,6.8V197.3z"/>
			<g id="Clip-12">
			</g>
			<polygon id="Fill-13" class="st1" points="164.5,188 173.5,189.8 182.3,145.4 173.3,143.6 			"/>
			<path id="Fill-14" class="st2" d="M174.7,188c-0.2,1-1.3,6.9-1.3,6.9l-10.6-2.1l1.4-6.9L174.7,188z"/>
			<path id="Fill-15" class="st0" d="M158,195l14.9,2.9l1.4-6.9l-8.2-1.6c-3.9-0.8-7.2,1.5-8,5.3L158,195z"/>
			<polygon class="st7" points="205.5,144.6 205.5,143.9 176.6,143.9 168.9,142.4 165.1,161.5 181.9,164.8 183.9,154.8 188.7,154.8 
				188.7,164 205.9,164 205.9,144.6 			"/>
			<polygon id="Fill-18" class="st0" points="188.3,164.8 206.7,164.8 206.7,160.5 188.3,160.5 			"/>
			<polygon id="Fill-19" class="st0" points="164.4,162.9 182.5,166.4 183.3,162.3 165.3,158.7 			"/>
		</g>
	</g>
	<g id="Group-27">
		<g transform="translate(272.000000, 78.000000)">
			<g id="Group-23">
				<g id="Clip-22">
				</g>
				<path id="Fill-21" class="st16" d="M-12.4,65.6h-40.2l1.5-42.9c0-11,7.5-22.3,18.6-22.3s20.1,8.9,20.1,19.9V65.6z"/>
			</g>
			<g id="Group-26">
				<g id="Clip-25">
				</g>
				<path id="Fill-24" class="st2" d="M-39.7,1.3l2,11.9l5.5-4.5l5.2,4.1l2.7-11.9C-34.5-3.6-39.7,1.3-39.7,1.3z"/>
			</g>
		</g>
	</g>
	<path id="Fill-39" class="st1" d="M239.5,86.3L239.5,86.3c2.5,0,4.4-2.1,4.4-4.6V71.2h-9.1v10.5C234.8,84.2,237,86.3,239.5,86.3z"
		/>
	<path id="Fill-57" class="st2" d="M238.8,97.2c-1,0-1.9-0.8-1.9-1.8s0.8-1.8,1.9-1.8c1,0,1.9,0.8,1.9,1.8
		C240.7,96.4,239.8,97.2,238.8,97.2"/>
	<path id="Fill-59" class="st2" d="M238.8,107.8c-1,0-1.9-0.8-1.9-1.8s0.8-1.8,1.9-1.8c1,0,1.9,0.8,1.9,1.8S239.8,107.8,238.8,107.8
		"/>
	<path id="Fill-61" class="st2" d="M238.8,118.6c-1,0-1.9-0.8-1.9-1.8s0.8-1.8,1.9-1.8c1,0,1.9,0.8,1.9,1.8S239.8,118.6,238.8,118.6
		"/>
	<path id="Fill-63" class="st17" d="M255.2,127.2c-3.6,0-7.2-1.8-10.7-5.3c-1.5-1.6-1.5-4.1,0.1-5.6s4-1.2,5.5,0.3
		c4.3,4.4,6.5,2.4,7.7,1.3c1.7-1.5,1.3-6.5,0.4-9.6c-0.6-2.1,0.6-4.3,2.7-4.9s4.3,0.5,5,2.6c0.4,1.2,3.6,12.1-2.6,17.7
		C260.7,126.1,258,127.2,255.2,127.2"/>
	<polygon id="Fill-65" class="st16" points="256.6,89.5 268.8,109.3 257.1,114.7 250.8,99.9 	"/>
	<path id="Fill-67" class="st17" d="M220.4,126.5c3.1,0.4,6.5-1,9.9-4.2c1.5-1.4,1.7-3.9,0.5-5.5c-1.2-1.7-3.3-1.6-4.8-0.2
		c-4.3,4-5.9,1.7-6.8,0.6c-1.3-1.7-0.4-6.6,0.8-9.5c0.8-2,0-4.3-1.7-5.1c-1.8-0.8-3.8,0.1-4.6,2.1c-0.5,1.2-4.5,11.7,0.2,17.8
		C215.7,124.8,217.9,126.2,220.4,126.5"/>
	<polygon id="Fill-69" class="st16" points="223.6,88.9 210.7,107.3 220.2,113.9 227.4,99.8 	"/>
	
		<rect x="225.1" y="82" transform="matrix(0.9703 -0.2419 0.2419 0.9703 -16.2203 57.7076)" class="st7" width="3.6" height="25.8"/>
	<path id="Fill-77" class="st0" d="M233.8,122.5l11-2.8c1.8-0.4,2.9-2.3,2.4-4l-4.1-16.3c-0.4-1.8-2.3-2.8-4-2.4l-11,2.8
		c-1.8,0.4-2.9,2.3-2.4,4l4.1,16.3C230.2,121.8,232,122.9,233.8,122.5"/>
	<path id="Fill-81" class="st7" d="M231.4,98.9l-1.8,0.5c-0.2,0.1-0.5-0.1-0.5-0.3v-0.2c-0.1-0.2,0.1-0.5,0.3-0.5l1.8-0.5
		c0.2-0.1,0.5,0.1,0.5,0.3v0.2C231.8,98.6,231.6,98.8,231.4,98.9"/>
	<path id="Fill-83" class="st5" d="M234.9,98l-1.8,0.5c-0.2,0.1-0.5-0.1-0.5-0.3V98c-0.1-0.2,0.1-0.5,0.3-0.5l1.8-0.5
		c0.2-0.1,0.5,0.1,0.5,0.3v0.2C235.3,97.7,235.2,98,234.9,98"/>
	<path id="Fill-85" class="st5" d="M238.3,97.2l-1.8,0.5c-0.2,0.1-0.5-0.1-0.5-0.3v-0.2c-0.1-0.2,0.1-0.5,0.3-0.5l1.8-0.5
		c0.2-0.1,0.5,0.1,0.5,0.3v0.2C238.7,96.9,238.5,97.1,238.3,97.2"/>
	<path id="Fill-87" class="st17" d="M243.8,121.3l-2.7-3.5c-0.8-1.1-0.6-2.6,0.5-3.4l2.2-1.6c1.1-0.8,2.6-0.6,3.5,0.5l2.7,3.5
		c0.8,1.1,0.6,2.6-0.5,3.4l-2.2,1.6C246.2,122.6,244.6,122.3,243.8,121.3"/>
	<path id="Fill-89" class="st17" d="M246.6,115.8l-4.7-6.2c-0.3-0.5-0.2-1.1,0.2-1.4c0.5-0.3,1.1-0.2,1.5,0.2l4.7,6.2
		c0.3,0.5,0.2,1.1-0.2,1.4C247.5,116.3,246.9,116.2,246.6,115.8"/>
	<path id="Fill-91" class="st17" d="M243.3,115.9l-3.7-5c-0.3-0.5-0.2-1.1,0.2-1.4c0.5-0.3,1.1-0.2,1.5,0.2l3.7,5
		c0.3,0.5,0.2,1.1-0.2,1.4C244.2,116.5,243.6,116.4,243.3,115.9"/>
	<path id="Fill-93" class="st17" d="M242.1,119l-4.4-5.9c-0.3-0.5-0.2-1.1,0.2-1.4c0.5-0.3,1.1-0.2,1.5,0.2l4.4,5.9
		c0.3,0.5,0.2,1.1-0.2,1.4C243.1,119.5,242.4,119.4,242.1,119"/>
	<path id="Fill-95" class="st17" d="M231,121.8l2.7-3.2c0.8-1,0.8-2.5,0-3.4l-1.7-1.8c-0.9-0.9-2.2-0.8-3.1,0.1l-2.7,3.2
		c-0.8,1-0.8,2.5,0,3.4l1.7,1.8C228.8,122.9,230.1,122.8,231,121.8"/>
	<path id="Fill-97" class="st17" d="M229.2,116l4.8-5.6c0.3-0.4,0.3-1.1,0-1.4c-0.4-0.4-0.9-0.4-1.3,0.1l-4.8,5.6
		c-0.3,0.4-0.3,1.1,0,1.4C228.3,116.5,228.9,116.5,229.2,116"/>
	<path id="Fill-99" class="st17" d="M232.1,116.6l3.8-4.5c0.3-0.4,0.3-1.1,0-1.4c-0.4-0.4-0.9-0.4-1.3,0.1l-3.8,4.5
		c-0.3,0.4-0.3,1.1,0,1.4S231.7,117,232.1,116.6"/>
	<path id="Fill-101" class="st17" d="M232.7,119.7l4.5-5.4c0.3-0.4,0.3-1.1,0-1.4c-0.4-0.4-0.9-0.4-1.3,0.1l-4.5,5.4
		c-0.3,0.4-0.3,1.1,0,1.4C231.8,120.1,232.4,120.1,232.7,119.7"/>
	<polygon id="Fill-118" class="st18" points="218.8,144.8 258.9,144.8 258.9,141.2 218.9,141.2 	"/>
	<path id="Fill-171" class="st9" d="M133.6,200h131.8c1.8,0,3.2-1.4,3.2-3.2s-1.4-3.2-3.2-3.2H133.6c-1.8,0-3.2,1.4-3.2,3.2
		C130.4,198.6,131.9,200,133.6,200z"/>
</g>
</svg>
