<svg version="1.1" id="B1Zdj2xz7" xmlns="http://www.w3.org/2000/svg" xmlns:xlink="http://www.w3.org/1999/xlink" x="0px" y="0px" viewBox="0 0 270 380" style="enable-background:new 0 0 270 380;" xml:space="preserve"><style>@-webkit-keyframes HklbZ_j2lGX_H1GRpneGQ_Animation{50%{-webkit-transform: scale(1, 1);transform: scale(1, 1);}55.00%{-webkit-transform: scale(1, 0);transform: scale(1, 0);}60%{-webkit-transform: scale(1, 1);transform: scale(1, 1);}0%{-webkit-transform: scale(1, 1);transform: scale(1, 1);}100%{-webkit-transform: scale(1, 1);transform: scale(1, 1);}}@keyframes HklbZ_j2lGX_H1GRpneGQ_Animation{50%{-webkit-transform: scale(1, 1);transform: scale(1, 1);}55.00%{-webkit-transform: scale(1, 0);transform: scale(1, 0);}60%{-webkit-transform: scale(1, 1);transform: scale(1, 1);}0%{-webkit-transform: scale(1, 1);transform: scale(1, 1);}100%{-webkit-transform: scale(1, 1);transform: scale(1, 1);}}@-webkit-keyframes S11ZbOj3ez7_ryQ3pnlG7_Animation{50%{-webkit-transform: scale(1, 1);transform: scale(1, 1);}55.00%{-webkit-transform: scale(1, 0);transform: scale(1, 0);}60%{-webkit-transform: scale(1, 1);transform: scale(1, 1);}0%{-webkit-transform: scale(1, 1);transform: scale(1, 1);}100%{-webkit-transform: scale(1, 1);transform: scale(1, 1);}}@keyframes S11ZbOj3ez7_ryQ3pnlG7_Animation{50%{-webkit-transform: scale(1, 1);transform: scale(1, 1);}55.00%{-webkit-transform: scale(1, 0);transform: scale(1, 0);}60%{-webkit-transform: scale(1, 1);transform: scale(1, 1);}0%{-webkit-transform: scale(1, 1);transform: scale(1, 1);}100%{-webkit-transform: scale(1, 1);transform: scale(1, 1);}}@-webkit-keyframes r1gfbusneGX_Bybu6hxfQ_Animation{70%{-webkit-transform: scale(0, 0);transform: scale(0, 0);}80%{-webkit-transform: scale(1, 1);transform: scale(1, 1);}90%{-webkit-transform: scale(0, 0);transform: scale(0, 0);}0%{-webkit-transform: scale(0, 0);transform: scale(0, 0);}100%{-webkit-transform: scale(0, 0);transform: scale(0, 0);}}@keyframes r1gfbusneGX_Bybu6hxfQ_Animation{70%{-webkit-transform: scale(0, 0);transform: scale(0, 0);}80%{-webkit-transform: scale(1, 1);transform: scale(1, 1);}90%{-webkit-transform: scale(0, 0);transform: scale(0, 0);}0%{-webkit-transform: scale(0, 0);transform: scale(0, 0);}100%{-webkit-transform: scale(0, 0);transform: scale(0, 0);}}@-webkit-keyframes S1jbWui2xzX_B15Ua2gGm_Animation{60%{-webkit-transform: scale(0, 0);transform: scale(0, 0);}70%{-webkit-transform: scale(1, 1);transform: scale(1, 1);}80%{-webkit-transform: scale(0, 0);transform: scale(0, 0);}0%{-webkit-transform: scale(0, 0);transform: scale(0, 0);}100%{-webkit-transform: scale(0, 0);transform: scale(0, 0);}}@keyframes S1jbWui2xzX_B15Ua2gGm_Animation{60%{-webkit-transform: scale(0, 0);transform: scale(0, 0);}70%{-webkit-transform: scale(1, 1);transform: scale(1, 1);}80%{-webkit-transform: scale(0, 0);transform: scale(0, 0);}0%{-webkit-transform: scale(0, 0);transform: scale(0, 0);}100%{-webkit-transform: scale(0, 0);transform: scale(0, 0);}}@-webkit-keyframes SJbM-donefQ_BJQSangfm_Animation{50%{-webkit-transform: scale(0, 0);transform: scale(0, 0);}60%{-webkit-transform: scale(1, 1);transform: scale(1, 1);}70%{-webkit-transform: scale(0, 0);transform: scale(0, 0);}0%{-webkit-transform: scale(0, 0);transform: scale(0, 0);}100%{-webkit-transform: scale(0, 0);transform: scale(0, 0);}}@keyframes SJbM-donefQ_BJQSangfm_Animation{50%{-webkit-transform: scale(0, 0);transform: scale(0, 0);}60%{-webkit-transform: scale(1, 1);transform: scale(1, 1);}70%{-webkit-transform: scale(0, 0);transform: scale(0, 0);}0%{-webkit-transform: scale(0, 0);transform: scale(0, 0);}100%{-webkit-transform: scale(0, 0);transform: scale(0, 0);}}@-webkit-keyframes Hk2bWOs3xfX_r1OmThefm_Animation{40%{-webkit-transform: scale(0, 0);transform: scale(0, 0);}50%{-webkit-transform: scale(1, 1);transform: scale(1, 1);}60%{-webkit-transform: scale(0, 0);transform: scale(0, 0);}0%{-webkit-transform: scale(0, 0);transform: scale(0, 0);}100%{-webkit-transform: scale(0, 0);transform: scale(0, 0);}}@keyframes Hk2bWOs3xfX_r1OmThefm_Animation{40%{-webkit-transform: scale(0, 0);transform: scale(0, 0);}50%{-webkit-transform: scale(1, 1);transform: scale(1, 1);}60%{-webkit-transform: scale(0, 0);transform: scale(0, 0);}0%{-webkit-transform: scale(0, 0);transform: scale(0, 0);}100%{-webkit-transform: scale(0, 0);transform: scale(0, 0);}}@-webkit-keyframes SJJM-_i3lG7_B1yMp2lGm_Animation{30%{-webkit-transform: scale(0, 0);transform: scale(0, 0);}40%{-webkit-transform: scale(1, 1);transform: scale(1, 1);}50%{-webkit-transform: scale(0, 0);transform: scale(0, 0);}0%{-webkit-transform: scale(0, 0);transform: scale(0, 0);}100%{-webkit-transform: scale(0, 0);transform: scale(0, 0);}}@keyframes SJJM-_i3lG7_B1yMp2lGm_Animation{30%{-webkit-transform: scale(0, 0);transform: scale(0, 0);}40%{-webkit-transform: scale(1, 1);transform: scale(1, 1);}50%{-webkit-transform: scale(0, 0);transform: scale(0, 0);}0%{-webkit-transform: scale(0, 0);transform: scale(0, 0);}100%{-webkit-transform: scale(0, 0);transform: scale(0, 0);}}@-webkit-keyframes HkTZW_ohgfQ_BkEl62gzX_Animation{20%{-webkit-transform: scale(0, 0);transform: scale(0, 0);}30%{-webkit-transform: scale(1, 1);transform: scale(1, 1);}40%{-webkit-transform: scale(0, 0);transform: scale(0, 0);}0%{-webkit-transform: scale(0, 0);transform: scale(0, 0);}100%{-webkit-transform: scale(0, 0);transform: scale(0, 0);}}@keyframes HkTZW_ohgfQ_BkEl62gzX_Animation{20%{-webkit-transform: scale(0, 0);transform: scale(0, 0);}30%{-webkit-transform: scale(1, 1);transform: scale(1, 1);}40%{-webkit-transform: scale(0, 0);transform: scale(0, 0);}0%{-webkit-transform: scale(0, 0);transform: scale(0, 0);}100%{-webkit-transform: scale(0, 0);transform: scale(0, 0);}}@-webkit-keyframes Hy0ZbdsheMm_HJi02ngzm_Animation{10%{-webkit-transform: scale(0, 0);transform: scale(0, 0);}20%{-webkit-transform: scale(1, 1);transform: scale(1, 1);}30%{-webkit-transform: scale(0, 0);transform: scale(0, 0);}0%{-webkit-transform: scale(0, 0);transform: scale(0, 0);}100%{-webkit-transform: scale(0, 0);transform: scale(0, 0);}}@keyframes Hy0ZbdsheMm_HJi02ngzm_Animation{10%{-webkit-transform: scale(0, 0);transform: scale(0, 0);}20%{-webkit-transform: scale(1, 1);transform: scale(1, 1);}30%{-webkit-transform: scale(0, 0);transform: scale(0, 0);}0%{-webkit-transform: scale(0, 0);transform: scale(0, 0);}100%{-webkit-transform: scale(0, 0);transform: scale(0, 0);}}@-webkit-keyframes BycbWushgGX_ByR5n3ef7_Animation{0%{-webkit-transform: scale(0, 0);transform: scale(0, 0);}10%{-webkit-transform: scale(1, 1);transform: scale(1, 1);}20%{-webkit-transform: scale(0, 0);transform: scale(0, 0);}100%{-webkit-transform: scale(0, 0);transform: scale(0, 0);}}@keyframes BycbWushgGX_ByR5n3ef7_Animation{0%{-webkit-transform: scale(0, 0);transform: scale(0, 0);}10%{-webkit-transform: scale(1, 1);transform: scale(1, 1);}20%{-webkit-transform: scale(0, 0);transform: scale(0, 0);}100%{-webkit-transform: scale(0, 0);transform: scale(0, 0);}}@-webkit-keyframes S1W-usnezQ_SJKfn2xGQ_Animation{0%{-webkit-transform: scale(1.2, 1.2);transform: scale(1.2, 1.2);}50%{-webkit-transform: scale(1, 1);transform: scale(1, 1);}100%{-webkit-transform: scale(1.2, 1.2);transform: scale(1.2, 1.2);}}@keyframes S1W-usnezQ_SJKfn2xGQ_Animation{0%{-webkit-transform: scale(1.2, 1.2);transform: scale(1.2, 1.2);}50%{-webkit-transform: scale(1, 1);transform: scale(1, 1);}100%{-webkit-transform: scale(1.2, 1.2);transform: scale(1.2, 1.2);}}@-webkit-keyframes HJeZds2efX_BJ4Ys3eMm_Animation{0%{-webkit-transform: scale(1.2, 1.2);transform: scale(1.2, 1.2);}50%{-webkit-transform: scale(1, 1);transform: scale(1, 1);}100%{-webkit-transform: scale(1.2, 1.2);transform: scale(1.2, 1.2);}}@keyframes HJeZds2efX_BJ4Ys3eMm_Animation{0%{-webkit-transform: scale(1.2, 1.2);transform: scale(1.2, 1.2);}50%{-webkit-transform: scale(1, 1);transform: scale(1, 1);}100%{-webkit-transform: scale(1.2, 1.2);transform: scale(1.2, 1.2);}}#B1Zdj2xz7 *{-webkit-animation-duration: 2s;animation-duration: 2s;-webkit-animation-iteration-count: infinite;animation-iteration-count: infinite;-webkit-animation-timing-function: cubic-bezier(0, 0, 1, 1);animation-timing-function: cubic-bezier(0, 0, 1, 1);}#HJeZds2efX{fill: url(#SVGID_1_);}#S1W-usnezQ{fill: url(#SVGID_2_);}#SyVZOo3lzQ{fill: #EF5151;}#SkHZdi3lGQ{fill: #76282A;}#B1UZdj2xf7{fill: #517DBE;}#rkvWujnxGQ{fill: #76282A;}#S1_Zuj3efm{fill: #517DBE;}#H1tWdjnlfQ{fill: #FDC665;}#By5b_jnlMm{fill: #A83A3A;}#Hkj-_jhgMQ{fill: #FDC665;}#rk3WOonez7{fill: #A83A3A;}#HJaZdihezQ{fill: #517DBE;}#HJCWuonlMQ{fill: #F6921E;}#S1JlbOihgz7{fill: #517DBE;}#r1ge-_shxfm{fill: #A83A3A;}#Bkbe-OihxMX{fill: #DBA77F;}#HyMl-dinefX{fill: #3A3735;}#S1Xgbdo3eMm{fill: #DBA77F;}#rk4lWuonezm{fill: #3A3735;}#Skre-_i2ezm{fill: #517DBE;}#r1Lx-us3eGQ{fill: #EEC09B;}#r1veb_j2efQ{fill: #3A3735;}#SJdgW_j2gMX{fill: #2D2B29;}#BkFxZ_s2eGQ{fill: #DBA77F;}#rk5lbdoheMQ{fill: #54524F;}#Hyjgbus3efQ{fill: #54524F;}#rynebOohefm{fill: #FDD4B2;}#HyalZuihgMX{fill: #2D2B29;}#rJCxZdohxG7{fill: #2D2B29;}#HkWZ-_s3xGm{fill: #FDC665;}#rkG--_jngf7{fill: #EF5151;}#rJQ-ZdonxMQ{fill: #FDC665;}#SJVb-OshefQ{fill: #D1A352;}#B1r--_ohgMm{fill: #FFFFFF;stroke: #000000;stroke-miterlimit: 10;}#B1U-WOonxMX{fill: #B78F47;}#ryP--us2gf7{fill: #FFFFFF;stroke: #000000;stroke-miterlimit: 10;}#rydZbushlf7{fill: #F7C8B0;}#BytZZOi3xzm{fill: #F7C8B0;}#BycbWushgGX{fill: #FDC665;-webkit-transform-origin: 50% 50%;transform-origin: 50% 50%;transform-box: fill-box;}#S1jbWui2xzX{fill: #FDC665;}#Hk2bWOs3xfX{fill: #FDC665;}#HkTZW_ohgfQ{fill: #FDC665;}#Hy0ZbdsheMm{fill: #FDC665;}#SJJM-_i3lG7{fill: #FDC665;}#r1gfbusneGX{fill: #FDC665;}#SJbM-donefQ{fill: #FDC665;}#HJeZds2efX_BJ4Ys3eMm{-webkit-animation-name: HJeZds2efX_BJ4Ys3eMm_Animation;animation-name: HJeZds2efX_BJ4Ys3eMm_Animation;-webkit-transform-origin: 50% 50%;transform-origin: 50% 50%;transform-box: fill-box;-webkit-transform: scale(1, 1);transform: scale(1, 1);}#S1W-usnezQ_SJKfn2xGQ{-webkit-animation-name: S1W-usnezQ_SJKfn2xGQ_Animation;animation-name: S1W-usnezQ_SJKfn2xGQ_Animation;-webkit-transform-origin: 50% 50%;transform-origin: 50% 50%;transform-box: fill-box;}#BycbWushgGX_ByR5n3ef7{-webkit-animation-name: BycbWushgGX_ByR5n3ef7_Animation;animation-name: BycbWushgGX_ByR5n3ef7_Animation;-webkit-transform-origin: 50% 50%;transform-origin: 50% 50%;transform-box: fill-box;}#Hy0ZbdsheMm_HJi02ngzm{-webkit-animation-name: Hy0ZbdsheMm_HJi02ngzm_Animation;animation-name: Hy0ZbdsheMm_HJi02ngzm_Animation;-webkit-transform-origin: 50% 50%;transform-origin: 50% 50%;transform-box: fill-box;}#HkTZW_ohgfQ_BkEl62gzX{-webkit-animation-name: HkTZW_ohgfQ_BkEl62gzX_Animation;animation-name: HkTZW_ohgfQ_BkEl62gzX_Animation;-webkit-transform-origin: 50% 50%;transform-origin: 50% 50%;transform-box: fill-box;}#SJJM-_i3lG7_B1yMp2lGm{-webkit-animation-name: SJJM-_i3lG7_B1yMp2lGm_Animation;animation-name: SJJM-_i3lG7_B1yMp2lGm_Animation;-webkit-transform-origin: 50% 50%;transform-origin: 50% 50%;transform-box: fill-box;}#Hk2bWOs3xfX_r1OmThefm{-webkit-animation-name: Hk2bWOs3xfX_r1OmThefm_Animation;animation-name: Hk2bWOs3xfX_r1OmThefm_Animation;-webkit-transform-origin: 50% 50%;transform-origin: 50% 50%;transform-box: fill-box;}#SJbM-donefQ_BJQSangfm{-webkit-animation-name: SJbM-donefQ_BJQSangfm_Animation;animation-name: SJbM-donefQ_BJQSangfm_Animation;-webkit-transform-origin: 50% 50%;transform-origin: 50% 50%;transform-box: fill-box;}#S1jbWui2xzX_B15Ua2gGm{-webkit-animation-name: S1jbWui2xzX_B15Ua2gGm_Animation;animation-name: S1jbWui2xzX_B15Ua2gGm_Animation;-webkit-transform-origin: 50% 50%;transform-origin: 50% 50%;transform-box: fill-box;}#r1gfbusneGX_Bybu6hxfQ{-webkit-animation-name: r1gfbusneGX_Bybu6hxfQ_Animation;animation-name: r1gfbusneGX_Bybu6hxfQ_Animation;-webkit-transform-origin: 50% 50%;transform-origin: 50% 50%;transform-box: fill-box;}#S11ZbOj3ez7_ryQ3pnlG7{-webkit-animation-name: S11ZbOj3ez7_ryQ3pnlG7_Animation;animation-name: S11ZbOj3ez7_ryQ3pnlG7_Animation;-webkit-transform-origin: 50% 50%;transform-origin: 50% 50%;transform-box: fill-box;}#HklbZ_j2lGX_H1GRpneGQ{-webkit-animation-name: HklbZ_j2lGX_H1GRpneGQ_Animation;animation-name: HklbZ_j2lGX_H1GRpneGQ_Animation;-webkit-transform-origin: 50% 50%;transform-origin: 50% 50%;transform-box: fill-box;}</style>

<radialGradient id="SVGID_1_" cx="136.5056" cy="175.7384" r="157.3666" gradientTransform="matrix(0.9938 0 0 1.0755 0.3413 0)" gradientUnits="userSpaceOnUse">
	<stop offset="0" style="stop-color:#F6921E"/>
	<stop offset="0.8" style="stop-color:#F6921E;stop-opacity:0"/>
</radialGradient>
<g id="HJeZds2efX_BJ4Ys3eMm" data-animator-group="true" data-animator-type="2"><ellipse cx="136" cy="189" rx="134.5" ry="190" id="HJeZds2efX"/></g>
<radialGradient id="SVGID_2_" cx="135" cy="190" r="134.4825" gradientTransform="matrix(1 0 0 1.4126 0 -78.4015)" gradientUnits="userSpaceOnUse">
	<stop offset="0" style="stop-color:#FDC665"/>
	<stop offset="1" style="stop-color:#FDC665;stop-opacity:0"/>
</radialGradient>
<g id="S1W-usnezQ_SJKfn2xGQ" data-animator-group="true" data-animator-type="2"><path d="M190,16.5C190,16.5,189.9,16.5,190,16.5C189.9,16.5,189.9,16.5,190,16.5c-0.2-0.2-0.4-0.3-0.6-0.4&#10;&#9;c0,0-0.1,0-0.1-0.1c0,0,0,0,0,0c0,0,0,0-0.1,0c0,0,0,0,0,0c0,0,0,0-0.1-0.1h0c0,0,0,0-0.1-0.1c0,0,0,0,0,0c0,0-0.1,0-0.1,0l0,0&#10;&#9;c-0.1,0-0.2-0.1-0.2-0.1c0,0,0,0,0,0c0,0,0,0-0.1,0c0,0,0,0,0,0c0,0,0,0-0.1,0c0,0,0,0,0,0c0,0,0,0-0.1,0c0,0,0,0,0,0c0,0,0,0,0,0&#10;&#9;s0,0,0,0c0,0,0,0,0,0c0,0-0.1,0-0.1,0c0,0,0,0,0,0c0,0-0.1,0-0.1-0.1c0,0,0,0,0,0c0,0,0,0-0.1,0c0,0,0,0,0,0c0,0,0,0,0,0&#10;&#9;c0,0,0,0,0,0c0,0,0,0-0.1,0c0,0,0,0,0,0c0,0,0,0,0,0c0,0,0,0,0,0c0,0,0,0-0.1,0c0,0,0,0,0,0c-0.1,0-0.1-0.1-0.2-0.1c0,0,0,0,0,0&#10;&#9;c0,0-0.1,0-0.1,0c0,0,0,0,0,0c0,0,0,0-0.1,0c0,0,0,0,0,0c0,0,0,0-0.1,0c0,0,0,0,0,0c0,0,0,0-0.1,0c0,0,0,0,0,0c0,0,0,0-0.1,0&#10;&#9;c0,0,0,0,0,0c-0.1,0-0.1-0.1-0.2-0.1c0,0,0,0,0,0c0,0-0.1,0-0.1,0c0,0,0,0,0,0c0,0,0,0-0.1,0c0,0,0,0,0,0s0,0-0.1,0c0,0,0,0,0,0&#10;&#9;c0,0,0,0-0.1,0c0,0,0,0,0,0c0,0,0,0-0.1,0c0,0,0,0,0,0c0,0-0.1,0-0.1,0c0,0,0,0,0,0c0,0-0.1,0-0.1-0.1c0,0,0,0,0,0c0,0-0.1,0-0.1,0&#10;&#9;c0,0,0,0,0,0c0,0,0,0-0.1,0c0,0,0,0,0,0c0,0,0,0-0.1,0c0,0,0,0,0,0c0,0-0.1,0-0.1,0c0,0,0,0,0,0c0,0-0.1,0-0.1,0c0,0,0,0,0,0&#10;&#9;c-0.1,0-0.1-0.1-0.2-0.1c0,0,0,0,0,0c0,0-0.1,0-0.1,0c0,0,0,0,0,0c0,0,0,0-0.1,0l0,0c0,0-0.1,0-0.1,0c0,0,0,0,0,0c0,0,0,0-0.1,0&#10;&#9;c0,0,0,0,0,0c0,0-0.1,0-0.1,0c0,0,0,0,0,0c-0.1-0.1-0.2-0.1-0.3-0.2c0,0,0,0,0,0c0,0-0.1,0-0.1,0c0,0,0,0,0,0c0,0,0,0-0.1,0&#10;&#9;c0,0,0,0,0,0c0,0,0,0-0.1,0c0,0,0,0,0,0c0,0-0.1,0-0.1,0c0,0,0,0,0,0c0,0-0.1,0-0.1,0l0,0c-0.1,0-0.1-0.1-0.2-0.1c0,0,0,0,0,0&#10;&#9;c0,0-0.1,0-0.1,0c0,0,0,0,0,0c0,0,0,0-0.1,0c0,0,0,0,0,0c0,0,0,0-0.1,0c0,0,0,0,0,0c0,0,0,0-0.1,0c0,0,0,0,0,0c0,0-0.1,0-0.1-0.1&#10;&#9;c0,0,0,0,0,0c-0.1,0-0.1-0.1-0.2-0.1c0,0,0,0,0,0c0,0,0,0-0.1,0c0,0,0,0,0,0c0,0,0,0-0.1,0c0,0,0,0,0,0c0,0-0.1,0-0.1,0c0,0,0,0,0,0&#10;&#9;c0,0,0,0-0.1,0c0,0,0,0,0,0c0,0-0.1,0-0.1-0.1c0,0,0,0,0,0c-0.1,0-0.2-0.1-0.2-0.1h0c0,0-0.1,0-0.1-0.1c0,0,0,0,0,0c0,0,0,0-0.1,0&#10;&#9;c0,0,0,0,0,0c0,0,0,0-0.1,0c0,0,0,0,0,0c0,0-0.1,0-0.1,0c0,0,0,0,0,0c-0.1,0-0.2-0.1-0.3-0.2l0,0c0,0-0.1,0-0.1,0c0,0,0,0,0,0&#10;&#9;c0,0,0,0-0.1,0c0,0,0,0,0,0c0,0,0,0-0.1,0c0,0,0,0,0,0c0,0,0,0-0.1,0c0,0,0,0,0,0c0,0-0.1,0-0.1,0c0,0,0,0,0,0&#10;&#9;c-0.1,0-0.1-0.1-0.2-0.1c0,0,0,0,0,0c0,0-0.1,0-0.1,0c0,0,0,0,0,0c0,0,0,0-0.1,0c0,0,0,0,0,0c0,0,0,0-0.1,0c0,0,0,0,0,0&#10;&#9;c0,0,0,0-0.1,0c0,0,0,0,0,0c0,0,0,0-0.1,0c0,0,0,0,0,0c-0.1,0-0.1-0.1-0.2-0.1h0c0,0-0.1,0-0.1,0c0,0,0,0,0,0c0,0,0,0-0.1,0&#10;&#9;c0,0,0,0,0,0c0,0,0,0-0.1,0c0,0,0,0,0,0c0,0,0,0-0.1,0c0,0,0,0,0,0c0,0-0.1,0-0.1,0c0,0,0,0,0,0c0,0-0.1,0-0.1,0c0,0,0,0,0,0&#10;&#9;c0,0-0.1,0-0.1-0.1c0,0,0,0,0,0c0,0-0.1,0-0.1,0c0,0,0,0,0,0c0,0,0,0-0.1,0c0,0,0,0,0,0c0,0,0,0-0.1,0c0,0,0,0,0,0c0,0,0,0-0.1,0&#10;&#9;c0,0,0,0,0,0c0,0-0.1,0-0.1,0c0,0,0,0,0,0c-0.1,0-0.1-0.1-0.2-0.1c0,0,0,0,0,0c0,0-0.1,0-0.1,0c0,0,0,0,0,0c0,0,0,0-0.1,0&#10;&#9;c0,0,0,0,0,0c0,0,0,0-0.1,0c0,0,0,0,0,0c0,0,0,0-0.1,0c0,0,0,0,0,0c0,0,0,0-0.1,0c0,0,0,0,0,0c0,0-0.1,0-0.1,0c0,0,0,0,0,0&#10;&#9;c0,0-0.1,0-0.1,0c0,0,0,0,0,0c0,0,0,0-0.1,0c0,0,0,0,0,0c0,0,0,0-0.1,0c0,0,0,0,0,0c0,0,0,0-0.1,0c0,0,0,0-0.1,0c0,0,0,0-0.1,0&#10;&#9;c0,0,0,0,0,0c0,0,0,0-0.1,0c0,0,0,0,0,0c0,0,0,0-0.1,0c0,0,0,0,0,0c0,0-0.1,0-0.1-0.1c0,0,0,0,0,0c0,0-0.1,0-0.1,0c0,0,0,0-0.1,0&#10;&#9;c0,0,0,0-0.1,0c0,0,0,0,0,0c0,0,0,0,0,0c0,0,0,0,0,0c0,0,0,0-0.1,0c0,0,0,0,0,0c0,0-0.1,0-0.1,0c0,0,0,0,0,0c0,0-0.1,0-0.1,0&#10;&#9;c0,0,0,0,0,0c0,0-0.1,0-0.1,0c0,0-0.1,0-0.1,0c0,0,0,0,0,0c0,0-0.1,0-0.1,0c0,0,0,0,0,0c0,0-0.1,0-0.1,0c0,0,0,0,0,0c0,0,0,0-0.1,0&#10;&#9;c0,0,0,0,0,0c0,0-0.1,0-0.1,0l0,0c-0.1,0-0.2-0.1-0.2-0.1c0,0-0.1,0-0.1,0c0,0,0,0,0,0c0,0,0,0-0.1,0c0,0,0,0,0,0c0,0,0,0-0.1,0&#10;&#9;c0,0,0,0,0,0c0,0,0,0-0.1,0c0,0,0,0,0,0c0,0,0,0-0.1,0c0,0,0,0,0,0c0,0,0,0-0.1,0h0c0,0-0.1,0-0.1-0.1c0,0-0.1,0-0.1,0c0,0,0,0,0,0&#10;&#9;c0,0,0,0-0.1,0c0,0,0,0,0,0c0,0,0,0-0.1,0c0,0,0,0,0,0c0,0,0,0-0.1,0c0,0,0,0,0,0c0,0,0,0-0.1,0c0,0,0,0,0,0c0,0-0.1,0-0.1,0&#10;&#9;c0,0,0,0,0,0c-0.1,0-0.1-0.1-0.2-0.1c0,0,0,0,0,0c0,0-0.1,0-0.1,0c0,0,0,0,0,0c0,0-0.1,0-0.1,0c0,0,0,0,0,0c0,0,0,0-0.1,0&#10;&#9;c0,0,0,0,0,0c0,0,0,0-0.1,0h0c0,0-0.1,0-0.1,0c0,0,0,0,0,0c-0.1,0-0.2-0.1-0.2-0.1c0,0-0.1,0-0.1,0c0,0,0,0,0,0c0,0-0.1,0-0.1,0&#10;&#9;c0,0,0,0,0,0c0,0-0.1,0-0.1,0c0,0,0,0,0,0c0,0-0.1,0-0.1,0c-0.1-0.1-0.3-0.1-0.4-0.2c0,0,0,0,0,0c0,0-0.1,0-0.1,0c0,0,0,0,0,0&#10;&#9;c0,0-0.1,0-0.1,0c0,0,0,0,0,0c-0.1-0.1-0.3-0.1-0.4-0.2c-0.1,0-0.2-0.1-0.2-0.1c-0.2-0.1-0.5-0.2-0.7-0.3l-29.7,157&#10;&#9;c1.3,0.5,2.7,1.2,3.9,2.2l53.7-143.7C195.2,20,192.6,18.2,190,16.5z M240.6,72.3C240.6,72.3,240.6,72.3,240.6,72.3&#10;&#9;c0-0.1-0.1-0.1-0.1-0.1c-0.1-0.2-0.2-0.4-0.3-0.5c0,0,0-0.1-0.1-0.1h0c0,0,0-0.1-0.1-0.1c-0.1-0.2-0.2-0.4-0.3-0.5c0,0,0,0,0,0&#10;&#9;c0,0,0-0.1-0.1-0.1c0,0,0,0,0,0c0,0,0-0.1,0-0.1c0,0,0,0,0,0c0,0,0-0.1,0-0.1c0,0,0,0,0,0c0,0,0-0.1-0.1-0.1c0,0,0-0.1-0.1-0.1&#10;&#9;c0,0,0,0,0,0c0,0,0-0.1-0.1-0.1c0,0,0,0,0,0c0,0,0-0.1,0-0.1c0,0,0,0,0,0c0,0,0-0.1,0-0.1c0,0,0,0,0,0c0,0,0-0.1,0-0.1&#10;&#9;c0,0,0,0,0-0.1c0,0,0-0.1-0.1-0.1c0,0,0,0,0,0c0,0,0-0.1-0.1-0.1c0,0,0,0,0,0c0,0,0-0.1-0.1-0.1c0,0,0,0,0,0c0,0,0-0.1,0-0.1&#10;&#9;c0,0,0,0,0-0.1c0,0,0,0,0-0.1c0,0,0,0,0,0c0,0,0-0.1,0-0.1c0,0,0,0,0-0.1c0,0,0,0,0-0.1c0,0,0,0,0-0.1c0,0,0,0,0,0&#10;&#9;c0-0.1-0.1-0.1-0.1-0.2c0,0,0,0,0,0c0,0,0,0,0-0.1c0,0,0,0,0,0c0,0,0-0.1,0-0.1c0,0,0,0,0,0c0,0,0-0.1,0-0.1c0,0,0,0,0,0&#10;&#9;c0,0,0-0.1,0-0.1c0,0,0,0,0,0c-0.1-0.1-0.1-0.2-0.2-0.3c0,0,0,0,0,0l-0.1-0.1c0,0,0,0,0,0c0,0,0-0.1,0-0.1c0,0,0,0,0,0&#10;&#9;c0,0,0-0.1,0-0.1c0,0,0,0,0,0c0,0,0-0.1-0.1-0.1c0,0,0,0,0,0c-0.1-0.2-0.2-0.4-0.3-0.5c0,0,0,0,0,0c0,0,0-0.1-0.1-0.1v0&#10;&#9;c-4.6-7.6-9.6-14.6-14.9-21.1L147.7,169c1.1,1.4,2.2,2.9,3.1,4.6l92.2-97.1C242.2,75.1,241.4,73.7,240.6,72.3z M266.6,150.1&#10;&#9;c0,0,0-0.1,0-0.1v0c0,0,0-0.1,0-0.1c0,0,0,0,0,0c0,0,0-0.1,0-0.1c0,0,0,0,0-0.1c0,0,0-0.1,0-0.1v0c0-0.1,0-0.1,0-0.2c0,0,0,0,0,0&#10;&#9;c0,0,0,0,0-0.1c0,0,0-0.1,0-0.1c0,0,0,0,0-0.1c0,0,0-0.1,0-0.1c0,0,0,0,0-0.1c0,0,0-0.1,0-0.1c0,0,0,0,0-0.1c0,0,0-0.1,0-0.1&#10;&#9;c0,0,0,0,0,0c0,0,0-0.1,0-0.1c0,0,0,0,0,0c0-0.2-0.1-0.4-0.1-0.6c0,0,0,0,0,0c0-0.1,0-0.1,0-0.2c0-0.1,0-0.1,0-0.2v0&#10;&#9;c-0.8-4.9-1.7-9.8-2.8-14.6c0-0.2-0.1-0.4-0.1-0.6l0,0c0,0,0-0.1,0-0.1c0,0,0,0,0,0c0,0,0-0.1,0-0.1c0,0,0,0,0,0c0,0,0-0.1,0-0.1&#10;&#9;c0,0,0,0,0,0c0,0,0-0.1,0-0.1c0,0,0,0,0,0c0,0,0-0.1,0-0.1c0,0,0,0,0,0c0-0.1-0.1-0.3-0.1-0.5c0,0,0,0,0,0c0,0,0-0.1,0-0.1&#10;&#9;c0,0,0,0,0,0c0,0,0-0.1,0-0.1c0,0,0,0,0,0c0,0,0-0.1,0-0.1c0,0,0,0,0,0c0,0,0-0.1,0-0.1c0,0,0,0,0,0c0,0,0-0.1,0-0.1&#10;&#9;c0-0.1,0-0.1,0-0.2c0,0,0,0,0,0c0,0,0-0.1,0-0.1c0,0,0,0,0,0c0,0,0-0.1,0-0.1c0,0,0,0,0-0.1c0,0,0-0.1,0-0.1c0,0,0,0,0-0.1&#10;&#9;c0,0,0-0.1,0-0.1c0,0,0,0,0-0.1c0,0,0-0.1,0-0.1c0,0,0,0,0-0.1c0,0,0-0.1,0-0.1c0,0,0,0,0,0c0,0,0-0.1,0-0.1c0,0,0-0.1,0-0.1&#10;&#9;c0,0,0-0.1,0-0.1c0,0,0,0,0-0.1c0,0,0,0,0-0.1c0,0,0-0.1,0-0.1c0,0,0,0,0-0.1c0,0,0,0,0-0.1c0,0,0,0,0-0.1c0,0,0-0.1,0-0.1&#10;&#9;c0,0,0,0,0-0.1c0,0,0-0.1,0-0.1c0,0,0,0,0-0.1c0,0,0-0.1,0-0.1c0,0,0,0,0,0c0-0.1-0.1-0.3-0.1-0.4c0,0,0-0.1,0-0.1c0,0,0,0,0,0&#10;&#9;c0,0,0-0.1,0-0.1c0,0,0,0,0,0c0,0,0-0.1,0-0.1c0,0,0,0,0,0c0,0,0-0.1,0-0.1c0,0,0,0,0,0c0,0,0-0.1,0-0.1c0,0,0,0,0,0&#10;&#9;c0-0.2-0.1-0.3-0.1-0.5c0,0,0,0,0,0c0,0,0-0.1,0-0.1c0,0,0,0,0,0c0,0,0-0.1,0-0.1c0,0,0,0,0,0c0,0,0-0.1,0-0.1c0,0,0,0,0,0&#10;&#9;c0,0,0-0.1,0-0.1c0,0,0,0,0,0c-0.1-0.3-0.1-0.5-0.2-0.8c0,0,0,0,0,0c0,0,0-0.1,0-0.1c0,0,0,0,0,0c0,0,0-0.1,0-0.1c0,0,0,0,0,0&#10;&#9;c-0.4-1.5-0.8-2.9-1.2-4.3c-0.1-0.4-0.2-0.7-0.3-1.1c0,0,0-0.1,0-0.1c-0.1-0.3-0.2-0.6-0.3-0.9c0,0,0,0,0,0c0,0,0-0.1,0-0.1v0&#10;&#9;c0,0,0-0.1,0-0.1c-0.1-0.3-0.1-0.5-0.2-0.8c0,0,0,0,0-0.1c0,0,0-0.1,0-0.1c0,0,0,0,0,0c0,0,0-0.1,0-0.1c0,0,0,0,0-0.1&#10;&#9;c0,0,0-0.1,0-0.1c0,0,0,0,0-0.1c0,0,0-0.1,0-0.1c0,0,0,0,0-0.1c0,0,0-0.1,0-0.1c0,0,0,0,0-0.1c0,0,0,0,0-0.1c0,0,0-0.1,0-0.1&#10;&#9;c0,0,0,0,0,0c0,0,0-0.1,0-0.1c0,0,0,0,0,0c0,0,0-0.1,0-0.1c0,0,0,0,0,0c0,0,0-0.1,0-0.1c0,0,0,0,0-0.1c0,0,0-0.1,0-0.1&#10;&#9;c0,0,0,0,0-0.1c0,0,0-0.1,0-0.1c0,0,0,0,0,0c0,0,0-0.1,0-0.1l0,0c0-0.1-0.1-0.3-0.1-0.4c0,0,0,0,0,0c0,0,0-0.1,0-0.1v0&#10;&#9;c0,0,0-0.1,0-0.1c0,0,0,0,0,0c0,0,0-0.1,0-0.1c-0.1-0.5-0.3-0.9-0.4-1.3l-105.1,65.9c0.6,1.8,1,3.7,1.2,5.6L267,153.3&#10;&#9;C266.9,152.3,266.7,151.2,266.6,150.1z M154.5,190.9c0,2.1-0.2,4.2-0.6,6.1l111.4,40.4c0.2-1.3,0.4-2.5,0.7-3.8c0-0.1,0-0.2,0.1-0.3&#10;&#9;c0-0.1,0-0.1,0-0.2v0c0,0,0-0.1,0-0.2c0-0.2,0.1-0.4,0.1-0.6c0,0,0,0,0,0c0,0,0-0.1,0-0.1c0,0,0,0,0,0c0,0,0-0.1,0-0.1c0,0,0,0,0,0&#10;&#9;c0,0,0-0.1,0-0.1c0,0,0,0,0,0c0,0,0-0.1,0-0.1c0,0,0,0,0-0.1c0,0,0-0.1,0-0.1c0,0,0,0,0,0c0,0,0-0.1,0-0.1c0,0,0,0,0,0&#10;&#9;c0,0,0-0.1,0-0.1c0,0,0,0,0,0c0,0,0-0.1,0-0.1c0,0,0-0.1,0-0.1c0,0,0,0,0-0.1c0,0,0-0.1,0-0.1c0,0,0-0.1,0-0.1c0,0,0-0.1,0-0.1&#10;&#9;c0,0,0,0,0-0.1c0,0,0-0.1,0-0.1c0,0,0,0,0-0.1c0,0,0-0.1,0-0.1c0,0,0,0,0-0.1c0,0,0-0.1,0-0.1c0,0,0,0,0-0.1c0,0,0-0.1,0-0.1&#10;&#9;c0,0,0,0,0-0.1c0,0,0-0.1,0-0.1c0,0,0,0,0,0c0-0.2,0.1-0.4,0.1-0.5c0,0,0,0,0,0c0,0,0-0.1,0-0.1c0,0,0,0,0,0c0,0,0-0.1,0-0.1v0&#10;&#9;c0,0,0-0.1,0-0.1c0,0,0,0,0-0.1c0,0,0-0.1,0-0.1c0,0,0,0,0-0.1c0,0,0-0.1,0-0.1c0,0,0,0,0,0c0,0,0-0.1,0-0.1c0,0,0,0,0,0&#10;&#9;c0,0,0-0.1,0-0.1v0c0-0.2,0-0.3,0.1-0.5c0,0,0,0,0,0c0,0,0-0.1,0-0.1c0,0,0,0,0,0c0,0,0-0.1,0-0.1v0c0,0,0-0.1,0-0.1c0,0,0,0,0,0&#10;&#9;c0,0,0-0.1,0-0.1c0,0,0,0,0,0c0,0,0-0.1,0-0.1c0,0,0,0,0,0c0,0,0-0.1,0-0.1c0-0.2,0.1-0.4,0.1-0.6c0,0,0-0.1,0-0.1c0,0,0,0,0,0&#10;&#9;c0,0,0-0.1,0-0.1c0,0,0,0,0,0c0,0,0-0.1,0-0.1c0,0,0,0,0,0c0,0,0-0.1,0-0.1c0,0,0,0,0,0c0,0,0-0.1,0-0.1c0,0,0,0,0,0&#10;&#9;c0,0,0-0.1,0-0.1c0,0,0,0,0,0c0-0.2,0-0.4,0.1-0.5c0,0,0,0,0,0c0,0,0-0.1,0-0.1v0c0,0,0-0.1,0-0.1c0,0,0,0,0,0c0,0,0-0.1,0-0.1&#10;&#9;c0,0,0,0,0,0c0,0,0-0.1,0-0.1c0,0,0,0,0-0.1c0,0,0-0.1,0-0.1c0,0,0,0,0,0c0,0,0-0.1,0-0.1c0,0,0,0,0,0c0,0,0-0.1,0-0.1&#10;&#9;c0,0,0,0,0-0.1c0,0,0-0.1,0-0.1c0,0,0,0,0,0c0-0.1,0-0.1,0-0.2c0,0,0,0,0,0c0,0,0-0.1,0-0.1c0,0,0,0,0-0.1c0,0,0-0.1,0-0.1&#10;&#9;c0,0,0,0,0-0.1v-0.1c0,0,0-0.1,0-0.1v-0.1c0,0,0-0.1,0-0.1c0,0,0-0.1,0-0.1c0,0,0-0.1,0-0.1c0,0,0,0,0-0.1c0,0,0-0.1,0-0.1&#10;&#9;c0,0,0-0.1,0-0.1c0,0,0,0,0-0.1c0,0,0-0.1,0-0.1c0,0,0-0.1,0-0.1c0,0,0-0.1,0-0.1c0,0,0-0.1,0-0.1c0,0,0,0,0,0c0,0,0-0.1,0-0.1v-0.1&#10;&#9;c0,0,0-0.1,0-0.1c0,0,0,0,0-0.1c0,0,0-0.1,0-0.1c0,0,0,0,0,0c0,0,0-0.1,0-0.1c0,0,0,0,0,0c0,0,0-0.1,0-0.1v0c0,0,0-0.1,0-0.1&#10;&#9;c0,0,0,0,0,0c0-0.1,0-0.1,0-0.2c0-0.2,0-0.4,0.1-0.6c0,0,0,0,0,0c0,0,0-0.1,0-0.2c0-0.1,0-0.1,0-0.2v0c0.9-7.9,1.4-16,1.6-24.2&#10;&#9;L154.5,190.9z M152.4,202.5c-0.7,1.8-1.5,3.5-2.4,5.1l88.1,104.5c0.2-0.4,0.5-0.8,0.7-1.2c0,0,0,0,0,0c0,0,0,0,0-0.1c0,0,0,0,0,0&#10;&#9;c0,0,0,0,0-0.1c0,0,0,0,0,0c0,0,0-0.1,0-0.1c0,0,0,0,0-0.1c0,0,0,0,0-0.1c0,0,0,0,0-0.1c0,0,0,0,0-0.1c0,0,0,0,0-0.1c0,0,0,0,0-0.1&#10;&#9;c0,0,0-0.1,0.1-0.1c0,0,0,0,0,0c0,0,0-0.1,0-0.1c0,0,0,0,0,0c0,0,0-0.1,0-0.1c0,0,0,0,0,0c0,0,0-0.1,0-0.1c0,0,0,0,0,0&#10;&#9;c0,0,0-0.1,0.1-0.1c0,0,0,0,0,0c3.5-6.1,6.8-12.6,9.8-19.4c0,0,0,0,0,0c0,0,0-0.1,0-0.1c0,0,0,0,0,0c0,0,0-0.1,0-0.1c0,0,0,0,0,0&#10;&#9;c0,0,0-0.1,0-0.1l0,0c0,0,0-0.1,0.1-0.1c0,0,0-0.1,0.1-0.1l0,0c0,0,0-0.1,0-0.1c0,0,0,0,0-0.1c0,0,0-0.1,0-0.1c0,0,0,0,0-0.1&#10;&#9;c0,0,0,0,0-0.1c0,0,0,0,0-0.1c0,0,0,0,0-0.1c0,0,0,0,0-0.1c0,0,0,0,0,0c0-0.1,0.1-0.2,0.1-0.3l0,0c0,0,0-0.1,0-0.1c0,0,0,0,0,0&#10;&#9;c0,0,0-0.1,0-0.1c0,0,0,0,0,0c1.6-3.7,3.1-7.5,4.5-11.4L152.4,202.5z M146.8,212c-1.2,1.3-2.4,2.3-3.7,3.2L190.7,363&#10;&#9;c9.2-5.9,17.8-13.2,25.7-21.7L146.8,212z M139.1,217c-1.3,0.4-2.7,0.6-4.1,0.6h-0.4L132.4,380c0.4,0,0.7,0,1.1,0h0.3c0,0,0,0,0.1,0&#10;&#9;h1.3c0,0,0,0,0,0h0.9c0,0,0,0,0.1,0h0.1c0,0,0,0,0,0h0.6c0,0,0,0,0,0c0,0,0.1,0,0.1,0h0.2c0,0,0,0,0,0h0.3v0h0.1c0,0,0,0,0,0h0.1&#10;&#9;c0,0,0,0,0,0h0.1c0,0,0,0,0,0h0.1c0,0,0,0,0,0c0,0,0.1,0,0.1,0h0.3c0,0,0,0,0,0c0,0,0.1,0,0.1,0c0,0,0,0,0,0h0.1c0,0,0,0,0,0&#10;&#9;c0.1,0,0.2,0,0.3,0h0.1c0,0,0.1,0,0.1,0c6.3-0.3,12.5-1.2,18.5-2.6c0,0,0.1,0,0.1,0c0.1,0,0.1,0,0.2,0h0.1c1.4-0.3,2.8-0.7,4.1-1.1&#10;&#9;L139.1,217z M126.3,214.7L74.7,359.8c0.7,0.5,1.4,1,2.1,1.4c0,0,0.1,0,0.1,0.1c0,0,0,0,0,0c0,0,0.1,0,0.1,0c0,0,0,0,0,0&#10;&#9;c0,0,0,0,0.1,0c0,0,0,0,0,0c0,0,0.1,0,0.1,0c0,0,0,0,0,0c0,0,0,0,0.1,0c0,0,0,0,0.1,0.1c0,0,0,0,0.1,0c0,0,0,0,0,0c0,0,0,0,0,0&#10;&#9;c0,0,0,0,0,0c0,0,0,0,0,0c0,0,0,0,0.1,0c0,0,0,0,0,0c0,0,0,0,0.1,0.1h0c0,0,0,0,0.1,0.1c0,0,0,0,0,0c7.9,5.3,16.2,9.5,24.9,12.5&#10;&#9;l27.5-157.7C128.9,216.3,127.6,215.6,126.3,214.7z M119.6,206.8l-90.8,99.6c6.1,11.2,13.1,21.3,20.9,30.3l73.1-125.4&#10;&#9;C121.5,210,120.5,208.5,119.6,206.8z M116,196L3.5,230.2c1.8,11.6,4.3,22.8,7.5,33.4c0,0,0,0,0,0c0,0,0,0.1,0,0.1c0,0,0,0,0,0&#10;&#9;c0,0,0,0.1,0,0.1c0,0,0,0,0,0.1c0,0,0,0,0,0.1c0,0,0,0,0,0.1l0,0.1c0,0,0,0,0,0.1c0,0.1,0.1,0.2,0.1,0.3c0,0,0,0,0,0&#10;&#9;c0,0,0,0.1,0,0.1c0,0,0,0,0,0.1c0,0,0,0,0,0.1c0,0,0,0,0,0.1c0,0,0,0,0,0.1c0,0,0,0,0,0.1c0,0,0,0.1,0,0.1c0,0,0,0,0,0.1&#10;&#9;c0,0,0,0,0,0.1c0,0,0,0.1,0,0.1c0,0,0,0,0,0.1c0,0,0,0.1,0,0.1c0,0,0,0,0,0.1c0,0,0,0.1,0,0.1c0,0,0,0,0,0c0,0,0,0.1,0,0.1&#10;&#9;c0,0,0,0,0,0c0,0,0,0.1,0,0.1c0,0,0,0,0,0c0,0,0,0.1,0,0.1c0,0,0,0,0,0c0,0,0,0.1,0,0.1c0,0,0,0,0,0c0,0,0,0.1,0,0.1c0,0,0,0,0,0&#10;&#9;c0.4,1.3,0.8,2.6,1.2,3.9l104.2-68.8C116.7,199.8,116.3,197.9,116,196z M4.1,146.2c-0.4,2.5-0.8,5-1.1,7.5c0,0.1,0,0.1,0,0.1&#10;&#9;c0,0,0,0,0,0c0,0.1,0,0.1,0,0.2c0,0.2-0.1,0.4-0.1,0.6c0,0.1,0,0.1,0,0.2c0,0,0,0,0,0c0,0,0,0.1,0,0.1c0,0,0,0,0,0.1&#10;&#9;c0,0,0,0.1,0,0.1c0,0,0,0.1,0,0.1c0,0,0,0.1,0,0.1c0,0,0,0,0,0.1c0,0,0,0.1,0,0.1c0,0,0,0,0,0.1c0,0,0,0,0,0.1c0,0,0,0.1,0,0.1&#10;&#9;c0,0,0,0,0,0.1c0,0,0,0.1,0,0.1c0,0,0,0,0,0c0,0.2,0,0.4-0.1,0.6v0c0,0,0,0.1,0,0.1c0,0,0,0,0,0c0,0,0,0.1,0,0.1c0,0,0,0,0,0&#10;&#9;c0,0,0,0.1,0,0.1c0,0,0,0,0,0c0,0,0,0.1,0,0.1v0c-0.6,4.7-1,9.4-1.4,14.2c0,0.4-0.1,0.8-0.1,1.2c0,0,0,0,0,0c0,0,0,0.1,0,0.1v0&#10;&#9;c0,0,0,0.1,0,0.1v0c0,0,0,0.1,0,0.1v0c0,0,0,0.1,0,0.1v0.1c0,0,0,0.1,0,0.1v0c0,0,0,0.1,0,0.1c0,0,0,0,0,0c0,0.1,0,0.2,0,0.2&#10;&#9;c0,0,0,0,0,0c0,0,0,0.1,0,0.1v0.1c0,0,0,0,0,0.1v0.1c0,0,0,0,0,0.1v0.1c0,0,0,0,0,0.1v0.1c0,0,0,0,0,0.1v0.1c0,0,0,0,0,0.1v0.2&#10;&#9;c0,0,0,0.1,0,0.1v0c0,0.1,0,0.1,0,0.2c0,0.2,0,0.4,0,0.7c0,0,0,0,0,0c0,0,0,0.1,0,0.2c0,0.1,0,0.1,0,0.2v0.2c0,0,0,0,0,0&#10;&#9;c-0.2,4-0.3,8-0.3,12.1l115,1.5c0-2.1,0.2-4.2,0.5-6.2L4.1,146.2z M30.3,70.7c-3.3,5.7-6.3,11.7-9.1,18c0,0,0,0,0,0c0,0,0,0,0,0.1&#10;&#9;c0,0,0,0,0,0c0,0,0,0.1,0,0.1c0,0,0,0,0,0.1c0,0,0,0,0,0.1c0,0,0,0.1,0,0.1c0,0,0,0,0,0c0,0,0,0.1,0,0.1c0,0,0,0,0,0&#10;&#9;c-0.1,0.1-0.1,0.3-0.2,0.4c0,0,0,0.1-0.1,0.1c0,0,0,0,0,0c0,0,0,0.1-0.1,0.1c0,0,0,0.1-0.1,0.1c-2.3,5.3-4.4,10.7-6.4,16.3&#10;&#9;L117.4,178c0.6-1.8,1.4-3.6,2.4-5.2L30.3,70.7z M77,18.5c-6.4,4.4-12.6,9.4-18.4,15.1c0,0,0,0-0.1,0.1c0,0,0,0,0,0c0,0,0,0-0.1,0.1&#10;&#9;c0,0,0,0,0,0c0,0,0,0-0.1,0.1c0,0,0,0,0,0c0,0,0,0-0.1,0.1c0,0,0,0,0,0c0,0-0.1,0.1-0.1,0.1c0,0,0,0,0,0c0,0,0,0,0,0.1c0,0,0,0,0,0&#10;&#9;c0,0,0,0-0.1,0c0,0,0,0,0,0.1c0,0,0,0,0,0c0,0,0,0-0.1,0.1c0,0,0,0,0,0c0,0,0,0-0.1,0.1c0,0,0,0,0,0c0,0-0.1,0.1-0.1,0.1&#10;&#9;c0,0,0,0,0,0c-0.1,0.1-0.1,0.1-0.2,0.2c-2,2-3.9,4-5.8,6.1L123,168.3c1.1-1.3,2.4-2.4,3.7-3.3L77,18.5z M134.2,0&#10;&#9;C134.2,0,134.2,0,134.2,0h-0.3c0,0-0.1,0-0.1,0H133c0,0,0,0,0,0h-0.5c0,0-0.1,0-0.1,0h-0.1c0,0,0,0,0,0h-0.2c0,0,0,0,0,0h-0.1&#10;&#9;c0,0,0,0,0,0h-0.2c0,0,0,0,0,0c-0.1,0-0.2,0-0.4,0h-0.1c0,0,0,0,0,0c0,0-0.1,0-0.1,0h-0.3c0,0-0.1,0-0.1,0h-0.1c0,0,0,0,0,0h-0.1&#10;&#9;l0,0c-0.1,0-0.2,0-0.4,0H130c0,0,0,0,0,0c0,0-0.1,0-0.1,0h-0.1c0,0,0,0,0,0h-0.1l0,0h-0.1c0,0,0,0,0,0c-0.1,0-0.2,0-0.2,0&#10;&#9;c-0.2,0-0.3,0-0.5,0c-0.1,0-0.1,0-0.2,0c0,0,0,0,0,0c0,0-0.1,0-0.1,0h-0.1c-5,0.4-9.9,1.1-14.7,2.2c0,0-0.1,0-0.1,0l0,0&#10;&#9;c0,0-0.1,0-0.1,0c0,0,0,0,0,0c0,0-0.1,0-0.1,0c0,0,0,0,0,0c0,0-0.1,0-0.1,0h0c-0.1,0-0.2,0.1-0.3,0.1c0,0,0,0,0,0c0,0-0.1,0-0.1,0&#10;&#9;c0,0,0,0,0,0c0,0,0,0-0.1,0c0,0,0,0,0,0c0,0,0,0-0.1,0c0,0,0,0-0.1,0c0,0,0,0-0.1,0c0,0,0,0-0.1,0c0,0,0,0,0,0c0,0,0,0-0.1,0h0&#10;&#9;c0,0,0,0-0.1,0h0c0,0,0,0-0.1,0c0,0,0,0,0,0c-0.1,0-0.2,0-0.3,0.1c0,0-0.1,0-0.1,0c0,0,0,0,0,0c0,0-0.1,0-0.1,0l0,0c0,0-0.1,0-0.1,0&#10;&#9;c0,0,0,0,0,0c0,0-0.1,0-0.1,0h0c0,0-0.1,0-0.1,0c0,0,0,0,0,0c-2,0.5-4,1.1-5.9,1.7l25.3,158.5c1.4-0.5,2.9-0.7,4.4-0.7V0H134.2z" id="S1W-usnezQ"/></g>
<title>Asset 29</title>
<g id="BJG-_jhgf7">
	<g id="ByQbdi3ez7">
		<path d="M248.4,354.2c0,0-10.9,6.9-37,12.5c-15.7,3.3-31.6,5.4-47.5,6.3c-0.6,0-1.2,0.1-1.9,0.1&#10;&#9;&#9;&#9;c-8,0.5-16.6,0.8-25.9,0.8h-2.2c-9.3,0-17.9-0.3-25.9-0.8l-1.9-0.1c-7.7-0.5-14.8-1.1-21.3-1.9c-10.1-1.3-18.8-2.8-26.3-4.4&#10;&#9;&#9;&#9;c-26.1-5.6-37-12.4-37-12.4c0-8.9,0.1-17.4,0.4-25.7c0.2-7.3,0.6-14.4,1.1-21.2c2.4-34.8,7.4-63.3,14.1-86.7&#10;&#9;&#9;&#9;c2.9-10.2,6.4-20.2,10.6-30c5.7-13.7,13.3-26.5,22.4-38.2c7.1-9.1,15.6-17,25.1-23.4c6.3-4.3,13.2-7.7,20.4-10.2&#10;&#9;&#9;&#9;c2.9-1,5.8-1.8,8.7-2.4c3.1-0.7,6.2-1.1,9.3-1.3l0,0c0,0,0.5,0,1.4,0h1.4l0,0c6,0.3,20.9,2.3,38.1,13.7&#10;&#9;&#9;&#9;c9.6,6.5,18.2,14.4,25.3,23.5c9.1,11.7,16.7,24.5,22.4,38.1c12,27.6,21.3,65.4,24.8,116.9c0.5,6.8,0.8,13.9,1.1,21.2&#10;&#9;&#9;&#9;C248.2,336.7,248.4,345.3,248.4,354.2z" id="SyVZOo3lzQ"/>
		<path d="M103,258.1l-41.3,64.2c-3.1-5.5-5.7-11.3-7.9-17.3c-7.8-20.6-17.4-58.1-9.2-105.2&#10;&#9;&#9;&#9;c4.8,12.3,12.1,26.1,22.4,35.3c5.3,7.8,11.7,14.7,19.6,18.8C91.7,256.7,97.3,258.1,103,258.1z" id="SkHZdi3lGQ"/>
		<path d="M86.7,254l-32.8,51c-7.8-20.5-17.4-58.1-9.2-105.1c4.8,12.3,12.1,26.1,22.4,35.3&#10;&#9;&#9;&#9;C72.3,243,78.8,249.9,86.7,254z" id="B1UZdj2xf7"/>
		<path d="M166.6,258.1l41.3,64.2c3.1-5.5,5.7-11.3,7.9-17.3c7.8-20.6,17.4-58.1,9.2-105.2&#10;&#9;&#9;&#9;c-4.8,12.3-12.1,26.1-22.4,35.3c-5.3,7.8-11.7,14.7-19.6,18.8C177.9,256.7,172.3,258.1,166.6,258.1z" id="rkvWujnxGQ"/>
		<path d="M183,254l32.8,51c7.8-20.6,17.5-58.1,9.2-105.2c-4.8,12.3-12.1,26.2-22.4,35.3C197.3,243,190.8,249.9,183,254&#10;&#9;&#9;&#9;z" id="S1_Zuj3efm"/>
		<path d="M77.8,327.3c0.4,3.1,0.8,6.2,1.3,9.4c1.5,10.9,3.4,22.3,5.6,34.2c-7.8-0.9-14.8-2.1-21.1-3.3&#10;&#9;&#9;&#9;c-29.8-5.8-42.2-13.5-42.2-13.5c0-11,0.2-21.5,0.6-31.6c0.2-4.2,0.4-8.4,0.7-12.5c5.6-88.6,28.3-137,52.1-163.4&#10;&#9;&#9;&#9;c14.5-16.1,29.3-24.1,40.7-28C95.6,137.9,60.6,191.9,77.8,327.3z" id="H1tWdjnlfQ"/>
		<path d="M58.6,336.7c1.4,9.9,3.1,20.2,5,31c-29.8-5.8-42.1-13.5-42.1-13.5c0-11,0.2-21.5,0.6-31.6&#10;&#9;&#9;&#9;c0.2-4.2,0.4-8.4,0.7-12.5c5.6-88.6,28.3-137,52.1-163.4c-16,31-29.5,85.9-17.5,180.6C57.7,330.4,58.1,333.5,58.6,336.7z" id="By5b_jnlMm"/>
		<path d="M192.1,326.2c16.9-134.6-17.9-188.4-37.8-207.6c30,10.3,83.1,48.3,92.6,188.6c1,14.5,1.5,30.1,1.5,46.9&#10;&#9;&#9;&#9;c0,0-18.1,11.4-63.3,16.8C188.1,355.1,190.4,340.2,192.1,326.2z" id="Hkj-_jhgMQ"/>
		<path d="M211.4,336.7c-1.4,9.9-3.1,20.2-5,31c29.8-5.8,42.2-13.5,42.2-13.5c0-11-0.2-21.5-0.6-31.6&#10;&#9;&#9;&#9;c-0.2-4.2-0.4-8.4-0.7-12.5c-5.6-88.6-28.3-136.9-52.1-163.4c16,31,29.5,85.9,17.5,180.6C212.3,330.4,211.9,333.5,211.4,336.7z" id="rk3WOonez7"/>
		<path d="M227.6,185.5c0,0-2,1.9-5.5,4.8c-13.8,11.7-51.4,40.7-86.2,42.9h-0.6h-1.1c-34.8-1.9-72.4-30.8-86.5-42.7&#10;&#9;&#9;&#9;c-3.7-3.1-5.8-5-5.8-5c1.7-4.4,3.8-8.6,6.1-12.6c4.9-8.5,11-16.4,17.9-23.4c8.8-8.8,18.7-16.5,29.3-23&#10;&#9;&#9;&#9;c12.3-7.6,25.4-13.8,39.1-18.4v-0.2l0.4,0.1l0.4-0.1v0.2l0.7,0.2c13.4,4.6,26.3,10.6,38.4,18.1c10.7,6.5,20.5,14.2,29.3,23&#10;&#9;&#9;&#9;c7,7,13,14.8,17.9,23.4C223.8,176.9,225.8,181.2,227.6,185.5z" id="HJaZdihezQ"/>
		<path d="M221.5,172.9c-14.4,12.1-51.7,40.6-86.2,42.4h-1.1C99.7,213.5,62.4,185,48,172.9c2.9-5,6.2-9.8,9.8-14.3&#10;&#9;&#9;&#9;c27.3-33.8,70.1-48.4,76.5-50.4V108l0.4,0.1l0.4-0.1v0.2c6.4,2,49.2,16.6,76.5,50.4C215.3,163.1,218.6,167.9,221.5,172.9z" id="HJCWuonlMQ"/>
		<path d="M211.6,158.6c-17.9,13.6-48,33-76.4,34.6h-1.1c-28.3-1.5-58.5-20.9-76.3-34.6c27.3-33.8,70.1-48.4,76.5-50.4&#10;&#9;&#9;&#9;V108l0.4,0.1l0.4-0.1v0.2C141.5,110.2,184.3,124.8,211.6,158.6z" id="S1JlbOihgz7"/>
		<path d="M211.6,143.6c-2.5,1.9-5.2,3.9-8.1,5.9c-1.2,0.9-2.5,1.8-3.9,2.7c-17.6,11.9-41.3,24.5-63.8,25.9h-0.6h-1.1&#10;&#9;&#9;&#9;c-22.6-1.2-46.4-13.8-64.1-25.8c-1.4-0.9-2.8-1.9-4.1-2.8c-2.9-2-5.6-4-8.1-5.9c11.4-14.1,25.5-24.8,38.5-32.7&#10;&#9;&#9;&#9;c12-7.3,24.7-13.2,38-17.7V93l0.4,0.1l0.4-0.1v0.3c0.2,0.1,0.4,0.2,0.7,0.2c13,4.4,25.5,10.3,37.3,17.4&#10;&#9;&#9;&#9;C186.2,118.8,200.2,129.5,211.6,143.6z" id="r1ge-_shxfm"/>
		<circle cx="96.2" cy="101.8" r="11.1" id="Bkbe-OihxMX"/>
		<path d="M92.5,76.2c0,0-13,5.5-10.5,11.6s14.8,17,14.8,17l8.4-14.3l-0.6-19.4L92.5,76.2z" id="HyMl-dinefX"/>
		<circle cx="173.3" cy="101.8" r="11.1" id="S1Xgbdo3eMm"/>
		<path d="M177.1,76.2c0,0,13,5.6,10.5,11.6s-14.8,17-14.8,17l-8.4-14.3l0.6-19.4L177.1,76.2z" id="rk4lWuonezm"/>
		<path d="M172.5,53.9c0.5,26.3-30.5,9.8-36.6,6.3l-0.9-0.5c-2,1.2-38,22.6-37.5-5.8c0.1-8.1,2.2-14,5.2-18.3&#10;&#9;&#9;&#9;c5.8-8.2,15-10.9,21-12.2c2.3-0.5,4.1-0.8,5.2-1.1c4.1-1.4,5.6-5.5,6-7.2h0.2c0.2,0.8,0.5,1.5,0.9,2.3c1,2.3,2.9,4,5.2,4.9&#10;&#9;&#9;&#9;c1,0.3,2.8,0.6,5.1,1.1c6,1.3,15.3,3.9,21.1,12.2C170.2,40,172.3,45.9,172.5,53.9z" id="Skre-_i2ezm"/>
		<path d="M154.2,149.4h-38.9c-11.1,0-20.2-9-20.2-20.2c0-0.1,0-0.2,0-0.4c0-0.3,0-0.7,0-1l0.1-1.4l1.1-15.6l2.4-34.5&#10;&#9;&#9;&#9;l0.2-2.2h71.8l0.1,2.2l2.4,34.4l1.1,15.6l0.1,1.4c0,0.3,0,0.5,0,0.8c0.3,11.1-8.4,20.4-19.6,20.8&#10;&#9;&#9;&#9;C154.5,149.4,154.4,149.4,154.2,149.4z" id="r1Lx-us3eGQ"/>
		<path d="M156.9,149.2c0,0-3.1,4.4-7.1,9.2c-4.6,5.4-10.4,11.4-14.5,11.8c-0.1,0-0.3,0-0.4,0h-0.1c-0.1,0-0.3,0-0.4,0&#10;&#9;&#9;&#9;c-4-0.5-9.9-6.4-14.5-11.8c-4-4.8-7.1-9.2-7.1-9.2c16.5-2.6,21.8-20.1,22-20.1C135.1,129.1,140.4,146.6,156.9,149.2z" id="r1veb_j2efQ"/>
		<path d="M149.8,158.5c-4.6,5.4-10.4,11.4-14.5,11.8c-0.1,0-0.3,0-0.4,0h-0.1c-0.1,0-0.3,0-0.4,0&#10;&#9;&#9;&#9;c-4-0.5-9.9-6.4-14.5-11.8c11-5.5,14.8-17.8,14.9-17.8S138.8,153,149.8,158.5z" id="SJdgW_j2gMX"/>
		<path d="M124.1,123.8c0,0,10.3,11,21.2,0l-10.2-10.2L124.1,123.8z" id="BkFxZ_s2eGQ"/>
		<path d="M134.9,115.3c0,0-10.5-2.8-17.6,3.3s-17.5,1.7-17.5,1.7S122.5,143.9,134.9,115.3z" id="rk5lbdoheMQ"/>
		<path d="M134.6,115.3c0,0,10.5-2.8,17.6,3.3c7.1,6.1,17.5,1.7,17.5,1.7S147,143.9,134.6,115.3z" id="Hyjgbus3efQ"/>
		<path d="M137.5,118.5H132c-2.5,0-4.5-2-4.5-4.5c0-0.2,0-0.4,0-0.6l1.6-12c0.3-2.2,2.2-3.9,4.5-3.9h2.3&#10;&#9;&#9;&#9;c2.3,0,4.2,1.7,4.5,3.9l1.6,12c0.3,2.5-1.4,4.7-3.9,5.1C137.8,118.5,137.6,118.5,137.5,118.5z" id="rynebOohefm"/>
		<path d="M145,89c0,0,9.8-8.5,14.2-4.7C163.6,88.1,149.1,86.7,145,89z" id="HyalZuihgMX"/>
		<path d="M124.5,89c0,0-9.8-8.5-14.2-4.7S120.5,86.7,124.5,89z" id="rJCxZdohxG7"/>
		<g id="S11ZbOj3ez7_ryQ3pnlG7" data-animator-group="true" data-animator-type="2"><circle cx="116.3" cy="98.3" r="3.5" id="S11ZbOj3ez7"/></g>
		<g id="HklbZ_j2lGX_H1GRpneGQ" data-animator-group="true" data-animator-type="2"><circle cx="152.9" cy="98.3" r="3.5" id="HklbZ_j2lGX"/></g>
		<path d="M177,67.4c0,3,0.3,8.7,0.3,8.7l-6.6,0.3c-10,0.4-28.5,1.1-34.9,1.1h-0.5c-0.2,0-0.3,0-0.5-0.1&#10;&#9;&#9;&#9;c-0.2,0.1-0.3,0.1-0.5,0.1c-6,0-25.5-0.7-35.7-1.1c-3.8-0.1-6.2-0.2-6.2-0.2s0.3-5.8,0.3-8.7s-14.1-43-14.1-43&#10;&#9;&#9;&#9;c13.1,4.6,20.2,8.4,23.9,11.3c5.5,4.3,3.6,6.9,2.8,7.8c-1.5,1.5-0.9,14.2,11.1,12.6s8.8-10.8,7-14.5s-7-6.7-7-6.7l7.1-11.5&#10;&#9;&#9;&#9;l10.8-17.3h1l0.5,0.8l10.3,16.5l7.1,11.5c0,0-5.3,3-7,6.7s-5,12.9,7,14.5s12.6-11.1,11.2-12.7c-0.9-1-2.8-3.5,2.8-7.8&#10;&#9;&#9;&#9;c3.7-2.9,10.9-6.6,23.9-11.3C191.1,24.4,177,64.4,177,67.4z" id="HkWZ-_s3xGm"/>
		<path d="M139.6,59.9v8.3c0,0.9-0.3,1.7-0.9,2.3l-1.6,1.7c-1.3,1.4-3.5,1.5-4.9,0.2c-0.1-0.1-0.2-0.2-0.2-0.2l-1.6-1.7&#10;&#9;&#9;&#9;c-0.6-0.6-0.9-1.5-0.9-2.3v-8.3c0-0.9,0.3-1.7,0.9-2.3l1.6-1.7c1.3-1.4,3.5-1.5,4.9-0.2c0.1,0.1,0.1,0.1,0.2,0.2l1.6,1.7&#10;&#9;&#9;&#9;C139.3,58.2,139.6,59,139.6,59.9z" id="rkG--_jngf7"/>
		<path d="M170.4,214.2l-5.4,26.9l-7.5,37h-43.3l-7.5-37l-5.4-26.9c8.8,4.5,20.7,25.2,20.7,25.2l13.8-36l13.8,36&#10;&#9;&#9;&#9;C149.7,239.4,161.6,218.7,170.4,214.2z" id="rJQ-ZdonxMQ"/>
		<path d="M165,241.1l-5.2,26l-2.2,11h-43.3l-2.2-11l-5.2-26c7.6,7.6,15.3,20.9,15.3,20.9l13.8-36l13.8,36&#10;&#9;&#9;&#9;C149.7,262,157.4,248.7,165,241.1z" id="SJVb-OshefQ"/>
		<path d="M112,267.1c3.1,3.9,5.8,8.1,7.7,11h-5.5L112,267.1z" id="B1r--_ohgMm"/>
		<polygon points="135.9,246 148.2,278.1 123.5,278.1 &#9;&#9;" id="B1U-WOonxMX"/>
		<path d="M159.7,267.1l-2.2,11H152C153.9,275.2,156.6,271,159.7,267.1z" id="ryP--us2gf7"/>
		<path d="M117.2,266.3c8.1,0,6.7-5.2,6.7-5.2c-7.3,0.6-14.6,0-21.8-1.6L93,273.6c1.5,0.8,3,1.7,4.7,2.8&#10;&#9;&#9;&#9;c20.1,12,36.5,8.3,36.1,2.1S109.2,266.3,117.2,266.3z" id="rydZbushlf7"/>
		<path d="M152.5,266.3c-8,0-6.7-5.2-6.7-5.2c7.3,0.6,14.6,0,21.8-1.6l9.1,14.2c-1.5,0.8-3,1.7-4.7,2.8&#10;&#9;&#9;&#9;c-20.1,12-36.5,8.3-36.1,2.1C136.4,272.2,160.5,266.3,152.5,266.3z" id="BytZZOi3xzm"/>
	</g>
</g>
<g id="BycbWushgGX_ByR5n3ef7" data-animator-group="true" data-animator-type="2"><path d="M37,93.1c0,0,18-0.2,18-18c0,0,0.2,18,18,18c0,0-18-0.2-18,17.8C55,110.8,55,93.1,37,93.1z" id="BycbWushgGX"/></g>
<g id="S1jbWui2xzX_B15Ua2gGm" data-animator-group="true" data-animator-type="2"><path d="M19,135.6c0,0,9-0.1,9-9c0,0,0.1,9,9,9c0,0-9-0.1-9,8.9C28,144.5,28,135.6,19,135.6z" id="S1jbWui2xzX"/></g>
<g id="Hk2bWOs3xfX_r1OmThefm" data-animator-group="true" data-animator-type="2"><path d="M10,68.6c0,0,9-0.1,9-9c0,0,0.1,9,9,9c0,0-9-0.1-9,8.9C19,77.5,19,68.6,10,68.6z" id="Hk2bWOs3xfX"/></g>
<g id="HkTZW_ohgfQ_BkEl62gzX" data-animator-group="true" data-animator-type="2"><path d="M34.5,39c0,0,13.5-0.2,13.5-13.5c0,0,0.2,13.5,13.5,13.5c0,0-13.5-0.2-13.5,13.3C48,52.3,48,39,34.5,39z" id="HkTZW_ohgfQ"/></g>
<g id="Hy0ZbdsheMm_HJi02ngzm" data-animator-group="true" data-animator-type="2"><path d="M206.2,104.8c0,0,18.6-0.3,18.6-18.6c0,0,0.3,18.6,18.6,18.6c0,0-18.6-0.3-18.6,18.4&#10;&#9;C224.8,123.1,224.8,104.8,206.2,104.8z" id="Hy0ZbdsheMm"/></g>
<g id="SJJM-_i3lG7_B1yMp2lGm" data-animator-group="true" data-animator-type="2"><path d="M228.1,149.2c0,0,8.9-0.1,8.9-8.9c0,0,0.1,8.9,8.9,8.9c0,0-8.9-0.1-8.9,8.8C237,158,237,149.2,228.1,149.2z" id="SJJM-_i3lG7"/></g>
<g id="r1gfbusneGX_Bybu6hxfQ" data-animator-group="true" data-animator-type="2"><path d="M201.3,52.4c0,0,8.9-0.1,8.9-8.9c0,0,0.1,8.9,8.9,8.9c0,0-8.9-0.1-8.9,8.8C210.2,61.2,210.2,52.4,201.3,52.4z" id="r1gfbusneGX"/></g>
<g id="SJbM-donefQ_BJQSangfm" data-animator-group="true" data-animator-type="2"><path d="M243.4,76.4c0,0,11-0.2,11-11c0,0,0.2,11,11,11c0,0-11-0.2-11,10.9C254.4,87.3,254.4,76.4,243.4,76.4z" id="SJbM-donefQ"/></g>
<script>(function(){var a=document.querySelector('#B1Zdj2xz7'),b=a.querySelectorAll('style'),c=function(d){b.forEach(function(f){var g=f.textContent;g&amp;&amp;(f.textContent=g.replace(/transform-box:[^;\r\n]*/gi,'transform-box: '+d))})};c('initial'),window.requestAnimationFrame(function(){return c('fill-box')})})();</script></svg>