<svg version="1.1" id="HJmNWplz7" xmlns="http://www.w3.org/2000/svg" xmlns:xlink="http://www.w3.org/1999/xlink" x="0px" y="0px" viewBox="0 0 270 380" style="enable-background:new 0 0 270 380;" xml:space="preserve"><style>@-webkit-keyframes Hk8dQVWpefX_rysSSalz7_Animation{0%{-webkit-transform: translate(0px, 0px);transform: translate(0px, 0px);}7.50%{-webkit-transform: translate(0px, 5px);transform: translate(0px, 5px);}15%{-webkit-transform: translate(0px, 0px);transform: translate(0px, 0px);}100%{-webkit-transform: translate(0px, 0px);transform: translate(0px, 0px);}}@keyframes Hk8dQVWpefX_rysSSalz7_Animation{0%{-webkit-transform: translate(0px, 0px);transform: translate(0px, 0px);}7.50%{-webkit-transform: translate(0px, 5px);transform: translate(0px, 5px);}15%{-webkit-transform: translate(0px, 0px);transform: translate(0px, 0px);}100%{-webkit-transform: translate(0px, 0px);transform: translate(0px, 0px);}}@-webkit-keyframes H1ErXVZ6xGX_S1MxHalfQ_Animation{0%{-webkit-transform: translate(0px, 0px);transform: translate(0px, 0px);}7.50%{-webkit-transform: translate(0px, 5px);transform: translate(0px, 5px);}15%{-webkit-transform: translate(0px, 0px);transform: translate(0px, 0px);}100%{-webkit-transform: translate(0px, 0px);transform: translate(0px, 0px);}}@keyframes H1ErXVZ6xGX_S1MxHalfQ_Animation{0%{-webkit-transform: translate(0px, 0px);transform: translate(0px, 0px);}7.50%{-webkit-transform: translate(0px, 5px);transform: translate(0px, 5px);}15%{-webkit-transform: translate(0px, 0px);transform: translate(0px, 0px);}100%{-webkit-transform: translate(0px, 0px);transform: translate(0px, 0px);}}@-webkit-keyframes BJb8mEZTlzX_BkhaNalz7_Animation{25%{-webkit-transform: scale(1, 1);transform: scale(1, 1);}27.50%{-webkit-transform: scale(1, 0);transform: scale(1, 0);}30%{-webkit-transform: scale(1, 1);transform: scale(1, 1);}0%{-webkit-transform: scale(1, 1);transform: scale(1, 1);}100%{-webkit-transform: scale(1, 1);transform: scale(1, 1);}}@keyframes BJb8mEZTlzX_BkhaNalz7_Animation{25%{-webkit-transform: scale(1, 1);transform: scale(1, 1);}27.50%{-webkit-transform: scale(1, 0);transform: scale(1, 0);}30%{-webkit-transform: scale(1, 1);transform: scale(1, 1);}0%{-webkit-transform: scale(1, 1);transform: scale(1, 1);}100%{-webkit-transform: scale(1, 1);transform: scale(1, 1);}}@-webkit-keyframes SJyUX4WplfQ_SkuhE6eG7_Animation{25%{-webkit-transform: scale(1, 1);transform: scale(1, 1);}27.50%{-webkit-transform: scale(1, 0);transform: scale(1, 0);}30%{-webkit-transform: scale(1, 1);transform: scale(1, 1);}0%{-webkit-transform: scale(1, 1);transform: scale(1, 1);}100%{-webkit-transform: scale(1, 1);transform: scale(1, 1);}}@keyframes SJyUX4WplfQ_SkuhE6eG7_Animation{25%{-webkit-transform: scale(1, 1);transform: scale(1, 1);}27.50%{-webkit-transform: scale(1, 0);transform: scale(1, 0);}30%{-webkit-transform: scale(1, 1);transform: scale(1, 1);}0%{-webkit-transform: scale(1, 1);transform: scale(1, 1);}100%{-webkit-transform: scale(1, 1);transform: scale(1, 1);}}@-webkit-keyframes Hy-QVW6lM7_HJPDVpgz7_Animation{0%{-webkit-transform: rotate(0deg);transform: rotate(0deg);}100%{-webkit-transform: rotate(360deg);transform: rotate(360deg);}}@keyframes Hy-QVW6lM7_HJPDVpgz7_Animation{0%{-webkit-transform: rotate(0deg);transform: rotate(0deg);}100%{-webkit-transform: rotate(360deg);transform: rotate(360deg);}}@-webkit-keyframes BJgQN-TxfQ_rkqyMagzQ_Animation{0%{-webkit-transform: scale(1, 1);transform: scale(1, 1);}25%{-webkit-transform: scale(0.9, 0.9);transform: scale(0.9, 0.9);}50%{-webkit-transform: scale(1, 1);transform: scale(1, 1);}75%{-webkit-transform: scale(0.9, 0.9);transform: scale(0.9, 0.9);}100%{-webkit-transform: scale(1, 1);transform: scale(1, 1);}}@keyframes BJgQN-TxfQ_rkqyMagzQ_Animation{0%{-webkit-transform: scale(1, 1);transform: scale(1, 1);}25%{-webkit-transform: scale(0.9, 0.9);transform: scale(0.9, 0.9);}50%{-webkit-transform: scale(1, 1);transform: scale(1, 1);}75%{-webkit-transform: scale(0.9, 0.9);transform: scale(0.9, 0.9);}100%{-webkit-transform: scale(1, 1);transform: scale(1, 1);}}#HJmNWplz7 *{-webkit-animation-duration: 4s;animation-duration: 4s;-webkit-animation-iteration-count: infinite;animation-iteration-count: infinite;-webkit-animation-timing-function: cubic-bezier(0, 0, 1, 1);animation-timing-function: cubic-bezier(0, 0, 1, 1);}#BJgQN-TxfQ{fill: url(#SVGID_1_);}#Hy-QVW6lM7{opacity: 0.5;}#r1zXN-alGQ{fill: #FDC665;}#r1X7VZ6gMm{fill: #FDC665;}#r1Nm4balfX{fill: #FDC665;}#HyS7N-TgGX{fill: #FDC665;}#SJd74ZpgGQ{fill: #FDC665;}#H1Y7EZpgG7{fill: #FDC665;}#rJimEZaeGm{fill: #FDC665;}#By2mEWpgGQ{fill: #FDC665;}#S1JeX4WTgGX{fill: #FDC665;}#B1exQNZ6gMm{fill: #FDC665;}#S1MgmEWTgGQ{fill: #FDC665;}#HyQxXEWplG7{fill: #FDC665;}#BkDgQNZpxGX{fill: #FDC665;}#S1_lmVWpefm{fill: #FDC665;}#ry5l74bTgfQ{fill: #FDC665;}#SJsg7E-alG7{fill: #FDC665;}#ryAgXNWaxGX{fill: #FDC665;}#SkJWmEbTefm{fill: #FDC665;}#HJZWQ4baeG7{fill: #FDC665;}#HJfZQNbpeM7{fill: #FDC665;}#rJ8Z7VZplfX{fill: #FDC665;}#ByDW7EbTezm{fill: #FDC665;}#r1tbXNW6ezX{fill: #FDC665;}#S15ZQ4baef7{fill: #FDC665;}#SyaW7VZ6xMm{fill: #FDC665;}#rkAZQE-TgfQ{fill: #FDC665;}#SJgfQEWTlMQ{fill: #FDC665;}#rJbMXEWTgfX{fill: #FDC665;}#ryrGQ4b6gMQ{fill: #FDC665;}#BkLGX4WpeG7{fill: #FDC665;}#BydfX4bpefX{fill: #FDC665;}#B1FMXNWalMm{fill: #FDC665;}#BynG7NZTlzX{fill: #FDC665;}#HkTMX4b6eM7{fill: #FDC665;}#S1J7mEb6eMm{fill: #FDC665;}#rkxm74-TeM7{fill: #FDC665;}#S1bmmEZpgMm{fill: #FDC665;}#SkGQX4ZTgMQ{fill: #FDC665;}#HyQmmEWTgGX{fill: #FDC665;}#rkNQmEb6efQ{fill: #FDC665;}#S1SQQVZalzX{fill: #FDC665;}#rkIQmNWagMm{fill: #FDC665;}#BJv7QEW6gMm{fill: #FDC665;}#rJ_mQNZTgGQ{fill: #FDC665;}#rkT7XEZTezm{fill: #EEC09B;}#SykVXVZalGX{fill: #8C3131;}#rkW47VWplMQ{fill: #EEC09B;}#ByQVX4bplfQ{fill: #8C3131;}#BkSVXNZplGX{fill: #D1A352;}#HyPEQVZTxM7{fill: #DEAD57;}#S1tNXV-TlMQ{fill: #C99C4E;}#r1iV74W6xfX{fill: #DEAD57;}#Bya4X4baeGQ{fill: #FDC665;}#SJJBQNWaxMX{fill: #8C3131;}#r1-SXNWaezm{fill: #76282A;}#SJQrXVZaxG7{fill: #F6921E;}#SJ8HX4WalMm{fill: #DBA77F;}#r1_BmEbTxMm{fill: #DBA77F;}#S19B7EZpxf7{fill: #EEC09B;}#HynSmNZTeMQ{fill: #FFFFFF;}#r1RHmVbpeGX{fill: #FDD4B2;}#BygLmN-plfX{fill: #3A2914;}#BJMI7VbpgMQ{fill: #3A2914;}#Bk4IQVbplMm{fill: #FFFFFF;}#rJIUmEb6gfX{fill: #FFFFFF;}#H1O87E-TlMQ{fill: #FFFFFF;}#S19UQEWTgGQ{fill: #FFFFFF;}#Bk3UmEZ6xzQ{fill: #EEBA5E;}#B10IX4ZpezX{fill: #C99C4E;}#SJgv7V-6gMQ{fill: #B78F47;}#ryzwmV-6xzm{fill: #DBA77F;}#HJVwQ4ZTeMm{fill: #603813;}#B18vXEZagM7{fill: #8A5D3B;}#Bydw7V-Tezm{fill: #8A5D3B;}#H19D74ZpgM7{fill: #8A5D3B;}#Bk3w7VZaez7{fill: #8A5D3B;}#BkAwXEZTxG7{fill: #EEC09B;}#BJguQ4ZTxfX{fill: #DCB261;}#SyfuXVWTgGX{fill: #A83A3A;}#H1Vd7NZ6lMX{fill: #FACA6E;-webkit-transform:  matrix(0.5559, -0.8313, 0.8313, 0.5559, 73.7212, 172.373);transform:  matrix(0.5559, -0.8313, 0.8313, 0.5559, 73.7212, 172.373);}#Hk8dQVWpefX{fill: #EEC09B;}#BJgQN-TxfQ_rkqyMagzQ{-webkit-animation-name: BJgQN-TxfQ_rkqyMagzQ_Animation;animation-name: BJgQN-TxfQ_rkqyMagzQ_Animation;-webkit-transform-origin: 50% 50%;transform-origin: 50% 50%;transform-box: fill-box;-webkit-transform: scale(1, 1);transform: scale(1, 1);}#B1X-mEZaefm_BJIHNplzX{-webkit-transform-origin: 50% 50%;transform-origin: 50% 50%;transform-box: fill-box;-webkit-transform: rotate(360deg);transform: rotate(360deg);}#Hy-QVW6lM7_HJPDVpgz7{-webkit-animation-name: Hy-QVW6lM7_HJPDVpgz7_Animation;animation-name: Hy-QVW6lM7_HJPDVpgz7_Animation;-webkit-transform-origin: 50% 50%;transform-origin: 50% 50%;transform-box: fill-box;-webkit-transform: rotate(0deg);transform: rotate(0deg);}#SJyUX4WplfQ_SkuhE6eG7{-webkit-animation-name: SJyUX4WplfQ_SkuhE6eG7_Animation;animation-name: SJyUX4WplfQ_SkuhE6eG7_Animation;-webkit-transform-origin: 50% 50%;transform-origin: 50% 50%;transform-box: fill-box;-webkit-transform: scale(1, 1);transform: scale(1, 1);}#BJb8mEZTlzX_BkhaNalz7{-webkit-animation-name: BJb8mEZTlzX_BkhaNalz7_Animation;animation-name: BJb8mEZTlzX_BkhaNalz7_Animation;-webkit-transform-origin: 50% 50%;transform-origin: 50% 50%;transform-box: fill-box;-webkit-transform: scale(1, 1);transform: scale(1, 1);}#H1ErXVZ6xGX_S1MxHalfQ{-webkit-animation-name: H1ErXVZ6xGX_S1MxHalfQ_Animation;animation-name: H1ErXVZ6xGX_S1MxHalfQ_Animation;-webkit-transform-origin: 50% 50%;transform-origin: 50% 50%;transform-box: fill-box;-webkit-transform: translate(0px, 0px);transform: translate(0px, 0px);}#Hk8dQVWpefX_rysSSalz7{-webkit-animation-name: Hk8dQVWpefX_rysSSalz7_Animation;animation-name: Hk8dQVWpefX_rysSSalz7_Animation;-webkit-transform-origin: 50% 50%;transform-origin: 50% 50%;transform-box: fill-box;-webkit-transform: translate(0px, 0px);transform: translate(0px, 0px);}</style>

<radialGradient id="SVGID_1_" cx="135.4994" cy="175.7384" r="157.3666" gradientTransform="matrix(0.9938 0 0 1.0755 0.3413 0)" gradientUnits="userSpaceOnUse">
	<stop offset="0" style="stop-color:#F6921E"/>
	<stop offset="0.8" style="stop-color:#F6921E;stop-opacity:0"/>
</radialGradient>
<g id="BJgQN-TxfQ_rkqyMagzQ" data-animator-group="true" data-animator-type="2"><ellipse cx="135" cy="189" rx="134.5" ry="190" id="BJgQN-TxfQ"/></g>
<g id="Hy-QVW6lM7_HJPDVpgz7" data-animator-group="true" data-animator-type="1"><g id="Hy-QVW6lM7">
	<path d="M134.9,72.5c-1.8-0.1-1,24.5-0.6,47.2c0.5,26.9-0.5,52.5,1.2,52.7c1.4,0.2,0.7-26.4,0.1-53.2&#10;&#9;&#9;C135.2,96.2,136.7,72.6,134.9,72.5z" id="r1zXN-alGQ"/>
	<path d="M82.6,122.8c-0.1,1.8,25.7,1,49.6,0.6c28.3-0.5,55.1,0.5,55.3-1.2c0.2-1.4-27.7-0.7-55.8-0.1&#10;&#9;&#9;C107.4,122.4,82.7,120.9,82.6,122.8z" id="r1X7VZ6gMm"/>
	<path d="M98.4,86.4c-1.4,1.2,17,18.4,33.8,34.6c19.9,19.1,37.7,38.4,39,37.3c1.1-0.9-18.7-19.6-38.4-38.6&#10;&#9;&#9;C115.8,103.4,99.8,85.2,98.4,86.4z" id="r1Nm4balfX"/>
	<path d="M99.8,158.3c1.2,1.4,18.8-17.4,35.4-34.6c19.6-20.3,39.2-38.5,38.2-39.9c-0.9-1.1-20,19.1-39.4,39.2&#10;&#9;&#9;C117.1,140.6,98.5,156.9,99.8,158.3z" id="HyS7N-TgGX"/>
	<g id="BJUmVZalz7">
		<g id="HkDQEWplMX">
			<path d="M163.7,92.6c7.2-9.8,8.2-29.8-5.8-41.3C138,35,133.9,22,133.9,22c-0.5,5.8-12.5,14.5-28.1,33.1&#10;&#9;&#9;&#9;&#9;c-15.7,18.8,0.1,37.7,0.1,37.7l-1.3,0.9c0,0-18.8-18.4-0.3-40.6c16.5-19.8,29-28.8,29.5-34.8c0,0,4.3,13.6,25.2,30.8&#10;&#9;&#9;&#9;&#9;c14.8,12.1,13.5,33.5,6,43.9L163.7,92.6z" id="SJd74ZpgGQ"/>
			<path d="M163.7,92.6c7.2-9.8,8.2-29.8-5.8-41.3C138,35,133.9,22,133.9,22c-0.5,5.8-12.5,14.5-28.1,33.1&#10;&#9;&#9;&#9;&#9;c-15.7,18.8,0.1,37.7,0.1,37.7l-1.3,0.9c0,0-18.8-18.4-0.3-40.6c16.5-19.8,29-28.8,29.5-34.8c0,0,4.3,13.6,25.2,30.8&#10;&#9;&#9;&#9;&#9;c14.8,12.1,13.5,33.5,6,43.9L163.7,92.6z" id="H1Y7EZpgG7"/>
		</g>
		<g id="SJqXEZTlfm">
			<path d="M164.6,152.5c7.2,9.8,8.2,29.8-5.8,41.3c-19.9,16.3-24,29.3-24,29.3c-0.5-5.8-12.6-14.4-28.1-33.1&#10;&#9;&#9;&#9;&#9;c-16.3-19.8,0.1-37.7,0.1-37.7l-1.3-0.9c0,0-19.2,18-0.3,40.6c16.5,19.8,29,28.8,29.5,34.8c0,0,4.3-13.6,25.2-30.8&#10;&#9;&#9;&#9;&#9;c14.8-12.1,13.6-34.1,5.7-43.8L164.6,152.5z" id="rJimEZaeGm"/>
			<path d="M164.6,152.5c7.2,9.8,8.2,29.8-5.8,41.3c-19.9,16.3-24,29.3-24,29.3c-0.5-5.8-12.6-14.4-28.1-33.1&#10;&#9;&#9;&#9;&#9;c-16.3-19.8,0.1-37.7,0.1-37.7l-1.3-0.9c0,0-19.2,18-0.3,40.6c16.5,19.8,29,28.8,29.5,34.8c0,0,4.3-13.6,25.2-30.8&#10;&#9;&#9;&#9;&#9;c14.8-12.1,13.6-34.1,5.7-43.8L164.6,152.5z" id="By2mEWpgGQ"/>
		</g>
	</g>
	<g id="BJa74ZaxzX">
		<g id="rkR7NZpgfm">
			<path d="M105,92.8c-9.8-7.2-29.8-8.2-41.3,5.8c-16.3,19.9-29.3,24-29.3,24c5.8,0.5,14.5,12.5,33.1,28.1&#10;&#9;&#9;&#9;&#9;c18.8,15.7,39.2,0,39.2,0l-0.7,1.2c0,0-18.4,18.8-40.6,0.3c-19.8-16.5-28.8-29-34.8-29.5c0,0,13.6-4.3,30.8-25.2&#10;&#9;&#9;&#9;&#9;c12.1-14.8,33.4-12.6,43.8-5L105,92.8z" id="S1JeX4WTgGX"/>
			<path d="M105,92.8c-9.8-7.2-29.8-8.2-41.3,5.8c-16.3,19.9-29.3,24-29.3,24c5.8,0.5,14.5,12.5,33.1,28.1&#10;&#9;&#9;&#9;&#9;c18.8,15.7,39.2,0,39.2,0l-0.7,1.2c0,0-18.4,18.8-40.6,0.3c-19.8-16.5-28.8-29-34.8-29.5c0,0,13.6-4.3,30.8-25.2&#10;&#9;&#9;&#9;&#9;c12.1-14.8,33.4-12.6,43.8-5L105,92.8z" id="B1exQNZ6gMm"/>
		</g>
		<g id="HJ-xXVZTgfm">
			<path d="M165,91.9c9.8-7.2,29.8-8.2,41.3,5.8c16.3,19.9,29.3,24,29.3,24c-5.8,0.5-14.4,12.6-33.1,28.1&#10;&#9;&#9;&#9;&#9;c-19.8,16.3-38.8,0.5-38.8,0.5l0.3,0.7c0,0,18,19.2,40.6,0.3c19.8-16.5,28.8-29,34.8-29.5c0,0-13.6-4.3-30.8-25.2&#10;&#9;&#9;&#9;&#9;c-12.1-14.8-33.9-12.9-43.7-5L165,91.9z" id="S1MgmEWTgGQ"/>
			<path d="M165,91.9c9.8-7.2,29.8-8.2,41.3,5.8c16.3,19.9,29.3,24,29.3,24c-5.8,0.5-14.4,12.6-33.1,28.1&#10;&#9;&#9;&#9;&#9;c-19.8,16.3-38.8,0.5-38.8,0.5l0.3,0.7c0,0,18,19.2,40.6,0.3c19.8-16.5,28.8-29,34.8-29.5c0,0-13.6-4.3-30.8-25.2&#10;&#9;&#9;&#9;&#9;c-12.1-14.8-33.9-12.9-43.7-5L165,91.9z" id="HyQxXEWplG7"/>
		</g>
	</g>
	<g id="BJ4gmNWTlMQ">
		<g id="H1Sg7NZpxMX">
			<g id="SkIgXEW6gzX">
				<path d="M134.6,81.4c-1.9-12-15.3-26.9-33.3-25.1c-25.6,2.5-37.6-3.7-37.6-3.7c3.7,4.4,1.4,19.1,3.6,43.2&#10;&#9;&#9;&#9;&#9;&#9;c2.2,24.4,26.7,26.6,26.7,26.6l-0.2,1c0,0-26.4,0.8-28.9-28c-2.3-25.7,0.2-40.9-3.7-45.5c0,0,12.7,6.6,39.6,3.9&#10;&#9;&#9;&#9;&#9;&#9;c19-1.9,32.7,14.8,34.6,27.4L134.6,81.4z" id="BkDgQNZpxGX"/>
				<path d="M134.6,81.4c-1.9-12-15.3-26.9-33.3-25.1c-25.6,2.5-37.6-3.7-37.6-3.7c3.7,4.4,1.4,19.1,3.6,43.2&#10;&#9;&#9;&#9;&#9;&#9;c2.2,24.4,26.7,26.6,26.7,26.6l-0.2,1c0,0-26.4,0.8-28.9-28c-2.3-25.7,0.2-40.9-3.7-45.5c0,0,12.7,6.6,39.6,3.9&#10;&#9;&#9;&#9;&#9;&#9;c19-1.9,32.7,14.8,34.6,27.4L134.6,81.4z" id="S1_lmVWpefm"/>
			</g>
			<g id="SkteXEbpgMQ">
				<path d="M177,122.5c12,1.9,27.4,15.9,25.6,33.9c-2.5,25.6,3.7,37.6,3.7,37.6c-4.4-3.7-19.1-1.2-43.2-3.6&#10;&#9;&#9;&#9;&#9;&#9;c-25.5-2.4-27.3-27.4-27.3-27.4l-0.8,1c0,0-0.8,26.3,28.5,28.9c25.7,2.3,40.9-0.2,45.5,3.7c0,0-6.6-12.7-3.9-39.6&#10;&#9;&#9;&#9;&#9;&#9;c1.9-19-14.5-33.7-27-35L177,122.5z" id="ry5l74bTgfQ"/>
				<path d="M177,122.5c12,1.9,27.4,15.9,25.6,33.9c-2.5,25.6,3.7,37.6,3.7,37.6c-4.4-3.7-19.1-1.2-43.2-3.6&#10;&#9;&#9;&#9;&#9;&#9;c-25.5-2.4-27.3-27.4-27.3-27.4l-0.8,1c0,0-0.8,26.3,28.5,28.9c25.7,2.3,40.9-0.2,45.5,3.7c0,0-6.6-12.7-3.9-39.6&#10;&#9;&#9;&#9;&#9;&#9;c1.9-19-14.5-33.7-27-35L177,122.5z" id="SJsg7E-alG7"/>
			</g>
		</g>
		<g id="Bk2x7NW6eGX">
			<g id="ryax7VZTxzQ">
				<path d="M93.2,122.9c-12,1.9-26.9,15.3-25.1,33.3c2.5,25.6-3.7,37.6-3.7,37.6c4.4-3.7,19.1-1.4,43.2-3.6&#10;&#9;&#9;&#9;&#9;&#9;c24.4-2.2,27.2-27.6,27.2-27.6l0.9,1.2c0,0,0.2,26.3-28.5,28.9c-25.7,2.3-40.9-0.2-45.5,3.7c0,0,6.6-12.7,3.9-39.6&#10;&#9;&#9;&#9;&#9;&#9;c-1.9-19,14.4-32.7,27.1-34.6L93.2,122.9z" id="ryAgXNWaxGX"/>
				<path d="M93.2,122.9c-12,1.9-26.9,15.3-25.1,33.3c2.5,25.6-3.7,37.6-3.7,37.6c4.4-3.7,19.1-1.4,43.2-3.6&#10;&#9;&#9;&#9;&#9;&#9;c24.4-2.2,27.2-27.6,27.2-27.6l0.9,1.2c0,0,0.2,26.3-28.5,28.9c-25.7,2.3-40.9-0.2-45.5,3.7c0,0,6.6-12.7,3.9-39.6&#10;&#9;&#9;&#9;&#9;&#9;c-1.9-19,14.4-32.7,27.1-34.6L93.2,122.9z" id="SkJWmEbTefm"/>
			</g>
			<g id="Hklb7EbTxfX">
				<path d="M134.9,80c1.9-12,15.3-26.9,33.3-25.1c25.6,2.5,37.6-3.7,37.6-3.7c-3.7,4.4-1.2,19.1-3.6,43.2&#10;&#9;&#9;&#9;&#9;&#9;c-2.4,25.5-26.9,27.2-26.9,27.2l0.5,0.9c0,0,26.3,0.8,28.9-28.5c2.3-25.7-0.2-40.9,3.7-45.5c0,0-12.7,6.6-39.6,3.9&#10;&#9;&#9;&#9;&#9;&#9;c-19-1.9-33.1,15.1-34.4,27.6L134.9,80z" id="HJZWQ4baeG7"/>
				<path d="M134.9,80c1.9-12,15.3-26.9,33.3-25.1c25.6,2.5,37.6-3.7,37.6-3.7c-3.7,4.4-1.2,19.1-3.6,43.2&#10;&#9;&#9;&#9;&#9;&#9;c-2.4,25.5-26.9,27.2-26.9,27.2l0.5,0.9c0,0,26.3,0.8,28.9-28.5c2.3-25.7-0.2-40.9,3.7-45.5c0,0-12.7,6.6-39.6,3.9&#10;&#9;&#9;&#9;&#9;&#9;c-19-1.9-33.1,15.1-34.4,27.6L134.9,80z" id="HJfZQNbpeM7"/>
			</g>
		</g>
	</g>
	<g id="B1X-mEZaefm">
		<g id="r1N-QE-axGQ">
			<g id="BJBZQEWaeMQ">
				<path d="M168.7,87.4c8.5-11.6,9.6-35-6.8-48.5c-23.4-19.2-28.2-34.4-28.2-34.4c-0.6,6.8-14.7,17-33,38.9&#10;&#9;&#9;&#9;&#9;&#9;c-18.4,22.1,0.1,44.3,0.1,44.3l-1.5,1c0,0-22-21.7-0.3-47.7c19.4-23.3,34.1-33.8,34.7-41c0,0,5,16,29.7,36.2&#10;&#9;&#9;&#9;&#9;&#9;c17.4,14.2,15.9,39.4,7,51.6L168.7,87.4z" id="rJ8Z7VZplfX"/>
				<path d="M168.7,87.4c8.5-11.6,9.6-35-6.8-48.5c-23.4-19.2-28.2-34.4-28.2-34.4c-0.6,6.8-14.7,17-33,38.9&#10;&#9;&#9;&#9;&#9;&#9;c-18.4,22.1,0.1,44.3,0.1,44.3l-1.5,1c0,0-22-21.7-0.3-47.7c19.4-23.3,34.1-33.8,34.7-41c0,0,5,16,29.7,36.2&#10;&#9;&#9;&#9;&#9;&#9;c17.4,14.2,15.9,39.4,7,51.6L168.7,87.4z" id="ByDW7EbTezm"/>
			</g>
			<g id="HJ_ZX4Zaxfm">
				<path d="M169.7,157.8c8.5,11.6,9.6,35-6.8,48.5c-23.4,19.2-28.2,34.4-28.2,34.4c-0.6-6.8-14.9-16.9-33-38.9&#10;&#9;&#9;&#9;&#9;&#9;c-19.2-23.2,0.1-44.3,0.1-44.3l-1.5-1c0,0-22.5,21.2-0.3,47.7c19.4,23.2,34.1,33.8,34.7,41c0,0,5-16,29.7-36.2&#10;&#9;&#9;&#9;&#9;&#9;c17.4-14.2,16-40.1,6.7-51.5L169.7,157.8z" id="r1tbXNW6ezX"/>
				<path d="M169.7,157.8c8.5,11.6,9.6,35-6.8,48.5c-23.4,19.2-28.2,34.4-28.2,34.4c-0.6-6.8-14.9-16.9-33-38.9&#10;&#9;&#9;&#9;&#9;&#9;c-19.2-23.2,0.1-44.3,0.1-44.3l-1.5-1c0,0-22.5,21.2-0.3,47.7c19.4,23.2,34.1,33.8,34.7,41c0,0,5-16,29.7-36.2&#10;&#9;&#9;&#9;&#9;&#9;c17.4-14.2,16-40.1,6.7-51.5L169.7,157.8z" id="S15ZQ4baef7"/>
			</g>
		</g>
		<g id="HJib74balMX">
			<g id="HynbQVb6xzQ">
				<path d="M99.8,87.5c-11.6-8.5-35-9.6-48.5,6.8c-19.2,23.4-34.4,28.2-34.4,28.2c6.8,0.6,17,14.7,38.9,33&#10;&#9;&#9;&#9;&#9;&#9;c22.1,18.4,46.1,0,46.1,0l-0.8,1.4c0,0-21.7,22-47.7,0.3c-23.3-19.4-33.8-34.1-41-34.7c0,0,16-5,36.2-29.7&#10;&#9;&#9;&#9;&#9;&#9;C62.8,75.4,87.9,78,100,86.9L99.8,87.5z" id="SyaW7VZ6xMm"/>
				<path d="M99.8,87.5c-11.6-8.5-35-9.6-48.5,6.8c-19.2,23.4-34.4,28.2-34.4,28.2c6.8,0.6,17,14.7,38.9,33&#10;&#9;&#9;&#9;&#9;&#9;c22.1,18.4,46.1,0,46.1,0l-0.8,1.4c0,0-21.7,22-47.7,0.3c-23.3-19.4-33.8-34.1-41-34.7c0,0,16-5,36.2-29.7&#10;&#9;&#9;&#9;&#9;&#9;C62.8,75.4,87.9,78,100,86.9L99.8,87.5z" id="rkAZQE-TgfQ"/>
			</g>
			<g id="B1kGQNZalMm">
				<path d="M170.2,86.5c11.6-8.5,35-9.6,48.5,6.8c19.2,23.4,34.4,28.2,34.4,28.2c-6.8,0.6-16.9,14.9-38.9,33&#10;&#9;&#9;&#9;&#9;&#9;c-23.2,19.2-45.6,0.6-45.6,0.6l0.3,0.9c0,0,21.2,22.5,47.7,0.3c23.2-19.4,33.8-34.1,41-34.7c0,0-16-5-36.2-29.7&#10;&#9;&#9;&#9;&#9;&#9;C207.2,74.5,181.5,76.7,170,86L170.2,86.5z" id="SJgfQEWTlMQ"/>
				<path d="M170.2,86.5c11.6-8.5,35-9.6,48.5,6.8c19.2,23.4,34.4,28.2,34.4,28.2c-6.8,0.6-16.9,14.9-38.9,33&#10;&#9;&#9;&#9;&#9;&#9;c-23.2,19.2-45.6,0.6-45.6,0.6l0.3,0.9c0,0,21.2,22.5,47.7,0.3c23.2-19.4,33.8-34.1,41-34.7c0,0-16-5-36.2-29.7&#10;&#9;&#9;&#9;&#9;&#9;C207.2,74.5,181.5,76.7,170,86L170.2,86.5z" id="rJbMXEWTgfX"/>
			</g>
		</g>
	</g>
	<g id="ByfMmEWpxzQ">
		<g id="Symf7NZplGX">
			<g id="B1EGXN-Tlfm">
				<path d="M134.5,74.1c-2.2-14.2-17.9-31.6-39.2-29.5c-30.1,3-44.3-4.4-44.3-4.4c4.4,5.2,1.6,22.5,4.2,50.8&#10;&#9;&#9;&#9;&#9;&#9;c2.6,28.7,31.4,31.3,31.4,31.3l-0.3,1.1c0,0-31,0.9-34-32.9c-2.7-30.2,0.2-48.1-4.4-53.5c0,0,14.9,7.8,46.6,4.6&#10;&#9;&#9;&#9;&#9;&#9;c22.3-2.2,38.4,17.4,40.7,32.3L134.5,74.1z" id="ryrGQ4b6gMQ"/>
				<path d="M134.5,74.1c-2.2-14.2-17.9-31.6-39.2-29.5c-30.1,3-44.3-4.4-44.3-4.4c4.4,5.2,1.6,22.5,4.2,50.8&#10;&#9;&#9;&#9;&#9;&#9;c2.6,28.7,31.4,31.3,31.4,31.3l-0.3,1.1c0,0-31,0.9-34-32.9c-2.7-30.2,0.2-48.1-4.4-53.5c0,0,14.9,7.8,46.6,4.6&#10;&#9;&#9;&#9;&#9;&#9;c22.3-2.2,38.4,17.4,40.7,32.3L134.5,74.1z" id="BkLGX4WpeG7"/>
			</g>
			<g id="HyDMQEZagz7">
				<path d="M184.4,122.5c14.2,2.2,32.2,18.7,30.1,39.9c-3,30.1,4.4,44.3,4.4,44.3c-5.2-4.4-22.5-1.5-50.8-4.2&#10;&#9;&#9;&#9;&#9;&#9;c-30-2.9-32.1-32.2-32.1-32.2l-0.9,1.2c0,0-1,30.9,33.5,34c30.2,2.7,48.1-0.2,53.5,4.4c0,0-7.8-14.9-4.6-46.6&#10;&#9;&#9;&#9;&#9;&#9;c2.2-22.3-17-39.6-31.7-41.2L184.4,122.5z" id="BydfX4bpefX"/>
				<path d="M184.4,122.5c14.2,2.2,32.2,18.7,30.1,39.9c-3,30.1,4.4,44.3,4.4,44.3c-5.2-4.4-22.5-1.5-50.8-4.2&#10;&#9;&#9;&#9;&#9;&#9;c-30-2.9-32.1-32.2-32.1-32.2l-0.9,1.2c0,0-1,30.9,33.5,34c30.2,2.7,48.1-0.2,53.5,4.4c0,0-7.8-14.9-4.6-46.6&#10;&#9;&#9;&#9;&#9;&#9;c2.2-22.3-17-39.6-31.7-41.2L184.4,122.5z" id="B1FMXNWalMm"/>
			</g>
		</g>
		<g id="S15zXNbplMm">
			<g id="Syjf7VZTez7">
				<path d="M85.9,123c-14.2,2.2-31.6,17.9-29.5,39.2c3,30.1-4.4,44.3-4.4,44.3c5.2-4.4,22.5-1.6,50.8-4.2&#10;&#9;&#9;&#9;&#9;&#9;c28.7-2.6,32-32.4,32-32.4l1,1.4c0,0,0.3,30.9-33.5,34c-30.2,2.7-48.1-0.2-53.5,4.4c0,0,7.8-14.9,4.6-46.6&#10;&#9;&#9;&#9;&#9;&#9;c-2.2-22.3,17-38.4,31.9-40.7L85.9,123z" id="BynG7NZTlzX"/>
				<path d="M85.9,123c-14.2,2.2-31.6,17.9-29.5,39.2c3,30.1-4.4,44.3-4.4,44.3c5.2-4.4,22.5-1.6,50.8-4.2&#10;&#9;&#9;&#9;&#9;&#9;c28.7-2.6,32-32.4,32-32.4l1,1.4c0,0,0.3,30.9-33.5,34c-30.2,2.7-48.1-0.2-53.5,4.4c0,0,7.8-14.9,4.6-46.6&#10;&#9;&#9;&#9;&#9;&#9;c-2.2-22.3,17-38.4,31.9-40.7L85.9,123z" id="HkTMX4b6eM7"/>
			</g>
			<g id="Bk0GmNb6xfX">
				<path d="M134.9,72.4c2.2-14.2,17.9-31.6,39.2-29.5c30.1,3,44.3-4.4,44.3-4.4c-4.4,5.2-1.5,22.5-4.2,50.8&#10;&#9;&#9;&#9;&#9;&#9;c-2.9,30-31.7,32-31.7,32l0.6,1c0,0,30.9,1,34-33.5c2.7-30.2-0.2-48.1,4.4-53.5c0,0-14.9,7.8-46.6,4.6&#10;&#9;&#9;&#9;&#9;&#9;c-22.3-2.2-38.9,17.8-40.5,32.4L134.9,72.4z" id="S1J7mEb6eMm"/>
				<path d="M134.9,72.4c2.2-14.2,17.9-31.6,39.2-29.5c30.1,3,44.3-4.4,44.3-4.4c-4.4,5.2-1.5,22.5-4.2,50.8&#10;&#9;&#9;&#9;&#9;&#9;c-2.9,30-31.7,32-31.7,32l0.6,1c0,0,30.9,1,34-33.5c2.7-30.2-0.2-48.1,4.4-53.5c0,0-14.9,7.8-46.6,4.6&#10;&#9;&#9;&#9;&#9;&#9;c-22.3-2.2-38.9,17.8-40.5,32.4L134.9,72.4z" id="rkxm74-TeM7"/>
			</g>
		</g>
	</g>
	<path d="M136.6,47.4c-0.7,1.6-2.7,2.4-4.3,1.6c-1.7-0.7-2.4-2.7-1.7-4.3s2.7-2.4,4.3-1.6&#10;&#9;&#9;C136.6,43.9,137.3,45.8,136.6,47.4z" id="S1bmmEZpgMm"/>
	<path d="M190.2,70.6c-0.7,1.6-2.7,2.4-4.3,1.6c-1.7-0.7-2.4-2.7-1.7-4.3c0.7-1.6,2.7-2.4,4.3-1.6&#10;&#9;&#9;C190.2,67,191,68.9,190.2,70.6z" id="SkGQX4ZTgMQ"/>
	<path d="M214.5,123.4c-0.7,1.6-2.7,2.4-4.3,1.6c-1.7-0.7-2.4-2.7-1.7-4.3c0.7-1.6,2.7-2.4,4.3-1.6&#10;&#9;&#9;C214.5,119.8,215.2,121.8,214.5,123.4z" id="HyQmmEWTgGX"/>
	<path d="M192.1,179.6c-0.7,1.6-2.7,2.4-4.3,1.6c-1.7-0.7-2.4-2.7-1.7-4.3s2.7-2.4,4.3-1.6&#10;&#9;&#9;C192,176,192.8,177.9,192.1,179.6z" id="rkNQmEb6efQ"/>
	<path d="M136.5,199.1c-0.7,1.6-2.7,2.4-4.3,1.6c-1.7-0.7-2.4-2.7-1.7-4.3s2.7-2.4,4.3-1.6&#10;&#9;&#9;C136.4,195.6,137.2,197.5,136.5,199.1z" id="S1SQQVZalzX"/>
	<path d="M82.4,178.7c-0.7,1.6-2.7,2.4-4.3,1.6c-1.7-0.7-2.4-2.7-1.7-4.3c0.7-1.6,2.7-2.4,4.3-1.6&#10;&#9;&#9;C82.3,175.1,83.1,177,82.4,178.7z" id="rkIQmNWagMm"/>
	<path d="M60.9,124.8c-0.7,1.6-2.7,2.4-4.3,1.6c-1.7-0.7-2.4-2.7-1.7-4.3c0.7-1.6,2.7-2.4,4.3-1.6&#10;&#9;&#9;C60.9,121.3,61.6,123.2,60.9,124.8z" id="BJv7QEW6gMm"/>
	<path d="M81,69.8c-0.7,1.6-2.7,2.4-4.3,1.6c-1.7-0.7-2.4-2.7-1.7-4.3c0.7-1.6,2.7-2.4,4.3-1.6&#10;&#9;&#9;C81,66.3,81.8,68.2,81,69.8z" id="rJ_mQNZTgGQ"/>
</g></g>
<title>Asset 27</title>
<g id="H1KmXVZalGm">
	<g id="rkcQQEZpefQ">
		<g id="HyimQEbTlzQ">
			<g id="BJ3XQ4-Tgf7">
				<path id="rkT7XEZTezm" d="M117.3,370.8H70.7c0.5-1.2,1.3-2.3,2.3-3.1c3.4-3.1,9-5.8,14.6-7.9c6-2.2,12.1-4,18.3-5.3h11.3&#10;&#9;&#9;&#9;&#9;&#9;l0.1,8.5v4.7L117.3,370.8z"/>
			</g>
			<g id="r10mmNZTgMm">
				<path id="SykVXVZalGX" d="M117.3,370.8H70.7c0.5-1.2,1.3-2.3,2.3-3.1c3.4-3.1,9-5.8,14.6-7.9c5.4,1.5,15.1,3.4,29.7,3.1&#10;&#9;&#9;&#9;&#9;&#9;v4.7V370.8z"/>
			</g>
			<g id="S1l4mN-TgGm">
				<path id="rkW47VWplMQ" d="M152.4,370.8h46.7c-0.5-1.2-1.3-2.3-2.3-3.1c-3.4-3.1-9-5.8-14.6-7.9c-6-2.2-12.1-4-18.4-5.3&#10;&#9;&#9;&#9;&#9;&#9;h-11.4v8.5v4.7V370.8z"/>
			</g>
			<g id="H1MNQ4Wpxfm">
				<path id="ByQVX4bplfQ" d="M152.4,370.8h46.7c-0.5-1.2-1.3-2.3-2.3-3.1c-3.4-3.1-9-5.8-14.6-7.9&#10;&#9;&#9;&#9;&#9;&#9;c-5.4,1.5-15.1,3.4-29.7,3.1v4.7L152.4,370.8z"/>
			</g>
			<g id="r1ENmEZpxM7">
				<path id="BkSVXNZplGX" d="M184.4,124.7c0,0,31.2,44.2,29.2,87.2s-50.2,25.6-39.1-13&#10;&#9;&#9;&#9;&#9;&#9;C181.3,174.7,184.6,149.7,184.4,124.7z"/>
			</g>
			<g id="r1U47N-Txzm">
				<path id="HyPEQVZTxM7" d="M188.1,227.8c0,0-52.2-24.8-60.8-61.8c-0.3-1.3-0.5-2.6-0.7-3.9c0,0,15.6-48.9,30.5-53.2&#10;&#9;&#9;&#9;&#9;&#9;c0,0,7.3,0.2,17.6,7.4c3.5,2.5,6.7,5.3,9.7,8.4L188.1,227.8z"/>
			</g>
			<g id="B1dEQ4ZpgMm">
				<path id="S1tNXV-TlMQ" d="M175.6,151.8c-1,21.8-41.6,20-41.6,20l-6.7-5.9c-0.3-1.3-0.5-2.6-0.7-3.9&#10;&#9;&#9;&#9;&#9;&#9;c0,0,15.6-48.9,30.5-53.2c0,0,7.3,0.2,17.6,7.4C175.4,127.2,176.3,136.9,175.6,151.8z"/>
			</g>
			<g id="r15Vm4-6lG7">
				<path id="r1iV74W6xfX" d="M82.2,126.8c-0.2,3.3-0.5,7.8-0.9,12.9c-1.6,21.3-4.4,52.8-4.4,52.8l-2.2,57.4&#10;&#9;&#9;&#9;&#9;&#9;c-3.2-1-6.2-2.4-9-4.2c-31.4-20.6-6.7-83.2-1.3-95.7C70.2,136.5,82.2,126.8,82.2,126.8z"/>
			</g>
			<g id="ryn4XNb6ez7">
				<path id="Bya4X4baeGQ" d="M64.1,174.6c-5.7,19.6-9.4,51.7,1.6,71.1c-31.4-20.6-6.7-83.2-1.3-95.7&#10;&#9;&#9;&#9;&#9;&#9;c5.8-13.5,17.9-23.2,17.9-23.2c-0.2,3.3-0.5,7.8-0.9,12.9C76,145.5,69.1,157.3,64.1,174.6z"/>
			</g>
			<g id="SJ0NX4W6gz7">
				<path id="SJJBQNWaxMX" d="M198.2,351.5c-3.5,0.7-7,1.3-10.4,1.8c-53.7,8.3-91.7,3.5-108.1,0.3c-5.9-1.1-9-2.1-9-2.1&#10;&#9;&#9;&#9;&#9;&#9;l9.2-227.8c2.5-2.6,5.3-4.9,8.3-6.9c3.3-2.1,6.9-3.9,10.6-5.2c4-1.5,8.1-2.4,12.4-2.8c12.3,53.5,49,90.3,67.7,106.2&#10;&#9;&#9;&#9;&#9;&#9;c6.8,5.8,11.2,8.7,11.2,8.7l0.6,8.8L198.2,351.5z"/>
			</g>
			<g id="SyeS74-6xzX">
				<path id="r1-SXNWaezm" d="M198.2,351.5c-3.5,0.7-7,1.3-10.4,1.8l-9-138.2c6.8,5.8,11.2,8.7,11.2,8.7l0.6,8.8&#10;&#9;&#9;&#9;&#9;&#9;L198.2,351.5z"/>
			</g>
			<g id="B1GrQVb6xMm">
				<path id="SJQrXVZaxG7" d="M188.4,233c-58.4-26.1-86.7-105-91.8-120.9c4-1.5,8.2-2.4,12.4-2.8&#10;&#9;&#9;&#9;&#9;&#9;c16.8,72.8,78.8,114.9,78.8,114.9L188.4,233z"/>
			</g>
			<g id="H1ErXVZ6xGX_S1MxHalfQ" data-animator-group="true" data-animator-type="0"><g id="H1ErXVZ6xGX">
				<g id="SyHH7EWaxG7">
					<path id="SJ8HX4WalMm" d="M105.2,76.9L105.2,76.9c4.1,0,7.4,3.3,7.4,7.4V93c0,4.1-3.3,7.4-7.4,7.4l0,0&#10;&#9;&#9;&#9;&#9;&#9;&#9;c-4.1,0-7.4-3.3-7.4-7.4v-8.7C97.8,80.2,101.1,76.9,105.2,76.9z"/>
				</g>
				<g id="HyPHmNbpeG7">
					<path id="r1_BmEbTxMm" d="M167.2,76.9L167.2,76.9c4.1,0,7.4,3.3,7.4,7.4V93c0,4.1-3.3,7.4-7.4,7.4l0,0&#10;&#9;&#9;&#9;&#9;&#9;&#9;c-4.1,0-7.4-3.3-7.4-7.4v-8.7C159.8,80.2,163.1,76.9,167.2,76.9z"/>
				</g>
				<g id="Bktr7EZplzX">
					<path id="S19B7EZpxf7" d="M153.4,135.3H119c-7.6,0-13.8-6.2-13.8-13.8V62.2c0-17.1,13.9-31,31-31l0,0&#10;&#9;&#9;&#9;&#9;&#9;&#9;c17.1,0,31,13.9,31,31v59.3C167.2,129.1,161,135.3,153.4,135.3z"/>
				</g>
				<g id="rkorQEZ6ez7">
					<path id="HynSmNZTeMQ" d="M167.2,60.5c0,0,1.3,57.5-5.9,58.6c0,0-2.2-13.4-24.4-13.4s-24.4,13.4-24.4,13.4&#10;&#9;&#9;&#9;&#9;&#9;&#9;c-7.2-1.1-7.4-58.6-7.4-58.6l0,0c0,0-1.6,64-1.6,85.5s33.4,21,33.4,21s33.4,0.4,33.4-21S167.2,60.5,167.2,60.5z"/>
				</g>
				<g id="H1Tr7EZ6gMQ">
					<path id="r1RHmVbpeGX" d="M143.5,99.1c-0.7-6-3.8-18.7-7.6-18.7s-6.9,12.8-7.6,18.8c-2.7,0.6-4.4,3.2-3.8,5.9&#10;&#9;&#9;&#9;&#9;&#9;&#9;c0.6,2.7,3.2,4.4,5.9,3.8c0.7-0.2,1.4-0.5,2-0.9c1.1,0.6,2.3,0.9,3.5,0.9c1.3,0,2.5-0.3,3.7-0.9c2.2,1.7,5.3,1.3,7-0.9&#10;&#9;&#9;&#9;&#9;&#9;&#9;c1.7-2.2,1.3-5.3-0.9-7C145.1,99.6,144.3,99.3,143.5,99.1L143.5,99.1z"/>
				</g>
				<g id="SJyUX4WplfQ_SkuhE6eG7" data-animator-group="true" data-animator-type="2"><g id="SJyUX4WplfQ">
					<path id="BygLmN-plfX" d="M128.7,81.3L128.7,81.3c1.2,0,2.1,1,2.1,2.1v2.8c0,1.2-1,2.1-2.1,2.1l0,0&#10;&#9;&#9;&#9;&#9;&#9;&#9;c-1.2,0-2.1-1-2.1-2.1v-2.8C126.6,82.3,127.5,81.3,128.7,81.3z"/>
				</g></g>
				<g id="BJb8mEZTlzX_BkhaNalz7" data-animator-group="true" data-animator-type="2"><g id="BJb8mEZTlzX">
					<path id="BJMI7VbpgMQ" d="M142.8,81.3L142.8,81.3c1.2,0,2.1,1,2.1,2.1v2.8c0,1.2-1,2.1-2.1,2.1l0,0&#10;&#9;&#9;&#9;&#9;&#9;&#9;c-1.2,0-2.1-1-2.1-2.1v-2.8C140.6,82.3,141.6,81.3,142.8,81.3z"/>
				</g></g>
				<g id="SJQUQ4balMX">
					<path id="Bk4IQVbplMm" d="M105.2,60.5c0,0-6.2-0.2-6.2,20c0,0,2.3-3.5,6.2-3.5V60.5z"/>
				</g>
				<g id="ByrLmEW6lM7">
					<path id="rJIUmEb6gfX" d="M167.2,60.5c0,0,6.2-0.2,6.2,20c0,0-2.3-3.5-6.2-3.5V60.5z"/>
				</g>
				<g id="HkPUmNZagGm">
					<path id="H1O87E-TlMQ" d="M115.4,85.2c0,0,5-8.7,19.1-3.6V74c0,0-14.2-6.2-23.3,6.4L115.4,85.2z"/>
				</g>
				<g id="H1YUX4-TxM7">
					<path id="S19UQEWTgGQ" d="M156.8,85.2c0,0-5-8.7-19.1-3.6V74c0,0,14.2-6.2,23.3,6.4L156.8,85.2z"/>
				</g>
			</g></g>
			<g id="S1i8QVbpxMm">
				<path id="Bk3UmEZ6xzQ" d="M219.9,216.9c0,16.7-10.5,30.2-23.5,30.2c-2.9,0-5.7-0.7-8.3-2l0,0&#10;&#9;&#9;&#9;&#9;&#9;c-8.9-4.3-15.2-15.3-15.2-28.2c0-16.7,10.5-30.2,23.5-30.2c4.5,0.1,8.8,1.7,12.3,4.5C215.4,196.5,219.9,206,219.9,216.9z"/>
			</g>
			<g id="rJpImN-TxGm">
				<path id="B10IX4ZpezX" d="M219.9,216.9c0,16.7-10.5,30.2-23.5,30.2c-2.9,0-5.7-0.7-8.3-2l0,0c0,0,33.7,4.3,28.2-37.3&#10;&#9;&#9;&#9;&#9;&#9;l-8.5-13.6l0.9-3C215.4,196.5,219.9,206,219.9,216.9z"/>
			</g>
			<g id="B11wXVZ6eM7">
				<ellipse id="SJgv7V-6gMQ" cx="196.8" cy="213.4" rx="15.9" ry="19.2"/>
			</g>
			<g id="B1ZDmVW6gfX">
				<path id="ryzwmV-6xzm" d="M204.1,188.4c0,0-8.8-4.9-15.8,1.5s-2.9,20.1-2.9,20.1s7.1,1.9,8.8-5.7&#10;&#9;&#9;&#9;&#9;&#9;S198.3,188.8,204.1,188.4z"/>
			</g>
			<g id="ryXP7EWpxfX">
				<rect id="HJVwQ4ZTeMm" x="199" y="31.2" width="6.9" height="339.6"/>
			</g>
			<g id="r1Sw74ZplMX">
				<rect id="B18vXEZagM7" x="199" y="158.7" width="6.9" height="13.1"/>
			</g>
			<g id="r1vDmVWTxfQ">
				<rect id="Bydw7V-Tezm" x="199" y="176.9" width="6.9" height="13.1"/>
			</g>
			<g id="HJYD7Vbpxz7">
				<rect id="H19D74ZpgM7" x="199" y="215.4" width="6.9" height="13.1"/>
			</g>
			<g id="SkoDXVWTlf7">
				<rect id="Bk3w7VZaez7" x="199" y="233.6" width="6.9" height="13.1"/>
			</g>
			<g id="ByaDQ4Zalzm">
				<path id="BkAwXEZTxG7" d="M211.8,188.4c0,0-15-4.7-20.8,3.6s0,11.1,0,11.1s-3.8,4.3-0.3,10.2c0,0-0.9,9.9,11.1,10.4&#10;&#9;&#9;&#9;&#9;&#9;S223.2,208.8,211.8,188.4z"/>
			</g>
			<g id="Byyum4Z6xMm">
				<circle id="BJguQ4ZTxfX" cx="203" cy="21" r="11.8"/>
			</g>
			<g id="SyWOmEW6eGQ">
				<path id="SyfuXVWTgGX" d="M88.1,116.9l-8.5,236.7c-5.9-1.1-9-2.1-9-2.1l9.2-227.8C82.3,121.2,85.1,118.8,88.1,116.9z"/>
			</g>
			<g id="S1XOmEb6lzX">
				
					<ellipse id="H1Vd7NZ6lMX" cx="198.2" cy="17.2" rx="5.9" ry="4.2"/>
			</g>
			<g id="rJruQ4bpgzm">
				<g id="Hk8dQVWpefX_rysSSalz7" data-animator-group="true" data-animator-type="0"><path id="Hk8dQVWpefX" d="M130.5,111.2h11.1c5.3,0,9.6,4.3,9.6,9.6l0,0c0,5.3-4.3,9.6-9.6,9.6h-11.1&#10;&#9;&#9;&#9;&#9;&#9;c-5.3,0-9.6-4.3-9.6-9.6l0,0C120.9,115.5,125.2,111.2,130.5,111.2z"/></g>
			</g>
		</g>
	</g>
</g>
<script>(function(){var a=document.querySelector('#HJmNWplz7'),b=a.querySelectorAll('style'),c=function(d){b.forEach(function(f){var g=f.textContent;g&amp;&amp;(f.textContent=g.replace(/transform-box:[^;\r\n]*/gi,'transform-box: '+d))})};c('initial'),window.requestAnimationFrame(function(){return c('fill-box')})})();</script></svg>