<svg version="1.1" id="rk8NUAPgQ" xmlns="http://www.w3.org/2000/svg" xmlns:xlink="http://www.w3.org/1999/xlink" x="0px" y="0px" viewBox="0 0 111 111" style="enable-background:new 0 0 111 111;" xml:space="preserve"><style>@-webkit-keyframes Hy4LVLCPx7_Animation{0%{opacity: 1;}10%{opacity: 0;}20%{opacity: 1;}100%{opacity: 1;}}@keyframes Hy4LVLCPx7_Animation{0%{opacity: 1;}10%{opacity: 0;}20%{opacity: 1;}100%{opacity: 1;}}@-webkit-keyframes HkWIEU0vg7_Animation{0%{opacity: 0;}10%{opacity: 1;}20%{opacity: 0;}100%{opacity: 0;}}@keyframes HkWIEU0vg7_Animation{0%{opacity: 0;}10%{opacity: 1;}20%{opacity: 0;}100%{opacity: 0;}}@-webkit-keyframes HJF8VLCvxX_SknLLAweX_Animation{0%{-webkit-transform: scale(1, 1);transform: scale(1, 1);}50%{-webkit-transform: scale(1.2, 1.2);transform: scale(1.2, 1.2);}100%{-webkit-transform: scale(1, 1);transform: scale(1, 1);}}@keyframes HJF8VLCvxX_SknLLAweX_Animation{0%{-webkit-transform: scale(1, 1);transform: scale(1, 1);}50%{-webkit-transform: scale(1.2, 1.2);transform: scale(1.2, 1.2);}100%{-webkit-transform: scale(1, 1);transform: scale(1, 1);}}#rk8NUAPgQ *{-webkit-animation-duration: 1s;animation-duration: 1s;-webkit-animation-iteration-count: infinite;animation-iteration-count: infinite;-webkit-animation-timing-function: cubic-bezier(0, 0, 1, 1);animation-timing-function: cubic-bezier(0, 0, 1, 1);}#SJxUE8Rwxm{fill: #FCC62F;}#rkzI480DlX{fill: none;stroke: #231F20;stroke-width: 3;stroke-linecap: round;stroke-miterlimit: 10;}#ry7IV8ADlX{fill: none;stroke: #231F20;stroke-width: 3;stroke-linecap: round;stroke-miterlimit: 10;}#HkB8V8APx7{fill: #FFFFFF;}#Bk8LVU0vgm{fill: #231F20;}#H1vIE80vgm{fill: #FFFFFF;}#SJuUE8CPl7{fill: #231F20;}#HJF8VLCvxX{fill: #231F20;}#HJF8VLCvxX_SknLLAweX{-webkit-animation-name: HJF8VLCvxX_SknLLAweX_Animation;animation-name: HJF8VLCvxX_SknLLAweX_Animation;-webkit-transform-origin: 50% 100%;transform-origin: 50% 100%;transform-box: fill-box;-webkit-transform: scale(1, 1);transform: scale(1, 1);}#HkWIEU0vg7{-webkit-transform-origin: 50% 50%;transform-origin: 50% 50%;transform-box: fill-box;-webkit-animation-name: HkWIEU0vg7_Animation;animation-name: HkWIEU0vg7_Animation;opacity: 0;}#Hy4LVLCPx7{-webkit-animation-name: Hy4LVLCPx7_Animation;animation-name: Hy4LVLCPx7_Animation;-webkit-transform-origin: 50% 50%;transform-origin: 50% 50%;transform-box: fill-box;opacity: 1;}</style>

<circle cx="55.7" cy="55.7" r="55.7" id="SJxUE8Rwxm"/>
<title>emoji / neutral emoji</title>
<desc>Created with Sketch.</desc>
<g id="HkWIEU0vg7">
	<line x1="23.2" y1="48.6" x2="35.6" y2="48.6" id="rkzI480DlX"/>
	<line x1="75.7" y1="48.6" x2="88.1" y2="48.6" id="ry7IV8ADlX"/>
</g>
<g id="Hy4LVLCPx7">
	<path id="HkB8V8APx7" d="M36.9,48.6c0,4.1-3.3,7.5-7.5,7.5c-4.1,0-7.5-3.3-7.5-7.5s3.3-7.5,7.5-7.5&#10;&#9;&#9;C33.5,41.1,36.9,44.4,36.9,48.6"/>
	<path id="Bk8LVU0vgm" d="M34.4,48.6c0,2.8-2.3,5-5,5s-5-2.3-5-5c0-2.8,2.3-5,5-5S34.4,45.8,34.4,48.6"/>
	<path id="H1vIE80vgm" d="M89.4,48.6c0,4.1-3.3,7.5-7.5,7.5c-4.1,0-7.5-3.3-7.5-7.5s3.3-7.5,7.5-7.5&#10;&#9;&#9;C86.1,41.1,89.4,44.4,89.4,48.6"/>
	<path id="SJuUE8CPl7" d="M87,48.6c0,2.8-2.3,5-5,5c-2.8,0-5-2.3-5-5c0-2.8,2.3-5,5-5C84.7,43.5,87,45.8,87,48.6"/>
</g>
<g id="HJF8VLCvxX_SknLLAweX" data-animator-group="true" data-animator-type="2"><path id="HJF8VLCvxX" d="M77.3,71.6c0.8,0.4,0.9,1.9,0.1,3.1c-10.4,15.3-33.2,15.3-43.6,0C33,73.4,33.1,72,34,71.6&#10;&#9;c0.8-0.4,2,0.1,2.7,1.1c9.1,13.3,28.9,13.3,38,0C75.3,71.7,76.5,71.1,77.3,71.6"/></g>
<script>(function(){var a=document.querySelector('#rk8NUAPgQ'),b=a.querySelectorAll('style'),c=function(d){b.forEach(function(f){var g=f.textContent;g&amp;&amp;(f.textContent=g.replace(/transform-box:[^;\r\n]*/gi,'transform-box: '+d))})};c('initial'),window.requestAnimationFrame(function(){return c('fill-box')})})();</script></svg>