<svg version="1.1" id="BkNcwn4bQ" xmlns="http://www.w3.org/2000/svg" xmlns:xlink="http://www.w3.org/1999/xlink" x="0px" y="0px" viewBox="-30 0 190 220" style="enable-background:new 0 0 132.1 220.6;" xml:space="preserve"><style>@-webkit-keyframes Hy9xE5DhVZ7_r1dtO3VbQ_Animation{0%{-webkit-transform: translate(0px, 0px);transform: translate(0px, 0px);}13.33%{-webkit-transform: translate(0px, -2px);transform: translate(0px, -2px);}26.67%{-webkit-transform: translate(0px, 0px);transform: translate(0px, 0px);}40%{-webkit-transform: translate(0px, -2px);transform: translate(0px, -2px);}53.33%{-webkit-transform: translate(0px, 0px);transform: translate(0px, 0px);}100%{-webkit-transform: translate(0px, 0px);transform: translate(0px, 0px);}}@keyframes Hy9xE5DhVZ7_r1dtO3VbQ_Animation{0%{-webkit-transform: translate(0px, 0px);transform: translate(0px, 0px);}13.33%{-webkit-transform: translate(0px, -2px);transform: translate(0px, -2px);}26.67%{-webkit-transform: translate(0px, 0px);transform: translate(0px, 0px);}40%{-webkit-transform: translate(0px, -2px);transform: translate(0px, -2px);}53.33%{-webkit-transform: translate(0px, 0px);transform: translate(0px, 0px);}100%{-webkit-transform: translate(0px, 0px);transform: translate(0px, 0px);}}@-webkit-keyframes HkXgNcv3NZQ_Hkv3D34WX_Animation{0%{-webkit-transform: scale(1, 1);transform: scale(1, 1);}13.33%{-webkit-transform: scale(1.2, 1.2);transform: scale(1.2, 1.2);}26.67%{-webkit-transform: scale(1, 1);transform: scale(1, 1);}40%{-webkit-transform: scale(1.2, 1.2);transform: scale(1.2, 1.2);}53.33%{-webkit-transform: scale(1, 1);transform: scale(1, 1);}100%{-webkit-transform: scale(1, 1);transform: scale(1, 1);}}@keyframes HkXgNcv3NZQ_Hkv3D34WX_Animation{0%{-webkit-transform: scale(1, 1);transform: scale(1, 1);}13.33%{-webkit-transform: scale(1.2, 1.2);transform: scale(1.2, 1.2);}26.67%{-webkit-transform: scale(1, 1);transform: scale(1, 1);}40%{-webkit-transform: scale(1.2, 1.2);transform: scale(1.2, 1.2);}53.33%{-webkit-transform: scale(1, 1);transform: scale(1, 1);}100%{-webkit-transform: scale(1, 1);transform: scale(1, 1);}}@-webkit-keyframes By349P2VZ7_BJ59vnNW7_Animation{0%{-webkit-transform: translate(0px, 0px);transform: translate(0px, 0px);}13.33%{-webkit-transform: translate(0px, 5px);transform: translate(0px, 5px);}26.67%{-webkit-transform: translate(0px, 0px);transform: translate(0px, 0px);}40%{-webkit-transform: translate(0px, 5px);transform: translate(0px, 5px);}53.33%{-webkit-transform: translate(0px, 0px);transform: translate(0px, 0px);}100%{-webkit-transform: translate(0px, 0px);transform: translate(0px, 0px);}}@keyframes By349P2VZ7_BJ59vnNW7_Animation{0%{-webkit-transform: translate(0px, 0px);transform: translate(0px, 0px);}13.33%{-webkit-transform: translate(0px, 5px);transform: translate(0px, 5px);}26.67%{-webkit-transform: translate(0px, 0px);transform: translate(0px, 0px);}40%{-webkit-transform: translate(0px, 5px);transform: translate(0px, 5px);}53.33%{-webkit-transform: translate(0px, 0px);transform: translate(0px, 0px);}100%{-webkit-transform: translate(0px, 0px);transform: translate(0px, 0px);}}#BkNcwn4bQ *{-webkit-animation-duration: 1.5s;animation-duration: 1.5s;-webkit-animation-iteration-count: infinite;animation-iteration-count: infinite;-webkit-animation-timing-function: cubic-bezier(0, 0, 1, 1);animation-timing-function: cubic-bezier(0, 0, 1, 1);}#B1-N5P2Vb7{fill: #F1727E;}#H1GEcDhEZ7{fill: #F48E95;}#Bkm45D2V-Q{fill: #F7B1B9;}#HyBVcPhVWm{fill: #F1727E;}#S1U4cD2Vb7{fill: #F48E95;}#BkwE5D2EZ7{fill: #F1727E;}#ByYEcwnE-7{fill: #F1727E;}#BkcVcwhN-X{fill: #F48E95;}#r1o45whV-7{fill: #F1727E;}#SyT4qP2NbX{fill: #F1727E;}#Hy0EqwhN-X{fill: #F1727E;}#BJ1eVcPn4WQ{fill: #F48E95;}#r1gxE9P34-m{fill: #F1727E;}#SkWlVcv3Ebm{fill: #F1727E;}#SyGlVqv3V-X{fill: #231F20;}#BkHxEcwnNW7{fill: #7E4255;}#Byvl45w3Vb7{fill: #EF2946;}#BJOx4qw3V-7{fill: #020202;}#BkKg49wnN-7{fill: #020202;}#Hy9xE5DhVZ7{fill: #FFFFFF;}#By349P2VZ7_BJ59vnNW7{-webkit-animation-name: By349P2VZ7_BJ59vnNW7_Animation;animation-name: By349P2VZ7_BJ59vnNW7_Animation;-webkit-transform-origin: 50% 50%;transform-origin: 50% 50%;transform-box: fill-box;-webkit-transform: translate(0px, 0px);transform: translate(0px, 0px);}#HkXgNcv3NZQ_Hkv3D34WX{-webkit-animation-name: HkXgNcv3NZQ_Hkv3D34WX_Animation;animation-name: HkXgNcv3NZQ_Hkv3D34WX_Animation;-webkit-transform-origin: 50% 50%;transform-origin: 50% 50%;transform-box: fill-box;-webkit-transform: scale(1, 1);transform: scale(1, 1);}#Hy9xE5DhVZ7_r1dtO3VbQ{-webkit-animation-name: Hy9xE5DhVZ7_r1dtO3VbQ_Animation;animation-name: Hy9xE5DhVZ7_r1dtO3VbQ_Animation;-webkit-transform-origin: 50% 50%;transform-origin: 50% 50%;transform-box: fill-box;}</style>

<title>Asset 33</title>
<g id="HyeEqvn4-m">
	<path d="M43.8,190.3c0.6-1.3,0.5-2.9-0.1-4.1c-0.7-1.3-1.6-2.4-2.6-3.4c-2.3-2.5-5.1-5.1-8.5-5.1&#10;&#9;&#9;c-3.8,0-6.7,3.5-8.5,6.9c-1.5,2.6-2.4,5.5-2.7,8.5c-0.3,3,0.4,6,2,8.6c0.7,1.1,1.6,1.9,2.7,2.5c1.8,0.7,3.7,0.8,5.6,0.3&#10;&#9;&#9;c4.5-0.8,8.7-2.6,12.4-5.2L43.8,190.3z" id="B1-N5P2Vb7"/>
	<path d="M94.1,213.3c-0.2,2.2-1.9,4.1-4.1,4.3c-2.8,0.8-5.7,1.4-8.5,1.9c-10.5,1.7-21.3,1.3-31.7-1.2&#10;&#9;&#9;c-2-0.5-3.9-1-5.8-1.6c-3.3-1.1-6.8-2.6-8.6-5.5c-2.3-3.9-1.1-8.8,0.3-13.1c3.8-11.5,8.4-22.6,13.8-33.4c2-3.9,4.1-7.9,7.3-11&#10;&#9;&#9;l22.8,3.5C93.3,172.4,98.7,193.3,94.1,213.3z" id="H1GEcDhEZ7"/>
	<path d="M81.4,219.5c-10.5,1.7-21.3,1.3-31.7-1.2c-2.5-12.5,0.2-25.5,7.5-36c3.8-5.3,10.1-10.2,16.3-8.2&#10;&#9;&#9;c5.3,1.7,8,7.5,9.1,13C84.9,197.8,83.6,208.7,81.4,219.5z" id="Bkm45D2V-Q"/>
	<g id="BkEN5vn4Z7">
		<path id="HyBVcPhVWm" d="M55.5,191.9c0-1.3-0.1-2.7,0-4.2c0-8-6.4-12.8-11.6-11.4s-7.8,8.9-5.6,16.7&#10;&#9;&#9;&#9;c0.7,2.5,1.9,4.9,3.5,7c1.2,1.6,2.7,2.9,4.5,3.8c1.6,0.8,3.5,1,5.3,0.6C55.9,203.1,55.7,198.6,55.5,191.9z"/>
		<path id="S1U4cD2Vb7" d="M56.5,190.9c0-1.3,0-2.7,0-4.2c0-8-6.4-12.8-11.6-11.4s-7.7,8.9-5.6,16.6c0.7,2.5,1.9,4.9,3.5,7&#10;&#9;&#9;&#9;c1.2,1.6,2.7,2.9,4.5,3.8c1.6,0.8,3.5,1.1,5.3,0.6C56.9,202.2,56.7,197.6,56.5,190.9z"/>
		<path id="BkwE5D2EZ7" d="M56.5,190.9c-1.1,2.7-2.9,5-5.2,6.8c-1.3,0.9-2.7,1.5-4.2,1.7l0,0c-1.4,0.2-2.9,0-4.3-0.4&#10;&#9;&#9;&#9;c1.2,1.6,2.7,2.9,4.5,3.8c1.6,0.8,3.5,1.1,5.3,0.6C56.9,202.2,56.7,197.6,56.5,190.9z"/>
	</g>
	<g id="SkuNqD2VWX">
		<path id="ByYEcwnE-7" d="M79.2,190.3c0.4-1.3,0.8-2.6,1.1-4.1c2-7.8,9.5-10.7,14.2-8s-13.2,26-14.8,25.1&#10;&#9;&#9;&#9;C75.9,201.1,77.3,196.7,79.2,190.3z"/>
		<path id="BkcVcwhN-X" d="M79.9,190.8c0.4-1.3,0.8-2.6,1.1-4c2-7.8,9.5-10.7,14.2-8s5.2,10.6,1.1,17.5&#10;&#9;&#9;&#9;c-1.3,2.3-3.1,4.3-5.2,5.9c-1.6,1.2-3.4,2.1-5.3,2.5c-1.8,0.4-3.7,0.1-5.3-0.8C76.6,201.6,78,197.2,79.9,190.8z"/>
		<path id="r1o45whV-7" d="M79.9,190.8c0.4,2.9,1.5,5.7,3.2,8c1,1.2,2.2,2.2,3.7,2.8l0,0c1.4,0.5,2.8,0.8,4.3,0.7&#10;&#9;&#9;&#9;c-1.6,1.2-3.4,2.1-5.3,2.5c-1.8,0.4-3.7,0.1-5.3-0.8C76.6,201.6,78,197.2,79.9,190.8z"/>
	</g>
	<g id="By349P2VZ7_BJ59vnNW7" data-animator-group="true" data-animator-type="0"><g id="By349P2VZ7">
		<path d="M89.1,82.2c9.5-5.2,13.9-34.8,15.4-41.5c2-9,3.5-18.2,2-27.3c-0.6-3.9-1.9-7.8-4.8-10.4&#10;&#9;&#9;&#9;c-3.1-2.6-7.3-3.5-11.2-2.6c-3.9,1-7.4,3.1-10.1,6c-5.4,5.6-8.3,13.2-9.4,20.9c-1.4,10.5-0.7,21.1,2,31.4&#10;&#9;&#9;&#9;c1.6,6.1,4.4,22.1,11.9,24.1C86.2,83.1,87.7,82.9,89.1,82.2z" id="SyT4qP2NbX"/>
		<path d="M47.9,82.1c-13.5-5.4-21.7-19.8-28.2-32.2C13.7,38.7,2,7.6,25.3,6.6c5-0.2,9.7,2.5,13,6.2s5.3,8.4,7,13&#10;&#9;&#9;&#9;C49,36.3,51.7,47,53.5,58c1,5.5,8.2,29-4.3,24.6C48.8,82.4,48.3,82.3,47.9,82.1z" id="Hy0EqwhN-X"/>
		<path d="M93.1,161.8c12.5-2.5,24-8,31.5-18.2c8.2-11.1,9.6-26.6,4.6-39.5S113.2,81,100.3,76&#10;&#9;&#9;&#9;c-10.4-4-21.8-4.9-32.9-4.3c-12.7,0.6-25.5,2.9-36.9,8.5s-21.5,14.5-26.9,26c-2.6,5.3-3.8,11.1-3.4,17c0.9,10.4,8,19.6,16.7,25.4&#10;&#9;&#9;&#9;c9.9,6.6,21.4,9.7,32.9,12.2C62.7,163.4,78.6,164.6,93.1,161.8z" id="BJ1eVcPn4WQ"/>
		<path d="M111.4,132c-4.6-1.9-11-2.5-14.2,2.2c-2,2.8-1.4,6.7,1.4,8.7c0.9,0.6,1.9,1,3,1.1c2.6,0.3,11.3-1.1,8.9-5.6&#10;&#9;&#9;&#9;c-1.8-3.3-9.9-3.3-8.8,1.6c0.2,1.1,2,0.7,1.7-0.5c-0.5-2.4,3.7-1.7,4.8-0.9c2.1,1.6-0.8,2.8-2.1,3.2c-2.4,0.7-5.9,1.1-7.5-1.4&#10;&#9;&#9;&#9;c-1.9-2.9,0.2-6.2,3-7.4c3.1-1.3,6.5-0.5,9.4,0.7C112,134.2,112.5,132.4,111.4,132L111.4,132z" id="r1gxE9P34-m"/>
		<path d="M25.2,133.2c2.2-2.2,6.3-2.3,9.2-1.6c3.9,0.9,5.5,4.6,2.3,7.5c-2,1.8-6.4,3.4-8.9,1.6&#10;&#9;&#9;&#9;c-2.1-1.5-0.5-3.3,1.4-3.7c1.7-0.3,3.4,0.3,4.6,1.5c0.8,0.8,2.1-0.5,1.3-1.3c-1.5-1.5-3.7-2.3-5.8-2c-1.9,0.2-4,1.3-4.2,3.4&#10;&#9;&#9;&#9;c-0.5,5.5,7.4,4.9,10.5,3.4c4.2-2,7-7.4,2.5-10.8c-2.1-1.6-5-1.8-7.6-1.7c-2.4-0.1-4.7,0.8-6.4,2.4&#10;&#9;&#9;&#9;C23.1,132.8,24.4,134,25.2,133.2L25.2,133.2z" id="SkWlVcv3Ebm"/>
		<path d="M72.1,126.1c-1.5-0.3-3-0.1-4.4,0.4c-1-0.3-1.4,1.3-0.4,1.8c0.4,0.2,0.8,0.3,1.2,0.3c0.5,0.1,1,0.2,1.5,0.2&#10;&#9;&#9;&#9;c0.3,0,0.5-0.1,0.7-0.4c0.5-0.2,1-0.4,1.5-0.7c0.4-0.3,0.6-0.8,0.3-1.3C72.5,126.3,72.3,126.2,72.1,126.1z" id="SyGlVqv3V-X"/>
		<g id="HkXgNcv3NZQ_Hkv3D34WX" data-animator-group="true" data-animator-type="2"><g id="HkXgNcv3NZQ">
			<g id="Sy4xNcv3VbX">
				<path id="BkHxEcwnNW7" d="M88,133.1c0,10.8-8,19.6-18,19.6s-18-8.8-18-19.6H88z"/>
			</g>
			<g id="ByUxN5v2E-Q">
				<path id="Byvl45w3Vb7" d="M83.2,146.4c-5.9,7.3-16.5,8.4-23.8,2.5c-0.7-0.6-1.4-1.3-2.1-2c-1.6-1.8,5.2-5.3,12.4-5.4&#10;&#9;&#9;&#9;&#9;&#9;S84.7,144.6,83.2,146.4z"/>
			</g>
		</g></g>
		<path d="M25,125c-0.6,0-1.2-0.4-1.4-1c-0.3-0.8,0.2-1.6,0.9-1.9l12.1-4.1l-12.4-7.4c-0.7-0.4-0.9-1.3-0.5-2.1&#10;&#9;&#9;&#9;c0.4-0.7,1.3-0.9,2.1-0.5L41,117c0.5,0.3,0.8,0.9,0.7,1.4c-0.1,0.6-0.5,1.1-1,1.3l-15.2,5.2C25.4,125,25.2,125,25,125z" id="BJOx4qw3V-7"/>
		<path d="M111.6,125c-0.2,0-0.3,0-0.5-0.1l-15.2-5.2c-0.6-0.2-0.9-0.7-1-1.3c-0.1-0.6,0.2-1.1,0.7-1.4l15.2-9.1&#10;&#9;&#9;&#9;c0.7-0.4,1.6-0.2,2.1,0.5c0.4,0.7,0.2,1.6-0.5,2.1l-12.4,7.4l12.1,4.1c0.8,0.3,1.2,1.1,0.9,1.9C112.8,124.6,112.3,125,111.6,125z" id="BkKg49wnN-7"/>
		<g id="Hy9xE5DhVZ7_r1dtO3VbQ" data-animator-group="true" data-animator-type="0"><path d="M71.9,139l-2.8,0.1c-0.6,0.1-1.2-0.3-1.5-0.8l-1.4-5.2h8.2l-1,5C73.1,138.7,72.5,139,71.9,139z" id="Hy9xE5DhVZ7"/></g>
	</g></g>
</g>
<script>(function(){var a=document.querySelector('#BkNcwn4bQ'),b=a.querySelectorAll('style'),c=function(d){b.forEach(function(f){var g=f.textContent;g&amp;&amp;(f.textContent=g.replace(/transform-box:[^;\r\n]*/gi,'transform-box: '+d))})};c('initial'),window.requestAnimationFrame(function(){return c('fill-box')})})();</script></svg>