<svg version="1.1" id="H1Vd1H24b7" xmlns="http://www.w3.org/2000/svg" xmlns:xlink="http://www.w3.org/1999/xlink" x="0px" y="0px" viewBox="-30 0 190 220" style="enable-background:new 0 0 132.1 220.6;" xml:space="preserve"><style>@-webkit-keyframes Hk9xdJrhEWQ_r1kIHhEW7_Animation{0%{-webkit-transform: scale(1, 1);transform: scale(1, 1);}50%{-webkit-transform: scale(1.2, 1.2);transform: scale(1.2, 1.2);}100%{-webkit-transform: scale(1, 1);transform: scale(1, 1);}}@keyframes Hk9xdJrhEWQ_r1kIHhEW7_Animation{0%{-webkit-transform: scale(1, 1);transform: scale(1, 1);}50%{-webkit-transform: scale(1.2, 1.2);transform: scale(1.2, 1.2);}100%{-webkit-transform: scale(1, 1);transform: scale(1, 1);}}@-webkit-keyframes By0e_yH2NWX_Animation{0%{opacity: 1;}10%{opacity: 0;}20%{opacity: 1;}30%{opacity: 0;}40%{opacity: 1;}50%{opacity: 0;}60%{opacity: 1;}70%{opacity: 0;}80%{opacity: 1;}90%{opacity: 0;}100%{opacity: 1;}}@keyframes By0e_yH2NWX_Animation{0%{opacity: 1;}10%{opacity: 0;}20%{opacity: 1;}30%{opacity: 0;}40%{opacity: 1;}50%{opacity: 0;}60%{opacity: 1;}70%{opacity: 0;}80%{opacity: 1;}90%{opacity: 0;}100%{opacity: 1;}}@-webkit-keyframes HyJZ_kShN-X_Animation{0%{opacity: 0;}10%{opacity: 1;}20%{opacity: 0;}30%{opacity: 1;}40%{opacity: 0;}50%{opacity: 1;}60%{opacity: 0;}70%{opacity: 1;}80%{opacity: 0;}90%{opacity: 1;}100%{opacity: 0;}}@keyframes HyJZ_kShN-X_Animation{0%{opacity: 0;}10%{opacity: 1;}20%{opacity: 0;}30%{opacity: 1;}40%{opacity: 0;}50%{opacity: 1;}60%{opacity: 0;}70%{opacity: 1;}80%{opacity: 0;}90%{opacity: 1;}100%{opacity: 0;}}@-webkit-keyframes SkeZ_yrhNb7_Animation{0%{opacity: 1;}10%{opacity: 0;}20%{opacity: 1;}30%{opacity: 0;}40%{opacity: 1;}50%{opacity: 0;}60%{opacity: 1;}70%{opacity: 0;}80%{opacity: 1;}90%{opacity: 0;}100%{opacity: 1;}}@keyframes SkeZ_yrhNb7_Animation{0%{opacity: 1;}10%{opacity: 0;}20%{opacity: 1;}30%{opacity: 0;}40%{opacity: 1;}50%{opacity: 0;}60%{opacity: 1;}70%{opacity: 0;}80%{opacity: 1;}90%{opacity: 0;}100%{opacity: 1;}}@-webkit-keyframes Hyb-dyS3EZm_Animation{0%{opacity: 0;}10%{opacity: 1;}20%{opacity: 0;}30%{opacity: 1;}40%{opacity: 0;}50%{opacity: 1;}60%{opacity: 0;}70%{opacity: 1;}80%{opacity: 0;}90%{opacity: 1;}100%{opacity: 0;}}@keyframes Hyb-dyS3EZm_Animation{0%{opacity: 0;}10%{opacity: 1;}20%{opacity: 0;}30%{opacity: 1;}40%{opacity: 0;}50%{opacity: 1;}60%{opacity: 0;}70%{opacity: 1;}80%{opacity: 0;}90%{opacity: 1;}100%{opacity: 0;}}#H1Vd1H24b7 *{-webkit-animation-duration: 1s;animation-duration: 1s;-webkit-animation-iteration-count: infinite;animation-iteration-count: infinite;-webkit-animation-timing-function: cubic-bezier(0, 0, 1, 1);animation-timing-function: cubic-bezier(0, 0, 1, 1);}#r1v_JBh4ZQ{fill: #F1727E;}#B1O_kBh4bm{fill: #F1727E;}#rJF_Jr3V-m{fill: #F1727E;}#Hk9OyHnVZX{fill: #F48E95;}#rki_JH34Z7{fill: #F48E95;}#HJ2dJSnVWX{fill: #F7B1B9;}#HJaukBnEW7{fill: #F1727E;}#ByR_JHhN-m{fill: #F1727E;}#Bkyg_1rhEZQ{fill: #231F20;}#HybluJH34b7{fill: #F1727E;}#rkzg_1BnNW7{fill: #F48E95;}#SJ7gu1HhNWX{fill: #F1727E;}#H1SeukBnNWm{fill: #F1727E;}#S1LldkB2EWX{fill: #F48E95;}#rkwe_1H2VbQ{fill: #F1727E;}#ByOldkH2EWm{fill: #020202;}#ryKxOJSnN-7{fill: #020202;}#Hk9xdJrhEWQ{fill: #7E4255;}#H1jx_yS3E-m{fill: #FFFFFF;}#B1nl_1H3VZQ{fill: #ABE3F4;}#Bkpl_Jr3V-Q{fill: #ABE3F4;}#By0e_yH2NWX{fill: none;stroke: #7BB2EF;stroke-miterlimit: 10;-webkit-animation-name: By0e_yH2NWX_Animation;animation-name: By0e_yH2NWX_Animation;-webkit-transform-origin: 50% 50%;transform-origin: 50% 50%;transform-box: fill-box;opacity: 1;}#HyJZ_kShN-X{fill: none;stroke: #7BB2EF;stroke-miterlimit: 10;-webkit-animation-name: HyJZ_kShN-X_Animation;animation-name: HyJZ_kShN-X_Animation;-webkit-transform-origin: 50% 50%;transform-origin: 50% 50%;transform-box: fill-box;opacity: 0;}#SkeZ_yrhNb7{fill: none;stroke: #7BB2EF;stroke-miterlimit: 10;-webkit-animation-name: SkeZ_yrhNb7_Animation;animation-name: SkeZ_yrhNb7_Animation;-webkit-transform-origin: 50% 50%;transform-origin: 50% 50%;transform-box: fill-box;opacity: 1;}#Hyb-dyS3EZm{fill: none;stroke: #7BB2EF;stroke-miterlimit: 10;-webkit-animation-name: Hyb-dyS3EZm_Animation;animation-name: Hyb-dyS3EZm_Animation;-webkit-transform-origin: 50% 50%;transform-origin: 50% 50%;transform-box: fill-box;opacity: 0;}#Hk9xdJrhEWQ_r1kIHhEW7{-webkit-animation-name: Hk9xdJrhEWQ_r1kIHhEW7_Animation;animation-name: Hk9xdJrhEWQ_r1kIHhEW7_Animation;-webkit-transform-origin: 50% 0%;transform-origin: 50% 0%;transform-box: fill-box;-webkit-transform: scale(1, 1);transform: scale(1, 1);}</style>

<title>Asset 32</title>
<g id="H1rdJBnEZQ">
	<g id="HJLu1HnEZQ">
		<path d="M89.1,82.2c9.5-5.2,13.9-34.8,15.4-41.5c2-9,3.5-18.2,2-27.3c-0.6-3.9-1.9-7.8-4.8-10.4&#10;&#9;&#9;&#9;c-3.1-2.6-7.3-3.5-11.2-2.6c-3.9,1-7.4,3.1-10.1,6c-5.4,5.6-8.3,13.2-9.4,20.9c-1.4,10.5-0.7,21.1,2,31.4&#10;&#9;&#9;&#9;c1.6,6.1,4.4,22.1,11.9,24.1C86.2,83.1,87.7,82.9,89.1,82.2z" id="r1v_JBh4ZQ"/>
		<path d="M47.9,82.1c-13.5-5.4-21.7-19.8-28.2-32.2C13.7,38.7,2,7.6,25.3,6.6c5-0.2,9.7,2.5,13,6.2s5.3,8.4,7,13&#10;&#9;&#9;&#9;C49,36.3,51.7,47,53.5,58c1,5.5,8.2,29-4.3,24.6C48.8,82.4,48.3,82.3,47.9,82.1z" id="B1O_kBh4bm"/>
		<path d="M43.8,190.3c0.6-1.3,0.5-2.9-0.1-4.1c-0.7-1.3-1.6-2.4-2.6-3.4c-2.3-2.5-5.1-5.1-8.5-5.1&#10;&#9;&#9;&#9;c-3.8,0-6.7,3.5-8.5,6.9c-1.5,2.6-2.4,5.5-2.7,8.5c-0.3,3,0.4,6,2,8.6c0.7,1.1,1.6,1.9,2.7,2.5c1.8,0.7,3.7,0.8,5.6,0.3&#10;&#9;&#9;&#9;c4.5-0.8,8.7-2.6,12.4-5.2L43.8,190.3z" id="rJF_Jr3V-m"/>
		<path d="M94.1,213.3c-0.2,2.2-1.9,4.1-4.1,4.3c-2.8,0.8-5.7,1.4-8.5,1.9c-10.5,1.7-21.3,1.3-31.7-1.2&#10;&#9;&#9;&#9;c-2-0.5-3.9-1-5.8-1.6c-3.3-1.1-6.8-2.6-8.6-5.5c-2.3-3.9-1.1-8.8,0.3-13.1c3.8-11.5,8.4-22.6,13.8-33.4c2-3.9,4.1-7.9,7.3-11&#10;&#9;&#9;&#9;l22.8,3.5C93.3,172.4,98.7,193.3,94.1,213.3z" id="Hk9OyHnVZX"/>
		<path d="M93.1,161.8c12.5-2.5,24-8,31.5-18.2c8.2-11.1,9.6-26.6,4.6-39.5S113.2,81,100.3,76&#10;&#9;&#9;&#9;c-10.4-4-21.8-4.9-32.9-4.3c-12.7,0.6-25.5,2.9-36.9,8.5s-21.5,14.5-26.9,26c-2.6,5.3-3.8,11.1-3.4,17c0.9,10.4,8,19.6,16.7,25.4&#10;&#9;&#9;&#9;c9.9,6.6,21.4,9.7,32.9,12.2C62.7,163.4,78.6,164.6,93.1,161.8z" id="rki_JH34Z7"/>
		<path d="M81.4,219.5c-10.5,1.7-21.3,1.3-31.7-1.2c-2.5-12.5,0.2-25.5,7.5-36c3.8-5.3,10.1-10.2,16.3-8.2&#10;&#9;&#9;&#9;c5.3,1.7,8,7.5,9.1,13C84.9,197.8,83.6,208.7,81.4,219.5z" id="HJ2dJSnVWX"/>
		<path d="M111.4,132c-4.6-1.9-11-2.5-14.2,2.2c-2,2.8-1.4,6.7,1.4,8.7c0.9,0.6,1.9,1,3,1.1c2.6,0.3,11.3-1.1,8.9-5.6&#10;&#9;&#9;&#9;c-1.8-3.3-9.9-3.3-8.8,1.6c0.2,1.1,2,0.7,1.7-0.5c-0.5-2.4,3.7-1.7,4.8-0.9c2.1,1.6-0.8,2.8-2.1,3.2c-2.4,0.7-5.9,1.1-7.5-1.4&#10;&#9;&#9;&#9;c-1.9-2.9,0.2-6.2,3-7.4c3.1-1.3,6.5-0.5,9.4,0.7C112,134.2,112.5,132.4,111.4,132L111.4,132z" id="HJaukBnEW7"/>
		<path d="M25.2,133.2c2.2-2.2,6.3-2.3,9.2-1.6c3.9,0.9,5.5,4.6,2.3,7.5c-2,1.8-6.4,3.4-8.9,1.6&#10;&#9;&#9;&#9;c-2.1-1.5-0.5-3.3,1.4-3.7c1.7-0.3,3.4,0.3,4.6,1.5c0.8,0.8,2.1-0.5,1.3-1.3c-1.5-1.5-3.7-2.3-5.8-2c-1.9,0.2-4,1.3-4.2,3.4&#10;&#9;&#9;&#9;c-0.5,5.5,7.4,4.9,10.5,3.4c4.2-2,7-7.4,2.5-10.8c-2.1-1.6-5-1.8-7.6-1.7c-2.4-0.1-4.7,0.8-6.4,2.4&#10;&#9;&#9;&#9;C23.1,132.8,24.4,134,25.2,133.2L25.2,133.2z" id="ByR_JHhN-m"/>
		<path d="M72.1,126.1c-1.5-0.3-3-0.1-4.4,0.4c-1-0.3-1.4,1.3-0.4,1.8c0.4,0.2,0.8,0.3,1.2,0.3c0.5,0.1,1,0.2,1.5,0.2&#10;&#9;&#9;&#9;c0.3,0,0.5-0.1,0.7-0.4c0.5-0.2,1-0.4,1.5-0.7c0.4-0.3,0.6-0.8,0.3-1.3C72.5,126.3,72.3,126.2,72.1,126.1z" id="Bkyg_1rhEZQ"/>
		<g id="S1xlu1Bn4bX">
			<path id="HybluJH34b7" d="M55.5,191.9c0-1.3-0.1-2.7,0-4.2c0-8-6.4-12.8-11.6-11.4s-7.8,8.9-5.6,16.7&#10;&#9;&#9;&#9;&#9;c0.7,2.5,1.9,4.9,3.5,7c1.2,1.6,2.7,2.9,4.5,3.8c1.6,0.8,3.5,1,5.3,0.6C55.9,203.1,55.7,198.6,55.5,191.9z"/>
			<path id="rkzg_1BnNW7" d="M56.5,190.9c0-1.3,0-2.7,0-4.2c0-8-6.4-12.8-11.6-11.4s-7.7,8.9-5.6,16.6&#10;&#9;&#9;&#9;&#9;c0.7,2.5,1.9,4.9,3.5,7c1.2,1.6,2.7,2.9,4.5,3.8c1.6,0.8,3.5,1.1,5.3,0.6C56.9,202.2,56.7,197.6,56.5,190.9z"/>
			<path id="SJ7gu1HhNWX" d="M56.5,190.9c-1.1,2.7-2.9,5-5.2,6.8c-1.3,0.9-2.7,1.5-4.2,1.7l0,0c-1.4,0.2-2.9,0-4.3-0.4&#10;&#9;&#9;&#9;&#9;c1.2,1.6,2.7,2.9,4.5,3.8c1.6,0.8,3.5,1.1,5.3,0.6C56.9,202.2,56.7,197.6,56.5,190.9z"/>
		</g>
		<g id="r1Vgd1ShVWQ">
			<path id="H1SeukBnNWm" d="M79.2,190.3c0.4-1.3,0.8-2.6,1.1-4.1c2-7.8,9.5-10.7,14.2-8s-13.2,26-14.8,25.1&#10;&#9;&#9;&#9;&#9;C75.9,201.1,77.3,196.7,79.2,190.3z"/>
			<path id="S1LldkB2EWX" d="M79.9,190.8c0.4-1.3,0.8-2.6,1.1-4c2-7.8,9.5-10.7,14.2-8s5.2,10.6,1.1,17.5&#10;&#9;&#9;&#9;&#9;c-1.3,2.3-3.1,4.3-5.2,5.9c-1.6,1.2-3.4,2.1-5.3,2.5c-1.8,0.4-3.7,0.1-5.3-0.8C76.6,201.6,78,197.2,79.9,190.8z"/>
			<path id="rkwe_1H2VbQ" d="M79.9,190.8c0.4,2.9,1.5,5.7,3.2,8c1,1.2,2.2,2.2,3.7,2.8l0,0c1.4,0.5,2.8,0.8,4.3,0.7&#10;&#9;&#9;&#9;&#9;c-1.6,1.2-3.4,2.1-5.3,2.5c-1.8,0.4-3.7,0.1-5.3-0.8C76.6,201.6,78,197.2,79.9,190.8z"/>
		</g>
		<path d="M21.7,125.2c-0.2,0-0.3,0-0.5-0.1c-0.8-0.3-1.1-1.2-0.8-2c0,0,0,0,0,0c0.1-0.3,3.5-8.4,11.2-8.4&#10;&#9;&#9;&#9;c6.3,0,9.3,5.6,10,8.6c0.2,0.8-0.4,1.6-1.2,1.8c-0.8,0.2-1.5-0.3-1.7-1.1c-0.1-0.2-1.6-6.2-7.1-6.2c-5.7,0-8.4,6.5-8.4,6.5&#10;&#9;&#9;&#9;C23,124.8,22.4,125.2,21.7,125.2z" id="ByOldkH2EWm"/>
		<path d="M98.1,125.1L98.1,125.1c-0.9-0.1-1.5-0.9-1.4-1.7c0.5-3,3-8.9,9.3-9.3c7.7-0.6,11.7,7.2,11.8,7.5&#10;&#9;&#9;&#9;c0.4,0.7,0.1,1.6-0.7,2s-1.6,0.1-2-0.7c0-0.1-3.3-6.3-8.9-5.9s-6.6,6.7-6.6,6.8C99.6,124.6,98.9,125.1,98.1,125.1z" id="ryKxOJSnN-7"/>
		<g id="Hk9xdJrhEWQ_r1kIHhEW7" data-animator-group="true" data-animator-type="2"><path d="M87.6,148.6c-11.8-5.4-23.4-5-34.8,1.2c-3.5,1.9-6.3-4.6-3.4-7.9c4.3-4.8,10.7-8.8,20.3-9.1&#10;&#9;&#9;&#9;s16.2,3.2,20.8,7.7C93.6,143.6,91.2,150.3,87.6,148.6z" id="Hk9xdJrhEWQ"/></g>
		<path d="M71.4,138.7l-2.8,0.1c-0.6,0.1-1.2-0.3-1.5-0.8l-1.3-4.8c2.7-0.4,5.4-0.4,8.1-0.2l-1,4.9&#10;&#9;&#9;&#9;C72.6,138.4,72,138.7,71.4,138.7z" id="H1jx_yS3E-m"/>
		<path d="M26.5,119.9c1.4-1.4,3.3-2.1,5.2-2.1c1.9-0.1,3.7,0.8,4.9,2.3l3.6,38.5c0,0-11.7-2.9-16.6-5.8L26.5,119.9z" id="B1nl_1H3VZQ"/>
		<path d="M112.1,119.1c-1.4-1.4-3.3-2.1-5.2-2.1c-1.9-0.1-3.7,0.8-4.9,2.2l0.9,39.9c5.3-1.9,10.3-4.6,14.7-8.1&#10;&#9;&#9;&#9;L112.1,119.1z" id="Bkpl_Jr3V-Q"/>
	</g>
</g>
<path d="M31.7,118.1c0,0-4,3.6,0,7.3c4,3.7-0.6,7.4-0.6,7.4s-3.5,3.6,0.6,8.5s-0.6,7.4-0.6,7.4s-3.9,3,0,6.6" id="By0e_yH2NWX"/>
<path d="M30.9,118.1c0,0,4,3.6,0,7.3c-4,3.7,0.6,7.4,0.6,7.4s3.5,3.6-0.6,8.5s0.6,7.4,0.6,7.4s3.9,3,0,6.6" id="HyJZ_kShN-X"/>
<path d="M106.7,117.3c0,0-3.6,4.1,0.9,7.3c4.5,3.2,0.3,7.5,0.3,7.5s-3.1,4,1.6,8.5c4.7,4.5,0.3,7.5,0.3,7.5&#10;&#9;s-3.5,3.5,0.8,6.7" id="SkeZ_yrhNb7"/>
<path d="M105.9,117.4c0,0,4.4,3.1,0.9,7.3c-3.5,4.2,1.6,7.3,1.6,7.3s4,3.1,0.5,8.6s1.5,7.3,1.5,7.3s4.3,2.6,0.8,6.7" id="Hyb-dyS3EZm"/>
<script>(function(){var a=document.querySelector('#H1Vd1H24b7'),b=a.querySelectorAll('style'),c=function(d){b.forEach(function(f){var g=f.textContent;g&amp;&amp;(f.textContent=g.replace(/transform-box:[^;\r\n]*/gi,'transform-box: '+d))})};c('initial'),window.requestAnimationFrame(function(){return c('fill-box')})})();</script></svg>