<svg version="1.1" id="BJl3gJrWm" xmlns="http://www.w3.org/2000/svg" xmlns:xlink="http://www.w3.org/1999/xlink" x="0px" y="0px" viewBox="-30 0 190 220" style="enable-background:new 0 0 132.1 220.6;" xml:space="preserve"><style>@-webkit-keyframes BJXxhgJS-7_H1iC-yHWm_Animation{50%{-webkit-transform: translate(0px, 0px);transform: translate(0px, 0px);}60%{-webkit-transform: translate(1px, 3px);transform: translate(1px, 3px);}70%{-webkit-transform: translate(0px, 0px);transform: translate(0px, 0px);}80%{-webkit-transform: translate(1px, 3px);transform: translate(1px, 3px);}90%{-webkit-transform: translate(0px, 0px);transform: translate(0px, 0px);}0%{-webkit-transform: translate(0px, 0px);transform: translate(0px, 0px);}100%{-webkit-transform: translate(0px, 0px);transform: translate(0px, 0px);}}@keyframes BJXxhgJS-7_H1iC-yHWm_Animation{50%{-webkit-transform: translate(0px, 0px);transform: translate(0px, 0px);}60%{-webkit-transform: translate(1px, 3px);transform: translate(1px, 3px);}70%{-webkit-transform: translate(0px, 0px);transform: translate(0px, 0px);}80%{-webkit-transform: translate(1px, 3px);transform: translate(1px, 3px);}90%{-webkit-transform: translate(0px, 0px);transform: translate(0px, 0px);}0%{-webkit-transform: translate(0px, 0px);transform: translate(0px, 0px);}100%{-webkit-transform: translate(0px, 0px);transform: translate(0px, 0px);}}@-webkit-keyframes ByalxhxJrZX_HJIY-kB-X_Animation{0%{-webkit-transform: translate(0px, 0px);transform: translate(0px, 0px);}50%{-webkit-transform: translate(0px, -2px);transform: translate(0px, -2px);}100%{-webkit-transform: translate(0px, 0px);transform: translate(0px, 0px);}}@keyframes ByalxhxJrZX_HJIY-kB-X_Animation{0%{-webkit-transform: translate(0px, 0px);transform: translate(0px, 0px);}50%{-webkit-transform: translate(0px, -2px);transform: translate(0px, -2px);}100%{-webkit-transform: translate(0px, 0px);transform: translate(0px, 0px);}}@-webkit-keyframes HkPx3gkrbX_HJE7WyrZ7_Animation{0%{-webkit-transform: scale(1, 1);transform: scale(1, 1);}50%{-webkit-transform: scale(1.15, 1.15);transform: scale(1.15, 1.15);}100%{-webkit-transform: scale(1, 1);transform: scale(1, 1);}}@keyframes HkPx3gkrbX_HJE7WyrZ7_Animation{0%{-webkit-transform: scale(1, 1);transform: scale(1, 1);}50%{-webkit-transform: scale(1.15, 1.15);transform: scale(1.15, 1.15);}100%{-webkit-transform: scale(1, 1);transform: scale(1, 1);}}@-webkit-keyframes S1MglhgyrZX_r1ARxkHZX_Animation{0%{-webkit-transform: translate(0px, 0px);transform: translate(0px, 0px);}10%{-webkit-transform: translate(-1px, 0px);transform: translate(-1px, 0px);}20%{-webkit-transform: translate(0px, 0px);transform: translate(0px, 0px);}30%{-webkit-transform: translate(-1px, 0px);transform: translate(-1px, 0px);}40%{-webkit-transform: translate(0px, 0px);transform: translate(0px, 0px);}50%{-webkit-transform: translate(-1px, 0px);transform: translate(-1px, 0px);}60%{-webkit-transform: translate(0px, 0px);transform: translate(0px, 0px);}70%{-webkit-transform: translate(-1px, 0px);transform: translate(-1px, 0px);}80%{-webkit-transform: translate(0px, 0px);transform: translate(0px, 0px);}90%{-webkit-transform: translate(-1px, 0px);transform: translate(-1px, 0px);}100%{-webkit-transform: translate(0px, 0px);transform: translate(0px, 0px);}}@keyframes S1MglhgyrZX_r1ARxkHZX_Animation{0%{-webkit-transform: translate(0px, 0px);transform: translate(0px, 0px);}10%{-webkit-transform: translate(-1px, 0px);transform: translate(-1px, 0px);}20%{-webkit-transform: translate(0px, 0px);transform: translate(0px, 0px);}30%{-webkit-transform: translate(-1px, 0px);transform: translate(-1px, 0px);}40%{-webkit-transform: translate(0px, 0px);transform: translate(0px, 0px);}50%{-webkit-transform: translate(-1px, 0px);transform: translate(-1px, 0px);}60%{-webkit-transform: translate(0px, 0px);transform: translate(0px, 0px);}70%{-webkit-transform: translate(-1px, 0px);transform: translate(-1px, 0px);}80%{-webkit-transform: translate(0px, 0px);transform: translate(0px, 0px);}90%{-webkit-transform: translate(-1px, 0px);transform: translate(-1px, 0px);}100%{-webkit-transform: translate(0px, 0px);transform: translate(0px, 0px);}}@-webkit-keyframes B16x3lJrZQ_SynTeJrWX_Animation{0%{-webkit-transform: translate(0px, 0px);transform: translate(0px, 0px);}10%{-webkit-transform: translate(1px, 0px);transform: translate(1px, 0px);}20%{-webkit-transform: translate(0px, 0px);transform: translate(0px, 0px);}30%{-webkit-transform: translate(1px, 0px);transform: translate(1px, 0px);}40%{-webkit-transform: translate(0px, 0px);transform: translate(0px, 0px);}50%{-webkit-transform: translate(1px, 0px);transform: translate(1px, 0px);}60%{-webkit-transform: translate(0px, 0px);transform: translate(0px, 0px);}70%{-webkit-transform: translate(1px, 0px);transform: translate(1px, 0px);}80%{-webkit-transform: translate(0px, 0px);transform: translate(0px, 0px);}90%{-webkit-transform: translate(1px, 0px);transform: translate(1px, 0px);}100%{-webkit-transform: translate(0px, 0px);transform: translate(0px, 0px);}}@keyframes B16x3lJrZQ_SynTeJrWX_Animation{0%{-webkit-transform: translate(0px, 0px);transform: translate(0px, 0px);}10%{-webkit-transform: translate(1px, 0px);transform: translate(1px, 0px);}20%{-webkit-transform: translate(0px, 0px);transform: translate(0px, 0px);}30%{-webkit-transform: translate(1px, 0px);transform: translate(1px, 0px);}40%{-webkit-transform: translate(0px, 0px);transform: translate(0px, 0px);}50%{-webkit-transform: translate(1px, 0px);transform: translate(1px, 0px);}60%{-webkit-transform: translate(0px, 0px);transform: translate(0px, 0px);}70%{-webkit-transform: translate(1px, 0px);transform: translate(1px, 0px);}80%{-webkit-transform: translate(0px, 0px);transform: translate(0px, 0px);}90%{-webkit-transform: translate(1px, 0px);transform: translate(1px, 0px);}100%{-webkit-transform: translate(0px, 0px);transform: translate(0px, 0px);}}#BJl3gJrWm *{-webkit-animation-duration: 1s;animation-duration: 1s;-webkit-animation-iteration-count: infinite;animation-iteration-count: infinite;-webkit-animation-timing-function: cubic-bezier(0, 0, 1, 1);animation-timing-function: cubic-bezier(0, 0, 1, 1);}#r1bgngkSW7{fill: #F1727E;}#rkfg3e1rZ7{fill: #F1727E;}#BJXxhgJS-7{fill: #F1727E;}#Sy4lnekBWQ{fill: #F48E95;}#H1Hlnl1SZX{fill: #F48E95;}#HkPx3gkrbX{fill: #7E4255;}#SyOx3e1rbQ{fill: #F7B1B9;}#S1FgngJB-X{fill: #F1727E;}#BJcxhxySb7{fill: #F1727E;}#S1nx3xkB-Q{fill: #020202;}#SJ0g3xyBbm{fill: #FEFEF4;}#SkJglnx1H-Q{fill: #FEFEF4;}#H1Zggng1rZX{fill: #020202;}#r1Xle3xJBZQ{fill: #FEFEF4;}#SJ4ee3eyS-Q{fill: #FEFEF4;}#SkIlene1r-X{fill: #F1727E;}#SkPglhlJSb7{fill: #F48E95;}#BJOxl2xJrbQ{fill: #F1727E;}#HJqexhgJH-7{fill: #F1727E;}#ryjgehekHb7{fill: #F48E95;}#H1hge2eJH-7{fill: #F1727E;}#ByalxhxJrZX{fill: #FFFFFF;}#S1AexhgJrbX{fill: #231F20;}#B16x3lJrZQ_SynTeJrWX{-webkit-animation-name: B16x3lJrZQ_SynTeJrWX_Animation;animation-name: B16x3lJrZQ_SynTeJrWX_Animation;-webkit-transform-origin: 50% 50%;transform-origin: 50% 50%;transform-box: fill-box;-webkit-transform: translate(0px, 0px);transform: translate(0px, 0px);}#S1MglhgyrZX_r1ARxkHZX{-webkit-animation-name: S1MglhgyrZX_r1ARxkHZX_Animation;animation-name: S1MglhgyrZX_r1ARxkHZX_Animation;-webkit-transform-origin: 50% 50%;transform-origin: 50% 50%;transform-box: fill-box;-webkit-transform: translate(0px, 0px);transform: translate(0px, 0px);}#HkPx3gkrbX_HJE7WyrZ7{-webkit-animation-name: HkPx3gkrbX_HJE7WyrZ7_Animation;animation-name: HkPx3gkrbX_HJE7WyrZ7_Animation;-webkit-transform-origin: 50% 50%;transform-origin: 50% 50%;transform-box: fill-box;-webkit-transform: scale(1, 1);transform: scale(1, 1);}#ByalxhxJrZX_HJIY-kB-X{-webkit-animation-name: ByalxhxJrZX_HJIY-kB-X_Animation;animation-name: ByalxhxJrZX_HJIY-kB-X_Animation;-webkit-transform-origin: 50% 50%;transform-origin: 50% 50%;transform-box: fill-box;}#BJXxhgJS-7_H1iC-yHWm{-webkit-animation-name: BJXxhgJS-7_H1iC-yHWm_Animation;animation-name: BJXxhgJS-7_H1iC-yHWm_Animation;-webkit-transform-origin: 50% 50%;transform-origin: 50% 50%;transform-box: fill-box;}</style>

<title>Asset 34</title>
<g id="rylxneJH-Q">
	<path d="M89.1,82.2c9.5-5.2,13.9-34.8,15.4-41.5c2-9,3.5-18.2,2-27.3c-0.6-3.9-1.9-7.8-4.8-10.4&#10;&#9;&#9;c-3.1-2.6-7.3-3.5-11.2-2.6c-3.9,1-7.4,3.1-10.1,6c-5.4,5.6-8.3,13.2-9.4,20.9c-1.4,10.5-0.7,21.1,2,31.4&#10;&#9;&#9;c1.6,6.1,4.4,22.1,11.9,24.1C86.2,83.1,87.7,82.9,89.1,82.2z" id="r1bgngkSW7"/>
	<path d="M47.9,82.1c-13.5-5.4-21.7-19.8-28.2-32.2C13.7,38.7,2,7.6,25.3,6.6c5-0.2,9.7,2.5,13,6.2s5.3,8.4,7,13&#10;&#9;&#9;C49,36.3,51.7,47,53.5,58c1,5.5,8.2,29-4.3,24.6C48.8,82.4,48.3,82.3,47.9,82.1z" id="rkfg3e1rZ7"/>
	<g id="BJXxhgJS-7_H1iC-yHWm" data-animator-group="true" data-animator-type="0"><path d="M43.8,190.3c0.6-1.3,0.5-2.9-0.1-4.1c-0.7-1.3-1.6-2.4-2.6-3.4c-2.3-2.5-5.1-5.1-8.5-5.1&#10;&#9;&#9;c-3.8,0-6.7,3.5-8.5,6.9c-1.5,2.6-2.4,5.5-2.7,8.5c-0.3,3,0.4,6,2,8.6c0.7,1.1,1.6,1.9,2.7,2.5c1.8,0.7,3.7,0.8,5.6,0.3&#10;&#9;&#9;c4.5-0.8,8.7-2.6,12.4-5.2L43.8,190.3z" id="BJXxhgJS-7"/></g>
	<path d="M94.1,213.3c-0.2,2.2-1.9,4.1-4.1,4.3c-2.8,0.8-5.7,1.4-8.5,1.9c-10.5,1.7-21.3,1.3-31.7-1.2&#10;&#9;&#9;c-2-0.5-3.9-1-5.8-1.6c-3.3-1.1-6.8-2.6-8.6-5.5c-2.3-3.9-1.1-8.8,0.3-13.1c3.8-11.5,8.4-22.6,13.8-33.4c2-3.9,4.1-7.9,7.3-11&#10;&#9;&#9;l22.8,3.5C93.3,172.4,98.7,193.3,94.1,213.3z" id="Sy4lnekBWQ"/>
	<path d="M93.1,161.8c12.5-2.5,24-8,31.5-18.2c8.2-11.1,9.6-26.6,4.6-39.5S113.2,81,100.3,76c-10.4-4-21.8-4.9-32.9-4.3&#10;&#9;&#9;c-12.7,0.6-25.5,2.9-36.9,8.5s-21.5,14.5-26.9,26c-2.6,5.3-3.8,11.1-3.4,17c0.9,10.4,8,19.6,16.7,25.4c9.9,6.6,21.4,9.7,32.9,12.2&#10;&#9;&#9;C62.7,163.4,78.6,164.6,93.1,161.8z" id="H1Hlnl1SZX"/>
	<g id="B18g2ekHbQ">
		<g id="HkPx3gkrbX_HJE7WyrZ7" data-animator-group="true" data-animator-type="2"><path d="M80.8,142.9c0,6.5-4.8,11.8-10.8,11.8s-10.8-5.3-10.8-11.8c-0.1-4.7,2.6-9,6.9-11c0.9-0.4,1.8-0.6,2.7-0.7&#10;&#9;&#9;&#9;c0.4,0,0.8-0.1,1.2-0.1h0.3c1.2,0,2.5,0.3,3.6,0.8C78.2,133.8,80.9,138.2,80.8,142.9z" id="HkPx3gkrbX"/></g>
	</g>
	<path d="M81.4,219.5c-10.5,1.7-21.3,1.3-31.7-1.2c-2.5-12.5,0.2-25.5,7.5-36c3.8-5.3,10.1-10.2,16.3-8.2&#10;&#9;&#9;c5.3,1.7,8,7.5,9.1,13C84.9,197.8,83.6,208.7,81.4,219.5z" id="SyOx3e1rbQ"/>
	<path d="M111.4,132c-4.6-1.9-11-2.5-14.2,2.2c-2,2.8-1.4,6.7,1.4,8.7c0.9,0.6,1.9,1,3,1.1c2.6,0.3,11.3-1.1,8.9-5.6&#10;&#9;&#9;c-1.8-3.3-9.9-3.3-8.8,1.6c0.2,1.1,2,0.7,1.7-0.5c-0.5-2.4,3.7-1.7,4.8-0.9c2.1,1.6-0.8,2.8-2.1,3.2c-2.4,0.7-5.9,1.1-7.5-1.4&#10;&#9;&#9;c-1.9-2.9,0.2-6.2,3-7.4c3.1-1.3,6.5-0.5,9.4,0.7C112,134.2,112.5,132.4,111.4,132L111.4,132z" id="S1FgngJB-X"/>
	<path d="M25.2,133.2c2.2-2.2,6.3-2.3,9.2-1.6c3.9,0.9,5.5,4.6,2.3,7.5c-2,1.8-6.4,3.4-8.9,1.6&#10;&#9;&#9;c-2.1-1.5-0.5-3.3,1.4-3.7c1.7-0.3,3.4,0.3,4.6,1.5c0.8,0.8,2.1-0.5,1.3-1.3c-1.5-1.5-3.7-2.3-5.8-2c-1.9,0.2-4,1.3-4.2,3.4&#10;&#9;&#9;c-0.5,5.5,7.4,4.9,10.5,3.4c4.2-2,7-7.4,2.5-10.8c-2.1-1.6-5-1.8-7.6-1.7c-2.4-0.1-4.7,0.8-6.4,2.4C23.1,132.8,24.4,134,25.2,133.2&#10;&#9;&#9;L25.2,133.2z" id="BJcxhxySb7"/>
	<g id="ryolhxJBb7">
		<path id="S1nx3xkB-Q" d="M38.4,117.7c-0.3,6.1-3.1,10.9-6.3,10.7s-5.5-5.2-5.2-11.3s3.1-10.9,6.3-10.7&#10;&#9;&#9;&#9;S38.7,111.7,38.4,117.7z"/>
		<g id="B16x3lJrZQ_SynTeJrWX" data-animator-group="true" data-animator-type="0"><g id="B16x3lJrZQ">
			<path id="SJ0g3xyBbm" d="M32.4,115.7c-0.5,1.3-2,1.9-3.3,1.4c-1.4-0.5-2-2-1.6-3.3c0.5-1.4,2-2,3.3-1.6s2,2,1.6,3.3&#10;&#9;&#9;&#9;&#9;C32.4,115.6,32.4,115.6,32.4,115.7z"/>
			<path id="SkJglnx1H-Q" d="M32.8,118.7c-0.2,0.5-0.8,0.7-1.3,0.5s-0.7-0.8-0.5-1.3s0.8-0.7,1.3-0.5c0,0,0,0,0,0&#10;&#9;&#9;&#9;&#9;C32.8,117.6,33,118.2,32.8,118.7z"/>
		</g></g>
	</g>
	<g id="S1lxgheJH-X">
		<path id="H1Zggng1rZX" d="M108.1,114.7c0.8,6-1,11.2-4.2,11.7s-6.4-4.1-7.2-10.1s1-11.2,4.2-11.7S107.3,108.7,108.1,114.7&#10;&#9;&#9;&#9;z"/>
		<g id="S1MglhgyrZX_r1ARxkHZX" data-animator-group="true" data-animator-type="0"><g id="S1MglhgyrZX">
			<path id="r1Xle3xJBZQ" d="M101.8,113.8c-0.4,1.3-1.7,2-3,1.6c-1.3-0.4-2-1.7-1.6-3c0.4-1.2,1.6-2,2.9-1.7&#10;&#9;&#9;&#9;&#9;C101.3,111,102.1,112.4,101.8,113.8C101.8,113.8,101.8,113.8,101.8,113.8z"/>
			<path id="SJ4ee3eyS-Q" d="M102.8,116.7c0,0.6-0.4,1-0.9,1.1s-1-0.4-1.1-0.9c0-0.2,0-0.4,0.1-0.5c0.1-0.5,0.6-0.9,1.2-0.8&#10;&#9;&#9;&#9;&#9;C102.6,115.6,102.9,116.1,102.8,116.7z"/>
		</g></g>
	</g>
	<g id="BJBggnlyrZX">
		<path id="SkIlene1r-X" d="M55.5,191.9c0-1.3-0.1-2.7,0-4.2c0-8-6.4-12.8-11.6-11.4s-7.8,8.9-5.6,16.7&#10;&#9;&#9;&#9;c0.7,2.5,1.9,4.9,3.5,7c1.2,1.6,2.7,2.9,4.5,3.8c1.6,0.8,3.5,1,5.3,0.6C55.9,203.1,55.7,198.6,55.5,191.9z"/>
		<path id="SkPglhlJSb7" d="M56.5,190.9c0-1.3,0-2.7,0-4.2c0-8-6.4-12.8-11.6-11.4s-7.7,8.9-5.6,16.6c0.7,2.5,1.9,4.9,3.5,7&#10;&#9;&#9;&#9;c1.2,1.6,2.7,2.9,4.5,3.8c1.6,0.8,3.5,1.1,5.3,0.6C56.9,202.2,56.7,197.6,56.5,190.9z"/>
		<path id="BJOxl2xJrbQ" d="M56.5,190.9c-1.1,2.7-2.9,5-5.2,6.8c-1.3,0.9-2.7,1.5-4.2,1.7l0,0c-1.4,0.2-2.9,0-4.3-0.4&#10;&#9;&#9;&#9;c1.2,1.6,2.7,2.9,4.5,3.8c1.6,0.8,3.5,1.1,5.3,0.6C56.9,202.2,56.7,197.6,56.5,190.9z"/>
	</g>
	<g id="rytxe2xkBZQ">
		<path id="HJqexhgJH-7" d="M79.2,190.3c0.4-1.3,0.8-2.6,1.1-4.1c2-7.8,9.5-10.7,14.2-8s-13.2,26-14.8,25.1&#10;&#9;&#9;&#9;C75.9,201.1,77.3,196.7,79.2,190.3z"/>
		<path id="ryjgehekHb7" d="M79.9,190.8c0.4-1.3,0.8-2.6,1.1-4c2-7.8,9.5-10.7,14.2-8s5.2,10.6,1.1,17.5&#10;&#9;&#9;&#9;c-1.3,2.3-3.1,4.3-5.2,5.9c-1.6,1.2-3.4,2.1-5.3,2.5c-1.8,0.4-3.7,0.1-5.3-0.8C76.6,201.6,78,197.2,79.9,190.8z"/>
		<path id="H1hge2eJH-7" d="M79.9,190.8c0.4,2.9,1.5,5.7,3.2,8c1,1.2,2.2,2.2,3.7,2.8l0,0c1.4,0.5,2.8,0.8,4.3,0.7&#10;&#9;&#9;&#9;c-1.6,1.2-3.4,2.1-5.3,2.5c-1.8,0.4-3.7,0.1-5.3-0.8C76.6,201.6,78,197.2,79.9,190.8z"/>
	</g>
	<g id="ByalxhxJrZX_HJIY-kB-X" data-animator-group="true" data-animator-type="0"><path d="M74,131.9l-0.9,4.2c-0.2,0.6-0.8,1-1.4,0.9l-2.8,0.1c-0.6,0.1-1.2-0.3-1.5-0.8l-1.2-4.4&#10;&#9;&#9;c0.9-0.4,1.8-0.6,2.7-0.7c0.5,0,1,0,1.5-0.1C71.6,131.1,72.9,131.4,74,131.9z" id="ByalxhxJrZX"/></g>
	<path d="M72.1,126.1c-1.5-0.3-3-0.1-4.4,0.4c-1-0.3-1.4,1.3-0.4,1.8c0.4,0.2,0.8,0.3,1.2,0.3c0.5,0.1,1,0.2,1.5,0.2&#10;&#9;&#9;c0.3,0,0.5-0.1,0.7-0.4c0.5-0.2,1-0.4,1.5-0.7C72.9,127.4,72.9,126.3,72.1,126.1z" id="S1AexhgJrbX"/>
</g>
<script>(function(){var a=document.querySelector('#BJl3gJrWm'),b=a.querySelectorAll('style'),c=function(d){b.forEach(function(f){var g=f.textContent;g&amp;&amp;(f.textContent=g.replace(/transform-box:[^;\r\n]*/gi,'transform-box: '+d))})};c('initial'),window.requestAnimationFrame(function(){return c('fill-box')})})();</script></svg>