<?xml version="1.0" encoding="utf-8"?>
<!-- Generator: Adobe Illustrator 22.1.0, SVG Export Plug-In . SVG Version: 6.00 Build 0)  -->
<svg version="1.1" id="Layer_1" xmlns="http://www.w3.org/2000/svg" xmlns:xlink="http://www.w3.org/1999/xlink" x="0px" y="0px"
	 viewBox="0 0 111 111" style="enable-background:new 0 0 111 111;" xml:space="preserve">
<style type="text/css">
	.st0{fill:#FCC62F;}
	.st1{fill:none;stroke:#231F20;stroke-width:3;stroke-linecap:round;stroke-miterlimit:10;}
	.st2{fill:#FFFFFF;}
	.st3{fill:#231F20;}
</style>
<title>emoji / sad emoji</title>
<desc>Created with Sketch.</desc>
<circle class="st0" cx="55.7" cy="55.7" r="55.7"/>
<g id="emoji-_x2F_-sad-emoji">
	<g id="Clip-2">
	</g>
	<g>
		<line class="st1" x1="23.2" y1="48.6" x2="35.6" y2="48.6"/>
		<line class="st1" x1="75.7" y1="48.6" x2="88.1" y2="48.6"/>
	</g>
	<g>
		<path id="Fill-4" class="st2" d="M36.9,48.6c0,4.1-3.3,7.5-7.5,7.5c-4.1,0-7.5-3.3-7.5-7.5s3.3-7.5,7.5-7.5
			C33.5,41.1,36.9,44.4,36.9,48.6"/>
		<path id="Fill-6" class="st3" d="M34.4,48.6c0,2.8-2.3,5-5,5c-2.8,0-5-2.3-5-5c0-2.8,2.3-5,5-5C32.2,43.5,34.4,45.8,34.4,48.6"/>
		<path id="Fill-8" class="st2" d="M89.4,48.6c0,4.1-3.3,7.5-7.5,7.5c-4.1,0-7.5-3.3-7.5-7.5s3.3-7.5,7.5-7.5
			C86.1,41.1,89.4,44.4,89.4,48.6"/>
		<path id="Fill-10" class="st3" d="M87,48.6c0,2.8-2.3,5-5,5c-2.8,0-5-2.3-5-5c0-2.8,2.3-5,5-5C84.7,43.5,87,45.8,87,48.6"/>
	</g>
	<path id="Fill-12" class="st3" d="M77,73c-0.7,0.7-1.8,0.6-2.7-0.1c-10.8-9.1-26.6-9.1-37.4,0c-0.8,0.7-2,0.8-2.7,0.1
		c-0.7-0.7-0.5-1.9,0.4-2.7C46.8,60,64.5,60,76.6,70.2C77.5,71,77.7,72.3,77,73"/>
</g>
</svg>
