<svg xmlns="http://www.w3.org/2000/svg" viewBox="0 0 336 305" id="ByEajhveQ"><style>@-webkit-keyframes BJsg4TsnwgX_Sy_J23Pl7_Animation{0%{-webkit-transform: scale(1, 1);transform: scale(1, 1);}50%{-webkit-transform: scale(1.2, 1.2);transform: scale(1.2, 1.2);}100%{-webkit-transform: scale(1, 1);transform: scale(1, 1);}}@keyframes BJsg4TsnwgX_Sy_J23Pl7_Animation{0%{-webkit-transform: scale(1, 1);transform: scale(1, 1);}50%{-webkit-transform: scale(1.2, 1.2);transform: scale(1.2, 1.2);}100%{-webkit-transform: scale(1, 1);transform: scale(1, 1);}}#ByEajhveQ *{-webkit-animation-duration: 1s;animation-duration: 1s;-webkit-animation-iteration-count: infinite;animation-iteration-count: infinite;-webkit-animation-timing-function: cubic-bezier(0, 0, 1, 1);animation-timing-function: cubic-bezier(0, 0, 1, 1);}#Syf4pj2wlX{fill: #ebf9fa;}#r1mNao2DeX{fill: #8ebabf;}#rkVVpohweQ{fill: #9fd4d4;}#S1HVTsnDxm{fill: #ebf9fa;}#HyINps3Pem{fill: #ebf9fa;}#SJwVasnwxX{fill: #ebf9fa;}#HJdVpi2Dlm{fill: #ebf9fa;}#rkFVpj2wlQ{fill: #ebf9fa;}#Bk54Ts3vxQ{fill: #d8eaeb;}#H1s46i3vx7{fill: #ebf9fa;}#rk24aj2wxX{fill: #ebf9fa;}#SkpVas2veQ{fill: #ebf9fa;}#rJ0ETonwe7{fill: #ebf9fa;}#BkyxEpshDxX{fill: #ebf9fa;}#Hkll4TsnwgX{fill: #ebf9fa;}#BkbxEaj3vgQ{fill: #ebf9fa;}#HkMe4Tjnwxm{fill: #ebf9fa;}#SJXgVao2PgQ{fill: #ebf9fa;}#SyNx4po3Pl7{fill: #ebf9fa;}#B1Be4To2wl7{fill: #ebf9fa;}#HJ8gNao2Px7{fill: #ebf9fa;}#rJDe46jnDlm{fill: #ebf9fa;}#HkOlNpjnDxm{fill: #ebf9fa;}#BJFxNpshDl7{fill: #ebf9fa;}#Sy9gV6s2wgX{fill: #ebf9fa;}#BJsg4TsnwgX{fill: none;stroke: #8ebabf;stroke-linecap: round;stroke-width: 3px;stroke-miterlimit: 10;}#H1hg4as2vg7{fill: #8ebabf;}#ByaxEpo3vgX{fill: #8ebabf;}#BkCgVTinwgQ{fill: none;stroke: #8ebabf;stroke-linecap: round;stroke-width: 3px;stroke-linejoin: round;}#r1yWVpo2vx7{fill: none;stroke: #8ebabf;stroke-linecap: round;stroke-width: 3px;stroke-linejoin: round;}#BJsg4TsnwgX_Sy_J23Pl7{-webkit-animation-name: BJsg4TsnwgX_Sy_J23Pl7_Animation;animation-name: BJsg4TsnwgX_Sy_J23Pl7_Animation;-webkit-transform-origin: 50% 0%;transform-origin: 50% 0%;transform-box: fill-box;-webkit-transform: scale(1, 1);transform: scale(1, 1);}</style><defs/><title>Asset 3</title><g id="BklETo2vlm" data-name="Layer 2"><g id="S1bNai2wlm" data-name="Layer 1"><path d="M29.66,0H306.72a6.34,6.34,0,0,1,6.34,6.34V271.52a6.34,6.34,0,0,1-6.34,6.34H29.66a6.35,6.35,0,0,1-6.35-6.35V6.35A6.35,6.35,0,0,1,29.66,0Z" id="Syf4pj2wlX"/><path d="M306.72,0H29.65a6.36,6.36,0,0,0-6.34,6.35V22.48H313.06V6.35A6.36,6.36,0,0,0,306.72,0Z" id="r1mNao2DeX"/><rect x="23.31" y="22.09" width="289.75" height="5.01" id="rkVVpohweQ"/><rect x="76.81" y="5.71" width="188.74" height="11.05" rx="3" ry="3" id="S1HVTsnDxm"/><rect x="273.97" y="5.71" width="25.25" height="11.05" rx="3" ry="3" id="HyINps3Pem"/><path d="M43.16,11.24a3.82,3.82,0,1,1-3.81-3.82A3.82,3.82,0,0,1,43.16,11.24Z" id="SJwVasnwxX"/><path d="M54.44,11.24a3.82,3.82,0,1,1-3.81-3.82A3.82,3.82,0,0,1,54.44,11.24Z" id="HJdVpi2Dlm"/><path d="M65.72,11.24a3.82,3.82,0,1,1-3.81-3.82A3.82,3.82,0,0,1,65.72,11.24Z" id="rkFVpj2wlQ"/><path d="M31.71,271.56c0-1.29,1.35-2.34,3-2.34h267c1.65,0,3,1,3,2.34s-1.35,2.33-3,2.33h-267C33.06,273.89,31.71,272.84,31.71,271.56Z" id="Bk54Ts3vxQ"/><path d="M6.31,132.21H3.4A19.93,19.93,0,0,1,23.31,112.3v2.92A17,17,0,0,0,6.31,132.21Z" id="H1s46i3vx7"/><path d="M9.71,135.57a4.86,4.86,0,1,1-4.85-4.86A4.85,4.85,0,0,1,9.71,135.57Z" id="rk24aj2wxX"/><path d="M4.89,144.15a1,1,0,0,1-1-1v-5.75a1,1,0,0,1,2,0v5.75A1,1,0,0,1,4.89,144.15Z" id="SkpVas2veQ"/><path d="M8.1,144.15a1,1,0,0,1-1-1v-5.75a1,1,0,0,1,1.94,0v5.75A1,1,0,0,1,8.1,144.15Z" id="rJ0ETonwe7"/><path d="M1.67,144.15a1,1,0,0,1-1-1v-5.75a1,1,0,0,1,1.94,0v5.75A1,1,0,0,1,1.67,144.15Z" id="BkyxEpshDxX"/><path d="M11.74,139.38a1,1,0,0,1-.68-.29L7,135a1,1,0,0,1,1.37-1.38l4.06,4.07a1,1,0,0,1,0,1.37A1,1,0,0,1,11.74,139.38Z" id="Hkll4TsnwgX"/><path d="M333,132.21h-2.91a17,17,0,0,0-17-17V112.3A19.93,19.93,0,0,1,333,132.21Z" id="BkbxEaj3vgQ"/><path d="M326.66,135.57a4.86,4.86,0,1,0,4.85-4.86A4.85,4.85,0,0,0,326.66,135.57Z" id="HkMe4Tjnwxm"/><path d="M331.48,144.15a1,1,0,0,1-1-1v-5.75a1,1,0,0,1,1.95,0v5.75A1,1,0,0,1,331.48,144.15Z" id="SJXgVao2PgQ"/><path d="M328.27,144.15a1,1,0,0,1-1-1v-5.75a1,1,0,1,1,1.94,0v5.75A1,1,0,0,1,328.27,144.15Z" id="SyNx4po3Pl7"/><path d="M334.7,144.15a1,1,0,0,1-1-1v-5.75a1,1,0,1,1,1.94,0v5.75A1,1,0,0,1,334.7,144.15Z" id="B1Be4To2wl7"/><path d="M324.63,139.38a1,1,0,0,1-.69-.29,1,1,0,0,1,0-1.37l4.06-4.07a1,1,0,0,1,1.38,0,1,1,0,0,1,0,1.38l-4.07,4.06A1,1,0,0,1,324.63,139.38Z" id="HJ8gNao2Px7"/><rect x="117.59" y="277.86" width="2.91" height="27.39" id="rJDe46jnDlm"/><path d="M120.5,305.25a7.41,7.41,0,0,0-14.81,0Z" id="HkOlNpjnDxm"/><rect x="215.87" y="277.86" width="2.91" height="27.39" id="BJFxNpshDl7"/><path d="M215.87,305.25a7.41,7.41,0,0,1,14.81,0Z" id="Sy9gV6s2wgX"/><g id="BJsg4TsnwgX_Sy_J23Pl7" data-animator-group="true" data-animator-type="2"><path d="M135.16,123.37q33-15.89,66.05,0" id="BJsg4TsnwgX"/></g><circle cx="80.93" cy="78.86" r="7.85" id="H1hg4as2vg7"/><circle cx="255.44" cy="78.86" r="7.85" id="ByaxEpo3vgX"/><line x1="94.93" y1="67.61" x2="66.98" y2="78.99" id="BkCgVTinwgQ"/><line x1="269.42" y1="78.99" x2="241.47" y2="67.61" id="r1yWVpo2vx7"/></g></g><script>(function(){var a=document.querySelector('#ByEajhveQ'),b=a.querySelectorAll('style'),c=function(d){b.forEach(function(f){var g=f.textContent;g&amp;&amp;(f.textContent=g.replace(/transform-box:[^;\r\n]*/gi,'transform-box: '+d))})};c('initial'),window.requestAnimationFrame(function(){return c('fill-box')})})();</script></svg>