<svg version="1.1" id="B1_emowJrb7" xmlns="http://www.w3.org/2000/svg" xmlns:xlink="http://www.w3.org/1999/xlink" x="0px" y="0px" viewBox="0 0 190 150" style="enable-background:new 0 0 190.3 150.2;" xml:space="preserve"><style>@-webkit-keyframes rykX7sDkSZQ_Hk1HYJSZ7_Animation{0%{-webkit-transform: scale(1, 1);transform: scale(1, 1);}50%{-webkit-transform: scale(1.1, 1.1);transform: scale(1.1, 1.1);}100%{-webkit-transform: scale(1, 1);transform: scale(1, 1);}}@keyframes rykX7sDkSZQ_Hk1HYJSZ7_Animation{0%{-webkit-transform: scale(1, 1);transform: scale(1, 1);}50%{-webkit-transform: scale(1.1, 1.1);transform: scale(1.1, 1.1);}100%{-webkit-transform: scale(1, 1);transform: scale(1, 1);}}@-webkit-keyframes ry5z7oP1SW7_Animation{0%{opacity: 1;}10%{opacity: 0;}20%{opacity: 1;}30%{opacity: 0;}40%{opacity: 1;}50%{opacity: 0;}60%{opacity: 1;}70%{opacity: 0;}80%{opacity: 1;}90%{opacity: 0;}100%{opacity: 1;}}@keyframes ry5z7oP1SW7_Animation{0%{opacity: 1;}10%{opacity: 0;}20%{opacity: 1;}30%{opacity: 0;}40%{opacity: 1;}50%{opacity: 0;}60%{opacity: 1;}70%{opacity: 0;}80%{opacity: 1;}90%{opacity: 0;}100%{opacity: 1;}}@-webkit-keyframes r1DM7jPJSb7_Animation{0%{opacity: 0;}10%{opacity: 1;}20%{opacity: 0;}30%{opacity: 1;}40%{opacity: 0;}50%{opacity: 1;}60%{opacity: 0;}70%{opacity: 1;}80%{opacity: 0;}90%{opacity: 1;}100%{opacity: 0;}}@keyframes r1DM7jPJSb7_Animation{0%{opacity: 0;}10%{opacity: 1;}20%{opacity: 0;}30%{opacity: 1;}40%{opacity: 0;}50%{opacity: 1;}60%{opacity: 0;}70%{opacity: 1;}80%{opacity: 0;}90%{opacity: 1;}100%{opacity: 0;}}#B1_emowJrb7 *{-webkit-animation-duration: 1s;animation-duration: 1s;-webkit-animation-iteration-count: infinite;animation-iteration-count: infinite;-webkit-animation-timing-function: cubic-bezier(0, 0, 1, 1);animation-timing-function: cubic-bezier(0, 0, 1, 1);}#SJol7jvJHZQ{fill: #00A34E;}#Bk2xQowJH-7{fill: #005D28;}#Hkpe7sDkH-X{fill: #A2C53A;}#S1ReQjw1HbX{fill: #A2C53A;}#HJ1-XsPJrbm{fill: #A2C53A;}#Bke-Xiv1r-Q{fill: #FFFFFF;}#BJZZmsP1HZQ{fill: #FFFFFF;}#SJGW7oDkHb7{fill: #FFFFFF;}#r1mbXsP1HbX{fill: #C2D69F;}#ryV-msvkHW7{fill: #FFFFFF;}#ryr-QsP1SZX{fill: #FFFFFF;}#HJI-7oPJBZm{fill: #007235;}#B1vWQjwyH-Q{fill: #F1E008;}#rkdWmjvkrZQ{fill: #F1E008;}#SyKZ7jDyS-7{fill: #F1E008;}#Syqb7jv1HZQ{fill: #F1E008;}#HysbXsDJBWQ{fill: #F1E008;}#H1h-7jPkS-7{fill: #F1E008;}#SJp-QoDJBbm{fill: #007235;}#SJA-QsvyrWQ{fill: #007235;}#Syyf7jP1rbX{fill: #007235;}#SkxG7svkBWX{fill: #007235;}#rJWf7iDJBbm{fill: #004013;}#rJzGmsvJrWm{fill: #A2C53A;}#HkQMmiDJrbm{fill: #90AD3D;}#SJEM7ow1BZ7{fill: #A2C53A;}#S1rzXowkHWX{fill: #7EBA42;}#S1IMQoDkBWm{fill: #7EBA42;}#r1_GmsP1Bbm{fill: #D4F4F5;}#r1KzQoDyBZX{fill: #D4F4F5;}#HJofmsw1BbX{fill: #D4F4F5;}#H1hGmsDkSbQ{fill: #D4F4F5;}#ByTGmjPJSbm{fill: #020202;}#HJCzXiPkBWX{fill: #020202;}#rykX7sDkSZQ{fill: #749128;}#ByeXQiPyBWQ{fill: #A2C53A;}#r1W7mowJHbQ{fill: #A2C53A;}#S1M7XjPyBWQ{fill: #A2C53A;}#rkXmQjPyr-7{fill: #A2C53A;}#r1DM7jPJSb7{-webkit-animation-name: r1DM7jPJSb7_Animation;animation-name: r1DM7jPJSb7_Animation;-webkit-transform-origin: 50% 50%;transform-origin: 50% 50%;transform-box: fill-box;opacity: 0;}#ry5z7oP1SW7{-webkit-animation-name: ry5z7oP1SW7_Animation;animation-name: ry5z7oP1SW7_Animation;-webkit-transform-origin: 50% 50%;transform-origin: 50% 50%;transform-box: fill-box;opacity: 1;}#rykX7sDkSZQ_Hk1HYJSZ7{-webkit-animation-name: rykX7sDkSZQ_Hk1HYJSZ7_Animation;animation-name: rykX7sDkSZQ_Hk1HYJSZ7_Animation;-webkit-transform-origin: 50% 0%;transform-origin: 50% 0%;transform-box: fill-box;}</style>

<title>Asset 40</title>
<g id="BJFgXsPkSZX">
	<g id="Sk5eQsvyHb7">
		<path d="M87.3,86.1c0,0-32,12.3-29.3,35.9l77.6-1.2C135.7,120.8,139.3,81,87.3,86.1z" id="SJol7jvJHZQ"/>
		<path d="M119.2,116.1l-1.2-9.1c1.7-1.8,3.4-3.5,5.1-5.3c0.4-0.4,4.4-4.9,4.7-4.6c-0.7-0.7-1.4-1.4-2.1-2&#10;&#9;&#9;&#9;c-0.4,0.5-0.9,1-1.4,1.4l-8,8.5l-9.6-4.8c-0.2-0.1-0.4-0.2-0.6-0.2l-16,0.4c-0.2,0-0.4,0.1-0.5,0.1l-10,5c-0.5,0.3-5.3-3.5-6.2-4&#10;&#9;&#9;&#9;c-0.5-0.3-4.8-3.5-5.2-3.2s-0.9,0.9-1.3,1.3c0.8,0.6,1.6,1.2,2.4,1.9l8.8,6l-1.3,9.3c0.1,1.6,0.1,3.2-0.1,4.8h1.8&#10;&#9;&#9;&#9;c0.2-0.2,0.3-0.4,0.3-0.6l1.9-13.3l9.8-4.9l15.4-0.4l9.6,4.8l1.8,12.9c0,0.3,0.2,0.6,0.4,0.8h2.1&#10;&#9;&#9;&#9;C119.2,119.5,119,117.8,119.2,116.1z" id="Bk2xQowJH-7"/>
		<path d="M75.1,142.2c-0.7-2.9-0.9-5.9-0.6-8.9c0.3-4.9,3.1-10,6.1-13.8c-2.5-0.6-5.5-2-8.1-1.4&#10;&#9;&#9;&#9;c-1.9,0.5-3.8,1-5.7,1.7c-10.1,3.8-15.3,12.6-16,23.1c-0.1,1.6,0.1,3.2,0.3,4.8c0.4,3.6,5,2,7.3,1.8c1.8-0.2,3.7-0.4,5.5-0.7&#10;&#9;&#9;&#9;c2.6-0.4,5.2-0.8,7.7-1.5c1-0.2,2.8-0.4,3.5-1.1C76.1,145.3,75.4,143.4,75.1,142.2z" id="Hkpe7sDkH-X"/>
		<path d="M75.1,142.2c-0.7-2.9-0.9-5.9-0.6-8.9c0.3-4.9,3.1-10,6.1-13.8c-2.5-0.6-5.5-2-8.1-1.4&#10;&#9;&#9;&#9;c-1.9,0.5-3.8,1-5.7,1.7c-10.1,3.8-15.3,12.6-16,23.1c-0.1,1.6,0.1,3.2,0.3,4.8c0.4,3.6,5,2,7.3,1.8c1.8-0.2,3.7-0.4,5.5-0.7&#10;&#9;&#9;&#9;c2.6-0.4,5.2-0.8,7.7-1.5c1-0.2,2.8-0.4,3.5-1.1C76.1,145.3,75.4,143.4,75.1,142.2z" id="S1ReQjw1HbX"/>
		<path d="M107.6,118.7c0.7,0,2.3,5.2,2.5,5.7c1.6,4.3,2.4,8.8,2.3,13.4c-0.1,2.1-0.5,4.1-0.8,6.1&#10;&#9;&#9;&#9;c-0.2,1.1-0.2,2.1-0.1,3.2c0.3,1,0.5,0.8,1.5,1c4.5,0.6,9,0.8,13.5,1l1.9,0.1c1.2,0.1,2.2,0.2,3.4,0.1s2.4,0,3.6-0.1&#10;&#9;&#9;&#9;c0.8,0,1.6,0,2.4-0.2c0.8-0.3,1-1.2,1.1-2c0.2-1.2,0.2-2.4,0.2-3.6c-0.1-2.6-0.4-5.3-1-7.9c-0.7-3.1-1.8-6.1-3.4-8.8&#10;&#9;&#9;&#9;c-0.9-1.5-1.9-3-3-4.3c-0.6-0.7-1.2-1.3-1.9-2c-0.4-0.4-1.6-1.9-2.2-1.9L107.6,118.7z" id="HJ1-XsPJrbm"/>
		<path d="M51.1,147.8c0.4,3.6,5,2,7.3,1.8l1.6-0.2c0-1.3-0.3-2.6-0.6-3.8c-0.4-1.3-1.3-2.5-2.5-3.2&#10;&#9;&#9;&#9;c-1.2-0.8-2.8-0.8-4,0c-0.8,0.5-1.3,1.3-1.6,2.2c-0.2,0.6-0.3,1.2-0.4,1.8C51,146.9,51,147.4,51.1,147.8z" id="Bke-Xiv1r-Q"/>
		<path d="M68.8,148.1c-0.1-1-0.3-2.1-0.6-3.1c-0.3-1.4-1.2-2.6-2.5-3.2c-2.1-0.9-4.4,0.5-5.1,2.5&#10;&#9;&#9;&#9;c-0.5,1.7-0.8,3.4-0.7,5.2c1.3-0.1,2.6-0.3,3.9-0.5C65.5,148.7,67.2,148.4,68.8,148.1z" id="BJZZmsP1HZQ"/>
		<path d="M125.6,141.2c-1.8-1.1-4.3-1.1-5.7,0.7c-0.6,1-1,2.1-1.1,3.3c0,0.3-0.3,3-0.3,3.4c2.7,0.2,5.3,0.3,8,0.4&#10;&#9;&#9;&#9;l1.3,0.1C127.5,146.4,128.3,142.9,125.6,141.2z" id="SJGW7oDkHb7"/>
		<path d="M127.8,149.1L127.8,149.1z" id="r1mbXsP1HbX"/>
		<path d="M139.3,144.9c0-0.5,0-1,0-1.5c-1.1-2.6-3.2-4.5-6.8-3.9c-1.8,0.3-3.3,1.7-3.8,3.5c-0.5,2-0.7,4-0.8,6h0.6h0.2&#10;&#9;&#9;&#9;h0.5l2.7,0.1c1.2,0,2.4,0,3.6-0.1c0.8,0.1,1.6,0,2.4-0.1c0.3-0.1,0.6-0.4,0.7-0.7c0.2-0.5,0.3-0.9,0.4-1.4l0.1-0.5&#10;&#9;&#9;&#9;C139.2,145.9,139.3,145.4,139.3,144.9z" id="ryV-msvkHW7"/>
		<path d="M118.5,148.6c-0.1-0.1-0.1-0.2-0.1-0.3c0-2.5,0.3-6.5-2.5-7.7c-1-0.5-2.2-0.4-3.2,0.3c-0.4,0.4-0.7,1-0.9,1.6&#10;&#9;&#9;&#9;c-0.1,0.5-0.1,1-0.2,1.4c-0.2,1.1-0.2,2.1-0.1,3.2c0.3,1,0.5,0.8,1.5,1s1.9,0.2,2.9,0.3S117.7,148.5,118.5,148.6z" id="ryr-QsP1SZX"/>
		<path d="M128.8,98.4l-8.2,8.5l1.4,9.5l10.2,4.5l3.4-0.1C135.7,120.8,136.8,108.4,128.8,98.4z" id="HJI-7oPJBZm"/>
		<path d="M132.4,129c1.9-2.2-1.1-4.6-3.3-3.7c-1.5,0.6-2.7,2.7-0.9,3.7c0.6,0.4,1.4,0.6,2.1,0.7&#10;&#9;&#9;&#9;C131.1,129.8,131.8,129.5,132.4,129z" id="B1vWQjwyH-Q"/>
		<path d="M127.6,133.1c0.9-1.2-1.6-2.6-2.5-1.6s0.2,1.8,1.1,1.9C126.7,133.6,127.2,133.5,127.6,133.1z" id="rkdWmjvkrZQ"/>
		<path d="M134.5,135.2c0.4-0.3,0.5-0.8,0.2-1.2c-0.1-0.1-0.2-0.2-0.3-0.3c-0.7-0.4-1.9,0.3-1.4,1.1&#10;&#9;&#9;&#9;c0.2,0.5,0.7,0.7,1.1,0.5C134.3,135.4,134.4,135.3,134.5,135.2z" id="SyKZ7jDyS-7"/>
		<path d="M59.1,131.6c-0.8,0-1.6-0.4-1.8-1.2c-0.6-1.7,1-3,2.7-2.6C62.4,128.4,61.2,131.5,59.1,131.6z" id="Syqb7jv1HZQ"/>
		<path d="M61.9,136.2c0.8-0.6,0-1.8-0.9-1.6s-0.7,1.5,0.2,1.7C61.4,136.4,61.7,136.4,61.9,136.2z" id="HysbXsDJBWQ"/>
		<path d="M56.2,138.6c1.5-1.1-0.1-3.2-1.6-2.8s-1.2,2.7,0.3,3.1C55.3,139.1,55.8,138.9,56.2,138.6z" id="H1h-7jPkS-7"/>
		<path d="M75.8,107.5l-11-5.7c-4.3,5.1-7.3,11.5-6.8,19.1l15.8-0.8L75.8,107.5z" id="SJp-QoDJBbm"/>
		<path d="M94.4,99.3l-1.5-13.6c-1.8,0.1-3.6,0.2-5.5,0.4c-6.3,2.6-12.1,6.1-17.3,10.5l8.7,5.8L94.4,99.3z" id="SJA-QsvyrWQ"/>
		<path d="M115.2,101.6l8.3-8.4c-4.1-3-8.7-5-13.6-6.1l-8.9,7.7l0.7,0.3L115.2,101.6z" id="Syyf7jP1rbX"/>
		<polygon points="81.9,118.5 82.2,109.1 96.6,103.9 113,108.7 113.4,119.1 &#9;&#9;" id="SkxG7svkBWX"/>
		<path d="M136.2,115.1c1,0.3,1.8,1.1,2.2,2c0.7,1.5,0.8,3.2,0.1,4.7c-0.8,1.8-4.1,1.5-5.7,1.6&#10;&#9;&#9;&#9;c-3.8,0.4-7.5,0.7-11.3,0.8c-7.2,0.3-14.4,0.2-21.6,0.7c-12.6,0.8-24.9,1.7-37.6,0.2c-2.1-0.2-5.2-0.2-7.1-0.9&#10;&#9;&#9;&#9;c-1.2-0.5-2.1-1.7-2.3-3c-0.6-5.7,5.7-4.7,9.2-4.8l10-0.3l24.9-0.6l22.6-0.6c3.5-0.1,7.4-0.4,11-0.2&#10;&#9;&#9;&#9;C132.5,114.8,134.6,114.5,136.2,115.1z" id="rJWf7iDJBbm"/>
		<path d="M83.2,90.2c-0.8,10.5-1.4,23.2,3.9,32.5c2.7,4.8,11.4,4.4,15,1.1c4.5-4,5.7-10.7,6.5-16.4&#10;&#9;&#9;&#9;c0.1-0.5,0.2-1,0.2-1.5c4.3-31.4,1-17.9,1-17.9L83.2,90.2z" id="rJzGmsvJrWm"/>
		<path d="M111.1,87.7c0-0.1,0-0.2,0-0.3s0-0.3,0-0.4s0-0.1,0-0.2s0-0.3,0-0.4l0,0c0-0.8-0.1-1.1-0.2-1.1&#10;&#9;&#9;&#9;c-0.3,0-1,2.9-1,2.9l-26.7,2.1c-0.3,3.5-0.5,7.2-0.5,11c5.7,0.4,11.4,0.8,17.1,0.7c3.3-0.1,6.6-0.5,9.8-1.4&#10;&#9;&#9;&#9;c0.6-4.5,1-7.8,1.2-10.1v-0.1c0-0.3,0-0.5,0.1-0.8v-0.4c0-0.2,0-0.3,0-0.5v-0.4C111,88,111,87.9,111.1,87.7z" id="HkQMmiDJrbm"/>
		<path d="M97.5,0.3C93.2-0.1,89-0.1,84.7,0.2C75.1,1,66.2,5.3,59.7,12.4c-7.1,7.7-11.3,17.8-13.9,27.8&#10;&#9;&#9;&#9;c-2.1,8.5-3.5,17.1-4.3,25.8c-0.8,7.3-3.4,20.8,5,24.3c6.9,2.8,15.8,3.6,23.1,4.7c10.3,1.7,20.7,2.5,31.1,2.5&#10;&#9;&#9;&#9;c9-0.1,18.2-0.9,26.9-3.5c4.3-1.3,20.3-6.7,20.9-12.4c0.5-5.1,0.5-10.3,0.2-15.4c-0.7-15.1-3.7-31.1-12.1-43.9&#10;&#9;&#9;&#9;c-4.6-7.2-11.1-12.9-18.8-16.6C111.4,2.8,104.5,0.9,97.5,0.3z" id="SJEM7ow1BZ7"/>
		<path d="M137.8,55.4c-0.7-0.1-1.3-0.1-2,0c-4.7,0.6-7.3,5.9-2.5,8.7c2.2,1.3,7.5,1.1,9-1.3c1-1.9,0.7-4.1-0.8-5.7&#10;&#9;&#9;&#9;C140.4,56.2,139.2,55.6,137.8,55.4z" id="S1rzXowkHWX"/>
		<path d="M51.7,66.9c-1.8-0.2-3.7-0.9-4.6-2.5c-2.2-4,1.3-6.3,5-6.3c1.9-0.1,3.7,0.5,5.2,1.6c1.7,1.4,1.9,4,0.5,5.6&#10;&#9;&#9;&#9;c0,0-0.1,0.1-0.1,0.1C56.3,66.9,53.7,67.1,51.7,66.9z" id="S1IMQoDkBWm"/>
		<g id="r1DM7jPJSb7">
			<path d="M60.6,43.3c-8.4-17-35.4-6.1-39.1,10.3c-3.2,14.2-2.5,29.1-3.5,43.7c-0.7,8.9-1.3,18.8-0.7,27.4&#10;&#9;&#9;&#9;&#9;c-1.6-2.8-7.3-8.2-10.4-4.2c-2.9,4,3.7,10,5.6,13c-3.3-1.8-16.2-4.9-11.2,2.8c2.8,4.7,16,4.1,21,3.7c4.7-0.2,13.9-3.4,14.6-9.1&#10;&#9;&#9;&#9;&#9;c0.7-5.5-6.4-2.3-9.6-1.2c0.7-2.8,5.4-5.4,3.3-8.7s-7-0.8-8.7,1.2c-1-7.4,0.2-16.5,0.2-24.1c0-7.1,0.8-14.1,1.3-21.2&#10;&#9;&#9;&#9;&#9;c0.9-12.3,0.1-22,8.2-32.7c4-4.9,11.3-7,17.5-5.5c3.3,0.8,5.9,4.3,7.6,7.4C56.9,44.3,58.7,43.4,60.6,43.3z" id="r1_GmsP1Bbm"/>
			<path d="M132,42.8c8.8-16.8,35.6-5.2,38.8,11.3c2.8,14.3,1.7,29.1,2.4,43.8c0.4,8.9,0.8,18.8,0.1,27.4&#10;&#9;&#9;&#9;&#9;c1.7-2.7,7.5-8,10.5-3.9c2.8,4-4,9.9-5.9,12.9c3.3-1.7,16.3-4.5,11.1,3.1c-2.9,4.6-16.1,3.7-21.1,3.1c-4.7-0.3-13.8-3.8-14.4-9.5&#10;&#9;&#9;&#9;&#9;c-0.5-5.5,6.4-2.1,9.6-1c-0.7-2.8-5.2-5.5-3-8.8s7-0.6,8.7,1.4c1.2-7.4,0.2-16.5,0.4-24.1c0.2-7.1-0.4-14.1-0.8-21.2&#10;&#9;&#9;&#9;&#9;c-0.6-12.3,0.5-22-7.4-32.9c-3.9-5-11.1-7.3-17.3-6c-3.4,0.7-6.2,4.1-7.9,7.2C135.5,43.8,133.9,42.9,132,42.8z" id="r1KzQoDyBZX"/>
		</g>
		<g id="ry5z7oP1SW7">
			<path d="M60.6,43.3c-8.4-17.5-34.9-16.6-39.1,7.6c-3.2,14.6-2.5,30-3.5,45.1c-0.7,9.2-1.3,19.4-0.7,28.2&#10;&#9;&#9;&#9;&#9;c-1.6-2.8-6.1-6.8-9.3-2.8c-2.9,4.1,2.6,8.7,4.5,11.8c-3.3-1.9-12.5-5.8-10.1,2.4c2.8,4.8,14.9,4.7,19.9,4.3&#10;&#9;&#9;&#9;&#9;c4.7-0.2,14.3-0.8,15-6.7c0.7-5.6-6.8-5.1-10-4c2.5-1.5,5.8-8.9,3.2-12.6c-2.3-3.3-6.9,2.8-8.7,4.9c-1-7.7,0.2-17,0.2-24.9&#10;&#9;&#9;&#9;&#9;c0-7.3,0.8-14.6,1.3-21.8c0.9-12.6,0.1-22.7,8.2-33.7c4-5.1,10.6-6,16.8-4.4c3.3,0.8,5.6,4.5,7.2,7.7&#10;&#9;&#9;&#9;&#9;C55.8,42.5,58.7,43.4,60.6,43.3z" id="HJofmsw1BbX"/>
			<path d="M132,42.8c8.8-24,36-10,38.8,8.6c2.8,14.7,1.7,30,2.4,45.1c0.4,9.2,0.8,19.4,0.1,28.2&#10;&#9;&#9;&#9;&#9;c1.7-2.8,6.7-5.5,9.8-1.3c2.8,4.1-3.3,7.4-5.2,10.5c3.3-1.8,14.4-6.5,9.3,1.4c-2.9,4.7-14.2,5.7-19.2,5.1&#10;&#9;&#9;&#9;&#9;c-4.7-0.3-13.7-1.2-14.2-7.1c-0.5-5.6,6.3-4.9,9.5-3.7c-2.1-2.6-6.3-4.8-4-8.2s8-1.5,9.8,0.6c1.2-7.6,0.2-17,0.4-24.9&#10;&#9;&#9;&#9;&#9;c0.2-7.3-0.4-14.6-0.8-21.8c-0.6-12.7,0.5-22.7-7.4-33.9c-3.9-5.2-11.1-7.5-17.3-6.2c-3.4,0.8-6.3,4.7-8,7.9&#10;&#9;&#9;&#9;&#9;C135.4,41.2,133.9,42.9,132,42.8z" id="H1hGmsDkSbQ"/>
		</g>
		<path d="M48.3,53.3c-0.8-0.1-1.4-0.8-1.4-1.6c0-0.1,0-0.3,0.1-0.4c0.1-0.3,3.5-8.4,11.2-8.4c6.3,0,9.3,5.6,10,8.6&#10;&#9;&#9;&#9;c0.2,0.8-0.3,1.6-1.1,1.8s-1.6-0.3-1.8-1.1c-0.1-0.2-1.6-6.2-7.1-6.2c-5.7,0-8.4,6.5-8.4,6.5C49.5,53,48.9,53.4,48.3,53.3z" id="ByTGmjPJSbm"/>
		<path d="M124.6,53.2h-0.1c-0.8-0.1-1.4-0.9-1.3-1.7c0,0,0,0,0,0c0.5-3,3-8.8,9.3-9.3c7.7-0.6,11.6,7.2,11.8,7.5&#10;&#9;&#9;&#9;c0.4,0.7,0.2,1.6-0.6,2c-0.7,0.4-1.6,0.2-2-0.6c0,0,0-0.1-0.1-0.1c0-0.1-3.3-6.3-8.9-5.8s-6.6,6.7-6.6,6.8&#10;&#9;&#9;&#9;C126.1,52.7,125.4,53.2,124.6,53.2z" id="HJCzXiPkBWX"/>
		<g id="rykX7sDkSZQ_Hk1HYJSZ7" data-animator-group="true" data-animator-type="2"><path d="M121.2,80.5c-16.7-7.7-33.2-7.1-49.3,1.7c-5,2.7-9-6.6-4.8-11.2c6-6.8,15.1-12.5,28.7-13s23,4.6,29.5,10.9&#10;&#9;&#9;&#9;C129.7,73.4,126.3,82.9,121.2,80.5z" id="rykX7sDkSZQ"/></g>
		<path d="M136.3,61.1c0.1-0.1,0.1-0.2,0.2-0.3c0.2-1.2,0.2-2.4-0.1-3.6c-0.1-0.2-0.2-0.5-0.5-0.5s-0.3,0.3-0.4,0.5&#10;&#9;&#9;&#9;c-0.3,0.9-0.4,1.9-0.4,2.8C135.3,60.9,135.9,61.6,136.3,61.1z" id="ByeXQiPyBWQ"/>
		<path d="M139.1,60.2c0.1-0.1,0.1-0.1,0.1-0.2c0.2-0.9,0.1-1.8-0.1-2.7c-0.1-0.2-0.2-0.4-0.4-0.4s-0.3,0.2-0.3,0.4&#10;&#9;&#9;&#9;c-0.2,0.7-0.3,1.4-0.3,2.1C138.3,60,138.8,60.5,139.1,60.2z" id="r1W7mowJHbQ"/>
		<path d="M51,63.5c0.2-1.2,0.1-2.5-0.3-3.7c-0.1-0.2-0.2-0.5-0.5-0.5s-0.4,0.3-0.4,0.6c-0.1,1.1,0,2.3,0.2,3.4&#10;&#9;&#9;&#9;c0.1,0.3,0.3,0.7,0.6,0.6S51,63.7,51,63.5z" id="S1M7XjPyBWQ"/>
		<path d="M54.1,62.9c0.2-1,0.1-2.1-0.3-3c-0.1-0.2-0.2-0.4-0.4-0.4S53,59.8,53,60c-0.1,0.9,0,1.8,0.2,2.7&#10;&#9;&#9;&#9;c0.1,0.2,0.3,0.5,0.6,0.5C53.9,63.2,54.1,63.1,54.1,62.9z" id="rkXmQjPyr-7"/>
	</g>
</g>
<script>(function(){var a=document.querySelector('#B1_emowJrb7'),b=a.querySelectorAll('style'),c=function(d){b.forEach(function(f){var g=f.textContent;g&amp;&amp;(f.textContent=g.replace(/transform-box:[^;\r\n]*/gi,'transform-box: '+d))})};c('initial'),window.requestAnimationFrame(function(){return c('fill-box')})})();</script></svg>