<svg version="1.1" id="HyFbPbxB-7" xmlns="http://www.w3.org/2000/svg" xmlns:xlink="http://www.w3.org/1999/xlink" x="0px" y="0px" viewBox="-40 0 190 210" style="enable-background:new 0 0 115.1 210.8;" xml:space="preserve"><style>@-webkit-keyframes HyNfWwbgHZm_B13uzeSWm_Animation{16.67%{-webkit-transform: scale(1, 1);transform: scale(1, 1);}33.33%{-webkit-transform: scale(1.2, 1.2);transform: scale(1.2, 1.2);}66.67%{-webkit-transform: scale(1.2, 1.2);transform: scale(1.2, 1.2);}83.33%{-webkit-transform: scale(1, 1);transform: scale(1, 1);}0%{-webkit-transform: scale(1, 1);transform: scale(1, 1);}100%{-webkit-transform: scale(1, 1);transform: scale(1, 1);}}@keyframes HyNfWwbgHZm_B13uzeSWm_Animation{16.67%{-webkit-transform: scale(1, 1);transform: scale(1, 1);}33.33%{-webkit-transform: scale(1.2, 1.2);transform: scale(1.2, 1.2);}66.67%{-webkit-transform: scale(1.2, 1.2);transform: scale(1.2, 1.2);}83.33%{-webkit-transform: scale(1, 1);transform: scale(1, 1);}0%{-webkit-transform: scale(1, 1);transform: scale(1, 1);}100%{-webkit-transform: scale(1, 1);transform: scale(1, 1);}}@-webkit-keyframes S1f-WwWxBZm_SyHiWlrZX_Animation{16.67%{-webkit-transform: rotate(0deg);transform: rotate(0deg);}33.33%{-webkit-transform: rotate(-5deg);transform: rotate(-5deg);}66.67%{-webkit-transform: rotate(-5deg);transform: rotate(-5deg);}83.33%{-webkit-transform: rotate(0deg);transform: rotate(0deg);}0%{-webkit-transform: rotate(0deg);transform: rotate(0deg);}100%{-webkit-transform: rotate(0deg);transform: rotate(0deg);}}@keyframes S1f-WwWxBZm_SyHiWlrZX_Animation{16.67%{-webkit-transform: rotate(0deg);transform: rotate(0deg);}33.33%{-webkit-transform: rotate(-5deg);transform: rotate(-5deg);}66.67%{-webkit-transform: rotate(-5deg);transform: rotate(-5deg);}83.33%{-webkit-transform: rotate(0deg);transform: rotate(0deg);}0%{-webkit-transform: rotate(0deg);transform: rotate(0deg);}100%{-webkit-transform: rotate(0deg);transform: rotate(0deg);}}@-webkit-keyframes ryqbZwWeHb7_r1sP-lH-X_Animation{0%{-webkit-transform: rotate(0deg);transform: rotate(0deg);}16.67%{-webkit-transform: rotate(-3deg);transform: rotate(-3deg);}83.33%{-webkit-transform: rotate(-3deg);transform: rotate(-3deg);}100%{-webkit-transform: rotate(0deg);transform: rotate(0deg);}}@keyframes ryqbZwWeHb7_r1sP-lH-X_Animation{0%{-webkit-transform: rotate(0deg);transform: rotate(0deg);}16.67%{-webkit-transform: rotate(-3deg);transform: rotate(-3deg);}83.33%{-webkit-transform: rotate(-3deg);transform: rotate(-3deg);}100%{-webkit-transform: rotate(0deg);transform: rotate(0deg);}}@-webkit-keyframes rJtG-DblrZ7_Animation{50%{opacity: 0;}53.33%{opacity: 1;}56.67%{opacity: 0;}0%{opacity: 0;}100%{opacity: 0;}}@keyframes rJtG-DblrZ7_Animation{50%{opacity: 0;}53.33%{opacity: 1;}56.67%{opacity: 0;}0%{opacity: 0;}100%{opacity: 0;}}@-webkit-keyframes rJRbZwbgr-Q_Animation{50%{opacity: 1;}53.33%{opacity: 0;}56.67%{opacity: 1;}0%{opacity: 1;}100%{opacity: 1;}}@keyframes rJRbZwbgr-Q_Animation{50%{opacity: 1;}53.33%{opacity: 0;}56.67%{opacity: 1;}0%{opacity: 1;}100%{opacity: 1;}}#HyFbPbxB-7 *{-webkit-animation-duration: 3s;animation-duration: 3s;-webkit-animation-timing-function: cubic-bezier(0, 0, 1, 1);animation-timing-function: cubic-bezier(0, 0, 1, 1);}#Bysbv-erZQ{fill: #004013;}#r12WPblB-X{fill: #C2D69F;}#HkaZwbgHb7{fill: #A2C53A;}#ry0-PZgrWm{fill: #FFFFFF;}#rk1lbwbxHWm{fill: #FFFFFF;}#SyelWvbxSW7{fill: #F1E008;}#r1Zg-wZxr-Q{fill: #F1E008;}#S1Mx-v-gBWm{fill: #F1E008;}#HkmxbwWeHZm{fill: #FFFFFF;}#ryEgWDbxrbX{fill: #A2C53A;}#r1re-DZgrWQ{fill: #FFFFFF;}#SJUeZPWgB-Q{fill: #FFFFFF;}#SJwg-wZxB-m{fill: #F1E008;}#SJdxWDWeS-m{fill: #F1E008;}#rJtxWv-xS-m{fill: #F1E008;}#ryql-PbeHb7{fill: #FFFFFF;}#ByseWDZgHWm{fill: #A2C53A;}#BJhe-PbeHZX{fill: #A2C53A;}#HJaxbvbeBb7{fill: #FFFFFF;}#rJ0lZDWxrb7{fill: #FFFFFF;}#B1y-bD-xS-X{fill: #F1E008;}#Bkg--w-lrZQ{fill: #F1E008;}#Bk-W-DbxS-m{fill: #F1E008;}#H1QbWP-lBb7{fill: #A2C53A;}#B1Nb-DZxBbm{fill: #A2C53A;}#rJHZZD-xrZQ{fill: #FFFFFF;}#SJUbbPZxHbQ{fill: #FFFFFF;}#Byv-WDbgrZX{fill: #F1E008;}#B1OZbDWxB-m{fill: #F1E008;}#SyFZbP-grZm{fill: #F1E008;}#BJsZZDZlrZ7{fill: #A2C53A;}#rJ3--D-xSbX{fill: #90AD3D;}#rkpZWDWxr-X{fill: #A2C53A;}#Bk1fZwZlH-Q{fill: #1D1E1D;}#HkgG-w-lHWQ{fill: #1D1E1D;}#rk-f-wWlS-Q{fill: #7EBA42;}#HJzM-vblSWX{fill: #7EBA42;}#HyNfWwbgHZm{fill: #749128;}#HkSMbvWxr-Q{fill: #A2C53A;}#r1LzWv-xrZm{fill: #A2C53A;}#ryvfbwbeB-m{fill: #A2C53A;}#SyOzbw-lrbQ{fill: #A2C53A;}#SJjGWv-gH-m{fill: none;}#r13M-D-grWX{fill: #1D1E1D;}#ryAG-D-gHbm{fill: none;}#HJyXWDWgH-X{fill: #1D1E1D;}#SkZ7bw-xHZ7{-webkit-clip-path: url(#SVGID_2_);clip-path: url(#SVGID_2_);}#S1MQZvbxHWm{fill: #72A537;}#B1XmWwZgSZ7{fill: #7EBA42;}#ry4XbPbxSbX{fill: #749128;}#SJBm-vZeHZQ{fill: #749128;}#r1LXWvbgrZX{fill: #749128;}#rJRbZwbgr-Q{-webkit-animation-name: rJRbZwbgr-Q_Animation;animation-name: rJRbZwbgr-Q_Animation;-webkit-transform-origin: 50% 50%;transform-origin: 50% 50%;transform-box: fill-box;opacity: 1;}#rJtG-DblrZ7{-webkit-animation-name: rJtG-DblrZ7_Animation;animation-name: rJtG-DblrZ7_Animation;-webkit-transform-origin: 50% 50%;transform-origin: 50% 50%;transform-box: fill-box;opacity: 0;}#ryqbZwWeHb7_r1sP-lH-X{-webkit-animation-name: ryqbZwWeHb7_r1sP-lH-X_Animation;animation-name: ryqbZwWeHb7_r1sP-lH-X_Animation;-webkit-transform-origin: 50% 100%;transform-origin: 50% 100%;transform-box: fill-box;-webkit-transform: rotate(0deg);transform: rotate(0deg);}#S1f-WwWxBZm_SyHiWlrZX{-webkit-animation-name: S1f-WwWxBZm_SyHiWlrZX_Animation;animation-name: S1f-WwWxBZm_SyHiWlrZX_Animation;-webkit-transform-origin: 0% 100%;transform-origin: 0% 100%;transform-box: fill-box;-webkit-transform: rotate(0deg);transform: rotate(0deg);}#HyNfWwbgHZm_B13uzeSWm{-webkit-animation-name: HyNfWwbgHZm_B13uzeSWm_Animation;animation-name: HyNfWwbgHZm_B13uzeSWm_Animation;-webkit-transform-origin: 50% 50%;transform-origin: 50% 50%;transform-box: fill-box;-webkit-transform: scale(1, 1);transform: scale(1, 1);}</style>

<title>Asset 38</title>
<g id="B19WvWlHWQ">
	<path d="M48.2,191.3c-2.8-1.5-21.2-11.6-25.1-30c-0.9-4.1-2.1-8-2.6-12.1c-1.2-11.9-0.8-24.9,6.5-34.3&#10;&#9;&#9;c5.1-6.5,12.9-10.3,20.6-13.2c3.6-1.5,7.3-2.4,11.2-2.6c4.2-0.1,8.3,1.2,12.2,2.5c7.1,2.3,14.3,4.6,20.7,8.5s12,9.4,14.6,16.4&#10;&#9;&#9;c2.1,5.9,1.9,12.3,1,18.5c-1.7,11.6-5.7,23.1-13,32.4c-5.4,7-12.7,12.2-21,15.1C66.4,194.9,54.7,194.9,48.2,191.3z" id="Bysbv-erZQ"/>
	<path d="M86.4,210.4L86.4,210.4z" id="r12WPblB-X"/>
	<path d="M64,181.6c0.7,0,2.7,5,2.9,5.5c1.9,4.1,3,8.6,3.3,13.2c0.1,2-0.2,4.1-0.3,6.1c-0.1,1.1-0.1,2.1,0.1,3.2&#10;&#9;&#9;c0.3,1,0.6,0.8,1.6,0.9c4.5,0.3,9.1,0.1,13.6-0.1l2-0.1c1.2,0,2.2,0,3.4-0.1s2.4-0.2,3.6-0.3c0.8,0,1.6-0.1,2.4-0.4&#10;&#9;&#9;c0.8-0.4,0.9-1.2,1-2.1c0.1-1.2,0.1-2.4-0.1-3.6c-0.3-2.6-0.8-5.2-1.6-7.8c-0.9-3-2.3-5.9-4-8.5c-1-1.5-2.1-2.8-3.4-4.1&#10;&#9;&#9;c-0.6-0.6-1.3-1.2-2-1.8c-0.4-0.3-1.8-1.7-2.3-1.7L64,181.6z" id="HkaZwbgHb7"/>
	<path d="M83.6,202.7c-1.8-0.9-4.4-0.7-5.6,1.1c-0.6,1-0.8,2.2-0.8,3.4c0,0.3-0.1,3,0,3.4c2.7,0,5.3-0.1,8-0.2h1.3&#10;&#9;&#9;C85.9,207.8,86.4,204.1,83.6,202.7z" id="ry0-PZgrWm"/>
	<path d="M97.6,205.4c0-0.5,0-1-0.1-1.5c-1.3-2.6-3.5-4.3-7.1-3.3c-1.8,0.5-3.2,1.9-3.5,3.8c-0.3,2-0.4,4-0.3,6.1h0.7&#10;&#9;&#9;h0.2h0.5l2.7-0.1c1.2-0.1,2.4-0.2,3.6-0.3c0.8,0,1.6-0.1,2.4-0.4c0.3-0.1,0.6-0.4,0.7-0.7c0.1-0.5,0.2-1,0.3-1.5c0-0.1,0-0.3,0-0.5&#10;&#9;&#9;C97.6,206.4,97.6,205.9,97.6,205.4z" id="rk1lbwbxHWm"/>
	<path d="M89.5,190c1.8-2.3-1.4-4.5-3.5-3.5c-1.4,0.7-2.4,2.9-0.6,3.7c0.7,0.3,1.4,0.5,2.1,0.6&#10;&#9;&#9;C88.2,190.9,89,190.6,89.5,190z" id="SyelWvbxSW7"/>
	<path d="M85,194.5c0.8-1.3-1.8-2.5-2.6-1.4s0.4,1.7,1.3,1.9C84.1,195,84.7,194.9,85,194.5z" id="r1Zg-wZxr-Q"/>
	<path d="M92.1,196.1c0.4-0.4,0.5-1.1-0.2-1.4s-1.8,0.4-1.3,1.2c0.2,0.4,0.7,0.6,1.2,0.4&#10;&#9;&#9;C91.9,196.2,92,196.2,92.1,196.1z" id="S1Mx-v-gBWm"/>
	<path d="M77.2,210.5c-0.1-0.1-0.1-0.2-0.1-0.3c-0.2-2.4-0.2-6.5-3.1-7.5c-1.1-0.4-2.3-0.2-3.2,0.5&#10;&#9;&#9;c-0.4,0.5-0.7,1.1-0.8,1.7c0,0.5-0.1,1-0.1,1.5c-0.1,1.1-0.1,2.1,0.1,3.2c0.3,1,0.6,0.8,1.6,0.9s1.9,0.1,2.9,0.1&#10;&#9;&#9;S76.3,210.5,77.2,210.5z" id="HkmxbwWeHZm"/>
	<path d="M58.9,181.7c-0.7-0.1-2.7,5-2.9,5.5c-1.9,4.1-3,8.6-3.3,13.2c-0.1,2.1,0.2,4.1,0.3,6.1&#10;&#9;&#9;c0.1,1.1,0.1,2.1-0.1,3.2c-0.3,1-0.6,0.8-1.6,0.9c-4.5,0.3-9.1,0.1-13.6-0.1l-1.9-0.1c-1.2,0-2.3,0-3.4-0.1l-3.6-0.3&#10;&#9;&#9;c-0.8,0-1.6-0.1-2.4-0.4c-0.8-0.4-0.9-1.2-1-2c-0.1-1.2,0-2.4,0.1-3.6c0.3-2.6,0.8-5.2,1.6-7.8c0.9-3,2.3-5.9,4-8.5&#10;&#9;&#9;c1-1.5,2.1-2.8,3.4-4.1c0.7-0.6,1.3-1.3,2-1.8c0.4-0.3,1.8-1.7,2.3-1.7L58.9,181.7z" id="ryEgWDbxrbX"/>
	<path d="M39.4,202.9c1.8-0.9,4.4-0.7,5.6,1.1c0.6,1,0.8,2.2,0.8,3.4c0,0.3,0.1,3,0,3.4c-2.7,0-5.3-0.1-8-0.2l-1.3-0.1&#10;&#9;&#9;C37.1,207.9,36.5,204.3,39.4,202.9z" id="r1re-DZgrWQ"/>
	<path d="M25.4,205.5c0-0.5,0.1-0.9,0.1-1.5c1.3-2.6,3.5-4.3,7.1-3.3c1.8,0.5,3.2,1.9,3.5,3.8c0.3,2,0.4,4,0.3,6.1h-0.6&#10;&#9;&#9;h-0.7l-2.7-0.1c-1.2-0.1-2.4-0.2-3.6-0.3c-0.8,0-1.6-0.1-2.4-0.4c-0.3-0.1-0.6-0.4-0.7-0.7c-0.1-0.5-0.2-1-0.3-1.5&#10;&#9;&#9;c0-0.1,0-0.3,0-0.5C25.4,206.5,25.4,206,25.4,205.5z" id="SJUeZPWgB-Q"/>
	<path d="M33.5,190.1c-1.8-2.3,1.5-4.5,3.5-3.4c1.4,0.7,2.5,2.9,0.6,3.7c-0.7,0.3-1.4,0.5-2.1,0.6&#10;&#9;&#9;C34.7,191,34,190.7,33.5,190.1z" id="SJwg-wZxB-m"/>
	<path d="M38,194.6c-0.8-1.3,1.8-2.5,2.6-1.4s-0.4,1.7-1.3,1.8C38.9,195.2,38.3,195,38,194.6z" id="SJdxWDWeS-m"/>
	<path d="M30.9,196.2c-0.4-0.3-0.4-0.8-0.2-1.2c0.1-0.1,0.2-0.2,0.3-0.3c0.8-0.3,1.8,0.4,1.3,1.2&#10;&#9;&#9;c-0.2,0.4-0.7,0.6-1.2,0.4C31.1,196.4,31,196.3,30.9,196.2z" id="rJtxWv-xS-m"/>
	<path d="M45.8,210.8c0.1-0.1,0.1-0.2,0.1-0.3c0.2-2.4,0.2-6.5,3.1-7.5c1.1-0.4,2.3-0.2,3.2,0.5&#10;&#9;&#9;c0.4,0.5,0.7,1.1,0.8,1.7c0,0.5,0.1,1,0.1,1.5c0.1,1.1,0.1,2.1-0.1,3.2c-0.3,1-0.6,0.8-1.6,0.9s-1.9,0.1-2.9,0.1&#10;&#9;&#9;S46.7,210.8,45.8,210.8z" id="ryql-PbeHb7"/>
	<path d="M24.7,147.6c0-3,0.6-5.9,1.7-8.7c1.6-4.6,5.6-8.8,9.4-11.7c-2.2-1.2-4.8-3.4-7.4-3.4c-2-0.1-3.9,0-5.9,0.2&#10;&#9;&#9;c-10.8,1-18,8.2-21.5,18.1c-0.5,1.5-0.8,3.1-1,4.7c-0.5,3.6,4.3,3.3,6.5,3.6c1.8,0.3,3.6,0.6,5.5,0.8c2.6,0.3,5.2,0.5,7.8,0.6&#10;&#9;&#9;c1,0,2.8,0.3,3.7-0.2C24.9,150.8,24.7,148.8,24.7,147.6z" id="ByseWDZgHWm"/>
	<path d="M24.7,147.6c0-3,0.6-5.9,1.7-8.7c1.6-4.6,5.6-8.8,9.4-11.7c-2.2-1.2-4.8-3.4-7.4-3.4c-2-0.1-3.9,0-5.9,0.2&#10;&#9;&#9;c-10.8,1-18,8.2-21.5,18.1c-0.5,1.5-0.8,3.1-1,4.7c-0.5,3.6,4.3,3.3,6.5,3.6c1.8,0.3,3.6,0.6,5.5,0.8c2.6,0.3,5.2,0.5,7.8,0.6&#10;&#9;&#9;c1,0,2.8,0.3,3.7-0.2C24.9,150.8,24.7,148.8,24.7,147.6z" id="BJhe-PbeHZX"/>
	<path d="M0,146.8c-0.5,3.6,4.3,3.3,6.5,3.6l1.6,0.2c0.3-1.3,0.4-2.6,0.4-3.9C8.5,145.4,7.9,144,7,143&#10;&#9;&#9;c-1-1-2.4-1.5-3.8-1.1c-0.9,0.3-1.6,1-2.1,1.8c-0.3,0.5-0.6,1.1-0.9,1.6C0.2,145.8,0.1,146.3,0,146.8z" id="HJaxbvbeBb7"/>
	<path d="M17.1,151.6c0.2-1,0.3-2.1,0.3-3.1c0.1-1.4-0.5-2.8-1.6-3.8c-1.8-1.4-4.4-0.7-5.6,1.1c-0.9,1.5-1.6,3.1-2,4.8&#10;&#9;&#9;c1.3,0.2,2.6,0.4,3.9,0.5C13.7,151.4,15.4,151.5,17.1,151.6z" id="rJ0lZDWxrb7"/>
	<path d="M12.1,133.2c-0.8-0.2-1.4-0.8-1.5-1.6c-0.1-1.8,1.7-2.6,3.2-1.8C16,131,14.1,133.6,12.1,133.2z" id="B1y-bD-xS-X"/>
	<path d="M13.6,138.3c0.9-0.4,0.4-1.8-0.5-1.8s-1.1,1.3-0.3,1.7C13,138.4,13.3,138.4,13.6,138.3z" id="Bkg--w-lrZQ"/>
	<path d="M7.3,139.2c1.7-0.7,0.8-3.1-0.8-3.1s-1.8,2.3-0.5,3C6.4,139.3,6.9,139.4,7.3,139.2z" id="Bk-W-DbxS-m"/>
	<g id="S1f-WwWxBZm_SyHiWlrZX" data-animator-group="true" data-animator-type="1"><g id="S1f-WwWxBZm">
		<path d="M91.2,99c1.3,2.7,2.1,5.6,2.4,8.6c0.7,4.9-1,10.4-3.2,14.7c2.6,0.1,5.8,0.9,8.2-0.2c1.8-0.8,3.5-1.8,5.2-2.8&#10;&#9;&#9;&#9;c9.2-5.7,12.5-15.4,11.2-25.8c-0.3-1.6-0.7-3.2-1.3-4.7c-1.2-3.5-5.3-1-7.5-0.3c-1.7,0.6-3.5,1.1-5.2,1.8c-2.5,0.9-4.9,1.8-7.3,3&#10;&#9;&#9;&#9;c-0.9,0.4-2.7,1-3.2,1.8C89.6,96.2,90.6,97.9,91.2,99z" id="H1QbWP-lBb7"/>
		<path d="M91.2,99c1.3,2.7,2.1,5.6,2.4,8.6c0.7,4.9-1,10.4-3.2,14.7c2.6,0.1,5.8,0.9,8.2-0.2c1.8-0.8,3.5-1.8,5.2-2.8&#10;&#9;&#9;&#9;c9.2-5.7,12.5-15.4,11.2-25.8c-0.3-1.6-0.7-3.2-1.3-4.7c-1.2-3.5-5.3-1-7.5-0.3c-1.7,0.6-3.5,1.1-5.2,1.8c-2.5,0.9-4.9,1.8-7.3,3&#10;&#9;&#9;&#9;c-0.9,0.4-2.7,1-3.2,1.8C89.6,96.2,90.6,97.9,91.2,99z" id="B1Nb-DZxBbm"/>
		<path d="M113.6,88.7c-1.2-3.5-5.3-1-7.5-0.3l-1.5,0.5c0.3,1.3,0.8,2.5,1.4,3.6c0.7,1.2,1.8,2.2,3.1,2.7&#10;&#9;&#9;&#9;c1.3,0.5,2.8,0.2,3.9-0.7c0.6-0.7,1-1.6,1.1-2.5c0.1-0.6,0.1-1.2,0.1-1.8C113.9,89.7,113.7,89.2,113.6,88.7z" id="rJHZZD-xrZQ"/>
		<path d="M96.2,92c0.3,1,0.7,2,1.2,2.9c0.6,1.3,1.7,2.3,3.1,2.7c2.2,0.5,4.2-1.4,4.6-3.5c0.2-1.8,0.1-3.5-0.3-5.2&#10;&#9;&#9;&#9;c-1.2,0.4-2.5,0.8-3.7,1.2C99.3,90.7,97.7,91.3,96.2,92z" id="SJUbbPZxHbQ"/>
		<path d="M108.9,106.2c0.8-0.2,1.6,0.1,2,0.8c0.9,1.6-0.4,3.1-2.1,3C106.3,110,106.9,106.8,108.9,106.2z" id="Byv-WDbgrZX"/>
		<path d="M105.2,102.3c-0.7,0.8,0.4,1.8,1.2,1.4s0.4-1.6-0.5-1.7C105.7,102,105.4,102.1,105.2,102.3z" id="B1OZbDWxB-m"/>
		<path d="M110.4,98.8c-1.2,1.3,0.7,3.1,2.1,2.4s0.7-2.8-0.9-3C111.2,98.1,110.7,98.4,110.4,98.8z" id="SyFZbP-grZm"/>
	</g></g>
	<g id="ryqbZwWeHb7_r1sP-lH-X" data-animator-group="true" data-animator-type="1"><g id="ryqbZwWeHb7">
		<path d="M48.9,90.8c0,10.5,0.4,23.3,6.4,32.2c3.1,4.6,11.7,3.5,15.1,0c4.1-4.3,4.8-11.1,5.3-16.8c0-0.5,0.1-1,0.1-1.5&#10;&#9;&#9;&#9;c1.9-31.6-0.3-17.9-0.3-17.9L48.9,90.8z" id="BJsZZDZlrZ7"/>
		<path d="M76.5,86.2c0-0.1,0-0.2,0-0.3s0-0.3,0-0.4c0-0.1,0-0.1,0-0.2c0-0.2,0-0.3,0-0.4l0,0c0-0.8-0.1-1.1-0.2-1.1&#10;&#9;&#9;&#9;c-0.3,0-0.8,3-0.8,3l-26.6,4.1c0,3.5,0,7.2,0.3,11c5.7,0,11.5-0.1,17.1-0.6c3.3-0.3,6.6-1,9.7-2.1c0.3-4.5,0.4-7.8,0.4-10.2v-0.1&#10;&#9;&#9;&#9;c0-0.3,0-0.5,0-0.8v-0.4c0-0.2,0-0.4,0-0.5L76.5,86.2L76.5,86.2z" id="rJ3--D-xSbX"/>
		<path d="M56.4,0c-4.3-0.1-8.5,0.2-12.7,0.9c-9.5,1.5-18.1,6.5-24.1,14.1C13,23.2,9.7,33.5,7.8,43.7&#10;&#9;&#9;&#9;c-1.4,8.6-2.2,17.3-2.3,26c-0.2,7.4-1.8,21,6.8,23.8c7.1,2.3,16,2.4,23.4,3c10.4,0.9,20.8,1,31.2,0.2c9-0.8,18.1-2.3,26.5-5.5&#10;&#9;&#9;&#9;c4.2-1.6,19.8-8.2,19.9-13.9c0.1-5.2-0.2-10.3-0.9-15.4c-1.8-15-6-30.7-15.4-42.9C91.9,12.2,85,6.9,77,3.9&#10;&#9;&#9;&#9;C70.4,1.4,63.4,0.1,56.4,0z" id="rkpZWDWxr-X"/>
		<g id="rJRbZwbgr-Q">
			<path d="M25.3,53.2c0.2,1.4-0.3,2.9-1.4,3.9c-4,3.7-7.4-1.1-7.3-5.3c0.1-2.5,2-7,5.1-4.4&#10;&#9;&#9;&#9;&#9;C23.5,48.8,24.8,50.9,25.3,53.2z" id="Bk1fZwZlH-Q"/>
			<path d="M91.8,46.8c0.3,2.7-0.5,5.5-2.8,5.8c-1.5,0.2-2.8-0.8-3.9-1.7c-3.4-2.8-1.9-11.2,3.6-9.5&#10;&#9;&#9;&#9;&#9;C90.4,41.9,91.5,44.3,91.8,46.8z" id="HkgG-w-lHWQ"/>
		</g>
		<path d="M100.7,51.9c-0.7,0-1.3,0-2,0.2c-4.7,1-6.8,6.4-1.8,8.9c2.3,1.2,7.6,0.5,8.8-2c0.8-1.9,0.3-4.2-1.2-5.6&#10;&#9;&#9;&#9;C103.4,52.5,102.1,52,100.7,51.9z" id="rk-f-wWlS-Q"/>
		<path d="M15.7,69.8c-1.8,0-3.8-0.6-4.8-2.1c-2.5-3.8,0.8-6.4,4.6-6.7c1.9-0.2,3.7,0.2,5.3,1.2&#10;&#9;&#9;&#9;c1.8,1.3,2.2,3.8,0.9,5.6c0,0-0.1,0.1-0.1,0.1C20.3,69.5,17.7,69.9,15.7,69.8z" id="HJzM-vblSWX"/>
		<g id="SkQM-D-xr-X">
			<g id="HyNfWwbgHZm_B13uzeSWm" data-animator-group="true" data-animator-type="2"><path id="HyNfWwbgHZm" d="M70.1,76.1c0,6.5-4.8,11.8-10.8,11.8s-10.8-5.3-10.8-11.8s4.8-11.8,10.8-11.8&#10;&#9;&#9;&#9;&#9;S70.1,69.5,70.1,76.1z"/></g>
		</g>
		<path d="M99.7,57.7c0.1-0.1,0.1-0.2,0.1-0.3c0.1-1.2,0-2.4-0.4-3.6c-0.1-0.2-0.3-0.5-0.5-0.5s-0.3,0.3-0.3,0.5&#10;&#9;&#9;&#9;c-0.2,0.9-0.2,1.9-0.1,2.9C98.7,57.6,99.3,58.2,99.7,57.7z" id="HkSMbvWxr-Q"/>
		<path d="M102.4,56.6c0.1-0.1,0.1-0.1,0.1-0.2c0.1-0.9,0-1.8-0.3-2.7c-0.1-0.2-0.2-0.4-0.4-0.3s-0.2,0.2-0.3,0.4&#10;&#9;&#9;&#9;c-0.2,0.7-0.2,1.4-0.1,2.1C101.6,56.5,102.1,57,102.4,56.6z" id="r1LzWv-xrZm"/>
		<path d="M14.8,66.6c0.2-1.3,0-2.5-0.6-3.7c-0.1-0.2-0.2-0.5-0.5-0.4s-0.3,0.4-0.3,0.7c0,1.2,0.1,2.3,0.4,3.4&#10;&#9;&#9;&#9;c0.1,0.3,0.3,0.6,0.6,0.6S14.7,66.8,14.8,66.6z" id="ryvfbwbeB-m"/>
		<path d="M17.8,65.7c0.2-1,0-2-0.6-2.9c-0.1-0.2-0.2-0.4-0.5-0.3s-0.3,0.3-0.3,0.5c0,0.9,0.1,1.8,0.4,2.7&#10;&#9;&#9;&#9;c0.1,0.2,0.3,0.5,0.6,0.4C17.7,66,17.8,65.9,17.8,65.7z" id="SyOzbw-lrbQ"/>
		<g id="rJtG-DblrZ7">
			<g id="BkcGZvbgHZX">
				<line x1="17.3" y1="53.8" x2="25.8" y2="52.3" id="SJjGWv-gH-m"/>
				<path d="M17.3,54.8c-0.5,0-0.9-0.3-1-0.8s0.3-1.1,0.8-1.2l8.5-1.4c0.5-0.1,1.1,0.3,1.2,0.8s-0.3,1.1-0.8,1.2&#10;&#9;&#9;&#9;&#9;&#9;l-8.5,1.4C17.4,54.8,17.3,54.8,17.3,54.8z" id="r13M-D-grWX"/>
			</g>
			<g id="rkafZwWxBb7">
				<line x1="84" y1="47.4" x2="92.5" y2="46" id="ryAG-D-gHbm"/>
				<path d="M84,48.4c-0.5,0-0.9-0.3-1-0.8s0.3-1.1,0.8-1.2l8.5-1.4c0.5-0.1,1.1,0.3,1.2,0.8s-0.3,1.1-0.8,1.2l-8.5,1.4&#10;&#9;&#9;&#9;&#9;&#9;C84.1,48.4,84.1,48.4,84,48.4z" id="HJyXWDWgH-X"/>
			</g>
		</g>
	</g></g>
	<g id="SJgmbPWgSZX">
		<defs>
			<path id="SVGID_1_" d="M50.1,186c-2.4-1.4-18.6-10.3-22.1-26.4c-0.8-3.6-1.9-7.1-2.2-10.7c-1-10.4-0.8-21.9,5.8-30.2&#10;&#9;&#9;&#9;&#9;c4.5-5.7,11.3-9.1,18.1-11.6c3.1-1.3,6.5-2.1,9.9-2.3c3.7,0,7.3,1.1,10.8,2.2c6.3,2,12.6,4.1,18.2,7.4s10.6,8.3,12.8,14.5&#10;&#9;&#9;&#9;&#9;c1.8,5.2,1.6,10.9,0.9,16.3c-1.5,10.2-5,20.4-11.4,28.5c-4.8,6.1-11.2,10.8-18.5,13.3C66.1,189.1,55.8,189.1,50.1,186z"/>
		</defs>
		<clipPath id="SVGID_2_">
			<use xlink:href="#SVGID_1_" style="overflow:visible;"/>
		</clipPath>
		<g id="SkZ7bw-xHZ7">
			<path d="M50.1,186c-2.4-1.4-18.6-10.3-22.1-26.4c-0.8-3.6-1.9-7.1-2.2-10.7c-1-10.4-0.8-21.9,5.8-30.2&#10;&#9;&#9;&#9;&#9;c4.5-5.7,11.3-9.1,18.1-11.6c3.1-1.3,6.5-2.1,9.9-2.3c3.7,0,7.3,1.1,10.8,2.2c6.3,2,12.6,4.1,18.2,7.4s10.6,8.3,12.8,14.5&#10;&#9;&#9;&#9;&#9;c1.8,5.2,1.6,10.9,0.9,16.3c-1.5,10.2-5,20.4-11.4,28.5c-4.8,6.1-11.2,10.8-18.5,13.3C66.1,189.1,55.8,189.1,50.1,186z" id="S1MQZvbxHWm"/>
			<path d="M50.1,186c-18.9-11-36-65.4-0.5-78.9c3.1-1.3,6.5-2.1,9.9-2.3c3.7,0,7.3,1.1,10.8,2.2&#10;&#9;&#9;&#9;&#9;c6.3,2,12.6,4.1,18.2,7.4s10.6,8.3,12.8,14.5c1.8,5.2,1.6,10.9,0.9,16.3c-1.5,10.2-5,20.4-11.4,28.5&#10;&#9;&#9;&#9;&#9;c-4.8,6.1-11.2,10.8-18.5,13.3C66.1,189.1,55.7,189.2,50.1,186z" id="B1XmWwZgSZ7"/>
			<path d="M69.7,138.8c-10,0-20.2-1.2-30.2-2.6c-4.4-0.6-9.9-1.4-14.2-4.4l0.8-1.1c4,2.8,9.4,3.6,13.6,4.2&#10;&#9;&#9;&#9;&#9;c20.9,3,43,5.2,62-3.4l0.6,1.2C92,137.2,81,138.8,69.7,138.8z" id="ry4XbPbxSbX"/>
			<path d="M69.7,155.4c-10,0-20.2-1.2-30.2-2.6c-4.4-0.6-9.9-1.4-14.2-4.4l0.8-1.1c4,2.8,9.4,3.6,13.6,4.2&#10;&#9;&#9;&#9;&#9;c20.9,3,43,5.2,62-3.4l0.6,1.2C92,153.9,81,155.4,69.7,155.4z" id="SJBm-vZeHZQ"/>
			<path d="M69.6,174.7c-10.1,0-20.3-1.3-30.1-2.7c-2.5-0.3-4.9-0.8-7.3-1.4l0.3-1.3c2.4,0.6,4.8,1,7.2,1.3&#10;&#9;&#9;&#9;&#9;c17.1,2.4,35.3,4.4,52,0.1l0.3,1.3C84.7,173.9,77.2,174.8,69.6,174.7z" id="r1LXWvbgrZX"/>
		</g>
	</g>
</g>
<script>(function(){var a=document.querySelector('#HyFbPbxB-7'),b=a.querySelectorAll('style'),c=function(d){b.forEach(function(f){var g=f.textContent;g&amp;&amp;(f.textContent=g.replace(/transform-box:[^;\r\n]*/gi,'transform-box: '+d))})};c('initial'),window.requestAnimationFrame(function(){return c('fill-box')})})();</script></svg>