<svg xmlns="http://www.w3.org/2000/svg" viewBox="0 0 128.93 91.37"><defs><style>.cls-1{fill:#7eba42;}.cls-2{fill:#749128;}.cls-3{fill:#00a34e;}.cls-4{fill:#005d28;}.cls-5{fill:#c2d69f;}.cls-6{fill:#007235;}.cls-7{fill:#004013;}</style></defs><title>Asset 39</title><g id="Layer_2" data-name="Layer 2"><g id="Layer_1-2" data-name="Layer 1"><path class="cls-1" d="M120.29,50.18s-2.12,7.22-11.13,14.3c-.55.44-1.13.87-1.73,1.31a58,58,0,0,1-15.88,7.82l-.16,0-2.08.64a95.66,95.66,0,0,1-19.45,3.42l-.41,0-1.28.09-.67,0h0a112.12,112.12,0,0,1-23.86-.94h-.05c-1.27-.19-2.51-.4-3.7-.65C15.54,71.47,6.92,58.82,6.92,58.82Z"/><path class="cls-2" d="M39.84,76.29c-1.86-2.06-5-6.44-6.32-13.83l2.07-.38a26.14,26.14,0,0,0,8,14.87Z"/><path class="cls-2" d="M67.45,77.89a38.63,38.63,0,0,1-7.07-16.32l2.08-.39a38.37,38.37,0,0,0,7.4,16.55Z"/><path class="cls-2" d="M89.31,74.31a38.66,38.66,0,0,1-6.9-16.09l2.08-.38a34.32,34.32,0,0,0,7.06,15.78Z"/><path class="cls-2" d="M109.16,64.48c-.55.44-1.13.87-1.73,1.31a40.22,40.22,0,0,1-3-10.2l2.07-.38A39.53,39.53,0,0,0,109.16,64.48Z"/><path class="cls-3" d="M46.56,2S.23,24,6.92,58.83L122.51,48.32S123.46-11.38,46.56,2Z"/><path class="cls-4" d="M97.36,43.17,94.48,29.71c2.31-2.83,4.74-5.57,7.06-8.41.56-.69,6-7.85,6.42-7.43a38.7,38.7,0,0,0-3.34-2.81,13.72,13.72,0,0,1-1.89,2.27L91.82,26.9,76.9,20.76a1.78,1.78,0,0,0-.91-.13L52.1,23a1.83,1.83,0,0,0-.78.25L37,31.78c-.76.45-8.34-4.66-9.65-5.3-.84-.42-7.5-4.65-8.11-4.13-.62.7-1.23,1.42-1.83,2.15,1.31.82,2.6,1.65,3.82,2.59l13.79,8-1,14.08a45.46,45.46,0,0,1,.45,7.19l2.61-.24a1.75,1.75,0,0,0,.36-.94l1.37-20,14-8.34,23-2.3L90.76,30.6l4.09,19.08a1.82,1.82,0,0,0,.68,1.09l3.15-.28A23.29,23.29,0,0,1,97.36,43.17Z"/><path class="cls-5" d="M114,91.37h0Z"/><path class="cls-6" d="M109.75,15.68,98.47,29.22l3.18,14,15.75,5.55,5.11-.46S122.8,29.78,109.75,15.68Z"/><path class="cls-6" d="M31.76,35.19,14.67,28C8.83,36.12,5,46,6.68,57.17l23.4-2.88Z"/><path class="cls-6" d="M42.62,4.09a100.89,100.89,0,0,0-20.7,15.46l14.22,8.9L46.7,21Z"/><path class="cls-6" d="M89.79,22.05,101.26,8.58A51.92,51.92,0,0,0,84.32,1.75L81.64,18.86Z"/><polygon class="cls-6" points="41.55 54.56 41.55 36.86 53.5 29.85 75.5 27.98 87.4 32.8 90.88 47.64 62.71 53.54 41.55 54.56"/><polygon class="cls-4" points="50.71 27.04 44.52 3.04 46.56 1.99 48.78 1.62 54.09 22.17 74.43 20 78.08 0.58 82.48 1.41 78.22 24.1 50.71 27.04"/><path class="cls-6" d="M51.25,1.25l4.84,18.18,15.84-1.87L74.41.3S65.8-.81,51.25,1.25Z"/><path class="cls-7" d="M25.83,63.46A129.79,129.79,0,0,1,4.48,61.3a5.5,5.5,0,0,1,2-10.81c4.92.92,19.24,3,26.25,1.39a5.47,5.47,0,0,1,1.33-.14c.2,0,19.58.41,29.67-.88,6-.76,14.49-2.68,21.32-4.23,5.83-1.31,9.21-2.07,11.06-2.24a29.91,29.91,0,0,1,5.51.25c3.59.35,8.5.85,10.77-.85,4.18-3.14,5.91-8.4,5.41-11.76a5.5,5.5,0,0,1,10.88-1.62c1.18,7.9-2.81,17-9.7,22.19-5.7,4.26-13.38,3.49-18.46,3a26.56,26.56,0,0,0-3.4-.23c-1.22.11-5.5,1.08-9.64,2C80.46,59,71.67,61,65.16,61.78c-9.94,1.26-27.07,1-30.66,1A45.9,45.9,0,0,1,25.83,63.46Z"/></g></g></svg>