<svg version="1.1" id="Hk_lx-YgSbm" xmlns="http://www.w3.org/2000/svg" xmlns:xlink="http://www.w3.org/1999/xlink" x="0px" y="0px" viewBox="-5 0 190 162" style="enable-background:new 0 0 185.3 162.4;" xml:space="preserve"><style>@-webkit-keyframes rJj-eZYgH-m_H16QqerZm_Animation{23.33%{-webkit-transform: rotate(0deg);transform: rotate(0deg);}26.67%{-webkit-transform: rotate(3deg);transform: rotate(3deg);}30%{-webkit-transform: rotate(-3deg);transform: rotate(-3deg);}33.33%{-webkit-transform: rotate(0deg);transform: rotate(0deg);}0%{-webkit-transform: rotate(0deg);transform: rotate(0deg);}100%{-webkit-transform: rotate(0deg);transform: rotate(0deg);}}@keyframes rJj-eZYgH-m_H16QqerZm_Animation{23.33%{-webkit-transform: rotate(0deg);transform: rotate(0deg);}26.67%{-webkit-transform: rotate(3deg);transform: rotate(3deg);}30%{-webkit-transform: rotate(-3deg);transform: rotate(-3deg);}33.33%{-webkit-transform: rotate(0deg);transform: rotate(0deg);}0%{-webkit-transform: rotate(0deg);transform: rotate(0deg);}100%{-webkit-transform: rotate(0deg);transform: rotate(0deg);}}@-webkit-keyframes rJj-eZYgH-m_By2QceSbX_Animation{20%{-webkit-transform: translate(0px, 0px);transform: translate(0px, 0px);}23.33%{-webkit-transform: translate(0px, 10px);transform: translate(0px, 10px);}76.67%{-webkit-transform: translate(0px, 10px);transform: translate(0px, 10px);}83.33%{-webkit-transform: translate(0px, 0px);transform: translate(0px, 0px);}0%{-webkit-transform: translate(0px, 0px);transform: translate(0px, 0px);}100%{-webkit-transform: translate(0px, 0px);transform: translate(0px, 0px);}}@keyframes rJj-eZYgH-m_By2QceSbX_Animation{20%{-webkit-transform: translate(0px, 0px);transform: translate(0px, 0px);}23.33%{-webkit-transform: translate(0px, 10px);transform: translate(0px, 10px);}76.67%{-webkit-transform: translate(0px, 10px);transform: translate(0px, 10px);}83.33%{-webkit-transform: translate(0px, 0px);transform: translate(0px, 0px);}0%{-webkit-transform: translate(0px, 0px);transform: translate(0px, 0px);}100%{-webkit-transform: translate(0px, 0px);transform: translate(0px, 0px);}}@-webkit-keyframes H1cxxWYgS-Q_Sy8gcgB-m_Animation{16.67%{-webkit-transform: scale(1, 1);transform: scale(1, 1);}20%{-webkit-transform: scale(0, 0);transform: scale(0, 0);}66.67%{-webkit-transform: scale(0, 0);transform: scale(0, 0);}83.33%{-webkit-transform: scale(1, 1);transform: scale(1, 1);}0%{-webkit-transform: scale(1, 1);transform: scale(1, 1);}100%{-webkit-transform: scale(1, 1);transform: scale(1, 1);}}@keyframes H1cxxWYgS-Q_Sy8gcgB-m_Animation{16.67%{-webkit-transform: scale(1, 1);transform: scale(1, 1);}20%{-webkit-transform: scale(0, 0);transform: scale(0, 0);}66.67%{-webkit-transform: scale(0, 0);transform: scale(0, 0);}83.33%{-webkit-transform: scale(1, 1);transform: scale(1, 1);}0%{-webkit-transform: scale(1, 1);transform: scale(1, 1);}100%{-webkit-transform: scale(1, 1);transform: scale(1, 1);}}@-webkit-keyframes SyGWlWFeHWm_BJ-1qxHZX_Animation{16.67%{-webkit-transform: scale(1, 1);transform: scale(1, 1);}20%{-webkit-transform: scale(0, 0);transform: scale(0, 0);}66.67%{-webkit-transform: scale(0, 0);transform: scale(0, 0);}83.33%{-webkit-transform: scale(1, 1);transform: scale(1, 1);}0%{-webkit-transform: scale(1, 1);transform: scale(1, 1);}100%{-webkit-transform: scale(1, 1);transform: scale(1, 1);}}@keyframes SyGWlWFeHWm_BJ-1qxHZX_Animation{16.67%{-webkit-transform: scale(1, 1);transform: scale(1, 1);}20%{-webkit-transform: scale(0, 0);transform: scale(0, 0);}66.67%{-webkit-transform: scale(0, 0);transform: scale(0, 0);}83.33%{-webkit-transform: scale(1, 1);transform: scale(1, 1);}0%{-webkit-transform: scale(1, 1);transform: scale(1, 1);}100%{-webkit-transform: scale(1, 1);transform: scale(1, 1);}}@-webkit-keyframes H1E7xZFgrZm_ryGhFeHW7_Animation{16.67%{-webkit-transform: scale(1, 1);transform: scale(1, 1);}20%{-webkit-transform: scale(0, 0);transform: scale(0, 0);}66.67%{-webkit-transform: scale(0, 0);transform: scale(0, 0);}83.33%{-webkit-transform: scale(1, 1);transform: scale(1, 1);}0%{-webkit-transform: scale(1, 1);transform: scale(1, 1);}100%{-webkit-transform: scale(1, 1);transform: scale(1, 1);}}@keyframes H1E7xZFgrZm_ryGhFeHW7_Animation{16.67%{-webkit-transform: scale(1, 1);transform: scale(1, 1);}20%{-webkit-transform: scale(0, 0);transform: scale(0, 0);}66.67%{-webkit-transform: scale(0, 0);transform: scale(0, 0);}83.33%{-webkit-transform: scale(1, 1);transform: scale(1, 1);}0%{-webkit-transform: scale(1, 1);transform: scale(1, 1);}100%{-webkit-transform: scale(1, 1);transform: scale(1, 1);}}@-webkit-keyframes BJpflZtlSZX_H1V3tgrWQ_Animation{16.67%{-webkit-transform: scale(1, 1);transform: scale(1, 1);}20%{-webkit-transform: scale(0, 0);transform: scale(0, 0);}66.67%{-webkit-transform: scale(0, 0);transform: scale(0, 0);}83.33%{-webkit-transform: scale(1, 1);transform: scale(1, 1);}0%{-webkit-transform: scale(1, 1);transform: scale(1, 1);}100%{-webkit-transform: scale(1, 1);transform: scale(1, 1);}}@keyframes BJpflZtlSZX_H1V3tgrWQ_Animation{16.67%{-webkit-transform: scale(1, 1);transform: scale(1, 1);}20%{-webkit-transform: scale(0, 0);transform: scale(0, 0);}66.67%{-webkit-transform: scale(0, 0);transform: scale(0, 0);}83.33%{-webkit-transform: scale(1, 1);transform: scale(1, 1);}0%{-webkit-transform: scale(1, 1);transform: scale(1, 1);}100%{-webkit-transform: scale(1, 1);transform: scale(1, 1);}}@-webkit-keyframes BJnXx-teB-Q_H1mPFeSZQ_Animation{16.67%{-webkit-transform: translate(0px, 0px);transform: translate(0px, 0px);}20%{-webkit-transform: translate(-5px, 20px);transform: translate(-5px, 20px);}66.67%{-webkit-transform: translate(-5px, 20px);transform: translate(-5px, 20px);}83.33%{-webkit-transform: translate(0px, 0px);transform: translate(0px, 0px);}0%{-webkit-transform: translate(0px, 0px);transform: translate(0px, 0px);}100%{-webkit-transform: translate(0px, 0px);transform: translate(0px, 0px);}}@keyframes BJnXx-teB-Q_H1mPFeSZQ_Animation{16.67%{-webkit-transform: translate(0px, 0px);transform: translate(0px, 0px);}20%{-webkit-transform: translate(-5px, 20px);transform: translate(-5px, 20px);}66.67%{-webkit-transform: translate(-5px, 20px);transform: translate(-5px, 20px);}83.33%{-webkit-transform: translate(0px, 0px);transform: translate(0px, 0px);}0%{-webkit-transform: translate(0px, 0px);transform: translate(0px, 0px);}100%{-webkit-transform: translate(0px, 0px);transform: translate(0px, 0px);}}@-webkit-keyframes BJnXx-teB-Q_SJHzYeHZ7_Animation{16.67%{-webkit-transform: scale(1, 1);transform: scale(1, 1);}20%{-webkit-transform: scale(0, 0);transform: scale(0, 0);}66.67%{-webkit-transform: scale(0, 0);transform: scale(0, 0);}83.33%{-webkit-transform: scale(1, 1);transform: scale(1, 1);}0%{-webkit-transform: scale(1, 1);transform: scale(1, 1);}100%{-webkit-transform: scale(1, 1);transform: scale(1, 1);}}@keyframes BJnXx-teB-Q_SJHzYeHZ7_Animation{16.67%{-webkit-transform: scale(1, 1);transform: scale(1, 1);}20%{-webkit-transform: scale(0, 0);transform: scale(0, 0);}66.67%{-webkit-transform: scale(0, 0);transform: scale(0, 0);}83.33%{-webkit-transform: scale(1, 1);transform: scale(1, 1);}0%{-webkit-transform: scale(1, 1);transform: scale(1, 1);}100%{-webkit-transform: scale(1, 1);transform: scale(1, 1);}}@-webkit-keyframes SJL-eZKgHZQ_Hk-MYeS-Q_Animation{16.67%{-webkit-transform: scale(1, 1);transform: scale(1, 1);}20%{-webkit-transform: scale(0, 0);transform: scale(0, 0);}66.67%{-webkit-transform: scale(0, 0);transform: scale(0, 0);}83.33%{-webkit-transform: scale(1, 1);transform: scale(1, 1);}0%{-webkit-transform: scale(1, 1);transform: scale(1, 1);}100%{-webkit-transform: scale(1, 1);transform: scale(1, 1);}}@keyframes SJL-eZKgHZQ_Hk-MYeS-Q_Animation{16.67%{-webkit-transform: scale(1, 1);transform: scale(1, 1);}20%{-webkit-transform: scale(0, 0);transform: scale(0, 0);}66.67%{-webkit-transform: scale(0, 0);transform: scale(0, 0);}83.33%{-webkit-transform: scale(1, 1);transform: scale(1, 1);}0%{-webkit-transform: scale(1, 1);transform: scale(1, 1);}100%{-webkit-transform: scale(1, 1);transform: scale(1, 1);}}#Hk_lx-YgSbm *{-webkit-animation-duration: 3s;animation-duration: 3s;-webkit-animation-iteration-count: infinite;animation-iteration-count: infinite;-webkit-animation-timing-function: cubic-bezier(0, 0, 1, 1);animation-timing-function: cubic-bezier(0, 0, 1, 1);}#S1sxlWtxB-Q{fill: #A2C53A;}#SyhlxZYerZ7{fill: #90AD3D;}#rk6llWKxHZm{fill: #FFFFFF;}#r1CxgZKerbQ{fill: #FFFFFF;}#H1J-xbKlrWm{fill: #F1E008;}#HyxWgWtlr-X{fill: #F1E008;}#S1ZWebFgHZm{fill: #F1E008;}#SJmbeWYgrZ7{fill: #90AD3D;}#S1VWgbFgBWX{fill: #FFFFFF;}#SkSbeZFgBWQ{fill: #FFFFFF;}#rkw-lWFxSWX{fill: #A2C53A;}#HJuWl-tlB-Q{fill: #90AD3D;}#HyFWgbFerbX{fill: #C2D69F;}#BJq-lWYxrWQ{fill: #C2D69F;}#SyhWe-tgrb7{fill: #F1E008;}#r16bebFgr-m{fill: #F1E008;}#B10blbKlrZm{fill: #F1E008;}#rJJflWYxSWm{fill: #7EBA42;}#HyxMeZFer-7{fill: #749128;}#SyZfxWteBZX{fill: #749128;}#S1zGl-FxHb7{fill: #749128;}#r1QGlbKerZQ{fill: #749128;}#BJNGlWYxrZm{fill: #00A34E;}#SkSGebtxH-X{fill: #005D28;}#HJ8zeZFeB-Q{fill: #007235;}#rkvMl-KxSbX{fill: #007235;}#HyOzxZtgSbX{fill: #007235;}#ByYfgbKlrWX{fill: #007235;}#HyczeZYxBZX{fill: #007235;}#BJozxbYgSWX{fill: #005D28;}#B1nMxWYgrbm{fill: #007235;}#BJAMgWFeSWQ{fill: #A2C53A;}#BJk7xbtxB-m{fill: #FFFFFF;}#Hyl7g-tgH-m{fill: #FFFFFF;}#B1-7lWKeBbQ{fill: #F1E008;}#SyfXgZKxSbX{fill: #F1E008;}#BkX7lbteH-7{fill: #F1E008;}#BkrXeZKxBbQ{fill: #A2C53A;}#S1UQxbFgHZX{fill: #FFFFFF;}#S1PQlbKgrW7{fill: #FFFFFF;}#Sk_me-KeSZX{fill: #F1E008;}#H1K7lbYlB-Q{fill: #F1E008;}#HycXebtgSZm{fill: #F1E008;}#BJsmlZteHZQ{fill: #004013;}#S1pQx-Fgr-7{fill: #A2C53A;}#HkAQg-FeB-7{fill: #1D1E1D;}#ByJVgZYeHb7{fill: #1D1E1D;}#r1l4x-FeBZ7{fill: #7EBA42;}#HkZEx-tgB-m{fill: #7EBA42;}#rkmNgbtgBZX{fill: #749128;}#SJL-eZKgHZQ_Hk-MYeS-Q{-webkit-animation-name: SJL-eZKgHZQ_Hk-MYeS-Q_Animation;animation-name: SJL-eZKgHZQ_Hk-MYeS-Q_Animation;-webkit-transform-origin: 0% 100%;transform-origin: 0% 100%;transform-box: fill-box;-webkit-transform: scale(1, 1);transform: scale(1, 1);}#BJnXx-teB-Q_SJHzYeHZ7{-webkit-animation-name: BJnXx-teB-Q_SJHzYeHZ7_Animation;animation-name: BJnXx-teB-Q_SJHzYeHZ7_Animation;-webkit-transform-origin: 50% 100%;transform-origin: 50% 100%;transform-box: fill-box;-webkit-transform: scale(1, 1);transform: scale(1, 1);}#SJL-eZKgHZQ_BkO4KxrZQ{-webkit-transform-origin: 0% 100%;transform-origin: 0% 100%;transform-box: fill-box;-webkit-transform: translate(0px, 0px);transform: translate(0px, 0px);}#BJnXx-teB-Q_H1mPFeSZQ{-webkit-animation-name: BJnXx-teB-Q_H1mPFeSZQ_Animation;animation-name: BJnXx-teB-Q_H1mPFeSZQ_Animation;-webkit-transform-origin: 50% 100%;transform-origin: 50% 100%;transform-box: fill-box;-webkit-transform: translate(0px, 0px);transform: translate(0px, 0px);}#BJpflZtlSZX_H1V3tgrWQ{-webkit-animation-name: BJpflZtlSZX_H1V3tgrWQ_Animation;animation-name: BJpflZtlSZX_H1V3tgrWQ_Animation;-webkit-transform-origin: 0% 0%;transform-origin: 0% 0%;transform-box: fill-box;-webkit-transform: scale(1, 1);transform: scale(1, 1);}#H1E7xZFgrZm_ryGhFeHW7{-webkit-animation-name: H1E7xZFgrZm_ryGhFeHW7_Animation;animation-name: H1E7xZFgrZm_ryGhFeHW7_Animation;-webkit-transform-origin: 50% 0%;transform-origin: 50% 0%;transform-box: fill-box;-webkit-transform: scale(1, 1);transform: scale(1, 1);}#SyGWlWFeHWm_BJ-1qxHZX{-webkit-animation-name: SyGWlWFeHWm_BJ-1qxHZX_Animation;animation-name: SyGWlWFeHWm_BJ-1qxHZX_Animation;-webkit-transform-origin: 50% 0%;transform-origin: 50% 0%;transform-box: fill-box;-webkit-transform: scale(1, 1);transform: scale(1, 1);}#H1cxxWYgS-Q_Sy8gcgB-m{-webkit-animation-name: H1cxxWYgS-Q_Sy8gcgB-m_Animation;animation-name: H1cxxWYgS-Q_Sy8gcgB-m_Animation;-webkit-transform-origin: 0% 0%;transform-origin: 0% 0%;transform-box: fill-box;-webkit-transform: scale(1, 1);transform: scale(1, 1);}#rJj-eZYgH-m_By2QceSbX{-webkit-animation-name: rJj-eZYgH-m_By2QceSbX_Animation;animation-name: rJj-eZYgH-m_By2QceSbX_Animation;-webkit-transform-origin: 50% 100%;transform-origin: 50% 100%;transform-box: fill-box;-webkit-transform: translate(0px, 0px);transform: translate(0px, 0px);}#rJj-eZYgH-m_H16QqerZm{-webkit-animation-name: rJj-eZYgH-m_H16QqerZm_Animation;animation-name: rJj-eZYgH-m_H16QqerZm_Animation;-webkit-transform-origin: 50% 100%;transform-origin: 50% 100%;transform-box: fill-box;-webkit-transform: rotate(0deg);transform: rotate(0deg);}</style>

<title>Asset 44</title>
<g id="ryYxlbKxBW7">
	<g id="H1cxxWYgS-Q_Sy8gcgB-m" data-animator-group="true" data-animator-type="2"><g id="H1cxxWYgS-Q">
		<path d="M111.2,150c0.3-3.3-0.1-6.7-1-9.9c-1.3-5.4-5.3-10.4-9.3-14c2.6-1.2,5.7-3.3,8.6-3.1c2.2,0.1,4.4,0.4,6.6,0.8&#10;&#9;&#9;&#9;c11.9,2.2,19.2,11,22.1,22.3c0.4,1.8,0.6,3.6,0.6,5.4c0.2,4.1-5.1,3.2-7.6,3.4c-2.1,0.1-4.1,0.3-6.2,0.3c-2.9,0.1-5.8,0.1-8.8-0.1&#10;&#9;&#9;&#9;c-1.1-0.1-3.2,0.1-4.1-0.6C110.6,153.6,111,151.4,111.2,150z" id="S1sxlWtxB-Q"/>
		<path d="M111.2,150c0.3-3.3-0.1-6.7-1-9.9c-1.3-5.4-5.3-10.4-9.3-14c2.6-1.2,5.7-3.3,8.6-3.1c2.2,0.1,4.4,0.4,6.6,0.8&#10;&#9;&#9;&#9;c11.9,2.2,19.2,11,22.1,22.3c0.4,1.8,0.6,3.6,0.6,5.4c0.2,4.1-5.1,3.2-7.6,3.4c-2.1,0.1-4.1,0.3-6.2,0.3c-2.9,0.1-5.8,0.1-8.8-0.1&#10;&#9;&#9;&#9;c-1.1-0.1-3.2,0.1-4.1-0.6C110.6,153.6,111,151.4,111.2,150z" id="SyhlxZYerZ7"/>
		<path d="M138.7,151.6c0.2,4.1-5.1,3.2-7.6,3.4l-1.8,0.1c-0.2-1.4-0.2-2.9,0-4.3c0.2-1.6,0.9-3,2.1-4.1&#10;&#9;&#9;&#9;c1.2-1.1,2.9-1.4,4.4-0.8c0.9,0.5,1.7,1.2,2.1,2.2c0.3,0.6,0.6,1.2,0.8,1.9L138.7,151.6z" id="rk6llWKxHZm"/>
		<path d="M119.2,155.2c-0.1-1.2-0.1-2.3,0-3.5c0.1-1.6,0.8-3.1,2.1-4c2.1-1.4,5-0.3,6.2,1.8c0.9,1.7,1.5,3.6,1.8,5.6&#10;&#9;&#9;&#9;c-1.4,0.1-2.9,0.2-4.4,0.2C123,155.3,121.1,155.3,119.2,155.2z" id="r1CxgZKerbQ"/>
		<path d="M126.7,135.2c0.9-0.1,1.6-0.8,1.8-1.7c0.3-2-1.6-3.1-3.4-2.3C122.5,132.4,124.4,135.5,126.7,135.2z" id="H1J-xbKlrWm"/>
		<path d="M124.5,140.8c-1-0.5-0.3-2,0.7-1.9s1,1.5,0.2,2C125.1,141,124.7,141,124.5,140.8z" id="HyxWgWtlr-X"/>
		<path d="M131.3,142.4c-1.8-0.9-0.5-3.5,1.2-3.4s1.8,2.7,0.3,3.4C132.3,142.7,131.8,142.7,131.3,142.4z" id="S1ZWebFgHZm"/>
	</g></g>
	<g id="SyGWlWFeHWm_BJ-1qxHZX" data-animator-group="true" data-animator-type="2"><g id="SyGWlWFeHWm">
		<path d="M25.7,128.7c0.7,0,2.6,5.8,2.8,6.3c1.8,4.7,2.6,9.7,2.5,14.8c-0.1,2.3-0.6,4.5-0.8,6.7&#10;&#9;&#9;&#9;c-0.3,1.2-0.3,2.3-0.2,3.5c0.3,1.1,0.5,0.9,1.7,1.1c4.9,0.7,10,0.9,14.9,1.1c0.7,0,1.4,0,2.1,0.1c1.3,0.1,2.5,0.2,3.8,0.2l4-0.1&#10;&#9;&#9;&#9;c0.9,0.1,1.8,0,2.7-0.2c0.9-0.3,1.1-1.3,1.2-2.2c0.2-1.3,0.3-2.7,0.2-4c-0.1-2.9-0.4-5.8-1.1-8.7c-0.8-3.4-2-6.7-3.8-9.7&#10;&#9;&#9;&#9;c-1-1.7-2.1-3.3-3.4-4.8c-0.7-0.8-1.3-1.5-2.1-2.2c-0.4-0.4-1.8-2.1-2.4-2.1L25.7,128.7z" id="SJmbeWYgrZ7"/>
		<path d="M45.5,153.5c-1.9-1.2-4.8-1.2-6.2,0.8c-0.7,1.1-1.1,2.3-1.2,3.6c0,0.3-0.3,3.3-0.3,3.8&#10;&#9;&#9;&#9;c2.9,0.2,5.9,0.3,8.8,0.5l1.4,0.1C47.5,159.2,48.5,155.3,45.5,153.5z" id="S1VWgbFgBWX"/>
		<path d="M60.6,157.6c0-0.5,0-1.1,0-1.6c-1.2-2.9-3.5-5-7.5-4.2c-2,0.3-3.7,1.9-4.2,3.9c-0.5,2.2-0.8,4.4-0.8,6.6h0.7&#10;&#9;&#9;&#9;H49h0.5l3,0.1l4-0.1c0.9,0.1,1.8,0,2.7-0.2c0.4-0.1,0.6-0.4,0.8-0.7c0.2-0.5,0.4-1.1,0.4-1.6l0.1-0.5&#10;&#9;&#9;&#9;C60.5,158.7,60.6,158.1,60.6,157.6z" id="SkSbeZFgBWQ"/>
	</g></g>
	<g id="SJL-eZKgHZQ_Hk-MYeS-Q" data-animator-group="true" data-animator-type="2"><g id="SJL-eZKgHZQ">
		<path d="M98.3,126.2c0,0,27.8,2,36.5-4.1c11.5-8.1,12.2-28.8,12.8-42s-27.2,0.6-27.2,0.6s-0.9,18.2-2.8,20.5&#10;&#9;&#9;&#9;S95,114.7,98.3,126.2z" id="rkw-lWFxSWX"/>
		<path d="M147.2,85.4c-0.3,0-1.1,2.9-1.1,2.9l-26.8,1.8c-0.2,3.8-0.9,7.5-1.9,11.1l1.1,0.1l-4.6,24.9h3.9&#10;&#9;&#9;&#9;c0,0,7.9-14.3,6.1-24.5l0,0c4,0.2,8.2,0.3,11.8,0.3c3.3,0,6.6-0.5,9.9-1.3c0.6-4.5,1.1-7.8,1.3-10.1c0-0.1,0-0.1,0-0.1&#10;&#9;&#9;&#9;c0-0.3,0.1-0.5,0.1-0.8s0-0.3,0-0.4s0-0.3,0-0.5s0-0.3,0-0.4s0-0.3,0-0.4s0-0.2,0-0.3s0-0.3,0-0.4c0-0.1,0-0.1,0-0.2&#10;&#9;&#9;&#9;c0-0.2,0-0.3,0-0.4l0,0C147.4,85.8,147.3,85.5,147.2,85.4z" id="HJuWl-tlB-Q"/>
	</g></g>
	<path d="M111.8,162.4L111.8,162.4z" id="HyFWgbFerbX"/>
	<path d="M29,158.9L29,158.9z" id="BJq-lWYxrWQ"/>
	<g id="rJj-eZYgH-m_By2QceSbX" data-animator-group="true" data-animator-type="0"><g id="rJj-eZYgH-m_H16QqerZm" data-animator-group="true" data-animator-type="1"><g id="rJj-eZYgH-m">
		<path d="M53,140.1c2.1-2.4-1.2-5.1-3.6-4.1c-1.6,0.7-3,3-1,4c0.7,0.4,1.5,0.7,2.3,0.8C51.6,140.9,52.4,140.6,53,140.1&#10;&#9;&#9;&#9;z" id="SyhWe-tgrb7"/>
		<path d="M47.7,144.6c1-1.4-1.8-2.9-2.8-1.8s0.3,1.9,1.2,2.1C46.7,145.1,47.3,145,47.7,144.6z" id="r16bebFgr-m"/>
		<path d="M55.3,146.9c0.4-0.3,0.5-0.8,0.3-1.3c-0.1-0.1-0.2-0.2-0.3-0.3c-0.8-0.4-2,0.3-1.5,1.3&#10;&#9;&#9;&#9;c0.2,0.5,0.8,0.7,1.3,0.5C55.1,147,55.2,147,55.3,146.9z" id="B10blbKlrZm"/>
		<path d="M119.4,110.7c0,0-3.4,17.7-12.4,24.8c-0.6,0.4-1.1,0.9-1.7,1.3c-4.9,3.4-10.2,6-15.9,7.8l-0.2,0.1l-2.1,0.6&#10;&#9;&#9;&#9;c-6.4,1.8-12.9,3-19.5,3.4h-0.4l-1.3,0.1h-0.7l0,0c-8,0.5-16,0.2-23.9-0.9l0,0c-1.3-0.2-2.5-0.4-3.7-0.6&#10;&#9;&#9;&#9;c-24.3-4.8-32.9-17.5-32.9-17.5L119.4,110.7z" id="rJJflWYxSWm"/>
		<path d="M37.7,147.3c-1.9-2.1-5-6.4-6.3-13.8l2.1-0.4c0.9,5.7,3.8,10.9,8,14.9L37.7,147.3z" id="HyxMeZFer-7"/>
		<path d="M65.3,148.9c-3.6-4.8-6-10.4-7.1-16.3l2.1-0.4c1.1,6,3.6,11.7,7.4,16.6L65.3,148.9z" id="SyZfxWteBZX"/>
		<path d="M87.1,145.3c-3.5-4.8-5.9-10.3-6.9-16.1l2.1-0.4c1,5.8,3.4,11.2,7.1,15.8L87.1,145.3z" id="S1zGl-FxHb7"/>
		<path d="M107,135.5c-0.6,0.4-1.1,0.9-1.7,1.3c-1.4-3.3-2.5-6.7-3-10.2l2.1-0.4C104.8,129.4,105.7,132.5,107,135.5z" id="r1QGlbKerZQ"/>
		<path d="M119.4,110.7c-0.9,3.3-2.4,6.3-4.5,9l0,0c0,0.1-0.1,0.1-0.1,0.2l-110,10c-0.5-2.7-0.7-5.5-0.6-8.3&#10;&#9;&#9;&#9;C5.3,91.5,44.4,73,44.4,73c43.9-7.6,62.4,8.5,70.2,23.8C116.8,101.2,118.4,105.9,119.4,110.7z" id="BJNGlWYxrZm"/>
		<path d="M95.2,114.2l-2.9-13.5c2.3-2.8,4.7-5.6,7.1-8.4c0.6-0.7,6-7.8,6.4-7.4c-1.1-1-2.2-2-3.3-2.9&#10;&#9;&#9;&#9;c-0.5,0.8-1.2,1.6-1.9,2.3L89.6,97.9l-14.9-6.1c-0.3-0.1-0.6-0.2-0.9-0.1L49.9,94c-0.3,0-0.5,0.1-0.8,0.3l-14.3,8.5&#10;&#9;&#9;&#9;c-0.8,0.4-8.3-4.7-9.6-5.3c-0.9-0.4-7.5-4.7-8.1-4.1c-0.6,0.7-1.2,1.4-1.8,2.2c1.3,0.8,2.6,1.7,3.8,2.6l13.8,8l-1,14.1&#10;&#9;&#9;&#9;c0.3,2.4,0.5,4.8,0.5,7.2l2.6-0.2c0.2-0.3,0.3-0.6,0.3-0.9l1.4-20l14.1-8.3l23-2.3l14.9,6.1l4.1,19.1c0.1,0.4,0.3,0.8,0.7,1.1&#10;&#9;&#9;&#9;l3.2-0.3C95.6,119.1,95.2,116.7,95.2,114.2z" id="SkSGebtxH-X"/>
		<path d="M119.4,110.7c-0.9,3.3-2.4,6.3-4.5,9l-11.5-4.1l-3.9-1.4l-3.2-14l11.3-13.5c2.8,3,5.1,6.4,7,10.1&#10;&#9;&#9;&#9;C116.8,101.2,118.4,105.9,119.4,110.7z" id="HJ8zeZFeB-Q"/>
		<path d="M29.6,106.2L12.5,99c-5.8,8.1-9.6,18-8,29.2l23.4-2.9L29.6,106.2z" id="rkvMl-KxSbX"/>
		<path d="M40.4,75.1c-7.5,4.2-14.5,9.4-20.7,15.5l14.2,8.9L44.5,92L40.4,75.1z" id="HyOzxZtgSbX"/>
		<path d="M87.6,93l11.5-13.4c-5.2-3.3-10.9-5.6-16.9-6.8l-2.7,17.1L87.6,93z" id="ByYfgbKlrWX"/>
		<polygon points="39.3,125.6 39.3,107.8 51.3,100.8 73.3,99 85.2,103.8 88.7,118.6 60.5,124.5 &#9;&#9;" id="HyczeZYxBZX"/>
		<polygon points="48.5,98 42.3,74 44.4,73 46.6,72.6 51.9,93.2 72.2,91 75.9,71.6 80.3,72.4 76,95.1 &#9;&#9;" id="BJozxbYgSWX"/>
		<path d="M49,72.2l4.8,18.2l15.8-1.9l2.5-17.3C72.2,71.3,63.6,70.2,49,72.2z" id="B1nMxWYgrbm"/>
		<g id="BJpflZtlSZX_H1V3tgrWQ" data-animator-group="true" data-animator-type="2"><g id="BJpflZtlSZX">
			<path d="M91.4,153.5c0.5-3.5,0.4-7.1-0.3-10.5c-1-5.8-4.8-11.4-8.8-15.6c2.9-1,6.3-3,9.4-2.6&#10;&#9;&#9;&#9;&#9;c2.3,0.3,4.6,0.8,6.9,1.4c12.4,3.3,19.5,13.1,21.7,25.4c0.3,1.9,0.3,3.8,0.2,5.7c-0.1,4.3-5.6,3-8.4,3c-2.2,0-4.4,0-6.6-0.1&#10;&#9;&#9;&#9;&#9;c-3.1-0.1-6.2-0.4-9.3-0.8c-1.2-0.2-3.4-0.1-4.3-0.9C90.6,157.2,91.1,154.9,91.4,153.5z" id="BJAMgWFeSWQ"/>
			<path d="M120.5,157.3c-0.1,4.3-5.6,3-8.4,3h-1.9c-0.1-1.5,0-3.1,0.3-4.6c0.3-1.6,1.2-3.1,2.5-4.1&#10;&#9;&#9;&#9;&#9;c1.3-1,3.1-1.2,4.7-0.5c1,0.6,1.7,1.4,2.1,2.5c0.3,0.7,0.5,1.4,0.7,2.1C120.5,156.1,120.5,156.7,120.5,157.3z" id="BJk7xbtxB-m"/>
			<path d="M99.5,159.7c0-1.2,0.1-2.5,0.3-3.7c0.2-1.7,1.1-3.2,2.6-4.1c2.3-1.4,5.3,0.1,6.4,2.4c0.8,1.9,1.3,4,1.4,6.1&#10;&#9;&#9;&#9;&#9;c-1.5,0-3.1,0-4.6-0.1C103.5,160,101.5,159.9,99.5,159.7z" id="Hyl7g-tgH-m"/>
			<path d="M109,139c0.9-0.1,1.7-0.7,2-1.6c0.5-2.1-1.5-3.4-3.5-2.7C104.8,135.7,106.6,139.1,109,139z" id="B1-7lWKeBbQ"/>
			<path d="M106.2,144.8c-1-0.6-0.2-2.1,0.9-2s1,1.7,0,2.1C106.8,145,106.5,144.9,106.2,144.8z" id="SyfXgZKxSbX"/>
			<path d="M113.4,147c-1.8-1.1-0.3-3.8,1.6-3.5s1.7,3,0,3.7C114.4,147.4,113.8,147.3,113.4,147z" id="BkX7lbteH-7"/>
		</g></g>
		<g id="H1E7xZFgrZm_ryGhFeHW7" data-animator-group="true" data-animator-type="2"><g id="H1E7xZFgrZm">
			<path d="M10.3,128.7c0.7,0,2.6,5.8,2.8,6.3c1.8,4.7,2.6,9.7,2.5,14.8c-0.1,2.3-0.6,4.5-0.8,6.7&#10;&#9;&#9;&#9;&#9;c-0.2,1.2-0.3,2.3-0.1,3.5c0.3,1.1,0.6,0.9,1.7,1.1c4.9,0.7,10,0.9,14.9,1.1l2.1,0.1c1.3,0.1,2.5,0.2,3.8,0.2s2.7,0,4-0.1&#10;&#9;&#9;&#9;&#9;c0.9,0.1,1.8,0,2.7-0.2c0.9-0.3,1.1-1.3,1.2-2.2c0.2-1.3,0.3-2.7,0.2-4c-0.1-2.9-0.4-5.8-1.1-8.7c-0.8-3.4-2-6.7-3.7-9.7&#10;&#9;&#9;&#9;&#9;c-1-1.7-2.1-3.3-3.4-4.7c-0.7-0.8-1.3-1.5-2.1-2.2c-0.4-0.4-1.8-2.1-2.4-2.1L10.3,128.7z" id="BkrXeZKxBbQ"/>
			<path d="M30,153.5c-1.9-1.2-4.8-1.2-6.2,0.8c-0.7,1.1-1.1,2.3-1.2,3.6c0,0.3-0.3,3.3-0.3,3.8&#10;&#9;&#9;&#9;&#9;c2.9,0.2,5.9,0.3,8.8,0.5l1.4,0.1C32.1,159.2,33.1,155.3,30,153.5z" id="S1UQxbFgHZX"/>
			<path d="M45.2,157.6c0-0.5,0-1.1,0-1.6c-1.2-2.9-3.5-5-7.5-4.2c-2,0.3-3.7,1.9-4.2,3.9c-0.5,2.2-0.8,4.4-0.8,6.6h0.7&#10;&#9;&#9;&#9;&#9;h0.3h0.5l3,0.1c1.3,0,2.7,0,4-0.1c0.9,0.1,1.8,0,2.7-0.2c0.4-0.1,0.6-0.4,0.8-0.7c0.2-0.5,0.3-1.1,0.4-1.6c0-0.2,0-0.3,0.1-0.5&#10;&#9;&#9;&#9;&#9;C45.2,158.7,45.2,158.1,45.2,157.6z" id="S1PQlbKgrW7"/>
			<path d="M37.5,140.1c2.2-2.4-1.2-5.1-3.5-4.1c-1.6,0.7-2.9,3-1,4c0.7,0.4,1.5,0.7,2.3,0.8&#10;&#9;&#9;&#9;&#9;C36.1,140.9,37,140.6,37.5,140.1z" id="Sk_me-KeSZX"/>
			<path d="M32.2,144.6c1-1.4-1.8-2.9-2.8-1.8s0.3,1.9,1.2,2.1C31.3,145.1,31.9,145,32.2,144.6z" id="H1K7lbYlB-Q"/>
			<path d="M39.9,146.9c0.4-0.3,0.5-0.8,0.3-1.3c-0.1-0.1-0.2-0.2-0.3-0.3c-0.8-0.4-2,0.3-1.5,1.3&#10;&#9;&#9;&#9;&#9;c0.2,0.5,0.8,0.7,1.3,0.5C39.7,147,39.8,147,39.9,146.9z" id="HycXebtgSZm"/>
		</g></g>
		<path d="M119.4,110.7c-0.9,3.3-2.4,6.3-4.5,9l0,0c0,0.1-0.1,0.1-0.1,0.2c-1.1,1.4-2.4,2.6-3.7,3.7&#10;&#9;&#9;&#9;c-5.3,4.3-12.5,3.5-17.2,3c-1.1-0.1-2.1-0.2-3.2-0.2c-1.1,0.1-5.1,1.1-9,2c-6.6,1.6-14.8,3.6-20.9,4.4c-9.3,1.3-25.2,1-28.6,1&#10;&#9;&#9;&#9;c-2.7,0.5-5.4,0.7-8.1,0.7c-6.7-0.1-13.4-0.9-19.9-2.1c-2.9-0.7-4.7-3.5-4.1-6.4c0.3-2.1,1.9-3.9,4-4.4c0.7-0.1,1.3-0.1,2,0&#10;&#9;&#9;&#9;c4.6,0.9,18,3,24.5,1.4c0.4-0.1,0.8-0.1,1.2-0.1c0.2,0,18.3,0.4,27.7-0.9c5.6-0.8,13.5-2.7,19.9-4.2c3.4-0.9,6.8-1.7,10.3-2.2&#10;&#9;&#9;&#9;c1.7-0.1,3.4,0,5.1,0.2c2.7,0.3,6.1,0.7,8.5-0.1c0.6-0.2,1.1-0.4,1.6-0.8c3.5-2.9,5.4-7.2,5.1-11.8c-0.5-2.9,1.4-5.7,4.3-6.2h0.3&#10;&#9;&#9;&#9;c2.8-0.2,5.2,1.9,5.5,4.7C120.5,104.6,120.2,107.7,119.4,110.7z" id="BJsmlZteHZQ"/>
	</g></g></g>
	<g id="BJnXx-teB-Q_H1mPFeSZQ" data-animator-group="true" data-animator-type="0"><g id="BJnXx-teB-Q_SJHzYeHZ7" data-animator-group="true" data-animator-type="2"><g id="BJnXx-teB-Q">
		<path d="M134.7,0.4c-4.2-0.4-8.5-0.5-12.7-0.2c-9.6,0.6-18.6,4.9-25.2,11.9c-7.3,7.6-11.5,17.6-14.2,27.7&#10;&#9;&#9;&#9;c-2.2,8.4-3.7,17-4.6,25.7c-0.9,7.3-3.6,20.8,4.7,24.3c6.9,2.9,15.7,3.8,23,5c10.3,1.8,20.7,2.8,31.1,2.9c9,0,18.2-0.7,26.9-3.2&#10;&#9;&#9;&#9;c4.3-1.2,20.4-6.5,21.1-12.1c0.5-5.1,0.6-10.3,0.4-15.4c-0.5-15.1-3.4-31.1-11.6-44c-4.5-7.3-11-13.1-18.6-16.8&#10;&#9;&#9;&#9;C148.6,3,141.7,1.1,134.7,0.4z" id="S1pQx-Fgr-7"/>
		<path d="M99.1,50.7c0.1,1.5-0.5,2.9-1.7,3.8c-4.3,3.3-7.3-1.8-6.8-5.9c0.3-2.5,2.6-6.8,5.4-4&#10;&#9;&#9;&#9;C97.7,46.2,98.8,48.3,99.1,50.7z" id="HkAQg-FeB-7"/>
		<path d="M166,50c0.1,2.7-0.9,5.4-3.3,5.5c-1.5,0.1-2.7-1-3.8-2c-3.1-3.1-0.9-11.3,4.4-9.2&#10;&#9;&#9;&#9;C165,45.1,165.9,47.6,166,50z" id="ByJVgZYeHb7"/>
		<path d="M174.4,55.9c-0.7-0.1-1.3-0.1-2,0c-4.7,0.6-7.4,5.8-2.6,8.7c2.2,1.4,7.5,1.2,9-1.2c1-1.9,0.7-4.1-0.8-5.7&#10;&#9;&#9;&#9;C177,56.8,175.7,56.1,174.4,55.9z" id="r1l4x-FeBZ7"/>
		<path d="M88.2,66.4c-1.8-0.2-3.8-0.9-4.6-2.5c-2.2-4,1.3-6.3,5.1-6.3c1.9,0,3.7,0.5,5.2,1.6c1.7,1.4,1.8,4,0.4,5.6&#10;&#9;&#9;&#9;c0,0-0.1,0.1-0.1,0.1C92.7,66.5,90.2,66.6,88.2,66.4z" id="HkZEx-tgB-m"/>
		<g id="ryM4ebtlrb7">
			<path id="rkmNgbtgBZX" d="M141.9,77.3c0,6.5-4.8,11.8-10.8,11.8c-6,0-10.8-5.3-10.8-11.8c0-6.5,4.8-11.8,10.8-11.8&#10;&#9;&#9;&#9;&#9;C137.1,65.5,141.9,70.8,141.9,77.3z"/>
		</g>
	</g></g></g>
</g>
<script>(function(){var a=document.querySelector('#Hk_lx-YgSbm'),b=a.querySelectorAll('style'),c=function(d){b.forEach(function(f){var g=f.textContent;g&amp;&amp;(f.textContent=g.replace(/transform-box:[^;\r\n]*/gi,'transform-box: '+d))})};c('initial'),window.requestAnimationFrame(function(){return c('fill-box')})})();</script></svg>