<svg version="1.1" id="SkXlaRITDlQ" xmlns="http://www.w3.org/2000/svg" xmlns:xlink="http://www.w3.org/1999/xlink" x="0px" y="0px" viewBox="0 0 361 305" style="enable-background:new 0 0 361.1 305.2;" xml:space="preserve"><style>@-webkit-keyframes HJpZaRUTDem_H1WFw6veX_Animation{25%{-webkit-transform: scale(0, 0);transform: scale(0, 0);}35%{-webkit-transform: scale(1, 1);transform: scale(1, 1);}40%{-webkit-transform: scale(0.8, 0.8);transform: scale(0.8, 0.8);}45%{-webkit-transform: scale(1, 1);transform: scale(1, 1);}75%{-webkit-transform: scale(1, 1);transform: scale(1, 1);}85%{-webkit-transform: scale(0, 0);transform: scale(0, 0);}0%{-webkit-transform: scale(0, 0);transform: scale(0, 0);}100%{-webkit-transform: scale(0, 0);transform: scale(0, 0);}}@keyframes HJpZaRUTDem_H1WFw6veX_Animation{25%{-webkit-transform: scale(0, 0);transform: scale(0, 0);}35%{-webkit-transform: scale(1, 1);transform: scale(1, 1);}40%{-webkit-transform: scale(0.8, 0.8);transform: scale(0.8, 0.8);}45%{-webkit-transform: scale(1, 1);transform: scale(1, 1);}75%{-webkit-transform: scale(1, 1);transform: scale(1, 1);}85%{-webkit-transform: scale(0, 0);transform: scale(0, 0);}0%{-webkit-transform: scale(0, 0);transform: scale(0, 0);}100%{-webkit-transform: scale(0, 0);transform: scale(0, 0);}}@-webkit-keyframes H1mMa0LpweQ_r1IXw6PeQ_Animation{0%{-webkit-transform: scale(0, 0);transform: scale(0, 0);}10%{-webkit-transform: scale(1, 1);transform: scale(1, 1);}15%{-webkit-transform: scale(0.8, 0.8);transform: scale(0.8, 0.8);}20%{-webkit-transform: scale(1, 1);transform: scale(1, 1);}65%{-webkit-transform: scale(1, 1);transform: scale(1, 1);}75%{-webkit-transform: scale(0, 0);transform: scale(0, 0);}100%{-webkit-transform: scale(0, 0);transform: scale(0, 0);}}@keyframes H1mMa0LpweQ_r1IXw6PeQ_Animation{0%{-webkit-transform: scale(0, 0);transform: scale(0, 0);}10%{-webkit-transform: scale(1, 1);transform: scale(1, 1);}15%{-webkit-transform: scale(0.8, 0.8);transform: scale(0.8, 0.8);}20%{-webkit-transform: scale(1, 1);transform: scale(1, 1);}65%{-webkit-transform: scale(1, 1);transform: scale(1, 1);}75%{-webkit-transform: scale(0, 0);transform: scale(0, 0);}100%{-webkit-transform: scale(0, 0);transform: scale(0, 0);}}@-webkit-keyframes HkU-aCU6wl7_SylMw6PlX_Animation{0%{-webkit-transform: scale(1, 1);transform: scale(1, 1);}25%{-webkit-transform: scale(1.2, 1.2);transform: scale(1.2, 1.2);}50%{-webkit-transform: scale(1, 1);transform: scale(1, 1);}75%{-webkit-transform: scale(1.2, 1.2);transform: scale(1.2, 1.2);}100%{-webkit-transform: scale(1, 1);transform: scale(1, 1);}}@keyframes HkU-aCU6wl7_SylMw6PlX_Animation{0%{-webkit-transform: scale(1, 1);transform: scale(1, 1);}25%{-webkit-transform: scale(1.2, 1.2);transform: scale(1.2, 1.2);}50%{-webkit-transform: scale(1, 1);transform: scale(1, 1);}75%{-webkit-transform: scale(1.2, 1.2);transform: scale(1.2, 1.2);}100%{-webkit-transform: scale(1, 1);transform: scale(1, 1);}}@-webkit-keyframes H1cW6RLawgX_Animation{0%{opacity: 0;}5%{opacity: 1;}10%{opacity: 0;}100%{opacity: 0;}}@keyframes H1cW6RLawgX_Animation{0%{opacity: 0;}5%{opacity: 1;}10%{opacity: 0;}100%{opacity: 0;}}@-webkit-keyframes ryDZTCL6PxX_Animation{0%{opacity: 1;}5%{opacity: 0;}10%{opacity: 1;}100%{opacity: 1;}}@keyframes ryDZTCL6PxX_Animation{0%{opacity: 1;}5%{opacity: 0;}10%{opacity: 1;}100%{opacity: 1;}}#SkXlaRITDlQ *{-webkit-animation-duration: 2s;animation-duration: 2s;-webkit-animation-iteration-count: infinite;animation-iteration-count: infinite;-webkit-animation-timing-function: cubic-bezier(0, 0, 1, 1);animation-timing-function: cubic-bezier(0, 0, 1, 1);}#B1HlaALTwxX{fill: #EBF9FA;}#B1UgpCIaDlm{fill: #8EBABF;}#ByPeTCIavem{fill: #9FD4D4;}#Skdl6RL6vlm{fill: #EBF9FA;}#r1FxaCIaPgX{fill: #EBF9FA;}#HJql6AI6wxX{fill: #EBF9FA;}#rJjeTA8TveQ{fill: #EBF9FA;}#Bk2g6RUawlX{fill: #EBF9FA;}#ry6lpAIpPx7{fill: #D8EAEB;}#HyAeTRUaPlm{fill: #EBF9FA;}#rkkW608pDxm{fill: #EBF9FA;}#BkebT086Px7{fill: #EBF9FA;}#r1b-pRUpDgm{fill: #EBF9FA;}#rJf-aRIpwe7{fill: #EBF9FA;}#SkQWpCU6De7{fill: #EBF9FA;}#SkEZTCUTvlX{fill: #EBF9FA;}#B1SW6R86vxm{fill: #EBF9FA;}#HkU-aCU6wl7{fill: none;stroke: #8EBABF;stroke-width: 3;stroke-linecap: round;stroke-miterlimit: 10;}#S1_ZTC8pPx7{fill: #8EBABF;}#SJtbaAIaDeX{fill: #8EBABF;}#H1ib60Upvg7{fill: none;stroke: #8EBABF;stroke-width: 3;stroke-linecap: round;stroke-miterlimit: 10;}#BynZTAI6Dl7{fill: none;stroke: #8EBABF;stroke-width: 3;stroke-linecap: round;stroke-miterlimit: 10;}#r1CbaCLpvem{fill: #2B2B38;}#BkkG6RLTDeX{fill: #DD4E31;}#HylMpR86veX{fill: #25C9EF;}#H1bz6CU6wgm{fill: #DD4E31;}#ryzfa0IavlX{fill: #25C9EF;}#HkVfaC86wx7{fill: #DD4E31;}#rkrGTCLpPgQ{fill: #F9CA35;}#BkIGTAITwlX{fill: #2B2B38;}#ryDZTCL6PxX{-webkit-animation-name: ryDZTCL6PxX_Animation;animation-name: ryDZTCL6PxX_Animation;-webkit-transform-origin: 50% 50%;transform-origin: 50% 50%;transform-box: fill-box;opacity: 1;}#H1cW6RLawgX{-webkit-animation-name: H1cW6RLawgX_Animation;animation-name: H1cW6RLawgX_Animation;-webkit-transform-origin: 50% 50%;transform-origin: 50% 50%;transform-box: fill-box;opacity: 0;}#HkU-aCU6wl7_SylMw6PlX{-webkit-animation-name: HkU-aCU6wl7_SylMw6PlX_Animation;animation-name: HkU-aCU6wl7_SylMw6PlX_Animation;-webkit-transform-origin: 50% 100%;transform-origin: 50% 100%;transform-box: fill-box;-webkit-transform: scale(1, 1);transform: scale(1, 1);}#H1mMa0LpweQ_r1IXw6PeQ{-webkit-animation-name: H1mMa0LpweQ_r1IXw6PeQ_Animation;animation-name: H1mMa0LpweQ_r1IXw6PeQ_Animation;-webkit-transform-origin: 50% 50%;transform-origin: 50% 50%;transform-box: fill-box;-webkit-transform: scale(0, 0);transform: scale(0, 0);}#HJpZaRUTDem_H1WFw6veX{-webkit-animation-name: HJpZaRUTDem_H1WFw6veX_Animation;animation-name: HJpZaRUTDem_H1WFw6veX_Animation;-webkit-transform-origin: 50% 50%;transform-origin: 50% 50%;transform-box: fill-box;}</style>

<title>Asset 12</title>
<g id="HyVlpAL6weQ">
	<path d="M40.6,0h277.1c3.5,0,6.3,2.8,6.4,6.3c0,0,0,0,0,0v265.2c0,3.5-2.8,6.4-6.4,6.4l0,0H40.6&#10;&#9;&#9;c-3.5,0-6.3-2.8-6.3-6.4l0,0V6.3C34.2,2.8,37.1,0,40.6,0z" id="B1HlaALTwxX"/>
	<path d="M317.6,0H40.6c-3.5,0-6.3,2.8-6.3,6.3v16.1H324V6.3C324,2.8,321.1,0,317.6,0z" id="B1UgpCIaDlm"/>
	<rect x="34.2" y="22.1" width="289.8" height="5" id="ByPeTCIavem"/>
	<path d="M90.7,5.7h182.7c1.7,0,3,1.3,3,3v5.1c0,1.7-1.3,3-3,3H90.7c-1.7,0-3-1.3-3-3V8.7C87.7,7.1,89.1,5.7,90.7,5.7z" id="Skdl6RL6vlm"/>
	<path d="M287.9,5.7h19.2c1.7,0,3,1.3,3,3v5.1c0,1.7-1.3,3-3,3h-19.2c-1.7,0-3-1.3-3-3V8.7&#10;&#9;&#9;C284.9,7.1,286.2,5.7,287.9,5.7z" id="r1FxaCIaPgX"/>
	<path d="M54.1,11.2c0,2.1-1.7,3.8-3.8,3.8c-2.1,0-3.8-1.7-3.8-3.8s1.7-3.8,3.8-3.8c0,0,0,0,0,0&#10;&#9;&#9;C52.4,7.4,54.1,9.1,54.1,11.2z" id="HJql6AI6wxX"/>
	<path d="M65.4,11.2c0,2.1-1.7,3.8-3.8,3.8c-2.1,0-3.8-1.7-3.8-3.8s1.7-3.8,3.8-3.8c0,0,0,0,0,0&#10;&#9;&#9;C63.7,7.4,65.4,9.1,65.4,11.2z" id="rJjeTA8TveQ"/>
	<path d="M76.6,11.2c0,2.1-1.7,3.8-3.8,3.8c-2.1,0-3.8-1.7-3.8-3.8s1.7-3.8,3.8-3.8c0,0,0,0,0,0&#10;&#9;&#9;C74.9,7.4,76.6,9.1,76.6,11.2z" id="Bk2g6RUawlX"/>
	<path d="M42.6,271.6c0-1.3,1.3-2.3,3-2.3h267c1.6,0,3,1,3,2.3s-1.4,2.3-3,2.3h-267C44,273.9,42.6,272.8,42.6,271.6z" id="ry6lpAIpPx7"/>
	<path d="M17.2,115.9h-2.9c0-11,8.9-19.9,19.9-19.9v2.9C24.8,98.9,17.2,106.5,17.2,115.9&#10;&#9;&#9;C17.2,115.9,17.2,115.9,17.2,115.9z" id="HyAeTRUaPlm"/>
	<path d="M20.6,119.3c0,2.7-2.2,4.9-4.8,4.9s-4.9-2.2-4.9-4.8c0-2.7,2.2-4.9,4.8-4.9c0,0,0,0,0,0&#10;&#9;&#9;C18.5,114.4,20.6,116.6,20.6,119.3z" id="rkkW608pDxm"/>
	<path d="M343.9,115.9H341c0-9.4-7.6-17-17-17V96C335,96,343.9,104.9,343.9,115.9z" id="BkebT086Px7"/>
	<path d="M337.6,119.3c0,2.7,2.2,4.9,4.9,4.9c2.7,0,4.9-2.2,4.9-4.8s-2.2-4.9-4.8-4.9c0,0,0,0,0,0&#10;&#9;&#9;C339.8,114.4,337.6,116.6,337.6,119.3z" id="r1b-pRUpDgm"/>
	<rect x="128.5" y="277.9" width="2.9" height="27.4" id="rJf-aRIpwe7"/>
	<path d="M131.4,305.2c-0.2-4.1-3.6-7.3-7.7-7.1c-3.9,0.1-7,3.3-7.1,7.1H131.4z" id="SkQWpCU6De7"/>
	<rect x="226.8" y="277.9" width="2.9" height="27.4" id="SkEZTCUTvlX"/>
	<path d="M226.8,305.2c0.2-4.1,3.6-7.3,7.7-7.1c3.9,0.1,7,3.3,7.1,7.1H226.8z" id="B1SW6R86vxm"/>
	<g id="HkU-aCU6wl7_SylMw6PlX" data-animator-group="true" data-animator-type="2"><path d="M146.1,115.4c22,10.6,44,10.6,66,0" id="HkU-aCU6wl7"/></g>
	<g id="ryDZTCL6PxX">
		<circle cx="91.7" cy="81.7" r="8.5" id="S1_ZTC8pPx7"/>
		<circle cx="266.5" cy="81.7" r="8.5" id="SJtbaAIaDeX"/>
	</g>
	<g id="H1cW6RLawgX">
		<line x1="79.5" y1="81.7" x2="103.9" y2="81.7" id="H1ib60Upvg7"/>
		<line x1="254.3" y1="81.7" x2="278.7" y2="81.7" id="BynZTAI6Dl7"/>
	</g>
	<g id="HJpZaRUTDem_H1WFw6veX" data-animator-group="true" data-animator-type="2"><g id="HJpZaRUTDem">
		<rect x="228.2" y="250.4" width="132.8" height="4.6" id="r1CbaCLpvem"/>
		<rect x="233.5" y="197.2" width="21.2" height="47.1" id="BkkG6RLTDeX"/>
		<rect x="266.9" y="179.7" width="21.2" height="64.7" id="HylMpR86veX"/>
		<rect x="300.2" y="186" width="21.2" height="58.3" id="H1bz6CU6wgm"/>
		<rect x="333.6" y="163.6" width="21.2" height="80.8" id="ryzfa0IavlX"/>
	</g></g>
	<g id="H1mMa0LpweQ_r1IXw6PeQ" data-animator-group="true" data-animator-type="2"><g id="H1mMa0LpweQ">
		<path d="M97.8,164.4c-11.5-10.1-26-16.1-41.2-17.1v58.3L97.8,164.4z" id="HkVfaC86wx7"/>
		<path d="M56.6,215.1v51.7c29.3-1.8,51.6-27.1,49.7-56.4c-0.7-11.8-5.4-23-13.2-31.8L56.6,215.1z" id="rkrGTCLpPgQ"/>
		<path d="M0,213.7c0,28.1,21.8,51.3,49.8,53.1V160.6C21.8,162.4,0,185.7,0,213.7z" id="BkIGTAITwlX"/>
	</g></g>
</g>
<script>(function(){var a=document.querySelector('#SkXlaRITDlQ'),b=a.querySelectorAll('style'),c=function(d){b.forEach(function(f){var g=f.textContent;g&amp;&amp;(f.textContent=g.replace(/transform-box:[^;\r\n]*/gi,'transform-box: '+d))})};c('initial'),window.requestAnimationFrame(function(){return c('fill-box')})})();</script></svg>