<svg version="1.1" id="SkwSQave7" xmlns="http://www.w3.org/2000/svg" xmlns:xlink="http://www.w3.org/1999/xlink" x="0px" y="0px" viewBox="0 0 459 322" style="enable-background:new 0 0 459.9 322.6;" xml:space="preserve"><style>@-webkit-keyframes By0DBm6wxQ_rkzkNpwgQ_Animation{0%{-webkit-transform: scale(1, 1);transform: scale(1, 1);}50%{-webkit-transform: scale(1.2, 1.2);transform: scale(1.2, 1.2);}100%{-webkit-transform: scale(1, 1);transform: scale(1, 1);}}@keyframes By0DBm6wxQ_rkzkNpwgQ_Animation{0%{-webkit-transform: scale(1, 1);transform: scale(1, 1);}50%{-webkit-transform: scale(1.2, 1.2);transform: scale(1.2, 1.2);}100%{-webkit-transform: scale(1, 1);transform: scale(1, 1);}}@-webkit-keyframes SkGxDSXavgQ_Animation{0%{opacity: 0;}10%{opacity: 1;}20%{opacity: 0;}100%{opacity: 0;}}@keyframes SkGxDSXavgQ_Animation{0%{opacity: 0;}10%{opacity: 1;}20%{opacity: 0;}100%{opacity: 0;}}@-webkit-keyframes HJ1gPH76vem_Animation{0%{opacity: 1;}10%{opacity: 0;}20%{opacity: 1;}100%{opacity: 1;}}@keyframes HJ1gPH76vem_Animation{0%{opacity: 1;}10%{opacity: 0;}20%{opacity: 1;}100%{opacity: 1;}}@-webkit-keyframes HySlPrX6vx7_HyJ876vlQ_Animation{0%{-webkit-transform: rotate(0deg);transform: rotate(0deg);}50%{-webkit-transform: rotate(20deg);transform: rotate(20deg);}100%{-webkit-transform: rotate(0deg);transform: rotate(0deg);}}@keyframes HySlPrX6vx7_HyJ876vlQ_Animation{0%{-webkit-transform: rotate(0deg);transform: rotate(0deg);}50%{-webkit-transform: rotate(20deg);transform: rotate(20deg);}100%{-webkit-transform: rotate(0deg);transform: rotate(0deg);}}@-webkit-keyframes ryxZDHmTDl7_By-IXTwgQ_Animation{0%{-webkit-transform: rotate(0deg);transform: rotate(0deg);}50%{-webkit-transform: rotate(-20deg);transform: rotate(-20deg);}100%{-webkit-transform: rotate(0deg);transform: rotate(0deg);}}@keyframes ryxZDHmTDl7_By-IXTwgQ_Animation{0%{-webkit-transform: rotate(0deg);transform: rotate(0deg);}50%{-webkit-transform: rotate(-20deg);transform: rotate(-20deg);}100%{-webkit-transform: rotate(0deg);transform: rotate(0deg);}}#SkwSQave7 *{-webkit-animation-duration: 1s;animation-duration: 1s;-webkit-animation-iteration-count: infinite;animation-iteration-count: infinite;-webkit-animation-timing-function: cubic-bezier(0, 0, 1, 1);animation-timing-function: cubic-bezier(0, 0, 1, 1);}#HkbwrXpwem{fill: #EBF9FA;}#BkfvrX6Pg7{fill: #8EBABF;}#rkmwH76wg7{fill: #9FD4D4;}#HkVPrmTvgX{fill: #EBF9FA;}#HyBvHQTveX{fill: #EBF9FA;}#ByLDH76Px7{fill: #EBF9FA;}#HywwBmpwem{fill: #EBF9FA;}#B1_PrQpDeX{fill: #EBF9FA;}#ryFDHmpvgm{fill: #D8EAEB;}#ByqvrQTPg7{fill: #EBF9FA;}#ryswSmTvlm{fill: #EBF9FA;}#SknvH7aDlX{fill: #EBF9FA;}#r1aPSQaDeX{fill: #EBF9FA;}#By0DBm6wxQ{fill: none;stroke: #8EBABF;stroke-width: 3;stroke-linecap: round;stroke-miterlimit: 10;}#rJlewHXTDgm{fill: #8EBABF;}#HJWxPS76ve7{fill: #8EBABF;}#S1mlDSmawlQ{fill: none;stroke: #8EBABF;stroke-width: 3;stroke-linecap: round;stroke-miterlimit: 10;}#SkNlwHQawl7{fill: none;stroke: #8EBABF;stroke-width: 3;stroke-linecap: round;stroke-miterlimit: 10;}#B18gvB7pvxQ{fill: #EBF9FA;}#HyvlPrmawlX{fill: #EBF9FA;}#rJdgwH7aPlX{fill: #E1913E;}#SyKlDrm6DxX{fill: #1A3846;}#SycewBmaPgX{fill: #3C6171;}#r1jxDr7aPxQ{fill: #3C6171;}#r12xvS7pDl7{fill: #EBF9FA;}#S16lwrXpDxQ{fill: #EBF9FA;}#B10lvSmTPxm{fill: #EBF9FA;}#SkyWPBXpwxm{fill: #EBF9FA;}#ryWWwBXpwl7{fill: #EBF9FA;}#H1GZDrXaPx7{fill: #EBF9FA;}#SyXbvHQ6wg7{fill: #EBF9FA;}#BJVZvBXTDg7{fill: #86949A;}#ByrZPSQaDgX{fill: #AEAEAE;}#HJ8WPSm6wgm{opacity: 0.3;}#ryuWvSQ6wgQ{-webkit-clip-path: url(#SVGID_2_);clip-path: url(#SVGID_2_);}#S1FWDBX6wlX{fill: #FFFFFF;}#SyqZwBX6DgX{fill: #FFFFFF;}#r1j-wr7TDx7{fill: #FFFFFF;}#rk3ZPSQpPxX{fill: #FFFFFF;}#SkaZvSQawe7{fill: #FFFFFF;}#S1AbPSXpvgQ{fill: #E1913E;}#SkkMDB7aDlQ{fill: #EBF9FA;}#rJlfwBmTwxm{fill: #EBF9FA;}#rkbMDH7pDeX{fill: #EBF9FA;}#r1zMDrXaveQ{fill: #EBF9FA;}#ryxZDHmTDl7_By-IXTwgQ{-webkit-animation-name: ryxZDHmTDl7_By-IXTwgQ_Animation;animation-name: ryxZDHmTDl7_By-IXTwgQ_Animation;-webkit-transform-origin: 0% 100%;transform-origin: 0% 100%;transform-box: fill-box;-webkit-transform: rotate(0deg);transform: rotate(0deg);}#HySlPrX6vx7_HyJ876vlQ{-webkit-animation-name: HySlPrX6vx7_HyJ876vlQ_Animation;animation-name: HySlPrX6vx7_HyJ876vlQ_Animation;-webkit-transform-origin: 100% 100%;transform-origin: 100% 100%;transform-box: fill-box;-webkit-transform: rotate(0deg);transform: rotate(0deg);}#HJ1gPH76vem{-webkit-animation-name: HJ1gPH76vem_Animation;animation-name: HJ1gPH76vem_Animation;-webkit-transform-origin: 50% 50%;transform-origin: 50% 50%;transform-box: fill-box;}#SkGxDSXavgQ{-webkit-animation-name: SkGxDSXavgQ_Animation;animation-name: SkGxDSXavgQ_Animation;-webkit-transform-origin: 50% 50%;transform-origin: 50% 50%;transform-box: fill-box;}#By0DBm6wxQ_rkzkNpwgQ{-webkit-animation-name: By0DBm6wxQ_rkzkNpwgQ_Animation;animation-name: By0DBm6wxQ_rkzkNpwgQ_Animation;-webkit-transform-origin: 50% 100%;transform-origin: 50% 100%;transform-box: fill-box;}</style>

<title>Asset 10</title>
<g id="BJgPrmTDe7">
	<path d="M87.6,17.3h277.1c3.5,0,6.3,2.8,6.4,6.3c0,0,0,0,0,0v265.2c0,3.5-2.8,6.4-6.4,6.4l0,0H87.6&#10;&#9;&#9;c-3.5,0-6.3-2.8-6.3-6.4l0,0V23.7C81.2,20.2,84.1,17.3,87.6,17.3z" id="HkbwrXpwem"/>
	<path d="M364.6,17.3H87.6c-3.5,0-6.3,2.8-6.3,6.3v16.1H371V23.7C371,20.2,368.1,17.3,364.6,17.3z" id="BkfvrX6Pg7"/>
	<rect x="81.2" y="39.4" width="289.8" height="5" id="rkmwH76wg7"/>
	<path d="M137.7,23h182.7c1.7,0,3,1.3,3,3v5.1c0,1.7-1.3,3-3,3H137.7c-1.7,0-3-1.3-3-3V26C134.7,24.4,136.1,23,137.7,23&#10;&#9;&#9;z" id="HkVPrmTvgX"/>
	<path d="M334.9,23h19.2c1.7,0,3,1.3,3,3v5.1c0,1.7-1.3,3-3,3h-19.2c-1.7,0-3-1.3-3-3V26C331.9,24.4,333.2,23,334.9,23z&#10;&#9;&#9;" id="HyBvHQTveX"/>
	<path d="M101.1,28.6c0,2.1-1.7,3.8-3.8,3.8s-3.8-1.7-3.8-3.8s1.7-3.8,3.8-3.8l0,0C99.4,24.8,101.1,26.5,101.1,28.6z" id="ByLDH76Px7"/>
	<path d="M112.4,28.6c0,2.1-1.7,3.8-3.8,3.8s-3.8-1.7-3.8-3.8s1.7-3.8,3.8-3.8l0,0C110.7,24.8,112.4,26.5,112.4,28.6z" id="HywwBmpwem"/>
	<path d="M123.7,28.6c0,2.1-1.7,3.8-3.8,3.8s-3.8-1.7-3.8-3.8s1.7-3.8,3.8-3.8l0,0C121.9,24.8,123.7,26.5,123.7,28.6z" id="B1_PrQpDeX"/>
	<path d="M89.6,288.9c0-1.3,1.3-2.3,3-2.3h266.9c1.7,0,3,1,3,2.3s-1.3,2.3-3,2.3H92.6C91,291.2,89.6,290.2,89.6,288.9z" id="ryFDHmpvgm"/>
	<rect x="175.5" y="295.2" width="2.9" height="27.4" id="ByqvrQTPg7"/>
	<path d="M178.4,322.6c-0.2-4.1-3.6-7.3-7.7-7.1c-3.9,0.1-7,3.3-7.1,7.1H178.4z" id="ryswSmTvlm"/>
	<rect x="273.8" y="295.2" width="2.9" height="27.4" id="SknvH7aDlX"/>
	<path d="M273.8,322.6c0.2-4.1,3.6-7.3,7.7-7.1c3.9,0.1,7,3.3,7.1,7.1H273.8z" id="r1aPSQaDeX"/>
	<g id="By0DBm6wxQ_rkzkNpwgQ" data-animator-group="true" data-animator-type="2"><path d="M193.1,132.8c22,10.6,44,10.6,66,0" id="By0DBm6wxQ"/></g>
	<g id="HJ1gPH76vem">
		<circle cx="138.7" cy="99.1" r="8.5" id="rJlewHXTDgm"/>
		<circle cx="313.5" cy="99.1" r="8.5" id="HJWxPS76ve7"/>
	</g>
	<g id="SkGxDSXavgQ">
		<line x1="126.5" y1="99.2" x2="150.9" y2="99.2" id="S1mlDSmawlQ"/>
		<line x1="301.3" y1="99.2" x2="325.7" y2="99.2" id="SkNlwHQawl7"/>
	</g>
	<g id="HySlPrX6vx7_HyJ876vlQ" data-animator-group="true" data-animator-type="1"><g id="HySlPrX6vx7">
		<path d="M64.2,121.6h-2.9c0,11,8.9,19.9,19.9,19.9v-2.9C71.9,138.6,64.2,131,64.2,121.6z" id="B18gvB7pvxQ"/>
		<path d="M67.6,118.2c0-2.7-2.2-4.9-4.9-4.9s-4.9,2.2-4.9,4.9s2.2,4.9,4.9,4.9C65.5,123.1,67.6,120.9,67.6,118.2z" id="HyvlPrmawlX"/>
		<path d="M59.9,132.2c0,0-6.2-45.5-6-46.8c0,0-0.3-0.8,1.6-1.2c1.9-0.4,5.2-1,5.7-0.2c0.5,0.8,8.9,46.1,9,47&#10;&#9;&#9;&#9;C70.5,133.4,61.4,136,59.9,132.2z" id="rJdgwH7aPlX"/>
		<path d="M45.3,96.3c1.5-0.6,3.2-0.2,4.7-0.7c-0.3-1.2-0.6-2.4-0.8-3.6c-1.4,0.4-2.8,0.7-4.2,0.8L45.3,96.3z" id="SyKlDrm6DxX"/>
		<path d="M42,90.6c0.3,1.4,0.3,2.3,0.5,3.9c0.4,1.6,0.9,3.2,1.5,4.8l0,0c0.8-0.2,1.5-0.4,2.4-0.6c-0.2-3-0.7-6-1.6-8.8&#10;&#9;&#9;&#9;L42,90.6z" id="SycewBmaPgX"/>
		<path d="M49.4,98.7c-0.1-3.2-1.3-6.6-1.7-9.8c2.5-1.3,14.7-3.4,17.8-3.1c2.8,0.3,5.5,2.6,7.1,4.7&#10;&#9;&#9;&#9;c1.3,1.8,3.3,5.5,2.3,7.8c-1,2.3-2-0.8-3-1.8c-1.2-1.3-2.9-2-4.7-1.8C64.9,94.9,49.4,98.7,49.4,98.7z" id="r1jxDr7aPxQ"/>
		<path d="M56.3,118.8c0.1,0.5,0.6,0.9,1.1,0.8l5.7-0.8c0.5,0.1,1-0.4,1.1-0.9c0.1-0.5-0.4-1-0.9-1.1&#10;&#9;&#9;&#9;c-0.2,0-0.3,0-0.5,0.1l-5.7,0.8C56.6,117.8,56.3,118.2,56.3,118.8z" id="r12xvS7pDl7"/>
		<path d="M55.8,115.6c0.1,0.5,0.6,0.9,1.1,0.8l5.7-0.8c0.5,0.1,1-0.3,1.1-0.9c0.1-0.5-0.3-1-0.9-1.1&#10;&#9;&#9;&#9;c-0.2,0-0.3,0-0.5,0.1l-5.7,0.8C56.1,114.6,55.8,115.1,55.8,115.6z" id="S16lwrXpDxQ"/>
		<path d="M56.8,122c0.1,0.5,0.6,0.9,1.1,0.8l5.7-0.8c0.5-0.2,0.8-0.8,0.6-1.3c-0.1-0.4-0.5-0.6-0.9-0.6l-5.7,0.8&#10;&#9;&#9;&#9;C57.1,120.9,56.7,121.4,56.8,122z" id="B10lvSmTPxm"/>
		<path d="M62.8,112.6c0,0.3,0.1,0.5,0.3,0.7l4.2,3.9c0.5,0.3,1.1,0.1,1.4-0.4c0.2-0.3,0.2-0.7,0-1l-4.2-3.9&#10;&#9;&#9;&#9;c-0.4-0.3-1-0.3-1.4,0.1C62.9,112.1,62.8,112.3,62.8,112.6z" id="SkyWPBXpwxm"/>
	</g></g>
	<g id="ryxZDHmTDl7_By-IXTwgQ" data-animator-group="true" data-animator-type="1"><g id="ryxZDHmTDl7">
		<path d="M390.9,121.6H388c0,9.4-7.6,17-17,17v2.9C382,141.5,390.9,132.6,390.9,121.6z" id="ryWWwBXpwl7"/>
		<path d="M384.6,118.2c0-2.7,2.2-4.9,4.9-4.9c2.7,0,4.9,2.2,4.9,4.9s-2.2,4.9-4.9,4.9l0,0&#10;&#9;&#9;&#9;C386.8,123.1,384.6,120.9,384.6,118.2z" id="H1GZDrXaPx7"/>
		<path d="M382.5,114.4c-0.6,0-1,0.5-0.9,1.1c0,0.2,0.1,0.4,0.2,0.6l4.1,4.1c0.5,0.3,1.1,0.1,1.4-0.4&#10;&#9;&#9;&#9;c0.2-0.3,0.2-0.7,0-1l-4.1-4.1C383.1,114.5,382.8,114.4,382.5,114.4z" id="SyXbvHQ6wg7"/>
		<polygon points="451,40.7 444.5,42.5 446.5,48.5 440.9,50.6 442.7,56.2 437.8,57.7 439.1,63.2 433.6,64.3 435.1,70.8 &#10;&#9;&#9;&#9;429.5,71.9 431.2,78.1 425.7,79.4 427.8,85.3 421.4,86.7 424.2,93.4 417.9,94.6 420.8,100.9 413.7,101.9 417.9,109.7 415,110 &#10;&#9;&#9;&#9;384.8,95.9 429.6,28.6 &#9;&#9;" id="BJVZvBXTDg7"/>
		<polygon points="448.7,39.6 442.2,41.4 444.2,47.3 438.6,49.5 440.4,55.1 435.5,56.5 436.8,62.1 431.3,63.1 &#10;&#9;&#9;&#9;432.8,69.7 427.2,70.8 428.9,77 423.4,78.3 425.5,84.2 419.1,85.6 421.9,92.2 415.6,93.5 418.5,99.8 411.5,100.8 415.6,107.5 &#10;&#9;&#9;&#9;412.7,108.8 382.5,94.8 429.6,28.6 &#9;&#9;" id="ByrZPSQaDgX"/>
		<g id="HJ8WPSm6wgm">
			<g id="SkDbwSQawem">
				<defs>
					<polygon id="SVGID_1_" points="448.7,39.6 442.2,41.4 444.2,47.3 438.6,49.5 440.4,55.1 435.5,56.5 436.8,62.1 431.3,63.1 &#10;&#9;&#9;&#9;&#9;&#9;&#9;432.8,69.7 427.2,70.8 428.9,77 423.4,78.3 425.5,84.2 419.1,85.6 421.9,92.2 415.6,93.5 418.5,99.8 411.5,100.8 415.6,107.5 &#10;&#9;&#9;&#9;&#9;&#9;&#9;412.7,108.8 382.5,94.8 429.6,28.6 &#9;&#9;&#9;&#9;&#9;"/>
				</defs>
				<clipPath id="SVGID_2_">
					<use xlink:href="#SVGID_1_" style="overflow:visible;"/>
				</clipPath>
				<g id="ryuWvSQ6wgQ">
					<polygon points="456.1,51.4 459.9,44.3 408.3,45.4 404.5,52.5 &#9;&#9;&#9;&#9;&#9;" id="S1FWDBX6wlX"/>
					<polygon points="453,55.9 454.6,53 404.2,54 402.6,57 &#9;&#9;&#9;&#9;&#9;" id="SyqZwBX6DgX"/>
					<polygon points="441.5,77.2 447.1,66.8 394.2,67.9 388.6,78.3 &#9;&#9;&#9;&#9;&#9;" id="r1j-wr7TDx7"/>
					<polygon points="437.8,84.1 440.3,79.3 387.5,80.4 384.9,85.2 &#9;&#9;&#9;&#9;&#9;" id="rk3ZPSQpPxX"/>
					<polygon points="436.2,87 437,85.4 384.1,86.5 383.3,88.1 &#9;&#9;&#9;&#9;&#9;" id="SkaZvSQawe7"/>
				</g>
			</g>
		</g>
		<path d="M407.6,129c3.8-1,8.8-5.4,10.5-8.9c0.9-1.4,2.1-5.7,2-7.2c-0.1-0.4-0.2-1.7-0.6-2.1&#10;&#9;&#9;&#9;c-1.2-1.1-35.3-18.2-40-18.6c-1.2-0.1-3.4,4.1-4,5c-1.8,2.8-3.3,5.7-4.5,8.8c-3.5,8.4,9.5,11.6,15,13.8&#10;&#9;&#9;&#9;C392.6,122.1,400,131.3,407.6,129z M403.8,121.2c-4.3-0.3-7.6-3.2-11-5.3c-2.6-1.6-5.2-3.1-7.9-4.5c-1.8-0.9-4.1-2-5.5-3.6&#10;&#9;&#9;&#9;c-1-1.4-1.2-3.3-0.4-4.9c0.3-0.8,2.4-4.1,3.5-3.6c0.1,0,29.6,13.1,30.2,14.2s-0.2,2.8-0.8,3.8C410.2,120,407.1,121.5,403.8,121.2z&#10;&#9;&#9;&#9;" id="S1AbPSXpvgQ"/>
		<path d="M388,120.7c0.5,0.3,1,0.1,1.3-0.3l3.1-4.8c0.2-0.5-0.2-1.1-0.7-1.2c-0.3-0.1-0.7,0-1,0.2l-3.1,4.8&#10;&#9;&#9;&#9;C387.4,119.8,387.6,120.4,388,120.7z" id="SkkMDB7aDlQ"/>
		<path d="M385.2,118.9c0.5,0.3,1,0.1,1.3-0.3l3.1-4.9c0.2-0.5-0.2-1.1-0.7-1.2c-0.3-0.1-0.7,0-1,0.2l-3,4.8&#10;&#9;&#9;&#9;C384.7,118,384.8,118.6,385.2,118.9z" id="rJlfwBmTwxm"/>
		<path d="M390.7,122.3c0.5,0.3,1,0.1,1.3-0.3l3.1-4.9c0.1-0.5-0.2-1.1-0.7-1.2c-0.3-0.1-0.7,0-0.9,0.2l-3.1,4.9&#10;&#9;&#9;&#9;C390.1,121.5,390.3,122,390.7,122.3z" id="rkbMDH7pDeX"/>
		<path d="M383.5,113.7c-0.2,0.2-0.2,0.5-0.2,0.7l0.7,5.7c-0.1,0.5,0.3,1.1,0.9,1.1c0.5,0.1,1.1-0.3,1.1-0.9&#10;&#9;&#9;&#9;c0-0.2,0-0.3-0.1-0.5l-0.7-5.7c-0.1-0.5-0.6-0.9-1.1-0.8C383.9,113.4,383.6,113.5,383.5,113.7z" id="r1zMDrXaveQ"/>
	</g></g>
</g>
<script>(function(){var a=document.querySelector('#SkwSQave7'),b=a.querySelectorAll('style'),c=function(d){b.forEach(function(f){var g=f.textContent;g&amp;&amp;(f.textContent=g.replace(/transform-box:[^;\r\n]*/gi,'transform-box: '+d))})};c('initial'),window.requestAnimationFrame(function(){return c('fill-box')})})();</script></svg>