<svg version="1.1" id="BJOxiypk-ZX" xmlns="http://www.w3.org/2000/svg" xmlns:xlink="http://www.w3.org/1999/xlink" x="0px" y="0px" viewBox="0 0 270 380" style="enable-background:new 0 0 270 380;" xml:space="preserve"><style>@-webkit-keyframes BJEDjkay--7_Animation{33.33%{opacity: 0;}50%{opacity: 1;}66.67%{opacity: 1;}83.33%{opacity: 0;}0%{opacity: 0;}100%{opacity: 0;}}@keyframes BJEDjkay--7_Animation{33.33%{opacity: 0;}50%{opacity: 1;}66.67%{opacity: 1;}83.33%{opacity: 0;}0%{opacity: 0;}100%{opacity: 0;}}@-webkit-keyframes BJEDjkay--7_B1F2ayWb7_Animation{33.33%{-webkit-transform: translate(0px, 50px);transform: translate(0px, 50px);}83.33%{-webkit-transform: translate(0px, 0px);transform: translate(0px, 0px);}0%{-webkit-transform: translate(0px, 50px);transform: translate(0px, 50px);}100%{-webkit-transform: translate(0px, 0px);transform: translate(0px, 0px);}}@keyframes BJEDjkay--7_B1F2ayWb7_Animation{33.33%{-webkit-transform: translate(0px, 50px);transform: translate(0px, 50px);}83.33%{-webkit-transform: translate(0px, 0px);transform: translate(0px, 0px);}0%{-webkit-transform: translate(0px, 50px);transform: translate(0px, 50px);}100%{-webkit-transform: translate(0px, 0px);transform: translate(0px, 0px);}}@-webkit-keyframes Bkd8i16kbZ7_r1f46J-ZQ_Animation{16.67%{-webkit-transform: translate(0px, 70px);transform: translate(0px, 70px);}66.67%{-webkit-transform: translate(0px, 0px);transform: translate(0px, 0px);}0%{-webkit-transform: translate(0px, 70px);transform: translate(0px, 70px);}100%{-webkit-transform: translate(0px, 0px);transform: translate(0px, 0px);}}@keyframes Bkd8i16kbZ7_r1f46J-ZQ_Animation{16.67%{-webkit-transform: translate(0px, 70px);transform: translate(0px, 70px);}66.67%{-webkit-transform: translate(0px, 0px);transform: translate(0px, 0px);}0%{-webkit-transform: translate(0px, 70px);transform: translate(0px, 70px);}100%{-webkit-transform: translate(0px, 0px);transform: translate(0px, 0px);}}@-webkit-keyframes Bkd8i16kbZ7_Animation{16.67%{opacity: 0;}33.33%{opacity: 1;}50%{opacity: 1;}66.67%{opacity: 0;}0%{opacity: 0;}100%{opacity: 0;}}@keyframes Bkd8i16kbZ7_Animation{16.67%{opacity: 0;}33.33%{opacity: 1;}50%{opacity: 1;}66.67%{opacity: 0;}0%{opacity: 0;}100%{opacity: 0;}}@-webkit-keyframes BJVUjkakW-X_Animation{0%{opacity: 0;}16.67%{opacity: 1;}33.33%{opacity: 1;}50%{opacity: 0;}100%{opacity: 0;}}@keyframes BJVUjkakW-X_Animation{0%{opacity: 0;}16.67%{opacity: 1;}33.33%{opacity: 1;}50%{opacity: 0;}100%{opacity: 0;}}@-webkit-keyframes BJVUjkakW-X_rJCepJbWX_Animation{0%{-webkit-transform: translate(0px, 50px);transform: translate(0px, 50px);}50%{-webkit-transform: translate(0px, 0px);transform: translate(0px, 0px);}100%{-webkit-transform: translate(0px, 0px);transform: translate(0px, 0px);}}@keyframes BJVUjkakW-X_rJCepJbWX_Animation{0%{-webkit-transform: translate(0px, 50px);transform: translate(0px, 50px);}50%{-webkit-transform: translate(0px, 0px);transform: translate(0px, 0px);}100%{-webkit-transform: translate(0px, 0px);transform: translate(0px, 0px);}}@-webkit-keyframes SJENikayZZQ_rJKXA1b-X_Animation{50%{-webkit-transform: scale(1, 1);transform: scale(1, 1);}53.33%{-webkit-transform: scale(1, 0);transform: scale(1, 0);}56.67%{-webkit-transform: scale(1, 1);transform: scale(1, 1);}0%{-webkit-transform: scale(1, 1);transform: scale(1, 1);}100%{-webkit-transform: scale(1, 1);transform: scale(1, 1);}}@keyframes SJENikayZZQ_rJKXA1b-X_Animation{50%{-webkit-transform: scale(1, 1);transform: scale(1, 1);}53.33%{-webkit-transform: scale(1, 0);transform: scale(1, 0);}56.67%{-webkit-transform: scale(1, 1);transform: scale(1, 1);}0%{-webkit-transform: scale(1, 1);transform: scale(1, 1);}100%{-webkit-transform: scale(1, 1);transform: scale(1, 1);}}@-webkit-keyframes SJkNik6kbWX_rkIzRJ-Wm_Animation{50%{-webkit-transform: scale(1, 1);transform: scale(1, 1);}53.33%{-webkit-transform: scale(1, 0);transform: scale(1, 0);}56.67%{-webkit-transform: scale(1, 1);transform: scale(1, 1);}0%{-webkit-transform: scale(1, 1);transform: scale(1, 1);}100%{-webkit-transform: scale(1, 1);transform: scale(1, 1);}}@keyframes SJkNik6kbWX_rkIzRJ-Wm_Animation{50%{-webkit-transform: scale(1, 1);transform: scale(1, 1);}53.33%{-webkit-transform: scale(1, 0);transform: scale(1, 0);}56.67%{-webkit-transform: scale(1, 1);transform: scale(1, 1);}0%{-webkit-transform: scale(1, 1);transform: scale(1, 1);}100%{-webkit-transform: scale(1, 1);transform: scale(1, 1);}}#BJOxiypk-ZX *{-webkit-animation-duration: 3s;animation-duration: 3s;-webkit-animation-iteration-count: infinite;animation-iteration-count: infinite;-webkit-animation-timing-function: cubic-bezier(0, 0, 1, 1);animation-timing-function: cubic-bezier(0, 0, 1, 1);}#r1sxsJTJZbm{fill: #EEC09B;}#Sypgska1W-X{fill: #EEC09B;}#SkJ-ok6y-WX{fill: #EEC09B;}#S1bZjJpJbZm{fill: #252926;}#B1XWs161WZ7{fill: #EEC09B;}#rJHWjkTyWZ7{fill: #252926;}#BJvbj1Ty-bQ{fill: #3D096B;}#rJKWjkp1Wbm{fill: #A1A1AA;}#Hyo-sJp1W-m{fill: #7C7C82;}#rkTWsyTybZm{fill: #EDE6D7;}#r1kzsyTkbbm{fill: #EEC09B;}#SJbfsJ6J-bm{fill: #B4AFA4;}#H17GiyakWbm{fill: #9E998F;}#BkSMsyaJZZ7{fill: #EDE6D7;}#HkvGjkp1W-7{fill: #CBC4B8;}#rkKGokp1-b7{fill: #B4AFA4;}#BJozs1TJW-Q{fill: #D0C9BD;}#SkTfokpyb-Q{fill: #86827B;}#r11Qsy6JW-Q{fill: #540094;}#BJbmokaJbZX{fill: #3D096B;}#rJXXjJTybbQ{fill: #3D096B;}#ByB7okTk-W7{fill: #540094;}#rkdmiy6yZb7{fill: #DBA77F;}#By9Qo1p1--m{fill: #DBA77F;}#Sk3XjJpJbZQ{fill: #EEC09B;}#S1R7i1aybbm{fill: #FDD4B2;}#BJx4s16kZZQ{fill: #3A2914;}#ByMNok6y-WQ{fill: #E6E7E8;}#SJENikayZZQ{fill: #3A2914;}#H1UEiyayWWm{fill: #E6E7E8;}#BJOVoypk--7{fill: #E6E7E8;}#By94s161-W7{fill: #EEC09B;}#ryi4ok6kbb7{fill: #540094;}#rJn4okp1ZZm{fill: #FFCC00;}#Sy6NsJT1-bX{fill: #540094;}#rk0VokTJWZ7{fill: #FFCC00;}#SkyBjka1WWQ{fill: #FFCC00;}#B1xSoJpJbZQ{fill: #FFCC00;}#HJbHi1T1bZ7{fill: #FFCC00;}#Byzrjypk-Wm{fill: #FFCC00;}#S17rikT1-ZQ{fill: #FFCC00;}#Sy4BokTkbZ7{fill: #FFCC00;}#rkHriyak--Q{fill: #FFCC00;}#HJLHoJpkbZQ{fill: #FFCC00;}#ryDBjk61bbQ{fill: #FFCC00;}#HkuHiyayWbQ{fill: #FFCC00;}#H1FrskTkWbQ{fill: #FFCC00;}#HkiBokpJbWm{fill: #8A5D3B;}#BJpHoypkb-Q{fill: #704C31;}#Hk18jy6kZbX{fill: #755032;}#r1bIo1pyZbX{fill: #8A5D3B;}#B17Lo161--7{fill: #EEC09B;}#rkSUiJay-ZQ{fill: #FFCC00;}#SyLUoyTyZ-7{fill: #FFCC00;}#rywIj161bbm{fill: #FFCC00;}#BJYIsJT1WZQ{fill: #FFCC00;}#Sy98skay--7{fill: #FFCC00;}#ryiLj16Jb-m{fill: #FFCC00;}#SJaIiJpyW-m{fill: #FFCC00;}#rJRIsJT1W-7{fill: #FFCC00;}#rkJwjk61W-m{fill: #FFCC00;}#H1gwikakW-7{fill: #FFCC00;}#HkZPsk61Zbm{fill: #FFCC00;}#BJfwjJTkbW7{fill: #FFCC00;}#Hymvs1py-Z7{fill: #FFCC00;}#SJrwok61bWm{fill: #FFCC00;}#Hy8Do1a1-WX{fill: #FFCC00;}#SJDPjkTJb-m{fill: #FFCC00;}#BydwiyTyWbX{fill: #FFCC00;}#r1FDo1pkZbQ{fill: #FFCC00;}#B1cvokTkWZ7{fill: #FFCC00;}#rJovj1Ty-b7{fill: #FFCC00;}#Hy3wo1a1WWm{fill: #FFCC00;}#B1pPskTJb-Q{fill: #FFCC00;}#SJ0ws1pk-WX{fill: #FFCC00;}#r11dj1TkWW7{fill: #FFCC00;}#SJkNik6kbWX_rkIzRJ-Wm{-webkit-animation-name: SJkNik6kbWX_rkIzRJ-Wm_Animation;animation-name: SJkNik6kbWX_rkIzRJ-Wm_Animation;-webkit-transform-origin: 50% 50%;transform-origin: 50% 50%;transform-box: fill-box;}#SJENikayZZQ_rJKXA1b-X{-webkit-animation-name: SJENikayZZQ_rJKXA1b-X_Animation;animation-name: SJENikayZZQ_rJKXA1b-X_Animation;-webkit-transform-origin: 50% 50%;transform-origin: 50% 50%;transform-box: fill-box;}#BJVUjkakW-X_rJCepJbWX{-webkit-animation-name: BJVUjkakW-X_rJCepJbWX_Animation;animation-name: BJVUjkakW-X_rJCepJbWX_Animation;-webkit-transform-origin: 50% 50%;transform-origin: 50% 50%;transform-box: fill-box;}#BJVUjkakW-X{-webkit-animation-name: BJVUjkakW-X_Animation;animation-name: BJVUjkakW-X_Animation;-webkit-transform-origin: 50% 50%;transform-origin: 50% 50%;transform-box: fill-box;}#Bkd8i16kbZ7{-webkit-animation-name: Bkd8i16kbZ7_Animation;animation-name: Bkd8i16kbZ7_Animation;-webkit-transform-origin: 50% 50%;transform-origin: 50% 50%;transform-box: fill-box;}#Bkd8i16kbZ7_r1f46J-ZQ{-webkit-animation-name: Bkd8i16kbZ7_r1f46J-ZQ_Animation;animation-name: Bkd8i16kbZ7_r1f46J-ZQ_Animation;-webkit-transform-origin: 50% 50%;transform-origin: 50% 50%;transform-box: fill-box;}#BJEDjkay--7_B1F2ayWb7{-webkit-animation-name: BJEDjkay--7_B1F2ayWb7_Animation;animation-name: BJEDjkay--7_B1F2ayWb7_Animation;-webkit-transform-origin: 50% 50%;transform-origin: 50% 50%;transform-box: fill-box;}#BJEDjkay--7{-webkit-animation-name: BJEDjkay--7_Animation;animation-name: BJEDjkay--7_Animation;-webkit-transform-origin: 50% 50%;transform-origin: 50% 50%;transform-box: fill-box;}</style>

<title>Asset 26</title>
<g id="rkYgoyakZbm">
	<g id="B15xoJa1--X">
		<rect id="r1sxsJTJZbm" x="100.9" y="353.1" width="17.4" height="10.6"/>
	</g>
	<g id="rknei1TyZ-X">
		<polygon id="Sypgska1W-X" points="167.6,363.7 150.2,366 150.2,353.1 167.6,353.1 &#9;&#9;"/>
	</g>
	<g id="ryAlo1ak-b7">
		<path id="SkJ-ok6y-WX" d="M121.3,378.3H73.8c1-9.2,10.6-12.7,18-13.9c3-0.5,6.1-0.7,9.1-0.7h17.4c1,1.6,1.8,3.3,2.4,5.1&#10;&#9;&#9;&#9;C121.8,371.8,122,375.1,121.3,378.3z"/>
	</g>
	<g id="r1gbsJTJ-bQ">
		<path id="S1bZjJpJbZm" d="M121.3,378.3H73.8c1-9.2,10.6-12.7,18-13.9c0,0,1.1,10.5,29,4.4&#10;&#9;&#9;&#9;C121.8,371.8,122,375.1,121.3,378.3z"/>
	</g>
	<g id="H1zbskpkZZX">
		<path id="B1XWs161WZ7" d="M147.6,378.3h47.5c-1.1-9.2-10.6-12.7-18-13.9c-3-0.5-6.1-0.7-9.1-0.7h-17.4&#10;&#9;&#9;&#9;c-1,1.6-1.8,3.3-2.4,5.1C147,371.8,146.9,375.1,147.6,378.3z"/>
	</g>
	<g id="HJVZiyp1Z-m">
		<path id="rJHWjkTyWZ7" d="M147.6,378.3h47.5c-1.1-9.2-10.6-12.7-18-13.9c0,0-1.1,10.5-29,4.4&#10;&#9;&#9;&#9;C147,371.8,146.9,375.1,147.6,378.3z"/>
	</g>
	<g id="H1LbiypJZbQ">
		<path id="BJvbj1Ty-bQ" d="M202.1,203.7c0,0,1.5,80.5,12.9,125.7c0,0-81.5,21.4-159.9,0c6.6-41.6,10.7-83.6,12.3-125.7&#10;&#9;&#9;&#9;C67.4,203.7,141.5,160,202.1,203.7z"/>
	</g>
	<g id="ryu-sJTJ-ZX">
		<polygon id="rJKWjkp1Wbm" points="118.3,358.8 163.1,358.8 156.6,180.7 118.3,180.7 &#9;&#9;"/>
	</g>
	<g id="B15-okpkWW7">
		<path id="Hyo-sJp1W-m" d="M120.1,197.4c0,0,11.3,5,30.1,0v-21.5h-37.5L120.1,197.4z"/>
	</g>
	<g id="HknbikTyWWm">
		<path id="rkTWsyTybZm" d="M126,179.8l-0.5,181.1c0,0-44.7,1.6-58.6-7.8c0,0,14.9-94.3,19.9-180L126,179.8z"/>
	</g>
	<g id="BJR-oyTJZWQ">
		<path id="r1kzsyTkbbm" d="M199.6,262.3c0,0,2.7,22.4-11.3,27.8C174.3,295.6,173.7,257.4,199.6,262.3z"/>
	</g>
	<g id="rygMokayZb7">
		<polygon id="SJbfsJ6J-bm" points="202.1,267.1 196.1,267.9 188.4,268.9 181.9,269.8 180.4,253.4 174.6,190.3 &#10;&#9;&#9;&#9;174.5,189.6 195.1,189.6 196.5,206 &#9;&#9;"/>
	</g>
	<g id="HJfMjkT1ZWQ">
		<path id="H17GiyakWbm" d="M189.2,206l6.9,61.9l-7.7,1c-3.2-3.2-5.8-8.8-8-15.5l-5.8-63.1l0.3-0.6h20.2l1.5,16.4&#10;&#9;&#9;&#9;L189.2,206L189.2,206z"/>
	</g>
	<g id="SyEfj1T1-bQ">
		<path id="BkSMsyaJZZ7" d="M202.1,353.1c-3.2,2-6.8,3.4-10.4,4.2c-18.5,4.7-48.1,3.7-48.1,3.7L143,185.9v-6.1l39.2-6.7&#10;&#9;&#9;&#9;C187.2,258.8,202.1,353.1,202.1,353.1z"/>
	</g>
	<g id="HJ8fjyay--X">
		<path id="HkvGjkp1W-7" d="M202.1,353.1c-3.2,2-6.8,3.4-10.4,4.2c-2.7-18.2-14-98.4-14.3-153.6c0,0-22.6-3.5-34.3-17.8&#10;&#9;&#9;&#9;v-6.1l39.2-6.7C187.2,258.8,202.1,353.1,202.1,353.1z"/>
	</g>
	<g id="ryOGskp1-W7">
		<path id="rkKGokp1-b7" d="M132.2,222.1l-10.6,44.7c-3.8-0.5-7.4-1.1-10.7-1.9l0,0c-31.7-7.1-39.5-23-39.5-23&#10;&#9;&#9;&#9;c-0.1-15.7,0.8-31.3,2.8-46.8c4.3-31.6,12.1-42.7,12.1-42.7c12.4,2.9,12.3,59.2,12.3,59.2L132.2,222.1z"/>
	</g>
	<g id="r19Mo16J--m">
		<path id="BJozs1TJW-Q" d="M110.9,264.9c-31.7-7.1-39.5-23-39.5-23c-0.1-15.7,0.8-31.3,2.8-46.8c2.5,0.5,4.5,1.6,5,3.6&#10;&#9;&#9;&#9;l-2.3,42.7C76.9,241.5,82,253.6,110.9,264.9z"/>
	</g>
	<g id="S12MikaJ--Q">
		<path id="SkTfokpyb-Q" d="M132.2,222.1c0,0-8.5,2.4-12.2,18.7s-1.8,27.9,4,26S145.2,226.1,132.2,222.1z"/>
	</g>
	<g id="HkCGoJTkb-m">
		<path id="r11Qsy6JW-Q" d="M202.1,203.7c-2.8-0.2-5.5-0.4-8.1-0.8c-12.3-1.6-24.1-5.6-34.9-11.7&#10;&#9;&#9;&#9;c-8.7-5-16.5-11.4-22.9-19.1c-2.5-2.9-4.7-6.1-6.6-9.4l6.6-16.4l6.5-16C199.5,135.2,202.1,203.7,202.1,203.7z"/>
	</g>
	<g id="HylXjJ61ZbX">
		<path id="BJbmokaJbZX" d="M202.1,203.7c-2.8-0.2-5.5-0.4-8.1-0.8c-2.1-32.9-21.5-52.5-21.5-52.5v26.2&#10;&#9;&#9;&#9;c-1.3,9.5-8.5,13.2-13.4,14.6c-8.7-5-16.5-11.4-22.9-19.1v-25.9l6.5-16C199.5,135.2,202.1,203.7,202.1,203.7z"/>
	</g>
	<g id="B1fQiJ6JZbX">
		<path id="rJXXjJTybbQ" d="M139.9,162.7c0,0-17.9,34.5-66.2,40.4c-2.1,0.3-4.2,0.5-6.4,0.6c-3.3,0.2,2-53.8,42-69.5&#10;&#9;&#9;&#9;c5.6-2.2,11.5-3.5,17.4-4L139.9,162.7z"/>
	</g>
	<g id="ByEmoJp1-Z7">
		<path id="ByB7okTk-W7" d="M109.4,134.2v8.6c-22.6,7.9-32.7,46.6-35.6,60.3c-2.1,0.3-4.2,0.5-6.4,0.6&#10;&#9;&#9;&#9;C64.1,203.9,69.4,149.9,109.4,134.2z"/>
	</g>
	<g id="SJIXs16kbbm">
		<g id="SyDXokpkZZQ">
			<path id="rkdmiy6yZb7" d="M105.6,108.2L105.6,108.2c3.8,0,6.9,3.1,6.9,6.9v8.1c0,3.8-3.1,6.9-6.9,6.9l0,0&#10;&#9;&#9;&#9;&#9;c-3.8,0-6.9-3.1-6.9-6.9v-8.1C98.7,111.3,101.8,108.2,105.6,108.2z"/>
		</g>
		<g id="S1FXiJay--Q">
			<path id="By9Qo1p1--m" d="M163.4,108.2L163.4,108.2c3.8,0,6.9,3.1,6.9,6.9v8.1c0,3.8-3.1,6.9-6.9,6.9l0,0&#10;&#9;&#9;&#9;&#9;c-3.8,0-6.9-3.1-6.9-6.9v-8.1C156.6,111.3,159.6,108.2,163.4,108.2z"/>
		</g>
		<g id="r1iQsy6k-WQ">
			<path id="Sk3XjJpJbZQ" d="M134.5,76.5L134.5,76.5c16,0,28.9,13,28.9,28.9v28.3c0,16-13,28.9-28.9,28.9l0,0&#10;&#9;&#9;&#9;&#9;c-16,0-28.9-13-28.9-28.9v-28.3C105.6,89.5,118.5,76.5,134.5,76.5z"/>
		</g>
		<g id="HJpmjypJZW7">
			<path id="S1R7i1aybbm" d="M139.8,126.7c-0.5-4.4-2.8-13.6-5.5-13.6s-5,9.3-5.5,13.6c-1.9,0.5-3.1,2.5-2.6,4.4&#10;&#9;&#9;&#9;&#9;s2.5,3.1,4.4,2.6c0.4-0.1,0.8-0.3,1.1-0.5c0.8,0.4,1.7,0.6,2.6,0.6c0.9,0,1.9-0.2,2.7-0.7c1.6,1.2,3.9,0.8,5-0.8&#10;&#9;&#9;&#9;&#9;c1.2-1.6,0.8-3.9-0.8-5C140.7,127,140.3,126.8,139.8,126.7L139.8,126.7z"/>
		</g>
		<g id="SJkNik6kbWX_rkIzRJ-Wm" data-animator-group="true" data-animator-type="2"><g id="SJkNik6kbWX">
			<path id="BJx4s16kZZQ" d="M127.5,112.3L127.5,112.3c1.1,0,2,0.9,2,2v2.6c0,1.1-0.9,2-2,2l0,0c-1.1,0-2-0.9-2-2&#10;&#9;&#9;&#9;&#9;v-2.6C125.5,113.2,126.4,112.3,127.5,112.3z"/>
		</g></g>
		<g id="BkbViJakW-X">
			<path id="ByMNok6y-WQ" d="M162.3,91.2c0,0,1.9,53.7-4.8,54.7c0,0-2-12.5-22.8-12.5S112,145.8,112,145.8&#10;&#9;&#9;&#9;&#9;c-6.7-1-4.8-54.7-4.8-54.7h-3.6V170c0,20,31.1,19.6,31.1,19.6s31.1,0.4,31.1-19.6V91.2H162.3z"/>
		</g>
		<g id="SJmEjkT1--m">
			<g id="SJENikayZZQ_rJKXA1b-X" data-animator-group="true" data-animator-type="2"><path id="SJENikayZZQ" d="M140.7,112.3L140.7,112.3c1.1,0,2,0.9,2,2v2.6c0,1.1-0.9,2-2,2l0,0c-1.1,0-2-0.9-2-2&#10;&#9;&#9;&#9;&#9;v-2.6C138.7,113.2,139.6,112.3,140.7,112.3z"/></g>
		</g>
		<g id="SkHNiy6kW-X">
			<rect id="H1UEiyayWWm" x="111" y="107.6" width="21.2" height="6.2"/>
		</g>
		<g id="SyvNs1Tk-b7">
			<rect id="BJOVoypk--7" x="135.9" y="107.6" width="21.2" height="6.2"/>
		</g>
		<g id="rytVikayWbQ">
			<path id="By94s161-W7" d="M128.7,138.3h10.8c1.7,0,3.2,1.4,3.2,3.2l0,0c0,1.7-1.4,3.2-3.2,3.2h-10.8&#10;&#9;&#9;&#9;&#9;c-1.7,0-3.2-1.4-3.2-3.2l0,0C125.5,139.7,126.9,138.3,128.7,138.3z"/>
		</g>
		<polygon points="127,28.9 102.4,78.2 167.1,76.9 138.8,0.2 111.8,25 91.8,12.6 109.5,39.5 &#9;&#9;" id="ryi4ok6kbb7"/>
		<polygon points="167.1,76.9 102.4,78.2 86.8,78.8 89.2,93.2 174.5,87 176.2,76.7 &#9;&#9;" id="rJn4okp1ZZm"/>
		<polygon points="174.5,87 89.2,93.2 81.1,108.2 183.5,101 &#9;&#9;" id="Sy6NsJT1-bX"/>
		<polygon points="145,52.8 143.9,55.4 141.1,55.1 143.2,57 142.1,59.6 144.5,58.1 146.6,60 146,57.3 148.4,55.8 &#10;&#9;&#9;&#9;145.6,55.6 &#9;&#9;" id="rk0VokTJWZ7"/>
		<polygon points="147,37.2 145.2,41.3 140.7,40.9 144.1,43.9 142.3,48.1 146.2,45.7 149.6,48.8 148.6,44.3 152.5,42 &#10;&#9;&#9;&#9;148,41.6 &#9;&#9;" id="SkyBjka1WWQ"/>
		<polygon points="120.7,60.2 119.6,62.8 116.8,62.5 118.9,64.4 117.8,67 120.2,65.5 122.3,67.4 121.7,64.7 &#10;&#9;&#9;&#9;124.1,63.3 121.3,63 &#9;&#9;" id="B1xSoJpJbZQ"/>
		<polygon points="137.4,60.4 136.3,63 133.5,62.7 135.6,64.5 134.5,67.1 136.9,65.7 139,67.6 138.4,64.8 140.8,63.4 &#10;&#9;&#9;&#9;138,63.1 &#9;&#9;" id="HJbHi1T1bZ7"/>
		<polygon points="154.6,66.3 153.5,68.9 150.7,68.6 152.8,70.5 151.7,73 154.1,71.6 156.2,73.5 155.6,70.7 158,69.3 &#10;&#9;&#9;&#9;155.2,69 &#9;&#9;" id="Byzrjypk-Wm"/>
		<polygon points="141.1,26.1 140,28.7 137.2,28.4 139.3,30.3 138.2,32.9 140.6,31.4 142.7,33.3 142.1,30.6 &#10;&#9;&#9;&#9;144.5,29.1 141.8,28.9 &#9;&#9;" id="S17rikT1-ZQ"/>
		<polygon points="127.9,17.9 126.8,20.5 124,20.2 126.1,22 125,24.6 127.4,23.2 129.5,25 128.9,22.3 131.3,20.9 &#10;&#9;&#9;&#9;128.5,20.6 &#9;&#9;" id="Sy4BokTkbZ7"/>
		<polygon points="138.9,7.8 137.8,10.4 135,10.1 137.1,12 136,14.6 138.4,13.1 140.5,15 139.9,12.3 142.3,10.9 &#10;&#9;&#9;&#9;139.5,10.6 &#9;&#9;" id="rkHriyak--Q"/>
		<polygon points="130.4,44.3 129.2,46.8 126.4,46.6 128.6,48.4 127.4,51 129.8,49.6 131.9,51.4 131.3,48.7 &#10;&#9;&#9;&#9;133.8,47.3 131,47 &#9;&#9;" id="HJLHoJpkbZQ"/>
		<polygon points="111,27.5 110.3,29.1 108.6,28.9 109.9,30.1 109.2,31.7 110.7,30.8 112,31.9 111.6,30.2 113.1,29.4 &#10;&#9;&#9;&#9;111.4,29.2 &#9;&#9;" id="ryDBjk61bbQ"/>
		<polygon points="121.4,72.5 120.7,74.1 119,73.9 120.3,75 119.6,76.6 121.1,75.7 122.4,76.9 122,75.2 123.5,74.3 &#10;&#9;&#9;&#9;121.7,74.2 &#9;&#9;" id="HkuHiyayWbQ"/>
		<polygon points="156.2,53.3 155.5,54.9 153.8,54.7 155.1,55.8 154.4,57.4 155.9,56.5 157.2,57.7 156.8,56 &#10;&#9;&#9;&#9;158.3,55.1 156.6,55 &#9;&#9;" id="H1FrskTkWbQ"/>
	</g>
	<g id="rk9SiJ6yZbm">
		<path id="HkiBokpJbWm" d="M147,320.9c2.4,22.5,0,57.4,0,57.4c-0.4,0.3-0.9,0.6-1.4,0.8c-2.3,1.1-5.1,0.8-7.1-0.8&#10;&#9;&#9;&#9;c3.3-18.5-5.9-69.3-1.9-87.2c4-17.9-3.2-38.1-3.2-38.1h12.1C154.8,280.5,144.5,298.4,147,320.9z"/>
	</g>
	<g id="Hy3rjJaJ-bX">
		<path id="BJpHoypkb-Q" d="M147,320.9c2.4,22.5,0,57.4,0,57.4c-0.4,0.3-0.9,0.6-1.4,0.8c-0.5-0.2-1-0.5-1.4-0.8&#10;&#9;&#9;&#9;c3.3-18.5-5.9-69.3-1.9-87.2c4-17.9-3.2-38.1-3.2-38.1h6.4C154.8,280.5,144.5,298.4,147,320.9z"/>
	</g>
	<g id="ByCSjJakbWX">
		<path id="Hk18jy6kZbX" d="M159,262.3c-20.2-8.3-37.4-2.7-37.4-2.7c-1.7-3.8-2.2-8.1-1.6-12.2c0.3-1.9,0.8-3.8,1.6-5.6&#10;&#9;&#9;&#9;c24.9-5.3,39.7,2.8,39.7,2.8c0.6,1.5,1.1,3.1,1.4,4.7C164.5,258.3,159,262.3,159,262.3z"/>
	</g>
	<g id="SyeIsy61b-X">
		<path id="r1bIo1pyZbX" d="M162.8,249.2c-0.5,2.5-1.8,4.8-3.8,6.5c-20.2-8.3-37.4-2.7-37.4-2.7c-0.8-1.8-1.3-3.7-1.6-5.6&#10;&#9;&#9;&#9;c0.3-1.9,0.8-3.8,1.6-5.6c24.9-5.3,39.7,2.8,39.7,2.8C162,246,162.4,247.6,162.8,249.2z"/>
	</g>
	<g id="HkG8sJakb-7">
		<path id="B17Lo161--7" d="M128.9,224.1c0,0,19.5-1.9,29.9,14.5c0.9,2.3-0.2,4.8-2.5,5.8c0,0-1.2,4.8-7.1,5.5&#10;&#9;&#9;&#9;c-2,1.7-4.8,2.2-7.3,1.5c-4.5-1.2-14.4-6.4-22.7-6.7C119.2,244.5,119.9,231,128.9,224.1z"/>
	</g>
</g>
<g id="BJVUjkakW-X_rJCepJbWX" data-animator-group="true" data-animator-type="0"><g id="BJVUjkakW-X">
	<polygon points="44.8,119.4 42.4,124.9 36.3,124.4 40.9,128.4 38.5,134.1 43.7,130.8 48.3,135 47,128.9 52.2,125.8 &#10;&#9;&#9;46.2,125.3 &#9;" id="rkSUiJay-ZQ"/>
	<polygon points="79.1,138.1 77.6,141.6 73.8,141.2 76.7,143.8 75.2,147.3 78.4,145.3 81.3,147.9 80.4,144.2 &#10;&#9;&#9;83.7,142.3 79.9,141.9 &#9;" id="SyLUoyTyZ-7"/>
	<polygon points="200.6,194.5 198.8,198.6 194.3,198.2 197.7,201.2 195.9,205.4 199.8,203 203.2,206.1 202.2,201.6 &#10;&#9;&#9;206.1,199.3 201.6,198.9 &#9;" id="rywIj161bbm"/>
</g></g>
<g id="Bkd8i16kbZ7_r1f46J-ZQ" data-animator-group="true" data-animator-type="0"><g id="Bkd8i16kbZ7">
	<polygon points="242.1,102 239.7,107.6 233.6,107 238.2,111.1 235.8,116.8 241.1,113.5 245.7,117.7 244.3,111.6 &#10;&#9;&#9;249.6,108.5 243.5,108 &#9;" id="BJYIsJT1WZQ"/>
	<polygon points="41.4,164.7 40.5,166.9 38.2,166.6 39.9,168.2 39,170.4 41,169.2 42.8,170.7 42.2,168.4 44.3,167.3 &#10;&#9;&#9;42,167 &#9;" id="Sy98skay--7"/>
	<polygon points="73,64.1 72.3,65.7 70.6,65.5 71.9,66.6 71.2,68.2 72.7,67.3 74,68.5 73.6,66.8 75.1,65.9 73.4,65.8 &#9;&#10;&#9;&#9;" id="ryiLj16Jb-m"/>
	<g id="rJ2IoJaJZbX">
		<polygon points="252.4,141.3 250.9,144.8 247.1,144.4 250,147 248.5,150.4 251.7,148.5 254.6,151.1 253.8,147.3 &#10;&#9;&#9;&#9;257,145.4 253.2,145 &#9;&#9;" id="SJaIiJpyW-m"/>
		<polygon points="193.5,88.9 192.6,91.1 190.3,90.8 192.1,92.5 191.1,94.6 193.1,93.4 194.9,94.9 194.4,92.6 &#10;&#9;&#9;&#9;196.4,91.5 194.1,91.2 &#9;&#9;" id="rJRIsJT1W-7"/>
		<polygon points="90,177.8 87.6,183.4 81.5,182.8 86.1,186.9 83.7,192.5 89,189.3 93.5,193.5 92.2,187.4 97.5,184.3 &#10;&#9;&#9;&#9;91.4,183.8 &#9;&#9;" id="rkJwjk61W-m"/>
		<polygon points="53.8,86 52.7,88.6 49.9,88.3 52,90.2 50.9,92.8 53.3,91.3 55.4,93.2 54.8,90.5 57.2,89 54.4,88.8 &#9;&#9;&#10;&#9;&#9;&#9;" id="H1gwikakW-7"/>
		<polygon points="19.8,48.7 19.1,50.2 17.4,50 18.7,51.2 18,52.9 19.5,52 20.8,53 20.4,51.4 21.9,50.5 20.2,50.4 &#9;&#9;&#10;&#9;&#9;&#9;" id="HkZPsk61Zbm"/>
		<polygon points="213.9,222.3 212.8,224.9 210,224.6 212.1,226.5 211,229.1 213.4,227.6 215.5,229.5 214.9,226.8 &#10;&#9;&#9;&#9;217.3,225.3 214.5,225.1 &#9;&#9;" id="BJfwjJTkbW7"/>
	</g>
	<polygon points="179.9,185 179.2,186.6 177.5,186.4 178.8,187.6 178.1,189.2 179.6,188.3 180.9,189.4 180.5,187.7 &#10;&#9;&#9;182,186.9 180.3,186.7 &#9;" id="Hymvs1py-Z7"/>
</g></g>
<g id="BJEDjkay--7_B1F2ayWb7" data-animator-group="true" data-animator-type="0"><g id="BJEDjkay--7">
	<polygon points="196.9,43.6 194.5,49.1 188.4,48.6 193,52.6 190.6,58.3 195.8,55 200.4,59.2 199.1,53.2 204.3,50 &#10;&#9;&#9;198.3,49.5 &#9;" id="SJrwok61bWm"/>
	<polygon points="206.6,133.1 205.2,136.6 201.4,136.2 204.2,138.8 202.7,142.3 206,140.3 208.8,142.8 208,139.2 &#10;&#9;&#9;211.2,137.3 207.4,136.9 &#9;" id="Hy8Do1a1-WX"/>
	<polygon points="231.2,62.4 229.7,65.9 225.9,65.5 228.8,68 227.3,71.5 230.5,69.5 233.4,72.1 232.6,68.4 235.8,66.5 &#10;&#9;&#9;232,66.1 &#9;" id="SJDPjkTJb-m"/>
	<polygon points="54.5,208.9 53,212.4 49.3,212 52.1,214.6 50.6,218.1 53.8,216 56.7,218.6 55.9,215 59.1,213.1 &#10;&#9;&#9;55.3,212.7 &#9;" id="BydwiyTyWbX"/>
	<polygon points="100.3,217.1 98.8,220.6 95,220.2 97.9,222.8 96.4,226.2 99.6,224.3 102.5,226.8 101.6,223.1 &#10;&#9;&#9;104.9,221.2 101.1,220.8 &#9;" id="r1FDo1pkZbQ"/>
	<polygon points="23.5,95.5 22.4,98.1 19.6,97.8 21.7,99.7 20.6,102.3 23,100.8 25.1,102.7 24.5,100 26.9,98.6 &#10;&#9;&#9;24.1,98.3 &#9;" id="B1cvokTkWZ7"/>
	<polygon points="62.5,32.1 61.4,34.7 58.6,34.4 60.7,36.2 59.6,38.8 62,37.4 64.1,39.2 63.5,36.5 65.9,35.1 &#10;&#9;&#9;63.1,34.8 &#9;" id="rJovj1Ty-b7"/>
	<polygon points="40.5,58.2 38.7,62.3 34.2,61.9 37.6,64.9 35.8,69.1 39.7,66.7 43.1,69.8 42.1,65.3 46,63 41.5,62.6 &#9;&#10;&#9;&#9;" id="Hy3wo1a1WWm"/>
	<polygon points="183.6,231.8 182.5,234.4 179.7,234.1 181.8,236 180.7,238.6 183.1,237.1 185.2,239 184.6,236.3 &#10;&#9;&#9;187,234.9 184.2,234.6 &#9;" id="B1pPskTJb-Q"/>
	<polygon points="222.6,168.4 221.5,171 218.7,170.7 220.8,172.5 219.7,175.1 222.1,173.7 224.2,175.5 223.6,172.8 &#10;&#9;&#9;226,171.4 223.2,171.1 &#9;" id="SJ0ws1pk-WX"/>
	<polygon points="233,200.4 232.3,202 230.6,201.8 231.9,202.9 231.2,204.5 232.7,203.6 234,204.8 233.6,203.1 &#10;&#9;&#9;235.1,202.2 233.4,202.1 &#9;" id="r11dj1TkWW7"/>
</g></g>
<script>(function(){var a=document.querySelector('#BJOxiypk-ZX'),b=a.querySelectorAll('style'),c=function(d){b.forEach(function(f){var g=f.textContent;g&amp;&amp;(f.textContent=g.replace(/transform-box:[^;\r\n]*/gi,'transform-box: '+d))})};c('initial'),window.requestAnimationFrame(function(){return c('fill-box')})})();</script></svg>