<svg xmlns="http://www.w3.org/2000/svg" viewBox="0 0 336 305" id="BkRuL_3vgQ"><style>@-webkit-keyframes Hy6xdIO3Dxm_HyL1YhPg7_Animation{0%{-webkit-transform: rotate(-20deg);transform: rotate(-20deg);}16.67%{-webkit-transform: rotate(0deg);transform: rotate(0deg);}33.33%{-webkit-transform: rotate(-20deg);transform: rotate(-20deg);}50%{-webkit-transform: rotate(0deg);transform: rotate(0deg);}66.67%{-webkit-transform: rotate(-20deg);transform: rotate(-20deg);}83.33%{-webkit-transform: rotate(0deg);transform: rotate(0deg);}100%{-webkit-transform: rotate(0deg);transform: rotate(0deg);}}@keyframes Hy6xdIO3Dxm_HyL1YhPg7_Animation{0%{-webkit-transform: rotate(-20deg);transform: rotate(-20deg);}16.67%{-webkit-transform: rotate(0deg);transform: rotate(0deg);}33.33%{-webkit-transform: rotate(-20deg);transform: rotate(-20deg);}50%{-webkit-transform: rotate(0deg);transform: rotate(0deg);}66.67%{-webkit-transform: rotate(-20deg);transform: rotate(-20deg);}83.33%{-webkit-transform: rotate(0deg);transform: rotate(0deg);}100%{-webkit-transform: rotate(0deg);transform: rotate(0deg);}}@-webkit-keyframes rJhedUd3Dgm_HJsoOnvgQ_Animation{0%{-webkit-transform: rotate(0deg);transform: rotate(0deg);}16.67%{-webkit-transform: rotate(20deg);transform: rotate(20deg);}33.33%{-webkit-transform: rotate(0deg);transform: rotate(0deg);}50%{-webkit-transform: rotate(20deg);transform: rotate(20deg);}66.67%{-webkit-transform: rotate(0deg);transform: rotate(0deg);}83.33%{-webkit-transform: rotate(20deg);transform: rotate(20deg);}100%{-webkit-transform: rotate(20deg);transform: rotate(20deg);}}@keyframes rJhedUd3Dgm_HJsoOnvgQ_Animation{0%{-webkit-transform: rotate(0deg);transform: rotate(0deg);}16.67%{-webkit-transform: rotate(20deg);transform: rotate(20deg);}33.33%{-webkit-transform: rotate(0deg);transform: rotate(0deg);}50%{-webkit-transform: rotate(20deg);transform: rotate(20deg);}66.67%{-webkit-transform: rotate(0deg);transform: rotate(0deg);}83.33%{-webkit-transform: rotate(20deg);transform: rotate(20deg);}100%{-webkit-transform: rotate(20deg);transform: rotate(20deg);}}@-webkit-keyframes ByGbdI_nwgm_S1bvd2vxX_Animation{0%{-webkit-transform: scale(1, 1);transform: scale(1, 1);}16.67%{-webkit-transform: scale(1.2, 1.2);transform: scale(1.2, 1.2);}33.33%{-webkit-transform: scale(1, 1);transform: scale(1, 1);}50%{-webkit-transform: scale(1.2, 1.2);transform: scale(1.2, 1.2);}66.67%{-webkit-transform: scale(1, 1);transform: scale(1, 1);}83.33%{-webkit-transform: scale(1.2, 1.2);transform: scale(1.2, 1.2);}100%{-webkit-transform: scale(1.2, 1.2);transform: scale(1.2, 1.2);}}@keyframes ByGbdI_nwgm_S1bvd2vxX_Animation{0%{-webkit-transform: scale(1, 1);transform: scale(1, 1);}16.67%{-webkit-transform: scale(1.2, 1.2);transform: scale(1.2, 1.2);}33.33%{-webkit-transform: scale(1, 1);transform: scale(1, 1);}50%{-webkit-transform: scale(1.2, 1.2);transform: scale(1.2, 1.2);}66.67%{-webkit-transform: scale(1, 1);transform: scale(1, 1);}83.33%{-webkit-transform: scale(1.2, 1.2);transform: scale(1.2, 1.2);}100%{-webkit-transform: scale(1.2, 1.2);transform: scale(1.2, 1.2);}}#BkRuL_3vgQ *{-webkit-animation-duration: 3s;animation-duration: 3s;-webkit-animation-iteration-count: infinite;animation-iteration-count: infinite;-webkit-animation-timing-function: cubic-bezier(0, 0, 1, 1);animation-timing-function: cubic-bezier(0, 0, 1, 1);}#SyWxu8dhPeQ{fill: #ebf9fa;}#SJGgOI_hwem{fill: #8ebabf;}#ByXxdIu3PlQ{fill: #9fd4d4;}#BJNxd8_2wgX{fill: #ebf9fa;}#HyHxuUOnPlX{fill: #ebf9fa;}#SJLed8O2weQ{fill: #ebf9fa;}#HkPgO8u2Px7{fill: #ebf9fa;}#Hydld8OhDgQ{fill: #ebf9fa;}#BJYxd8u3PeQ{fill: #d8eaeb;}#BJ9l_UdnDlm{fill: none;stroke: #8ebabf;stroke-linecap: round;stroke-miterlimit: 10;stroke-width: 3px;}#r1ox_UuhPlQ{fill: none;stroke: #8ebabf;stroke-linecap: round;stroke-miterlimit: 10;stroke-width: 3px;}#rJhedUd3Dgm{fill: #ebf9fa;}#Hy6xdIO3Dxm{fill: #ebf9fa;}#SJ0e_I_nve7{fill: #ebf9fa;}#Sk1ZO8_3wgQ{fill: #ebf9fa;}#r1g-dIu3wxm{fill: #ebf9fa;}#ryW-OU_hvx7{fill: #ebf9fa;}#ByGbdI_nwgm{fill: none;stroke: #8ebabf;stroke-linecap: round;stroke-miterlimit: 10;stroke-width: 3px;}#ByGbdI_nwgm_S1bvd2vxX{-webkit-animation-name: ByGbdI_nwgm_S1bvd2vxX_Animation;animation-name: ByGbdI_nwgm_S1bvd2vxX_Animation;-webkit-transform-origin: 50% 100%;transform-origin: 50% 100%;transform-box: fill-box;-webkit-transform: scale(1, 1);transform: scale(1, 1);}#rJhedUd3Dgm_HJsoOnvgQ{-webkit-animation-name: rJhedUd3Dgm_HJsoOnvgQ_Animation;animation-name: rJhedUd3Dgm_HJsoOnvgQ_Animation;-webkit-transform-origin: 100% 100%;transform-origin: 100% 100%;transform-box: fill-box;-webkit-transform: rotate(0deg);transform: rotate(0deg);}#Hy6xdIO3Dxm_HyL1YhPg7{-webkit-animation-name: Hy6xdIO3Dxm_HyL1YhPg7_Animation;animation-name: Hy6xdIO3Dxm_HyL1YhPg7_Animation;-webkit-transform-origin: 0% 100%;transform-origin: 0% 100%;transform-box: fill-box;-webkit-transform: rotate(-20deg);transform: rotate(-20deg);}</style><defs/><title>Asset 2</title><g id="HkJxdLO2Dgm" data-name="Layer 2"><g id="B1gl_U_2Px7" data-name="Layer 1"><path d="M29.66,0H306.72a6.34,6.34,0,0,1,6.34,6.34V271.52a6.35,6.35,0,0,1-6.35,6.35H29.66a6.35,6.35,0,0,1-6.35-6.35V6.35A6.35,6.35,0,0,1,29.66,0Z" id="SyWxu8dhPeQ"/><path d="M306.72,0H29.65a6.36,6.36,0,0,0-6.34,6.35V22.48H313.06V6.35A6.36,6.36,0,0,0,306.72,0Z" id="SJGgOI_hwem"/><rect x="23.31" y="22.09" width="289.75" height="5.01" id="ByXxdIu3PlQ"/><rect x="76.81" y="5.71" width="188.74" height="11.05" rx="3" ry="3" id="BJNxd8_2wgX"/><rect x="273.97" y="5.71" width="25.25" height="11.05" rx="3" ry="3" id="HyHxuUOnPlX"/><path d="M43.16,11.24a3.82,3.82,0,1,1-3.81-3.82A3.82,3.82,0,0,1,43.16,11.24Z" id="SJLed8O2weQ"/><path d="M54.44,11.24a3.82,3.82,0,1,1-3.81-3.82A3.82,3.82,0,0,1,54.44,11.24Z" id="HkPgO8u2Px7"/><path d="M65.72,11.24a3.82,3.82,0,1,1-3.81-3.82A3.82,3.82,0,0,1,65.72,11.24Z" id="Hydld8OhDgQ"/><path d="M31.71,271.56c0-1.29,1.35-2.34,3-2.34h267c1.65,0,3,1,3,2.34s-1.35,2.33-3,2.33h-267C33.06,273.89,31.71,272.84,31.71,271.56Z" id="BJYxd8u3PeQ"/><path d="M70.06,81.73q10.66-11.9,21.34,0" id="BJ9l_UdnDlm"/><path d="M244.88,81.73q10.67-11.9,21.33,0" id="r1ox_UuhPlQ"/><g id="rJhedUd3Dgm_HJsoOnvgQ" data-animator-group="true" data-animator-type="1"><path d="M6.37,105.47a4.84,4.84,0,0,0,3.28-4l2.78-2.78a1,1,0,0,0,0-1.37,1,1,0,0,0-.69-.29,1,1,0,0,0-.68.29l-1.71,1.7a4,4,0,0,0-.28-.54V93.27a1,1,0,0,0-1.94,0v3.35a4.78,4.78,0,0,0-1.27-.49V93.27a1,1,0,0,0-1.95,0v2.85a5.07,5.07,0,0,0-1.27.46V93.27a1,1,0,0,0-1.94,0v5.14a4.71,4.71,0,0,0-.7,2.47,4.84,4.84,0,0,0,3.46,4.63,19.93,19.93,0,0,0,19.85,18.64v-2.92A17,17,0,0,1,6.37,105.47Z" id="rJhedUd3Dgm"/></g><g id="Hy6xdIO3Dxm_HyL1YhPg7" data-animator-group="true" data-animator-type="1"><path d="M336.37,100.88a4.71,4.71,0,0,0-.7-2.47V93.27a1,1,0,1,0-1.94,0v3.31a5.07,5.07,0,0,0-1.27-.46V93.27a1,1,0,0,0-1.95,0v2.86a4.78,4.78,0,0,0-1.27.49V93.27a1,1,0,1,0-1.94,0v5.25a4,4,0,0,0-.28.54l-1.71-1.7a1,1,0,0,0-.68-.29,1,1,0,0,0-.69.29,1,1,0,0,0,0,1.37l2.78,2.78a4.84,4.84,0,0,0,3.28,4,17,17,0,0,1-16.94,15.76v2.92a19.93,19.93,0,0,0,19.85-18.64A4.83,4.83,0,0,0,336.37,100.88Z" id="Hy6xdIO3Dxm"/></g><rect x="117.59" y="277.86" width="2.91" height="27.39" id="SJ0e_I_nve7"/><path d="M120.5,305.25a7.41,7.41,0,0,0-14.81,0Z" id="Sk1ZO8_3wgQ"/><rect x="215.87" y="277.86" width="2.91" height="27.39" id="r1g-dIu3wxm"/><path d="M215.87,305.25a7.41,7.41,0,0,1,14.81,0Z" id="ryW-OU_hvx7"/><g id="ByGbdI_nwgm_S1bvd2vxX" data-animator-group="true" data-animator-type="2"><path d="M135.16,115.42q33,15.9,66.05,0" id="ByGbdI_nwgm"/></g></g></g><script>(function(){var a=document.querySelector('#BkRuL_3vgQ'),b=a.querySelectorAll('style'),c=function(d){b.forEach(function(f){var g=f.textContent;g&amp;&amp;(f.textContent=g.replace(/transform-box:[^;\r\n]*/gi,'transform-box: '+d))})};c('initial'),window.requestAnimationFrame(function(){return c('fill-box')})})();</script></svg>