<svg version="1.1" id="BJ3CEg8Zm" xmlns="http://www.w3.org/2000/svg" xmlns:xlink="http://www.w3.org/1999/xlink" x="0px" y="0px" viewBox="0 0 513 360" style="enable-background:new 0 0 513.6 360;" xml:space="preserve"><style>@-webkit-keyframes BJ7ehC4e8-m_H1ntlG8-Q_Animation{0%{-webkit-transform: scale(1, 1);transform: scale(1, 1);}25%{-webkit-transform: scale(0.8, 0.8);transform: scale(0.8, 0.8);}50%{-webkit-transform: scale(1, 1);transform: scale(1, 1);}75%{-webkit-transform: scale(0.8, 0.8);transform: scale(0.8, 0.8);}100%{-webkit-transform: scale(1, 1);transform: scale(1, 1);}}@keyframes BJ7ehC4e8-m_H1ntlG8-Q_Animation{0%{-webkit-transform: scale(1, 1);transform: scale(1, 1);}25%{-webkit-transform: scale(0.8, 0.8);transform: scale(0.8, 0.8);}50%{-webkit-transform: scale(1, 1);transform: scale(1, 1);}75%{-webkit-transform: scale(0.8, 0.8);transform: scale(0.8, 0.8);}100%{-webkit-transform: scale(1, 1);transform: scale(1, 1);}}#BJ3CEg8Zm *{-webkit-animation-duration: 4s;animation-duration: 4s;-webkit-animation-iteration-count: infinite;animation-iteration-count: infinite;-webkit-animation-timing-function: cubic-bezier(0, 0, 1, 1);animation-timing-function: cubic-bezier(0, 0, 1, 1);}#r1G2CElLbX{fill: #EBF9FA;}#S1XnCEgUb7{fill: #8EBABF;}#ryNhRVgLbQ{fill: #9FD4D4;}#BJB2RVgLbm{fill: #EBF9FA;}#S1U2REx8Wm{fill: #EBF9FA;}#ryDnAExUZQ{fill: #EBF9FA;}#SkdhA4xL-m{fill: #EBF9FA;}#HJt20VeUZm{fill: #EBF9FA;}#B152ANlL-m{fill: #D8EAEB;}#Hkjh0Vg8Zm{fill: #EBF9FA;}#Byh3R4x8Z7{fill: #EBF9FA;}#Skp3AEx8bQ{fill: #EBF9FA;}#ryR2RVg8-X{fill: #EBF9FA;}#rJke204xLWm{fill: #EBF9FA;}#rJge20NeIbm{fill: #EBF9FA;}#B1ZehR4xUZ7{fill: #EBF9FA;}#B1ze30VxIb7{fill: #EBF9FA;}#BJ7ehC4e8-m{fill: #8EBABF;}#ryNe2CNl8-7{fill: #8EBABF;}#rkrlhRVeLbX{fill: #8EBABF;}#r18gh0ExIZQ{fill: #8EBABF;}#ryDghR4lUbQ{fill: #8EBABF;}#B1Kg2C4eLWm{fill: #333333;}#ry5l2RExUWQ{fill: #333333;}#SysgnCNgLb7{fill: #333333;}#BJhxhAVx8bm{fill: #333333;}#rJ6x2AVxIbX{fill: #333333;}#SJCg3AEeLbQ{fill: #333333;}#Hkbh0VlIW7_B1hX1MI-m{-webkit-transform-origin: 50% 50%;transform-origin: 50% 50%;transform-box: fill-box;}#Hkbh0VlIW7{-webkit-transform-origin: 50% 50%;transform-origin: 50% 50%;transform-box: fill-box;}#BJ7ehC4e8-m_H1ntlG8-Q{-webkit-animation-name: BJ7ehC4e8-m_H1ntlG8-Q_Animation;animation-name: BJ7ehC4e8-m_H1ntlG8-Q_Animation;-webkit-transform-origin: 50% 0%;transform-origin: 50% 0%;transform-box: fill-box;}#ryughC4g8Zm_BJCt6eL-X{-webkit-transform-origin: 50% 50%;transform-origin: 50% 50%;transform-box: fill-box;}</style>

<title>Asset 20</title>
<g id="S1x3CNlLb7">
	<g id="Hkbh0VlIW7">
		<path d="M93.4,0h326.7c4.1,0,7.4,3.3,7.4,7.4v312.7c0,4.1-3.3,7.5-7.5,7.5l0,0H93.4c-4.1,0-7.5-3.3-7.5-7.5l0,0V7.5&#10;&#9;&#9;&#9;C85.9,3.4,89.3,0,93.4,0L93.4,0z" id="r1G2CElLbX"/>
		<path d="M420.2,0H93.4C89.3,0,86,3.3,86,7.4v19h341.7V7.5C427.6,3.4,424.3,0,420.2,0z" id="S1XnCEgUb7"/>
		<rect x="85.9" y="26.1" width="341.7" height="5.9" id="ryNhRVgLbQ"/>
		<path d="M152.5,6.7h215.4c2,0,3.5,1.5,3.5,3.5v6c0,2-1.5,3.5-3.5,3.5H152.5c-2,0-3.5-1.5-3.5-3.5v-6&#10;&#9;&#9;&#9;C149,8.4,150.6,6.7,152.5,6.7z" id="BJB2RVgLbm"/>
		<path d="M385,6.7h22.6c2,0,3.5,1.5,3.5,3.5v6c0,2-1.5,3.5-3.5,3.5H385c-2,0-3.5-1.5-3.5-3.5v-6&#10;&#9;&#9;&#9;C381.5,8.4,383,6.7,385,6.7z" id="S1U2REx8Wm"/>
		<path d="M109.4,13.3c0,2.5-2,4.5-4.5,4.5c-2.5,0-4.5-2-4.5-4.5s2-4.5,4.5-4.5l0,0C107.4,8.8,109.4,10.8,109.4,13.3z" id="ryDnAExUZQ"/>
		<path d="M122.7,13.3c0,2.5-2,4.5-4.5,4.5c-2.5,0-4.5-2-4.5-4.5s2-4.5,4.5-4.5l0,0C120.7,8.8,122.7,10.8,122.7,13.3z" id="SkdhA4xL-m"/>
		<path d="M136,13.3c0,2.5-2,4.5-4.5,4.5c-2.5,0-4.5-2-4.5-4.5s2-4.5,4.5-4.5l0,0C133.9,8.8,135.9,10.8,136,13.3z" id="HJt20VeUZm"/>
		<path d="M95.8,320.3c0-1.5,1.5-2.7,3.5-2.7h314.8c1.9,0,3.5,1.2,3.5,2.7s-1.7,2.7-3.5,2.7H99.3&#10;&#9;&#9;&#9;C97.4,323,95.8,321.8,95.8,320.3z" id="B152ANlL-m"/>
		<path d="M65.8,155.9h-3.4c0-13,10.5-23.5,23.5-23.5v3.4C74.9,135.8,65.8,144.8,65.8,155.9z" id="Hkjh0Vg8Zm"/>
		<path d="M69.9,159.9c0,3.2-2.6,5.8-5.8,5.8c-3.2,0-5.8-2.6-5.8-5.8c0-3.2,2.6-5.8,5.8-5.8l0,0&#10;&#9;&#9;&#9;C67.4,154.1,69.9,156.7,69.9,159.9z" id="Byh3R4x8Z7"/>
		<path d="M451.1,155.9h-3.4c0-11.1-9-20-20-20v-3.4C440.6,132.4,451.1,142.9,451.1,155.9z" id="Skp3AEx8bQ"/>
		<path d="M443.7,159.9c0,3.2,2.6,5.8,5.8,5.8c3.2,0,5.8-2.6,5.8-5.8c0-3.2-2.6-5.8-5.8-5.8l0,0&#10;&#9;&#9;&#9;C446.2,154.1,443.7,156.7,443.7,159.9z" id="ryR2RVg8-X"/>
		<rect x="197.1" y="327.7" width="3.4" height="32.3" id="rJke204xLWm"/>
		<path d="M200.5,360c-0.2-4.8-4.2-8.6-9.1-8.4c-4.6,0.1-8.3,3.9-8.4,8.4H200.5z" id="rJge20NeIbm"/>
		<rect x="313" y="327.7" width="3.4" height="32.3" id="B1ZehR4xUZ7"/>
		<path d="M313,360c0.2-4.8,4.2-8.6,9.1-8.4c4.6,0.1,8.3,3.9,8.4,8.4H313z" id="B1ze30VxIb7"/>
		<g id="BJ7ehC4e8-m_H1ntlG8-Q" data-animator-group="true" data-animator-type="2"><path d="M217.8,147c-0.6,0-1.1-0.3-1.4-0.8c-0.4-0.7,0-1.6,0.7-2c26.2-12.6,52.9-12.6,79.2,0c0.7,0.4,1.1,1.3,0.7,2&#10;&#9;&#9;&#9;c-0.4,0.7-1.3,1.1-2,0.7c-25.5-12.2-51.3-12.2-76.6,0C218.3,147,218.1,147,217.8,147z" id="BJ7ehC4e8-m"/></g>
		<circle cx="153.9" cy="93" r="9.2" id="ryNe2CNl8-7"/>
		<circle cx="359.7" cy="93" r="9.3" id="rkrlhRVeLbX"/>
		<path d="M137.4,94.7c-0.6,0-1.2-0.4-1.4-0.9c-0.3-0.8,0.1-1.6,0.8-2l33-13.4c0.8-0.3,1.6,0.1,2,0.8&#10;&#9;&#9;&#9;c0.3,0.8-0.1,1.6-0.8,2l-33,13.4C137.8,94.6,137.6,94.7,137.4,94.7z" id="r18gh0ExIZQ"/>
		<path d="M376.2,94.7c-0.2,0-0.4,0-0.6-0.1l-33-13.4c-0.8-0.3-1.1-1.2-0.8-2c0.3-0.8,1.2-1.1,2-0.8l33,13.4&#10;&#9;&#9;&#9;c0.8,0.3,1.1,1.2,0.8,2C377.4,94.3,376.8,94.7,376.2,94.7z" id="ryDghR4lUbQ"/>
	</g>
	<g id="ryughC4g8Zm">
		<rect x="59.6" y="20.1" width="9.6" height="329.6" id="B1Kg2C4eLWm"/>
		<rect x="176.1" y="20.1" width="9.6" height="329.6" id="ry5l2RExUWQ"/>
		<rect x="327.8" y="20.1" width="9.6" height="329.6" id="SysgnCNgLb7"/>
		<rect x="444.3" y="20.1" width="9.6" height="329.6" id="BJhxhAVx8bm"/>
		<rect x="53" y="0.5" width="407.5" height="19.6" id="rJ6x2AVxIbX"/>
		<rect x="53" y="339.9" width="407.5" height="19.6" id="SJCg3AEeLbQ"/>
	</g>
</g>
<script>(function(){var a=document.querySelector('#BJ3CEg8Zm'),b=a.querySelectorAll('style'),c=function(d){b.forEach(function(f){var g=f.textContent;g&amp;&amp;(f.textContent=g.replace(/transform-box:[^;\r\n]*/gi,'transform-box: '+d))})};c('initial'),window.requestAnimationFrame(function(){return c('fill-box')})})();</script></svg>