<svg version="1.1" id="ByTeB9ialzQ" xmlns="http://www.w3.org/2000/svg" xmlns:xlink="http://www.w3.org/1999/xlink" x="0px" y="0px" viewBox="0 0 270 380" style="enable-background:new 0 0 270 380;" xml:space="preserve"><style>@-webkit-keyframes B1EUrcoTxMm_B1afAplzm_Animation{0%{-webkit-transform: translate(0px, 0px);transform: translate(0px, 0px);}25%{-webkit-transform: translate(0px, 5px);transform: translate(0px, 5px);}30%{-webkit-transform: translate(0px, -5px);transform: translate(0px, -5px);}35%{-webkit-transform: translate(0px, 0px);transform: translate(0px, 0px);}100%{-webkit-transform: translate(0px, 0px);transform: translate(0px, 0px);}}@keyframes B1EUrcoTxMm_B1afAplzm_Animation{0%{-webkit-transform: translate(0px, 0px);transform: translate(0px, 0px);}25%{-webkit-transform: translate(0px, 5px);transform: translate(0px, 5px);}30%{-webkit-transform: translate(0px, -5px);transform: translate(0px, -5px);}35%{-webkit-transform: translate(0px, 0px);transform: translate(0px, 0px);}100%{-webkit-transform: translate(0px, 0px);transform: translate(0px, 0px);}}@-webkit-keyframes HJwGB5jTlzQ_ryux0alf7_Animation{0%{-webkit-transform: rotate(-2deg);transform: rotate(-2deg);}50%{-webkit-transform: rotate(2deg);transform: rotate(2deg);}100%{-webkit-transform: rotate(-2deg);transform: rotate(-2deg);}}@keyframes HJwGB5jTlzQ_ryux0alf7_Animation{0%{-webkit-transform: rotate(-2deg);transform: rotate(-2deg);}50%{-webkit-transform: rotate(2deg);transform: rotate(2deg);}100%{-webkit-transform: rotate(-2deg);transform: rotate(-2deg);}}@-webkit-keyframes rJyDH9jpgfX_rJwRa6lGQ_Animation{50%{-webkit-transform: scale(1, 1);transform: scale(1, 1);}55.00%{-webkit-transform: scale(1, 0);transform: scale(1, 0);}60%{-webkit-transform: scale(1, 1);transform: scale(1, 1);}0%{-webkit-transform: scale(1, 1);transform: scale(1, 1);}100%{-webkit-transform: scale(1, 1);transform: scale(1, 1);}}@keyframes rJyDH9jpgfX_rJwRa6lGQ_Animation{50%{-webkit-transform: scale(1, 1);transform: scale(1, 1);}55.00%{-webkit-transform: scale(1, 0);transform: scale(1, 0);}60%{-webkit-transform: scale(1, 1);transform: scale(1, 1);}0%{-webkit-transform: scale(1, 1);transform: scale(1, 1);}100%{-webkit-transform: scale(1, 1);transform: scale(1, 1);}}@-webkit-keyframes HJuvr5ipxz7_Animation{0%{opacity: 1;}10%{opacity: 1;}25%{opacity: 0;}75%{opacity: 0;}90%{opacity: 1;}100%{opacity: 1;}}@keyframes HJuvr5ipxz7_Animation{0%{opacity: 1;}10%{opacity: 1;}25%{opacity: 0;}75%{opacity: 0;}90%{opacity: 1;}100%{opacity: 1;}}@-webkit-keyframes HJuvr5ipxz7_Bk4Gapez7_Animation{0%{-webkit-transform: scale(0.9, 0.9);transform: scale(0.9, 0.9);}25%{-webkit-transform: scale(1, 1);transform: scale(1, 1);}75%{-webkit-transform: scale(0.8, 0.8);transform: scale(0.8, 0.8);}100%{-webkit-transform: scale(0.9, 0.9);transform: scale(0.9, 0.9);}}@keyframes HJuvr5ipxz7_Bk4Gapez7_Animation{0%{-webkit-transform: scale(0.9, 0.9);transform: scale(0.9, 0.9);}25%{-webkit-transform: scale(1, 1);transform: scale(1, 1);}75%{-webkit-transform: scale(0.8, 0.8);transform: scale(0.8, 0.8);}100%{-webkit-transform: scale(0.9, 0.9);transform: scale(0.9, 0.9);}}@-webkit-keyframes HJuvr5ipxz7_SyQfT6gGQ_Animation{0%{-webkit-transform: translate(0px, -10px);transform: translate(0px, -10px);}25%{-webkit-transform: translate(0px, -20px);transform: translate(0px, -20px);}75%{-webkit-transform: translate(0px, 0px);transform: translate(0px, 0px);}100%{-webkit-transform: translate(0px, -10px);transform: translate(0px, -10px);}}@keyframes HJuvr5ipxz7_SyQfT6gGQ_Animation{0%{-webkit-transform: translate(0px, -10px);transform: translate(0px, -10px);}25%{-webkit-transform: translate(0px, -20px);transform: translate(0px, -20px);}75%{-webkit-transform: translate(0px, 0px);transform: translate(0px, 0px);}100%{-webkit-transform: translate(0px, -10px);transform: translate(0px, -10px);}}@-webkit-keyframes HyHwS5o6efQ_Hknuhagzm_Animation{50%{-webkit-transform: translate(0px, 0px);transform: translate(0px, 0px);}100%{-webkit-transform: translate(0px, -20px);transform: translate(0px, -20px);}0%{-webkit-transform: translate(0px, 0px);transform: translate(0px, 0px);}}@keyframes HyHwS5o6efQ_Hknuhagzm_Animation{50%{-webkit-transform: translate(0px, 0px);transform: translate(0px, 0px);}100%{-webkit-transform: translate(0px, -20px);transform: translate(0px, -20px);}0%{-webkit-transform: translate(0px, 0px);transform: translate(0px, 0px);}}@-webkit-keyframes HyHwS5o6efQ_rJadnalz7_Animation{50%{-webkit-transform: scale(0.8, 0.8);transform: scale(0.8, 0.8);}100%{-webkit-transform: scale(1, 1);transform: scale(1, 1);}0%{-webkit-transform: scale(0.8, 0.8);transform: scale(0.8, 0.8);}}@keyframes HyHwS5o6efQ_rJadnalz7_Animation{50%{-webkit-transform: scale(0.8, 0.8);transform: scale(0.8, 0.8);}100%{-webkit-transform: scale(1, 1);transform: scale(1, 1);}0%{-webkit-transform: scale(0.8, 0.8);transform: scale(0.8, 0.8);}}@-webkit-keyframes HyHwS5o6efQ_Animation{50%{opacity: 0;}65%{opacity: 1;}85%{opacity: 1;}100%{opacity: 0;}0%{opacity: 0;}}@keyframes HyHwS5o6efQ_Animation{50%{opacity: 0;}65%{opacity: 1;}85%{opacity: 1;}100%{opacity: 0;}0%{opacity: 0;}}@-webkit-keyframes SJ8PBcjpezQ_ry0I26gz7_Animation{0%{-webkit-transform: scale(0.8, 0.8);transform: scale(0.8, 0.8);}50%{-webkit-transform: scale(1, 1);transform: scale(1, 1);}100%{-webkit-transform: scale(1, 1);transform: scale(1, 1);}}@keyframes SJ8PBcjpezQ_ry0I26gz7_Animation{0%{-webkit-transform: scale(0.8, 0.8);transform: scale(0.8, 0.8);}50%{-webkit-transform: scale(1, 1);transform: scale(1, 1);}100%{-webkit-transform: scale(1, 1);transform: scale(1, 1);}}@-webkit-keyframes SJDvSqsplfm_rJVe26xMm_Animation{25%{-webkit-transform: translate(0px, 20px);transform: translate(0px, 20px);}75%{-webkit-transform: translate(0px, 0px);transform: translate(0px, 0px);}0%{-webkit-transform: translate(0px, 20px);transform: translate(0px, 20px);}100%{-webkit-transform: translate(0px, 0px);transform: translate(0px, 0px);}}@keyframes SJDvSqsplfm_rJVe26xMm_Animation{25%{-webkit-transform: translate(0px, 20px);transform: translate(0px, 20px);}75%{-webkit-transform: translate(0px, 0px);transform: translate(0px, 0px);}0%{-webkit-transform: translate(0px, 20px);transform: translate(0px, 20px);}100%{-webkit-transform: translate(0px, 0px);transform: translate(0px, 0px);}}@-webkit-keyframes SJDvSqsplfm_Animation{25%{opacity: 0;}40%{opacity: 1;}60%{opacity: 1;}75%{opacity: 0;}0%{opacity: 0;}100%{opacity: 0;}}@keyframes SJDvSqsplfm_Animation{25%{opacity: 0;}40%{opacity: 1;}60%{opacity: 1;}75%{opacity: 0;}0%{opacity: 0;}100%{opacity: 0;}}@-webkit-keyframes SJDvSqsplfm_Skw-SxnTxz7_Animation{25%{-webkit-transform: scale(0.8, 0.8);transform: scale(0.8, 0.8);}75%{-webkit-transform: scale(1, 1);transform: scale(1, 1);}0%{-webkit-transform: scale(0.8, 0.8);transform: scale(0.8, 0.8);}100%{-webkit-transform: scale(1, 1);transform: scale(1, 1);}}@keyframes SJDvSqsplfm_Skw-SxnTxz7_Animation{25%{-webkit-transform: scale(0.8, 0.8);transform: scale(0.8, 0.8);}75%{-webkit-transform: scale(1, 1);transform: scale(1, 1);}0%{-webkit-transform: scale(0.8, 0.8);transform: scale(0.8, 0.8);}100%{-webkit-transform: scale(1, 1);transform: scale(1, 1);}}@-webkit-keyframes SJ8PBcjpezQ_BkvjopgGQ_Animation{0%{-webkit-transform: translate(0px, 20px);transform: translate(0px, 20px);}50%{-webkit-transform: translate(0px, 0px);transform: translate(0px, 0px);}100%{-webkit-transform: translate(0px, 0px);transform: translate(0px, 0px);}}@keyframes SJ8PBcjpezQ_BkvjopgGQ_Animation{0%{-webkit-transform: translate(0px, 20px);transform: translate(0px, 20px);}50%{-webkit-transform: translate(0px, 0px);transform: translate(0px, 0px);}100%{-webkit-transform: translate(0px, 0px);transform: translate(0px, 0px);}}@-webkit-keyframes SJ8PBcjpezQ_Animation{0%{opacity: 0;}15%{opacity: 1;}35%{opacity: 1;}50%{opacity: 0;}100%{opacity: 0;}}@keyframes SJ8PBcjpezQ_Animation{0%{opacity: 0;}15%{opacity: 1;}35%{opacity: 1;}50%{opacity: 0;}100%{opacity: 0;}}#ByTeB9ialzQ *{-webkit-animation-duration: 2s;animation-duration: 2s;-webkit-animation-iteration-count: infinite;animation-iteration-count: infinite;-webkit-animation-timing-function: cubic-bezier(0, 0, 1, 1);animation-timing-function: cubic-bezier(0, 0, 1, 1);}#Sy--HqiaefQ{fill: #EEC09B;}#B1mbr9i6gMm{fill: #EEC09B;}#S1HWrcs6lfQ{fill: #EEC09B;}#S1D-ScspefQ{fill: #EEC09B;}#HyFbS9oaeGQ{fill: #EEC09B;}#ry3ZHcjpxf7{fill: #EEC09B;}#HJAbH9i6ezQ{fill: #EEC09B;}#HJyzScipxG7{fill: #3F2D16;}#H1lzS9i6xzX{fill: #3F2D16;}#SyGfBqiTlG7{fill: #3F2D16;}#SkEzHcs6lz7{fill: #543C27;}#S1Ufr5jalz7{fill: #3F2D16;}#BJuMr9oaezQ{fill: #664C31;}#ryYGHci6eGm{fill: #72583B;}#HkizB9s6lzX{fill: #3F2D16;}#BJTGBcsplzm{fill: #3F2D16;}#ryJXH5iTlzX{fill: #3F2D16;}#r1cXrcipxf7{fill: #EEC09B;}#H1nmH9opgMm{fill: #D6A881;}#SkC7Sqs6lzm{fill: #FCCDA6;}#rJl4H5iagz7{fill: #EEC09B;}#HJM4HqjpeGm{fill: #D6A881;}#H1NVH9jpeM7{fill: #D6A881;}#S1I4S9ipgGQ{fill: #D6A881;}#BkuES9spxzX{fill: #FCCDA6;}#rJiNrqialG7{fill: #EEC09B;}#rJaNS5jplGQ{fill: #D6A881;}#HyJHrqj6gzX{fill: #FCCDA6;}#BkWHBco6gMX{fill: #EEC09B;}#rJ7Brcjplzm{fill: #D6A881;}#ryBSrcjplM7{fill: #D6A881;}#H1wHBcj6gMQ{fill: #D6A881;}#rktSS9oTgz7{fill: #FCCDA6;}#ByiBr9i6lfQ{fill: #664C31;}#ByUIrqspeMX{fill: #DBA77F;}#Bk_Irqjpxz7{fill: #DBA77F;}#rk5UrqsagMm{fill: #EEC09B;}#rJhUrcsplMX{fill: #8A4D47;}#HJR8S9opgMQ{fill: #FDD4B2;}#B1lDrciplGX{fill: #3A2914;}#r1WPH9sTxz7{fill: #3A2914;}#S1XDHqsTgfm{fill: #8A4D47;}#S1NDBqjTlfQ{fill: #8A4D47;}#HyHwS5o6efQ{fill: none;stroke: #664C31;stroke-width: 2;stroke-linecap: round;stroke-miterlimit: 10;-webkit-animation-name: HyHwS5o6efQ_Animation;animation-name: HyHwS5o6efQ_Animation;-webkit-transform-origin: 50% 100%;transform-origin: 50% 100%;transform-box: fill-box;}#SJ8PBcjpezQ{fill: none;stroke: #664C31;stroke-width: 2;stroke-linecap: round;stroke-miterlimit: 10;-webkit-animation-name: SJ8PBcjpezQ_Animation;animation-name: SJ8PBcjpezQ_Animation;-webkit-transform-origin: 50% 100%;transform-origin: 50% 100%;transform-box: fill-box;}#SJDvSqsplfm{fill: none;stroke: #664C31;stroke-width: 2;stroke-linecap: round;stroke-miterlimit: 10;-webkit-animation-name: SJDvSqsplfm_Animation;animation-name: SJDvSqsplfm_Animation;-webkit-transform-origin: 50% 100%;transform-origin: 50% 100%;transform-box: fill-box;}#HJuvr5ipxz7{fill: none;stroke: #664C31;stroke-width: 2;stroke-linecap: round;stroke-miterlimit: 10;-webkit-animation-name: HJuvr5ipxz7_Animation;animation-name: HJuvr5ipxz7_Animation;-webkit-transform-origin: 50% 100%;transform-origin: 50% 100%;transform-box: fill-box;}#SJ8PBcjpezQ_BkvjopgGQ{-webkit-animation-name: SJ8PBcjpezQ_BkvjopgGQ_Animation;animation-name: SJ8PBcjpezQ_BkvjopgGQ_Animation;-webkit-transform-origin: 50% 100%;transform-origin: 50% 100%;transform-box: fill-box;}#SJDvSqsplfm_Skw-SxnTxz7{-webkit-animation-name: SJDvSqsplfm_Skw-SxnTxz7_Animation;animation-name: SJDvSqsplfm_Skw-SxnTxz7_Animation;-webkit-transform-origin: 50% 100%;transform-origin: 50% 100%;transform-box: fill-box;}#SJDvSqsplfm_rJVe26xMm{-webkit-animation-name: SJDvSqsplfm_rJVe26xMm_Animation;animation-name: SJDvSqsplfm_rJVe26xMm_Animation;-webkit-transform-origin: 50% 100%;transform-origin: 50% 100%;transform-box: fill-box;}#SJ8PBcjpezQ_ry0I26gz7{-webkit-animation-name: SJ8PBcjpezQ_ry0I26gz7_Animation;animation-name: SJ8PBcjpezQ_ry0I26gz7_Animation;-webkit-transform-origin: 50% 100%;transform-origin: 50% 100%;transform-box: fill-box;}#HyHwS5o6efQ_rJadnalz7{-webkit-animation-name: HyHwS5o6efQ_rJadnalz7_Animation;animation-name: HyHwS5o6efQ_rJadnalz7_Animation;-webkit-transform-origin: 50% 100%;transform-origin: 50% 100%;transform-box: fill-box;}#HyHwS5o6efQ_Hknuhagzm{-webkit-animation-name: HyHwS5o6efQ_Hknuhagzm_Animation;animation-name: HyHwS5o6efQ_Hknuhagzm_Animation;-webkit-transform-origin: 50% 100%;transform-origin: 50% 100%;transform-box: fill-box;}#HJuvr5ipxz7_SyQfT6gGQ{-webkit-animation-name: HJuvr5ipxz7_SyQfT6gGQ_Animation;animation-name: HJuvr5ipxz7_SyQfT6gGQ_Animation;-webkit-transform-origin: 50% 100%;transform-origin: 50% 100%;transform-box: fill-box;}#HJuvr5ipxz7_Bk4Gapez7{-webkit-animation-name: HJuvr5ipxz7_Bk4Gapez7_Animation;animation-name: HJuvr5ipxz7_Bk4Gapez7_Animation;-webkit-transform-origin: 50% 100%;transform-origin: 50% 100%;transform-box: fill-box;}#rJyDH9jpgfX_rJwRa6lGQ{-webkit-animation-name: rJyDH9jpgfX_rJwRa6lGQ_Animation;animation-name: rJyDH9jpgfX_rJwRa6lGQ_Animation;-webkit-transform-origin: 50% 50%;transform-origin: 50% 50%;transform-box: fill-box;}#HJwGB5jTlzQ_ryux0alf7{-webkit-animation-name: HJwGB5jTlzQ_ryux0alf7_Animation;animation-name: HJwGB5jTlzQ_ryux0alf7_Animation;-webkit-transform-origin: 50% 0%;transform-origin: 50% 0%;transform-box: fill-box;}#B1EUrcoTxMm_B1afAplzm{-webkit-animation-name: B1EUrcoTxMm_B1afAplzm_Animation;animation-name: B1EUrcoTxMm_B1afAplzm_Animation;-webkit-transform-origin: 50% 50%;transform-origin: 50% 50%;transform-box: fill-box;}</style>

<title>Asset 26</title>
<g id="BkAgHcspgMm">
	<g id="SkJWr9iaxz7">
		<g id="r1lZSciTlfX">
			<path id="Sy--HqiaefQ" d="M117.9,370H64.2c0.4-1.1,1.2-2.2,2.3-3.2c3.5-3.3,8-7.1,14.1-8.7c12-3.3,15.2-5.3,15.2-5.3&#10;&#9;&#9;&#9;&#9;l15.9,0.5L117.9,370z"/>
		</g>
	</g>
	<g id="rkfbH9oalGQ">
		<path id="B1mbr9i6gMm" d="M165.4,116.4c0,0,27.2,8.4,39.5,46.9c12.3,38.4,19.9,52.2,19.9,52.2s-9.4,15.2-18.5,8&#10;&#9;&#9;&#9;c-9.1-7.3-12.8-55.9-32.7-76.2C173.7,147.3,161.1,128.5,165.4,116.4z"/>
	</g>
	<g id="S14Wr5j6xfX">
		<path id="S1HWrcs6lfQ" d="M105.9,116.4c0,0-27.2,8.4-39.5,46.9s-19.9,52.2-19.9,52.2s9.4,15.2,18.5,8&#10;&#9;&#9;&#9;c9.1-7.3,12.8-55.9,32.7-76.2C97.6,147.3,110.3,128.5,105.9,116.4z"/>
	</g>
	<g id="SJU-B9o6xMm">
		<rect id="S1D-ScspefQ" x="99.4" y="127.9" width="71.2" height="77"/>
	</g>
	<g id="HJ_Wr5jpgGX">
		<path id="HyFbS9oaeGQ" d="M95.9,352.8c0,0-36-47.8-1.9-127.4l29.7,8.1c0,0-43.5,54.1-11.9,119.8L95.9,352.8z"/>
	</g>
	<g id="By9Zrqjpgz7">
		<g id="B1sWBciTxzQ">
			<path id="ry3ZHcjpxf7" d="M154.2,370h53.7c-0.4-1.1-1.2-2.2-2.3-3.2c-3.5-3.3-8-7.1-14.1-8.7&#10;&#9;&#9;&#9;&#9;c-12-3.3-15.2-5.3-15.2-5.3l-15.9,0.5L154.2,370z"/>
		</g>
	</g>
	<g id="BkaWHqo6xzX">
		<path id="HJAbH9i6ezQ" d="M176.2,352.8c0,0,36-47.8,1.9-127.4l-29.7,8.1c0,0,43.5,54.1,11.9,119.8L176.2,352.8z"/>
	</g>
	<path d="M93.2,228.8c0,0-16.6,36.1-16.6,54.5s3,46.8,3,46.8h3.8l1.4-6.9l1.3,4l2.3-11.5l2.1,14.4h4.8l1.1-4.4l1,4.4&#10;&#9;&#9;h5.2l1.4-5.2l1.8,5.2h7.9c0,0-3.3-26.1,1.2-48.3c4.4-22.2,17.6-42,17.6-42l2.8-11.9L93.2,228.8z" id="HJyzScipxG7"/>
	<path d="M179.4,228.8c0,0,16.6,36.1,16.6,54.5s-3,46.8-3,46.8h-3.8l-1.4-6.9l-1.3,4l-2.2-5.6L182,330h-4.8l-1.1-4.4&#10;&#9;&#9;l-1,4.4h-5.2l-1.4-12.5l-1.8,12.5h-7.9c0,0,3.3-26.1-1.2-48.3c-4.4-22.2-17.6-42-17.6-42l-2.8-11.9L179.4,228.8z" id="H1lzS9i6xzX"/>
	<g id="Hy-MH9opxfm">
		<path id="SyGfBqiTlG7" d="M179.9,228.7c-45.6,11.8-88.9,0-88.9,0l2-18.4l0.6-5.4l1.1-10.1l80.2,0.5l1.4,9.7l0.8,5.4&#10;&#9;&#9;&#9;L179.9,228.7z"/>
	</g>
	<g id="rymGSco6efX">
		<polygon id="SkEzHcs6lz7" points="177.2,210.3 93,210.3 93.6,204.9 176.4,204.9 &#9;&#9;"/>
	</g>
	<g id="r1SfB5s6eG7">
		<rect id="S1Ufr5jalz7" x="94" y="187.9" width="82.3" height="13.8"/>
	</g>
	<g id="HJwGB5jTlzQ_ryux0alf7" data-animator-group="true" data-animator-type="1"><g id="HJwGB5jTlzQ">
		<path d="M112.7,219.6c-6.2,7.9-8.6,18.5-6.5,28.3c1,4.7,3,9,4.5,13.5c3.8,10.8,5.2,22.5,4.1,33.9&#10;&#9;&#9;&#9;c-0.3,2.8-0.7,5.7,0.1,8.5c1.5,5.4,7,8.6,12.3,10.4c2.7,0.9,5.3,1.7,8.2,1.5l0.9-12.8l3.2,12.2c0.8-0.3,2.5-1.3,2.5-1.3l-1-3.9&#10;&#9;&#9;&#9;l2.3,1l-1.7-4.5c0,0,4.9,4.1,5.1,3.9c4.4-3.9,6.2-8.8,7.6-14.7c2.2-9.6,1.6-19.8,5.3-28.9c3-7.5,8.8-13.8,11.2-21.6&#10;&#9;&#9;&#9;c3-9.9-0.2-21.4-8-28.3C147.8,203.9,125.3,203.5,112.7,219.6z" id="BJuMr9oaezQ"/>
		<path d="M152.7,276.7c-1.2,3.6-2.5,7.2-4.6,10.3c-2.1,3.1-5.3,5.7-9,6.4c-5.5,1-11-2.5-14-7.2s-3.9-10.4-4.6-15.9&#10;&#9;&#9;&#9;c-1-8.8-1.2-18.4,3.6-25.8c0,0,4.5-6.3,11.7-6.3s14.4,13.8,14.6,18.5C150.7,261.4,152.7,276.7,152.7,276.7z" id="ryYGHci6eGm"/>
		<g id="Sk5fr5s6gfX">
			<path d="M124.3,244.6c-0.7,1.6-1.2,3.2-1.7,4.8c-0.4,1.6-0.7,3.3-0.9,4.9c-0.4,3.3-0.4,6.6-0.4,10s-0.1,6.9,0.3,10.2&#10;&#9;&#9;&#9;&#9;c0.5,3.4,1.5,6.7,3.2,9.5s4.1,5.1,6.9,6.5c1.4,0.7,2.9,1.1,4.4,1.3c1.5,0.1,2.9,0,4.3-0.6c2.8-1,5.3-3.2,7.2-5.8&#10;&#9;&#9;&#9;&#9;c1.9-2.7,3.3-5.8,4.9-8.9l0.3,0.1c-0.6,3.4-1.5,6.8-3.2,10s-4.4,6.1-8,7.6c-0.9,0.4-1.9,0.6-2.9,0.7s-2,0.1-2.9,0&#10;&#9;&#9;&#9;&#9;c-1.9-0.3-3.8-1-5.4-1.9c-1.6-1-3-2.2-4.2-3.6s-2.1-3-2.8-4.7c-1.4-3.3-2.1-6.7-2.7-10.1l-1-5.1c-0.3-1.7-0.7-3.4-0.8-5.2&#10;&#9;&#9;&#9;&#9;c-0.2-1.7-0.2-3.5-0.1-5.3s0.3-3.5,0.7-5.3c0.8-3.5,2.3-6.9,4.6-9.5L124.3,244.6z" id="HkizB9s6lzX"/>
		</g>
		<g id="BJnGr9jplGQ">
			<path d="M135.4,254.5c0,1.4-0.3,2.8-0.3,4.1c-0.1,0.7-0.1,1.3,0.1,2c0.2,0.7,0.5,1.3,0.9,1.9c0.8,1.2,1.3,2.6,1.5,4&#10;&#9;&#9;&#9;&#9;s0,2.9-0.5,4.2H137c-0.1-1.4-0.2-2.8-0.4-4.1c-0.1-0.7-0.2-1.3-0.4-2l-0.6-2c-0.2-0.7-0.4-1.3-0.7-2c-0.2-0.7-0.5-1.4-0.6-2.1&#10;&#9;&#9;&#9;&#9;C134.2,257.1,134.6,255.7,135.4,254.5L135.4,254.5z" id="BJTGBcsplzm"/>
		</g>
		<g id="H1RfrcspeGm">
			<path d="M158.9,248.5c0,0-2.1-5.5-4.3-7.6l-4.2,3.5c0,0,3.1,5.3,3.6,7.1L158.9,248.5z" id="ryJXH5iTlzX"/>
			<path d="M157.5,248.2L157.5,248.2c0.2-0.1,0.3,0,0.4,0.1c0,0,0.4,0.7,0.6,1.7c0,0.1-0.1,0.3-0.2,0.3c-0.1,0-0.3-0.1-0.3-0.2&#10;&#9;&#9;&#9;&#9;c-0.2-0.9-0.5-1.6-0.5-1.6C157.4,248.4,157.4,248.3,157.5,248.2z" id="ryeXr9iplG7"/>
			<path d="M154.8,249.9C154.9,249.9,154.9,249.9,154.8,249.9c0.2-0.1,0.3,0,0.4,0.1c0,0,0.4,0.7,0.6,1.7c0,0.1-0.1,0.3-0.2,0.3&#10;&#9;&#9;&#9;&#9;c-0.1,0-0.3-0.1-0.3-0.2c-0.2-0.9-0.5-1.6-0.5-1.6C154.7,250.1,154.8,250,154.8,249.9z" id="B1-7HqialzQ"/>
			<path d="M153.1,240.7c0.1-0.1,0.2-0.1,0.3,0c0,0,0.6,0.6,1.1,1.4c0.1,0.1,0,0.3-0.1,0.3c-0.1,0.1-0.3,0-0.3-0.1&#10;&#9;&#9;&#9;&#9;c-0.5-0.8-1-1.3-1-1.3C153,240.9,153,240.8,153.1,240.7L153.1,240.7z" id="ByMQS5oTgfm"/>
			<path d="M150.6,242.4c0.1-0.1,0.2-0.1,0.3,0c0,0,0.6,0.6,1.1,1.4c0.1,0.1,0,0.3-0.1,0.3c-0.1,0.1-0.3,0-0.3-0.1&#10;&#9;&#9;&#9;&#9;c-0.5-0.8-1-1.3-1-1.3C150.5,242.7,150.5,242.6,150.6,242.4C150.6,242.5,150.6,242.4,150.6,242.4z" id="H17QS9j6lGm"/>
			<path d="M150.1,245.9L150.1,245.9c0.9-0.4,1.5-0.8,1.5-0.8c0.1-0.1,0.3,0,0.3,0.1c0.1,0.1,0,0.3-0.1,0.3c0,0-0.7,0.5-1.6,0.8&#10;&#9;&#9;&#9;&#9;c-0.1,0-0.3,0-0.3-0.1C150,246.1,150,246,150.1,245.9z" id="SyE7Scs6gzm"/>
			<path d="M152,249.5L152,249.5c0.9-0.4,1.5-0.8,1.5-0.8c0.1-0.1,0.3,0,0.3,0.1c0.1,0.1,0.1,0.3-0.1,0.3c0,0-0.7,0.5-1.6,0.8&#10;&#9;&#9;&#9;&#9;c-0.1,0-0.3,0-0.3-0.1C151.9,249.7,151.9,249.6,152,249.5z" id="r1rQr5o6lfQ"/>
			<path d="M155.2,243.1C155.2,243.1,155.2,243,155.2,243.1c0.9-0.4,1.5-0.8,1.5-0.8c0.1-0.1,0.3,0,0.3,0.1c0.1,0.1,0,0.3-0.1,0.3&#10;&#9;&#9;&#9;&#9;c0,0-0.7,0.5-1.6,0.8c-0.1,0-0.3,0-0.3-0.1C155,243.2,155.1,243.1,155.2,243.1z" id="SkL7H9jTezQ"/>
			<path d="M157.1,246.7L157.1,246.7c0.9-0.4,1.5-0.8,1.5-0.8c0.1-0.1,0.3,0,0.3,0.1c0.1,0.1,0,0.3-0.1,0.3c0,0-0.7,0.5-1.6,0.8&#10;&#9;&#9;&#9;&#9;c-0.1,0-0.3,0-0.3-0.1S157,246.8,157.1,246.7z" id="SywQS5iaxfm"/>
		</g>
	</g></g>
	<g id="S1_7r5i6lfX">
		<g id="ByYXS5jpxMQ">
			<path id="r1cXrcipxf7" d="M46.5,222L46.5,222c13.3,11.8,44.3-7.7,44.3-7.7v-1.7l-0.1-9.8v-2.1L60,206&#10;&#9;&#9;&#9;&#9;c-7.9,1.8-11.6,4.9-13.1,7.8l0,0C44.6,218,46.4,221.8,46.5,222z"/>
		</g>
		<g id="SkjQSqjaxMX">
			<path id="H1nmH9opgMm" d="M46.5,222c13.3,11.8,44.3-7.7,44.3-7.7v-1.7C82.4,216.3,56.6,227,46.5,222z"/>
		</g>
		<g id="Sk6XS9iTezm">
			<path id="SkC7Sqs6lzm" d="M46.8,213.9c6-6.2,43.8-11,43.8-11v-2.1l-30.7,5.3C52,207.9,48.4,210.9,46.8,213.9z"/>
		</g>
		<g id="HyyVr5spxf7">
			<path id="rJl4H5iagz7" d="M84,215.5c1.7,2.8,5,4.9,9.4,4.8c12.7-0.1,17.3,10.4,17.3,10.4c1.2,0.9,2.3,1.3,3.2,1.5&#10;&#9;&#9;&#9;&#9;c2.7,0.5,4.4-1.1,4.4-1.1c6.2,1.9,6.1-3.4,6.1-3.4c1.6,1.2,3.3,0.3,3.3,0.3s1.1-0.7,1.7-2.5c0.9-2.5,0.8-7.1-4.9-14.4&#10;&#9;&#9;&#9;&#9;c-9.6-12.5-34-10.2-34-10.2c-1.7,0.6-3,1.3-4.2,2.2C82.1,206.3,81.7,211.6,84,215.5z"/>
		</g>
		<g id="rkb4ScoaefX">
			<path id="HJM4HqjpeGm" d="M106.8,209.4c0,0,12.1,1.9,17.6,18.3C124.5,227.6,123.7,213.2,106.8,209.4z"/>
		</g>
		<g id="By7NBqo6gz7">
			<path id="H1NVH9jpeM7" d="M118.4,231c0,0-4-10.4-14.1-14C104.3,217,115.5,218.1,118.4,231z"/>
		</g>
		<g id="SyrNr5iaxGX">
			<path id="S1I4S9ipgGQ" d="M84,215.5c1.7,2.8,5,4.9,9.4,4.8c12.7-0.1,17.3,10.4,17.3,10.4c1.2,0.9,2.3,1.3,3.2,1.5&#10;&#9;&#9;&#9;&#9;c-0.6-2.8-2.8-8.9-9.9-11.9c-9.5-4-12.4-1-17.5-5.4C86.6,214.9,86,214.7,84,215.5z"/>
		</g>
		<g id="Byv4HciplMQ">
			<path id="BkuES9spxzX" d="M85.8,203.5c5-0.3,17.3-0.8,26.7,3.3c9.2,4.1,13.9,11,17,18.6c0.9-2.5,0.8-7.1-4.9-14.4&#10;&#9;&#9;&#9;&#9;c-9.6-12.5-34-10.2-34-10.2C88.9,201.3,86.7,202.2,85.8,203.5z"/>
		</g>
	</g>
	<g id="HyFNBqialzX">
		<g id="rJcEr9oagGX">
			<path id="rJiNrqialG7" d="M224.4,222L224.4,222c-13.3,11.8-44.3-7.7-44.3-7.7v-1.7l0.1-9.8v-2.1l30.7,5.3&#10;&#9;&#9;&#9;&#9;c7.9,1.8,11.6,4.9,13.1,7.8l0,0C226.3,218,224.5,221.8,224.4,222z"/>
		</g>
		<g id="SJhVr9iTezX">
			<path id="rJaNS5jplGQ" d="M224.4,222c-13.3,11.8-44.3-7.7-44.3-7.7v-1.7C188.5,216.3,214.4,227,224.4,222z"/>
		</g>
		<g id="Hk0ESqiaxzm">
			<path id="HyJHrqj6gzX" d="M224.1,213.9c-6-6.2-43.8-11-43.8-11v-2.1l30.7,5.3C218.9,207.9,222.5,210.9,224.1,213.9z"/>
		</g>
		<g id="BJgHBcs6gf7">
			<path id="BkWHBco6gMX" d="M186.9,215.5c-1.7,2.8-5,4.9-9.4,4.8c-12.7-0.1-17.3,10.4-17.3,10.4&#10;&#9;&#9;&#9;&#9;c-1.2,0.9-2.3,1.3-3.2,1.5c-2.7,0.5-4.4-1.1-4.4-1.1c-6.2,1.9-6.1-3.4-6.1-3.4c-1.6,1.2-3.3,0.3-3.3,0.3s-1.1-0.7-1.7-2.5&#10;&#9;&#9;&#9;&#9;c-0.9-2.5-0.8-7.1,4.9-14.4c9.6-12.5,34-10.2,34-10.2c1.7,0.6,3,1.3,4.2,2.2C188.8,206.3,189.2,211.6,186.9,215.5z"/>
		</g>
		<g id="rJMSBqoTefX">
			<path id="rJ7Brcjplzm" d="M164.1,209.4c0,0-12.1,1.9-17.6,18.3C146.4,227.6,147.2,213.2,164.1,209.4z"/>
		</g>
		<g id="BJVSr9iTxMX">
			<path id="ryBSrcjplM7" d="M152.5,231c0,0,4-10.4,14.1-14C166.6,217,155.4,218.1,152.5,231z"/>
		</g>
		<g id="B1IHHqopgMm">
			<path id="H1wHBcj6gMQ" d="M186.9,215.5c-1.7,2.8-5,4.9-9.4,4.8c-12.7-0.1-17.3,10.4-17.3,10.4&#10;&#9;&#9;&#9;&#9;c-1.2,0.9-2.3,1.3-3.2,1.5c0.6-2.8,2.8-8.9,9.9-11.9c9.5-4,12.4-1,17.5-5.4C184.3,214.9,184.9,214.7,186.9,215.5z"/>
		</g>
		<g id="BJdBSqiagz7">
			<path id="rktSS9oTgz7" d="M185.2,203.5c-5-0.3-17.3-0.8-26.7,3.3c-9.2,4.1-13.9,11-17,18.6c-0.9-2.5-0.8-7.1,4.9-14.4&#10;&#9;&#9;&#9;&#9;c9.6-12.5,34-10.2,34-10.2C182,201.3,184.2,202.2,185.2,203.5z"/>
		</g>
	</g>
	<g id="HkcSBqiTgzm">
		<path d="M85.8,264c0,0-3.8,11.7-3.1,18H94c0,0,2-12.6,3.7-16.1L85.8,264z" id="ByiBr9i6lfQ"/>
		<path d="M87.5,266.4L87.5,266.4c-0.4-0.1-0.5-0.3-0.5-0.6c0-0.1,0.4-1.7,1.3-3.4c0.1-0.2,0.4-0.3,0.7-0.2s0.3,0.4,0.2,0.7&#10;&#9;&#9;&#9;c-0.8,1.7-1.2,3.2-1.2,3.2C87.9,266.2,87.7,266.4,87.5,266.4z" id="S1nrH9j6ezQ"/>
		<path d="M94,267.2L94,267.2c-0.4-0.1-0.5-0.3-0.5-0.6c0-0.1,0.4-1.7,1.3-3.4c0.1-0.2,0.4-0.3,0.7-0.2c0.2,0.1,0.3,0.4,0.2,0.7&#10;&#9;&#9;&#9;c-0.8,1.7-1.2,3.2-1.2,3.2C94.4,267.1,94.2,267.2,94,267.2z" id="SyTrr5oaxM7"/>
		<path d="M84.6,284.3c-0.3,0-0.5-0.2-0.5-0.5c0-0.1-0.1-1.7,0.2-3.7c0-0.3,0.3-0.5,0.6-0.4c0.3,0,0.5,0.3,0.4,0.6&#10;&#9;&#9;&#9;c-0.3,1.8-0.1,3.4-0.1,3.4C85.1,284.1,84.9,284.3,84.6,284.3L84.6,284.3z" id="rk0BBqjpgMX"/>
		<path d="M91,284.8c-0.3,0-0.5-0.2-0.5-0.5c0-0.1-0.1-1.7,0.2-3.7c0-0.3,0.3-0.5,0.6-0.4c0.3,0,0.5,0.3,0.4,0.6&#10;&#9;&#9;&#9;c-0.3,1.8-0.1,3.4-0.1,3.4C91.5,284.5,91.3,284.7,91,284.8L91,284.8z" id="B1J8B5ialM7"/>
		<path d="M96.3,279.8c-0.1,0-0.1,0-0.2,0c-1.8-0.6-3.4-0.7-3.4-0.7c-0.3,0-0.5-0.3-0.5-0.5c0-0.3,0.3-0.5,0.5-0.5&#10;&#9;&#9;&#9;c0.1,0,1.7,0.1,3.6,0.8c0.3,0.1,0.4,0.4,0.3,0.6C96.8,279.7,96.6,279.8,96.3,279.8z" id="ByeLSco6gMm"/>
		<path d="M98.1,271.5c-0.1,0-0.1,0-0.2,0c-1.8-0.6-3.4-0.7-3.4-0.7c-0.3,0-0.5-0.3-0.5-0.5s0.3-0.5,0.5-0.5c0.1,0,1.7,0.1,3.6,0.8&#10;&#9;&#9;&#9;c0.3,0.1,0.4,0.4,0.3,0.6C98.5,271.4,98.3,271.5,98.1,271.5z" id="rkZLr5oalMX"/>
		<path d="M84.5,277.7c-0.1,0-0.1,0-0.2,0c-1.8-0.6-3.4-0.7-3.4-0.7c-0.3,0-0.5-0.3-0.5-0.5c0-0.3,0.3-0.5,0.5-0.5&#10;&#9;&#9;&#9;c0.1,0,1.7,0.1,3.6,0.8c0.3,0.1,0.4,0.4,0.3,0.6C84.9,277.6,84.7,277.7,84.5,277.7z" id="r1MUScj6xGX"/>
		<path d="M86.2,269.4c-0.1,0-0.1,0-0.2,0c-1.8-0.6-3.4-0.7-3.4-0.7c-0.3,0-0.5-0.3-0.5-0.5c0-0.3,0.3-0.5,0.5-0.5&#10;&#9;&#9;&#9;c0.1,0,1.7,0.1,3.6,0.8c0.3,0.1,0.4,0.4,0.3,0.6C86.6,269.3,86.4,269.4,86.2,269.4z" id="r1mLr5o6ef7"/>
	</g>
	<g id="B1EUrcoTxMm_B1afAplzm" data-animator-group="true" data-animator-type="0"><g id="B1EUrcoTxMm">
		<g id="HJBIS5jTgzX">
			<path id="ByUIrqspeMX" d="M104,95.9L104,95.9c-4,0-7.3-3.3-7.3-7.3V80c0-4,3.3-7.3,7.3-7.3l0,0c4,0,7.3,3.3,7.3,7.3&#10;&#9;&#9;&#9;&#9;v8.6C111.3,92.7,108,95.9,104,95.9z"/>
		</g>
		<g id="r1wIH5sTgfQ">
			<path id="Bk_Irqjpxz7" d="M165.4,95.9L165.4,95.9c-4,0-7.3-3.3-7.3-7.3V80c0-4,3.3-7.3,7.3-7.3l0,0&#10;&#9;&#9;&#9;&#9;c4,0,7.3,3.3,7.3,7.3v8.6C172.7,92.7,169.4,95.9,165.4,95.9z"/>
		</g>
		<g id="B1KLSqiaxfm">
			<path id="rk5UrqsagMm" d="M134.7,130.5L134.7,130.5c-16.9,0-30.7-13.7-30.7-30.7v-30c0-16.9,13.7-30.7,30.7-30.7l0,0&#10;&#9;&#9;&#9;&#9;c16.9,0,30.7,13.7,30.7,30.7v30C165.4,116.7,151.7,130.5,134.7,130.5z"/>
		</g>
		<g id="ryoIH5i6eGQ">
			<path id="rJhUrcsplMX" d="M169.6,182.8c6.5-22.3,5.7-40.2,3.4-52.4l0,0l0,0c-0.1-0.4-0.2-0.8-0.2-1.2&#10;&#9;&#9;&#9;&#9;c-4.2-21.6-5.4-50.3-5.4-51.3v-7.7l-2.4-6.3v29.3c0,9.2-7.5,16.7-16.7,16.7h-26c-9.2,0-16.7-7.5-16.7-16.7V67.6h-3.4v57.9l0,0&#10;&#9;&#9;&#9;&#9;v2.2c0,0-0.3,20.2,4.7,32.2c0,0,0.9-10,3.1-12.4c0,0-1,15.8,2,22.8c0,0,0.8-9.5,3-12c0,0-1.4,11.5,6.1,18.5c0,0-2.1-12.6-1.4-12&#10;&#9;&#9;&#9;&#9;c3.8,3.3,9.3,11,14.9,12.8c30.6,9.8,9.9,37.2,45.4,44.2C179.9,221.7,163.2,204.9,169.6,182.8z"/>
		</g>
		<g id="HJTISqiTez7">
			<path id="HJR8S9opgMQ" d="M142,94.7c-0.7-5.9-3.8-18.5-7.5-18.5s-6.8,12.7-7.5,18.6c-2.1,0.6-3.6,2.5-3.6,4.7&#10;&#9;&#9;&#9;&#9;c0,2.7,2.2,4.9,4.9,4.9c1,0,2-0.3,2.8-0.9c1.1,0.5,2.2,0.9,3.5,0.9s2.6-0.3,3.6-0.9c0.8,0.6,1.8,0.9,2.8,0.9&#10;&#9;&#9;&#9;&#9;c2.7,0,4.9-2.2,4.9-4.9C145.8,97.1,144.2,95.1,142,94.7z"/>
		</g>
		<g id="rJyDH9jpgfX_rJwRa6lGQ" data-animator-group="true" data-animator-type="2"><g id="rJyDH9jpgfX">
			<path d="M127.3,84.3L127.3,84.3c-1.2,0-2.1-0.9-2.1-2.1v-3c0-1.2,0.9-2.1,2.1-2.1h0c1.2,0,2.1,0.9,2.1,2.1v3&#10;&#9;&#9;&#9;&#9;C129.4,83.4,128.4,84.3,127.3,84.3z" id="B1lDrciplGX"/>
			<path d="M141.7,84.3L141.7,84.3c-1.2,0-2.1-0.9-2.1-2.1v-3c0-1.2,0.9-2.1,2.1-2.1l0,0c1.2,0,2.1,0.9,2.1,2.1v3&#10;&#9;&#9;&#9;&#9;C143.8,83.4,142.8,84.3,141.7,84.3z" id="r1WPH9sTxz7"/>
		</g></g>
		<g id="HyfDScjTgGQ">
			<rect id="S1XDHqsTgfm" x="113" y="73.4" width="45.3" height="6.5"/>
		</g>
		<path d="M135,34.8c0,0-2.1-4.1-4.5-4.9c0,0,2.5,4.3,1.4,4.9c0,0-0.1-1-2.1-1.6l0.9,1.6c0,0-6.1-5-18,0&#10;&#9;&#9;&#9;c0,0,4.2-0.1,5.6,0.9c0,0-9.4-0.6-16.9,3.8c0,0,4.8-1,5.6,0c0,0-5.8,2.9-8.9,7.9c0,0,5-1.9,6.2-1.8c0,0-5,4.7-5.5,11.2&#10;&#9;&#9;&#9;c0,0,4.2-2.7,5.5-2.6c0,0-5.8,7.8-6.2,13.7c0,0,3-3.9,4.3-4.3c0,0-2.2,6.9-1.8,10.4c0,0,1.4-3,5.1-3.5c0,0-0.8,1-0.9,3.5&#10;&#9;&#9;&#9;c0,0,5.2-6.5,10.2-6.2l-3.5,1.8l4.9-1.5c0,0-1.2,0.7-1.7,2.3c0,0,2.9-2.5,4.8-2.9l-1.4,4.1c0,0,5.1-4.9,8.8-5.3&#10;&#9;&#9;&#9;c0,0-0.9,1.5-2.5,2.6c0,0,9.9-6.3,14.9-4.1c0,0-1.5,3.1-4.6,4.4c0,0,8.2-2.5,8.8-3.7c0,0-0.2,1.3-1.2,2.1c-1,0.7,4.2-0.6,4.9-1.6&#10;&#9;&#9;&#9;c0,0-0.8,2.6-1.2,3.2s4.7-1.8,5.5-3.8c0,0,1.2,2.9,0,4.1s3.8-1.8,4.1-4.3c0,0,3.4,5.4,2.1,8.7c0,0,4-4,3.8-7.1s1.9,3.1,1.4,6.3&#10;&#9;&#9;&#9;c0,0,1.4-4.9,1-9.2c0,0,2.6,5.8,1.7,10.5c0,0,4.3-2.2,4.2-7.7c0,0,0.9,4.7,0,6.5c0,0,2.4-4.3,0.4-13.1s-8-12.4-8-12.4&#10;&#9;&#9;&#9;s3.4,0.3,4.5,1.5c0,0-2.1-4.9-5.5-6c0,0,2.1-0.9,3.5,0s-2.8-4.3-9.5-4c0,0,1.2-2,3.4-2.5c2.1-0.5-5.5-1-7.5,0c0,0-0.2-3.4,2.1-4.9&#10;&#9;&#9;&#9;c0,0-6.2,0.9-7.8,2.2c0,0,0.6-4.4,2.2-6.2c0,0-7,2.5-8.9,4.9c0,0-0.6-3.1,0.6-4.3S135.7,32.3,135,34.8z" id="S1NDBqjTlfQ"/>
	</g></g>
</g>
<g id="HyHwS5o6efQ_Hknuhagzm" data-animator-group="true" data-animator-type="0"><g id="HyHwS5o6efQ_rJadnalz7" data-animator-group="true" data-animator-type="2"><path d="M68.3,145.8c0,0,4.5-19,0-29.6c-3.9-9.2-4.6-18.9,0.8-25.4c5.5-6.6,3.1-17.6-1-23.2&#10;&#9;c-4.5-6.1-2.5-17.8,0.4-21.6" id="HyHwS5o6efQ"/></g></g>
<g id="SJ8PBcjpezQ_BkvjopgGQ" data-animator-group="true" data-animator-type="0"><g id="SJ8PBcjpezQ_ry0I26gz7" data-animator-group="true" data-animator-type="2"><path d="M41.7,194.8c0,0-2.3-9.5,0-14.8c2-4.6,2.3-9.4-0.4-12.7c-2.7-3.3-1.6-8.8,0.5-11.6c2.2-3,1.3-8.9-0.2-10.8" id="SJ8PBcjpezQ"/></g></g>
<g id="SJDvSqsplfm_rJVe26xMm" data-animator-group="true" data-animator-type="0"><g id="SJDvSqsplfm_Skw-SxnTxz7" data-animator-group="true" data-animator-type="2"><path d="M227.5,191.4c0,0-4-16.5,0-25.8c3.4-8,4-16.4-0.7-22.2c-4.8-5.7-2.7-15.3,0.9-20.2c3.9-5.3,2.2-15.5-0.3-18.8" id="SJDvSqsplfm"/></g></g>
<g id="HJuvr5ipxz7_SyQfT6gGQ" data-animator-group="true" data-animator-type="0"><g id="HJuvr5ipxz7_Bk4Gapez7" data-animator-group="true" data-animator-type="2"><path d="M195,125.2c0,0-3.2-13.3,0-20.7c2.7-6.4,3.2-13.2-0.6-17.8c-3.8-4.6-2.2-12.3,0.7-16.2&#10;&#9;c3.1-4.2,1.8-12.5-0.3-15.1" id="HJuvr5ipxz7"/></g></g>
<script>(function(){var a=document.querySelector('#ByTeB9ialzQ'),b=a.querySelectorAll('style'),c=function(d){b.forEach(function(f){var g=f.textContent;g&amp;&amp;(f.textContent=g.replace(/transform-box:[^;\r\n]*/gi,'transform-box: '+d))})};c('initial'),window.requestAnimationFrame(function(){return c('fill-box')})})();</script></svg>