<svg xmlns="http://www.w3.org/2000/svg" viewBox="0 0 67.11 43.11"><defs><style>.cls-1{fill:#d1d1d1;}.cls-2{fill:#ea524e;}.cls-3{fill:#302866;}.cls-4{fill:#fff;}.cls-5{fill:#fbd648;}.cls-6{fill:#bff;}</style></defs><title>Asset 1</title><g id="Layer_2" data-name="Layer 2"><g id="Layer_1-2" data-name="Layer 1"><rect class="cls-1" x="42.9" y="6.83" width="24.7" height="3.5" transform="translate(4.76 32.6) rotate(-34.27)"/><path id="Fill-105" class="cls-2" d="M66,2.61a1.34,1.34,0,0,1-1.5-1.1,1.32,1.32,0,0,1,2.6-.4A1.34,1.34,0,0,1,66,2.61Z"/><polygon id="Fill-107" class="cls-3" points="51.8 36.91 57.5 36.91 57.5 34.61 51.8 34.61 51.8 36.91"/><path id="Fill-109" class="cls-2" d="M0,32.81H0a3.18,3.18,0,0,0,.2,1.4c0,.2.2.4.2.6,0,3.8,5.5,3.4,7.8,3.4H51.1a4.5,4.5,0,0,0,4.4-3.4,5,5,0,0,0,.2-1.2,19,19,0,0,0-.7-5.4,21.06,21.06,0,0,0-5.6-9.7c-3.9-3.9-10.1-6.1-15.2-6.3H31.9c-11.9.1-16.9,5.7-22.7,12-1.7,1.8-5.6,2.2-7.5,4a4.7,4.7,0,0,0-.9,1.2A6.13,6.13,0,0,0,0,32.81Z"/><path id="Fill-110" class="cls-3" d="M36.8,36.21a6.9,6.9,0,1,0,6.9-6.9A6.91,6.91,0,0,0,36.8,36.21Z"/><path id="Fill-111" class="cls-4" d="M40.6,36.21a3.1,3.1,0,1,0,3.1-3.1A3.12,3.12,0,0,0,40.6,36.21Z"/><path id="Fill-112" class="cls-3" d="M7.6,36.21a6.9,6.9,0,1,0,6.9-6.9A6.91,6.91,0,0,0,7.6,36.21Z"/><path id="Fill-113" class="cls-4" d="M11.4,36.21a3.1,3.1,0,1,0,3.1-3.1A3.12,3.12,0,0,0,11.4,36.21Z"/><path id="Fill-114" class="cls-5" d="M51.9,31.51a3.33,3.33,0,0,0,3.3,3.3h.3a5,5,0,0,0,.2-1.2,19,19,0,0,0-.7-5.4A3.29,3.29,0,0,0,51.9,31.51Z"/><path id="Fill-115" class="cls-6" d="M46.6,26.11H16.8a2.51,2.51,0,0,1-1.8-4.3,21.35,21.35,0,0,1,12.2-6.2c9.1-1.4,16.7,2.3,20.9,7.4A1.92,1.92,0,0,1,46.6,26.11Z"/><polygon id="Fill-116" class="cls-2" points="28.7 28.71 33.1 28.71 33.1 13.71 28.7 13.71 28.7 28.71"/><path id="Fill-117" class="cls-5" d="M0,32.81H0a3.18,3.18,0,0,0,.2,1.4H2.6a2.4,2.4,0,0,0,1.7-4.1,2.61,2.61,0,0,0-1.7-.7H.7A6.85,6.85,0,0,0,0,32.81Z"/></g></g></svg>