<svg version="1.1" id="SkMhbTlWm" xmlns="http://www.w3.org/2000/svg" xmlns:xlink="http://www.w3.org/1999/xlink" x="0px" y="0px" viewBox="0 0 270 380" style="enable-background:new 0 0 270 380;" xml:space="preserve"><style>@-webkit-keyframes S1TMG3ZaeW7_Animation{0%{opacity: 0;}16.67%{opacity: 1;}33.33%{opacity: 1;}50%{opacity: 0;}100%{opacity: 0;}}@keyframes S1TMG3ZaeW7_Animation{0%{opacity: 0;}16.67%{opacity: 1;}33.33%{opacity: 1;}50%{opacity: 0;}100%{opacity: 0;}}@-webkit-keyframes S1TMG3ZaeW7_rJiT-aeWX_Animation{0%{-webkit-transform: rotate(0deg);transform: rotate(0deg);}50%{-webkit-transform: rotate(3600deg);transform: rotate(3600deg);}100%{-webkit-transform: rotate(3600deg);transform: rotate(3600deg);}}@keyframes S1TMG3ZaeW7_rJiT-aeWX_Animation{0%{-webkit-transform: rotate(0deg);transform: rotate(0deg);}50%{-webkit-transform: rotate(3600deg);transform: rotate(3600deg);}100%{-webkit-transform: rotate(3600deg);transform: rotate(3600deg);}}@-webkit-keyframes S1TMG3ZaeW7_rycTZaxW7_Animation{0%{-webkit-transform: translate(-100px, 0px);transform: translate(-100px, 0px);}50%{-webkit-transform: translate(400px, 0px);transform: translate(400px, 0px);}100%{-webkit-transform: translate(400px, 0px);transform: translate(400px, 0px);}}@keyframes S1TMG3ZaeW7_rycTZaxW7_Animation{0%{-webkit-transform: translate(-100px, 0px);transform: translate(-100px, 0px);}50%{-webkit-transform: translate(400px, 0px);transform: translate(400px, 0px);}100%{-webkit-transform: translate(400px, 0px);transform: translate(400px, 0px);}}@-webkit-keyframes SJT-GhZ6eW7_ryaT7pe-m_Animation{33.33%{-webkit-transform: scale(1, 1);transform: scale(1, 1);}36.67%{-webkit-transform: scale(1, 0);transform: scale(1, 0);}40%{-webkit-transform: scale(1, 1);transform: scale(1, 1);}0%{-webkit-transform: scale(1, 1);transform: scale(1, 1);}100%{-webkit-transform: scale(1, 1);transform: scale(1, 1);}}@keyframes SJT-GhZ6eW7_ryaT7pe-m_Animation{33.33%{-webkit-transform: scale(1, 1);transform: scale(1, 1);}36.67%{-webkit-transform: scale(1, 0);transform: scale(1, 0);}40%{-webkit-transform: scale(1, 1);transform: scale(1, 1);}0%{-webkit-transform: scale(1, 1);transform: scale(1, 1);}100%{-webkit-transform: scale(1, 1);transform: scale(1, 1);}}@-webkit-keyframes SkibG3bTeW7_Hy9q7plbX_Animation{33.33%{-webkit-transform: scale(1, 1);transform: scale(1, 1);}36.67%{-webkit-transform: scale(1, 0);transform: scale(1, 0);}40%{-webkit-transform: scale(1, 1);transform: scale(1, 1);}0%{-webkit-transform: scale(1, 1);transform: scale(1, 1);}100%{-webkit-transform: scale(1, 1);transform: scale(1, 1);}}@keyframes SkibG3bTeW7_Hy9q7plbX_Animation{33.33%{-webkit-transform: scale(1, 1);transform: scale(1, 1);}36.67%{-webkit-transform: scale(1, 0);transform: scale(1, 0);}40%{-webkit-transform: scale(1, 1);transform: scale(1, 1);}0%{-webkit-transform: scale(1, 1);transform: scale(1, 1);}100%{-webkit-transform: scale(1, 1);transform: scale(1, 1);}}@-webkit-keyframes S1_gz3b6g-m_SJu7Q6eZX_Animation{0%{-webkit-transform: rotate(2deg);transform: rotate(2deg);}50%{-webkit-transform: rotate(-2deg);transform: rotate(-2deg);}100%{-webkit-transform: rotate(2deg);transform: rotate(2deg);}}@keyframes S1_gz3b6g-m_SJu7Q6eZX_Animation{0%{-webkit-transform: rotate(2deg);transform: rotate(2deg);}50%{-webkit-transform: rotate(-2deg);transform: rotate(-2deg);}100%{-webkit-transform: rotate(2deg);transform: rotate(2deg);}}#SkMhbTlWm *{-webkit-animation-duration: 3s;animation-duration: 3s;-webkit-animation-iteration-count: infinite;animation-iteration-count: infinite;-webkit-animation-timing-function: cubic-bezier(0, 0, 1, 1);animation-timing-function: cubic-bezier(0, 0, 1, 1);}#B1Vz2-TeZQ{fill: #72583B;}#B1Lz3ZaeWQ{fill: #72583B;}#Hk_z2b6gbX{fill: #EEC09B;}#HJ5GhZplWQ{fill: #EEC09B;}#Bk3G3-alWX{fill: #EEC09B;}#Hy0zhZagWm{fill: #EEC09B;}#Bkklznb6lbQ{fill: #3F2D16;}#B1Wxz2ZaeZQ{fill: #3F2D16;}#B1QlMhbpgWX{fill: #3F2D16;}#SkSlGn-TxZQ{fill: #EEC09B;}#S1weGh-Te-m{fill: #72583B;}#rJqxznWpgZm{fill: #EEC09B;}#rJhez2Wpg-7{fill: #603813;}#ByRlGnWaxWQ{fill: #EEC09B;}#SJJZz3WaebX{fill: #B5B5B5;}#SyWZG3ZTxbm{fill: #664C31;}#rJm-M2Wae-m{fill: #72583B;}#B1LZM3-pxWm{fill: #DBA77F;}#Hku-M2b6ebX{fill: #DBA77F;}#ry5bfhWpgZX{fill: #EEC09B;}#B13bz2-aebX{fill: #3A2914;}#HJ0bz2Z6eWQ{fill: #3A2914;}#HJgGGnbpx-7{fill: #8A4D47;}#H1Gfzh-TeWQ{fill: #8A4D47;}#By4fGh-Tx-m{fill: #8A4D47;}#Hk8fzhbTe-m{fill: #FDD4B2;}#SkDzf2ZTeZQ{fill: #FEBE57;}#ryuGGhbpeb7{fill: #E2AA4C;}#SytzzhWpeZm{fill: #D25C46;}#HJjGfhZTlZm{fill: #664C31;}#r1hfG3-alWX{fill: #664C31;}#S1TMG3ZaeW7{fill: #DEAD57;-webkit-animation-name: S1TMG3ZaeW7_Animation;animation-name: S1TMG3ZaeW7_Animation;-webkit-transform-origin: 50% 50%;transform-origin: 50% 50%;transform-box: fill-box;}#S1_gz3b6g-m_SJu7Q6eZX{-webkit-animation-name: S1_gz3b6g-m_SJu7Q6eZX_Animation;animation-name: S1_gz3b6g-m_SJu7Q6eZX_Animation;-webkit-transform-origin: 50% 50%;transform-origin: 50% 50%;transform-box: fill-box;}#SkibG3bTeW7_Hy9q7plbX{-webkit-animation-name: SkibG3bTeW7_Hy9q7plbX_Animation;animation-name: SkibG3bTeW7_Hy9q7plbX_Animation;-webkit-transform-origin: 50% 50%;transform-origin: 50% 50%;transform-box: fill-box;}#SJT-GhZ6eW7_ryaT7pe-m{-webkit-animation-name: SJT-GhZ6eW7_ryaT7pe-m_Animation;animation-name: SJT-GhZ6eW7_ryaT7pe-m_Animation;-webkit-transform-origin: 50% 50%;transform-origin: 50% 50%;transform-box: fill-box;}#S1TMG3ZaeW7_rycTZaxW7{-webkit-animation-name: S1TMG3ZaeW7_rycTZaxW7_Animation;animation-name: S1TMG3ZaeW7_rycTZaxW7_Animation;-webkit-transform-origin: 50% 50%;transform-origin: 50% 50%;transform-box: fill-box;}#S1TMG3ZaeW7_rJiT-aeWX{-webkit-animation-name: S1TMG3ZaeW7_rJiT-aeWX_Animation;animation-name: S1TMG3ZaeW7_rJiT-aeWX_Animation;-webkit-transform-origin: 50% 50%;transform-origin: 50% 50%;transform-box: fill-box;}</style>

<title>Asset 25</title>
<g id="SkgG2ZagWX">
	<g id="Sy-Ghbpxb7">
		<g id="rkzfnZ6e-m">
			<g id="BkQf2bpgZ7">
				<path id="B1Vz2-TeZQ" d="M86.6,119.3c0,0-23.8,8.7-24.2,43.5s0,58.8,0,58.8h52.5V119.3H86.6z"/>
			</g>
			<g id="S1HM3WagbQ">
				<path id="B1Lz3ZaeWQ" d="M143.2,119.3c0,0,23.8,8.7,24.2,43.5c0.3,34.9,0,58.8,0,58.8h-52.5V119.3H143.2z"/>
			</g>
		</g>
		<g id="ryDM2WplbX">
			<path id="Hk_z2b6gbX" d="M108.6,371.5H57.2c1.1-10,11.4-13.7,19.5-15c3.3-0.5,6.5-0.8,9.8-0.8h18.8&#10;&#9;&#9;&#9;&#9;c1.1,1.7,2,3.5,2.6,5.5C109.2,364.5,109.3,368.1,108.6,371.5z"/>
		</g>
		<g id="ByKG2b6g-m">
			<path id="HJ5GhZplWQ" d="M122.4,371.5h51.3c-1.1-10-11.4-13.7-19.5-15c-3.3-0.5-6.6-0.8-9.9-0.8h-18.9&#10;&#9;&#9;&#9;&#9;c-1.1,1.7-2,3.5-2.6,5.5C121.9,364.5,121.7,368.1,122.4,371.5z"/>
		</g>
		<g id="Bysf3-6x-Q">
			<path id="Bk3G3-alWX" d="M105.4,355.7v-9.4H85.7v9.4C85.7,355.7,95.8,360.4,105.4,355.7z"/>
		</g>
		<g id="r16z2WTlZX">
			<path id="Hy0zhZagWm" d="M145.3,355.7v-9.4h-19.8v9.4C125.5,355.7,135.7,360.4,145.3,355.7z"/>
		</g>
		<polygon points="167.5,164.5 149.9,164.5 149.9,120.6 140.7,120.6 140.7,164.5 90.2,164.5 90.2,120.6 81.1,120.6 &#10;&#9;&#9;&#9;81.1,164.5 62.4,164.5 62.4,228.9 65.5,228.9 62.4,349.9 112.6,349.9 114.9,278.3 117.3,349.9 167.5,349.9 164.4,228.9 &#10;&#9;&#9;&#9;167.5,228.9 &#9;&#9;" id="Bkklznb6lbQ"/>
		<g id="ByexM2ZTeZ7">
			<path id="B1Wxz2ZaeZQ" d="M107.5,359.7H66.3c0,0-13.1,1.5-9.1,11.8h51.3C108.6,371.5,111.1,365,107.5,359.7z"/>
		</g>
		<g id="BkGgMnb6xZX">
			<path id="B1QlMhbpgWX" d="M123.5,359.7h41.2c0,0,13.1,1.5,9.1,11.8h-51.4C122.4,371.5,120,365,123.5,359.7z"/>
		</g>
		<g id="SyEefn-plbX">
			<path id="SkSlGn-TxZQ" d="M37.9,236.6c0,0-2.2,26.7,16.2,33.2s6.5-31.5,6.5-31.5L37.9,236.6z"/>
		</g>
		<g id="r1Iez2ZaxZX">
			<path id="S1weGh-Te-m" d="M75.4,127.2l-0.3,4.2l-8.5,112.1l-28.3-4.2l-5.3-0.8C41.5,153.2,75.4,127.2,75.4,127.2z"/>
		</g>
		<g id="S1_gz3b6g-m_SJu7Q6eZX" data-animator-group="true" data-animator-type="1"><g id="S1_gz3b6g-m">
			<g id="SyKeGnZpxZX">
				<path id="rJqxznWpgZm" d="M216.1,184.9c0,0,8.9-9.6,16.2-3c7.2,6.6,8.5,19.3,0.6,22.5c-7.9,3.2-13.8,4.8-22.7,0.7&#10;&#9;&#9;&#9;&#9;&#9;L216.1,184.9z"/>
			</g>
			<g id="rkoez2bax-X">
				<rect id="rJhez2Wpg-7" x="220" y="69.6" width="6.9" height="303.3"/>
			</g>
			<g id="HypxMhbTgWX">
				<path id="ByRlGnWaxWQ" d="M199.9,197.3l7.6-2.9c0,0,1.6-20,14.3-12.3c12.7,7.7,5.8,20.9,5.8,20.9s-9.6-3-8.2-14.9&#10;&#9;&#9;&#9;&#9;&#9;l-2.5,19.1l-11.6,4.6L199.9,197.3z"/>
			</g>
			<path d="M260.6,28.9c-0.4-6.8-0.7-13.6-1.2-20.4c-0.6,6.8-0.9,13.6-1.2,20.4l-0.2,5.1c-0.1,1.6-0.3,3.2-0.6,4.8&#10;&#9;&#9;&#9;&#9;c-0.6,3.2-1.6,6.3-3,9.1c-4.3,8.7-12,15.1-21.3,17.8c-1.8,0.5-3.7,0.9-5.6,1.1l-3.7-61.4l-3.7,61.4c-1.9-0.2-3.8-0.5-5.6-1.1&#10;&#9;&#9;&#9;&#9;c-9.3-2.7-17-9.2-21.3-17.8c-1.4-2.9-2.4-6-3-9.1c-0.3-1.6-0.5-3.2-0.6-4.8l-0.2-5.1c-0.3-6.8-0.7-13.6-1.2-20.4&#10;&#9;&#9;&#9;&#9;c-0.5,6.8-0.9,13.6-1.2,20.4l-0.2,5.1c0,1.8,0,3.5,0.2,5.3c0.4,3.6,1.3,7,2.7,10.3c2.8,6.7,7.6,12.3,13.6,16.3l2.3,1.4&#10;&#9;&#9;&#9;&#9;c0.8,0.4,1.6,0.8,2.4,1.2c0.8,0.4,1.6,0.7,2.5,1c0.8,0.3,1.7,0.6,2.6,0.9c2.2,0.7,4.4,1.1,6.7,1.3l-0.6,9.2h9.1l-0.6-9.2&#10;&#9;&#9;&#9;&#9;c2.3-0.2,4.5-0.7,6.7-1.3c0.9-0.2,1.7-0.5,2.6-0.9c0.9-0.3,1.7-0.6,2.5-1c0.8-0.4,1.6-0.8,2.4-1.2l2.3-1.4&#10;&#9;&#9;&#9;&#9;c6-4,10.8-9.7,13.6-16.3c1.4-3.3,2.3-6.7,2.7-10.3c0.2-1.8,0.3-3.5,0.2-5.3L260.6,28.9z" id="SJJZz3WaebX"/>
		</g></g>
		<g id="Syx-znZTxZm">
			<path id="SyWZG3ZTxbm" d="M219.1,228.9c0,0-20.8,17.7-45.3,10.2c-8.3-2.5-13.2-16.1-16-32.9c-5.5-33-3.2-78.5-3.2-78.5&#10;&#9;&#9;&#9;&#9;c0.8,0.7,1.4,1.5,2,2.3c3.2,4.3,10.1,16.1,20.9,46.4c2.1,6,4.4,12.7,6.9,20.2l22.9-7.8l9.1,31.3L219.1,228.9z"/>
		</g>
		<g id="rkzWf3WTgbX">
			<path id="rJm-M2Wae-m" d="M219.1,228.9c0,0-20.8,17.7-45.3,10.2c-8.3-2.5-13.2-16.1-16-32.9l-1.2-17.7&#10;&#9;&#9;&#9;&#9;c0,0-4.7-49.6,0.1-58.5c3.2,4.3,10.1,16.1,20.9,46.4c4.2,18,6.5,36.4,6.9,54.9c0,0,20.4-1.4,32.1-11.2L219.1,228.9z"/>
		</g>
		<g id="ByNWfnZpgbQ">
			<g id="BJBZMnW6xWm">
				<path id="B1LZM3-pxWm" d="M85.2,78.5L85.2,78.5c4.1,0,7.4,3.3,7.4,7.4v8.7c0,4.1-3.3,7.4-7.4,7.4l0,0&#10;&#9;&#9;&#9;&#9;&#9;c-4.1,0-7.4-3.3-7.4-7.4v-8.7C77.8,81.8,81.1,78.5,85.2,78.5z"/>
			</g>
			<g id="rkwbz3b6xWX">
				<path id="Hku-M2b6ebX" d="M147.3,78.5L147.3,78.5c4.1,0,7.4,3.3,7.4,7.4v8.7c0,4.1-3.3,7.4-7.4,7.4l0,0&#10;&#9;&#9;&#9;&#9;&#9;c-4.1,0-7.4-3.3-7.4-7.4v-8.7C139.9,81.8,143.2,78.5,147.3,78.5z"/>
			</g>
			<g id="HyYZzhWae-X">
				<path id="ry5bfhWpgZX" d="M116.2,44.4L116.2,44.4c17.1,0,31,13.9,31,31v30.4c0,17.1-13.9,31.1-31,31.1h0&#10;&#9;&#9;&#9;&#9;&#9;c-17.1,0-31.1-13.9-31.1-31.1V75.5C85.2,58.3,99.1,44.4,116.2,44.4z"/>
			</g>
			<g id="SkibG3bTeW7_Hy9q7plbX" data-animator-group="true" data-animator-type="2"><g id="SkibG3bTeW7">
				<path id="B13bz2-aebX" d="M109,83.6L109,83.6c1.2,0,2.2,1,2.2,2.2v2.9c0,1.2-1,2.2-2.2,2.2h0c-1.2,0-2.2-1-2.2-2.2&#10;&#9;&#9;&#9;&#9;&#9;v-2.9C106.8,84.6,107.8,83.6,109,83.6z"/>
			</g></g>
			<g id="SJT-GhZ6eW7_ryaT7pe-m" data-animator-group="true" data-animator-type="2"><g id="SJT-GhZ6eW7">
				<path id="HJ0bz2Z6eWQ" d="M123.2,83.6L123.2,83.6c1.2,0,2.2,1,2.2,2.2v2.9c0,1.2-1,2.2-2.2,2.2h0&#10;&#9;&#9;&#9;&#9;&#9;c-1.2,0-2.2-1-2.2-2.2v-2.9C121,84.6,122,83.6,123.2,83.6z"/>
			</g></g>
			<g id="BJyGMhbpgWm">
				<rect id="HJgGGnbpx-7" x="91.3" y="75.1" width="23" height="6.7"/>
			</g>
			<g id="HJWMznZaeW7">
				<rect id="H1Gfzh-TeWQ" x="118.2" y="75.1" width="23" height="6.7"/>
			</g>
			<g id="Bk7GM2-6xZ7">
				<path id="By4fGh-Tx-m" d="M146.1,58.3c0,0,2,58-5.2,59.1c0,0-2.2-13.5-24.6-13.5s-24.6,13.5-24.6,13.5&#10;&#9;&#9;&#9;&#9;&#9;c-7.2-1.1-5.2-59.1-5.2-59.1h-3.9v66.1c0,21.6,33.7,21.2,33.7,21.2s33.7,0.4,33.7-21.2V58.3H146.1z"/>
			</g>
			<g id="SyrfM3WplZ7">
				<path id="Hk8fzhbTe-m" d="M121.5,98.4c-0.5-4.3-2.8-13.5-5.5-13.5s-5,9.3-5.5,13.6c-1.9,0.6-3,2.6-2.4,4.5&#10;&#9;&#9;&#9;&#9;&#9;c0.4,1.5,1.8,2.5,3.3,2.5c0.7,0,1.4-0.2,2-0.6c1.6,0.9,3.6,0.9,5.2,0c1.6,1.2,3.9,0.8,5-0.8s0.8-3.9-0.8-5&#10;&#9;&#9;&#9;&#9;&#9;C122.4,98.7,121.9,98.5,121.5,98.4L121.5,98.4z"/>
			</g>
			<path d="M148.1,55.4H81.8L49.1,69.6h131.8L148.1,55.4z" id="SkDzf2ZTeZQ"/>
			<path d="M138.8,19.2H91l-9.3,36.1h66.4L138.8,19.2z" id="ryuGGhbpeb7"/>
			<polygon points="146.1,47.6 83.7,47.6 81.8,55.4 148.1,55.4 &#9;&#9;&#9;" id="SytzzhWpeZm"/>
		</g>
		<g id="BkqzG3b6l-Q">
			<path id="HJjGfhZTlZm" d="M75.4,127.2l-0.3,4.2l-2,2.2c-25.2,36-33,90.3-34.8,105.7l-5.3-0.8&#10;&#9;&#9;&#9;&#9;C41.5,153.2,75.4,127.2,75.4,127.2z"/>
		</g>
		<path d="M142.9,193.6c0,14.7-12,26.7-26.7,26.7c-14.7,0-26.7-12-26.7-26.7H142.9z" id="r1hfG3-alWX"/>
	</g>
	<g id="S1TMG3ZaeW7_rycTZaxW7" data-animator-group="true" data-animator-type="0"><g id="S1TMG3ZaeW7_rJiT-aeWX" data-animator-group="true" data-animator-type="1"><path d="M54.6,343.5l-1-1.5c-0.1-1.2-0.3-2.5-0.6-3.7c0.7,0.4,1.4,0.7,2.1,1.1l0.3-0.4c-0.8-0.5-1.7-0.9-2.5-1.3&#10;&#9;&#9;c-0.6-2.3-2-4.4-3.8-5.9c-2.4-1.9-5.5-2.5-8.3-2.7c-1.2-0.5-2.4-0.8-3.7-1l-0.4-0.1c-1.2-1.7-3.1-3.6-5.6-3.6h-0.1v0.5h0.1&#10;&#9;&#9;c2.1,0,3.9,1.7,4.9,3c-1.3-0.2-2.6-0.3-3.9-0.4c-0.5-0.1-1-0.2-1.4-0.4c-3.3-0.7-5.8-0.6-7.9,0.2c-0.6,0.3-1.2,0.6-1.7,1l-3-0.1&#10;&#9;&#9;h-1.1c0.7-0.7,1.4-1.5,2.2-2.2l-0.4-0.4c-0.9,0.9-1.8,1.7-2.5,2.6c-0.6,0-1.2,0.1-1.7,0.2c-1.5,0.4-2.8,1.2-3.9,2.4&#10;&#9;&#9;c-0.4,0.1-0.7,0.2-1.1,0.3l-0.4,0.2c-0.1-0.4-0.2-0.9-0.2-1.3l-0.5,0.1c0.1,0.5,0.2,0.9,0.3,1.4c-0.8,0.3-1.6,0.8-2.2,1.3&#10;&#9;&#9;c-0.9,0.5-1.7,1.3-2.2,2.2c-0.4,0.8-0.7,1.8-0.7,2.7c-0.1,0.5-0.2,1-0.2,1.4c-0.5,2.5-0.6,5-0.4,7.5c0.2,1.8,0.7,3.6,1.4,5.3&#10;&#9;&#9;c0.1,0.7,0.1,1.4,0.2,2.1c-0.1,0.3-0.2,0.6-0.3,0.9c-1.7-1.9-3.3-4-3.5-6.5l-0.5,0c0.3,2.8,2,5,3.9,7c-0.3,0.8-0.5,1.7-0.6,2.5&#10;&#9;&#9;c-0.4,2.2,0,4.4,1.1,6.3c0.9,1.2,2,2.2,3.2,3l1.1,0.8c0.6,1.2,1.4,2.3,2.4,3.2l0.4-0.4c-0.7-0.7-1.2-1.4-1.8-2.2&#10;&#9;&#9;c1.4,0.9,2.9,1.7,4.4,2.3c2.2,0.7,4.4,1.2,6.7,1.3c1.6,0.7,3.3,1.1,5.1,1.1H26c1.5,0,3.1-0.3,4.5-0.8l0.2,0.1l0.6,0.2&#10;&#9;&#9;c1.8,0.8,3.7,1.3,5.6,1.7c0.6,0.1,1.2,0.1,1.7,0.1c1.6,0,3.2-0.4,4.6-1.3c1.2-0.9,2.2-2,3-3.2c0.6-0.9,1.2-1.8,1.9-2.8&#10;&#9;&#9;c1.9-1.6,3.8-3.3,5.6-5.1l-0.4-0.4c-1.4,1.5-2.9,2.8-4.5,4.2c0.4-0.8,0.8-1.7,1.1-2.6c0.7-2.1,1.2-4.4,1.2-6.7&#10;&#9;&#9;c0.1-0.1,0.2-0.3,0.3-0.5c0-0.1,0-0.2,0-0.3l0.2-0.2c0.5,1.6,0.6,3.2,0.5,4.9l0.5,0c0.2-1.8,0-3.6-0.5-5.4c0.9-1,1.5-2.3,1.5-3.7&#10;&#9;&#9;c1.1-0.6,2-1.6,2.5-2.8C56.9,347.4,55.7,345.3,54.6,343.5z M53.2,345c0,2-0.2,3.9-0.8,5.8c-0.3,0.7-0.6,1.4-1,2&#10;&#9;&#9;c0-1.8,0-3.6-0.1-5.3c-0.2-2.7-0.6-5.9-2.2-8.3c-0.3-0.9-0.7-1.8-1.1-2.6l0.7,0.2c1.7,1.7,3.2,3.5,4.5,5.6&#10;&#9;&#9;C53.2,343.1,53.2,344,53.2,345z M21,372c-0.6-0.3-1.2-0.5-1.7-0.9c2.2,0.5,4.4,0.8,6.6,1h0.5c-1.4,0-2.8,0-4.2-0.1L21,372z&#10;&#9;&#9; M4.5,347.7c0-0.8,0.1-1.6,0.2-2.5c0.2,0.9,0.5,1.9,0.7,2.8c0,0,0,0.1,0,0.1c0,0.5,0.1,1,0.1,1.5c-0.1,0.5-0.1,1-0.1,1.6&#10;&#9;&#9;c-0.1,0.3-0.2,0.5-0.3,0.8l-0.2,0.6v0.1c-0.1-0.2-0.2-0.5-0.3-0.7C4.5,350.5,4.4,349.1,4.5,347.7z M4.7,335.2&#10;&#9;&#9;c0.5-0.8,1.1-1.5,1.8-2.1c0.7-0.4,1.4-0.7,2.1-1c0,0.2,0.1,0.3,0.1,0.5c-2.2,2.9-3.6,6.3-4.2,9.9l-0.3-1.3&#10;&#9;&#9;c-0.3-1.1-0.4-2.2-0.4-3.4C4,336.9,4.3,336,4.7,335.2z M30.5,327.9h1.3c0.8,0.2,1.7,0.5,2.5,0.8l-2.4-0.1l-0.7-0.2&#10;&#9;&#9;c-0.5-0.2-0.9-0.3-1.4-0.5L30.5,327.9z M41.3,329.9c1,0.5,1.9,1.2,2.8,2h-0.2c-0.8,0-1.6,0-2.4,0c-1.3-0.8-2.6-1.6-3.9-2.2&#10;&#9;&#9;l-0.2-0.2c1.1,0,2.1,0.1,3.1,0.2C40.8,329.6,41.1,329.7,41.3,329.9z M50.8,355.9c0,0.2,0,0.5,0,0.7l-0.6,0.5c0.1-0.7,0.2-1.4,0.2-2&#10;&#9;&#9;l0.1-0.1l0.3,0.6C50.8,355.6,50.8,355.7,50.8,355.9z M48.4,358.9L48.4,358.9l-0.6,0.5c0-0.1,0-0.2,0-0.2l0.4-0.3l0.2-0.1&#10;&#9;&#9;C48.4,358.8,48.4,358.9,48.4,358.9z M40.4,369.1l-0.2,0.1c0.1-0.1,0.2-0.3,0.4-0.4c0.4-0.5,0.7-1,1-1.5c0.4-0.3,0.8-0.6,1.2-0.9&#10;&#9;&#9;c1.9-1.4,3.4-3.2,4.5-5.2c0.1-0.3,0.2-0.6,0.3-0.9l0.6-0.5c-0.1,0.5-0.3,1-0.5,1.5C46.2,364.6,43.6,367.3,40.4,369.1L40.4,369.1z&#10;&#9;&#9; M12,366.3l-0.2-0.2l0,0L12,366.3z M5.5,352.5c0.1,0.9,0.3,1.8,0.6,2.6c-0.1-0.3-0.3-0.6-0.4-0.9s-0.3-0.7-0.5-1&#10;&#9;&#9;c0.1-0.2,0.2-0.4,0.2-0.6L5.5,352.5z M4.9,343.8c0.5-3.8,1.9-7.4,4.1-10.6c0.2,0.7,0.5,1.4,0.8,2.1c-2.2,2-3.7,4.7-4.3,7.6&#10;&#9;&#9;c-0.2,0.8-0.2,1.6-0.2,2.4C5.1,344.8,5,344.3,4.9,343.8L4.9,343.8z M50.7,353.5l-0.2,0.1c0-0.1,0-0.3,0-0.4L50.7,353.5z M49,356&#10;&#9;&#9;c-0.1,0.2-0.3,0.4-0.4,0.5c0.2-0.5,0.3-1,0.4-1.5l0.4-0.2c-0.1,0.4-0.1,0.7-0.2,1L49,356z M46.8,360.9L46.8,360.9&#10;&#9;&#9;c-1,2.1-2.5,3.8-4.3,5.1l-0.1,0.1c1.1-1.1,2.1-2.4,3-3.7c0.2-0.3,0.5-0.7,0.7-1L46.8,360.9z M20.4,370c-0.2-0.1-0.4-0.2-0.6-0.3&#10;&#9;&#9;c-0.1-0.1-0.3-0.2-0.4-0.3h0.3c1.5,0.5,3,0.9,4.6,1.1l0.1,0c-0.5,0-1,0-1.6,0C22,370.3,21.2,370.1,20.4,370L20.4,370z M10.9,365.3&#10;&#9;&#9;c-0.3-0.3-0.5-0.6-0.7-0.9C10.4,364.7,10.7,365,10.9,365.3L10.9,365.3z M14.9,332.2l0.6-0.1c-0.6,0.3-1.2,0.5-1.7,0.8&#10;&#9;&#9;C14.1,332.7,14.5,332.4,14.9,332.2L14.9,332.2z M36.2,330.9c0.2,0.1,0.4,0.2,0.7,0.3l-0.4-0.1L36.2,330.9z M45.7,361.1l-1.3,1&#10;&#9;&#9;c0.5-0.6,1.1-1.2,1.8-1.6C46.1,360.6,45.9,360.8,45.7,361.1L45.7,361.1z M10,362.5L10,362.5l-0.1-0.3l-0.1-0.2l-0.2-0.3&#10;&#9;&#9;c-0.6-1-1.2-2.1-1.8-3.2c-0.1-0.3-0.1-0.6-0.2-0.8c0.2,0.3,0.5,0.6,0.8,0.8c0.7,1.8,1.6,3.5,2.7,5.1c0.2,0.4,0.4,0.8,0.6,1.1&#10;&#9;&#9;C11,364.1,10.5,363.3,10,362.5z M7.4,356.5c0-0.1,0-0.1,0-0.2c0,0.1,0.1,0.2,0.2,0.3l0.2,0.6c-0.1-0.2-0.3-0.3-0.4-0.5L7.4,356.5z&#10;&#9;&#9; M7.2,347.8c0,0.6,0.1,1.2,0.1,1.9c-0.1,0.4-0.1,0.7-0.2,1.1s-0.1,0.6-0.1,0.9c-0.1-0.4-0.2-0.7-0.3-1.1s0-0.9,0-1.4L7.2,347.8z&#10;&#9;&#9; M49.7,352.3c-0.2-0.3-0.4-0.6-0.6-1c-0.1-0.5-0.2-1-0.3-1.4c0.3,0.5,0.6,1,0.9,1.5C49.7,351.7,49.7,352,49.7,352.3L49.7,352.3z&#10;&#9;&#9; M18.6,367.3c-1.5-0.9-2.9-1.9-4.2-3c-0.2-0.3-0.5-0.7-0.7-1c-0.3-0.5-0.5-1-0.8-1.5h0.1c0.9,0.4,1.7,0.8,2.6,1.2l1,0.4&#10;&#9;&#9;c1.5,2.3,3.7,4.2,6.2,5.4c-0.4,0-0.9,0-1.3,0C20.6,368.3,19.7,367.9,18.6,367.3L18.6,367.3z M11.4,363.4c-0.1-0.3-0.2-0.5-0.4-0.8&#10;&#9;&#9;l-0.2-0.4c0.4,0.6,0.9,1.1,1.3,1.7c0.6,0.8,1.3,1.5,2,2.2c-0.3,0-0.6,0-0.9-0.1C12.6,365.1,12,364.3,11.4,363.4L11.4,363.4z&#10;&#9;&#9; M7.3,354.2L7.3,354.2c0,0.1,0.1,0.2,0.1,0.4l0,0C7.4,354.5,7.4,354.3,7.3,354.2L7.3,354.2z M8,349.4v1.1l-0.1-0.8L8,349.4z&#10;&#9;&#9; M11.6,338.6l0.2,0.3c-0.1,0.2-0.2,0.4-0.2,0.5c0-0.2-0.1-0.4-0.1-0.6L11.6,338.6z M11.7,340.2c0.1-0.3,0.3-0.6,0.4-0.9l0.3,0.4&#10;&#9;&#9;c-0.2,0.2-0.4,0.5-0.6,0.7C11.7,340.4,11.7,340.3,11.7,340.2L11.7,340.2z M14.8,335c0.3-0.2,0.6-0.3,0.9-0.5&#10;&#9;&#9;c-0.2,0.1-0.3,0.2-0.4,0.4c-1.1,1.1-1.9,2.6-2.1,4.2l-0.4,0.4c-0.1-0.2-0.3-0.4-0.4-0.5l0.4-0.9c0.4-0.8,0.8-1.7,1.2-2.5&#10;&#9;&#9;C14.2,335.3,14.5,335.1,14.8,335L14.8,335z M38.7,332.7l0.5-0.1c0.1,0.2,0.3,0.3,0.5,0.5L38.7,332.7z M40,333.9l0.8,0.4l0.2,0.1h0&#10;&#9;&#9;c-0.5-0.1-0.9-0.1-1.4-0.2c-0.2-0.3-0.5-0.6-0.7-0.9L40,333.9z M28.4,370.1c-0.4-0.1-0.9-0.2-1.3-0.3l-0.4-0.2&#10;&#9;&#9;c1.7,0.2,3.3,0,4.9-0.7c0.4,0,0.8,0,1.2-0.1C31.4,369.4,29.9,369.9,28.4,370.1L28.4,370.1z M16.2,362.6l-0.3-0.1l-1.8-0.8l1.1-0.1&#10;&#9;&#9;c0.3,0.3,0.5,0.5,0.8,0.8L16.2,362.6z M10,359.9l0.4,0.3c1,1.7,2.2,3.2,3.7,4.5c0.4,0.5,0.7,0.9,1.1,1.4H15&#10;&#9;&#9;c-0.8-0.8-1.6-1.6-2.3-2.5C11.7,362.4,10.8,361.3,10,359.9C10,360,10,360,10,359.9z M8.6,351.3c0.1,0.5,0.3,1,0.5,1.5&#10;&#9;&#9;c0,0.5,0,0.9,0.1,1.4c-0.1-0.3-0.3-0.6-0.4-1C8.7,352.6,8.6,352,8.6,351.3z M37.8,332.9l0.5,0.6l0.5,0.8c-1.3-0.1-2.5-0.2-3.8-0.3&#10;&#9;&#9;l-0.3-0.2C35.7,333.4,36.7,333.1,37.8,332.9z M41.5,338.6c0.6,1.2,1,2.4,1.4,3.5s0.9,2.6,1.3,4l-0.1-0.1c-0.2-0.4-0.4-0.7-0.6-1.1&#10;&#9;&#9;c-0.4-0.5-0.9-1-1.4-1.4l0-0.1c-0.8-1.7-2-3.3-3.3-4.7c-0.1-0.3-0.3-0.6-0.5-0.9c-0.5-1-1.1-1.9-1.9-2.7c0.5,0.2,1,0.5,1.5,0.7&#10;&#9;&#9;c1.2,0.6,2.3,1.4,3.3,2.4L41.5,338.6z M28.7,367.7c-0.9-0.5-1.8-1-2.6-1.6c1.7-0.1,3.3-0.5,4.9-1.1c0.2,0,0.4,0,0.6,0h0.2l0.7,0.5&#10;&#9;&#9;c0.5,0.4,1,0.7,1.6,1C32.4,367.2,30.6,367.6,28.7,367.7z M33.9,367.1c-0.2,0.1-0.3,0.3-0.5,0.4c-0.6,0.4-1.2,0.7-1.8,1&#10;&#9;&#9;c-0.6,0-1.2-0.2-1.7-0.4C31.2,367.9,32.5,367.6,33.9,367.1L33.9,367.1z M16.6,362.2L16.6,362.2l-0.3-0.6c0.8,0.3,1.6,0.5,2.5,0.7&#10;&#9;&#9;c0.2,0.6,0.5,1.1,0.8,1.6c-0.4-0.1-0.8-0.2-1.2-0.4C17.8,363.1,17.2,362.6,16.6,362.2L16.6,362.2z M12.8,342.2l0.2-0.1&#10;&#9;&#9;c0,0.2,0,0.4,0,0.5c0,0.1-0.1,0.2-0.1,0.4c-0.1,0.1-0.1,0.3-0.2,0.4l-0.1,0.1l-0.1-0.3C12.5,342.8,12.6,342.5,12.8,342.2z&#10;&#9;&#9; M42.6,354.2l-0.2,0.3c0-0.1,0-0.1,0.1-0.2l0,0L42.6,354.2z M24.9,365.2l-0.6-0.4l0.7-0.1c0.3,0.2,0.7,0.3,1.1,0.4&#10;&#9;&#9;c0.7,0.1,1.4,0,2-0.4c0.5,0.1,1,0.2,1.5,0.2c-1.4,0.4-2.8,0.7-4.2,0.7L24.9,365.2z M15.1,359.5l-0.2-0.1c-0.5-0.2-0.9-0.4-1.3-0.7&#10;&#9;&#9;c-0.2-0.3-0.4-0.6-0.6-0.9C13.7,358.5,14.3,359,15.1,359.5L15.1,359.5z M12.1,356.4c-0.1-0.2-0.2-0.3-0.2-0.5&#10;&#9;&#9;c-0.1-0.8-0.1-1.6-0.1-2.4c0-0.1,0-0.2,0-0.3c0.7,1.6,1.7,3.1,2.9,4.4c0.1,0.4,0.1,0.8,0.2,1.2C13.9,358,13,357.3,12.1,356.4&#10;&#9;&#9;L12.1,356.4z M11.4,357.1c-0.8-0.7-1.3-1.6-1.6-2.6c0-0.2-0.1-0.3-0.1-0.5c0.2,0.3,0.3,0.6,0.5,0.9c0.3,0.5,0.7,1,1.1,1.4&#10;&#9;&#9;C11.3,356.5,11.3,356.8,11.4,357.1L11.4,357.1z M12.1,357.7c0-0.2,0-0.3,0-0.5c0.2,0.3,0.3,0.5,0.5,0.8L12.1,357.7z M21.3,333.1&#10;&#9;&#9;c1.1-0.1,2.2-0.2,3.3-0.2c0.6,0,1.2,0,1.7,0.1l0.5,0.2l-0.1,0c-0.6,0.1-1.1,0.2-1.7,0.4l-0.5-0.1C23.4,333.4,22.3,333.3,21.3,333.1&#10;&#9;&#9;L21.3,333.1z M37.5,337.6L37.5,337.6c-0.3-0.2-0.7-0.4-1.1-0.6c0.3,0.1,0.6,0.2,0.8,0.4C37.3,337.4,37.4,337.5,37.5,337.6&#10;&#9;&#9;L37.5,337.6z M43.7,351.7c-0.3,0.5-0.7,1.1-1.1,1.5c0.3-1.4,0.4-2.8,0.2-4.3c-0.1-0.8-0.2-1.5-0.4-2.3l0,0c0.8,0.9,1.3,2,1.4,3.2&#10;&#9;&#9;C43.9,350.5,43.9,351.1,43.7,351.7L43.7,351.7z M30.8,364.2l-0.5-0.1h0.3L30.8,364.2z M27.1,364.4c-0.3,0.1-0.6,0.1-0.9,0l-0.2,0&#10;&#9;&#9;H26C26.4,364.4,26.7,364.5,27.1,364.4L27.1,364.4z M23.4,363.3c-0.4-0.2-0.8-0.4-1.2-0.6h0.2l0.1,0c0.3,0.2,0.6,0.3,0.9,0.4&#10;&#9;&#9;C23.4,363.2,23.4,363.2,23.4,363.3L23.4,363.3z M12,349.8c0.1-1,0.3-2.1,0.5-3.2l0.3-0.5l0,0c0.1,0.4,0.3,0.8,0.4,1.1&#10;&#9;&#9;c0,0.6,0.1,1.2,0.3,1.8c0.1,0.3,0.2,0.6,0.3,1c-0.1,1.3,0,2.6,0.3,3.9c0,0.5,0.1,1.1,0.2,1.6c0,0.4,0.1,0.8,0.1,1.1&#10;&#9;&#9;c-1.2-1.4-2-3-2.6-4.8C11.9,351.2,12,350.4,12,349.8z M12.9,344.7c0.1-0.2,0.1-0.5,0.2-0.7c0,0.3,0.1,0.5,0.1,0.8l0,0L13,345&#10;&#9;&#9;L12.9,344.7z M16.2,337.7l0.2-0.1c0.1,0.7,0.2,1.4,0.3,2.1l-0.2,0.1c-0.8,0.3-1.5,0.6-2.2,0.9c0.1-0.2,0.2-0.4,0.3-0.5&#10;&#9;&#9;C15,339.3,15.6,338.4,16.2,337.7L16.2,337.7z M16.9,337.4c1.7-0.6,3.4-1.1,5.2-1.3l-0.2,0.4c-0.9,0.4-1.7,0.9-2.4,1.4&#10;&#9;&#9;c-0.7,0.4-1.3,0.9-1.9,1.4l-0.3,0.1C17.1,338.8,17,338,16.9,337.4L16.9,337.4z M25.1,334.3L25.1,334.3c-0.5,0.4-1,0.7-1.4,1.1h-0.4&#10;&#9;&#9;c0.2-0.2,0.5-0.4,0.7-0.5C24.3,334.6,24.7,334.4,25.1,334.3L25.1,334.3z M27.6,333.8L27.6,333.8L27.6,333.8&#10;&#9;&#9;c-0.2,0.1-0.5,0.2-0.8,0.3l-0.4-0.1l0.4-0.2C27.1,333.8,27.4,333.8,27.6,333.8L27.6,333.8z M28.6,334.4l0.7,0.5&#10;&#9;&#9;c-0.5-0.2-1-0.4-1.5-0.5l0.6-0.1L28.6,334.4z M34.7,337.2c0.2,0.3,0.5,0.6,0.7,1s0.3,0.4,0.4,0.6c-0.3-0.2-0.6-0.3-0.9-0.4&#10;&#9;&#9;l-0.2-0.2c-0.2-0.3-0.5-0.7-0.7-1l0.4-0.1L34.7,337.2z M37,338.4c0.7,0.7,1.3,1.5,1.8,2.4c0,0.2,0,0.4,0,0.6l0,0l-0.6-0.5&#10;&#9;&#9;c-0.4-0.5-0.8-0.9-1.2-1.2l-0.2-0.2c-0.3-0.5-0.6-1-0.9-1.5l-0.2-0.2C36.2,337.9,36.6,338.1,37,338.4z M42,349.2&#10;&#9;&#9;c0,1.6-0.1,3.1-0.3,4.6c0-0.2,0-0.4,0-0.6c0.5-2.6,0.4-5.2-0.2-7.7l0.3,0.3c0.1,0.3,0.2,0.7,0.3,1C42,347.6,42,348.3,42,349.2z&#10;&#9;&#9; M41,355.8L41,355.8c-0.1,0,0-0.1,0-0.2L41,355.8L41,355.8z M14.6,353.8c-0.1-0.8-0.1-1.6-0.1-2.3c0.2,0.3,0.3,0.7,0.5,1&#10;&#9;&#9;c0.6,1.9,1.5,3.7,2.6,5.4c0.1,0.5,0.2,1,0.3,1.5c-0.5-0.4-1-0.9-1.4-1.4C15.6,356.8,14.9,355.3,14.6,353.8L14.6,353.8z M14.1,342.1&#10;&#9;&#9;c0.7-0.8,1.5-1.4,2.5-1.8c-0.3,0.3-0.6,0.7-0.8,1.1l-1.1,0.6l-0.7,0.4v-0.2L14.1,342.1z M22.8,336h0.3l0,0l-0.3,0.1L22.8,336z&#10;&#9;&#9; M29.8,363.6l-0.4,0.1l0.2-0.2L29.8,363.6z M18.4,358.7c0.2,0.5,0.5,0.9,0.7,1.4l-0.5-0.3C18.5,359.5,18.4,359.1,18.4,358.7&#10;&#9;&#9;L18.4,358.7z M13.8,345.1c0,0,0-0.1,0-0.1c0.3-0.4,0.6-0.8,1-1.1c-0.3,1-0.4,1.9-0.4,2.9c0,0.1-0.1,0.3-0.1,0.5&#10;&#9;&#9;C14,346.5,13.9,345.8,13.8,345.1L13.8,345.1z M35.7,339.8c0.4,0.4,0.8,0.9,1.1,1.3l-0.3-0.1l-0.3-0.2&#10;&#9;&#9;C36,340.5,35.9,340.2,35.7,339.8L35.7,339.8z M40.3,348.1c0.2,1,0.4,2,0.6,3c-0.1,0.2-0.1,0.4-0.2,0.6c-0.2-0.8-0.4-1.7-0.7-2.5&#10;&#9;&#9;c0-0.8-0.1-1.6-0.2-2.4c0.1-0.2,0.1-0.5,0.1-0.8C40,346.8,40.2,347.4,40.3,348.1L40.3,348.1z M41,352.2c0,0.3,0.1,0.7,0.1,1&#10;&#9;&#9;S41,353.8,41,354c0-0.4,0-0.8-0.1-1.2c0-0.1,0-0.1,0-0.2L41,352.2z M40.4,354.7l-0.3,0.2c0.1-0.3,0.1-0.5,0.1-0.8&#10;&#9;&#9;c0.1,0.1,0.1,0.2,0.2,0.2S40.4,354.6,40.4,354.7L40.4,354.7z M29.1,362.4c0.2-0.1,0.5-0.1,0.7-0.2l-0.1,0.2&#10;&#9;&#9;C29.5,362.4,29.3,362.4,29.1,362.4L29.1,362.4z M30,361.5l-1.7,0.3l-0.5-0.3c0.4-0.1,0.8-0.3,1.2-0.5c0.5,0,0.9-0.1,1.3-0.2&#10;&#9;&#9;c-0.1,0.2-0.1,0.4-0.2,0.6L30,361.5z M27,362.1l-0.6-0.2l0.8-0.2l0.4,0.3L27,362.1z M18.2,357l-0.1-0.2c0,0,0-0.1,0-0.1l0,0l0,0&#10;&#9;&#9;L18.2,357z M30,336.2c-0.6,0.5-1.2,1-1.8,1.5l0,0c-1.4-0.1-2.8,0-4.1,0.3l1.9-0.8l2.3-1C28.8,336.1,29.4,336.1,30,336.2L30,336.2z&#10;&#9;&#9; M39.4,345.3c0-0.1,0-0.2-0.1-0.3v-0.4c0,0,0,0,0.1,0C39.4,344.9,39.4,345.1,39.4,345.3L39.4,345.3z M39.5,355.2l-0.1,0.1&#10;&#9;&#9;c0-0.2,0.1-0.5,0.1-0.7l0,0c0,0.1,0,0.3,0.1,0.4S39.5,355.1,39.5,355.2L39.5,355.2z M34,359.6c-0.1,0.2-0.1,0.3-0.2,0.5h-0.4&#10;&#9;&#9;l0.4-0.4L34,359.6z M21,359.1h-0.1c-0.3-0.3-0.6-0.7-0.9-1l0.3,0.2c0.2,0.1,0.4,0.2,0.6,0.3L21,359.1z M14.8,348.3v-0.7&#10;&#9;&#9;c0.2-1.3,0.5-2.6,1-3.8c0-0.1,0.1-0.1,0.1-0.2c0.4-0.6,0.8-1.1,1.3-1.5c0.1,0.6,0.2,1.1,0.4,1.7c-0.3,0.8-0.5,1.6-0.5,2.4&#10;&#9;&#9;c0,0.4,0,0.8,0,1.2c-0.2,0.7-0.4,1.5-0.5,2.3c-0.2,0.6-0.4,1.3-0.4,2c-0.4-0.7-0.8-1.5-1.1-2.3C14.9,349,14.8,348.7,14.8,348.3z&#10;&#9;&#9; M20.1,340.2l0.3-0.1l-0.1,0.4l-0.3,1c-0.6,0.9-1.2,1.8-1.7,2.8c0-0.2-0.1-0.3-0.1-0.5C18.5,342.5,19.2,341.3,20.1,340.2z&#10;&#9;&#9; M21.1,339.4l0.1-0.1h0.2l0,0L21.1,339.4L21.1,339.4z M25,338.7h-0.2c-0.6,0-1.2,0-1.8,0l0.3-0.1C23.9,338.6,24.5,338.6,25,338.7&#10;&#9;&#9;L25,338.7z M30.6,339.5l-0.5-0.1c0.2-0.1,0.4-0.1,0.6-0.1L30.6,339.5z M29.9,339.9l0.3,0.2l0,0l-0.4,0.6c-0.3-0.3-0.5-0.5-0.8-0.7&#10;&#9;&#9;l0.2-0.1L29.9,339.9z M37.5,346.2c0.1,0.3,0.2,0.6,0.3,0.9c0,0.5-0.1,1.1-0.2,1.6c-0.8-0.8-1.8-1.4-2.8-1.9l-0.2-0.4&#10;&#9;&#9;c0.1-0.2,0.1-0.4,0.2-0.5c0.2-0.6,0.4-1.3,0.4-2l0,0c0.4,0.2,0.7,0.5,1.1,0.8C36.7,345.2,37.1,345.7,37.5,346.2z M39.8,352.8&#10;&#9;&#9;L39.8,352.8c-0.1-0.2-0.1-0.3-0.1-0.5C39.8,352.5,39.8,352.7,39.8,352.8z M38.5,354.9c0.1-0.1,0.2-0.3,0.3-0.4&#10;&#9;&#9;c0.1-0.2,0.2-0.4,0.3-0.6c0,0.2,0,0.3-0.1,0.5L38.5,354.9z M27.4,360L27.4,360h0.2h-0.1H27.4z M24.1,361.3l-0.3,0.1&#10;&#9;&#9;c-0.5-0.2-0.9-0.5-1.3-0.8l0.6-0.1l0.3,0.2C23.6,360.9,23.8,361.1,24.1,361.3L24.1,361.3z M18.6,356.2c-0.1-0.3-0.1-0.6-0.2-1&#10;&#9;&#9;c0.5,0.4,1,0.9,1.6,1.2c0.1,0.5,0.3,0.9,0.5,1.4C19.7,357.3,19.1,356.8,18.6,356.2L18.6,356.2z M17.4,354.8&#10;&#9;&#9;c-0.1-0.2-0.1-0.4-0.2-0.6l0.2,0.2C17.5,354.6,17.5,354.7,17.4,354.8L17.4,354.8z M28.6,342.7c-0.2,0.3-0.3,0.6-0.5,0.9&#10;&#9;&#9;c-0.5-0.1-1.1-0.2-1.7-0.2C27.2,343,27.9,342.8,28.6,342.7L28.6,342.7z M26.4,342.8c0.5-0.9,1.1-1.7,1.8-2.4&#10;&#9;&#9;c0.1-0.1,0.2-0.2,0.4-0.3c0.3,0.3,0.7,0.6,1,0.9l-0.6,1.1C28,342.2,27.2,342.5,26.4,342.8L26.4,342.8z M31.3,344.5l0.1,0&#10;&#9;&#9;c0,0.1,0.1,0.3,0.1,0.4c-0.3-0.2-0.7-0.4-1.1-0.6l0.2-0.1C30.8,344.3,31.1,344.4,31.3,344.5L31.3,344.5z M34.4,347.2&#10;&#9;&#9;c0.5,0.8,0.8,1.7,0.9,2.6l-0.6-0.3c-0.1-0.7-0.4-1.4-0.7-2c0.1-0.1,0.1-0.2,0.2-0.3L34.4,347.2z M38.8,352.6c0,0.3-0.1,0.6-0.1,0.9&#10;&#9;&#9;C38.7,353.2,38.8,352.9,38.8,352.6L38.8,352.6z M18.2,350.9c0.3,0.7,0.6,1.4,0.8,2.1c-0.3-0.6-0.6-1.2-0.8-1.8L18.2,350.9z&#10;&#9;&#9; M18.2,347.8l-0.7,0.8c0,0,0-0.1,0-0.1c0.2-0.3,0.4-0.6,0.6-0.9l0.2-0.3C18.3,347.5,18.3,347.6,18.2,347.8L18.2,347.8z M18.2,354.4&#10;&#9;&#9;c-0.1-0.4-0.1-0.8-0.2-1.2s0-0.6,0.1-0.9c0.4,0.9,0.9,1.7,1.5,2.5c0.1,0.3,0.1,0.6,0.2,0.9C19.2,355.3,18.7,354.9,18.2,354.4&#10;&#9;&#9;L18.2,354.4z M19.4,352.4c-0.3-0.8-0.6-1.6-1-2.4c0.1-0.6,0.2-1.2,0.3-1.8l0,0c0.3,0.9,0.6,1.8,0.9,2.7&#10;&#9;&#9;C19.4,351.4,19.4,351.9,19.4,352.4L19.4,352.4z M19.9,352c0.2,0.6,0.4,1.1,0.6,1.7c0,0.6,0,1.1,0.1,1.7l-0.5-0.6l0,0l-0.1-0.4&#10;&#9;&#9;C19.9,353.5,19.8,352.7,19.9,352L19.9,352z M25,344.7l-0.5,0.2c0.2-0.2,0.5-0.5,0.7-0.7L25,344.7z M33.5,347.5&#10;&#9;&#9;c-0.1,0.2-0.3,0.5-0.5,0.7c-0.2-0.5-0.4-1-0.7-1.5v-0.4l0.3,0.1C33,346.8,33.2,347.1,33.5,347.5L33.5,347.5z M37,351.4L37,351.4&#10;&#9;&#9;c-0.3,0.6-0.7,1.1-1.1,1.5c0-0.3,0.1-0.6,0.1-0.9C36.3,351.9,36.7,351.6,37,351.4z M36,350.7l0.6,0.4c-0.2,0.1-0.4,0.3-0.6,0.4&#10;&#9;&#9;C36,351.2,36,351,36,350.7z M38.1,348.7C38.1,348.7,38.1,348.8,38.1,348.7L38.1,348.7c0,0.2,0,0.3,0,0.4l0,0c0-0.1,0-0.2,0-0.3&#10;&#9;&#9;S38.1,348.8,38.1,348.7L38.1,348.7z M37.7,354.9l-1.2,0.5c0.5-1.2,0.9-2.4,1.2-3.7l0.1,0.1C37.5,352.8,37.5,353.9,37.7,354.9&#10;&#9;&#9;L37.7,354.9z M26.7,358.9l-0.4-0.1c-0.1-0.1-0.2-0.3-0.3-0.5C26.2,358.6,26.5,358.8,26.7,358.9L26.7,358.9z M22.5,348.8&#10;&#9;&#9;c0,0.4,0.1,0.7,0.1,1.1c-0.6,2.5,0.1,5.2,1.8,7.1c0.2,0.2,0.4,0.5,0.7,0.7c0,0,0,0,0,0.1h0c-0.9-0.1-1.7-0.3-2.6-0.6&#10;&#9;&#9;c-0.5-1.1-0.9-2.3-1.3-3.5C21.1,351.9,21.6,350.2,22.5,348.8L22.5,348.8z M27.6,344.8c-0.4,0-0.8,0.1-1.2,0.1h-0.1l0.3-0.2&#10;&#9;&#9;C26.9,344.7,27.3,344.7,27.6,344.8L27.6,344.8z M31.2,345.9L31.2,345.9c0.2,0.3,0.4,0.6,0.6,0.9c0,0.4,0,0.8,0,1.2&#10;&#9;&#9;c-0.2-0.1-0.3-0.3-0.5-0.4c-0.1-0.3-0.2-0.6-0.4-0.9c-0.2-0.4-0.4-0.8-0.7-1.1C30.6,345.7,30.9,345.8,31.2,345.9z M32.6,348.4&#10;&#9;&#9;l-0.2-0.1c0-0.1,0-0.3,0-0.4C32.4,348.1,32.5,348.3,32.6,348.4L32.6,348.4z M34.6,352.7c0.3-0.1,0.6-0.2,0.8-0.4&#10;&#9;&#9;c0,0.4-0.1,0.7-0.2,1.1c-0.2,0.1-0.3,0.2-0.5,0.4C34.8,353.5,34.7,353.1,34.6,352.7L34.6,352.7z M34.4,355.6c0,0.1-0.1,0.1-0.1,0.2&#10;&#9;&#9;c-0.2,0-0.4,0-0.6-0.1c0-0.3,0-0.5,0.1-0.8c0.2-0.1,0.4-0.2,0.6-0.3C34.4,355,34.5,355.3,34.4,355.6L34.4,355.6z M29.1,357.1&#10;&#9;&#9;c-0.7,0.3-1.5,0.5-2.2,0.6c0.5-0.3,1-0.7,1.5-1.1l0.2,0.1C28.8,356.9,29,357,29.1,357.1L29.1,357.1z M22.8,351&#10;&#9;&#9;c0.4,1,0.9,1.8,1.5,2.6c-0.1,0.7,0,1.4,0.1,2.1c0,0.3,0.1,0.5,0.2,0.8C23.3,355,22.7,353,22.8,351L22.8,351z M33.3,353.9&#10;&#9;&#9;c-0.2,0.4-0.5,0.7-0.8,1c-0.3,0.1-0.7,0.2-1.1,0.2l0,0c0-0.5,0-1.1,0-1.6c0.6-0.1,1.3-0.2,1.9-0.3L33.3,353.9z M24.3,348.5&#10;&#9;&#9;c0.1,0.6,0.2,1.2,0.4,1.8l0.2,0.5c0,0.1,0,0.1,0,0.2s0,0.4,0,0.6l-0.1,0.3c-0.2-0.1-0.4-0.2-0.5-0.4C24,350.5,24,349.5,24.3,348.5&#10;&#9;&#9;L24.3,348.5z M28.3,348.7c0.6-0.2,1.2-0.2,1.7,0.2c0.3,0.4,0.5,0.8,0.5,1.3c0,0,0,0.1,0,0.1c-0.7,0.3-1.6,0.4-2.4,0.3&#10;&#9;&#9;c-0.3,0-0.5-0.1-0.7-0.3c0-0.3,0-0.7,0.1-1c0-0.1,0.1-0.3,0.1-0.4C27.8,348.8,28,348.7,28.3,348.7L28.3,348.7z M31,354.9&#10;&#9;&#9;c-0.2-0.1-0.4-0.2-0.6-0.4c0.2-0.2,0.4-0.4,0.6-0.6C30.9,354.2,30.9,354.5,31,354.9L31,354.9z M25.5,351.3c0.2-0.5,0.5-1,0.9-1.4&#10;&#9;&#9;c0.1,0.3,0.3,0.5,0.6,0.7c0.1,0.8,0.4,1.6,0.9,2.3l-0.5-0.1c-0.5-0.1-0.9-0.2-1.4-0.4C25.8,352.1,25.6,351.7,25.5,351.3L25.5,351.3&#10;&#9;&#9;z M26.3,353.1c0.3,0.1,0.7,0.2,1,0.2s0.7,0.1,1,0.2c0.4,0.4,0.8,0.8,1.2,1.1c-0.2,0.1-0.3,0.2-0.5,0.2c-0.2,0.1-0.4,0.1-0.5,0.1&#10;&#9;&#9;c-0.5-0.1-0.9-0.3-1.3-0.5C26.9,354,26.6,353.5,26.3,353.1L26.3,353.1z M30.1,353.9c-0.1,0.1-0.1,0.2-0.2,0.3&#10;&#9;&#9;c-0.3-0.2-0.5-0.4-0.8-0.7c0.4,0,0.8,0,1.2,0L30.1,353.9z M31.1,351.1c0-0.2,0-0.3-0.1-0.5l0.1-0.1&#10;&#9;&#9;C31.2,350.7,31.2,350.9,31.1,351.1L31.1,351.1z M30.8,352.4c-0.1,0.2-0.2,0.5-0.3,0.7c-0.7,0-1.3,0-2-0.1c-0.5-0.6-0.9-1.3-1.1-2.1&#10;&#9;&#9;c0.2,0.1,0.3,0.1,0.5,0.2c0.9,0.2,1.7,0.1,2.5-0.2C30.6,351.3,30.7,351.9,30.8,352.4L30.8,352.4z M26.9,349.9&#10;&#9;&#9;c-0.1-0.1-0.1-0.2-0.2-0.3c0,0,0,0,0-0.1l0.2-0.2C26.9,349.5,26.9,349.7,26.9,349.9z M26.4,348c-0.1,0.4-0.2,0.9-0.2,1.3&#10;&#9;&#9;c-0.3,0.3-0.6,0.7-0.9,1.1c0.1-1.2,0.6-2.4,1.3-3.3C26.6,347.4,26.5,347.7,26.4,348L26.4,348z M24.6,352.4v0.2&#10;&#9;&#9;c0-0.1-0.1-0.2-0.1-0.2L24.6,352.4z M25.1,352.7c0.1,0.4,0.3,0.8,0.6,1.1c0.2,0.2,0.4,0.4,0.6,0.6c-0.5-0.3-0.9-0.7-1.3-1.2&#10;&#9;&#9;C25,353,25,352.9,25.1,352.7L25.1,352.7z M27.3,355.4l0.1,0.2l-0.4-0.2L27.3,355.4z M28.4,355.9c-0.1-0.1-0.3-0.3-0.4-0.4h0.4&#10;&#9;&#9;l0.4,0.1L28.4,355.9L28.4,355.9z M30,354.9l0.5,0.3c-0.2,0-0.5,0-0.7,0C29.8,355.1,29.9,355,30,354.9z M31.6,355.7l-0.2,0.1v-0.2&#10;&#9;&#9;L31.6,355.7z M31.4,353c0.3-0.7,0.6-1.5,0.7-2.3c0.1-0.3,0.1-0.7,0.2-1l0.3-0.3c0.1,0.2,0.3,0.4,0.4,0.6c0.1,0.8,0.2,1.5,0.3,2.3&#10;&#9;&#9;v0.4C32.6,352.9,32,353,31.4,353L31.4,353z M31.8,349.5L31.8,349.5c-0.1-0.3-0.1-0.6-0.1-0.9l0.2,0.1&#10;&#9;&#9;C31.8,349,31.8,349.2,31.8,349.5L31.8,349.5z M31.2,349.9l-0.3,0.2c-0.1-0.6-0.3-1.1-0.7-1.5c-0.4-0.3-0.9-0.5-1.4-0.5&#10;&#9;&#9;c-0.3,0-0.5,0-0.8,0.1l0,0c0.1-0.1,0.2-0.2,0.4-0.2c0.5-0.1,1-0.1,1.4,0.1l1.2,0.4C31.2,348.9,31.2,349.4,31.2,349.9L31.2,349.9z&#10;&#9;&#9; M30,347.6c-0.5-0.2-1.1-0.3-1.7-0.1c-0.5,0.2-0.9,0.6-1.1,1.1c-0.2,0.1-0.4,0.2-0.5,0.4c0-0.2,0.1-0.5,0.2-0.7&#10;&#9;&#9;c0.2-0.5,0.4-1.1,0.5-1.6c1.3,0.1,2.5,0.6,3.5,1.4L30,347.6z M24.9,349.6c-0.2-0.8-0.3-1.6-0.2-2.5c0.5-0.3,1.1-0.5,1.7-0.6&#10;&#9;&#9;C25.7,347.4,25.2,348.5,24.9,349.6L24.9,349.6z M23.7,351.8L23.7,351.8L23.7,351.8z M25.4,357.4c-0.2-0.5-0.4-1.1-0.5-1.7&#10;&#9;&#9;c-0.1-0.5-0.1-1-0.1-1.5c0.3,0.3,0.5,0.5,0.8,0.8c0.7,0.5,1.4,1,2.1,1.4c-0.6,0.5-1.3,1-2,1.4L25.4,357.4z M30.8,357.4&#10;&#9;&#9;c0,0.1,0,0.1,0,0.2c-0.2-0.1-0.4-0.2-0.6-0.3C30.4,357.3,30.6,357.3,30.8,357.4L30.8,357.4z M28.8,356.3c0.2-0.2,0.4-0.4,0.6-0.6&#10;&#9;&#9;c0.5,0.1,1,0.1,1.5,0v0.5c-0.2,0.2-0.5,0.3-0.7,0.4C29.7,356.6,29.2,356.4,28.8,356.3L28.8,356.3z M31.4,356.6&#10;&#9;&#9;c0.3-0.2,0.5-0.4,0.7-0.6c0.3,0.1,0.7,0.2,1,0.3c0,0.2-0.1,0.4-0.1,0.5l-0.6,0.2c-0.3,0-0.7,0-1-0.1&#10;&#9;&#9;C31.4,356.8,31.4,356.6,31.4,356.6L31.4,356.6z M32.5,355.6l0.2-0.2l0.5-0.2c0,0.2,0,0.3,0,0.5L32.5,355.6z M35,354.3&#10;&#9;&#9;c0,0.1-0.1,0.2-0.1,0.4c0-0.1,0-0.2,0-0.2L35,354.3z M33.8,354.4c0-0.1,0-0.3,0-0.4c0.1-0.2,0.2-0.4,0.3-0.6c0,0,0-0.1,0-0.1&#10;&#9;&#9;c0.1,0.3,0.1,0.6,0.2,0.9C34.1,354.2,34,354.3,33.8,354.4L33.8,354.4z M33.9,352.5L33.9,352.5l-0.2,0.1c0-0.1,0-0.2,0-0.3l-0.1-0.9&#10;&#9;&#9;C33.7,351.7,33.9,352.1,33.9,352.5L33.9,352.5z M30.5,347c0,0,0,0.1,0,0.1c-0.9-0.5-1.9-0.9-3-1c0.3-0.3,0.6-0.5,0.9-0.7&#10;&#9;&#9;c0.2,0,0.5,0.1,0.7,0.1C29.8,345.8,30.2,346.4,30.5,347L30.5,347z M26.4,345.4c0.3-0.1,0.6-0.1,0.9-0.1c-0.1,0.2-0.1,0.3-0.2,0.5&#10;&#9;&#9;l-0.2,0.2c-0.7,0-1.4,0.2-2,0.4c0-0.1,0.1-0.3,0.2-0.4C25.5,345.8,26,345.6,26.4,345.4L26.4,345.4z M24.2,346.9&#10;&#9;&#9;c-0.2,0.2-0.4,0.3-0.5,0.5c0.2-0.3,0.4-0.5,0.6-0.8C24.2,346.8,24.2,346.9,24.2,346.9z M23.9,348c-0.2,0.9-0.3,1.9-0.3,2.9&#10;&#9;&#9;c-0.1-0.2-0.3-0.4-0.4-0.6c-0.1-0.2-0.1-0.4-0.1-0.5C23.3,349,23.5,348.5,23.9,348L23.9,348z M25.4,358.5l0.1,0.2H25L25.4,358.5z&#10;&#9;&#9; M24.9,358.2L24.9,358.2l-0.5,0.2l-0.5,0.2c-0.3-0.3-0.6-0.5-0.9-0.8C23.6,358,24.3,358.2,24.9,358.2L24.9,358.2z M25.4,359.3&#10;&#9;&#9;l-0.5,0.1l-0.2-0.2L25.4,359.3z M26.5,358.2c1.1-0.1,2.1-0.3,3.1-0.8l0.5,0.3c-0.9,0.3-1.9,0.6-2.8,0.9&#10;&#9;&#9;C27.1,358.5,26.8,358.4,26.5,358.2L26.5,358.2z M32.5,357.5h0.4c0,0,0,0.1,0,0.2s-0.1,0.3-0.2,0.4c-0.3-0.1-0.7-0.2-1-0.3&#10;&#9;&#9;L32.5,357.5z M33.3,358.1c0.2-0.2,0.4-0.5,0.6-0.7l0.5-0.1v0.3L33.3,358.1z M34.3,356.8L34.3,356.8L34.3,356.8&#10;&#9;&#9;C34.4,356.8,34.4,356.8,34.3,356.8L34.3,356.8z M33.6,356.5c0-0.1,0-0.2,0-0.2l0.4,0l0,0L33.6,356.5z M35.4,355.8l-0.4,0.1v-0.1&#10;&#9;&#9;c0.3-0.6,0.6-1.3,0.7-2h0.1c0.4-0.3,0.8-0.7,1.1-1.1c-0.3,1.1-0.6,2.1-1.1,3.1L35.4,355.8z M38.3,350.9c0,0.2,0,0.5,0,0.7l-0.1-0.1&#10;&#9;&#9;C38.2,351.3,38.3,351.1,38.3,350.9z M38.1,352.1l0.2,0.1c0,0.6-0.1,1.2-0.2,1.8C38,353.4,38.1,352.8,38.1,352.1L38.1,352.1z&#10;&#9;&#9; M35.5,351.8c-0.3,0.2-0.6,0.3-0.9,0.5c0.2-0.7,0.3-1.4,0.3-2.1l0.6,0.3C35.5,350.9,35.5,351.3,35.5,351.8L35.5,351.8z M34.2,351.6&#10;&#9;&#9;c-0.2-0.6-0.5-1.2-0.8-1.7l0,0l-0.1-0.5c0.3,0.1,0.7,0.3,1,0.5C34.4,350.4,34.3,351,34.2,351.6L34.2,351.6z M33.2,348.8&#10;&#9;&#9;c0.2-0.2,0.4-0.5,0.6-0.8c0.2,0.4,0.4,0.8,0.5,1.2C33.9,349.1,33.5,348.9,33.2,348.8L33.2,348.8z M29.5,344.9c0,0-0.1-0.1-0.2-0.1&#10;&#9;&#9;l0.2-0.1c0.3,0.1,0.5,0.3,0.8,0.4L29.5,344.9z M28.8,344.6c-0.2-0.1-0.3-0.1-0.5-0.1l0,0c0.2,0,0.4,0.1,0.6,0.1L28.8,344.6z&#10;&#9;&#9; M24.8,345.3L24.8,345.3c-0.5,0.4-1,0.9-1.4,1.4c0.1-0.3,0.3-0.6,0.5-0.9C24.1,345.6,24.4,345.4,24.8,345.3L24.8,345.3z&#10;&#9;&#9; M22.8,346.6c-0.1,0.4-0.2,0.7-0.3,1.1c-1,1.4-1.6,3.1-1.9,4.8c-0.2-0.5-0.4-1.1-0.5-1.6c0.1-0.5,0.2-0.9,0.4-1.3&#10;&#9;&#9;c0.5-1.3,1.3-2.3,2.4-3.2L22.8,346.6z M21.2,355.3c0.1,0.4,0.3,0.8,0.5,1.1l-0.3-0.3C21.2,355.8,21.2,355.6,21.2,355.3L21.2,355.3z&#10;&#9;&#9; M23.4,358.8h-0.3l-0.2-0.4L23.4,358.8z M30.8,358.1l-0.1,0.7c0,0,0,0.1,0,0.1l-0.5,0.1l-1,0.2l0,0l-0.4-0.1l-0.6-0.2L30.8,358.1z&#10;&#9;&#9; M31.3,358.3c0.3,0.1,0.6,0.2,0.9,0.3l0,0l-0.9,0.3L31.3,358.3z M32.7,358.9l0.6-0.2c0.2,0,0.4,0,0.6,0l0,0.1L32.7,358.9&#10;&#9;&#9;L32.7,358.9z M35,356.7c0-0.1,0-0.1,0-0.2l0.5-0.2l-0.2,0.3L35,356.7z M39,349.1c0,0,0.1-0.1,0.1-0.1c0.2,0.4,0.3,0.8,0.4,1.2&#10;&#9;&#9;c0,0.3,0,0.6,0,1C39.2,350.5,39.1,349.8,39,349.1z M37.4,350.4c-0.1,0.1-0.2,0.2-0.3,0.4l-1.1-0.6c-0.1-0.9-0.4-1.7-0.7-2.5&#10;&#9;&#9;c0.9,0.4,1.6,1,2.3,1.7C37.5,349.7,37.4,350,37.4,350.4L37.4,350.4z M33.8,347L33.8,347L33.8,347L33.8,347z M33.2,346.1l-0.3-0.1&#10;&#9;&#9;c-0.2-0.2-0.5-0.4-0.8-0.6c0-0.2-0.1-0.4-0.1-0.6c0.7,0.4,1.3,1,1.8,1.6L33.2,346.1z M27,343.9c-0.4,0.1-0.9,0.3-1.2,0.5h-0.1&#10;&#9;&#9;l0.2-0.6C26.3,343.9,26.7,343.9,27,343.9z M23.4,345.4c-1.5,0.9-2.7,2.3-3.4,4c-0.1,0.2-0.2,0.4-0.2,0.6c-0.3-0.8-0.5-1.6-0.7-2.4&#10;&#9;&#9;c0.8-0.9,1.6-1.8,2.5-2.7c1-0.5,2.1-0.8,3.2-0.9C24.2,344.4,23.8,344.8,23.4,345.4L23.4,345.4z M21.2,344.4L21.2,344.4&#10;&#9;&#9;c1-1.4,2.2-2.7,3.6-3.7C23.6,341.9,22.4,343.2,21.2,344.4L21.2,344.4z M19,346.6L19,346.6L19,346.6z M18.3,345.1&#10;&#9;&#9;c0.3-0.6,0.6-1.2,1-1.8c-0.3,0.9-0.5,1.9-0.7,2.8C18.5,345.7,18.4,345.4,18.3,345.1L18.3,345.1z M18.2,346.6&#10;&#9;&#9;c-0.2,0.2-0.4,0.4-0.5,0.7s-0.2,0.2-0.2,0.4c0-0.1,0-0.1,0-0.2c0.2-0.5,0.4-1.1,0.6-1.6L18.2,346.6z M17,349.9c0,0,0-0.1,0-0.1&#10;&#9;&#9;s0.1-0.3,0.2-0.5c0.1,0.4,0.2,0.8,0.3,1.2c-0.1,0.9,0,1.8,0.1,2.7c0,0.1,0,0.3,0,0.5c-0.1-0.2-0.3-0.3-0.4-0.5&#10;&#9;&#9;C16.9,352.1,16.9,351,17,349.9z M20.8,357.2c0.2,0.4,0.5,0.9,0.8,1.3c-0.1-0.1-0.3-0.1-0.4-0.2C21,357.9,20.9,357.5,20.8,357.2&#10;&#9;&#9;L20.8,357.2z M21.9,357.9c-0.1-0.2-0.2-0.3-0.2-0.5l0.2,0.1l0.2,0.2c0.2,0.4,0.3,0.8,0.5,1.2h-0.1l-0.2-0.2&#10;&#9;&#9;C22.2,358.4,22,358.1,21.9,357.9L21.9,357.9z M23.4,359.8l-0.2-0.3l0.6,0.2L23.4,359.8z M26.7,359.5l0.5,0.1L26.7,359.5L26.7,359.5&#10;&#9;&#9;z M35.7,357.1l0.5-0.2l-0.6,0.3L35.7,357.1z M36.1,356.4l0.1-0.2c0.3-0.1,0.6-0.2,0.9-0.3l-0.3,0.2&#10;&#9;&#9;C36.5,356.3,36.2,356.4,36.1,356.4L36.1,356.4z M38.6,344.2c0.1,0.3,0.2,0.6,0.3,0.9c0,0.5-0.1,0.9-0.1,1.4&#10;&#9;&#9;C38.7,345.6,38.6,344.8,38.6,344.2L38.6,344.2C38.6,344.1,38.5,344.1,38.6,344.2L38.6,344.2z M38,344.2c0-0.1-0.1-0.2-0.1-0.3H38&#10;&#9;&#9;C37.9,344,37.9,344.1,38,344.2L38,344.2z M34.4,345.8l-0.1,0.2c-0.6-0.8-1.4-1.4-2.3-1.9c0-0.1,0-0.2-0.1-0.2&#10;&#9;&#9;c0.9-0.2,1.8-0.3,2.7-0.4l0.2,0.1C34.7,344.4,34.5,345.1,34.4,345.8L34.4,345.8z M31.7,343.4c-0.1-0.3-0.2-0.6-0.4-0.9&#10;&#9;&#9;c0.8,0.1,1.5,0.3,2.3,0.5C32.9,343.2,32.2,343.3,31.7,343.4L31.7,343.4z M30.7,343.7c-0.6-0.1-1.3-0.2-1.9-0.1&#10;&#9;&#9;c0.2-0.4,0.4-0.7,0.6-1.1c0.5,0,0.9-0.1,1.4,0c0.2,0.3,0.4,0.7,0.5,1L30.7,343.7z M29.6,342c0.1-0.2,0.2-0.4,0.4-0.6&#10;&#9;&#9;c0.1,0.2,0.3,0.4,0.4,0.6C30.1,342,29.8,342,29.6,342L29.6,342z M28.1,339.9l-0.3,0.2c-1,0.9-1.7,2-2.2,3.2c-0.1,0-0.1,0.1-0.2,0.1&#10;&#9;&#9;c-1.1,0-2.1,0.2-3.1,0.6c1.5-1.6,3-3.1,4.6-4.5l0.6,0.1C27.8,339.6,28,339.8,28.1,339.9z M23.3,339.5c0.5-0.1,1-0.2,1.5-0.2&#10;&#9;&#9;s0.8,0,1.2,0.1c-2.4,1.5-4.4,3.5-6,5.8c-0.3,0.2-0.6,0.4-0.8,0.6c0.3-1.3,0.7-2.6,1.1-3.9c0.5-0.7,1-1.3,1.4-2L23.3,339.5z&#10;&#9;&#9; M21,339.9c-0.1,0.1-0.1,0.2-0.2,0.2c0-0.1,0.1-0.1,0.1-0.2L21,339.9z M17.8,345c-0.1,0.2-0.2,0.3-0.2,0.5c0-0.2,0.1-0.5,0.2-0.8&#10;&#9;&#9;L17.8,345z M16.6,353.3L16.6,353.3v0.1V353.3C16.6,353.4,16.6,353.4,16.6,353.3L16.6,353.3z M21.9,359.1c-0.1,0-0.2,0-0.3,0&#10;&#9;&#9;l-0.1-0.2L21.9,359.1z M21.8,359.6c0.2,0,0.4,0,0.6-0.1c0.1,0.1,0.2,0.2,0.3,0.4l-0.7,0.1L21.8,359.6z M21.8,360.6&#10;&#9;&#9;c0.1,0.3,0.3,0.5,0.4,0.8l0,0.1h0c-0.3-0.2-0.7-0.5-1-0.7L21.8,360.6z M22.9,361.5l-0.2-0.3l0.4,0.3H23L22.9,361.5z M23.8,360.2&#10;&#9;&#9;L23.8,360.2l1-0.3l0.9,0.7l0,0l-0.9,0.4C24.4,360.8,24.1,360.6,23.8,360.2L23.8,360.2z M25.7,359.9c0.3,0,0.6,0,0.9,0l0.3,0.2&#10;&#9;&#9;l-0.5,0.2L25.7,359.9z M27.4,360.5c0.2,0.1,0.4,0.3,0.6,0.4l-0.8,0.2l-0.5-0.3L27.4,360.5z M28.9,360.5c-0.3,0-0.5-0.1-0.8-0.2&#10;&#9;&#9;c0.5-0.1,1-0.3,1.5-0.4l0.4,0.1C29.6,360.2,29.3,360.3,28.9,360.5L28.9,360.5z M31,360.5l0.3-0.2l0.7,0.1c-0.4,0.3-0.8,0.5-1.2,0.8&#10;&#9;&#9;c0-0.1,0.1-0.3,0.1-0.5L31,360.5z M31.8,359.8L31.8,359.8c0.4,0,0.7,0,1-0.1l-0.2,0.2L31.8,359.8z M35.6,358.5l0.4-0.1l0,0&#10;&#9;&#9;L35.6,358.5z M35,358.1l0.1-0.2c0.6-0.3,1.2-0.6,1.8-0.9c-0.1,0.1-0.2,0.3-0.3,0.5l-0.2,0.2c-0.5,0.2-1,0.4-1.5,0.5L35,358.1z&#10;&#9;&#9; M37.7,356.6l1-0.5l-0.1,0.4v0.2c-0.4,0.3-0.9,0.5-1.3,0.7c0.1-0.1,0.2-0.4,0.3-0.6L37.7,356.6z M38,355.9L38,355.9&#10;&#9;&#9;c0.3-0.3,0.6-0.5,0.8-0.7l-0.1,0.3L38,355.9z M39.1,347.3L39.1,347.3c0-0.3,0.1-0.6,0.1-0.9c0,0.1,0,0.2,0,0.3s-0.1,0.5-0.2,0.7&#10;&#9;&#9;L39.1,347.3z M38.9,343.6L38.9,343.6c-0.1-0.1-0.1-0.3-0.2-0.4l0.2,0.2L38.9,343.6z M37.8,343.2h-0.2c-0.2-0.5-0.5-1-0.8-1.4&#10;&#9;&#9;l0.7,0.5c0.1,0.4,0.2,0.7,0.2,1L37.8,343.2z M37,344.7c-0.1-0.1-0.2-0.1-0.3-0.2c-0.3-0.3-0.6-0.6-0.9-0.9H36h0.5&#10;&#9;&#9;C36.7,344,36.8,344.4,37,344.7z M30.9,342.1c-0.2-0.4-0.5-0.7-0.7-1c0.1-0.2,0.3-0.4,0.4-0.7v-0.1c0.4,0.3,0.8,0.5,1.2,0.8&#10;&#9;&#9;c0.7,0.5,1.6,1.1,2.4,1.8C33.2,342.4,32.1,342.1,30.9,342.1L30.9,342.1z M32.2,340.7l-0.7-0.5c0.9,0.2,1.8,0.4,2.7,0.7&#10;&#9;&#9;c0.3,0.5,0.4,1.1,0.5,1.7C33.8,341.8,32.9,341.2,32.2,340.7L32.2,340.7z M31.2,339.6l0.3-0.4c0.6,0,1.1,0.2,1.6,0.5&#10;&#9;&#9;c0.2,0.1,0.5,0.3,0.6,0.5C32.8,340,32,339.8,31.2,339.6L31.2,339.6z M29.5,339.1c-0.3-0.1-0.7-0.2-1-0.3h-0.1&#10;&#9;&#9;c0.5-0.2,0.9-0.3,1.4-0.4c0.4,0.1,0.8,0.2,1.2,0.3C30.5,338.8,29.9,338.9,29.5,339.1L29.5,339.1z M28.3,338.3l0.1-0.1h0.2&#10;&#9;&#9;L28.3,338.3z M27.2,338.6h-0.3c-0.5-0.2-1-0.3-1.5-0.4c0.8-0.1,1.6-0.1,2.3-0.1L27.2,338.6z M25.8,336.6l-2.3,1&#10;&#9;&#9;c0.4-0.5,0.9-1,1.4-1.5c0.7-0.1,1.5-0.1,2.2-0.1L25.8,336.6z M22.4,338.1L22.4,338.1l-0.8,0.1l0.8-0.9l0.7-0.7l0.8-0.3&#10;&#9;&#9;C23.3,337,22.8,337.6,22.4,338.1L22.4,338.1z M17.9,342.9c-0.1-0.4-0.2-0.8-0.2-1.2c0.5-0.4,1-0.8,1.6-1.2&#10;&#9;&#9;C18.7,341.3,18.2,342.1,17.9,342.9L17.9,342.9z M17.8,340.3c0.1-0.2,0.3-0.4,0.5-0.5c0.4-0.1,0.8-0.2,1.1-0.2&#10;&#9;&#9;C18.8,339.8,18.3,340.1,17.8,340.3L17.8,340.3z M19.8,358.7c-0.3-0.1-0.5-0.3-0.7-0.5c-0.1-0.2-0.1-0.4-0.2-0.5&#10;&#9;&#9;C19.2,358,19.4,358.3,19.8,358.7L19.8,358.7z M19.5,359.1c0.3,0.2,0.7,0.3,1,0.4h0.1l0.8,0.7l-0.6,0.1c-0.2-0.2-0.5-0.4-0.7-0.6&#10;&#9;&#9;l-0.1-0.1C19.8,359.5,19.6,359.3,19.5,359.1L19.5,359.1z M25.3,361.4l0.6-0.2l0.3-0.1l0.4,0.3c-0.4,0.1-0.7,0.1-1.1,0.2L25.3,361.4&#10;&#9;&#9;z M32.8,360.5h0.7l-0.1,0.1c-0.4,0.1-0.9,0.2-1.3,0.4C32.3,360.9,32.5,360.7,32.8,360.5L32.8,360.5z M34.4,360.1&#10;&#9;&#9;c0.1-0.2,0.2-0.4,0.2-0.6l0.6-0.1C34.9,359.6,34.7,359.8,34.4,360.1L34.4,360.1z M36.2,359.1l0.2-0.1h0.3l0.4-0.1&#10;&#9;&#9;c-0.6,0.4-1.2,0.8-1.8,1.1C35.6,359.7,35.9,359.4,36.2,359.1L36.2,359.1z M38.4,357.6c-0.5,0.3-1,0.5-1.6,0.7l0.1-0.1&#10;&#9;&#9;c0.6-0.2,1.1-0.5,1.6-0.8L38.4,357.6z M39.3,355.9L39.3,355.9L39.3,355.9L39.3,355.9z M39.5,356.8c0.1-0.1,0.2-0.1,0.3-0.2&#10;&#9;&#9;c0,0.1,0,0.1,0,0.2l-0.5,0.3C39.3,357,39.4,356.9,39.5,356.8L39.5,356.8z M38.7,342.7l-0.6-0.4c0,0-0.1-0.1-0.1-0.1l0.4,0.1&#10;&#9;&#9;L38.7,342.7z M36.3,343.1h-0.2h-0.9l0,0c0-0.7-0.1-1.3-0.4-2l0.6,0.2C35.7,341.9,36,342.5,36.3,343.1L36.3,343.1z M34.5,340.5&#10;&#9;&#9;l-0.1-0.1c0.1,0.1,0.3,0.1,0.4,0.2L34.5,340.5z M31.5,338.4l-0.4-0.1h0.6L31.5,338.4z M29.8,337.9c-0.3-0.1-0.6-0.1-0.9-0.2&#10;&#9;&#9;c0.5-0.5,1.1-0.9,1.6-1.3c0.7,0.3,1.4,0.6,2,1l0,0c-0.1,0.1-0.3,0.2-0.4,0.3C31.3,337.7,30.5,337.7,29.8,337.9z M15.7,342.8&#10;&#9;&#9;c-0.1,0.2-0.2,0.4-0.3,0.6c0,0-0.1,0.1-0.1,0.1C15.4,343.3,15.5,343.1,15.7,342.8L15.7,342.8z M24.2,362.1l0.3,0.1l-0.5-0.1&#10;&#9;&#9;L24.2,362.1z M30.3,362.3c0.1-0.1,0.1-0.2,0.2-0.4c0.5-0.1,1-0.2,1.6-0.4c-0.4,0.2-0.8,0.4-1.2,0.6L30.3,362.3z M33.5,361.3&#10;&#9;&#9;l0.4-0.3c0.4-0.1,0.8-0.3,1.2-0.5c0.4,0,0.7,0,1,0h0.2c-0.9,0.5-1.8,0.9-2.7,1.2c-0.3,0.1-0.7,0.2-1.1,0.3&#10;&#9;&#9;C32.9,361.8,33.2,361.6,33.5,361.3L33.5,361.3z M37.3,359.9c-0.4,0-0.8,0.1-1.1,0.1c0.7-0.4,1.3-0.8,1.8-1.3h0.1&#10;&#9;&#9;c-0.1,0.3-0.2,0.6-0.3,0.9L37.3,359.9z M38.7,358.5l0.5-0.1c0,0,0,0.1-0.1,0.1c-0.2,0.2-0.4,0.3-0.6,0.5&#10;&#9;&#9;C38.6,358.9,38.7,358.7,38.7,358.5L38.7,358.5z M39.6,357.8l-0.7,0.2v-0.1c0.3-0.2,0.6-0.3,0.9-0.5c0,0,0,0,0,0&#10;&#9;&#9;C39.7,357.5,39.6,357.7,39.6,357.8L39.6,357.8z M40.2,356.2L40.2,356.2l0,0.1C40.2,356.2,40.2,356.2,40.2,356.2L40.2,356.2z&#10;&#9;&#9; M40.4,355.4l-0.2,0.2c0-0.1,0-0.1,0-0.2l0.2-0.1L40.4,355.4z M40.4,353.4L40.4,353.4L40.4,353.4z M41.2,349.7&#10;&#9;&#9;c-0.1-0.6-0.2-1.2-0.3-1.7c-0.2-0.9-0.4-1.7-0.6-2.5c0.2,0.4,0.5,0.8,0.6,1.2C41.2,347.7,41.3,348.7,41.2,349.7L41.2,349.7z&#10;&#9;&#9; M40.9,345.5c-0.2-0.4-0.5-0.8-0.8-1.1l-0.1,0v-0.1l0.7,0.6C40.7,345.1,40.8,345.3,40.9,345.5L40.9,345.5z M39.9,343.5&#10;&#9;&#9;c0-0.2-0.1-0.5-0.1-0.8l0.2,0.1c0.2,0.3,0.3,0.7,0.4,1L39.9,343.5z M41,344.2c-0.1-0.2-0.2-0.5-0.2-0.7l0.2,0.2&#10;&#9;&#9;c0.2,0.4,0.3,0.7,0.4,1l-0.2-0.2C41.1,344.5,41,344.4,41,344.2L41,344.2z M38.1,341.5l-0.4-0.1c-0.1-0.2-0.1-0.3-0.2-0.5l0.3,0.3&#10;&#9;&#9;L38.1,341.5z M34.7,339.9c-0.9-0.5-1.8-0.9-2.7-1.3l0.3-0.3c0.4,0,0.8,0.1,1.2,0.2C33.9,338.9,34.3,339.4,34.7,339.9z M33,337.8&#10;&#9;&#9;L33,337.8L33,337.8L33,337.8z M33.1,336.8l-0.5-0.4c0.1,0,0.2,0,0.3,0.1l0.1,0.1L33.1,336.8z M31.6,335.6l0.4-0.3l0.4,0.5&#10;&#9;&#9;L31.6,335.6z M24.7,335.3c0.4-0.3,0.8-0.6,1.2-0.9l0.4,0.1c-0.4,0.2-0.8,0.5-1.1,0.8L24.7,335.3z M21.4,337.4l-0.3,0.7l-0.2,0.2&#10;&#9;&#9;l-0.9,0.2l-0.7,0.2c0.2-0.2,0.4-0.3,0.5-0.5C20.2,338,20.8,337.7,21.4,337.4L21.4,337.4z M15,342.4l0.3-0.2l-0.1,0.3&#10;&#9;&#9;c-0.5,0.5-0.9,1-1.4,1.5c0-0.3,0.1-0.6,0.1-1C14.2,342.9,14.6,342.7,15,342.4L15,342.4z M18.8,360.5l0.2,0.1H19&#10;&#9;&#9;C18.9,360.6,18.9,360.6,18.8,360.5L18.8,360.5z M19.6,361.1L19.6,361.1L19.6,361.1L19.6,361.1z M24.4,362.8h0.5&#10;&#9;&#9;c0.5,0.1,1,0.1,1.5,0.2c0.3,0.2,0.5,0.3,0.8,0.5l0.1,0.1c-0.7-0.1-1.3-0.2-1.9-0.3h-0.2L24.4,362.8z M27.5,363c0.4,0,0.8,0,1.1,0&#10;&#9;&#9;l-0.4,0.1l-0.3,0.1L27.5,363z M28.8,363.5L28.8,363.5l-0.2,0.1L28.8,363.5z M30,363.1l0.3-0.1c0.8-0.1,1.6-0.2,2.4-0.5&#10;&#9;&#9;c-0.8,0.3-1.5,0.6-2.3,0.9L30,363.1z M40.7,356.7c0,0,0-0.1,0-0.1l0.1,0L40.7,356.7z M40.3,342.4L40.3,342.4&#10;&#9;&#9;c-0.4-0.6-0.7-1.1-1-1.7c0-0.1-0.1-0.2-0.1-0.3C39.6,341.1,40,341.8,40.3,342.4L40.3,342.4z M31.4,334.9l0.1,0.1l-0.5,0.4l-0.4-0.2&#10;&#9;&#9;L31.4,334.9L31.4,334.9z M28.9,335.3h-0.2c-0.3-0.1-0.6-0.1-0.9-0.1c-0.4,0-0.7,0-1.1,0.1H26c0.3-0.2,0.7-0.4,1-0.6&#10;&#9;&#9;c0.7,0.2,1.3,0.4,2,0.6L28.9,335.3z M14.2,341.4L14.2,341.4l0.1-0.1L14.2,341.4z M14.9,356.3c0.3,0.7,0.7,1.4,1.2,2&#10;&#9;&#9;c0.2,0.2,0.3,0.4,0.5,0.6c-0.6-0.5-1.1-1-1.6-1.5C15,357,15,356.6,14.9,356.3z M25.1,363.7l0.4,0.2c-0.4-0.1-0.7-0.1-1-0.2&#10;&#9;&#9;l-0.1-0.1L25.1,363.7z M35.2,361.9c0.7-0.3,1.5-0.7,2.2-1.1c0,0.1-0.1,0.2-0.1,0.3c-0.1,0.1-0.3,0.2-0.4,0.4&#10;&#9;&#9;c-0.8,0.6-1.6,1.1-2.5,1.5l0,0c-1,0.4-2,0.6-3.1,0.7C32.7,363.1,34,362.5,35.2,361.9z M42.4,345.8c0-0.2-0.1-0.5-0.1-0.7l-0.1-0.2&#10;&#9;&#9;l0.1,0.1c0.3,0.6,0.5,1.1,0.8,1.7C42.9,346.4,42.6,346.1,42.4,345.8L42.4,345.8z M33.2,336l-0.3-0.5c0.3,0.2,0.5,0.4,0.8,0.6&#10;&#9;&#9;L33.2,336z M29.7,334.2v0.1h0.9l0.4,0.1c-0.3,0.1-0.5,0.2-0.8,0.3l-0.9-0.6L29.7,334.2z M24.3,334.2c-0.6,0.3-1.2,0.8-1.7,1.4l0,0&#10;&#9;&#9;c-1.9,0.2-3.8,0.6-5.6,1.3c1-1.2,2.2-2.2,3.5-3.1C21.8,333.7,23,333.9,24.3,334.2L24.3,334.2z M16.9,336.2c0,0,0-0.1,0-0.1&#10;&#9;&#9;c0.4-0.4,0.8-0.8,1.2-1.1C17.7,335.3,17.3,335.7,16.9,336.2L16.9,336.2z M16.4,336.5c0,0.1,0,0.1,0,0.2l-0.5,0.6l-0.3,0.2&#10;&#9;&#9;C15.8,337.1,16.1,336.8,16.4,336.5L16.4,336.5z M16,336.2c0.1-0.2,0.2-0.5,0.4-0.8v0.4L16,336.2z M15.1,338.3l0.1-0.1&#10;&#9;&#9;c-0.1,0.1-0.2,0.3-0.2,0.4L15.1,338.3z M15.3,358.3c0.9,0.9,1.9,1.7,2.9,2.5l-0.5-0.2c-0.7-0.4-1.4-0.8-1.9-1.2l-0.2-0.1&#10;&#9;&#9;C15.4,358.9,15.4,358.6,15.3,358.3L15.3,358.3z M17.1,361c-0.2,0-0.5,0.1-0.7,0.1l-0.3-0.1l-0.2-0.4L17.1,361z M18,361.4l0.6,0.3&#10;&#9;&#9;l0,0c-0.4-0.1-0.8-0.2-1.1-0.3L18,361.4z M20.3,362.4c0.2,0.3,0.4,0.6,0.5,1s0.4,0.6,0.6,1c-0.4-0.1-0.8-0.1-1.2-0.2&#10;&#9;&#9;c-0.3-0.6-0.6-1.1-0.9-1.8L20.3,362.4z M21.3,363.1l-0.2-0.4l0.3,0.2c0.5,0.5,1.1,1.1,1.7,1.5c-0.3,0-0.6,0-1,0&#10;&#9;&#9;C21.8,363.9,21.5,363.5,21.3,363.1L21.3,363.1z M22.9,363.6c0.4,0.2,0.8,0.3,1.3,0.5l0.2,0.2c-0.2,0-0.4,0.1-0.6,0.1&#10;&#9;&#9;C23.5,364.1,23.2,363.9,22.9,363.6L22.9,363.6z M31.5,364.1L32,364l-0.4,0.1L31.5,364.1z M34.7,363.3c0.6-0.3,1.2-0.6,1.8-1&#10;&#9;&#9;c-0.3,0.4-0.7,0.8-1.2,1.1c-0.8,0.5-1.8,0.8-2.8,0.9C33.2,364.1,33.9,363.7,34.7,363.3L34.7,363.3z M37.7,361.5&#10;&#9;&#9;c0.6-0.5,1.2-1,1.8-1.5l0,0c-0.1,0.2-0.2,0.5-0.3,0.7c-0.7,1.2-1.7,2.2-3,2.8C36.7,362.9,37.2,362.3,37.7,361.5L37.7,361.5z&#10;&#9;&#9; M44.3,348.5c-0.3-0.9-0.6-1.9-1-2.8l0.5,0.5C44.1,347,44.2,347.7,44.3,348.5L44.3,348.5z M34.9,334.5L34.9,334.5&#10;&#9;&#9;c0.7,0.7,1.3,1.4,1.8,2.1c-0.4-0.1-0.8-0.2-1.2-0.2c-0.8-0.7-1.7-1.2-2.6-1.7l0.5-0.3h1C34.5,334.4,34.7,334.5,34.9,334.5&#10;&#9;&#9;L34.9,334.5z M28.2,333.3h0.2l1.3,0.2l0.2,0.1C29.3,333.4,28.8,333.3,28.2,333.3L28.2,333.3z M27.2,332.4H27h-1&#10;&#9;&#9;c-0.5-0.2-1-0.3-1.5-0.4c-0.5,0-0.9,0-1.4,0c0.5-0.3,1.1-0.5,1.6-0.8c1.1,0.2,2.2,0.6,3.3,1.1L27.2,332.4z M16.9,335.4v-0.7&#10;&#9;&#9;c0.1-0.1,0.2-0.3,0.3-0.4c0.5-0.2,1.1-0.4,1.7-0.5C18.2,334.3,17.5,334.8,16.9,335.4L16.9,335.4z M13.7,340.6l-0.1-0.1&#10;&#9;&#9;c0.1-0.2,0.2-0.5,0.4-0.7C13.9,340,13.8,340.3,13.7,340.6L13.7,340.6z M13.6,341.1L13.6,341.1L13.6,341.1L13.6,341.1z M12.2,344.5&#10;&#9;&#9;c-0.2,0.6-0.4,1.3-0.6,2c0.1-0.5,0.2-1.1,0.3-1.6c0-0.1,0-0.1,0-0.2L12.2,344.5z M10.9,348c-0.2,0.3-0.3,0.5-0.5,0.8&#10;&#9;&#9;c0-1,0.3-2.1,0.8-3C11.1,346.5,10.9,347.2,10.9,348L10.9,348z M10.9,349c0,0.6,0.1,1.3,0.2,1.9c0,0.2,0.1,0.4,0.1,0.6&#10;&#9;&#9;c0,0.7,0,1.3,0,2c0,0.3,0,0.5,0,0.8c-0.5-1.4-0.8-2.9-0.9-4.4C10.5,349.6,10.7,349.3,10.9,349L10.9,349z M11,355.1&#10;&#9;&#9;c-0.1-0.2-0.2-0.4-0.4-0.5c-0.4-0.6-0.7-1.2-1-1.8c0-0.6,0.2-1.2,0.4-1.7C10.2,352.4,10.5,353.8,11,355.1L11,355.1z M13.3,359.2&#10;&#9;&#9;l0.1,0.2l-0.6-0.5C12.9,359,13,359.1,13.3,359.2L13.3,359.2z M14.4,359.8l0.3,0.1c0.2,0.1,0.4,0.2,0.6,0.3c0,0.1,0.1,0.3,0.1,0.4&#10;&#9;&#9;c-0.2-0.1-0.5-0.2-0.7-0.4L14.4,359.8z M20.7,364.7c0.4,0.1,0.8,0.1,1.2,0.2l0.3,0.4l-0.3-0.1C21.4,365.1,21.1,364.9,20.7,364.7&#10;&#9;&#9;L20.7,364.7z M22.5,364.9c0.4,0,0.8,0,1.2,0l1,0.8l0,0c-0.6,0-1.2-0.1-1.8-0.2L22.5,364.9z M25.4,366.2c0.7,0.5,1.5,1,2.3,1.5&#10;&#9;&#9;c-1.2,0-2.4-0.4-3.5-1c-0.3-0.2-0.5-0.4-0.7-0.6C24.1,366.1,24.7,366.2,25.4,366.2L25.4,366.2z M34.9,366.2c-0.7-0.3-1.4-0.6-2-1.1&#10;&#9;&#9;l-0.2-0.1c1.8-0.1,3.4-0.7,4.9-1.7c-0.7,1-1.5,1.8-2.4,2.7L34.9,366.2z M38.4,362.9c0,0.1-0.1,0.2-0.2,0.3&#10;&#9;&#9;c-0.2,0.4-0.4,0.9-0.7,1.3c-0.3,0.2-0.6,0.4-0.9,0.6C37.3,364.4,37.9,363.6,38.4,362.9z M38.7,363.4c0.4-0.9,0.8-1.9,1.2-2.8&#10;&#9;&#9;c0.2-0.4,0.5-0.9,0.7-1.3c0.2-0.2,0.4-0.4,0.5-0.6c0.2-0.2,0.3-0.5,0.4-0.8c0.7-0.2,1.5-0.4,2.2-0.7c-0.6,1.5-1.5,2.9-2.6,4.2&#10;&#9;&#9;c-0.7,0.8-1.5,1.6-2.4,2.3C38.6,363.6,38.7,363.5,38.7,363.4L38.7,363.4z M43.9,356.6c-0.7,0.3-1.5,0.5-2.2,0.7c0-0.2,0-0.4,0-0.6&#10;&#9;&#9;c0.7-0.9,1.4-1.9,1.9-3l0.1-0.2l0.7-0.4l0,0c0,1.1-0.2,2.1-0.5,3.1C43.9,356.4,43.9,356.5,43.9,356.6L43.9,356.6z M44.1,352.8&#10;&#9;&#9;l-0.2,0.1c0.2-0.4,0.3-0.8,0.4-1.2c0,0.3,0,0.6,0.1,0.9L44.1,352.8z M44.8,348.8c0-0.2,0-0.4,0-0.6c0,0.1,0,0.2,0.1,0.3&#10;&#9;&#9;S44.8,348.7,44.8,348.8L44.8,348.8z M38.2,335.4c-0.6-0.3-1.2-0.6-1.9-0.9c1,0.1,1.9,0.2,2.9,0.3c0.5,0.7,0.9,1.4,1.3,2.1&#10;&#9;&#9;C39.8,336.3,39,335.8,38.2,335.4L38.2,335.4z M31.5,333.8H31l-0.3-0.2l0.7,0.1L31.5,333.8z M29.3,332.5h-0.2&#10;&#9;&#9;c-1.1-0.7-2.3-1.2-3.6-1.6l0.3-0.1c0.5,0,1,0,1.5,0.1c1,0.1,2,0.4,2.8,1.1c0.1,0.1,0.2,0.2,0.3,0.3L29.3,332.5z M23.3,331.2h0.5&#10;&#9;&#9;c-0.8,0.4-1.6,0.8-2.4,1.3h-0.1c-1,0.1-2,0.2-2.9,0.5h0c0.8-0.7,1.7-1.1,2.6-1.5C21.8,331.2,22.6,331.1,23.3,331.2L23.3,331.2z&#10;&#9;&#9; M15.4,335.8c-0.4,0.7-0.7,1.5-1,2.2c0,0,0,0.1,0,0.1c-0.2,0.1-0.4,0.3-0.6,0.5c0.3-1.3,0.9-2.4,1.8-3.3l0.4-0.3&#10;&#9;&#9;C15.8,335.2,15.6,335.5,15.4,335.8L15.4,335.8z M13.6,339.3L13.6,339.3L13.6,339.3z M13,340.5c-0.2,0.5-0.4,0.9-0.6,1.4l-0.2,0.2&#10;&#9;&#9;c-0.1-0.3-0.2-0.7-0.2-1c0.3-0.3,0.5-0.6,0.8-0.9L13,340.5z M11.7,342.4c-1,0.9-1.9,1.9-2.5,3.1c0.6-1.4,1.4-2.8,2.3-4&#10;&#9;&#9;C11.5,341.8,11.6,342.1,11.7,342.4L11.7,342.4z M11.9,343c0,0.1,0,0.1,0,0.2c-0.1,0.4-0.3,0.9-0.4,1.3c-0.2,0.2-0.3,0.4-0.5,0.6&#10;&#9;&#9;c-0.8,1.3-1.2,2.7-1.1,4.2v0.5c-0.3,0.6-0.5,1.3-0.7,1.9C8.2,348.5,9.2,345,11.9,343L11.9,343z M11.6,358.5&#10;&#9;&#9;c0.1,0.4,0.1,0.8,0.2,1.2c0.1,0.4,0.1,0.6,0.1,0.9c-0.4-0.2-0.8-0.4-1.1-0.7c-0.3-0.6-0.6-1.3-0.9-1.9c-0.3-0.9-0.6-1.9-0.8-2.8&#10;&#9;&#9;C9.7,356.4,10.6,357.5,11.6,358.5L11.6,358.5z M11.4,360.8l0.6,0.4l0.1,0.4v0.2h0.4c0.1,0.4,0.3,0.7,0.5,1&#10;&#9;&#9;C12.4,362.2,11.8,361.5,11.4,360.8L11.4,360.8z M12.7,361c-0.2-0.5-0.3-1-0.4-1.5c0-0.1,0-0.3,0-0.4c0.7,0.6,1.4,1.1,2.2,1.6&#10;&#9;&#9;c0.1,0.2,0.3,0.4,0.5,0.5c-0.5,0-1.1,0.1-1.6,0.1L12.7,361z M18.1,363.9c0.7,0.5,1.4,0.9,2.2,1.2c1,1.6,2.4,2.8,4,3.7&#10;&#9;&#9;c-2.7-1.1-5.1-2.8-6.8-5.1L18.1,363.9z M21.2,365.5l0.5,0.1c0.3,0.1,0.6,0.2,0.9,0.2c0.4,0.4,0.8,0.8,1.3,1.1&#10;&#9;&#9;c1.3,0.8,2.7,1.2,4.2,1.1h0.5c0.6,0.3,1.3,0.5,1.9,0.7c-1.2,0.4-2.5,0.5-3.8,0.3C24.5,368.7,22.5,367.4,21.2,365.5L21.2,365.5z&#10;&#9;&#9; M33.3,368.3c-0.2,0-0.3,0.1-0.5,0.1c0.3-0.2,0.6-0.3,0.8-0.5c0.5-0.4,1-0.7,1.5-1.2c0.2,0,0.5,0.1,0.7,0&#10;&#9;&#9;C35.1,367.5,34.3,368,33.3,368.3L33.3,368.3z M35.7,366.3c0.4-0.2,0.8-0.4,1.2-0.7c-0.2,0.2-0.3,0.5-0.5,0.6&#10;&#9;&#9;C36.1,366.3,35.9,366.3,35.7,366.3L35.7,366.3z M38,364.9c1.2-0.9,2.4-1.9,3.4-3.1c0.8-0.9,1.4-1.8,2-2.8c-1.1,2.3-2.5,4.4-4.1,6.3&#10;&#9;&#9;c-0.4,0.2-0.9,0.4-1.4,0.6c-0.3,0.1-0.5,0.2-0.7,0.2C37.4,365.7,37.7,365.3,38,364.9L38,364.9z M45,352.9L45,352.9&#10;&#9;&#9;c0.1,0.2,0.1,0.4,0,0.6C44.9,353.3,44.9,353.1,45,352.9L45,352.9z M45,352.3c0-0.5-0.1-1-0.2-1.5c0.1-0.2,0.2-0.5,0.2-0.7&#10;&#9;&#9;c0,0.5,0.1,1.1,0.1,1.6v0.5L45,352.3z M45.4,348.5c0-0.2,0-0.5,0-0.7c0.6,0.6,1.1,1.2,1.6,1.8c-0.1,0.7-0.4,1.3-0.9,1.8&#10;&#9;&#9;c-0.2,0.2-0.3,0.3-0.5,0.5v-0.1C45.6,350.7,45.5,349.6,45.4,348.5L45.4,348.5z M45.4,347.1c-0.3-2.3-1-4.4-2.1-6.4l-0.6-1.2&#10;&#9;&#9;c2,2.2,3.5,4.7,4.6,7.4c-0.4-0.5-0.8-1.1-1.2-1.6l-0.4,0.3c0.6,0.8,1.2,1.5,1.7,2.3c0,0.3,0,0.5-0.1,0.8c0,0.1,0,0.2,0,0.3&#10;&#9;&#9;C46.5,348.3,45.9,347.6,45.4,347.1L45.4,347.1z M47.7,348.7c0,0,0-0.1,0-0.1c0,0.1,0,0.3,0,0.4s0,0.4,0,0.5l-0.1-0.1&#10;&#9;&#9;C47.6,349.2,47.6,348.9,47.7,348.7L47.7,348.7z M47.9,347.1L47.9,347.1c0-1.1-0.1-2.2-0.2-3.3c0.1,0.2,0.1,0.4,0.1,0.6&#10;&#9;&#9;C47.9,345.2,47.9,346.1,47.9,347.1L47.9,347.1z M47,342.7c0.1,1,0.3,2,0.3,3.1c-1.3-3-3.2-5.6-5.5-7.9c-0.5-1-1.1-2.1-1.8-3l1,0.1&#10;&#9;&#9;l1.3,0.2l0.5,0.3c1.1,1.4,2.1,2.8,3,4.3c0.4,0.6,0.8,1.3,1.1,1.9C46.9,342,46.9,342.4,47,342.7z M36.6,332.4h0.2l0.3,0.1&#10;&#9;&#9;c-0.5,0.1-0.9,0.2-1.3,0.3L36.6,332.4z M34.2,333.2c-0.3-0.2-0.6-0.5-0.9-0.7h0.4l1.9-0.1L34.2,333.2z M33.5,333.3&#10;&#9;&#9;c-0.7-0.3-1.4-0.5-2.1-0.6c0,0,0-0.1,0-0.1l1-0.1l0.2,0.1C32.9,332.9,33.2,333.1,33.5,333.3z M31.1,332.2c-0.2-0.2-0.3-0.4-0.5-0.6&#10;&#9;&#9;c0.4,0.1,0.8,0.3,1.1,0.5L31.1,332.2z M18.2,332c0.4-0.2,0.7-0.4,1.1-0.6l0.9-0.1c-1,0.4-1.8,1-2.6,1.8&#10;&#9;&#9;C17.8,332.7,18,332.3,18.2,332z M16.9,333.2l-0.4,0.1h-0.2v0.4c-0.4,0.1-0.7,0.3-1,0.5c0.6-0.6,1.3-1.1,2-1.6L16.9,333.2z&#10;&#9;&#9; M8.6,347.2c0,0.1-0.1,0.3-0.1,0.4c0,0,0-0.1,0-0.1S8.5,347.3,8.6,347.2L8.6,347.2z M8.3,353.4c0.2,1.6,0.6,3.2,1.1,4.8&#10;&#9;&#9;c0.1,0.4,0.3,0.7,0.5,1.1l-0.2-0.2c-0.6-1.5-1.1-3-1.6-4.5l0.1-0.4l-0.3-0.1c-0.2-0.4-0.3-0.8-0.4-1.3c0.1-0.6,0.1-1.1,0.2-1.7&#10;&#9;&#9;C7.8,351.9,8,352.6,8.3,353.4L8.3,353.4z M7.7,355.4c0.2,0.6,0.4,1.2,0.6,1.7l-0.3-0.6C8,356.2,7.8,355.8,7.7,355.4&#10;&#9;&#9;C7.7,355.4,7.7,355.4,7.7,355.4L7.7,355.4z M15.5,366.5v-0.1l0.4,0.4L15.5,366.5z M29.8,370.4c1.9-0.5,3.8-1.1,5.5-2&#10;&#9;&#9;c0.7-0.3,1.3-0.7,2-1.1c-0.9,0.8-1.9,1.5-3,2C32.9,370,31.4,370.3,29.8,370.4L29.8,370.4z M35.6,367.7c0.4-0.3,0.7-0.6,1-0.9&#10;&#9;&#9;c0.4-0.1,0.8-0.2,1.2-0.3C37.1,366.8,36.3,367.2,35.6,367.7L35.6,367.7z M40.6,364.5c1.8-2.3,3.2-4.9,4.1-7.6c1-0.4,2-0.8,3-1.2&#10;&#9;&#9;c0,0.7,0,1.4-0.1,2v0.1C45.5,360.2,43.1,362.4,40.6,364.5L40.6,364.5z M44.9,356.3c0.3-1.2,0.6-2.4,0.6-3.7&#10;&#9;&#9;c0.3-0.2,0.7-0.5,0.9-0.8c0.4-0.5,0.7-1.1,0.9-1.7l0.2,0.3c0,0.8,0,1.7,0.1,2.5s0.1,1.5,0.1,2.2C46.8,355.5,45.9,355.9,44.9,356.3&#10;&#9;&#9;L44.9,356.3z M48.2,349.6c0.1,0.3,0.2,0.6,0.2,0.9l-0.2-0.3C48.1,350,48.1,349.8,48.2,349.6L48.2,349.6z M48.3,348.4&#10;&#9;&#9;c0-0.1,0-0.1-0.1-0.2v-0.4c0.1-1.2,0.1-2.4,0-3.6c-0.2-0.9-0.5-1.8-0.9-2.7c-0.1-0.8-0.2-1.6-0.4-2.4c0.9,1.6,1.5,3.4,1.9,5.2&#10;&#9;&#9;c0.5,2,0.7,4,0.8,6C49.2,349.7,48.8,349,48.3,348.4L48.3,348.4z M48.5,341.4c0.4,1.1,0.7,2.1,0.9,3.2c0.1,0.5,0.2,1,0.3,1.5&#10;&#9;&#9;c-0.1-0.6-0.2-1.2-0.4-1.8C49.1,343.3,48.8,342.3,48.5,341.4L48.5,341.4z M45.5,337.1c0.3,0.3,0.6,0.7,0.8,1&#10;&#9;&#9;c0.1,0.7,0.2,1.5,0.4,2.2l-0.5-0.8c-0.7-1.2-1.5-2.4-2.4-3.6l0.1,0.1l0.2,0.1C44.6,336.4,45,336.7,45.5,337.1L45.5,337.1z&#10;&#9;&#9; M41.1,333.9c-0.1-0.1-0.2-0.1-0.3-0.2c-0.4-0.3-0.7-0.6-1-1c0.4,0.3,0.9,0.6,1.3,1l0.3,0.3L41.1,333.9z M37.8,331.9L37.8,331.9&#10;&#9;&#9;L37.8,331.9L37.8,331.9z M35.6,331.6l0.4,0.3c-0.8,0-1.6,0.1-2.4,0.1l-1,0.1c-1.6-0.9-3.4-1.6-5.2-1.8l0.6-0.2&#10;&#9;&#9;c2.3,0.2,4.6,0.6,6.9,1.1L35.6,331.6z M29.3,329.7l0.2,0c1,0,2,0.1,3,0.4c0.3,0.1,0.5,0.2,0.8,0.3&#10;&#9;&#9;C31.9,330.1,30.6,329.9,29.3,329.7L29.3,329.7z M26.7,330c-0.2,0.1-0.4,0.1-0.5,0.2c-0.7-0.1-1.4-0.1-2.1,0&#10;&#9;&#9;c0.6-0.1,1.2-0.1,1.8-0.2L26.7,330z M17.4,331.9c-0.8,0.5-1.6,1.1-2.3,1.8c0.3-0.4,0.6-0.8,0.9-1.2C16.5,332.2,16.9,332,17.4,331.9&#10;&#9;&#9;z M12.3,337.8c-0.1,0.2-0.2,0.4-0.3,0.6l-0.2-0.2c0.3-0.4,0.5-0.8,0.8-1.1C12.5,337.2,12.4,337.5,12.3,337.8L12.3,337.8z&#10;&#9;&#9; M11.5,337.7l0-0.1l0.3-0.3L11.5,337.7z M10.7,337.6l-0.4,0.4c0.1-0.2,0.3-0.4,0.4-0.7C10.7,337.4,10.7,337.5,10.7,337.6&#10;&#9;&#9;L10.7,337.6z M9.2,339.9c0.5-0.6,1-1.1,1.6-1.6c0,0.2,0,0.3,0.1,0.5c-0.2,0.3-0.4,0.7-0.6,1c-0.9,1.6-1.7,3.3-2.4,5&#10;&#9;&#9;c0.2-1.3,0.4-2.5,0.8-3.7C8.9,340.6,9.1,340.2,9.2,339.9L9.2,339.9z M10.7,339.9c0.1-0.1,0.2-0.3,0.3-0.5c0,0.2,0.1,0.5,0.1,0.7&#10;&#9;&#9;c-0.2,0.3-0.4,0.7-0.5,1c-0.2,0.4-0.4,0.7-0.6,1c-0.7,1-1.2,2.1-1.6,3.2c-0.2,0.6-0.3,1.2-0.3,1.9c-0.1,0.3-0.2,0.5-0.2,0.8&#10;&#9;&#9;c0-0.5,0-1.1,0-1.7C8.6,344.2,9.6,342,10.7,339.9L10.7,339.9z M6.8,354.8c0,0.1,0,0.2,0,0.3C6.8,355,6.8,354.9,6.8,354.8L6.8,354.8&#10;&#9;&#9;z M13.8,366.6c0.2,0,0.5,0,0.8,0h0.2c0.5,0.5,1.1,0.9,1.7,1.3c0.3,0.2,0.6,0.4,0.9,0.5s0.3,0.3,0.5,0.5c-0.3,0-0.6-0.1-0.9-0.1&#10;&#9;&#9;c-0.6-0.1-1.2-0.4-1.8-0.7C14.7,367.5,14.2,367,13.8,366.6L13.8,366.6z M16.7,366.9l-0.6-0.7c0.8,0.6,1.6,1.1,2.4,1.5&#10;&#9;&#9;c0.7,0.4,1.4,0.8,2.1,1.1h-0.8c-0.7-0.3-1.4-0.6-2.1-0.9C17.4,367.6,17,367.3,16.7,366.9L16.7,366.9z M21.6,369.3l0.5,0.2l-0.8-0.2&#10;&#9;&#9;L21.6,369.3z M22.8,369.3c0.5,0,1.1,0,1.6,0.1c0.9,0.4,1.7,0.6,2.6,0.9c-0.7-0.1-1.4-0.1-2.1-0.2l-0.4-0.1&#10;&#9;&#9;C23.9,369.8,23.3,369.5,22.8,369.3L22.8,369.3z M27.3,370.9h0.2h-0.3H27.3z M34.5,369.9c1.8-0.9,3.4-2.2,4.7-3.8l1.1-0.8&#10;&#9;&#9;c0.8-0.5,1.6-1,2.4-1.5c-0.2,0.4-0.4,0.9-0.6,1.3s-0.3,0.6-0.4,1c-0.8,0.8-1.7,1.4-2.7,2C37.6,369,36.1,369.5,34.5,369.9&#10;&#9;&#9;L34.5,369.9z M43.6,363.3l1.2-0.9c-0.7,0.9-1.4,1.8-2.2,2.7C43,364.4,43.2,363.8,43.6,363.3L43.6,363.3z M48.3,355.4l0.1-0.1&#10;&#9;&#9;c0,0.2-0.1,0.4-0.2,0.6C48.2,355.7,48.2,355.5,48.3,355.4L48.3,355.4z M48.3,354.9c0-0.7,0-1.3-0.1-2c0-0.6,0-1.2-0.1-1.8&#10;&#9;&#9;c0.2,0.2,0.3,0.4,0.4,0.6c0.1,0.6,0.1,1.2,0.1,1.8c0,0.4-0.1,0.8-0.1,1.2L48.3,354.9z M49.2,352.5c0.2,0.2,0.3,0.5,0.5,0.7&#10;&#9;&#9;c0,0.3-0.1,0.7-0.1,1l-0.4,0.2c0-0.3,0.1-0.6,0.1-1S49.2,352.8,49.2,352.5L49.2,352.5z M47.3,338.2c-0.2-0.2-0.4-0.5-0.6-0.7v-0.1&#10;&#9;&#9;c0.2,0.2,0.5,0.3,0.7,0.5c0.2,0.2,0.5,0.4,0.7,0.6c0.3,0.7,0.5,1.3,0.7,2C48.3,339.7,47.9,338.9,47.3,338.2L47.3,338.2z&#10;&#9;&#9; M45.2,336.1c-0.1-0.1-0.2-0.2-0.3-0.3l1,0.2c0,0.2,0.1,0.3,0.1,0.5L45.2,336.1z M42.9,334.8L42.9,334.8c-0.3-0.3-0.6-0.7-0.9-0.9&#10;&#9;&#9;c0.4,0.3,0.8,0.6,1.2,1L42.9,334.8z M35.1,330.8l-0.6-0.3C34.7,330.5,34.9,330.7,35.1,330.8z M34.2,330.3L34.2,330.3z M23,329.8&#10;&#9;&#9;c-1,0.2-2,0.5-3,0.8l-0.2,0.1l-0.8,0.2c0.2-0.3,0.5-0.6,0.7-0.9l2.3-0.3L23,329.8z M19,330.1c-0.3,0.3-0.5,0.6-0.8,1l-1,0.2&#10;&#9;&#9;l0.1-0.1c0.5-0.4,1-0.7,1.5-1L19,330.1z M15,332.8c-0.5,0.7-1,1.4-1.4,2.2l-0.2,0.3c-0.7,0.6-1.5,1.2-2.2,1.8l0,0&#10;&#9;&#9;c0-0.1,0-0.3,0-0.4c0.3-0.4,0.5-0.8,0.8-1.1l-0.4-0.3l-0.4,0.6v-0.2c0.1-0.2,0.2-0.4,0.3-0.5C12.6,334.2,13.7,333.4,15,332.8z&#10;&#9;&#9; M10.4,336.8l-0.2,0.2L10.4,336.8L10.4,336.8z M7.4,343.9c-0.1,0.8-0.2,1.6-0.2,2.4c-0.1,0.4-0.3,0.7-0.4,1.1&#10;&#9;&#9;c0-0.7,0.1-1.5,0.2-2.2C7.2,344.8,7.3,344.4,7.4,343.9L7.4,343.9z M6.2,349l-0.1-0.2l0.1-0.5L6.2,349z M6,351.8&#10;&#9;&#9;c0.1,0.3,0.2,0.7,0.2,1s0,0.9,0.1,1.3C6.1,353.4,6,352.6,6,351.8z M18.6,369.4l0.2,0.1l-0.5-0.1L18.6,369.4z M30,371.2l0.7-0.1&#10;&#9;&#9;l0.7,0.1C30.9,371.1,30.5,371.2,30,371.2L30,371.2z M32.8,370.7c0.3-0.1,0.7-0.1,1-0.2c1.1-0.2,2.3-0.6,3.4-1&#10;&#9;&#9;c-0.8,0.4-1.6,0.8-2.3,1.2C34.1,370.7,33.5,370.7,32.8,370.7L32.8,370.7z M47.2,359.7L47.2,359.7c0.1,0.1,0,0.2,0,0.4l-0.3,0.2&#10;&#9;&#9;L47.2,359.7z M47.4,337.3c-0.3-0.2-0.6-0.4-0.9-0.6c0-0.2-0.1-0.5-0.1-0.7h0.2C46.8,336.4,47.1,336.8,47.4,337.3L47.4,337.3z&#10;&#9;&#9; M45.3,334.7c0.1,0.1,0.2,0.2,0.4,0.3l0.1,0.3l-1.5-0.3c-0.9-0.8-1.7-1.5-2.7-2.1c0.5,0.2,1.1,0.3,1.7,0.5&#10;&#9;&#9;C43.9,333.7,44.6,334.2,45.3,334.7L45.3,334.7z M40.3,332L40.3,332c-0.6-0.4-1.2-0.7-1.8-1.1c-0.1-0.1-0.2-0.3-0.3-0.4&#10;&#9;&#9;c0.9,0.5,1.7,1,2.6,1.5L40.3,332z M34.5,329.8h0.2H34.5z M22,329.2h-0.9c0.5-0.1,0.9-0.3,1.5-0.4l3.1,0.1&#10;&#9;&#9;C24.4,329,23.2,329.1,22,329.2z M15.2,330.6l0.6-0.1l1.6-0.2c-0.9,0.4-1.8,0.9-2.7,1.4l-1.1,0.2c0.3-0.4,0.7-0.9,1.1-1.3&#10;&#9;&#9;L15.2,330.6z M13.4,332.5l-0.5,0.3l0.2-0.3L13.4,332.5z M11.7,333.7l-0.5,0.4c0-0.4,0.1-0.7,0.3-1c0.2-0.2,0.5-0.3,0.8-0.4l0,0&#10;&#9;&#9;L11.7,333.7z M10.2,336.2c-0.5,0.9-0.9,1.8-1.3,2.7c-0.2,0.4-0.3,0.8-0.4,1.1c-0.2,0.2-0.4,0.5-0.5,0.8c-0.8,1.4-1.2,2.8-1.4,4.4&#10;&#9;&#9;c-0.2,0.8-0.4,1.5-0.6,2.3C5.8,343.3,7.4,339.3,10.2,336.2L10.2,336.2z M6.1,342.6c0.2-0.9,0.5-1.7,0.9-2.5&#10;&#9;&#9;C6.6,340.9,6.3,341.8,6.1,342.6L6.1,342.6z M30.9,371.9l-0.1-0.1h1h-0.1L30.9,371.9z M40.5,368.1c-0.1,0.1-0.2,0.3-0.3,0.4&#10;&#9;&#9;c-0.4,0.5-0.9,0.9-1.4,1.3c-0.8,0.3-1.5,0.5-2.3,0.7C37.9,369.7,39.2,368.9,40.5,368.1L40.5,368.1z M48,358.5L48,358.5&#10;&#9;&#9;c0-0.2,0.1-0.4,0.1-0.7l0.8-1c-0.1,0.4-0.2,0.8-0.3,1.2L48,358.5z M49.9,355.7L49.9,355.7c-0.1,0.6-0.1,1.1-0.2,1.7l0,0l-0.1,0&#10;&#9;&#9;C49.7,356.9,49.8,356.3,49.9,355.7L49.9,355.7z M50.9,352.6L50.9,352.6l-0.3-0.6c0-1.2,0-2.5-0.2-3.7c0-2.3-0.2-4.5-0.7-6.8&#10;&#9;&#9;c0.6,1.9,0.9,3.8,1,5.7C50.9,349.1,50.9,350.9,50.9,352.6L50.9,352.6z M47.6,335.8C47.6,335.8,47.6,335.7,47.6,335.8l0.1,0&#10;&#9;&#9;L47.6,335.8z M46.9,335.6L46.9,335.6c-0.3-0.3-0.6-0.6-0.8-0.8v-0.1c0.2,0.1,0.3,0.2,0.5,0.3S46.8,335.4,46.9,335.6z M45.3,333.5&#10;&#9;&#9;c0,0.1,0,0.2,0,0.2c-0.7-0.3-1.4-0.6-2.1-0.9l-0.6-0.2l-0.5-0.3c0.5,0,1.1,0,1.6,0c0.3,0,0.6,0,0.8,0.1c0.2,0.2,0.3,0.4,0.5,0.6&#10;&#9;&#9;S45.3,333.4,45.3,333.5z M37.3,330L37.3,330l0.2,0.4c-0.9-0.5-1.9-0.8-2.9-1.1h1.1C36.3,329.5,36.8,329.8,37.3,330L37.3,330z&#10;&#9;&#9; M30.2,328.6l-5.5-0.2c1.1-0.2,2.3-0.3,3.4-0.4C28.8,328.2,29.5,328.4,30.2,328.6L30.2,328.6z M13.9,330.7&#10;&#9;&#9;c-0.4,0.5-0.8,0.9-1.1,1.4l-0.6,0.1c-0.4,0.1-0.8,0.2-1.1,0.5c-0.3,0.4-0.5,0.9-0.5,1.4c0,0.1,0,0.3,0,0.4l-0.5,0.4&#10;&#9;&#9;c-0.3-0.7-0.6-1.5-0.8-2.2c0.4-0.4,0.7-0.9,1.1-1.2c0.8-0.2,1.6-0.5,2.5-0.7L13.9,330.7z M9.1,332l0.3-0.1l-0.3,0.3&#10;&#9;&#9;C9.2,332.1,9.2,332,9.1,332z M4.9,354c0.1,0.2,0.2,0.4,0.2,0.5c0.5,1,1,2.1,1.5,3.1c0,0,0,0.1,0,0.1c0,0.1,0,0.1,0,0.2&#10;&#9;&#9;c-0.1-0.1-0.2-0.2-0.2-0.3c-0.3-0.4-0.7-0.8-1.1-1.2c-0.2-0.8-0.4-1.5-0.5-2.3L4.9,354z M6.1,358c0.2,0.2,0.4,0.4,0.5,0.6&#10;&#9;&#9;c0,0.5,0,1,0,1.4c-0.3-0.8-0.6-1.7-0.9-2.5L6.1,358z M7.1,359.2c0.4,1.4,0.9,2.7,1.7,4c0,0.3,0,0.6,0.1,0.8&#10;&#9;&#9;c-0.6-0.9-1.2-1.8-1.7-2.8C7.1,360.6,7,359.9,7.1,359.2L7.1,359.2z M10.6,365.7L10.6,365.7c0.4,0.5,0.9,0.9,1.4,1.3&#10;&#9;&#9;c1.1,0.8,2.3,1.5,3.6,2c0.3,0.3,0.6,0.5,0.9,0.8c-1.2-0.4-2.4-1-3.5-1.7c-1.2-0.8-2.3-1.7-3.2-2.8C10,365.4,10.3,365.6,10.6,365.7&#10;&#9;&#9;L10.6,365.7z M17.8,370.1l-0.6-0.5l0,0c0.5,0.2,1,0.4,1.5,0.5c0.9,0.3,1.8,0.5,2.8,0.7l0.5,0.2C20.6,370.9,19.2,370.6,17.8,370.1&#10;&#9;&#9;L17.8,370.1z M44.2,366.9c0.3-0.3,0.6-0.6,0.9-0.9c-0.2,0.3-0.5,0.5-0.8,0.8L44.2,366.9z M48.2,361.4c0.3-0.6,0.5-1.1,0.7-1.7&#10;&#9;&#9;l0.2-0.6l0.3-0.2c-0.2,1.3-0.6,2.5-1.2,3.7c-0.4,0.8-0.9,1.5-1.5,2.2C47.3,363.7,47.8,362.6,48.2,361.4L48.2,361.4z M53,341.1&#10;&#9;&#9;c-1-1.5-2.1-2.8-3.3-4.1c0.9,0.3,1.8,0.7,2.7,1.1C52.7,339,52.9,340.1,53,341.1z M52.2,337.4c-1.1-0.5-2.2-0.9-3.3-1.2&#10;&#9;&#9;c-0.6-0.6-1.3-1.1-2-1.5c-0.4-0.6-0.8-1.3-1.3-1.8c-0.1-0.2-0.2-0.4-0.3-0.5c-0.1-0.1-0.2-0.2-0.3-0.2c-0.9-0.9-1.9-1.8-3-2.4&#10;&#9;&#9;c2.4,0.2,4.7,1.1,6.7,2.5C50.3,333.5,51.5,335.3,52.2,337.4L52.2,337.4z M38.7,328.9h-1.2h-0.3c-0.1-0.1-0.1-0.2-0.2-0.3&#10;&#9;&#9;C37.6,328.6,38.1,328.8,38.7,328.9z M36.2,328.4L36.2,328.4c0.1,0.2,0.2,0.3,0.2,0.4h-0.7c-0.6-0.2-1.2-0.5-1.8-0.7&#10;&#9;&#9;C34.8,328.2,35.5,328.3,36.2,328.4z M22.8,327.8c2.2-0.8,4.5-0.9,6.7-0.4c-0.5,0-1,0-1.4,0.1c-0.4-0.1-0.8-0.1-1.1-0.1&#10;&#9;&#9;c-1.7,0-3.5,0.3-5.1,1h0C22.1,328.1,22.5,328,22.8,327.8z M16.3,328.7c0.5,0,1.1,0,1.6,0l2.4,0.1c-0.1,0.1-0.3,0.2-0.4,0.4&#10;&#9;&#9;s-0.4,0.1-0.5,0.2c-1.3,0.1-2.7,0.2-4,0.5C15.7,329.4,16,329.1,16.3,328.7z M14.5,328.9c0.4-0.1,0.7-0.2,1.1-0.2&#10;&#9;&#9;c-0.4,0.4-0.7,0.8-1.1,1.2c-0.6,0.1-1.2,0.2-1.8,0.4l-1.2,0.2C12.4,329.8,13.4,329.2,14.5,328.9L14.5,328.9z M3.2,346.7&#10;&#9;&#9;c-0.2-2.3-0.1-4.5,0.3-6.8c0.1,0.5,0.2,1,0.3,1.4c0.2,0.8,0.4,1.7,0.6,2.5c-0.2,1.3-0.3,2.5-0.3,3.8c0,0.9,0,1.7,0,2.5&#10;&#9;&#9;C3.6,349.1,3.3,347.9,3.2,346.7z M4.5,355.1c0,0.2,0.1,0.4,0.1,0.6l-0.2-0.2L4.5,355.1z M7.9,367c-1.2-0.8-2.2-1.7-3.1-2.9&#10;&#9;&#9;c-1.1-1.8-1.4-3.9-1-6c0.1-0.7,0.3-1.5,0.5-2.2l0.6,0.6l0.1,0.1c0.4,1.6,1,3.2,1.7,4.7c0.2,2,0.7,4,1.6,5.8L7.9,367z M14.3,370.7&#10;&#9;&#9;c-1.9-0.7-3.6-1.7-5.2-2.8c-0.9-1.6-1.5-3.4-1.8-5.2c1.3,2.3,3.2,4.3,5.4,5.8c1.5,1,3.2,1.7,5,2.2c0.6,0.4,1.2,0.8,1.9,1.2&#10;&#9;&#9;C17.8,371.7,16,371.3,14.3,370.7z M26,373.1L26,373.1c-1.2,0-2.4-0.2-3.4-0.5c1.1,0,2.1,0.1,3.2,0.1c1.3,0,2.7,0,4-0.1&#10;&#9;&#9;C28.5,372.9,27.3,373.1,26,373.1z M45.9,370.2c-0.8,1.2-1.7,2.2-2.9,3.1c-1.8,1.1-3.9,1.4-6,1c-0.7-0.1-1.5-0.3-2.2-0.5&#10;&#9;&#9;c0.2,0,0.4,0,0.6,0c0.8,0,1.7-0.2,2.4-0.6l-0.2-0.4h0.2c0.8,0,1.7-0.1,2.5-0.3c1.6-0.5,3.2-1.3,4.5-2.3c0.7-0.5,1.4-1,2-1.5&#10;&#9;&#9;L45.9,370.2z M32.1,372.5l3.6,0.2l0,0c0.6,0,1.2,0.1,1.7,0.1C35.7,373.7,33.6,373.2,32.1,372.5L32.1,372.5z M49.6,363.7&#10;&#9;&#9;c-0.5,1.3-1.1,2.5-1.8,3.6c-1.1,0.9-2.1,1.7-3.2,2.5c-1.3,1-2.8,1.8-4.3,2.3c-1.5,0.3-2.9,0.3-4.4,0.2l0,0l-2-0.1&#10;&#9;&#9;c1.2-0.2,2.4-0.5,3.5-1c2.8-0.6,5.4-2,7.5-3.9c1.6-1.2,3-2.7,3.9-4.5c0.6-1.4,1.1-2.9,1.3-4.4l0.7-0.6&#10;&#9;&#9;C50.6,359.8,50.2,361.8,49.6,363.7L49.6,363.7z M51.6,355.9c0-0.2-0.1-0.3-0.2-0.5c0-0.1,0-0.3,0-0.4&#10;&#9;&#9;C51.5,355.3,51.6,355.5,51.6,355.9L51.6,355.9z M51.5,353.7L51.5,353.7L51.5,353.7c0.6-0.4,1.2-0.8,1.8-1.2c-0.2,1-0.6,2-1.3,2.7&#10;&#9;&#9;C51.8,354.8,51.6,354.3,51.5,353.7L51.5,353.7z M55.8,349.2c-0.6,1.2-1.5,2.2-2.6,2.8l-1.1,0.7c0.3-0.6,0.6-1.2,0.9-1.9&#10;&#9;&#9;c0.6-1.9,0.9-3.9,0.9-5.9c0-0.7,0-1.3,0-1.9l0.5,0.8C55.2,345.5,56.4,347.4,55.8,349.2L55.8,349.2z" id="S1TMG3ZaeW7"/></g></g>
</g>
<script>(function(){var a=document.querySelector('#SkMhbTlWm'),b=a.querySelectorAll('style'),c=function(d){b.forEach(function(f){var g=f.textContent;g&amp;&amp;(f.textContent=g.replace(/transform-box:[^;\r\n]*/gi,'transform-box: '+d))})};c('initial'),window.requestAnimationFrame(function(){return c('fill-box')})})();</script></svg>