<svg version="1.1" id="BJbA4RPlX" xmlns="http://www.w3.org/2000/svg" xmlns:xlink="http://www.w3.org/1999/xlink" x="0px" y="0px" viewBox="0 0 111 111" style="enable-background:new 0 0 111 111;" xml:space="preserve"><style>@-webkit-keyframes S1fZCVAvlQ_rkSVrRwl7_Animation{0%{-webkit-transform: scale(1, 1);transform: scale(1, 1);}50%{-webkit-transform: scale(1.2, 1.2);transform: scale(1.2, 1.2);}100%{-webkit-transform: scale(1, 1);transform: scale(1, 1);}}@keyframes S1fZCVAvlQ_rkSVrRwl7_Animation{0%{-webkit-transform: scale(1, 1);transform: scale(1, 1);}50%{-webkit-transform: scale(1.2, 1.2);transform: scale(1.2, 1.2);}100%{-webkit-transform: scale(1, 1);transform: scale(1, 1);}}@-webkit-keyframes rJH-AERwg7_Animation{0%{opacity: 1;}10%{opacity: 1;}20%{opacity: 0;}100%{opacity: 0;}}@keyframes rJH-AERwg7_Animation{0%{opacity: 1;}10%{opacity: 1;}20%{opacity: 0;}100%{opacity: 0;}}@-webkit-keyframes B1_-CNRDxX_Animation{0%{opacity: 0;}10%{opacity: 0;}20%{opacity: 1;}100%{opacity: 1;}}@keyframes B1_-CNRDxX_Animation{0%{opacity: 0;}10%{opacity: 0;}20%{opacity: 1;}100%{opacity: 1;}}#BJbA4RPlX *{-webkit-animation-duration: 1s;animation-duration: 1s;-webkit-animation-iteration-count: infinite;animation-iteration-count: infinite;-webkit-animation-timing-function: cubic-bezier(0, 0, 1, 1);animation-timing-function: cubic-bezier(0, 0, 1, 1);}#SJZW0V0vg7{fill: #FCC62F;}#HymZAVCvem{fill: #231F20;}#r1E-C40vx7{fill: #ED1C24;}#B1LZRNCPgQ{fill: none;stroke: #231F20;stroke-width: 3;stroke-linecap: round;stroke-miterlimit: 10;}#H1P-R4CweX{fill: none;stroke: #231F20;stroke-width: 3;stroke-linecap: round;stroke-miterlimit: 10;}#BkFbRNCweX{fill: #FFFFFF;}#HJ9-RNRwe7{fill: #231F20;}#Syo-0NCvg7{fill: #FFFFFF;}#ry2-RVRwem{fill: #231F20;}#B1_-CNRDxX{-webkit-animation-name: B1_-CNRDxX_Animation;animation-name: B1_-CNRDxX_Animation;-webkit-transform-origin: 50% 50%;transform-origin: 50% 50%;transform-box: fill-box;opacity: 0;}#rJH-AERwg7{-webkit-animation-name: rJH-AERwg7_Animation;animation-name: rJH-AERwg7_Animation;-webkit-transform-origin: 50% 50%;transform-origin: 50% 50%;transform-box: fill-box;opacity: 1;}#S1fZCVAvlQ_rkSVrRwl7{-webkit-animation-name: S1fZCVAvlQ_rkSVrRwl7_Animation;animation-name: S1fZCVAvlQ_rkSVrRwl7_Animation;-webkit-transform-origin: 50% 50%;transform-origin: 50% 50%;transform-box: fill-box;-webkit-transform: scale(1, 1);transform: scale(1, 1);}</style>

<g id="rye-0N0vl7">
	<circle cx="55.7" cy="55.7" r="55.7" id="SJZW0V0vg7"/>
	<g id="S1fZCVAvlQ_rkSVrRwl7" data-animator-group="true" data-animator-type="2"><g id="S1fZCVAvlQ">
		<path id="HymZAVCvem" d="M77.7,74.6c-2.6,5.1-5.8,9-9.5,11.6c-7.6,5.5-16.7,5.6-24.6-0.2c-3.6-2.6-6.8-6.4-9.6-11.5&#10;&#9;&#9;&#9;c-0.8-1.2-0.7-2.6,0.1-3.1c0.4-0.2,11-0.3,21.7-0.3c10.6,0,21.3,0.1,21.7,0.3C78.4,72,78.5,73.5,77.7,74.6"/>
		<path id="r1E-C40vx7" d="M68,86.5c-7.6,5.5-16.7,5.6-24.6-0.2c2.2-2.3,6.8-3.8,12.2-3.8C61.1,82.5,65.8,84.2,68,86.5"/>
	</g></g>
	<g id="rJH-AERwg7">
		<line x1="23.2" y1="48.6" x2="35.6" y2="48.6" id="B1LZRNCPgQ"/>
		<line x1="75.7" y1="48.6" x2="88.1" y2="48.6" id="H1P-R4CweX"/>
	</g>
	<g id="B1_-CNRDxX">
		<path id="BkFbRNCweX" d="M36.9,48.6c0,4.1-3.3,7.5-7.5,7.5c-4.1,0-7.5-3.3-7.5-7.5s3.3-7.5,7.5-7.5&#10;&#9;&#9;&#9;C33.5,41.1,36.9,44.4,36.9,48.6"/>
		<path id="HJ9-RNRwe7" d="M34.4,48.6c0,2.8-2.3,5-5,5s-5-2.3-5-5c0-2.8,2.3-5,5-5S34.4,45.8,34.4,48.6"/>
		<path id="Syo-0NCvg7" d="M89.4,48.6c0,4.1-3.3,7.5-7.5,7.5c-4.1,0-7.5-3.3-7.5-7.5s3.3-7.5,7.5-7.5&#10;&#9;&#9;&#9;C86.1,41.1,89.4,44.4,89.4,48.6"/>
		<path id="ry2-RVRwem" d="M87,48.6c0,2.8-2.3,5-5,5c-2.8,0-5-2.3-5-5c0-2.8,2.3-5,5-5C84.7,43.5,87,45.8,87,48.6"/>
	</g>
</g>
<script>(function(){var a=document.querySelector('#BJbA4RPlX'),b=a.querySelectorAll('style'),c=function(d){b.forEach(function(f){var g=f.textContent;g&amp;&amp;(f.textContent=g.replace(/transform-box:[^;\r\n]*/gi,'transform-box: '+d))})};c('initial'),window.requestAnimationFrame(function(){return c('fill-box')})})();</script></svg>