<svg version="1.1" id="BysMngkTxfm" xmlns="http://www.w3.org/2000/svg" xmlns:xlink="http://www.w3.org/1999/xlink" x="0px" y="0px" viewBox="0 0 270 380" style="enable-background:new 0 0 270 380;" xml:space="preserve"><style>@-webkit-keyframes HkuKnlJpezQ_SyWUeaezQ_Animation{35%{-webkit-transform: scale(1, 1);transform: scale(1, 1);}55.00%{-webkit-transform: scale(5, 5);transform: scale(5, 5);}0%{-webkit-transform: scale(1, 1);transform: scale(1, 1);}}@keyframes HkuKnlJpezQ_SyWUeaezQ_Animation{35%{-webkit-transform: scale(1, 1);transform: scale(1, 1);}55.00%{-webkit-transform: scale(5, 5);transform: scale(5, 5);}0%{-webkit-transform: scale(1, 1);transform: scale(1, 1);}}@-webkit-keyframes HkuKnlJpezQ_Animation{0%{opacity: 0;}35%{opacity: 0;}45%{opacity: 0.8;}55.00%{opacity: 0;}}@keyframes HkuKnlJpezQ_Animation{0%{opacity: 0;}35%{opacity: 0;}45%{opacity: 0.8;}55.00%{opacity: 0;}}@-webkit-keyframes ryjPnxJ6lz7_BkVzgaezX_Animation{0%{-webkit-transform: translate(0px, 0px);transform: translate(0px, 0px);}25%{-webkit-transform: translate(0px, -15px);transform: translate(0px, -15px);}35%{-webkit-transform: translate(0px, 0px);transform: translate(0px, 0px);}100%{-webkit-transform: translate(0px, 0px);transform: translate(0px, 0px);}}@keyframes ryjPnxJ6lz7_BkVzgaezX_Animation{0%{-webkit-transform: translate(0px, 0px);transform: translate(0px, 0px);}25%{-webkit-transform: translate(0px, -15px);transform: translate(0px, -15px);}35%{-webkit-transform: translate(0px, 0px);transform: translate(0px, 0px);}100%{-webkit-transform: translate(0px, 0px);transform: translate(0px, 0px);}}@-webkit-keyframes BJVdhgJagG7_Hk_Jg6gGQ_Animation{0%{-webkit-transform: rotate(0deg);transform: rotate(0deg);}25%{-webkit-transform: rotate(-10deg);transform: rotate(-10deg);}35%{-webkit-transform: rotate(0deg);transform: rotate(0deg);}100%{-webkit-transform: rotate(0deg);transform: rotate(0deg);}}@keyframes BJVdhgJagG7_Hk_Jg6gGQ_Animation{0%{-webkit-transform: rotate(0deg);transform: rotate(0deg);}25%{-webkit-transform: rotate(-10deg);transform: rotate(-10deg);}35%{-webkit-transform: rotate(0deg);transform: rotate(0deg);}100%{-webkit-transform: rotate(0deg);transform: rotate(0deg);}}@-webkit-keyframes By9_2gypefQ_rJKhJTeG7_Animation{0%{-webkit-transform: rotate(0deg);transform: rotate(0deg);}25%{-webkit-transform: rotate(10deg);transform: rotate(10deg);}35%{-webkit-transform: rotate(0deg);transform: rotate(0deg);}100%{-webkit-transform: rotate(0deg);transform: rotate(0deg);}}@keyframes By9_2gypefQ_rJKhJTeG7_Animation{0%{-webkit-transform: rotate(0deg);transform: rotate(0deg);}25%{-webkit-transform: rotate(10deg);transform: rotate(10deg);}35%{-webkit-transform: rotate(0deg);transform: rotate(0deg);}100%{-webkit-transform: rotate(0deg);transform: rotate(0deg);}}@-webkit-keyframes rJhz2lyTlfX_BkE_kpxGX_Animation{0%{-webkit-transform: scale(0.9, 0.9);transform: scale(0.9, 0.9);}50%{-webkit-transform: scale(1, 1);transform: scale(1, 1);}100%{-webkit-transform: scale(0.9, 0.9);transform: scale(0.9, 0.9);}}@keyframes rJhz2lyTlfX_BkE_kpxGX_Animation{0%{-webkit-transform: scale(0.9, 0.9);transform: scale(0.9, 0.9);}50%{-webkit-transform: scale(1, 1);transform: scale(1, 1);}100%{-webkit-transform: scale(0.9, 0.9);transform: scale(0.9, 0.9);}}@-webkit-keyframes BypGhekTgzQ_HknZ1peG7_Animation{0%{-webkit-transform: scale(0.9, 0.9);transform: scale(0.9, 0.9);}50%{-webkit-transform: scale(1.1, 1.1);transform: scale(1.1, 1.1);}100%{-webkit-transform: scale(0.9, 0.9);transform: scale(0.9, 0.9);}}@keyframes BypGhekTgzQ_HknZ1peG7_Animation{0%{-webkit-transform: scale(0.9, 0.9);transform: scale(0.9, 0.9);}50%{-webkit-transform: scale(1.1, 1.1);transform: scale(1.1, 1.1);}100%{-webkit-transform: scale(0.9, 0.9);transform: scale(0.9, 0.9);}}#BysMngkTxfm *{-webkit-animation-duration: 2s;animation-duration: 2s;-webkit-animation-iteration-count: infinite;animation-iteration-count: infinite;-webkit-animation-timing-function: cubic-bezier(0, 0, 1, 1);animation-timing-function: cubic-bezier(0, 0, 1, 1);}#rJhz2lyTlfX{fill: url(#SVGID_1_);}#BypGhekTgzQ{fill: url(#SVGID_2_);}#r1173lJ6lMm{fill: #EF5151;}#B1eX2gJTgMm{fill: #FDD4B2;}#H1Wm3x1TlzQ{fill: #2D2B29;}#SkMX2lk6ezQ{fill: #2D2B29;}#r1BQ3x1axMQ{fill: #FFFFFF;stroke: #000000;stroke-miterlimit: 10;}#SyIX2xyTgf7{fill: #FFFFFF;stroke: #000000;stroke-miterlimit: 10;}#r1v7hlJTgzX{fill: #3F4651;}#rkuX2x1plGX{fill: #636D7D;}#SkYm2x1pezQ{fill: #96A3B7;}#By5Q2gJaezX{fill: #96A3B7;}#r1iX2gJplG7{fill: #96A3B7;}#HJhXhxk6lfX{opacity: 0.53;fill: #636D7D;enable-background: new;}#BkpX2gyplzm{opacity: 0.26;fill: #B8C5D8;enable-background: new;}#HJAQ3eJpxfX{fill: #B8C5D8;}#ByyEngkTeGX{fill: #FFFFFF;}#rJgNnekaxMX{fill: #FFFFFF;}#HkWNnlJTgG7{fill: #FFFFFF;}#B1GVng1plfX{fill: #B8C5D8;}#HJ7E2ek6xGQ{fill: #B8C5D8;}#SyHVneyaxzQ{fill: #96A3B7;}#B1DN2ey6lfX{fill: #96A3B7;}#H1ONnl16xGX{fill: #A83A3A;}#rJKV3gyagzX{fill: #A83A3A;}#BkqNhlypxGQ{fill: #A83A3A;}#rkj4nxJ6gfQ{fill: #353535;}#ry3V2lJTxfm{fill: #96A3B7;}#rkTNnlJpgfX{fill: #B8C5D8;}#ry0NhxypeGQ{opacity: 0.53;fill: #636D7D;enable-background: new;}#rk1Bhg1aef7{fill: #96A3B7;}#ByxSnx1TgMX{fill: #636D7D;}#By-S2xkTgfQ{fill: #636D7D;}#SyfS2lkagzX{fill: #6D6E71;}#SJXB3gJTez7{opacity: 0.53;fill: #636D7D;enable-background: new;}#S1VB3g16ezQ{fill: #636D7D;}#rkBHnxkplGm{fill: #636D7D;}#S1OHne1pxzm{fill: #636D7D;}#rJFr2x16lMX{fill: #231F20;}#H1cH3e1TeGQ{fill: #636D7D;}#SJir3lkTgMQ{fill: #B8C5D8;}#SyhH2lkpxGX{fill: #B8C5D8;}#Bkar3g1agz7{opacity: 0.53;fill: #636D7D;enable-background: new;}#S1AS2gkaxfm{fill: #636D7D;}#BkJ82gkalfm{fill: #B8C5D8;}#ByeIhgkaezQ{opacity: 0.53;fill: #636D7D;enable-background: new;}#SkZU2e1plMX{fill: #636D7D;}#SJzI2lkTgfm{fill: #B8C5D8;}#H17UnekpxMX{opacity: 0.53;fill: #636D7D;enable-background: new;}#B14I2gkpxGX{fill: #636D7D;}#SkS8nlkTefm{fill: #B8C5D8;}#ryIUnxkalGX{opacity: 0.53;fill: #636D7D;enable-background: new;}#S1wL3ey6lM7{fill: #636D7D;}#Bk_83eJalzX{fill: #B8C5D8;}#BytL2g1alf7{opacity: 0.53;fill: #636D7D;enable-background: new;}#B1c83xypgG7{fill: #636D7D;}#BJoInxJaxzm{fill: #B8C5D8;}#rJ2I2ekTlzm{opacity: 0.53;fill: #636D7D;enable-background: new;}#SyaInxyTxf7{fill: #636D7D;}#rkRUnl1alzX{fill: #B8C5D8;}#r1yv3e1pgMm{opacity: 0.53;fill: #636D7D;enable-background: new;}#SJxv3eJagfX{fill: #636D7D;}#HJ-vheyaxMQ{fill: #58595B;}#rkMwhlkplz7{fill: #58595B;}#r1Qwnl16efX{fill: #58595B;}#BJVD2gJ6gMX{fill: #58595B;}#rJHw2xJTxzX{fill: #58595B;}#ByIvhxk6xGm{fill: #58595B;}#HJDvnlk6gGQ{fill: #AA775E;}#SyuDng1aez7{fill: #AA775E;}#HyFvhgJ6lM7{fill: #AA775E;}#rJ9vhxyTxMX{fill: #AA775E;}#rkhw2gkaeM7{fill: #3A1807;}#Bypw3eyagMQ{fill: #D6DFEA;}#S1CD2eyaxGX{opacity: 0.43;fill: #FFFFFF;enable-background: new;}#SkJO3xk6eGX{opacity: 0.18;fill: #FFFFFF;enable-background: new;}#HJg_hgyTxzm{opacity: 0.18;fill: #FFFFFF;enable-background: new;}#S1Wdhe1aezX{fill: #AA775E;}#r1fO3ey6gfX{fill: #AA775E;}#Sy7dhx1TgzQ{fill: #BA8C1A;}#HkHdhlyplfm{fill: #636D7D;}#BJIungkagzm{fill: #353535;}#ByD_2xJpgMX{fill: #353535;}#ryOu2xy6gGm{fill: #B8C5D8;}#HkKdnxkTxMX{opacity: 0.42;fill: #EAEAEA;enable-background: new;}#S1iu2x1TxzQ{fill: #636D7D;}#HJ2_3xkaxzQ{fill: #353535;}#BJa_2ly6gMQ{fill: #353535;}#ByAdnx1plGX{fill: #B8C5D8;}#B1kF3eJalzm{opacity: 0.42;fill: #EAEAEA;enable-background: new;}#H1xthxJ6lfX{fill: #B8C5D8;}#Hk-Yhl16gfX{opacity: 0.64;fill: #EAEAEA;enable-background: new;-webkit-transform:  matrix(0.5749, -0.8182, 0.8182, 0.5749, -15.2347, 251.4814);transform:  matrix(0.5749, -0.8182, 0.8182, 0.5749, -15.2347, 251.4814);}#ryGY3ey6gzX{fill: #CFD8E5;}#ryXY3eJ6lMX{fill: #636D7D;}#BkEK3g1alfm{fill: #B8C5D8;}#rySY3xypgGX{opacity: 0.64;fill: #EAEAEA;enable-background: new;-webkit-transform:  matrix(0.8182, -0.5749, 0.5749, 0.8182, -73.5558, 45.7701);transform:  matrix(0.8182, -0.5749, 0.5749, 0.8182, -73.5558, 45.7701);}#BkLY3xyaxz7{fill: #CFD8E5;}#rJvK2gyTgGQ{fill: #636D7D;}#HkuKnlJpezQ{fill: #FFFFFF;-webkit-animation-name: HkuKnlJpezQ_Animation;animation-name: HkuKnlJpezQ_Animation;-webkit-transform-origin: 50% 50%;transform-origin: 50% 50%;transform-box: fill-box;opacity: 0;}#BypGhekTgzQ_HknZ1peG7{-webkit-animation-name: BypGhekTgzQ_HknZ1peG7_Animation;animation-name: BypGhekTgzQ_HknZ1peG7_Animation;-webkit-transform-origin: 50% 50%;transform-origin: 50% 50%;transform-box: fill-box;-webkit-transform: scale(0.9, 0.9);transform: scale(0.9, 0.9);}#rJhz2lyTlfX_BkE_kpxGX{-webkit-animation-name: rJhz2lyTlfX_BkE_kpxGX_Animation;animation-name: rJhz2lyTlfX_BkE_kpxGX_Animation;-webkit-transform-origin: 50% 50%;transform-origin: 50% 50%;transform-box: fill-box;-webkit-transform: scale(0.9, 0.9);transform: scale(0.9, 0.9);}#By9_2gypefQ_rJKhJTeG7{-webkit-animation-name: By9_2gypefQ_rJKhJTeG7_Animation;animation-name: By9_2gypefQ_rJKhJTeG7_Animation;-webkit-transform-origin: 100% 0%;transform-origin: 100% 0%;transform-box: fill-box;-webkit-transform: rotate(0deg);transform: rotate(0deg);}#BJVdhgJagG7_Hk_Jg6gGQ{-webkit-animation-name: BJVdhgJagG7_Hk_Jg6gGQ_Animation;animation-name: BJVdhgJagG7_Hk_Jg6gGQ_Animation;-webkit-transform-origin: 0% 0%;transform-origin: 0% 0%;transform-box: fill-box;-webkit-transform: rotate(0deg);transform: rotate(0deg);}#ryjPnxJ6lz7_BkVzgaezX{-webkit-animation-name: ryjPnxJ6lz7_BkVzgaezX_Animation;animation-name: ryjPnxJ6lz7_BkVzgaezX_Animation;-webkit-transform-origin: 50% 50%;transform-origin: 50% 50%;transform-box: fill-box;-webkit-transform: translate(0px, 0px);transform: translate(0px, 0px);}#HkuKnlJpezQ_SyWUeaezQ{-webkit-animation-name: HkuKnlJpezQ_SyWUeaezQ_Animation;animation-name: HkuKnlJpezQ_SyWUeaezQ_Animation;-webkit-transform-origin: 50% 50%;transform-origin: 50% 50%;transform-box: fill-box;-webkit-transform: scale(1, 1);transform: scale(1, 1);}</style>

<radialGradient id="SVGID_1_" cx="135.4994" cy="176.6683" r="157.3666" gradientTransform="matrix(0.9938 0 0 1.0755 0.3413 0)" gradientUnits="userSpaceOnUse">
	<stop offset="0" style="stop-color:#A83A3A"/>
	<stop offset="0.9" style="stop-color:#A83A3A;stop-opacity:0"/>
</radialGradient>
<g id="rJhz2lyTlfX_BkE_kpxGX" data-animator-group="true" data-animator-type="2"><ellipse cx="135" cy="190" rx="134.5" ry="190" id="rJhz2lyTlfX"/></g>
<title>Asset 28</title>
<radialGradient id="SVGID_2_" cx="134.975" cy="190" r="134.4825" gradientTransform="matrix(1 0 0 1.4126 0 -78.4015)" gradientUnits="userSpaceOnUse">
	<stop offset="0" style="stop-color:#EF5151"/>
	<stop offset="1" style="stop-color:#EF5151;stop-opacity:0"/>
</radialGradient>
<g id="BypGhekTgzQ_HknZ1peG7" data-animator-group="true" data-animator-type="2"><path d="M190,16.5C190,16.5,189.9,16.5,190,16.5C189.9,16.5,189.9,16.5,190,16.5c-0.2-0.2-0.4-0.3-0.6-0.4&#10;&#9;c0,0-0.1,0-0.1-0.1c0,0,0,0,0,0c0,0,0,0-0.1,0c0,0,0,0,0,0c0,0,0,0-0.1-0.1h0c0,0,0,0-0.1-0.1c0,0,0,0,0,0c0,0-0.1,0-0.1,0l0,0&#10;&#9;c-0.1,0-0.2-0.1-0.2-0.1c0,0,0,0,0,0c0,0,0,0-0.1,0c0,0,0,0,0,0c0,0,0,0-0.1,0c0,0,0,0,0,0c0,0,0,0-0.1,0c0,0,0,0,0,0c0,0,0,0,0,0&#10;&#9;s0,0,0,0c0,0,0,0,0,0c0,0-0.1,0-0.1,0c0,0,0,0,0,0c0,0-0.1,0-0.1-0.1c0,0,0,0,0,0c0,0,0,0-0.1,0c0,0,0,0,0,0c0,0,0,0,0,0&#10;&#9;c0,0,0,0,0,0c0,0,0,0-0.1,0c0,0,0,0,0,0c0,0,0,0,0,0c0,0,0,0,0,0c0,0,0,0-0.1,0c0,0,0,0,0,0c-0.1,0-0.1-0.1-0.2-0.1c0,0,0,0,0,0&#10;&#9;c0,0-0.1,0-0.1,0c0,0,0,0,0,0c0,0,0,0-0.1,0c0,0,0,0,0,0c0,0,0,0-0.1,0c0,0,0,0,0,0c0,0,0,0-0.1,0c0,0,0,0,0,0c0,0,0,0-0.1,0&#10;&#9;c0,0,0,0,0,0c-0.1,0-0.1-0.1-0.2-0.1c0,0,0,0,0,0c0,0-0.1,0-0.1,0c0,0,0,0,0,0c0,0,0,0-0.1,0c0,0,0,0,0,0s0,0-0.1,0c0,0,0,0,0,0&#10;&#9;c0,0,0,0-0.1,0c0,0,0,0,0,0c0,0,0,0-0.1,0c0,0,0,0,0,0c0,0-0.1,0-0.1,0c0,0,0,0,0,0c0,0-0.1,0-0.1-0.1c0,0,0,0,0,0c0,0-0.1,0-0.1,0&#10;&#9;c0,0,0,0,0,0c0,0,0,0-0.1,0c0,0,0,0,0,0c0,0,0,0-0.1,0c0,0,0,0,0,0c0,0-0.1,0-0.1,0c0,0,0,0,0,0c0,0-0.1,0-0.1,0c0,0,0,0,0,0&#10;&#9;c-0.1,0-0.1-0.1-0.2-0.1c0,0,0,0,0,0c0,0-0.1,0-0.1,0c0,0,0,0,0,0c0,0,0,0-0.1,0l0,0c0,0-0.1,0-0.1,0c0,0,0,0,0,0c0,0,0,0-0.1,0&#10;&#9;c0,0,0,0,0,0c0,0-0.1,0-0.1,0c0,0,0,0,0,0c-0.1-0.1-0.2-0.1-0.3-0.2c0,0,0,0,0,0c0,0-0.1,0-0.1,0c0,0,0,0,0,0c0,0,0,0-0.1,0&#10;&#9;c0,0,0,0,0,0c0,0,0,0-0.1,0c0,0,0,0,0,0c0,0-0.1,0-0.1,0c0,0,0,0,0,0c0,0-0.1,0-0.1,0l0,0c-0.1,0-0.1-0.1-0.2-0.1c0,0,0,0,0,0&#10;&#9;c0,0-0.1,0-0.1,0c0,0,0,0,0,0c0,0,0,0-0.1,0c0,0,0,0,0,0c0,0,0,0-0.1,0c0,0,0,0,0,0c0,0,0,0-0.1,0c0,0,0,0,0,0c0,0-0.1,0-0.1-0.1&#10;&#9;c0,0,0,0,0,0c-0.1,0-0.1-0.1-0.2-0.1c0,0,0,0,0,0c0,0,0,0-0.1,0c0,0,0,0,0,0c0,0,0,0-0.1,0c0,0,0,0,0,0c0,0-0.1,0-0.1,0c0,0,0,0,0,0&#10;&#9;c0,0,0,0-0.1,0c0,0,0,0,0,0c0,0-0.1,0-0.1-0.1c0,0,0,0,0,0c-0.1,0-0.2-0.1-0.2-0.1h0c0,0-0.1,0-0.1-0.1c0,0,0,0,0,0c0,0,0,0-0.1,0&#10;&#9;c0,0,0,0,0,0c0,0,0,0-0.1,0c0,0,0,0,0,0c0,0-0.1,0-0.1,0c0,0,0,0,0,0c-0.1,0-0.2-0.1-0.3-0.2l0,0c0,0-0.1,0-0.1,0c0,0,0,0,0,0&#10;&#9;c0,0,0,0-0.1,0c0,0,0,0,0,0c0,0,0,0-0.1,0c0,0,0,0,0,0c0,0,0,0-0.1,0c0,0,0,0,0,0c0,0-0.1,0-0.1,0c0,0,0,0,0,0&#10;&#9;c-0.1,0-0.1-0.1-0.2-0.1c0,0,0,0,0,0c0,0-0.1,0-0.1,0c0,0,0,0,0,0c0,0,0,0-0.1,0c0,0,0,0,0,0c0,0,0,0-0.1,0c0,0,0,0,0,0&#10;&#9;c0,0,0,0-0.1,0c0,0,0,0,0,0c0,0,0,0-0.1,0c0,0,0,0,0,0c-0.1,0-0.1-0.1-0.2-0.1h0c0,0-0.1,0-0.1,0c0,0,0,0,0,0c0,0,0,0-0.1,0&#10;&#9;c0,0,0,0,0,0c0,0,0,0-0.1,0c0,0,0,0,0,0c0,0,0,0-0.1,0c0,0,0,0,0,0c0,0-0.1,0-0.1,0c0,0,0,0,0,0c0,0-0.1,0-0.1,0c0,0,0,0,0,0&#10;&#9;c0,0-0.1,0-0.1-0.1c0,0,0,0,0,0c0,0-0.1,0-0.1,0c0,0,0,0,0,0c0,0,0,0-0.1,0c0,0,0,0,0,0c0,0,0,0-0.1,0c0,0,0,0,0,0c0,0,0,0-0.1,0&#10;&#9;c0,0,0,0,0,0c0,0-0.1,0-0.1,0c0,0,0,0,0,0c-0.1,0-0.1-0.1-0.2-0.1c0,0,0,0,0,0c0,0-0.1,0-0.1,0c0,0,0,0,0,0c0,0,0,0-0.1,0&#10;&#9;c0,0,0,0,0,0c0,0,0,0-0.1,0c0,0,0,0,0,0c0,0,0,0-0.1,0c0,0,0,0,0,0c0,0,0,0-0.1,0c0,0,0,0,0,0c0,0-0.1,0-0.1,0c0,0,0,0,0,0&#10;&#9;c0,0-0.1,0-0.1,0c0,0,0,0,0,0c0,0,0,0-0.1,0c0,0,0,0,0,0c0,0,0,0-0.1,0c0,0,0,0,0,0c0,0,0,0-0.1,0c0,0,0,0-0.1,0c0,0,0,0-0.1,0&#10;&#9;c0,0,0,0,0,0c0,0,0,0-0.1,0c0,0,0,0,0,0c0,0,0,0-0.1,0c0,0,0,0,0,0c0,0-0.1,0-0.1-0.1c0,0,0,0,0,0c0,0-0.1,0-0.1,0c0,0,0,0-0.1,0&#10;&#9;c0,0,0,0-0.1,0c0,0,0,0,0,0c0,0,0,0,0,0c0,0,0,0,0,0c0,0,0,0-0.1,0c0,0,0,0,0,0c0,0-0.1,0-0.1,0c0,0,0,0,0,0c0,0-0.1,0-0.1,0&#10;&#9;c0,0,0,0,0,0c0,0-0.1,0-0.1,0c0,0-0.1,0-0.1,0c0,0,0,0,0,0c0,0-0.1,0-0.1,0c0,0,0,0,0,0c0,0-0.1,0-0.1,0c0,0,0,0,0,0c0,0,0,0-0.1,0&#10;&#9;c0,0,0,0,0,0c0,0-0.1,0-0.1,0l0,0c-0.1,0-0.2-0.1-0.2-0.1c0,0-0.1,0-0.1,0c0,0,0,0,0,0c0,0,0,0-0.1,0c0,0,0,0,0,0c0,0,0,0-0.1,0&#10;&#9;c0,0,0,0,0,0c0,0,0,0-0.1,0c0,0,0,0,0,0c0,0,0,0-0.1,0c0,0,0,0,0,0c0,0,0,0-0.1,0h0c0,0-0.1,0-0.1-0.1c0,0-0.1,0-0.1,0c0,0,0,0,0,0&#10;&#9;c0,0,0,0-0.1,0c0,0,0,0,0,0c0,0,0,0-0.1,0c0,0,0,0,0,0c0,0,0,0-0.1,0c0,0,0,0,0,0c0,0,0,0-0.1,0c0,0,0,0,0,0c0,0-0.1,0-0.1,0&#10;&#9;c0,0,0,0,0,0c-0.1,0-0.1-0.1-0.2-0.1c0,0,0,0,0,0c0,0-0.1,0-0.1,0c0,0,0,0,0,0c0,0-0.1,0-0.1,0c0,0,0,0,0,0c0,0,0,0-0.1,0&#10;&#9;c0,0,0,0,0,0c0,0,0,0-0.1,0h0c0,0-0.1,0-0.1,0c0,0,0,0,0,0c-0.1,0-0.2-0.1-0.2-0.1c0,0-0.1,0-0.1,0c0,0,0,0,0,0c0,0-0.1,0-0.1,0&#10;&#9;c0,0,0,0,0,0c0,0-0.1,0-0.1,0c0,0,0,0,0,0c0,0-0.1,0-0.1,0c-0.1-0.1-0.3-0.1-0.4-0.2c0,0,0,0,0,0c0,0-0.1,0-0.1,0c0,0,0,0,0,0&#10;&#9;c0,0-0.1,0-0.1,0c0,0,0,0,0,0c-0.1-0.1-0.3-0.1-0.4-0.2c-0.1,0-0.2-0.1-0.2-0.1c-0.2-0.1-0.5-0.2-0.7-0.3l-29.7,157&#10;&#9;c1.3,0.5,2.7,1.2,3.9,2.2l53.7-143.7C195.2,20,192.6,18.2,190,16.5z M240.6,72.3C240.6,72.3,240.6,72.3,240.6,72.3&#10;&#9;c0-0.1-0.1-0.1-0.1-0.1c-0.1-0.2-0.2-0.4-0.3-0.5c0,0,0-0.1-0.1-0.1h0c0,0,0-0.1-0.1-0.1c-0.1-0.2-0.2-0.4-0.3-0.5c0,0,0,0,0,0&#10;&#9;c0,0,0-0.1-0.1-0.1c0,0,0,0,0,0c0,0,0-0.1,0-0.1c0,0,0,0,0,0c0,0,0-0.1,0-0.1c0,0,0,0,0,0c0,0,0-0.1-0.1-0.1c0,0,0-0.1-0.1-0.1&#10;&#9;c0,0,0,0,0,0c0,0,0-0.1-0.1-0.1c0,0,0,0,0,0c0,0,0-0.1,0-0.1c0,0,0,0,0,0c0,0,0-0.1,0-0.1c0,0,0,0,0,0c0,0,0-0.1,0-0.1&#10;&#9;c0,0,0,0,0-0.1c0,0,0-0.1-0.1-0.1c0,0,0,0,0,0c0,0,0-0.1-0.1-0.1c0,0,0,0,0,0c0,0,0-0.1-0.1-0.1c0,0,0,0,0,0c0,0,0-0.1,0-0.1&#10;&#9;c0,0,0,0,0-0.1c0,0,0,0,0-0.1c0,0,0,0,0,0c0,0,0-0.1,0-0.1c0,0,0,0,0-0.1c0,0,0,0,0-0.1c0,0,0,0,0-0.1c0,0,0,0,0,0&#10;&#9;c0-0.1-0.1-0.1-0.1-0.2c0,0,0,0,0,0c0,0,0,0,0-0.1c0,0,0,0,0,0c0,0,0-0.1,0-0.1c0,0,0,0,0,0c0,0,0-0.1,0-0.1c0,0,0,0,0,0&#10;&#9;c0,0,0-0.1,0-0.1c0,0,0,0,0,0c-0.1-0.1-0.1-0.2-0.2-0.3c0,0,0,0,0,0l-0.1-0.1c0,0,0,0,0,0c0,0,0-0.1,0-0.1c0,0,0,0,0,0&#10;&#9;c0,0,0-0.1,0-0.1c0,0,0,0,0,0c0,0,0-0.1-0.1-0.1c0,0,0,0,0,0c-0.1-0.2-0.2-0.4-0.3-0.5c0,0,0,0,0,0c0,0,0-0.1-0.1-0.1v0&#10;&#9;c-4.6-7.6-9.6-14.6-14.9-21.1L147.6,169c1.1,1.4,2.2,2.9,3.1,4.6l92.2-97.1C242.1,75.1,241.4,73.7,240.6,72.3z M266.5,150.1&#10;&#9;c0,0,0-0.1,0-0.1v0c0,0,0-0.1,0-0.1c0,0,0,0,0,0c0,0,0-0.1,0-0.1c0,0,0,0,0-0.1c0,0,0-0.1,0-0.1v0c0-0.1,0-0.1,0-0.2c0,0,0,0,0,0&#10;&#9;c0,0,0,0,0-0.1c0,0,0-0.1,0-0.1c0,0,0,0,0-0.1c0,0,0-0.1,0-0.1c0,0,0,0,0-0.1c0,0,0-0.1,0-0.1c0,0,0,0,0-0.1c0,0,0-0.1,0-0.1&#10;&#9;c0,0,0,0,0,0c0,0,0-0.1,0-0.1c0,0,0,0,0,0c0-0.2-0.1-0.4-0.1-0.6c0,0,0,0,0,0c0-0.1,0-0.1,0-0.2c0-0.1,0-0.1,0-0.2v0&#10;&#9;c-0.8-4.9-1.7-9.8-2.8-14.6c0-0.2-0.1-0.4-0.1-0.6l0,0c0,0,0-0.1,0-0.1c0,0,0,0,0,0c0,0,0-0.1,0-0.1c0,0,0,0,0,0c0,0,0-0.1,0-0.1&#10;&#9;c0,0,0,0,0,0c0,0,0-0.1,0-0.1c0,0,0,0,0,0c0,0,0-0.1,0-0.1c0,0,0,0,0,0c0-0.1-0.1-0.3-0.1-0.5c0,0,0,0,0,0c0,0,0-0.1,0-0.1&#10;&#9;c0,0,0,0,0,0c0,0,0-0.1,0-0.1c0,0,0,0,0,0c0,0,0-0.1,0-0.1c0,0,0,0,0,0c0,0,0-0.1,0-0.1c0,0,0,0,0,0c0,0,0-0.1,0-0.1&#10;&#9;c0-0.1,0-0.1,0-0.2c0,0,0,0,0,0c0,0,0-0.1,0-0.1c0,0,0,0,0,0c0,0,0-0.1,0-0.1c0,0,0,0,0-0.1c0,0,0-0.1,0-0.1c0,0,0,0,0-0.1&#10;&#9;c0,0,0-0.1,0-0.1c0,0,0,0,0-0.1c0,0,0-0.1,0-0.1c0,0,0,0,0-0.1c0,0,0-0.1,0-0.1c0,0,0,0,0,0c0,0,0-0.1,0-0.1c0,0,0-0.1,0-0.1&#10;&#9;c0,0,0-0.1,0-0.1c0,0,0,0,0-0.1c0,0,0,0,0-0.1c0,0,0-0.1,0-0.1c0,0,0,0,0-0.1c0,0,0,0,0-0.1c0,0,0,0,0-0.1c0,0,0-0.1,0-0.1&#10;&#9;c0,0,0,0,0-0.1c0,0,0-0.1,0-0.1c0,0,0,0,0-0.1c0,0,0-0.1,0-0.1c0,0,0,0,0,0c0-0.1-0.1-0.3-0.1-0.4c0,0,0-0.1,0-0.1c0,0,0,0,0,0&#10;&#9;c0,0,0-0.1,0-0.1c0,0,0,0,0,0c0,0,0-0.1,0-0.1c0,0,0,0,0,0c0,0,0-0.1,0-0.1c0,0,0,0,0,0c0,0,0-0.1,0-0.1c0,0,0,0,0,0&#10;&#9;c0-0.2-0.1-0.3-0.1-0.5c0,0,0,0,0,0c0,0,0-0.1,0-0.1c0,0,0,0,0,0c0,0,0-0.1,0-0.1c0,0,0,0,0,0c0,0,0-0.1,0-0.1c0,0,0,0,0,0&#10;&#9;c0,0,0-0.1,0-0.1c0,0,0,0,0,0c-0.1-0.3-0.1-0.5-0.2-0.8c0,0,0,0,0,0c0,0,0-0.1,0-0.1c0,0,0,0,0,0c0,0,0-0.1,0-0.1c0,0,0,0,0,0&#10;&#9;c-0.4-1.5-0.8-2.9-1.2-4.3c-0.1-0.4-0.2-0.7-0.3-1.1c0,0,0-0.1,0-0.1c-0.1-0.3-0.2-0.6-0.3-0.9c0,0,0,0,0,0c0,0,0-0.1,0-0.1v0&#10;&#9;c0,0,0-0.1,0-0.1c-0.1-0.3-0.1-0.5-0.2-0.8c0,0,0,0,0-0.1c0,0,0-0.1,0-0.1c0,0,0,0,0,0c0,0,0-0.1,0-0.1c0,0,0,0,0-0.1&#10;&#9;c0,0,0-0.1,0-0.1c0,0,0,0,0-0.1c0,0,0-0.1,0-0.1c0,0,0,0,0-0.1c0,0,0-0.1,0-0.1c0,0,0,0,0-0.1c0,0,0,0,0-0.1c0,0,0-0.1,0-0.1&#10;&#9;c0,0,0,0,0,0c0,0,0-0.1,0-0.1c0,0,0,0,0,0c0,0,0-0.1,0-0.1c0,0,0,0,0,0c0,0,0-0.1,0-0.1c0,0,0,0,0-0.1c0,0,0-0.1,0-0.1&#10;&#9;c0,0,0,0,0-0.1c0,0,0-0.1,0-0.1c0,0,0,0,0,0c0,0,0-0.1,0-0.1l0,0c0-0.1-0.1-0.3-0.1-0.4c0,0,0,0,0,0c0,0,0-0.1,0-0.1v0&#10;&#9;c0,0,0-0.1,0-0.1c0,0,0,0,0,0c0,0,0-0.1,0-0.1c-0.1-0.5-0.3-0.9-0.4-1.3l-105.1,65.9c0.6,1.8,1,3.7,1.2,5.6L267,153.3&#10;&#9;C266.8,152.3,266.7,151.2,266.5,150.1z M154.5,190.9c0,2.1-0.2,4.2-0.6,6.1l111.4,40.4c0.2-1.3,0.4-2.5,0.7-3.8c0-0.1,0-0.2,0.1-0.3&#10;&#9;c0-0.1,0-0.1,0-0.2v0c0,0,0-0.1,0-0.2c0-0.2,0.1-0.4,0.1-0.6c0,0,0,0,0,0c0,0,0-0.1,0-0.1c0,0,0,0,0,0c0,0,0-0.1,0-0.1c0,0,0,0,0,0&#10;&#9;c0,0,0-0.1,0-0.1c0,0,0,0,0,0c0,0,0-0.1,0-0.1c0,0,0,0,0-0.1c0,0,0-0.1,0-0.1c0,0,0,0,0,0c0,0,0-0.1,0-0.1c0,0,0,0,0,0&#10;&#9;c0,0,0-0.1,0-0.1c0,0,0,0,0,0c0,0,0-0.1,0-0.1c0,0,0-0.1,0-0.1c0,0,0,0,0-0.1c0,0,0-0.1,0-0.1c0,0,0-0.1,0-0.1c0,0,0-0.1,0-0.1&#10;&#9;c0,0,0,0,0-0.1c0,0,0-0.1,0-0.1c0,0,0,0,0-0.1c0,0,0-0.1,0-0.1c0,0,0,0,0-0.1c0,0,0-0.1,0-0.1c0,0,0,0,0-0.1c0,0,0-0.1,0-0.1&#10;&#9;c0,0,0,0,0-0.1c0,0,0-0.1,0-0.1c0,0,0,0,0,0c0-0.2,0.1-0.4,0.1-0.5c0,0,0,0,0,0c0,0,0-0.1,0-0.1c0,0,0,0,0,0c0,0,0-0.1,0-0.1v0&#10;&#9;c0,0,0-0.1,0-0.1c0,0,0,0,0-0.1c0,0,0-0.1,0-0.1c0,0,0,0,0-0.1c0,0,0-0.1,0-0.1c0,0,0,0,0,0c0,0,0-0.1,0-0.1c0,0,0,0,0,0&#10;&#9;c0,0,0-0.1,0-0.1v0c0-0.2,0-0.3,0.1-0.5c0,0,0,0,0,0c0,0,0-0.1,0-0.1c0,0,0,0,0,0c0,0,0-0.1,0-0.1v0c0,0,0-0.1,0-0.1c0,0,0,0,0,0&#10;&#9;c0,0,0-0.1,0-0.1c0,0,0,0,0,0c0,0,0-0.1,0-0.1c0,0,0,0,0,0c0,0,0-0.1,0-0.1c0-0.2,0.1-0.4,0.1-0.6c0,0,0-0.1,0-0.1c0,0,0,0,0,0&#10;&#9;c0,0,0-0.1,0-0.1c0,0,0,0,0,0c0,0,0-0.1,0-0.1c0,0,0,0,0,0c0,0,0-0.1,0-0.1c0,0,0,0,0,0c0,0,0-0.1,0-0.1c0,0,0,0,0,0&#10;&#9;c0,0,0-0.1,0-0.1c0,0,0,0,0,0c0-0.2,0-0.4,0.1-0.5c0,0,0,0,0,0c0,0,0-0.1,0-0.1v0c0,0,0-0.1,0-0.1c0,0,0,0,0,0c0,0,0-0.1,0-0.1&#10;&#9;c0,0,0,0,0,0c0,0,0-0.1,0-0.1c0,0,0,0,0-0.1c0,0,0-0.1,0-0.1c0,0,0,0,0,0c0,0,0-0.1,0-0.1c0,0,0,0,0,0c0,0,0-0.1,0-0.1&#10;&#9;c0,0,0,0,0-0.1c0,0,0-0.1,0-0.1c0,0,0,0,0,0c0-0.1,0-0.1,0-0.2c0,0,0,0,0,0c0,0,0-0.1,0-0.1c0,0,0,0,0-0.1c0,0,0-0.1,0-0.1&#10;&#9;c0,0,0,0,0-0.1v-0.1c0,0,0-0.1,0-0.1v-0.1c0,0,0-0.1,0-0.1c0,0,0-0.1,0-0.1c0,0,0-0.1,0-0.1c0,0,0,0,0-0.1c0,0,0-0.1,0-0.1&#10;&#9;c0,0,0-0.1,0-0.1c0,0,0,0,0-0.1c0,0,0-0.1,0-0.1c0,0,0-0.1,0-0.1c0,0,0-0.1,0-0.1c0,0,0-0.1,0-0.1c0,0,0,0,0,0c0,0,0-0.1,0-0.1v-0.1&#10;&#9;c0,0,0-0.1,0-0.1c0,0,0,0,0-0.1c0,0,0-0.1,0-0.1c0,0,0,0,0,0c0,0,0-0.1,0-0.1c0,0,0,0,0,0c0,0,0-0.1,0-0.1v0c0,0,0-0.1,0-0.1&#10;&#9;c0,0,0,0,0,0c0-0.1,0-0.1,0-0.2c0-0.2,0-0.4,0.1-0.6c0,0,0,0,0,0c0,0,0-0.1,0-0.2c0-0.1,0-0.1,0-0.2v0c0.9-7.9,1.4-16,1.6-24.2&#10;&#9;L154.5,190.9z M152.4,202.5c-0.7,1.8-1.5,3.5-2.4,5.1L238,312.1c0.2-0.4,0.5-0.8,0.7-1.2c0,0,0,0,0,0c0,0,0,0,0-0.1c0,0,0,0,0,0&#10;&#9;c0,0,0,0,0-0.1c0,0,0,0,0,0c0,0,0-0.1,0-0.1c0,0,0,0,0-0.1c0,0,0,0,0-0.1c0,0,0,0,0-0.1c0,0,0,0,0-0.1c0,0,0,0,0-0.1c0,0,0,0,0-0.1&#10;&#9;c0,0,0-0.1,0.1-0.1c0,0,0,0,0,0c0,0,0-0.1,0-0.1c0,0,0,0,0,0c0,0,0-0.1,0-0.1c0,0,0,0,0,0c0,0,0-0.1,0-0.1c0,0,0,0,0,0&#10;&#9;c0,0,0-0.1,0.1-0.1c0,0,0,0,0,0c3.5-6.1,6.8-12.6,9.8-19.4c0,0,0,0,0,0c0,0,0-0.1,0-0.1c0,0,0,0,0,0c0,0,0-0.1,0-0.1c0,0,0,0,0,0&#10;&#9;c0,0,0-0.1,0-0.1l0,0c0,0,0-0.1,0.1-0.1c0,0,0-0.1,0.1-0.1l0,0c0,0,0-0.1,0-0.1c0,0,0,0,0-0.1c0,0,0-0.1,0-0.1c0,0,0,0,0-0.1&#10;&#9;c0,0,0,0,0-0.1c0,0,0,0,0-0.1c0,0,0,0,0-0.1c0,0,0,0,0-0.1c0,0,0,0,0,0c0-0.1,0.1-0.2,0.1-0.3l0,0c0,0,0-0.1,0-0.1c0,0,0,0,0,0&#10;&#9;c0,0,0-0.1,0-0.1c0,0,0,0,0,0c1.6-3.7,3.1-7.5,4.5-11.4L152.4,202.5z M146.7,212c-1.2,1.3-2.4,2.3-3.7,3.2L190.7,363&#10;&#9;c9.2-5.9,17.8-13.2,25.7-21.7L146.7,212z M139.1,217c-1.3,0.4-2.7,0.6-4.1,0.6h-0.4L132.4,380c0.4,0,0.7,0,1.1,0h0.3c0,0,0,0,0.1,0&#10;&#9;h1.3c0,0,0,0,0,0h0.9c0,0,0,0,0.1,0h0.1c0,0,0,0,0,0h0.6c0,0,0,0,0,0c0,0,0.1,0,0.1,0h0.2c0,0,0,0,0,0h0.3v0h0.1c0,0,0,0,0,0h0.1&#10;&#9;c0,0,0,0,0,0h0.1c0,0,0,0,0,0h0.1c0,0,0,0,0,0c0,0,0.1,0,0.1,0h0.3c0,0,0,0,0,0c0,0,0.1,0,0.1,0c0,0,0,0,0,0h0.1c0,0,0,0,0,0&#10;&#9;c0.1,0,0.2,0,0.3,0h0.1c0,0,0.1,0,0.1,0c6.3-0.3,12.5-1.2,18.5-2.6c0,0,0.1,0,0.1,0c0.1,0,0.1,0,0.2,0h0.1c1.4-0.3,2.8-0.7,4.1-1.1&#10;&#9;L139.1,217z M126.3,214.7L74.6,359.8c0.7,0.5,1.4,1,2.1,1.4c0,0,0.1,0,0.1,0.1c0,0,0,0,0,0c0,0,0.1,0,0.1,0c0,0,0,0,0,0&#10;&#9;c0,0,0,0,0.1,0c0,0,0,0,0,0c0,0,0.1,0,0.1,0c0,0,0,0,0,0c0,0,0,0,0.1,0c0,0,0,0,0.1,0.1c0,0,0,0,0.1,0c0,0,0,0,0,0c0,0,0,0,0,0&#10;&#9;c0,0,0,0,0,0c0,0,0,0,0,0c0,0,0,0,0.1,0c0,0,0,0,0,0c0,0,0,0,0.1,0.1h0c0,0,0,0,0.1,0.1c0,0,0,0,0,0c7.9,5.3,16.2,9.5,24.9,12.5&#10;&#9;l27.5-157.7C128.9,216.3,127.6,215.6,126.3,214.7z M119.5,206.8l-90.8,99.6c6.1,11.2,13.1,21.3,20.9,30.3l73.1-125.4&#10;&#9;C121.5,210,120.5,208.5,119.5,206.8z M115.9,196L3.5,230.2c1.8,11.6,4.3,22.8,7.5,33.4c0,0,0,0,0,0c0,0,0,0.1,0,0.1c0,0,0,0,0,0&#10;&#9;c0,0,0,0.1,0,0.1c0,0,0,0,0,0.1c0,0,0,0,0,0.1c0,0,0,0,0,0.1l0,0.1c0,0,0,0,0,0.1c0,0.1,0.1,0.2,0.1,0.3c0,0,0,0,0,0&#10;&#9;c0,0,0,0.1,0,0.1c0,0,0,0,0,0.1c0,0,0,0,0,0.1c0,0,0,0,0,0.1c0,0,0,0,0,0.1c0,0,0,0,0,0.1c0,0,0,0.1,0,0.1c0,0,0,0,0,0.1&#10;&#9;c0,0,0,0,0,0.1c0,0,0,0.1,0,0.1c0,0,0,0,0,0.1c0,0,0,0.1,0,0.1c0,0,0,0,0,0.1c0,0,0,0.1,0,0.1c0,0,0,0,0,0c0,0,0,0.1,0,0.1&#10;&#9;c0,0,0,0,0,0c0,0,0,0.1,0,0.1c0,0,0,0,0,0c0,0,0,0.1,0,0.1c0,0,0,0,0,0c0,0,0,0.1,0,0.1c0,0,0,0,0,0c0,0,0,0.1,0,0.1c0,0,0,0,0,0&#10;&#9;c0.4,1.3,0.8,2.6,1.2,3.9l104.2-68.8C116.7,199.8,116.2,197.9,115.9,196z M4.1,146.2c-0.4,2.5-0.8,5-1.1,7.5c0,0.1,0,0.1,0,0.1&#10;&#9;c0,0,0,0,0,0c0,0.1,0,0.1,0,0.2c0,0.2-0.1,0.4-0.1,0.6c0,0.1,0,0.1,0,0.2c0,0,0,0,0,0c0,0,0,0.1,0,0.1c0,0,0,0,0,0.1&#10;&#9;c0,0,0,0.1,0,0.1c0,0,0,0.1,0,0.1c0,0,0,0.1,0,0.1c0,0,0,0,0,0.1c0,0,0,0.1,0,0.1c0,0,0,0,0,0.1c0,0,0,0,0,0.1c0,0,0,0.1,0,0.1&#10;&#9;c0,0,0,0,0,0.1c0,0,0,0.1,0,0.1c0,0,0,0,0,0c0,0.2,0,0.4-0.1,0.6v0c0,0,0,0.1,0,0.1c0,0,0,0,0,0c0,0,0,0.1,0,0.1c0,0,0,0,0,0&#10;&#9;c0,0,0,0.1,0,0.1c0,0,0,0,0,0c0,0,0,0.1,0,0.1v0c-0.6,4.7-1,9.4-1.4,14.2c0,0.4-0.1,0.8-0.1,1.2c0,0,0,0,0,0c0,0,0,0.1,0,0.1v0&#10;&#9;c0,0,0,0.1,0,0.1v0c0,0,0,0.1,0,0.1v0c0,0,0,0.1,0,0.1v0.1c0,0,0,0.1,0,0.1v0c0,0,0,0.1,0,0.1c0,0,0,0,0,0c0,0.1,0,0.2,0,0.2&#10;&#9;c0,0,0,0,0,0c0,0,0,0.1,0,0.1v0.1c0,0,0,0,0,0.1v0.1c0,0,0,0,0,0.1v0.1c0,0,0,0,0,0.1v0.1c0,0,0,0,0,0.1v0.1c0,0,0,0,0,0.1v0.2&#10;&#9;c0,0,0,0.1,0,0.1v0c0,0.1,0,0.1,0,0.2c0,0.2,0,0.4,0,0.7c0,0,0,0,0,0c0,0,0,0.1,0,0.2c0,0.1,0,0.1,0,0.2v0.2c0,0,0,0,0,0&#10;&#9;c-0.2,4-0.3,8-0.3,12.1l115,1.5c0-2.1,0.2-4.2,0.5-6.2L4.1,146.2z M30.3,70.7c-3.3,5.7-6.3,11.7-9.1,18c0,0,0,0,0,0c0,0,0,0,0,0.1&#10;&#9;c0,0,0,0,0,0c0,0,0,0.1,0,0.1c0,0,0,0,0,0.1c0,0,0,0,0,0.1c0,0,0,0.1,0,0.1c0,0,0,0,0,0c0,0,0,0.1,0,0.1c0,0,0,0,0,0&#10;&#9;c-0.1,0.1-0.1,0.3-0.2,0.4c0,0,0,0.1-0.1,0.1c0,0,0,0,0,0c0,0,0,0.1-0.1,0.1c0,0,0,0.1-0.1,0.1c-2.3,5.3-4.4,10.7-6.4,16.3&#10;&#9;L117.4,178c0.6-1.8,1.4-3.6,2.4-5.2L30.3,70.7z M77,18.5c-6.4,4.4-12.6,9.4-18.4,15.1c0,0,0,0-0.1,0.1c0,0,0,0,0,0c0,0,0,0-0.1,0.1&#10;&#9;c0,0,0,0,0,0c0,0,0,0-0.1,0.1c0,0,0,0,0,0c0,0,0,0-0.1,0.1c0,0,0,0,0,0c0,0-0.1,0.1-0.1,0.1c0,0,0,0,0,0c0,0,0,0,0,0.1c0,0,0,0,0,0&#10;&#9;c0,0,0,0-0.1,0c0,0,0,0,0,0.1c0,0,0,0,0,0c0,0,0,0-0.1,0.1c0,0,0,0,0,0c0,0,0,0-0.1,0.1c0,0,0,0,0,0c0,0-0.1,0.1-0.1,0.1&#10;&#9;c0,0,0,0,0,0c-0.1,0.1-0.1,0.1-0.2,0.2c-2,2-3.9,4-5.8,6.1L123,168.3c1.1-1.3,2.4-2.4,3.7-3.3L77,18.5z M134.2,0&#10;&#9;C134.2,0,134.2,0,134.2,0h-0.3c0,0-0.1,0-0.1,0H133c0,0,0,0,0,0h-0.5c0,0-0.1,0-0.1,0h-0.1c0,0,0,0,0,0H132c0,0,0,0,0,0h-0.1&#10;&#9;c0,0,0,0,0,0h-0.2c0,0,0,0,0,0c-0.1,0-0.2,0-0.4,0h-0.1c0,0,0,0,0,0c0,0-0.1,0-0.1,0h-0.3c0,0-0.1,0-0.1,0h-0.1c0,0,0,0,0,0h-0.1&#10;&#9;l0,0c-0.1,0-0.2,0-0.4,0H130c0,0,0,0,0,0c0,0-0.1,0-0.1,0h-0.1c0,0,0,0,0,0h-0.1l0,0h-0.1c0,0,0,0,0,0c-0.1,0-0.2,0-0.2,0&#10;&#9;c-0.2,0-0.3,0-0.5,0c-0.1,0-0.1,0-0.2,0c0,0,0,0,0,0c0,0-0.1,0-0.1,0h-0.1c-5,0.4-9.9,1.1-14.7,2.2c0,0-0.1,0-0.1,0l0,0&#10;&#9;c0,0-0.1,0-0.1,0c0,0,0,0,0,0c0,0-0.1,0-0.1,0c0,0,0,0,0,0c0,0-0.1,0-0.1,0h0c-0.1,0-0.2,0.1-0.3,0.1c0,0,0,0,0,0c0,0-0.1,0-0.1,0&#10;&#9;c0,0,0,0,0,0c0,0,0,0-0.1,0c0,0,0,0,0,0c0,0,0,0-0.1,0c0,0,0,0-0.1,0c0,0,0,0-0.1,0c0,0,0,0-0.1,0c0,0,0,0,0,0c0,0,0,0-0.1,0h0&#10;&#9;c0,0,0,0-0.1,0h0c0,0,0,0-0.1,0c0,0,0,0,0,0c-0.1,0-0.2,0-0.3,0.1c0,0-0.1,0-0.1,0c0,0,0,0,0,0c0,0-0.1,0-0.1,0l0,0c0,0-0.1,0-0.1,0&#10;&#9;c0,0,0,0,0,0c0,0-0.1,0-0.1,0h0c0,0-0.1,0-0.1,0c0,0,0,0,0,0c-2,0.5-4,1.1-5.9,1.7l25.3,158.5c1.4-0.5,2.9-0.7,4.4-0.7V0H134.2z" id="BypGhekTgzQ"/></g>
<g id="Bk0zngkTezX">
	<path d="M248.5,342.6c0,0-10.9,6.9-37,12.5c-15.7,3.3-31.6,5.4-47.5,6.3c-0.6,0-1.2,0.1-1.9,0.1&#10;&#9;&#9;c-8,0.5-16.6,0.7-25.9,0.8H134c-9.3,0-17.9-0.3-25.9-0.8l-1.9-0.1c-7.7-0.5-14.8-1.1-21.3-1.9c-10.1-1.2-18.8-2.7-26.3-4.3&#10;&#9;&#9;c-26.1-5.6-37-12.5-37-12.5c0-8.9,0.1-17.4,0.4-25.7c0.2-7.3,0.6-14.4,1.1-21.2c2.4-34.8,7.4-63.3,14.1-86.7&#10;&#9;&#9;c2.9-10.2,6.4-20.2,10.6-30c5.7-13.7,13.3-26.5,22.4-38.2c7.1-9.1,15.6-17,25.1-23.4c6.3-4.3,13.2-7.7,20.4-10.2&#10;&#9;&#9;c2.9-1,5.8-1.8,8.7-2.4c3.1-0.7,6.2-1.1,9.3-1.3l0,0c0,0,0.5,0,1.4,0h0.9h0.4l0,0c5.9,0.3,20.9,2.3,38.1,13.7&#10;&#9;&#9;c9.6,6.5,18.2,14.4,25.3,23.5c9.1,11.7,16.7,24.5,22.4,38.1c12,27.6,21.3,65.4,24.8,116.9c0.5,6.8,0.8,13.9,1.1,21.2&#10;&#9;&#9;C248.4,325.2,248.5,333.7,248.5,342.6z" id="r1173lJ6lMm"/>
	<path d="M137.6,107h-5.4c-2.5,0-4.5-2-4.5-4.5c0-0.2,0-0.4,0-0.6l1.6-12c0.3-2.2,2.2-3.9,4.5-3.9h2.3&#10;&#9;&#9;c2.3,0,4.2,1.7,4.5,3.9l1.6,12c0.3,2.5-1.4,4.7-3.9,5.1C138,107,137.8,107,137.6,107z" id="B1eX2gJTgMm"/>
	<path d="M145.2,77.5c0,0,9.8-8.5,14.1-4.7C163.6,76.6,149.2,75.1,145.2,77.5z" id="H1Wm3x1TlzQ"/>
	<path d="M124.6,77.5c0,0-9.8-8.5-14.2-4.7S120.6,75.1,124.6,77.5z" id="SkMX2lk6ezQ"/>
	<circle cx="116.4" cy="86.8" r="3.5" id="SJXQ3g1aeMX"/>
	<circle cx="153" cy="86.8" r="3.5" id="BkV7neJagfm"/>
	<path d="M112.1,255.6c3.1,3.9,5.8,8.1,7.7,11h-5.5L112.1,255.6z" id="r1BQ3x1axMQ"/>
	<path d="M159.8,255.6l-2.2,11h-5.5C154,263.7,156.8,259.5,159.8,255.6z" id="SyIX2xyTgf7"/>
	<path d="M193.6,360.5c-12.5,4.2-34-39.3-49.7-76.3l0,0c-11.1-10.5-19.8-0.4-20.1,0l0,0c-15.7,37-37.2,80.4-49.7,76.3&#10;&#9;&#9;c-21.5-7.2,13.6-127.4,13.6-127.4l46.2,1.3l46.2-1.3C180,233.2,215,353.3,193.6,360.5z" id="r1v7hlJTgzX"/>
	<path d="M76.8,215.7c0,0,4.8,17.4,9.1,27.2c0.6,1.5,2,2.6,3.5,2.9l0,0c27.8,5.9,56.5,6.2,84.4,0.9l4.5-0.8&#10;&#9;&#9;c2-0.4,3.5-1.9,3.9-3.9c1-5.1,3-15.5,4.3-27.5L76.8,215.7z" id="rkuX2x1plGX"/>
	<path d="M84.1,238.7c0,0-18.9,20.3-28.4,55.4c0,0,15.8,24.7,35.7,27l15-74.6C106.4,246.5,89.8,243.5,84.1,238.7z" id="SkYm2x1pezQ"/>
	<path d="M183.3,238.7c0,0,18.9,20.3,28.4,55.4c0,0-17.8,28.8-41.3,28.8l-11.9-76C158.6,246.8,177.6,243.5,183.3,238.7z&#10;&#9;&#9;" id="By5Q2gJaezX"/>
	<path d="M153.1,130.8l42.2,9.2c8.3,0,15,6.7,15,15c0,0.1,0,0.1,0,0.2c-0.2,13.8-3.8,35.5-20.5,57.9l0,0&#10;&#9;&#9;c-0.1,0.6-3.9,13-58.2,12.1c-55.6-0.9-57.4-10.9-57.4-10.9c-17.4-22.8-21.1-45-21.3-59.1c-0.1-8.3,6.5-15.1,14.8-15.2&#10;&#9;&#9;c0.1,0,0.1,0,0.2,0l42.2-9.3C124.3,127.7,139,127.7,153.1,130.8z" id="r1iX2gJplG7"/>
	<ellipse cx="132" cy="148.2" rx="64" ry="19.2" id="HJhXhxk6lfX"/>
	<path d="M93.1,222.2l42.4-54.8c0,0,25.4-1.2,28.7-2.6l-37.5,60.3C126.6,225.1,103.9,224.9,93.1,222.2z" id="BkpX2gyplzm"/>
	<path d="M75.3,198.5c0,0,61.5,17.8,108.8,1.8C184.2,200.2,143.2,224.3,75.3,198.5z" id="HJAQ3eJpxfX"/>
	<circle cx="92.9" cy="205.2" r="3" id="ByyEngkTeGX"/>
	<path d="M73.2,186.2c0,0.6,0.5,1.1,1.1,1.1s1.1-0.5,1.1-1.1s-0.5-1.1-1.1-1.1C73.7,185.1,73.3,185.6,73.2,186.2&#10;&#9;&#9;C73.3,186.1,73.2,186.1,73.2,186.2z" id="rJgNnekaxMX"/>
	<path d="M80.8,190.7c0,0.4,0.4,0.8,0.8,0.8s0.8-0.4,0.8-0.8s-0.4-0.8-0.8-0.8C81.2,189.9,80.8,190.2,80.8,190.7&#10;&#9;&#9;L80.8,190.7z" id="HkWNnlJTgG7"/>
	<path d="M91.4,321c0,0-19.7-0.3-35.7-27c0,0,5.8-32.1,28.4-55.4C84.1,238.7,44.8,297.3,91.4,321z" id="B1GVng1plfX"/>
	<path d="M176.1,321c0,0,19.7-0.3,35.7-27c0,0-5.8-32.1-28.4-55.4C183.4,238.7,222.7,297.3,176.1,321z" id="HJ7E2ek6xGQ"/>
	<g id="ryVN3x1peMQ">
		<path id="SyHVneyaxzQ" d="M177.5,350.2l22.1,0.4l22.3,11.5h-45.3C176.7,362.1,174.9,355.5,177.5,350.2z"/>
	</g>
	<g id="SJIV3ek6ef7">
		<path id="B1DN2ey6lfX" d="M90,350.2l-22.1,0.4L46,362.1h44.8C90.8,362.1,92.7,355.5,90,350.2z"/>
	</g>
	<path d="M58.7,325.2c1.4,9.9,3.1,20.2,5,31c-29.8-5.8-42.2-13.5-42.2-13.5c0-11,0.2-21.5,0.6-31.6&#10;&#9;&#9;c0.2-4.2,0.4-8.4,0.7-12.5c5.6-88.6,28.3-137,52.1-163.4c-16,31-29.5,85.9-17.5,180.6C57.9,318.9,58.3,322,58.7,325.2z" id="H1ONnl16xGX"/>
	<path d="M211.8,132.1c-2.4,1.9-5.2,3.9-8.1,5.9c-1.2,0.9-2.5,1.8-3.9,2.7c-17.6,11.9-41.3,24.5-63.8,25.9h-0.6h-1.1&#10;&#9;&#9;c-22.6-1.2-46.4-13.8-64.2-25.8c-1.4-0.9-2.8-1.9-4.1-2.8c-2.9-2-5.6-4-8.1-5.9c11.4-14,25.5-24.8,38.5-32.7&#10;&#9;&#9;c12-7.3,24.7-13.2,38-17.6v-0.2l0.4,0.1l0.4-0.1v0.2l0.7,0.2c13,4.4,25.6,10.3,37.4,17.4C186.3,107.2,200.4,118,211.8,132.1z" id="rJKV3gyagzX"/>
	<path d="M211.5,325.2c-1.4,9.9-3.1,20.2-5.1,31c29.8-5.8,42.2-13.5,42.2-13.5c0-11-0.2-21.5-0.6-31.6&#10;&#9;&#9;c-0.2-4.2-0.4-8.4-0.7-12.5c-5.6-88.6-28.4-137-52.1-163.4c16,31,29.5,85.9,17.5,180.6C212.4,318.9,212,322,211.5,325.2z" id="BkqNhlypxGQ"/>
	<rect x="96.5" y="62.2" width="75" height="19.2" id="rkj4nxJ6gfQ"/>
	<path d="M144.7,21.8c-6.9-2.7-14.6-2.7-21.5,0l0,0C104.5,29,92.2,47,92.2,67v39.2c0,4.7,2.2,9.2,6,12l25,18.8&#10;&#9;&#9;c6.4,4.8,15.2,4.8,21.6,0l25-18.8c3.8-2.8,6-7.3,6-12V67C175.8,47,163.4,29,144.7,21.8z M124.9,79.6l-14.5-1.5&#10;&#9;&#9;c-1.4,0-2.8-0.4-4-1.1l-3.9-2.5c-2.2-1.4-3.5-3.7-3.5-6.3c0-0.9,0.8-1.7,1.7-1.7l0,0h27.1L124.9,79.6z M165.3,74.5l-3.9,2.5&#10;&#9;&#9;c-1.2,0.8-2.6,1.1-4,1.1l-14.5,1.5L140,66.5h27.1c0.9,0,1.7,0.7,1.7,1.7l0,0C168.8,70.7,167.5,73.1,165.3,74.5z" id="ry3V2lJTxfm"/>
	<path d="M144.7,21.8c-4.8-1.8-9.9-2.4-15-1.7c2.2,0.3,4.4,0.9,6.5,1.7c18.5,7.1,30.7,24.8,30.9,44.7l0,0&#10;&#9;&#9;c0.9,0,1.7,0.7,1.7,1.7l0,0c0,1.7-0.6,3.4-1.7,4.7v33.3c0,4.7-2.2,9.2-6,12l-25,18.8c-1.9,1.5-4.2,2.5-6.5,3.1&#10;&#9;&#9;c5.2,1.3,10.7,0.1,15-3.1l25-18.8c3.8-2.8,6-7.3,6-12V67C175.6,47,163.3,29.1,144.7,21.8z" id="rkTNnlJpgfX"/>
	<path d="M123.2,21.8c4.8-1.8,9.9-2.4,15-1.7c-2.2,0.3-4.4,0.9-6.5,1.7c-18.5,7.1-30.8,24.8-31,44.7l0,0&#10;&#9;&#9;c-0.9,0-1.7,0.8-1.7,1.7l0,0c0,1.7,0.6,3.4,1.7,4.7v33.3c0,4.7,2.2,9.2,6,12l25,18.8c1.9,1.5,4.2,2.5,6.5,3.1&#10;&#9;&#9;c-5.2,1.3-10.7,0.1-15-3.1l-25-18.8c-3.8-2.8-6-7.3-6-12V67C92.2,47,104.5,29.1,123.2,21.8z" id="ry0NhxypeGQ"/>
	<path d="M175.7,53.7h-12.1c-12.2,0-22.1-9.9-22.1-22.1V23c-2.5-0.6-5-7-7.5-7s-5.1,6.4-7.6,7v8.6&#10;&#9;&#9;c0,12.2-9.9,22.1-22,22.1H92.1c-0.8,3.6-1.2,7.2-1.2,10.9v18l17.8,3.7c10.3,2.1,17.6,11.2,17.6,21.7v29c2.4,1.1,5,7.6,7.6,7.6&#10;&#9;&#9;s5.2-6.6,7.5-7.6v-29c0-10.5,7.4-19.5,17.6-21.7l17.8-3.7v-18C176.9,60.9,176.5,57.3,175.7,53.7z M124.6,77.5L109.7,76&#10;&#9;&#9;c-1.4,0-2.9-0.4-4.1-1.2l-4.1-2.6c-2.2-1.4-3.6-3.9-3.6-6.5c0-1,0.8-1.7,1.7-1.8h27.9L124.6,77.5z M166.3,72.3l-4.1,2.6&#10;&#9;&#9;c-1.2,0.8-2.7,1.1-4.1,1.1l-14.9,1.6l-3-13.5h27.9c1,0,1.7,0.8,1.7,1.8C169.9,68.4,168.5,70.9,166.3,72.3z" id="rk1Bhg1aef7"/>
	<path d="M169.9,65.8c0-1-0.8-1.7-1.7-1.8h-27.9l0.5,2.4h26.4c0.9,0,1.7,0.7,1.7,1.7l0,0c0,0.7-0.1,1.3-0.3,2&#10;&#9;&#9;C169.4,68.9,169.9,67.4,169.9,65.8z" id="ByxSnx1TgMX"/>
	<path d="M98,65.8c0,1.5,0.5,3.1,1.4,4.3c-0.2-0.7-0.3-1.3-0.3-2c0-0.9,0.8-1.7,1.7-1.7l0,0h26.4l0.5-2.4h-28&#10;&#9;&#9;C98.7,64,98,64.8,98,65.8L98,65.8z" id="By-S2xkTgfQ"/>
	<path d="M140.2,65.2l3,13.5l14.9-1.5c1.4,0,2.9-0.4,4.1-1.2l4.1-2.5c2.2-1.4,3.6-3.8,3.6-6.5c0-0.1,0-0.2-0.1-0.3&#10;&#9;&#9;c-0.3,2.3-1.6,4.4-3.5,5.6l-4.1,2.6c-1.2,0.8-2.7,1.1-4.1,1.1l-14.9,1.6l-3-13.5V65.2z" id="SyfS2lkagzX"/>
	<path d="M109.7,76c-1.4,0-2.9-0.4-4.1-1.2l-4.1-2.6c-2-1.2-3.3-3.3-3.5-5.6c0,0.1,0,0.2,0,0.3c0,2.6,1.4,5.1,3.6,6.5&#10;&#9;&#9;l4,2.6c1.2,0.8,2.6,1.2,4.1,1.2l14.9,1.5l3-13.5v-1.1l-3,13.5" id="SJXB3gJTez7"/>
	<path d="M126.4,104.7c0-10.5-7.4-19.5-17.6-21.7L91,79.3v3.2l17.8,3.7c10.3,2.1,17.6,11.2,17.6,21.7V104.7z" id="S1VB3g16ezQ"/>
	<path d="M133.9,141.3c-2.6,0-5.2-6.6-7.6-7.6v3.2c2.4,1.1,5,7.6,7.6,7.6s5.2-6.6,7.5-7.6v-3.2&#10;&#9;&#9;C139.1,134.7,136.5,141.3,133.9,141.3z" id="rkBHnxkplGm"/>
	<path d="M141.5,104.7v3.2c0-10.5,7.4-19.5,17.6-21.7l17.8-3.7v-3.2L159.1,83C148.8,85.1,141.5,94.2,141.5,104.7z" id="HyUShgy6gfQ"/>
	<g id="S1wH2ey6xfm">
		<path d="M133.9,18.6c2.5,0,5.1,5.5,7.5,7.4v-3c-2.5-0.6-5-7-7.5-7s-5.1,6.4-7.6,7v3C128.9,24,131.4,18.6,133.9,18.6z" id="S1OHne1pxzm"/>
		<path d="M168.1,58.4h8.4c-0.2-1.6-0.5-3.2-0.8-4.7h-12.1c-7.7,0-14.8-4-18.8-10.5C148.8,52.4,158,58.4,168.1,58.4z" id="rJFr2x16lMX"/>
		<path d="M99.8,58.4c10.1,0,19.3-6,23.3-15.3c-4,6.5-11.1,10.5-18.8,10.5H92.1c-0.3,1.5-0.6,3.1-0.8,4.7L99.8,58.4z" id="H1cH3e1TeGQ"/>
	</g>
	<path d="M175.7,53.7h-12.1c-12.2,0-22.1-9.9-22.1-22.1V23c-2.5-0.6-5-7-7.5-7l0,0v128.5c2.6,0,5.2-6.6,7.5-7.6v-29&#10;&#9;&#9;c0-10.5,7.4-19.5,17.6-21.7l17.8-3.7v-18C176.9,60.9,176.5,57.3,175.7,53.7z M166.3,72.3l-4.1,2.6c-1.2,0.8-2.7,1.1-4.1,1.1&#10;&#9;&#9;l-14.9,1.6l-3-13.5h27.9c1,0,1.7,0.8,1.7,1.8C169.9,68.4,168.5,70.9,166.3,72.3z" id="SJir3lkTgMQ"/>
	<path d="M137.3,28.6c0,1.9-1.5,3.4-3.4,3.4s-3.4-1.5-3.4-3.4s1.5-3.4,3.4-3.4l0,0C135.8,25.2,137.3,26.7,137.3,28.6z" id="SyhH2lkpxGX"/>
	<path d="M133.9,25.2c-1.7,0-3.2,1.3-3.4,3c0.7-1.9,2.7-2.8,4.6-2.2c1,0.4,1.8,1.2,2.2,2.2&#10;&#9;&#9;C137.1,26.5,135.6,25.2,133.9,25.2z" id="Bkar3g1agz7"/>
	<path d="M133.9,31.2c1.7,0,3.2-1.3,3.4-3c0,0.1,0,0.3,0,0.4c-0.1,1.9-1.7,3.4-3.6,3.2c-1.8-0.1-3.2-1.5-3.2-3.2&#10;&#9;&#9;c0-0.1,0-0.3,0-0.4C130.7,30,132.2,31.3,133.9,31.2z" id="S1AS2gkaxfm"/>
	<path d="M137.3,46c0,1.9-1.5,3.4-3.4,3.4s-3.4-1.5-3.4-3.4s1.5-3.4,3.4-3.4l0,0C135.8,42.6,137.3,44.1,137.3,46&#10;&#9;&#9;L137.3,46z" id="BkJ82gkalfm"/>
	<path d="M133.9,42.5c-1.7,0-3.2,1.3-3.4,3c0.7-1.9,2.7-2.8,4.6-2.2c1,0.4,1.8,1.2,2.2,2.2&#10;&#9;&#9;C137.1,43.8,135.6,42.5,133.9,42.5z" id="ByeIhgkaezQ"/>
	<path d="M133.9,48.6c1.7,0,3.2-1.3,3.4-3c0,0.1,0,0.3,0,0.4c0.1,1.9-1.4,3.5-3.2,3.6c-1.9,0.1-3.5-1.4-3.6-3.2&#10;&#9;&#9;c0-0.1,0-0.2,0-0.4c0-0.1,0-0.3,0-0.4C130.7,47.3,132.2,48.6,133.9,48.6z" id="SkZU2e1plMX"/>
	<path d="M137.3,63.3c0,1.9-1.5,3.4-3.4,3.4s-3.4-1.5-3.4-3.4s1.5-3.4,3.4-3.4l0,0C135.8,59.9,137.3,61.4,137.3,63.3&#10;&#9;&#9;L137.3,63.3z" id="SJzI2lkTgfm"/>
	<path d="M133.9,59.9c-1.7,0-3.2,1.3-3.4,3c0.7-1.9,2.8-2.8,4.6-2.1c1,0.4,1.8,1.2,2.1,2.1&#10;&#9;&#9;C137.1,61.2,135.6,59.9,133.9,59.9z" id="H17UnekpxMX"/>
	<path d="M133.9,65.9c1.7,0,3.2-1.3,3.4-3c0,0.1,0,0.3,0,0.4c0.1,1.9-1.4,3.5-3.2,3.6c-1.9,0.1-3.5-1.4-3.6-3.2&#10;&#9;&#9;c0-0.1,0-0.2,0-0.4c0-0.1,0-0.3,0-0.4C130.7,64.7,132.2,66,133.9,65.9z" id="B14I2gkpxGX"/>
	<path d="M137.3,80.7c0,1.9-1.5,3.4-3.4,3.4s-3.4-1.5-3.4-3.4s1.5-3.4,3.4-3.4l0,0C135.8,77.2,137.3,78.7,137.3,80.7&#10;&#9;&#9;C137.3,80.6,137.3,80.6,137.3,80.7z" id="SkS8nlkTefm"/>
	<path d="M133.9,77.2c-1.7,0-3.2,1.3-3.4,3c0.7-1.9,2.8-2.8,4.6-2.1c1,0.4,1.8,1.2,2.1,2.1&#10;&#9;&#9;C137.1,78.5,135.6,77.2,133.9,77.2z" id="ryIUnxkalGX"/>
	<path d="M133.9,83.3c1.7,0,3.2-1.3,3.4-3c0,0.1,0,0.3,0,0.4c-0.1,1.9-1.7,3.4-3.6,3.2c-1.8-0.1-3.2-1.5-3.2-3.2&#10;&#9;&#9;c0-0.1,0-0.3,0-0.4C130.7,82,132.2,83.3,133.9,83.3z" id="S1wL3ey6lM7"/>
	<path d="M137.3,98c0,1.9-1.5,3.4-3.4,3.4s-3.4-1.5-3.4-3.4s1.5-3.4,3.4-3.4l0,0C135.8,94.5,137.3,96.1,137.3,98&#10;&#9;&#9;L137.3,98z" id="Bk_83eJalzX"/>
	<path d="M133.9,94.6c-1.7,0-3.2,1.3-3.4,3c0.7-1.9,2.8-2.8,4.6-2.1c1,0.4,1.8,1.2,2.1,2.1&#10;&#9;&#9;C137.1,95.8,135.6,94.6,133.9,94.6z" id="BytL2g1alf7"/>
	<path d="M133.9,100.6c1.7,0,3.2-1.3,3.4-3c0,0.1,0,0.3,0,0.4c-0.1,1.9-1.7,3.4-3.6,3.2c-1.8-0.1-3.2-1.5-3.2-3.2&#10;&#9;&#9;c0-0.1,0-0.3,0-0.4C130.7,99.3,132.2,100.6,133.9,100.6z" id="B1c83xypgG7"/>
	<path d="M137.3,115.3c0,1.9-1.5,3.4-3.4,3.4s-3.4-1.5-3.4-3.4s1.5-3.4,3.4-3.4l0,0&#10;&#9;&#9;C135.8,111.9,137.3,113.4,137.3,115.3L137.3,115.3z" id="BJoInxJaxzm"/>
	<path d="M133.9,111.9c-1.7,0-3.2,1.3-3.4,3c0.7-1.9,2.7-2.8,4.6-2.2c1,0.4,1.8,1.2,2.2,2.2&#10;&#9;&#9;C137.1,113.2,135.6,111.9,133.9,111.9z" id="rJ2I2ekTlzm"/>
	<path d="M133.9,118c1.7,0,3.2-1.3,3.4-3c0,0.1,0,0.3,0,0.4c0.1,1.9-1.4,3.5-3.2,3.6c-1.9,0.1-3.5-1.4-3.6-3.2&#10;&#9;&#9;c0-0.1,0-0.2,0-0.4c0-0.1,0-0.3,0-0.4C130.7,116.7,132.2,118,133.9,118z" id="SyaInxyTxf7"/>
	<path d="M137.3,132.7c0,1.9-1.5,3.4-3.4,3.4s-3.4-1.5-3.4-3.4s1.5-3.4,3.4-3.4l0,0&#10;&#9;&#9;C135.8,129.2,137.3,130.8,137.3,132.7L137.3,132.7z" id="rkRUnl1alzX"/>
	<path d="M133.9,129.2c-1.7,0-3.2,1.3-3.4,3c0.7-1.9,2.8-2.8,4.6-2.1c1,0.4,1.8,1.2,2.1,2.1&#10;&#9;&#9;C137.1,130.5,135.6,129.2,133.9,129.2z" id="r1yv3e1pgMm"/>
	<path d="M133.9,135.3c1.7,0,3.2-1.3,3.4-3c0,0.1,0,0.3,0,0.4c0.1,1.9-1.4,3.5-3.2,3.6c-1.9,0.1-3.5-1.4-3.6-3.2&#10;&#9;&#9;c0-0.1,0-0.2,0-0.4c0-0.1,0-0.3,0-0.4C130.7,134,132.2,135.3,133.9,135.3z" id="SJxv3eJagfX"/>
	<path d="M121.4,98.6c-0.7,0-1.2,0.6-1.2,1.2v21.8c-0.1,0.7,0.4,1.2,1.1,1.3s1.2-0.4,1.3-1.1c0-0.1,0-0.1,0-0.2V99.9&#10;&#9;&#9;C122.6,99.2,122.1,98.7,121.4,98.6z" id="HJ-vheyaxMQ"/>
	<path d="M113.6,98.6c-0.7,0-1.2,0.6-1.2,1.2v16.6c0,0.7,0.5,1.2,1.2,1.2s1.2-0.5,1.2-1.2l0,0V99.9&#10;&#9;&#9;C114.8,99.2,114.3,98.7,113.6,98.6z" id="rkMwhlkplz7"/>
	<path d="M105.9,98.6c-0.7,0-1.2,0.6-1.2,1.2v11.3c-0.1,0.7,0.4,1.2,1.1,1.3s1.2-0.4,1.3-1.1c0-0.1,0-0.1,0-0.2V99.9&#10;&#9;&#9;C107.1,99.2,106.5,98.7,105.9,98.6z" id="r1Qwnl16efX"/>
	<path d="M146.4,98.6c0.7,0,1.2,0.6,1.2,1.2v21.8c0.1,0.7-0.4,1.2-1.1,1.3c-0.7,0.1-1.2-0.4-1.3-1.1c0-0.1,0-0.1,0-0.2&#10;&#9;&#9;V99.9C145.2,99.2,145.7,98.7,146.4,98.6z" id="BJVD2gJ6gMX"/>
	<path d="M154.2,98.6c0.7,0,1.2,0.6,1.2,1.2v16.6c0.1,0.7-0.4,1.2-1.1,1.3s-1.2-0.4-1.3-1.1c0-0.1,0-0.1,0-0.2V99.9&#10;&#9;&#9;C153,99.2,153.5,98.7,154.2,98.6z" id="rJHw2xJTxzX"/>
	<path d="M162,98.6c0.7,0,1.2,0.6,1.2,1.2v11.3c0,0.7-0.5,1.2-1.2,1.2s-1.2-0.5-1.2-1.2V99.9&#10;&#9;&#9;C160.8,99.2,161.3,98.7,162,98.6z" id="ByIvhxk6xGm"/>
	<path d="M140.2,187.2c0,0-3.5-2.9-9.9-0.7C130.3,186.5,136.6,182.7,140.2,187.2z" id="HJDvnlk6gGQ"/>
	<path d="M140.1,193.2c0,0-3.5-2.9-9.9-0.7C130.2,192.5,136.5,188.7,140.1,193.2z" id="SyuDng1aez7"/>
	<path d="M140,199.2c0,0-3.5-2.9-9.9-0.7C130.1,198.4,136.4,194.7,140,199.2z" id="HyFvhgJ6lM7"/>
	<path d="M139.9,205.1c0,0-3.5-2.9-9.9-0.7C130,204.4,136.3,200.6,139.9,205.1z" id="rJ9vhxyTxMX"/>
	<g id="ryjPnxJ6lz7_BkVzgaezX" data-animator-group="true" data-animator-type="0"><g id="ryjPnxJ6lz7">
		<path d="M138.2,169.4l-5.5-0.2c-1.2-0.1-2.2,1.2-2.3,2.7l-1.5,55.6l9.9,0.4l1.5-55.6&#10;&#9;&#9;&#9;C140.6,170.9,139.6,169.6,138.2,169.4z" id="rkhw2gkaeM7"/>
		<polygon points="149.1,338 132.3,364 116.4,335.8 126,224 143.3,225.1 &#9;&#9;" id="Bypw3eyagMQ"/>
		<polygon points="134.6,224.4 133,328.4 149.1,338 143.2,224.6 &#9;&#9;" id="S1CD2eyaxGX"/>
		<polygon points="133,328.4 116.4,335.8 132.3,364 149.1,338 &#9;&#9;" id="SkJO3xk6eGX"/>
		<polygon points="133,328.4 132.3,364 149.1,338 &#9;&#9;" id="HJg_hgyTxzm"/>
		<path d="M139.7,211.1c0,0-3.5-2.9-9.9-0.7C129.9,210.4,136.2,206.6,139.7,211.1z" id="S1Wdhe1aezX"/>
		<path d="M139.5,217.1c0,0-3.5-2.9-9.9-0.7C129.6,216.4,135.9,212.6,139.5,217.1z" id="r1fO3ey6gfX"/>
		<polygon points="111.6,222.1 158.5,223.6 158.6,220.5 160.3,220.6 160,228.2 109.8,226.5 110.1,217.5 111.9,217.6 &#9;&#9;&#10;&#9;&#9;&#9;" id="Sy7dhx1TgzQ"/>
	</g></g>
	<g id="BJVdhgJagG7_Hk_Jg6gGQ" data-animator-group="true" data-animator-type="1"><g id="BJVdhgJagG7">
		<path d="M41.7,195c0,0,17.7,24.5,23.8,23.3s5.1-27.4,22.9-26.8c0,0-16.8-41.7-26.1-39S20.6,177.9,41.7,195z" id="HkHdhlyplfm"/>
		<path d="M64.6,214.1c0,0,2.3-26.9,23.9-27.9c0,0,7.5,2.6,7.5,10.7s-18.4,10.2-21.6,26.8&#10;&#9;&#9;&#9;C74.3,223.7,65.3,224.2,64.6,214.1z" id="BJIungkagzm"/>
		<path d="M112.6,200.2c0,0,20.4-13.6,30-3.6s-15.7,25.9-28.5,16.3S112.6,200.2,112.6,200.2z" id="ByD_2xJpgMX"/>
		<path d="M74.3,223.7c0,0,50.6,7.4,62.1-17.8c0,0,1.6-9.4-40.9-7.4C95.5,198.5,71.3,207.7,74.3,223.7z" id="ryOu2xy6gGm"/>
		<path d="M95.5,198.5c0,0-18.6,9.7-13.1,16.7s52-5.7,42.7-12.9C125.1,202.3,115.4,196.2,95.5,198.5z" id="HkKdnxkTxMX"/>
	</g></g>
	<g id="By9_2gypefQ_rJKhJTeG7" data-animator-group="true" data-animator-type="1"><g id="By9_2gypefQ">
		<path d="M230,193.8c0,0-17.7,24.5-23.8,23.3s-5.1-27.4-22.9-26.8c0,0,16.8-41.7,26.1-39S251,176.8,230,193.8z" id="S1iu2x1TxzQ"/>
		<path d="M207.1,212.9c0,0-2.3-26.9-23.9-27.9c0,0-7.5,2.6-7.5,10.7s18.4,10.2,21.6,26.8&#10;&#9;&#9;&#9;C197.3,222.6,206.3,223.1,207.1,212.9z" id="HJ2_3xkaxzQ"/>
		<path d="M159.2,189.7c0,0-19.4-14.9-29.7-5.6c-10.3,9.3,14,26.9,27.3,18.2S159.2,189.7,159.2,189.7z" id="BJa_2ly6gMQ"/>
		<path d="M196,223.4c0,0-50.8-5.8-55.5-33.1c0,0,0.9-9.6,41.5,3.3C181.9,193.6,203,208.7,196,223.4z" id="ByAdnx1plGX"/>
		<path d="M182.3,194.3c0,0,15.7,13.9,8.7,19.4s-49.1-18.1-38.3-22.9C152.6,190.9,163.5,187.4,182.3,194.3z" id="B1kF3eJalzm"/>
	</g></g>
	<path d="M191.1,126.4c0,0,0.2-19.6,6.9-19.8c6.6-0.2,1,12.6,1,12.6c73.2,1.5,61.4,61.9,61.4,61.9c5.1,3.8,0,7.7,0,7.7&#10;&#9;&#9;c-26.3,7.2-58.5-12.1-58-33.5C202.9,133.8,191.1,126.4,191.1,126.4" id="H1xthxJ6lfX"/>
	
		<ellipse cx="234.4" cy="140.4" rx="11.4" ry="23.6" id="Hk-Yhl16gfX"/>
	<path d="M192.1,118c0.1-2.4,0.6-4.8,1.5-7c1.2-2.8,3.2-5.6,6.3-3.9c5.6,3.2-0.9,12.1-0.9,12.1s5.1,0.2,6.9,0.3&#10;&#9;&#9;c0,0-14.2-0.3-14.2,5.7L192.1,118z" id="ryGY3ey6gzX"/>
	<path d="M191.1,127.2c0,0,11.7,3,15.4,20.2s9.8,37.8,43.8,40.5c0,0,8.4,0.1,9.7-4.3c0,0,3.7,6.3-4.5,7.1&#10;&#9;&#9;s-29.1,2.5-46.9-17.9c0,0-7.1-5-6.9-16.7C202,144.2,199.6,134.6,191.1,127.2z" id="ryXY3eJ6lMX"/>
	<path d="M78.9,125.1c0,0-0.2-19.6-6.8-19.8s-1,12.6-1,12.6c-73.2,1.5-61.4,61.9-61.4,61.9c-5.1,3.8,0,7.7,0,7.7&#10;&#9;&#9;c26.3,7.2,58.5-12.1,57.9-33.5S78.9,125.1,78.9,125.1" id="BkEK3g1alfm"/>
	
		<ellipse cx="35.6" cy="139.2" rx="23.6" ry="11.4" id="rySY3xypgGX"/>
	<path d="M77.9,116.8c-0.1-2.4-0.6-4.8-1.5-7c-1.2-2.8-3.2-5.6-6.3-3.9C64.5,109,71,118,71,118s-5.1,0.2-6.9,0.3&#10;&#9;&#9;c0,0,14.2-0.3,14.2,5.7L77.9,116.8z" id="BkLY3xyaxz7"/>
	<path d="M78.9,125.9c0,0-11.7,3-15.4,20.2c-3.7,17.2-9.8,37.8-43.8,40.5c0,0-8.4,0.1-9.7-4.3c0,0-3.7,6.3,4.5,7.1&#10;&#9;&#9;s29.1,2.5,46.9-17.9c0,0,6.9-5.8,6.7-17.5C67.9,142.2,70.4,133.3,78.9,125.9z" id="rJvK2gyTgGQ"/>
	<g id="HkuKnlJpezQ_SyWUeaezQ" data-animator-group="true" data-animator-type="2"><path d="M160.3,220.6l-1.6-0.1l-0.1,3.1l-19.5-0.6l1.3-50.7c0.2-1.4-0.8-2.7-2.1-2.9l-5.5-0.2&#10;&#9;&#9;c-1.2-0.1-2.2,1.2-2.3,2.7l-1.3,50.8l-17.6-0.6l0.3-4.5l-1.8-0.1l-0.3,9l15.9,0.5l-9.3,108.8l15.9,28.2l16.8-26.1l-5.7-110.3&#10;&#9;&#9;l16.6,0.6L160.3,220.6z" id="HkuKnlJpezQ"/></g>
</g>
<script>(function(){var a=document.querySelector('#BysMngkTxfm'),b=a.querySelectorAll('style'),c=function(d){b.forEach(function(f){var g=f.textContent;g&amp;&amp;(f.textContent=g.replace(/transform-box:[^;\r\n]*/gi,'transform-box: '+d))})};c('initial'),window.requestAnimationFrame(function(){return c('fill-box')})})();</script></svg>