<svg version="1.1" id="SkMzTAEZQ" xmlns="http://www.w3.org/2000/svg" xmlns:xlink="http://www.w3.org/1999/xlink" x="0px" y="0px" viewBox="-30 0 190 222" style="enable-background:new 0 0 147.6 222.3;" xml:space="preserve"><style>@-webkit-keyframes HJgfGaREWm_BJGrR04W7_Animation{0%{-webkit-transform: scale(1, 1);transform: scale(1, 1);}74%{-webkit-transform: scale(1, 1);transform: scale(1, 1);}76%{-webkit-transform: scale(1.1, 1.1);transform: scale(1.1, 1.1);}80%{-webkit-transform: scale(0, 0);transform: scale(0, 0);}100%{-webkit-transform: scale(0, 0);transform: scale(0, 0);}}@keyframes HJgfGaREWm_BJGrR04W7_Animation{0%{-webkit-transform: scale(1, 1);transform: scale(1, 1);}74%{-webkit-transform: scale(1, 1);transform: scale(1, 1);}76%{-webkit-transform: scale(1.1, 1.1);transform: scale(1.1, 1.1);}80%{-webkit-transform: scale(0, 0);transform: scale(0, 0);}100%{-webkit-transform: scale(0, 0);transform: scale(0, 0);}}@-webkit-keyframes r1LgzMTRNW7_HyUnp0NWQ_Animation{10%{-webkit-transform: scale(0, 0);transform: scale(0, 0);}12%{-webkit-transform: scale(1, 1);transform: scale(1, 1);}14.00%{-webkit-transform: scale(0.95, 0.95);transform: scale(0.95, 0.95);}80%{-webkit-transform: scale(1, 1);transform: scale(1, 1);}0%{-webkit-transform: scale(0, 0);transform: scale(0, 0);}100%{-webkit-transform: scale(1, 1);transform: scale(1, 1);}}@keyframes r1LgzMTRNW7_HyUnp0NWQ_Animation{10%{-webkit-transform: scale(0, 0);transform: scale(0, 0);}12%{-webkit-transform: scale(1, 1);transform: scale(1, 1);}14.00%{-webkit-transform: scale(0.95, 0.95);transform: scale(0.95, 0.95);}80%{-webkit-transform: scale(1, 1);transform: scale(1, 1);}0%{-webkit-transform: scale(0, 0);transform: scale(0, 0);}100%{-webkit-transform: scale(1, 1);transform: scale(1, 1);}}@-webkit-keyframes S1rGfpCNZ7_rJMFa0NW7_Animation{0%{-webkit-transform: rotate(-3deg);transform: rotate(-3deg);}20%{-webkit-transform: rotate(0deg);transform: rotate(0deg);}40%{-webkit-transform: rotate(-3deg);transform: rotate(-3deg);}60%{-webkit-transform: rotate(0deg);transform: rotate(0deg);}80%{-webkit-transform: rotate(-3deg);transform: rotate(-3deg);}100%{-webkit-transform: rotate(-3deg);transform: rotate(-3deg);}}@keyframes S1rGfpCNZ7_rJMFa0NW7_Animation{0%{-webkit-transform: rotate(-3deg);transform: rotate(-3deg);}20%{-webkit-transform: rotate(0deg);transform: rotate(0deg);}40%{-webkit-transform: rotate(-3deg);transform: rotate(-3deg);}60%{-webkit-transform: rotate(0deg);transform: rotate(0deg);}80%{-webkit-transform: rotate(-3deg);transform: rotate(-3deg);}100%{-webkit-transform: rotate(-3deg);transform: rotate(-3deg);}}@-webkit-keyframes r1bGz60Ebm_By57pC4WX_Animation{0%{-webkit-transform: scale(0, 0);transform: scale(0, 0);}4%{-webkit-transform: scale(1.1, 1.1);transform: scale(1.1, 1.1);}6%{-webkit-transform: scale(1, 1);transform: scale(1, 1);}80%{-webkit-transform: scale(1, 1);transform: scale(1, 1);}100%{-webkit-transform: scale(1, 1);transform: scale(1, 1);}}@keyframes r1bGz60Ebm_By57pC4WX_Animation{0%{-webkit-transform: scale(0, 0);transform: scale(0, 0);}4%{-webkit-transform: scale(1.1, 1.1);transform: scale(1.1, 1.1);}6%{-webkit-transform: scale(1, 1);transform: scale(1, 1);}80%{-webkit-transform: scale(1, 1);transform: scale(1, 1);}100%{-webkit-transform: scale(1, 1);transform: scale(1, 1);}}#SkMzTAEZQ *{-webkit-animation-duration: 5s;animation-duration: 5s;-webkit-animation-iteration-count: infinite;animation-iteration-count: infinite;-webkit-animation-timing-function: cubic-bezier(0, 0, 1, 1);animation-timing-function: cubic-bezier(0, 0, 1, 1);}#SkMfM6REb7{fill: #F1727E;}#Bk7Gz6CEZ7{fill: #F48E95;}#BkEfGpCEbX{fill: #F7B1B9;}#ryUfz6RNW7{fill: #F1727E;}#SyDMMaRNWQ{fill: #F1727E;}#SkOfGpAN-X{fill: #F48E95;}#BJYGzp0VWQ{fill: #231F20;}#r1qMGTAEbQ{fill: #231F20;}#BkjzM6REZQ{fill: #231F20;}#HJhMM604bm{fill: #F1727E;}#BkTGGpREZQ{fill: #F1727E;}#B1CfzpANb7{fill: #FFFFFF;}#Skkgzza0VWm{fill: #2183B4;}#HyxefM60VbQ{fill: #FFFFFF;}#BJ-xGM6AEW7{fill: #FFFFFF;}#SJMxMMaR4Z7{fill: #FFFFFF;}#BJ7lzMpRVb7{fill: #FFFFFF;}#SkNlGfTRVZX{fill: #231F20;}#ryrgMzTCNbX{fill: #231F20;}#rJDxfzpRV-Q{fill: #EF2946;}#SJdlGGpCVZQ{fill: #FFFFFF;}#HyKezM6RNZX{fill: #2183B4;}#B19eMGTAVZQ{fill: #EF2946;}#BJolzMT0VZQ{fill: #FFFFFF;}#r1bGz60Ebm_By57pC4WX{-webkit-animation-name: r1bGz60Ebm_By57pC4WX_Animation;animation-name: r1bGz60Ebm_By57pC4WX_Animation;-webkit-transform-origin: 50% 50%;transform-origin: 50% 50%;transform-box: fill-box;-webkit-transform: scale(0, 0);transform: scale(0, 0);}#S1rGfpCNZ7_rJMFa0NW7{-webkit-animation-name: S1rGfpCNZ7_rJMFa0NW7_Animation;animation-name: S1rGfpCNZ7_rJMFa0NW7_Animation;-webkit-transform-origin: 50% 50%;transform-origin: 50% 50%;transform-box: fill-box;-webkit-transform: rotate(-3deg);transform: rotate(-3deg);}#r1LgzMTRNW7_HyUnp0NWQ{-webkit-animation-name: r1LgzMTRNW7_HyUnp0NWQ_Animation;animation-name: r1LgzMTRNW7_HyUnp0NWQ_Animation;-webkit-transform-origin: 50% 50%;transform-origin: 50% 50%;transform-box: fill-box;-webkit-transform: scale(0, 0);transform: scale(0, 0);}#HJgfGaREWm_BJGrR04W7{-webkit-animation-name: HJgfGaREWm_BJGrR04W7_Animation;animation-name: HJgfGaREWm_BJGrR04W7_Animation;-webkit-transform-origin: 50% 100%;transform-origin: 50% 100%;transform-box: fill-box;-webkit-transform: scale(1, 1);transform: scale(1, 1);}</style>

<title>Asset 35</title>
<g id="HJgfGaREWm_BJGrR04W7" data-animator-group="true" data-animator-type="2"><g id="HJgfGaREWm">
	<g id="r1bGz60Ebm_By57pC4WX" data-animator-group="true" data-animator-type="2"><g id="r1bGz60Ebm">
		<path d="M46.5,190.3c0.6-1.3,0.5-2.9-0.1-4.1c-0.7-1.3-1.6-2.4-2.6-3.4c-2.3-2.5-5.1-5.1-8.5-5.1&#10;&#9;&#9;&#9;c-3.8,0-6.7,3.5-8.5,6.9c-1.5,2.6-2.4,5.5-2.8,8.5c-0.3,3,0.4,6,2,8.6c0.7,1,1.6,1.9,2.7,2.4c1.8,0.7,3.7,0.8,5.6,0.3&#10;&#9;&#9;&#9;c4.5-0.8,8.7-2.6,12.4-5.2L46.5,190.3z" id="SkMfM6REb7"/>
		<path d="M96.9,213.3c-0.2,2.3-1.9,4.1-4.2,4.3c-2.8,0.8-5.7,1.4-8.5,1.9c-10.5,1.7-21.3,1.3-31.7-1.2&#10;&#9;&#9;&#9;c-1.9-0.5-3.9-1-5.8-1.6c-3.3-1.1-6.8-2.6-8.6-5.5c-2.3-3.9-1.1-8.8,0.3-13.1c3.8-11.5,8.4-22.6,13.8-33.4c2-3.9,4.1-7.9,7.3-11&#10;&#9;&#9;&#9;l22.8,3.5C96,172.4,101.4,193.3,96.9,213.3z" id="Bk7Gz6CEZ7"/>
		<path d="M84.2,219.5c-10.5,1.7-21.3,1.3-31.7-1.2c-2.5-12.5,0.2-25.5,7.5-36c3.8-5.3,10.1-10.2,16.3-8.2&#10;&#9;&#9;&#9;c5.3,1.7,8,7.5,9.1,13C87.7,197.8,86.4,208.7,84.2,219.5z" id="BkEfGpCEbX"/>
		<g id="S1rGfpCNZ7_rJMFa0NW7" data-animator-group="true" data-animator-type="1"><g id="S1rGfpCNZ7">
			<path d="M98.5,82.2c9.5-5.2,13.9-34.8,15.4-41.5c2-9,3.5-18.2,2-27.3c-0.6-3.9-1.9-7.8-4.8-10.4&#10;&#9;&#9;&#9;&#9;c-3.1-2.6-7.3-3.5-11.2-2.6c-3.9,1-7.4,3.1-10.1,6c-5.4,5.6-8.3,13.2-9.4,20.9c-1.4,10.5-0.7,21.1,2,31.4&#10;&#9;&#9;&#9;&#9;c1.6,6.1,4.4,22.1,11.9,24.1C95.6,83.1,97.2,82.9,98.5,82.2z" id="ryUfz6RNW7"/>
			<path d="M57.3,82.1c-13.5-5.4-21.7-19.8-28.2-32.2C23.2,38.7,11.5,7.6,34.7,6.6c5-0.2,9.7,2.5,13,6.2s5.3,8.4,7,13&#10;&#9;&#9;&#9;&#9;C58.4,36.3,61.2,47,63,58c1,5.5,8.2,29-4.3,24.6C58.2,82.4,57.8,82.3,57.3,82.1z" id="SyDMMaRNWQ"/>
			<path d="M95.9,161.8c12.5-2.5,24-8,31.5-18.2c8.2-11.2,9.6-26.6,4.6-39.5S115.9,81,103,76c-10.4-4-21.8-4.9-32.9-4.3&#10;&#9;&#9;&#9;&#9;c-12.7,0.6-25.5,2.9-36.9,8.5s-21.5,14.5-26.8,26c-2.6,5.3-3.8,11.1-3.4,17c0.9,10.4,8,19.6,16.7,25.4&#10;&#9;&#9;&#9;&#9;c9.9,6.6,21.4,9.7,32.9,12.2C65.4,163.4,81.4,164.6,95.9,161.8z" id="SkOfGpAN-X"/>
			<path d="M74.8,126.1c-1.5-0.3-3-0.1-4.4,0.4c-1-0.3-1.4,1.3-0.4,1.8c0.4,0.2,0.8,0.3,1.2,0.3c0.5,0.1,1,0.2,1.5,0.2&#10;&#9;&#9;&#9;&#9;c0.3,0,0.5-0.1,0.7-0.4c0.5-0.2,1-0.4,1.5-0.7C75.6,127.4,75.7,126.3,74.8,126.1z" id="BJYGzp0VWQ"/>
			<path d="M70.8,128.2c0.7,2.9,0.7,5.9-0.1,8.8c-0.4,1.3-0.9,3-2.4,3.4c-1.7,0.4-3.4-1.1-4.5-2.1&#10;&#9;&#9;&#9;&#9;c-0.8-0.8-2.1,0.5-1.3,1.3c2.5,2.3,6.4,4.2,8.7,0.6s2.2-8.6,1.2-12.4C72.2,126.6,70.5,127.1,70.8,128.2L70.8,128.2z" id="r1qMGTAEbQ"/>
			<path d="M72.1,128.9c-0.4,4.2,0.4,9.7,3.8,12.6c2.4,2,6.4,1.7,7.7-1.5c0.4-1.1-1.3-1.5-1.7-0.5&#10;&#9;&#9;&#9;&#9;c-0.6,1.2-2.1,1.8-3.4,1.4c-1.3-0.5-2.4-1.6-3-2.9c-1.4-2.8-2-6-1.6-9.1C74,127.8,72.2,127.8,72.1,128.9z" id="BkjzM6REZQ"/>
			<path d="M114.2,132c-4.6-1.9-11-2.5-14.2,2.2c-2,2.8-1.4,6.7,1.4,8.7c0.9,0.6,1.9,1,3,1.1c2.6,0.3,11.3-1.1,8.9-5.6&#10;&#9;&#9;&#9;&#9;c-1.8-3.3-9.9-3.3-8.8,1.6c0.2,1.1,2,0.7,1.7-0.5c-0.5-2.4,3.8-1.7,4.8-0.9c2.1,1.6-0.8,2.8-2.1,3.2c-2.4,0.7-5.9,1.1-7.5-1.4&#10;&#9;&#9;&#9;&#9;c-1.9-2.9,0.2-6.2,3-7.4c3.1-1.3,6.4-0.5,9.4,0.7C114.8,134.2,115.2,132.4,114.2,132L114.2,132z" id="HJhMM604bm"/>
			<path d="M27.9,133.2c2.2-2.2,6.3-2.3,9.2-1.6c3.9,0.9,5.5,4.6,2.3,7.5c-2,1.8-6.4,3.4-8.9,1.6&#10;&#9;&#9;&#9;&#9;c-2.1-1.5-0.5-3.3,1.4-3.7c1.7-0.3,3.4,0.3,4.6,1.5c0.8,0.8,2.1-0.5,1.3-1.3c-1.5-1.5-3.7-2.3-5.8-2c-1.9,0.2-4,1.3-4.2,3.4&#10;&#9;&#9;&#9;&#9;c-0.5,5.5,7.4,4.9,10.5,3.4c4.2-2,7-7.4,2.5-10.8c-2.1-1.6-5-1.8-7.6-1.7c-2.4-0.1-4.7,0.8-6.4,2.4&#10;&#9;&#9;&#9;&#9;C25.9,132.8,27.1,134,27.9,133.2L27.9,133.2z" id="BkTGGpREZQ"/>
			<path d="M120.5,88.7L120.5,88.7c3.5-6.8,8.1-11.9,13.1-14.5l4.8-2.5c1.4-0.8,2.8,1.6,2.4,4.2l0,0&#10;&#9;&#9;&#9;&#9;c-0.4,2.4-1.5,4.2-2.8,4.8l-5.5,2.5h2.4c1.4,0,2.3,2.4,1.8,4.6l0,0c-0.1,0.9-0.6,1.6-1.4,2l-12.9,4.5&#10;&#9;&#9;&#9;&#9;C120.5,94.9,119.3,91.1,120.5,88.7z" id="B1CfzpANb7"/>
			<path d="M132,104.1C127,91.2,115.9,81,103,76c-10.4-4-21.8-4.8-32.9-4.3c-12.7,0.6-25.5,2.9-37,8.5&#10;&#9;&#9;&#9;&#9;S11.6,94.7,6.3,106.2c-2.6,5.3-3.8,11.1-3.4,17c0.9,10.4,8,19.6,16.7,25.4c0,0,25.3-1.4,34.6-18s26-17.2,34.3-1.1&#10;&#9;&#9;&#9;&#9;s38.9,14.1,38.9,14.1C135.6,132.4,137,117,132,104.1z M34.4,128.7c-11.6-0.4-16.6-10.6-19.3-19.5c0,0,24-5.3,36.5,9.2&#10;&#9;&#9;&#9;&#9;C51.7,118.4,46,129.1,34.4,128.7z M109.5,128.7c-11.6,0.4-17.2-10.3-17.2-10.3c12.5-14.5,36.5-9.2,36.5-9.2&#10;&#9;&#9;&#9;&#9;C126.1,118.2,121.1,128.3,109.5,128.7z" id="Skkgzza0VWm"/>
			<path d="M78.3,92.3c0,1.1-0.3,2.3-0.8,3.3c-0.6,1-1.3,1.9-2.2,2.6c0.3,0.5,0.6,1,0.9,1.5c0.3,0.6,0.6,1.2,0.8,1.8&#10;&#9;&#9;&#9;&#9;c0.2,0.6,0.4,1.2,0.6,1.9c0.1,0.6,0.2,1.1,0.2,1.7c0,0.5-0.1,1.1-0.4,1.5c-0.3,0.5-0.8,0.7-1.4,0.7c-0.6,0-1.1-0.3-1.4-0.8&#10;&#9;&#9;&#9;&#9;c-0.4-0.6-0.8-1.2-1.1-1.9c-0.3-0.7-0.6-1.5-0.8-2.2c-0.2-0.6-0.4-1.2-0.7-1.8c-0.3,0.1-0.6,0.2-0.9,0.4s-0.6,0.3-0.9,0.4&#10;&#9;&#9;&#9;&#9;c0,0.4,0,0.9-0.1,1.6c0,0.7-0.1,1.3-0.3,2c-0.1,0.6-0.4,1.2-0.7,1.7c-0.2,0.5-0.7,0.7-1.2,0.7c-0.5,0-1.1-0.2-1.3-0.7&#10;&#9;&#9;&#9;&#9;c-0.3-0.5-0.6-1.1-0.7-1.7c-0.1-0.7-0.2-1.3-0.2-2c0-0.7,0-1.2,0-1.6c0-0.8,0-1.7,0.1-2.4s0-1.6,0-2.4s0-1.5,0-2.3s0-1.5,0-2.3&#10;&#9;&#9;&#9;&#9;v-0.7c0-0.3,0-0.6,0-0.8c0-0.3,0.1-0.6,0.1-0.8c0-0.2,0.1-0.4,0.2-0.6c0.3-0.5,0.7-0.8,1.2-1c0.7-0.3,1.4-0.6,2.1-0.9&#10;&#9;&#9;&#9;&#9;c0.7-0.2,1.4-0.4,2.2-0.6c0.5-0.1,1.1-0.2,1.6-0.2c0.8,0,1.6,0.2,2.4,0.5c0.7,0.3,1.2,0.8,1.7,1.3c0.5,0.6,0.8,1.3,1,2&#10;&#9;&#9;&#9;&#9;C78.2,90.8,78.3,91.6,78.3,92.3z M73.4,92.7c0-0.4-0.1-0.7-0.3-1c-0.3-0.3-0.6-0.4-1-0.4c-0.4,0-0.8,0-1.1,0.1&#10;&#9;&#9;&#9;&#9;c-0.3,0.1-0.7,0.3-1,0.4c0.1,1.4,0.1,2.8,0.1,4.1c0.4-0.1,0.8-0.3,1.1-0.5c0.4-0.2,0.7-0.4,1.1-0.7c0.3-0.3,0.6-0.6,0.8-1&#10;&#9;&#9;&#9;&#9;C73.3,93.5,73.4,93.1,73.4,92.7z" id="HyxefM60VbQ"/>
			<path d="M20.4,90.4L20.4,90.4c-3.5-6.8-8.1-11.9-13.1-14.5l-4.8-2.5C1,72.6-0.3,75,0.1,77.6l0,0&#10;&#9;&#9;&#9;&#9;c0.4,2.3,1.5,4.2,2.8,4.8l5.5,2.5H6c-1.4,0-2.3,2.4-1.8,4.6l0,0c0.1,0.9,0.6,1.6,1.4,2L18.5,96C20.4,96.6,21.6,92.8,20.4,90.4z" id="BJ-xGM6AEW7"/>
			<path d="M34.4,128.7c-11.6-0.4-16.6-10.6-19.3-19.5c0,0,24-5.3,36.5,9.2C51.7,118.4,46,129.1,34.4,128.7z" id="SJMxMMaR4Z7"/>
			<path d="M109.5,128.7c-11.6,0.4-17.2-10.3-17.2-10.3c12.5-14.5,36.5-9.2,36.5-9.2&#10;&#9;&#9;&#9;&#9;C126.1,118.2,121.1,128.3,109.5,128.7z" id="BJ7lzMpRVb7"/>
			<path d="M98.1,111.2c0.5,5.6,0.8,14.9,8.4,15.4c3.1,0.2,5-1.8,6.3-4.4c1.6-3.4,2.7-7,3.1-10.8c0.2-1.1-1.7-1.1-1.8,0&#10;&#9;&#9;&#9;&#9;c-0.3,2.7-1,5.4-2.1,8c-1,2.5-2.3,5.6-5.5,5.3c-6.3-0.6-6.2-9.1-6.6-13.6C99.8,110,98,110,98.1,111.2L98.1,111.2z" id="SkNlGfTRVZX"/>
			<path d="M25.5,112.3c0.1,6.2,1.2,15.4,9,16.5c7.8,1,10.1-9.6,11-15.5c0.2-1.1-1.6-1.6-1.7-0.5&#10;&#9;&#9;&#9;&#9;c-0.4,2.9-1.2,5.8-2.2,8.5c-1.2,2.9-2.9,6-6.5,5.7c-7-0.6-7.6-9.4-7.7-14.7c-0.1-0.5-0.5-0.9-1-0.8&#10;&#9;&#9;&#9;&#9;C25.9,111.5,25.5,111.8,25.5,112.3L25.5,112.3z" id="ryrgMzTCNbX"/>
		</g></g>
	</g></g>
	<g id="r1LgzMTRNW7_HyUnp0NWQ" data-animator-group="true" data-animator-type="2"><g id="r1LgzMTRNW7">
		<circle cx="110.5" cy="185.2" r="37.1" id="rJDxfzpRV-Q"/>
		<circle cx="110.5" cy="185.2" r="28.8" id="SJdlGGpCVZQ"/>
		<path d="M110.5,206.7c-11.8,0-21.4-9.6-21.4-21.5c0-11.8,9.6-21.4,21.5-21.4c11.8,0,21.4,9.6,21.4,21.4&#10;&#9;&#9;&#9;C132,197.1,122.4,206.7,110.5,206.7z" id="HyKezM6RNZX"/>
		<path d="M110.5,165.8c10.7,0,19.4,8.7,19.4,19.4s-8.7,19.4-19.4,19.4s-19.4-8.7-19.4-19.4S99.8,165.8,110.5,165.8&#10;&#9;&#9;&#9;L110.5,165.8 M110.5,161.8c-12.9,0-23.4,10.5-23.4,23.5c0,12.9,10.5,23.4,23.5,23.4c12.9,0,23.4-10.5,23.4-23.4&#10;&#9;&#9;&#9;C134,172.3,123.5,161.8,110.5,161.8L110.5,161.8z" id="B19eMGTAVZQ"/>
		<polygon points="110.5,191.8 102.2,196.2 103.8,186.9 97,180.4 106.3,179 110.5,170.6 114.7,179 124,180.4 &#10;&#9;&#9;&#9;117.3,186.9 118.8,196.2 &#9;&#9;" id="BJolzMT0VZQ"/>
	</g></g>
</g></g>
<script>(function(){var a=document.querySelector('#SkMzTAEZQ'),b=a.querySelectorAll('style'),c=function(d){b.forEach(function(f){var g=f.textContent;g&amp;&amp;(f.textContent=g.replace(/transform-box:[^;\r\n]*/gi,'transform-box: '+d))})};c('initial'),window.requestAnimationFrame(function(){return c('fill-box')})})();</script></svg>