<svg version="1.1" id="BJqXQ2V-Q" xmlns="http://www.w3.org/2000/svg" xmlns:xlink="http://www.w3.org/1999/xlink" x="0px" y="0px" viewBox="-30 0 190 220" style="enable-background:new 0 0 132.1 220.6;" xml:space="preserve"><style>@-webkit-keyframes r1V5mXhNZX_B1UEQnEWQ_Animation{0%{-webkit-transform: rotate(0deg);transform: rotate(0deg);}50%{-webkit-transform: rotate(-3deg);transform: rotate(-3deg);}100%{-webkit-transform: rotate(0deg);transform: rotate(0deg);}}@keyframes r1V5mXhNZX_B1UEQnEWQ_Animation{0%{-webkit-transform: rotate(0deg);transform: rotate(0deg);}50%{-webkit-transform: rotate(-3deg);transform: rotate(-3deg);}100%{-webkit-transform: rotate(0deg);transform: rotate(0deg);}}#BJqXQ2V-Q *{-webkit-animation-duration: 2s;animation-duration: 2s;-webkit-animation-iteration-count: infinite;animation-iteration-count: infinite;-webkit-animation-timing-function: cubic-bezier(0, 0, 1, 1);animation-timing-function: cubic-bezier(0, 0, 1, 1);}#Bk-qXXnV-Q{fill: #F1727E;}#S1GqQmhVWX{fill: #F48E95;}#r17qXQh4b7{fill: #F7B1B9;}#ByIc77nEb7{fill: #F1727E;}#B1PqmmnV-m{fill: #F1727E;}#SyK57XhNWX{fill: #F48E95;}#HJ9qmXnNWQ{fill: #231F20;}#Syj9Xm3NZQ{fill: #231F20;}#Hyhc7X2VZX{fill: #231F20;}#H1T5XQ34ZQ{fill: #231F20;}#HJR9X72NZQ{fill: #231F20;}#BykxqmXh4W7{fill: #F1727E;}#S1gx97QnVbX{fill: #F1727E;}#r1V5mXhNZX_B1UEQnEWQ{-webkit-animation-name: r1V5mXhNZX_B1UEQnEWQ_Animation;animation-name: r1V5mXhNZX_B1UEQnEWQ_Animation;-webkit-transform-origin: 50% 100%;transform-origin: 50% 100%;transform-box: fill-box;-webkit-transform: rotate(0deg);transform: rotate(0deg);}</style>

<title>Asset 36</title>
<g id="SJxqX724WX">
	<path d="M43.8,190.3c0.6-1.3,0.5-2.9-0.1-4.1c-0.7-1.3-1.6-2.4-2.6-3.4c-2.3-2.5-5.1-5.1-8.5-5.1&#10;&#9;&#9;c-3.8,0-6.7,3.5-8.5,6.9c-1.5,2.6-2.4,5.5-2.7,8.5c-0.3,3,0.4,6,2,8.6c0.7,1.1,1.6,1.9,2.7,2.5c1.8,0.7,3.7,0.8,5.6,0.3&#10;&#9;&#9;c4.5-0.8,8.7-2.6,12.4-5.2L43.8,190.3z" id="Bk-qXXnV-Q"/>
	<path d="M94.1,213.3c-0.2,2.2-1.9,4.1-4.1,4.3c-2.8,0.8-5.7,1.4-8.5,1.9c-10.5,1.7-21.3,1.3-31.7-1.2&#10;&#9;&#9;c-2-0.5-3.9-1-5.8-1.6c-3.3-1.1-6.8-2.6-8.6-5.5c-2.3-3.9-1.1-8.8,0.3-13.1c3.8-11.5,8.4-22.6,13.8-33.4c2-3.9,4.1-7.9,7.3-11&#10;&#9;&#9;l22.8,3.5C93.3,172.4,98.7,193.3,94.1,213.3z" id="S1GqQmhVWX"/>
	<path d="M81.4,219.5c-10.5,1.7-21.3,1.3-31.7-1.2c-2.5-12.5,0.2-25.5,7.5-36c3.8-5.3,10.1-10.2,16.3-8.2&#10;&#9;&#9;c5.3,1.7,8,7.5,9.1,13C84.9,197.8,83.6,208.7,81.4,219.5z" id="r17qXQh4b7"/>
	<g id="r1V5mXhNZX_B1UEQnEWQ" data-animator-group="true" data-animator-type="1"><g id="r1V5mXhNZX">
		<g id="BkS9XXhVW7">
			<path d="M95.8,82.2c9.5-5.2,13.9-34.8,15.4-41.5c2-9,3.5-18.2,2-27.3c-0.6-3.9-1.9-7.8-4.8-10.4&#10;&#9;&#9;&#9;&#9;C105.1,0.3,101-0.6,97,0.3c-3.9,1-7.4,3.1-10.1,6c-5.4,5.6-8.3,13.2-9.4,20.9c-1.4,10.5-0.7,21.1,2,31.4&#10;&#9;&#9;&#9;&#9;c1.6,6.1,4.4,22.1,11.8,24.1C92.8,83.1,94.4,82.9,95.8,82.2z" id="ByIc77nEb7"/>
			<path d="M54.6,82.1c-13.5-5.4-21.7-19.8-28.2-32.2C20.4,38.7,8.7,7.6,32,6.6c5-0.2,9.7,2.5,13,6.2s5.3,8.4,7,13&#10;&#9;&#9;&#9;&#9;C55.7,36.3,58.4,47,60.2,58c1,5.5,8.2,29-4.3,24.6C55.5,82.4,55,82.3,54.6,82.1z" id="B1PqmmnV-m"/>
		</g>
		<g id="HJd5XQ3Ebm">
			<path d="M93.1,161.8c12.5-2.5,24-8,31.5-18.2c8.2-11.1,9.6-26.6,4.6-39.5S113.2,81,100.3,76&#10;&#9;&#9;&#9;&#9;c-10.4-4-21.8-4.9-32.9-4.3c-12.7,0.6-25.5,2.9-36.9,8.5s-21.5,14.5-26.9,26c-2.6,5.3-3.8,11.1-3.4,17c0.9,10.4,8,19.6,16.7,25.4&#10;&#9;&#9;&#9;&#9;c9.9,6.6,21.4,9.7,32.9,12.2C62.7,163.4,78.6,164.6,93.1,161.8z" id="SyK57XhNWX"/>
			<path d="M95.3,111.2c0.5,5.6,0.8,14.9,8.4,15.4c3.1,0.2,5-1.8,6.3-4.4c1.6-3.4,2.6-7,3.1-10.8c0.1-1.1-1.7-1.1-1.8,0&#10;&#9;&#9;&#9;&#9;c-0.3,2.7-1,5.4-2,8c-1,2.5-2.3,5.6-5.5,5.3c-6.3-0.6-6.2-9.1-6.6-13.6C97.1,110,95.3,110,95.3,111.2L95.3,111.2z" id="HJ9qmXnNWQ"/>
			<path d="M22.7,112.3c0.1,6.2,1.2,15.4,9,16.5c7.8,1,10.1-9.6,11-15.5c0.2-1.1-1.6-1.6-1.7-0.5&#10;&#9;&#9;&#9;&#9;c-0.4,2.9-1.2,5.8-2.2,8.5c-1.2,2.9-2.9,6-6.5,5.7c-7-0.6-7.6-9.4-7.7-14.7c-0.1-0.5-0.5-0.9-1-0.8&#10;&#9;&#9;&#9;&#9;C23.1,111.5,22.8,111.8,22.7,112.3L22.7,112.3z" id="Syj9Xm3NZQ"/>
			<path d="M72.1,126.1c-1.5-0.3-3-0.1-4.4,0.4c-1-0.3-1.4,1.3-0.4,1.8c0.4,0.2,0.8,0.3,1.2,0.3c0.5,0.1,1,0.2,1.5,0.2&#10;&#9;&#9;&#9;&#9;c0.3,0,0.5-0.1,0.7-0.4c0.5-0.2,1-0.4,1.5-0.7C72.9,127.4,72.9,126.3,72.1,126.1z" id="Hyhc7X2VZX"/>
			<path d="M68,128.2c0.7,2.9,0.7,5.9-0.1,8.8c-0.4,1.3-0.9,3-2.4,3.4c-1.7,0.4-3.4-1.1-4.5-2.1&#10;&#9;&#9;&#9;&#9;c-0.9-0.8-2.1,0.5-1.3,1.3c2.5,2.3,6.4,4.2,8.7,0.6s2.2-8.6,1.2-12.4C69.5,126.6,67.8,127.1,68,128.2L68,128.2z" id="H1T5XQ34ZQ"/>
			<path d="M69.3,128.9c-0.4,4.2,0.4,9.7,3.8,12.6c2.4,2,6.4,1.7,7.7-1.5c0.4-1.1-1.3-1.5-1.7-0.5&#10;&#9;&#9;&#9;&#9;c-0.6,1.2-2.1,1.8-3.4,1.4c-1.3-0.5-2.4-1.6-3-2.9c-1.4-2.8-1.9-6-1.6-9.1C71.2,127.8,69.4,127.8,69.3,128.9L69.3,128.9z" id="HJR9X72NZQ"/>
			<path d="M111.4,132c-4.6-1.9-11-2.5-14.2,2.2c-2,2.8-1.4,6.7,1.4,8.7c0.9,0.6,1.9,1,3,1.1c2.6,0.3,11.3-1.1,8.9-5.6&#10;&#9;&#9;&#9;&#9;c-1.8-3.3-9.9-3.3-8.8,1.6c0.2,1.1,2,0.7,1.7-0.5c-0.5-2.4,3.7-1.7,4.8-0.9c2.1,1.6-0.8,2.8-2.1,3.2c-2.4,0.7-5.9,1.1-7.5-1.4&#10;&#9;&#9;&#9;&#9;c-1.9-2.9,0.2-6.2,3-7.4c3.1-1.3,6.5-0.5,9.4,0.7C112,134.2,112.5,132.4,111.4,132L111.4,132z" id="BykxqmXh4W7"/>
			<path d="M25.2,133.2c2.2-2.2,6.3-2.3,9.2-1.6c3.9,0.9,5.5,4.6,2.3,7.5c-2,1.8-6.4,3.4-8.9,1.6&#10;&#9;&#9;&#9;&#9;c-2.1-1.5-0.5-3.3,1.4-3.7c1.7-0.3,3.4,0.3,4.6,1.5c0.8,0.8,2.1-0.5,1.3-1.3c-1.5-1.5-3.7-2.3-5.8-2c-1.9,0.2-4,1.3-4.2,3.4&#10;&#9;&#9;&#9;&#9;c-0.5,5.5,7.4,4.9,10.5,3.4c4.2-2,7-7.4,2.5-10.8c-2.1-1.6-5-1.8-7.6-1.7c-2.4-0.1-4.7,0.8-6.4,2.4&#10;&#9;&#9;&#9;&#9;C23.1,132.8,24.4,134,25.2,133.2L25.2,133.2z" id="S1gx97QnVbX"/>
		</g>
	</g></g>
</g>
<script>(function(){var a=document.querySelector('#BJqXQ2V-Q'),b=a.querySelectorAll('style'),c=function(d){b.forEach(function(f){var g=f.textContent;g&amp;&amp;(f.textContent=g.replace(/transform-box:[^;\r\n]*/gi,'transform-box: '+d))})};c('initial'),window.requestAnimationFrame(function(){return c('fill-box')})})();</script></svg>