<svg xmlns="http://www.w3.org/2000/svg" viewBox="0 0 157.64 256.23"><defs><style>.cls-1{fill:#f1727e;}.cls-2{fill:#f48e95;}.cls-3{fill:#f7b1b9;}.cls-4{fill:#7e4255;}.cls-5{fill:#fff;}.cls-6{fill:#020202;}.cls-7{fill:#fefef4;}.cls-8{fill:#231f20;}</style></defs><title>Asset 30</title><g id="Layer_2" data-name="Layer 2"><g id="Layer_1-2" data-name="Layer 1"><g id="_Group_" data-name="&lt;Group&gt;"><path id="_Path_" data-name="&lt;Path&gt;" class="cls-1" d="M128.82,161.84c-.91.94-1.9,2-2.95,3-5.75,5.61-4.62,13.57.09,16.27s16.06-24.32,14.49-25.22C136.53,153.61,133.46,157,128.82,161.84Z"/><path id="_Path_2" data-name="&lt;Path&gt;" class="cls-2" d="M129.64,162.18c-.91.94-1.9,1.95-3,3-5.74,5.61-4.62,13.58.09,16.28s11.77-.77,15.77-7.74a19.44,19.44,0,0,0,2.54-7.44,12.86,12.86,0,0,0-.51-5.86,7.49,7.49,0,0,0-3.3-4.19C137.35,153.94,134.28,157.34,129.64,162.18Z"/><path id="_Path_3" data-name="&lt;Path&gt;" class="cls-1" d="M129.64,162.18a16.89,16.89,0,0,1,8.52-1.11,9.22,9.22,0,0,1,4.19,1.82h0a10,10,0,0,1,2.72,3.36,12.86,12.86,0,0,0-.51-5.86,7.49,7.49,0,0,0-3.3-4.19C137.35,153.94,134.28,157.34,129.64,162.18Z"/></g><g id="_Group_2" data-name="&lt;Group&gt;"><path id="_Path_4" data-name="&lt;Path&gt;" class="cls-1" d="M82.22,201.59c1.26-.39,2.61-.8,4-1.2,7.73-2.15,10.58-9.67,7.75-14.3s-25.79,13.58-24.85,15.13C71.5,205.09,75.83,203.59,82.22,201.59Z"/><path id="_Path_5" data-name="&lt;Path&gt;" class="cls-1" d="M81.67,200.9c1.25-.38,2.61-.8,4-1.19,7.74-2.15,10.58-9.67,7.76-14.31s-10.69-5-17.55-.81a19.41,19.41,0,0,0-5.8,5.31,12.72,12.72,0,0,0-2.38,5.38,7.45,7.45,0,0,0,.88,5.25C71,204.41,75.28,202.91,81.67,200.9Z"/><path id="_Path_6" data-name="&lt;Path&gt;" class="cls-2" d="M81.67,200.9a16.87,16.87,0,0,1-8-3.13,9.26,9.26,0,0,1-2.8-3.61h0a9.91,9.91,0,0,1-.76-4.25,12.72,12.72,0,0,0-2.38,5.38,7.45,7.45,0,0,0,.88,5.25C71,204.41,75.28,202.91,81.67,200.9Z"/></g><g id="_Group_3" data-name="&lt;Group&gt;"><path id="_Path_7" data-name="&lt;Path&gt;" class="cls-2" d="M97.07,242.8c-3.21,4.65-7.74,9.9-11.55,12.21-2,1.22-3.84,1.63-5.17.72-3.83-2.66-2.12-15.47,2.8-22.58l.13-.2c4.91-7,11.92-10.46,15.74-7.82S102,235.7,97.07,242.8Z"/><path id="_Path_8" data-name="&lt;Path&gt;" class="cls-1" d="M97.07,242.8c-3.21,4.65-7.74,9.9-11.55,12.21,9.74-16.56,2.71-20.92-2.24-22.06,4.91-7,11.92-10.46,15.74-7.82S102,235.7,97.07,242.8Z"/></g><path class="cls-1" d="M119.38,219.33a4.7,4.7,0,0,1,4.15.15,14.1,14.1,0,0,1,3.39,2.63c2.47,2.36,5.11,5.13,5.06,8.54,0,3.82-3.5,6.7-6.89,8.46a22.83,22.83,0,0,1-8.52,2.69,13,13,0,0,1-8.56-2.07,7.17,7.17,0,0,1-2.45-2.74,9.21,9.21,0,0,1-.3-5.6,30.78,30.78,0,0,1,5.3-12.35Z"/><path class="cls-2" d="M141.4,214.27a4.66,4.66,0,0,1-2.92,5.23,77.11,77.11,0,0,1-7.78,4,80,80,0,0,1-30.92,6.89c-2,0-4,0-6-.12-3.47-.2-7.2-.76-9.7-3.17-3.25-3.14-3.31-8.25-3-12.76a246.63,246.63,0,0,1,4.85-35.8c.91-4.32,2-8.69,4.26-12.45l22.94-2.41A63.28,63.28,0,0,1,141.4,214.27Z"/><path class="cls-3" d="M130.7,223.5a80,80,0,0,1-30.92,6.89,47.32,47.32,0,0,1-1.89-36.7c2.3-6.11,7.17-12.45,13.69-12.12,5.54.28,9.62,5.27,12.09,10.23C128.55,201.57,130.08,212.5,130.7,223.5Z"/><path class="cls-1" d="M85,81.78c8.34-6.84,7.18-36.77,7.37-43.67.27-9.18,0-18.57-3.12-27.2-1.33-3.66-3.34-7.32-6.68-9.32A13,13,0,0,0,71,1.12,20.32,20.32,0,0,0,62.21,9C58,15.46,56.54,23.5,56.87,31.27a79.72,79.72,0,0,0,7.76,30.44c2.69,5.73,8.4,20.92,16.13,21.45A5.86,5.86,0,0,0,85,81.78Z"/><path class="cls-1" d="M47.51,104.31c-14.3-2.83-25-15.44-33.75-26.43-7.9-9.9-25.17-38.22-2.5-43.61,4.83-1.15,10,.62,13.93,3.67S32,45.18,34.51,49.45A191.05,191.05,0,0,1,48.56,79.54c2,5.25,13.42,27,.31,25Z"/><path class="cls-2" d="M133,154.46c9.78-8.23,17.15-18.59,18.78-31.15,1.78-13.73-4.43-28-15.06-36.84S111.51,74,97.8,75.9c-11,1.5-21.43,6.28-30.93,12.11C56,94.67,46,102.9,38.62,113.29s-11.81,23.1-10.93,35.79a33.93,33.93,0,0,0,5.21,16.5c5.82,8.72,16.45,13.26,26.9,14.16,11.91,1,23.47-1.82,34.69-5.26C107.14,170.62,121.69,164,133,154.46Z"/><path class="cls-1" d="M134.62,119.51c-4.94.61-10.87,3.14-11.36,8.84a6.2,6.2,0,0,0,8.59,6.45c2.42-1,9.39-6.47,5.09-9.19-3.17-2-10.26,1.85-7,5.67.75.88,2-.38,1.28-1.25-1.6-1.86,2.47-3.29,3.73-3.11,2.62.37.66,2.79-.32,3.77-1.79,1.79-4.65,3.79-7.24,2.45-3.06-1.58-2.83-5.56-1-7.94,2.06-2.67,5.41-3.55,8.6-3.94,1.15-.14.72-1.89-.41-1.75Z"/><path class="cls-1" d="M59.71,162.25c.84-3,4.44-5,7.27-5.83,3.83-1.09,7.08,1.35,5.64,5.47-.89,2.58-3.91,6.11-7,5.75-2.51-.29-2-2.7-.55-3.87a5.18,5.18,0,0,1,4.72-.9.9.9,0,0,0,.5-1.73,7,7,0,0,0-6.08,1c-1.53,1.12-2.85,3.08-2,5,2.18,5.05,8.83.68,10.79-2.11,2.7-3.83,2.55-9.91-3-10.7-2.63-.37-5.28.84-7.48,2.16A9.06,9.06,0,0,0,58,161.75a.9.9,0,0,0,1.72.5Z"/><path id="_Path_9" data-name="&lt;Path&gt;" class="cls-4" d="M107.62,129.77c-.08.17,2.91,4.35,3.18,4.93,2.17,4.66,3.89,10.05,3.41,15.19-.64,6.81-9.16,4.68-13.61,3.24A30.69,30.69,0,0,1,87,144C95.42,144.47,104.37,137.22,107.62,129.77Z"/><path id="_Path_10" data-name="&lt;Path&gt;" class="cls-5" d="M87,144A31.3,31.3,0,0,0,95.58,151c.88,0,1.76-.06,2.63-.15,5.66-.62,10.74-3.09,12.87-9.14a22,22,0,0,0,1-4.08c-.39-1-.79-2-1.23-2.88-.27-.58-3.26-4.76-3.18-4.93C104.37,137.22,95.42,144.47,87,144Z"/><path id="_Path_11" data-name="&lt;Path&gt;" class="cls-6" d="M97.45,132c.77.81.51,2.32-.6,3.37s-2.62,1.23-3.39.42-.5-2.32.6-3.36S96.68,131.16,97.45,132Z"/><g id="_Group_4" data-name="&lt;Group&gt;"><path id="_Path_12" data-name="&lt;Path&gt;" class="cls-6" d="M123,103.31c2.62,5.48,2.41,11-.46,12.41s-7.32-2-9.93-7.46-2.41-11,.46-12.4S120.37,97.82,123,103.31Z"/><path id="_Path_13" data-name="&lt;Path&gt;" class="cls-7" d="M116.66,104.33a2.43,2.43,0,1,1-2.63-2.39A2.51,2.51,0,0,1,116.66,104.33Z"/><path id="_Path_14" data-name="&lt;Path&gt;" class="cls-7" d="M118.48,106.79a1,1,0,0,1-.88,1.1,1,1,0,0,1-.16-2A1,1,0,0,1,118.48,106.79Z"/></g><path class="cls-8" d="M47.71,142c3.92,4.81,10.43,11.45,17.2,7.43s2-13.84-.87-18.94c-.57-1-2.23-.31-1.66.69a37.8,37.8,0,0,1,3.49,8.08c.9,3,1.43,6.48-1.61,8.47-5.87,3.86-11.81-2.75-15.14-6.84-.73-.89-2.15.21-1.41,1.11Z"/><g id="_Group_5" data-name="&lt;Group&gt;"><path id="_Path_15" data-name="&lt;Path&gt;" class="cls-3" d="M137.75,224.46c4.13,2.13,10.66-2.34,14.58-10s7.64-18.58,3.51-20.7-14.56,5.38-18.48,13S133.61,222.34,137.75,224.46Z"/><path id="_Path_16" data-name="&lt;Path&gt;" class="cls-1" d="M139.06,224.53c2.61,1.34,6.73-1.48,9.21-6.3s4.82-11.73,2.21-13.07-9.2,3.4-11.67,8.22S136.45,223.18,139.06,224.53Z"/></g></g></g></svg>