<svg xmlns="http://www.w3.org/2000/svg" viewBox="-30 0 190 220" id="BySQl3Ebm"><style>@-webkit-keyframes SkYer7enE-Q_H1pXMhVZm_Animation{0%{-webkit-transform: translate(0px, 0px);transform: translate(0px, 0px);}10%{-webkit-transform: translate(-1px, 1px);transform: translate(-1px, 1px);}20%{-webkit-transform: translate(0px, 0px);transform: translate(0px, 0px);}30%{-webkit-transform: translate(-1px, 1px);transform: translate(-1px, 1px);}40%{-webkit-transform: translate(0px, 0px);transform: translate(0px, 0px);}50%{-webkit-transform: translate(-1px, 1px);transform: translate(-1px, 1px);}60%{-webkit-transform: translate(0px, 0px);transform: translate(0px, 0px);}70%{-webkit-transform: translate(-1px, 1px);transform: translate(-1px, 1px);}80%{-webkit-transform: translate(0px, 0px);transform: translate(0px, 0px);}90%{-webkit-transform: translate(-1px, 1px);transform: translate(-1px, 1px);}100%{-webkit-transform: translate(0px, 0px);transform: translate(0px, 0px);}}@keyframes SkYer7enE-Q_H1pXMhVZm_Animation{0%{-webkit-transform: translate(0px, 0px);transform: translate(0px, 0px);}10%{-webkit-transform: translate(-1px, 1px);transform: translate(-1px, 1px);}20%{-webkit-transform: translate(0px, 0px);transform: translate(0px, 0px);}30%{-webkit-transform: translate(-1px, 1px);transform: translate(-1px, 1px);}40%{-webkit-transform: translate(0px, 0px);transform: translate(0px, 0px);}50%{-webkit-transform: translate(-1px, 1px);transform: translate(-1px, 1px);}60%{-webkit-transform: translate(0px, 0px);transform: translate(0px, 0px);}70%{-webkit-transform: translate(-1px, 1px);transform: translate(-1px, 1px);}80%{-webkit-transform: translate(0px, 0px);transform: translate(0px, 0px);}90%{-webkit-transform: translate(-1px, 1px);transform: translate(-1px, 1px);}100%{-webkit-transform: translate(0px, 0px);transform: translate(0px, 0px);}}@-webkit-keyframes rJBgSQxhV-7_HkjhZ24W7_Animation{0%{-webkit-transform: translate(0px, 0px);transform: translate(0px, 0px);}10%{-webkit-transform: translate(1px, 1px);transform: translate(1px, 1px);}20%{-webkit-transform: translate(0px, 0px);transform: translate(0px, 0px);}30%{-webkit-transform: translate(1px, 1px);transform: translate(1px, 1px);}40%{-webkit-transform: translate(0px, 0px);transform: translate(0px, 0px);}50%{-webkit-transform: translate(1px, 1px);transform: translate(1px, 1px);}60%{-webkit-transform: translate(0px, 0px);transform: translate(0px, 0px);}70%{-webkit-transform: translate(1px, 1px);transform: translate(1px, 1px);}80%{-webkit-transform: translate(0px, 0px);transform: translate(0px, 0px);}90%{-webkit-transform: translate(1px, 1px);transform: translate(1px, 1px);}100%{-webkit-transform: translate(0px, 0px);transform: translate(0px, 0px);}}@keyframes rJBgSQxhV-7_HkjhZ24W7_Animation{0%{-webkit-transform: translate(0px, 0px);transform: translate(0px, 0px);}10%{-webkit-transform: translate(1px, 1px);transform: translate(1px, 1px);}20%{-webkit-transform: translate(0px, 0px);transform: translate(0px, 0px);}30%{-webkit-transform: translate(1px, 1px);transform: translate(1px, 1px);}40%{-webkit-transform: translate(0px, 0px);transform: translate(0px, 0px);}50%{-webkit-transform: translate(1px, 1px);transform: translate(1px, 1px);}60%{-webkit-transform: translate(0px, 0px);transform: translate(0px, 0px);}70%{-webkit-transform: translate(1px, 1px);transform: translate(1px, 1px);}80%{-webkit-transform: translate(0px, 0px);transform: translate(0px, 0px);}90%{-webkit-transform: translate(1px, 1px);transform: translate(1px, 1px);}100%{-webkit-transform: translate(0px, 0px);transform: translate(0px, 0px);}}@-webkit-keyframes HkXxrQehV-X_SJW4l3VbQ_Animation{0%{-webkit-transform: scale(1, 1);transform: scale(1, 1);}50%{-webkit-transform: scale(1.2, 1.2);transform: scale(1.2, 1.2);}100%{-webkit-transform: scale(1, 1);transform: scale(1, 1);}}@keyframes HkXxrQehV-X_SJW4l3VbQ_Animation{0%{-webkit-transform: scale(1, 1);transform: scale(1, 1);}50%{-webkit-transform: scale(1.2, 1.2);transform: scale(1.2, 1.2);}100%{-webkit-transform: scale(1, 1);transform: scale(1, 1);}}#BySQl3Ebm *{-webkit-animation-duration: 1s;animation-duration: 1s;-webkit-animation-iteration-count: infinite;animation-iteration-count: infinite;-webkit-animation-timing-function: cubic-bezier(0, 0, 1, 1);animation-timing-function: cubic-bezier(0, 0, 1, 1);}#BkMrQx34Z7{fill: #f1727e;}#BkXrmen4ZQ{fill: #f1727e;}#ByVr7e3Vb7{fill: #f1727e;}#ByrHme24bQ{fill: #f48e95;}#rk8rQx2VZ7{fill: #f48e95;}#ryPHXe3V-Q{fill: #f7b1b9;}#SJdB7l24-7{fill: #f1727e;}#HktS7x34ZX{fill: #f1727e;}#H1cHXgnEbX{fill: #231f20;}#ry2S7gn4-7{fill: #f1727e;}#S1pB7g3EZX{fill: #f48e95;}#B1CS7e24bm{fill: #f1727e;}#BkggSQx2EW7{fill: #f1727e;}#BJZgB7xnVZX{fill: #f48e95;}#BkzgB7l3N-7{fill: #f1727e;}#HkXxrQehV-X{fill: #7e4255;}#BJ4xSXgnNWm{fill: #fff;}#ryUlB7enEb7{fill: #020202;}#BJwxrXehE-Q{fill: #fefef4;}#rkOlB7x34ZX{fill: #fefef4;}#SJ9eSXlnEZm{fill: #020202;}#S1oxrXgn4W7{fill: #fefef4;}#rJhlBQehVZ7{fill: #fefef4;}#SkpgHXe3NWm{fill: none;stroke: #020202;stroke-linecap: round;stroke-miterlimit: 10;stroke-width: 2px;}#S1Axr7ln4Z7{fill: none;stroke: #020202;stroke-linecap: round;stroke-miterlimit: 10;stroke-width: 2px;}#HkXxrQehV-X_SJW4l3VbQ{-webkit-animation-name: HkXxrQehV-X_SJW4l3VbQ_Animation;animation-name: HkXxrQehV-X_SJW4l3VbQ_Animation;-webkit-transform-origin: 50% 0%;transform-origin: 50% 0%;transform-box: fill-box;-webkit-transform: scale(1, 1);transform: scale(1, 1);}#rJBgSQxhV-7_HkjhZ24W7{-webkit-transform-origin: 50% 50%;transform-origin: 50% 50%;transform-box: fill-box;-webkit-animation-name: rJBgSQxhV-7_HkjhZ24W7_Animation;animation-name: rJBgSQxhV-7_HkjhZ24W7_Animation;}#SkYer7enE-Q_H1pXMhVZm{-webkit-animation-name: SkYer7enE-Q_H1pXMhVZm_Animation;animation-name: SkYer7enE-Q_H1pXMhVZm_Animation;-webkit-transform-origin: 50% 50%;transform-origin: 50% 50%;transform-box: fill-box;}</style><defs/><title>Asset 31</title><g id="B1lS7g24b7" data-name="Layer 2"><g id="rJWr7lnNbX" data-name="Layer 1"><path d="M89.06,82.16C98.53,77,103,47.37,104.42,40.63c2-9,3.47-18.24,2-27.31-.63-3.85-1.92-7.81-4.83-10.4A13,13,0,0,0,90.34.32,20.35,20.35,0,0,0,80.22,6.37c-5.39,5.61-8.28,13.24-9.4,20.94a79.76,79.76,0,0,0,2,31.36c1.57,6.12,4.36,22.11,11.86,24.06A5.82,5.82,0,0,0,89.06,82.16Z" id="BkMrQx34Z7"/><path d="M47.9,82.11c-13.52-5.43-21.66-19.8-28.25-32.24C13.73,38.68,2,7.64,25.3,6.56c5-.23,9.72,2.47,13,6.19s5.31,8.38,7,13.05A191.64,191.64,0,0,1,53.54,58c1,5.54,8.17,29-4.34,24.63C48.76,82.45,48.33,82.28,47.9,82.11Z" id="BkXrmen4ZQ"/><path d="M43.75,190.3a4.7,4.7,0,0,0-.14-4.15,13.68,13.68,0,0,0-2.62-3.4c-2.34-2.47-5.1-5.13-8.51-5.09-3.83,0-6.71,3.47-8.49,6.86A22.83,22.83,0,0,0,21.27,193a13,13,0,0,0,2,8.57A7.14,7.14,0,0,0,26,204.05a9.21,9.21,0,0,0,5.6.33A30.83,30.83,0,0,0,44,199.13Z" id="ByVr7e3Vb7"/><path d="M94.14,213.3A4.67,4.67,0,0,1,90,217.61a75.66,75.66,0,0,1-8.54,1.89,79.84,79.84,0,0,1-31.66-1.19q-2.93-.7-5.78-1.64c-3.31-1.07-6.77-2.56-8.57-5.52-2.35-3.87-1.11-8.82.3-13.11a249.32,249.32,0,0,1,13.78-33.4c2-3.95,4.11-7.91,7.29-11l22.8,3.5A63.3,63.3,0,0,1,94.14,213.3Z" id="ByrHme24bQ"/><path d="M93.11,161.78c12.54-2.47,24-8,31.49-18.2,8.2-11.15,9.64-26.62,4.62-39.52S113.16,81,100.26,76c-10.4-4-21.8-4.86-32.94-4.34-12.71.59-25.5,2.92-36.94,8.47S8.87,94.64,3.51,106.18a33.87,33.87,0,0,0-3.41,17c.88,10.44,8,19.56,16.71,25.4,9.93,6.65,21.42,9.74,32.91,12.16C62.66,163.43,78.61,164.64,93.11,161.78Z" id="rk8rQx2VZ7"/><path d="M81.44,219.5a79.84,79.84,0,0,1-31.66-1.19,47.3,47.3,0,0,1,7.5-36c3.77-5.33,10.09-10.22,16.31-8.24,5.29,1.67,8,7.54,9.1,13C84.93,197.75,83.64,208.71,81.44,219.5Z" id="ryPHXe3V-Q"/><path d="M111.41,132c-4.61-1.86-11-2.51-14.22,2.25a6.21,6.21,0,0,0,4.41,9.8c2.59.31,11.35-1.13,8.9-5.59-1.81-3.29-9.88-3.33-8.84,1.59.23,1.13,2,.66,1.73-.47-.51-2.4,3.74-1.69,4.76-.93,2.12,1.6-.77,2.77-2.1,3.16-2.44.7-5.9,1.06-7.53-1.36-1.91-2.86.22-6.24,3-7.43,3.1-1.34,6.46-.49,9.44.71,1.08.43,1.54-1.31.48-1.73Z" id="SJdB7l24-7"/><path d="M25.18,133.18c2.18-2.22,6.32-2.26,9.18-1.59,3.88.9,5.55,4.6,2.3,7.52-2,1.82-6.38,3.45-8.92,1.64-2.07-1.47-.45-3.33,1.38-3.66a5.17,5.17,0,0,1,4.57,1.5c.82.81,2.09-.46,1.27-1.27a7,7,0,0,0-5.82-2c-1.89.24-4,1.31-4.19,3.41-.53,5.48,7.41,4.86,10.47,3.37,4.22-2,7-7.45,2.51-10.84-2.12-1.6-5-1.82-7.59-1.72a9.07,9.07,0,0,0-6.42,2.4c-.81.83.45,2.1,1.26,1.27Z" id="HktS7x34ZX"/><path d="M72.1,126.13a7.26,7.26,0,0,0-4.37.45c-1-.27-1.39,1.33-.37,1.76a5.38,5.38,0,0,0,1.25.34,4.53,4.53,0,0,0,1.52.18.84.84,0,0,0,.68-.37,5.06,5.06,0,0,0,1.5-.72A.91.91,0,0,0,72.1,126.13Z" id="H1cHXgnEbX"/><g id="rJjrml3VZ7" data-name="&lt;Group&gt;"><path id="ry2S7gn4-7" data-name="&lt;Path&gt;" d="M55.5,191.87c0-1.31-.06-2.73,0-4.21,0-8-6.41-12.82-11.64-11.37S36.08,185.2,38.23,193a19.6,19.6,0,0,0,3.52,7,12.83,12.83,0,0,0,4.52,3.76,7.52,7.52,0,0,0,5.3.59C55.94,203.14,55.68,198.56,55.5,191.87Z"/><path id="S1pB7g3EZX" data-name="&lt;Path&gt;" d="M56.49,190.89c0-1.31-.05-2.73,0-4.2,0-8-6.42-12.82-11.64-11.37s-7.73,8.91-5.59,16.65a19.73,19.73,0,0,0,3.52,7,12.74,12.74,0,0,0,4.53,3.75,7.46,7.46,0,0,0,5.3.59C56.93,202.16,56.67,197.59,56.49,190.89Z"/><path id="B1CS7e24bm" data-name="&lt;Path&gt;" d="M56.49,190.89a17,17,0,0,1-5.19,6.84,9.4,9.4,0,0,1-4.24,1.71h0a10.07,10.07,0,0,1-4.3-.42,12.74,12.74,0,0,0,4.53,3.75,7.46,7.46,0,0,0,5.3.59C56.93,202.16,56.67,197.59,56.49,190.89Z"/></g><g id="B1yxSXxhVW7" data-name="&lt;Group&gt;"><path id="BkggSQx2EW7" data-name="&lt;Path&gt;" d="M79.22,190.28c.36-1.26.76-2.62,1.13-4.05,2-7.77,9.52-10.72,14.19-8s-13.2,26-14.76,25.07C75.87,201.05,77.31,196.7,79.22,190.28Z"/><path id="BJZgB7xnVZX" data-name="&lt;Path&gt;" d="M79.91,190.82c.37-1.26.76-2.62,1.13-4,2-7.76,9.52-10.72,14.19-8s5.16,10.6,1.08,17.53a19.51,19.51,0,0,1-5.22,5.88,12.88,12.88,0,0,1-5.35,2.46,7.56,7.56,0,0,1-5.27-.8C76.56,201.59,78,197.24,79.91,190.82Z"/><path id="BkzgB7l3N-7" data-name="&lt;Path&gt;" d="M79.91,190.82a16.89,16.89,0,0,0,3.25,8,9.18,9.18,0,0,0,3.65,2.75h0a10,10,0,0,0,4.26.7,12.88,12.88,0,0,1-5.35,2.46,7.56,7.56,0,0,1-5.27-.8C76.56,201.59,78,197.24,79.91,190.82Z"/></g><g id="HkXxrQehV-X_SJW4l3VbQ" data-animator-group="true" data-animator-type="2"><path d="M87.6,148.65c-11.83-21.6-23.45-21-34.78,1.23-1.8,3.54-6.32-4.63-3.41-7.88,4.26-4.76,10.68-8.8,20.27-9.13s16.22,3.25,20.79,7.69C93.61,143.6,89.51,152.14,87.6,148.65Z" id="HkXxrQehV-X"/></g><path d="M71.37,138.69l-2.83.08a1.45,1.45,0,0,1-1.5-.83l-1.33-4.83a39.43,39.43,0,0,1,8.11-.25l-1,4.92A1.44,1.44,0,0,1,71.37,138.69Z" id="BJ4xSXgnNWm"/><g id="rJBgSQxhV-7_HkjhZ24W7" data-animator-group="true" data-animator-type="0"><g id="rJBgSQxhV-7" data-name="&lt;Group&gt;"><path id="ryUlB7enEb7" data-name="&lt;Path&gt;" d="M40.57,117.67c-.29,6.07-3.1,10.87-6.28,10.71s-5.52-5.19-5.23-11.26,3.11-10.87,6.28-10.71S40.86,111.6,40.57,117.67Z"/><path id="BJwxrXehE-Q" data-name="&lt;Path&gt;" d="M34.51,115.58a2.43,2.43,0,1,1-1.19-3.35A2.52,2.52,0,0,1,34.51,115.58Z"/><path id="rkOlB7x34ZX" data-name="&lt;Path&gt;" d="M35,118.61a1,1,0,1,1-.47-1.33A1,1,0,0,1,35,118.61Z"/></g></g><g id="SkYer7enE-Q_H1pXMhVZm" data-animator-group="true" data-animator-type="0"><g id="SkYer7enE-Q" data-name="&lt;Group&gt;"><path id="SJ9eSXlnEZm" data-name="&lt;Path&gt;" d="M110.25,114.61c.85,6-1,11.25-4.17,11.69s-6.39-4.07-7.23-10.09,1-11.25,4.17-11.7S109.41,108.59,110.25,114.61Z"/><path id="S1oxrXgn4W7" data-name="&lt;Path&gt;" d="M103.92,113.69a2.44,2.44,0,1,1-1.8-3.08A2.52,2.52,0,0,1,103.92,113.69Z"/><path id="rJhlBQehVZ7" data-name="&lt;Path&gt;" d="M104.91,116.57a1,1,0,1,1-.71-1.21A1,1,0,0,1,104.91,116.57Z"/></g></g><path d="M29.83,101.73s9.67,10.1,13.92,9.3" id="SkpgHXe3NWm"/><path d="M108.64,99.4S99,109.5,94.72,108.7" id="S1Axr7ln4Z7"/></g></g><script>(function(){var a=document.querySelector('#BySQl3Ebm'),b=a.querySelectorAll('style'),c=function(d){b.forEach(function(f){var g=f.textContent;g&amp;&amp;(f.textContent=g.replace(/transform-box:[^;\r\n]*/gi,'transform-box: '+d))})};c('initial'),window.requestAnimationFrame(function(){return c('fill-box')})})();</script></svg>