<svg version="1.1" id="BkV4xA3e7" xmlns="http://www.w3.org/2000/svg" xmlns:xlink="http://www.w3.org/1999/xlink" x="0px" y="0px" viewBox="0 0 342 483" style="enable-background:new 0 0 342.5 483.7;" xml:space="preserve"><style>@-webkit-keyframes Syb9EEeAhl7_Animation{65%{opacity: 0;}70%{opacity: 1;}0%{opacity: 0;}100%{opacity: 1;}}@keyframes Syb9EEeAhl7_Animation{65%{opacity: 0;}70%{opacity: 1;}0%{opacity: 0;}100%{opacity: 1;}}@-webkit-keyframes HJ5FNNlRnxm_Animation{60%{opacity: 0;}65%{opacity: 1;}0%{opacity: 0;}100%{opacity: 1;}}@keyframes HJ5FNNlRnxm_Animation{60%{opacity: 0;}65%{opacity: 1;}0%{opacity: 0;}100%{opacity: 1;}}@-webkit-keyframes ByBKNNlRngQ_Animation{50%{opacity: 0;}55.00%{opacity: 1;}0%{opacity: 0;}}@keyframes ByBKNNlRngQ_Animation{50%{opacity: 0;}55.00%{opacity: 1;}0%{opacity: 0;}}@-webkit-keyframes rJuNENxChl7_Animation{0%{opacity: 0;}55.00%{opacity: 0;}60%{opacity: 1;}100%{opacity: 1;}}@keyframes rJuNENxChl7_Animation{0%{opacity: 0;}55.00%{opacity: 0;}60%{opacity: 1;}100%{opacity: 1;}}@-webkit-keyframes rJh74ElAhgm_HJ7rl03l7_Animation{0%{-webkit-transform: scale(1, 1);transform: scale(1, 1);}50%{-webkit-transform: scale(0, 1);transform: scale(0, 1);}100%{-webkit-transform: scale(0, 1);transform: scale(0, 1);}}@keyframes rJh74ElAhgm_HJ7rl03l7_Animation{0%{-webkit-transform: scale(1, 1);transform: scale(1, 1);}50%{-webkit-transform: scale(0, 1);transform: scale(0, 1);}100%{-webkit-transform: scale(0, 1);transform: scale(0, 1);}}#BkV4xA3e7 *{-webkit-animation-duration: 2s;animation-duration: 2s;-webkit-animation-iteration-count: infinite;animation-iteration-count: infinite;-webkit-animation-timing-function: cubic-bezier(0, 0, 1, 1);animation-timing-function: cubic-bezier(0, 0, 1, 1);}#Hyg4Nx0nxQ{opacity: 0.5;}#r1ZEEe03lm{fill: #A2B2D6;}#B1GN4xA3l7{fill: #22BAD3;}#BkX4EgAhgQ{fill: #CAD6E8;}#BkBNEeA2gX{fill: #A2B2D6;}#H1DNVgRhlX{fill: #A2B2D6;}#S1ON4lCne7{fill: #F7F8F9;}#r1Y44lR2l7{fill: #FFFFFF;}#Sk9NEx03xm{fill: #FFFFFF;}#rJiVEgC3eX{fill: #FFFFFF;}#BJhENlAnlQ{fill: #FFFFFF;}#rJaVVxCng7{fill: #FFFFFF;}#ByAVNeRhg7{fill: #FFFFFF;}#HJ1gVExAhlm{fill: #FFFFFF;}#BkgxVNlRneX{fill: #FFFFFF;}#Hyze4NxRnl7{opacity: 0.6;}#rkQl4VeC3e7{fill: #BAB7F7;}#HkElN4gRhlX{opacity: 0.5;}#HySlNNeR2xm{fill: #FF7D55;}#HyLlVNxC2eX{opacity: 0.3;}#BJPgVVx0hl7{fill: #3F4751;}#ByOeV4g02gm{opacity: 0.4;}#B1KeEEeAngm{fill: #CE8FFF;}#Hy5gNEgRhlX{fill: #FFFFFF;}#rkie4ElC2gQ{fill: #FFFFFF;}#r12e4Eg0hlQ{fill: #FFFFFF;}#rkTg4Eg0heQ{fill: #FFFFFF;}#B1CxVElA3xQ{fill: #FFFFFF;}#HJkb4Ve02xX{fill: #FFFFFF;}#rkxbENlCnem{fill: #FFFFFF;}#BkWZEEeC3x7{fill: #FFFFFF;}#S1MZNNeR3gX{fill: #FFFFFF;}#HJ7W4NlChxm{fill: #FFFFFF;}#ryNbNEe0nxm{fill: #FFFFFF;}#SJr-4VxRhe7{fill: #FFFFFF;}#S1UZVNx03gm{fill: #FFFFFF;}#H1vWVVxR3l7{fill: #FFFFFF;}#B1_b4NgC2lm{fill: #FFFFFF;}#HytWEVxRhg7{fill: #FFFFFF;}#rJcZVEeR2lX{fill: #FFFFFF;}#rksZENeR2eQ{fill: #FFFFFF;}#By2ZNVeRhgQ{fill: #FFFFFF;}#HJabVEeR2gQ{fill: #FFFFFF;}#B1Cb44lChg7{fill: #FFFFFF;}#BkkGVNxChe7{fill: #FFFFFF;}#SyxGV4g03gm{fill: #FFFFFF;}#H1ZGVVeChgX{fill: #FFFFFF;}#rkGzV4e03em{fill: #FFFFFF;}#HJmMNVl0ng7{fill: #FFFFFF;}#rkEz4VeR2em{fill: #FFFFFF;}#rkBfNEeCnlX{fill: #FFFFFF;}#B1LfEElCnx7{fill: #FFFFFF;}#rkPMNEgAnl7{fill: #FFFFFF;}#rk_MEVx03gX{fill: #8C83DD;}#H1KGEElRnlm{fill: #8C83DD;}#ByqGVVgChgm{fill: #FF7261;}#HJjM44l03eQ{fill: #FFFFFF;}#HJnfVNxA2lm{fill: #FF7261;}#HJCMNNlChg7{fill: #FFFFFF;}#B1y7VNl03gX{fill: #FF6464;}#rybQEVgA3em{fill: #FFFFFF;}#S1G7NVlChgX{fill: #FF6464;}#ryQmVNxA2xX{fill: #8C83DD;}#r1E7EVlChx7{fill: #FF6464;}#H1r7NEe0ngX{fill: #8C83DD;}#Bkw7EEgCnlX{fill: #FFFFFF;}#SkOm4Ex0hem{fill: #FF6464;}#Hy5m44g0nlX{fill: #FFFFFF;}#BksmENgC3x7{fill: #8C83DD;}#rJh74ElAhgm{fill: #F7F8F9;}#HJamEEx03xQ{fill: #667784;}#ryRQVElR2eX{fill: #3F4751;}#SyxVNVx0ne7{fill: #FFFFFF;}#HybNVElC3e7{fill: #FF6464;}#r1QVNNeC3gQ{fill: #FFFFFF;}#Hk4NE4eA2em{fill: #8C83DD;}#SJHN4ExC3e7{fill: #3F4751;}#B1LEN4eR3lX{fill: #3F4751;}#HyD4NEl0nxQ{fill: #3F4751;}#BJYNE4g03gX{fill: #8C83DD;}#rk5EVEeR2e7{fill: #FFFFFF;}#HJsVE4gRhgm{fill: #8C83DD;}#H1hE4ExAhlX{fill: #8C83DD;}#BJaE4VxRne7{fill: #8C83DD;}#SkRE44lA3l7{fill: #CFE240;-webkit-transform-origin: 50% 50%;transform-origin: 50% 50%;transform-box: fill-box;}#HkJS44lAhgX{fill: #E56C69;-webkit-transform-origin: 50% 50%;transform-origin: 50% 50%;transform-box: fill-box;}#r1eBN4g0ngX{fill: #D856D2;-webkit-transform-origin: 50% 50%;transform-origin: 50% 50%;transform-box: fill-box;}#ByZrN4xRhl7{fill: #FFC022;-webkit-transform-origin: 50% 50%;transform-origin: 50% 50%;transform-box: fill-box;}#HyzBNVxA2gm{fill: #A8A8CC;-webkit-transform-origin: 50% 50%;transform-origin: 50% 50%;transform-box: fill-box;}#BymHNVl0neQ{fill: #A8A8CC;-webkit-transform-origin: 50% 50%;transform-origin: 50% 50%;transform-box: fill-box;}#SJVH44xAhgQ{fill: #A8A8CC;-webkit-transform-origin: 50% 50%;transform-origin: 50% 50%;transform-box: fill-box;}#SyHH4VxR3lm{fill: #A8A8CC;-webkit-transform-origin: 50% 50%;transform-origin: 50% 50%;transform-box: fill-box;}#HyIHVVgRnem{fill: #FFFFFF;}#rJwrE4xRhlQ{fill: #FFFFFF;}#BkdS4EeR3eQ{fill: #FFFFFF;}#ByKS4EgA2l7{fill: #FFFFFF;}#BysSN4gAneQ{fill: #B1CC40;}#S1hSNEeRhgQ{fill: #B1CC40;}#HkaSEEgC3xQ{fill: #B1CC40;}#H1Cr4ElChlX{fill: #B1CC40;}#H11LVVeC2em{fill: #B1CC40;}#B1-IVNeRhxX{fill: #D856D2;}#BkM8EVxA3gQ{fill: #D856D2;}#ryXI4VeChlQ{fill: #D856D2;}#HyVUEElRnem{fill: #D856D2;}#r1rINVxCnxm{fill: #D856D2;}#SJw8NVlA3l7{fill: #FFAB24;}#rydI4EeA2lX{fill: #FFAB24;}#SyF8VVlA2eQ{fill: #FFAB24;}#r1c8NEg02gX{fill: #FFAB24;}#BJsU4NxC2gm{fill: #FFAB24;}#rJTUNVxR3xX{fill: #5D5D68;}#ByCUN4xCneX{fill: #5D5D68;}#H11v44lRhem{fill: #5D5D68;}#r1evVVx0hgm{fill: #5D5D68;}#SkWvVNeRhem{fill: #5D5D68;}#ByfvVNx0nl7{fill: #5D5D68;}#ryQPNNeChlm{fill: #5D5D68;}#SJ4w4ElR3e7{fill: #5D5D68;}#Byrv4ElA2eQ{fill: #5D5D68;}#ByUPVVx0hxX{fill: #5D5D68;}#SkwPVVlAneX{fill: #5A5A7A;}#B1uwV4xR2x7{fill: #FFFFFF;}#ByKvVNgR3gX{opacity: 0.5;}#ryqvE4xC2eQ{fill: #5A5A7A;}#rJsDENg0nxX{opacity: 0.5;}#BJnwNElAnem{fill: #5A5A7A;}#Sk6PN4x0ngX{opacity: 0.5;}#H10DV4gC3xX{fill: #5A5A7A;}#B1kOE4lAhxm{opacity: 0.5;}#S1l_VNl02xQ{fill: #5A5A7A;}#B1-uV4eR3e7{opacity: 0.5;}#BJzuEElAngQ{fill: #5A5A7A;}#HkmdEVxRhlm{opacity: 0.5;}#HJNOEEgA3eQ{fill: #5A5A7A;}#HJHuNNgAngm{opacity: 0.5;}#SkL_N4lAnl7{fill: #5A5A7A;}#Sywd44lR3gX{opacity: 0.5;}#ryddVVgCneX{fill: #5A5A7A;}#H1q_V4xC2xm{fill: #A2B2D6;}#HJjON4xCngQ{fill: #FF2727;}#S1huNNeAngQ{fill: #FF5539;}#ByadVVxAhe7{fill: #CE1717;}#HJR_4Vx0hem{fill: #FEA261;}#Sy1KNNlAhx7{fill: #414042;}#SkeFVNx02gm{fill: #FEA261;}#Hk-Y4Nx03l7{fill: #FFDB94;}#S1fY4VeAng7{opacity: 0.5;}#HymFNEeRhx7{fill: #8C8C99;}#SyEYVNxR2lQ{fill: #FFBE92;}#BJ8tNEgRnlX{fill: #5A5A7A;}#SJDYVVeC2lX{fill: #5A5A7A;}#ByOtENeA3eX{fill: #5A5A7A;}#BJjK4NxRhx7{fill: #FF6464;}#Sk6FVVgA3l7{fill: #FF6464;}#HyAYNVeAnlm{fill: #FFFFFF;}#ryJcEEeAhgQ{fill: #FF6464;}#rklcEVxRngQ{fill: #FF6464;}#SyGq4NxA3g7{opacity: 0.8;}#r1X5VElRheX{fill: #5A5A7A;}#H145NEgCnxm{opacity: 0.8;}#HJrq44eChgm{fill: #5A5A7A;}#HyIqVElRnlm{opacity: 0.8;}#HkDqN4g0heX{fill: #5A5A7A;}#Sy_qENx0hem{-webkit-transform-origin: 50% 50%;transform-origin: 50% 50%;transform-box: fill-box;}#H1K94VxC2eX{fill: #5A5A7A;}#Byj944xRheQ{fill: #FF6464;}#S13c4EgRhlX{fill: #FF6464;}#r1acVExA3em{fill: #FF6464;}#BJC5VNlRhxQ{fill: #FF6464;}#BJJoN4e0ng7{opacity: 0.8;}#rJli4VlCheQ{fill: #5A5A7A;}#SkWj44gR3lm{opacity: 0.3;}#ryGjVElAnlQ{fill: #A2B2D6;}#Bk7iVNg03xQ{fill: #9EBFD8;}#HyVsVEx03xm{fill: #E2F1FF;}#B1SiEEg0nxQ{fill: #FFFFFF;}#S1UoVVgA3x7{fill: #FFFFFF;}#ryws4VeA2eQ{fill: #9EBFD8;}#rJh74ElAhgm_HJ7rl03l7{-webkit-animation-name: rJh74ElAhgm_HJ7rl03l7_Animation;animation-name: rJh74ElAhgm_HJ7rl03l7_Animation;-webkit-transform-origin: 100% 50%;transform-origin: 100% 50%;transform-box: fill-box;}#rJuNENxChl7{-webkit-animation-name: rJuNENxChl7_Animation;animation-name: rJuNENxChl7_Animation;-webkit-transform-origin: 50% 50%;transform-origin: 50% 50%;transform-box: fill-box;}#HyqHNEeA3xm{-webkit-transform-origin: 50% 50%;transform-origin: 50% 50%;transform-box: fill-box;}#H1x8V4eC2x7{-webkit-transform-origin: 50% 50%;transform-origin: 50% 50%;transform-box: fill-box;}#rJIUE4lA2g7{-webkit-transform-origin: 50% 50%;transform-origin: 50% 50%;transform-box: fill-box;}#S13UEExC3e7{-webkit-transform-origin: 50% 50%;transform-origin: 50% 50%;transform-box: fill-box;}#ByBKNNlRngQ{-webkit-animation-name: ByBKNNlRngQ_Animation;animation-name: ByBKNNlRngQ_Animation;-webkit-transform-origin: 50% 50%;transform-origin: 50% 50%;transform-box: fill-box;}#HJ5FNNlRnxm{-webkit-animation-name: HJ5FNNlRnxm_Animation;animation-name: HJ5FNNlRnxm_Animation;-webkit-transform-origin: 50% 50%;transform-origin: 50% 50%;transform-box: fill-box;}#Syb9EEeAhl7{-webkit-animation-name: Syb9EEeAhl7_Animation;animation-name: Syb9EEeAhl7_Animation;-webkit-transform-origin: 50% 50%;transform-origin: 50% 50%;transform-box: fill-box;}#Bk5q4Vg0ngm{-webkit-transform-origin: 50% 50%;transform-origin: 50% 50%;transform-box: fill-box;}</style>

<title>Asset 24</title>
<g id="Hyg4Nx0nxQ">
	<path d="M6,5.7h328.8c1,0,1.8,0.8,1.8,1.8v474.4c0,1-0.8,1.8-1.8,1.8H6c-1,0-1.8-0.8-1.8-1.8V7.5C4.2,6.5,5,5.7,6,5.7z&#10;&#9;&#9;" id="r1ZEEe03lm"/>
</g>
<path d="M11.8,1.1h328.8c1,0,1.8,0.8,1.8,1.8v470.7c0,1-0.8,1.8-1.8,1.8H11.8c-1,0-1.8-0.8-1.8-1.8V2.9&#10;&#9;C10,1.9,10.8,1.1,11.8,1.1z" id="B1GN4xA3l7"/>
<path d="M103.6,0h145.7c1,0,1.8,0.8,1.8,1.8v37.9c0,1-0.8,1.8-1.8,1.8H103.6c-1,0-1.8-0.8-1.8-1.8V1.8&#10;&#9;C101.8,0.8,102.6,0,103.6,0z" id="BkX4EgAhgQ"/>
<g id="HJ44NgAhl7">
	<path d="M240.8,6.1H109.7c-2.7,0-4.9,2.2-4.9,4.9c0,0,0,0,0,0v28.8c0,2.7,2.2,4.9,4.9,4.9h131.1c2.7,0,4.9-2.2,4.9-4.9&#10;&#9;&#9;V11C245.7,8.3,243.5,6.1,240.8,6.1C240.8,6.1,240.8,6.1,240.8,6.1z M242,39.8c0,0.7-0.5,1.2-1.2,1.2H109.7c-0.7,0-1.2-0.6-1.2-1.2&#10;&#9;&#9;V11c0-0.1,0-0.2,0.1-0.3v4c0,1.8,1.4,3.2,3.2,3.2h128.9c0.5,0,1-0.1,1.4-0.3L242,39.8z" id="BkBNEeA2gX"/>
</g>
<g id="HyU44gRheX">
	<polygon points="21.8,436.5 25.7,463.2 49.7,464.1 327.3,464.1 327.3,22.7 21.8,22.7 &#9;" id="H1DNVgRhlX"/>
</g>
<polygon points="24,432.4 32.5,453 52,460.1 328.4,460.1 328.4,20.5 24,20.5 " id="S1ON4lCne7"/>
<path d="M199.1,172.7L199.1,172.7c0.5,0,1,0.4,1,1v1.9c0,0.5-0.4,1-1,1l0,0c-0.5,0-1-0.4-1-1v-1.9&#10;&#9;C198.1,173.1,198.6,172.7,199.1,172.7z" id="r1Y44lR2l7"/>
<path d="M199.1,239L199.1,239c0.5,0,1,0.4,1,1v1.9c0,0.5-0.4,1-1,1l0,0c-0.5,0-1-0.4-1-1v-1.9&#10;&#9;C198.1,239.4,198.5,239,199.1,239z" id="Sk9NEx03xm"/>
<path d="M237.6,166.3L237.6,166.3c0.5,0,1,0.4,1,1v1.9c0,0.5-0.4,1-1,1l0,0c-0.5,0-1-0.4-1-1v-1.9&#10;&#9;C236.6,166.7,237,166.3,237.6,166.3z" id="rJiVEgC3eX"/>
<path d="M237.5,239L237.5,239c0.5,0,1,0.4,1,1v1.9c0,0.5-0.4,1-1,1l0,0c-0.5,0-1-0.4-1-1V240&#10;&#9;C236.6,239.4,237,239,237.5,239z" id="BJhENlAnlQ"/>
<path d="M170.1,197.9L170.1,197.9c0.5,0,1,0.4,1,1v3.9c0,0.5-0.4,1-1,1l0,0c-0.5,0-1-0.4-1-1v-3.9&#10;&#9;C169.1,198.3,169.5,197.9,170.1,197.9z" id="rJaVVxCng7"/>
<path d="M170,237.4L170,237.4c0.5,0,1,0.4,1,1v1.9c0,0.5-0.4,1-1,1l0,0c-0.5,0-1-0.4-1-1v-1.9&#10;&#9;C169.1,237.8,169.5,237.4,170,237.4z" id="ByAVNeRhg7"/>
<path d="M93.9,172.6L93.9,172.6c0.5,0,1,0.4,1,1v1.9c0,0.5-0.4,1-1,1l0,0c-0.5,0-1-0.4-1-1v-1.9&#10;&#9;C92.9,173,93.4,172.6,93.9,172.6z" id="HJ1gVExAhlm"/>
<path d="M93.9,238.9L93.9,238.9c0.5,0,1,0.4,1,1v1.9c0,0.5-0.4,1-1,1l0,0c-0.5,0-1-0.4-1-1v-1.9&#10;&#9;C92.9,239.3,93.3,238.9,93.9,238.9z" id="BkgxVNlRneX"/>
<g id="S1WgE4gAhlQ">
	<g id="Hyze4NxRnl7">
		<path d="M275.6,226.9c-96.1,0-69.9-113.2-127.7-116.1c-53.1-2.6-43.5,85.6-80.6,85.6l0.9,44.2l226.7-0.4l-1.9-13.9&#10;&#9;&#9;&#9;C287.5,226.7,281.7,226.9,275.6,226.9z" id="rkQl4VeC3e7"/>
	</g>
	<g id="HkElN4gRhlX">
		<path d="M261.1,186.9c-24.2-26.9-54.2-30.5-84.8,6.8c-19.1,23.3-47.2,16-60.6-0.8c-8.7-10.9-22.9-28.1-47.8-28.1&#10;&#9;&#9;&#9;l0.2,75.9l226.7-0.4l-1.2-36.7C282.1,203.4,270.7,197.6,261.1,186.9z" id="HySlNNeR2xm"/>
	</g>
	<g id="HyLlVNxC2eX">
		<path d="M170.3,120l-0.4,120.5h29.6l-0.3-66.8C189.6,153.1,183.2,131.8,170.3,120z" id="BJPgVVx0hl7"/>
	</g>
	<g id="ByOeV4g02gm">
		<path d="M275.6,226.9c-46.2,0-64.2-26.2-76.8-53.7c-7.4,4.5-15,11.2-22.6,20.4c-19.1,23.3-47.2,16-60.6-0.8&#10;&#9;&#9;&#9;c-5.1-6.4-12.1-15-22.1-21c-6.1,13.6-13.2,24.1-25.7,24.5l0.1,44.2l226.7-0.4l-1.9-13.9C287.5,226.7,281.7,226.9,275.6,226.9z" id="B1KeEEeAngm"/>
	</g>
	<path d="M199.1,209.7L199.1,209.7c0.5,0,1,0.4,1,1v3.9c0,0.5-0.4,1-1,1l0,0c-0.5,0-1-0.4-1-1v-3.9&#10;&#9;&#9;C198.1,210.1,198.5,209.7,199.1,209.7z" id="Hy5gNEgRhlX"/>
	<path d="M199.1,219.5L199.1,219.5c0.5,0,1,0.4,1,1v3.9c0,0.5-0.4,1-1,1l0,0c-0.5,0-1-0.4-1-1v-3.9&#10;&#9;&#9;C198.1,219.9,198.5,219.5,199.1,219.5z" id="rkie4ElC2gQ"/>
	<path d="M199.1,229.2L199.1,229.2c0.5,0,1,0.4,1,1v3.9c0,0.5-0.4,1-1,1l0,0c-0.5,0-1-0.4-1-1v-3.9&#10;&#9;&#9;C198.1,229.6,198.5,229.2,199.1,229.2z" id="r12e4Eg0hlQ"/>
	<path d="M199.1,199.9L199.1,199.9c0.5,0,1,0.4,1,1v3.9c0,0.5-0.4,1-1,1l0,0c-0.5,0-1-0.4-1-1v-3.9&#10;&#9;&#9;C198.1,200.4,198.5,199.9,199.1,199.9z" id="rkTg4Eg0heQ"/>
	<path d="M199.1,190.2L199.1,190.2c0.5,0,1,0.4,1,1v3.9c0,0.5-0.4,1-1,1l0,0c-0.5,0-1-0.4-1-1v-3.9&#10;&#9;&#9;C198.1,190.6,198.5,190.2,199.1,190.2z" id="B1CxVElA3xQ"/>
	<path d="M199.1,180.4L199.1,180.4c0.5,0,1,0.4,1,1v3.9c0,0.5-0.4,1-1,1l0,0c-0.5,0-1-0.4-1-1v-3.9&#10;&#9;&#9;C198.1,180.9,198.6,180.4,199.1,180.4z" id="HJkb4Ve02xX"/>
	<path d="M237.5,211.1L237.5,211.1c0.5,0,1,0.4,1,1v3.7c0,0.5-0.4,1-1,1l0,0c-0.5,0-1-0.4-1-1V212&#10;&#9;&#9;C236.6,211.5,237,211.1,237.5,211.1z" id="rkxbENlCnem"/>
	<path d="M237.5,220.4L237.5,220.4c0.5,0,1,0.4,1,1v3.7c0,0.5-0.4,1-1,1l0,0c-0.5,0-1-0.4-1-1v-3.7&#10;&#9;&#9;C236.6,220.8,237,220.4,237.5,220.4z" id="BkWZEEeC3x7"/>
	<path d="M237.5,229.7L237.5,229.7c0.5,0,1,0.4,1,1v3.7c0,0.5-0.4,1-1,1l0,0c-0.5,0-1-0.4-1-1v-3.7&#10;&#9;&#9;C236.6,230.1,237,229.7,237.5,229.7z" id="S1MZNNeR3gX"/>
	<path d="M237.5,201.8L237.5,201.8c0.5,0,1,0.4,1,1v3.7c0,0.5-0.4,1-1,1l0,0c-0.5,0-1-0.4-1-1v-3.7&#10;&#9;&#9;C236.6,202.2,237,201.8,237.5,201.8z" id="HJ7W4NlChxm"/>
	<path d="M237.6,173.8L237.6,173.8c0.5,0,1,0.4,1,1v3.7c0,0.5-0.4,1-1,1l0,0c-0.5,0-1-0.4-1-1v-3.7&#10;&#9;&#9;C236.6,174.2,237,173.8,237.6,173.8z" id="ryNbNEe0nxm"/>
	<path d="M237.5,192.4L237.5,192.4c0.5,0,1,0.4,1,1v3.7c0,0.5-0.4,1-1,1l0,0c-0.5,0-1-0.4-1-1v-3.7&#10;&#9;&#9;C236.6,192.9,237,192.4,237.5,192.4z" id="SJr-4VxRhe7"/>
	<path d="M237.5,183.1L237.5,183.1c0.5,0,1,0.4,1,1v3.7c0,0.5-0.4,1-1,1l0,0c-0.5,0-1-0.4-1-1v-3.7&#10;&#9;&#9;C236.6,183.5,237,183.1,237.5,183.1z" id="S1UZVNx03gm"/>
	<path d="M170.1,121L170.1,121c0.5,0,1,0.4,1,1v1.9c0,0.5-0.4,1-1,1l0,0c-0.5,0-1-0.4-1-1V122&#10;&#9;&#9;C169.1,121.4,169.6,121,170.1,121z" id="H1vWVVxR3l7"/>
	<path d="M170.1,188L170.1,188c0.5,0,1,0.4,1,1v3.9c0,0.5-0.4,1-1,1l0,0c-0.5,0-1-0.4-1-1V189&#10;&#9;&#9;C169.1,188.5,169.5,188,170.1,188z" id="B1_b4NgC2lm"/>
	<path d="M170.1,207.8L170.1,207.8c0.5,0,1,0.4,1,1v3.9c0,0.5-0.4,1-1,1l0,0c-0.5,0-1-0.4-1-1v-3.9&#10;&#9;&#9;C169.1,208.2,169.5,207.8,170.1,207.8z" id="HytWEVxRhg7"/>
	<path d="M170.1,178.2L170.1,178.2c0.5,0,1,0.4,1,1v3.9c0,0.5-0.4,1-1,1l0,0c-0.5,0-1-0.4-1-1v-3.9&#10;&#9;&#9;C169.1,178.6,169.5,178.2,170.1,178.2z" id="rJcZVEeR2lX"/>
	<path d="M170.1,217.6L170.1,217.6c0.5,0,1,0.4,1,1v3.9c0,0.5-0.4,1-1,1l0,0c-0.5,0-1-0.4-1-1v-3.9&#10;&#9;&#9;C169.1,218.1,169.5,217.6,170.1,217.6z" id="rksZENeR2eQ"/>
	<path d="M170,227.5L170,227.5c0.5,0,1,0.4,1,1v3.9c0,0.5-0.4,1-1,1l0,0c-0.5,0-1-0.4-1-1v-3.9&#10;&#9;&#9;C169.1,227.9,169.5,227.5,170,227.5z" id="By2ZNVeRhgQ"/>
	<path d="M170.1,128.8L170.1,128.8c0.5,0,1,0.4,1,1v3.9c0,0.5-0.4,1-1,1l0,0c-0.5,0-1-0.4-1-1v-3.9&#10;&#9;&#9;C169.1,129.3,169.6,128.8,170.1,128.8z" id="HJabVEeR2gQ"/>
	<path d="M170.1,138.7L170.1,138.7c0.5,0,1,0.4,1,1v3.9c0,0.5-0.4,1-1,1l0,0c-0.5,0-1-0.4-1-1v-3.9&#10;&#9;&#9;C169.1,139.1,169.6,138.7,170.1,138.7z" id="B1Cb44lChg7"/>
	<path d="M170.1,148.6L170.1,148.6c0.5,0,1,0.4,1,1v3.9c0,0.5-0.4,1-1,1l0,0c-0.5,0-1-0.4-1-1v-3.9&#10;&#9;&#9;C169.1,149,169.6,148.6,170.1,148.6z" id="BkkGVNxChe7"/>
	<path d="M170.1,158.4L170.1,158.4c0.5,0,1,0.4,1,1v3.9c0,0.5-0.4,1-1,1l0,0c-0.5,0-1-0.4-1-1v-3.9&#10;&#9;&#9;C169.1,158.9,169.6,158.4,170.1,158.4z" id="SyxGV4g03gm"/>
	<path d="M170.1,168.3L170.1,168.3c0.5,0,1,0.4,1,1v3.9c0,0.5-0.4,1-1,1l0,0c-0.5,0-1-0.4-1-1v-3.9&#10;&#9;&#9;C169.1,168.7,169.5,168.3,170.1,168.3z" id="H1ZGVVeChgX"/>
	<path d="M93.9,229.2L93.9,229.2c0.5,0,1,0.4,1,1v3.9c0,0.5-0.4,1-1,1l0,0c-0.5,0-1-0.4-1-1v-3.9&#10;&#9;&#9;C92.9,229.6,93.3,229.2,93.9,229.2z" id="rkGzV4e03em"/>
	<path d="M93.9,219.4L93.9,219.4c0.5,0,1,0.4,1,1v3.9c0,0.5-0.4,1-1,1l0,0c-0.5,0-1-0.4-1-1v-3.9&#10;&#9;&#9;C92.9,219.8,93.3,219.4,93.9,219.4z" id="HJmMNVl0ng7"/>
	<path d="M93.9,209.6L93.9,209.6c0.5,0,1,0.4,1,1v3.9c0,0.5-0.4,1-1,1l0,0c-0.5,0-1-0.4-1-1v-3.9&#10;&#9;&#9;C92.9,210.1,93.3,209.6,93.9,209.6z" id="rkEz4VeR2em"/>
	<path d="M93.9,190.1L93.9,190.1c0.5,0,1,0.4,1,1v3.9c0,0.5-0.4,1-1,1l0,0c-0.5,0-1-0.4-1-1v-3.9&#10;&#9;&#9;C92.9,190.6,93.3,190.1,93.9,190.1z" id="rkBfNEeCnlX"/>
	<path d="M93.9,199.9L93.9,199.9c0.5,0,1,0.4,1,1v3.9c0,0.5-0.4,1-1,1l0,0c-0.5,0-1-0.4-1-1v-3.9&#10;&#9;&#9;C92.9,200.3,93.3,199.9,93.9,199.9z" id="B1LfEElCnx7"/>
	<path d="M93.9,180.4L93.9,180.4c0.5,0,1,0.4,1,1v3.9c0,0.5-0.4,1-1,1l0,0c-0.5,0-1-0.4-1-1v-3.9&#10;&#9;&#9;C92.9,180.8,93.4,180.4,93.9,180.4z" id="rkPMNEgAnl7"/>
	<path d="M275.6,225.6c-14.6,0-26.9-2.6-37.5-7.9L237,220c11,5.5,23.6,8.2,38.7,8.2h0.1c5.9,0,11.7-0.2,17.2-0.6&#10;&#9;&#9;l-0.2-2.5C287.3,225.4,281.5,225.6,275.6,225.6z" id="rk_MEVx03gX"/>
	<path d="M193.8,158.1c-10.2-24.3-19.9-47.3-45.8-48.6c-29.9-1.5-40.6,25.2-50,48.7c-7.6,19-14.7,36.8-30.7,36.8l0,0&#10;&#9;&#9;v2.6l0,0c17.7,0,25.1-18.7,33-38.5c9.5-23.9,19.4-48.5,47.5-47.1c24.3,1.2,33.2,22.4,43.6,47c9.5,22.6,20.3,48.2,45.6,60.9l1.1-2.3&#10;&#9;&#9;C213.6,205.4,203.1,180.3,193.8,158.1z" id="H1KGEElRnlm"/>
	<path d="M261.9,186.2c-19.9-22.1-41.8-26.9-63.4-13.9l1.1,1.7c26.1-15.7,47.5-1.3,60.9,13.5&#10;&#9;&#9;c9.7,10.8,21.5,16.9,33.2,17v-2C282.5,202.4,271.2,196.6,261.9,186.2z" id="ByqGVVgChgm"/>
	<path d="M175.6,193.1c-1.9,2.3-4,4.5-6.4,6.4l1.3,1.6c2.4-2,4.6-4.2,6.6-6.6c7.3-8.9,14.9-15.7,22.4-20.3l-1.1-1.7&#10;&#9;&#9;C190.7,177,183,184,175.6,193.1z" id="HJjM44l03eQ"/>
	<path d="M143.4,207.3c-10.6-1.3-20.2-6.7-26.8-15c-7.9-9.9-22.6-28.5-48.6-28.5v2c25,0,39.3,18,47,27.7&#10;&#9;&#9;c7,8.7,17.1,14.4,28.2,15.8c9.9,1.1,19.7-1.9,27.3-8.3l-1.3-1.6C162,205.5,152.7,208.3,143.4,207.3z" id="HJnfVNxA2lm"/>
</g>
<g id="SJaMNNeA3gQ">
	<path d="M93.9,168.5c-1.9,0-3.3,1.5-3.3,3.4c0,1.9,1.5,3.3,3.3,3.3c1.9,0,3.3-1.5,3.3-3.3S95.7,168.5,93.9,168.5&#10;&#9;&#9;C93.9,168.5,93.9,168.5,93.9,168.5z" id="HJCMNNlChg7"/>
	<path d="M93.9,167.6c-2.4,0-4.3,1.9-4.3,4.3c0,2.4,1.9,4.3,4.3,4.3c0,0,0,0,0,0l0,0c2.4,0,4.3-1.9,4.3-4.3&#10;&#9;&#9;c0-1.1-0.4-2.2-1.2-3C96.1,168,95,167.6,93.9,167.6z M93.9,174.3L93.9,174.3c-1.3,0-2.4-1.1-2.4-2.4s1.1-2.4,2.4-2.4&#10;&#9;&#9;s2.4,1.1,2.4,2.4l0,0C96.3,173.2,95.2,174.3,93.9,174.3C93.9,174.3,93.9,174.3,93.9,174.3z" id="B1y7VNl03gX"/>
</g>
<g id="rygQE4eChxQ">
	<path d="M199.1,170.3c-1.9,0-3.3,1.5-3.3,3.4s1.5,3.3,3.4,3.3c1.9,0,3.3-1.5,3.3-3.3&#10;&#9;&#9;C202.4,171.8,201,170.3,199.1,170.3C199.1,170.3,199.1,170.3,199.1,170.3z" id="rybQEVgA3em"/>
	<path d="M199.1,169.3c-2.4-0.1-4.4,1.7-4.5,4.1c-0.1,2.4,1.7,4.4,4.1,4.5c0.1,0,0.3,0,0.4,0l0,0&#10;&#9;&#9;c2.4-0.1,4.2-2.1,4.1-4.5C203.1,171.2,201.3,169.4,199.1,169.3z M199.1,176L199.1,176c-1.3,0-2.4-1.1-2.4-2.4&#10;&#9;&#9;c0-1.3,1.1-2.4,2.4-2.4c1.3,0,2.4,1.1,2.4,2.4C201.5,175,200.4,176,199.1,176z" id="S1G7NVlChgX"/>
</g>
<path d="M170.3,116.3c-1.9,0-3.3,1.5-3.3,3.4s1.5,3.3,3.4,3.3c1.9,0,3.3-1.5,3.3-3.4c0,0,0,0,0,0&#10;&#9;C173.6,117.8,172.1,116.3,170.3,116.3C170.3,116.3,170.3,116.3,170.3,116.3z" id="ryQmVNxA2xX"/>
<path d="M237.9,165.8c-1.9,0-3.4,1.5-3.4,3.3s1.5,3.4,3.3,3.4s3.4-1.5,3.4-3.3c0,0,0,0,0,0&#10;&#9;C241.2,167.3,239.7,165.8,237.9,165.8z" id="r1E7EVlChx7"/>
<path d="M107.5,136.2c-1.9,0-3.3,1.5-3.3,3.4c0,1.9,1.5,3.3,3.3,3.3c1.9,0,3.3-1.5,3.3-3.3S109.4,136.2,107.5,136.2&#10;&#9;C107.5,136.2,107.5,136.2,107.5,136.2z" id="H1r7NEe0ngX"/>
<g id="HyLm44gCnx7">
	<path d="M170.3,195.9c-2.4-0.1-4.4,1.7-4.5,4.1c-0.1,2.4,1.7,4.4,4.1,4.5c0.1,0,0.3,0,0.4,0l0,0&#10;&#9;&#9;c2.4-0.1,4.2-2.1,4.1-4.5C174.3,197.8,172.5,196,170.3,195.9z" id="Bkw7EEgCnlX"/>
	<path d="M170.3,194.9L170.3,194.9c-2.9,0-5.3,2.4-5.3,5.3c0,2.9,2.4,5.3,5.3,5.3c2.9,0,5.3-2.3,5.3-5.2&#10;&#9;&#9;C175.5,197.3,173.2,194.9,170.3,194.9z M170.3,203.5L170.3,203.5c-1.8,0.1-3.4-1.3-3.5-3.2s1.3-3.4,3.2-3.5c0.1,0,0.2,0,0.4,0l0,0&#10;&#9;&#9;c1.8,0.1,3.3,1.7,3.2,3.5C173.3,202.1,172,203.4,170.3,203.5z" id="SkOm4Ex0hem"/>
</g>
<g id="BJFXEVeA3gm">
	<path d="M237.5,214.4c-2.4,0-4.3,1.9-4.3,4.3c0,2.4,1.9,4.3,4.3,4.3l0,0l0,0c2.4,0,4.3-1.9,4.3-4.3&#10;&#9;&#9;c0-1.1-0.4-2.2-1.2-3C239.8,214.9,238.7,214.4,237.5,214.4z" id="Hy5m44g0nlX"/>
	<path d="M237.5,213.4L237.5,213.4c-2.9,0-5.3,2.4-5.3,5.3s2.4,5.3,5.3,5.3c2.9,0,5.3-2.4,5.3-5.3v0&#10;&#9;&#9;C242.8,215.8,240.4,213.4,237.5,213.4z M237.5,222.1L237.5,222.1c-1.9,0-3.4-1.5-3.4-3.3c0-1.9,1.5-3.4,3.3-3.4c0,0,0,0,0,0l0,0&#10;&#9;&#9;c1.9,0,3.3,1.5,3.3,3.4C240.9,220.6,239.4,222,237.5,222.1z" id="BksmENgC3x7"/>
</g>
<g id="rJh74ElAhgm_HJ7rl03l7" data-animator-group="true" data-animator-type="2"><rect x="63.1" y="87.6" width="240.4" height="155.2" id="rJh74ElAhgm"/></g>
<polygon points="303.4,240.7 290.7,235.6 292.8,239.1 69.8,239 69.8,98.2 73.4,100.3 68.2,87.6 63.1,100.3 66.6,98.2 &#10;&#9;66.6,242.2 292.8,242.3 290.7,245.9 " id="HJamEEx03xQ"/>
<path d="M94.1,237.4c-1.9,0-3.4,1.5-3.4,3.3c0,1.9,1.5,3.4,3.3,3.4c1.9,0,3.4-1.5,3.4-3.3c0,0,0,0,0,0&#10;&#9;C97.4,238.9,95.9,237.4,94.1,237.4C94.1,237.4,94.1,237.4,94.1,237.4z" id="ryRQVElR2eX"/>
<g id="HJJEENg0nx7">
	<path d="M68.4,161.7c-1.9,0-3.3,1.5-3.3,3.4c0,1.9,1.5,3.3,3.3,3.3c1.9,0,3.3-1.5,3.3-3.3&#10;&#9;&#9;C71.7,163.2,70.3,161.7,68.4,161.7C68.4,161.7,68.4,161.7,68.4,161.7z" id="SyxVNVx0ne7"/>
	<path d="M68.4,160.8c-2.4,0.1-4.2,2.1-4.1,4.5c0.1,2.2,1.9,4,4.1,4.1l0,0c2.4,0.1,4.4-1.7,4.5-4.1&#10;&#9;&#9;c0.1-2.4-1.7-4.4-4.1-4.5C68.7,160.7,68.5,160.7,68.4,160.8z M68.4,167.4L68.4,167.4c-1.3,0-2.4-1.1-2.4-2.4s1.1-2.4,2.4-2.4&#10;&#9;&#9;c1.3,0,2.4,1.1,2.4,2.4c0,0,0,0,0,0C70.8,166.4,69.7,167.4,68.4,167.4z" id="HybNVElC3e7"/>
</g>
<g id="SJGE4VxRhgQ">
	<path d="M68.6,193c-1.9,0-3.3,1.5-3.3,3.4c0,1.9,1.5,3.3,3.3,3.3c1.9,0,3.3-1.5,3.3-3.3C71.9,194.5,70.5,193,68.6,193&#10;&#9;&#9;C68.6,193,68.6,193,68.6,193z" id="r1QVNNeC3gQ"/>
	<path d="M68.6,192c-2.4-0.1-4.4,1.7-4.5,4.1c-0.1,2.4,1.7,4.4,4.1,4.5c0.1,0,0.3,0,0.4,0l0,0c2.4-0.1,4.2-2.1,4.1-4.5&#10;&#9;&#9;C72.6,193.9,70.8,192.1,68.6,192z M68.6,198.7L68.6,198.7c-1.3,0-2.4-1.1-2.4-2.4s1.1-2.4,2.4-2.4c1.3,0,2.4,1.1,2.4,2.4&#10;&#9;&#9;C71,197.6,69.9,198.7,68.6,198.7C68.6,198.7,68.6,198.7,68.6,198.7L68.6,198.7z" id="Hk4NE4eA2em"/>
</g>
<path d="M199.3,237.4c-1.9,0-3.4,1.5-3.4,3.3s1.5,3.4,3.3,3.4s3.4-1.5,3.4-3.3c0,0,0,0,0,0&#10;&#9;C202.6,238.9,201.1,237.4,199.3,237.4z" id="SJHN4ExC3e7"/>
<path d="M238,237.4c-1.9,0-3.4,1.5-3.4,3.3s1.5,3.4,3.3,3.4s3.4-1.5,3.4-3.3c0,0,0,0,0,0&#10;&#9;C241.3,239,239.8,237.5,238,237.4z" id="B1LEN4eR3lX"/>
<path d="M170.3,237.4c-1.9,0-3.4,1.5-3.4,3.3s1.5,3.4,3.3,3.4s3.4-1.5,3.4-3.3c0,0,0,0,0,0&#10;&#9;C173.6,238.9,172.1,237.4,170.3,237.4z" id="HyD4NEl0nxQ"/>
<g id="rJuNENxChl7">
	<polygon points="175.7,100.3 175.2,113.6 188.2,114.1 185.3,106.4 &#9;" id="BJYNE4g03gX"/>
	<path d="M188.3,90c-6.3,0-11.5,5.1-11.5,11.5c0,6.3,5.1,11.5,11.4,11.5c0,0,0,0,0.1,0l0,0c6.3,0,11.5-5.1,11.5-11.5&#10;&#9;&#9;C199.8,95.2,194.7,90,188.3,90C188.4,90,188.3,90,188.3,90z" id="rk5EVEeR2e7"/>
	<path d="M188.3,88.9L188.3,88.9c-7,0-12.6,5.6-12.6,12.6c0,7,5.6,12.6,12.6,12.6c7,0,12.6-5.6,12.6-12.6&#10;&#9;&#9;C200.9,94.5,195.3,88.9,188.3,88.9L188.3,88.9z M188.3,111.8L188.3,111.8c-5.7,0-10.3-4.6-10.3-10.3c0-5.7,4.6-10.3,10.3-10.3&#10;&#9;&#9;c0,0,0,0,0,0l0,0c5.7,0,10.3,4.6,10.3,10.3C198.6,107.2,194,111.8,188.3,111.8z" id="HJsVE4gRhgm"/>
	<path d="M187.6,100.6c0.4-0.4,0.7-0.9,0.7-1.4c0-0.3-0.1-0.6-0.2-0.8c-0.1-0.3-0.3-0.5-0.5-0.7&#10;&#9;&#9;c-0.2-0.2-0.5-0.3-0.7-0.4c-0.3-0.1-0.6-0.2-0.9-0.2c-0.3,0-0.6,0.1-0.9,0.2c-0.3,0.1-0.5,0.2-0.7,0.4c-0.2,0.2-0.4,0.4-0.5,0.6&#10;&#9;&#9;c-0.3,0.8-0.1,1.7,0.5,2.2c-0.3,0.2-0.6,0.5-0.7,0.8c-0.2,0.3-0.2,0.7-0.2,1c0,0.6,0.3,1.2,0.7,1.7c0.2,0.2,0.5,0.4,0.8,0.5&#10;&#9;&#9;c0.3,0.1,0.7,0.2,1.1,0.2c0.4,0,0.7-0.1,1.1-0.2c0.3-0.1,0.6-0.3,0.8-0.5c0.2-0.2,0.4-0.5,0.5-0.8c0.1-0.3,0.2-0.6,0.2-0.9&#10;&#9;&#9;C188.5,101.6,188.2,100.9,187.6,100.6z M185.4,98.7c0.1-0.1,0.3-0.2,0.5-0.2c0.2,0,0.4,0.1,0.5,0.2c0.3,0.3,0.3,0.8,0,1.1&#10;&#9;&#9;c-0.1,0.1-0.3,0.2-0.5,0.2c-0.1,0-0.2,0-0.3-0.1c-0.1,0-0.2-0.1-0.2-0.2c-0.1-0.1-0.1-0.2-0.2-0.2c0-0.1-0.1-0.2-0.1-0.3&#10;&#9;&#9;C185.2,99.1,185.2,98.9,185.4,98.7z M186.8,102.7c0,0.1-0.1,0.2-0.2,0.3c-0.1,0.1-0.2,0.2-0.3,0.2c-0.1,0-0.2,0.1-0.4,0.1&#10;&#9;&#9;c-0.1,0-0.3,0-0.4-0.1c-0.1-0.1-0.2-0.1-0.3-0.2c-0.1-0.1-0.2-0.2-0.2-0.3c-0.1-0.1-0.1-0.3-0.1-0.4c0-0.3,0.1-0.5,0.3-0.8&#10;&#9;&#9;c0.1-0.1,0.2-0.2,0.3-0.2c0.1-0.1,0.2-0.1,0.4-0.1c0.3,0,0.5,0.1,0.7,0.3c0.2,0.2,0.3,0.5,0.3,0.8&#10;&#9;&#9;C186.9,102.4,186.9,102.5,186.8,102.7z" id="H1hE4ExAhlX"/>
	<path d="M193.2,103h-1.5c0.4-0.4,0.8-0.8,1.1-1.1c0.3-0.3,0.5-0.6,0.8-0.9c0.2-0.3,0.4-0.6,0.5-0.9&#10;&#9;&#9;c0.1-0.3,0.2-0.6,0.2-0.9c0-0.3-0.1-0.6-0.2-0.8c-0.1-0.3-0.3-0.5-0.5-0.7c-0.2-0.2-0.5-0.4-0.7-0.5c-0.3-0.1-0.7-0.2-1-0.2&#10;&#9;&#9;c-0.4,0-0.7,0.1-1.1,0.2c-0.6,0.3-1,0.8-1.2,1.4c-0.1,0.2-0.1,0.4-0.1,0.7c0,0.2,0.1,0.5,0.2,0.6c0.2,0.2,0.4,0.2,0.6,0.2&#10;&#9;&#9;c0.2,0,0.4-0.1,0.5-0.2c0.1-0.2,0.2-0.4,0.3-0.6c0.1-0.2,0.2-0.4,0.4-0.6c0.1-0.1,0.3-0.2,0.4-0.2c0.2,0,0.3,0.1,0.4,0.2&#10;&#9;&#9;c0.1,0.1,0.2,0.3,0.2,0.5c0,0.4-0.2,0.8-0.5,1.1c-0.3,0.4-0.8,1-1.4,1.6c-0.4,0.4-0.7,0.8-1,1.1c-0.2,0.2-0.3,0.4-0.4,0.7&#10;&#9;&#9;c0,0.5,0.3,0.8,1,0.8h2.9c0.8,0,1.2-0.3,1.2-0.8S194,103,193.2,103z" id="BJaE4VxRne7"/>
</g>
<path d="M178,333.3c-27.4,0.1-52.7,14.8-66.2,38.7l8.2,4.7c18-32,58.5-43.4,90.6-25.4c10.7,6,19.5,14.8,25.4,25.4&#10;&#9;l8.2-4.6C230.7,348.2,205.4,333.4,178,333.3z" id="SkRE44lA3l7"/>
<path d="M148.7,367.6l7.4,10.2c12.7-9.2,29.7-9.5,42.7-0.7l7-10.4C188.4,355,165.6,355.4,148.7,367.6L148.7,367.6z" id="HkJS44lAhgX"/>
<path d="M221.3,357.5c-27.9-24-69.9-20.8-93.9,7.1c-8,9.3-13.2,20.5-15.2,32.6l12.4,2c4.8-29.4,32.6-49.4,62-44.5&#10;&#9;c22.9,3.8,40.8,21.7,44.5,44.7l12.4-2C241.2,381.9,233.2,367.8,221.3,357.5z" id="r1eBN4g0ngX"/>
<path d="M178,351.7c-31.1,0-56.3,25.2-56.4,56.3c0,2,0.1,4,0.3,5.9l8.8-0.9c-0.2-1.7-0.3-3.3-0.3-5&#10;&#9;c0.8-26.2,22.6-46.9,48.9-46.1c25.2,0.7,45.4,21,46.1,46.1c0,1.6-0.1,3.2-0.2,4.9l8.8,0.9c0.2-1.9,0.3-3.8,0.3-5.8&#10;&#9;C234.2,376.9,209.1,351.8,178,351.7z" id="ByZrN4xRhl7"/>
<path d="M223.9,324.1L195,369.4l1.6,1l28.7-44.9h56.3v-1.9h-56.9C224.4,323.6,224.1,323.8,223.9,324.1z" id="HyzBNVxA2gm"/>
<path d="M133.7,323.6H79.6v1.9h53.6l12.1,18.9l1.6-1l-12.4-19.4C134.3,323.8,134,323.6,133.7,323.6z" id="BymHNVl0neQ"/>
<rect x="235" y="384" width="46.6" height="1.9" id="SJVH44xAhgQ"/>
<rect x="79.6" y="384" width="50.7" height="1.9" id="SyHH4VxR3lm"/>
<circle cx="146.3" cy="344.4" r="2" id="HyIHVVgRnem"/>
<circle cx="130.5" cy="385.2" r="2" id="rJwrE4xRhlQ"/>
<path d="M195.8,368c-1.1,0-2,0.9-1.9,2s0.9,2,2,1.9c1.1,0,1.9-0.9,1.9-2C197.9,368.9,197,368,195.8,368&#10;&#9;C195.8,368,195.8,368,195.8,368z" id="BkdS4EeR3eQ"/>
<path d="M234.8,382.9c-1.1,0-2,0.9-2,2s0.9,2,2,2s2-0.9,2-2S235.9,382.9,234.8,382.9z" id="ByKS4EgA2l7"/>
<g id="HyqHNEeA3xm">
	<path d="M84,315.5h-1.5l1-1.1c0.3-0.3,0.5-0.6,0.8-0.9c0.2-0.3,0.4-0.6,0.5-0.9c0.1-0.3,0.2-0.6,0.2-0.9&#10;&#9;&#9;c0-0.3-0.1-0.6-0.2-0.8c-0.1-0.3-0.3-0.5-0.5-0.7c-0.2-0.2-0.5-0.3-0.7-0.4c-0.3-0.1-0.6-0.2-0.9-0.2c-0.7,0-1.5,0.3-1.9,0.9&#10;&#9;&#9;c-0.2,0.2-0.3,0.4-0.4,0.7c-0.1,0.2-0.1,0.4-0.1,0.6c0,0.2,0.1,0.4,0.2,0.6c0.2,0.2,0.4,0.2,0.6,0.2c0.2,0,0.4-0.1,0.5-0.2&#10;&#9;&#9;c0.1-0.2,0.2-0.4,0.3-0.6c0.1-0.2,0.2-0.4,0.3-0.5c0.1-0.1,0.3-0.2,0.4-0.2c0.2,0,0.3,0.1,0.4,0.2c0.1,0.1,0.2,0.3,0.2,0.5&#10;&#9;&#9;c0,0.4-0.2,0.8-0.5,1c-0.3,0.4-0.8,1-1.3,1.6c-0.4,0.5-0.7,0.8-1,1.1c-0.2,0.2-0.3,0.4-0.3,0.7c0,0.5,0.3,0.8,1,0.8h3&#10;&#9;&#9;c0.8,0,1.2-0.2,1.2-0.8S84.7,315.5,84,315.5z" id="BysSN4gAneQ"/>
	<path d="M89.2,315.5h-1.5l1-1.1c0.3-0.3,0.5-0.6,0.8-0.9c0.2-0.3,0.4-0.6,0.5-0.9c0.1-0.3,0.2-0.6,0.2-0.9&#10;&#9;&#9;c0-0.3-0.1-0.6-0.2-0.8c-0.1-0.3-0.3-0.5-0.5-0.7c-0.2-0.2-0.5-0.3-0.7-0.4c-0.3-0.1-0.7-0.2-1-0.2c-0.4,0-0.7,0.1-1.1,0.2&#10;&#9;&#9;c-0.6,0.3-1,0.8-1.2,1.4c-0.1,0.2-0.1,0.4-0.1,0.6c0,0.2,0.1,0.4,0.2,0.6c0.2,0.2,0.4,0.2,0.6,0.2c0.2,0,0.4-0.1,0.5-0.2&#10;&#9;&#9;c0.1-0.2,0.2-0.4,0.3-0.6c0.1-0.2,0.2-0.4,0.3-0.5c0.2-0.2,0.6-0.3,0.8,0c0,0,0,0,0,0c0.1,0.1,0.2,0.3,0.2,0.5c0,0.4-0.2,0.8-0.5,1&#10;&#9;&#9;c-0.3,0.4-0.8,1-1.3,1.6l-1,1.1c-0.2,0.2-0.3,0.4-0.3,0.7c0,0.5,0.3,0.8,1,0.8h2.9c0.8,0,1.2-0.2,1.2-0.8S90,315.5,89.2,315.5z" id="S1hSNEeRhgQ"/>
	<path d="M91.8,315.3c-0.5,0-0.9,0.4-0.9,0.9l0,0c0,0.2,0.1,0.5,0.3,0.6c0.2,0.2,0.4,0.3,0.7,0.3c0.1,0,0.2,0,0.4-0.1&#10;&#9;&#9;c0.1,0,0.2-0.1,0.3-0.2c0.1-0.1,0.1-0.2,0.2-0.3c0.1-0.1,0.1-0.2,0.1-0.4c0-0.2-0.1-0.5-0.3-0.6C92.2,315.4,92,315.3,91.8,315.3z" id="HkaSEEgC3xQ"/>
	<path d="M97.2,312.8c-0.2-0.2-0.4-0.4-0.7-0.5c-0.3-0.1-0.6-0.2-0.9-0.2c-0.2,0-0.5,0-0.7,0.1l0.1-0.9h1.7&#10;&#9;&#9;c0.3,0,0.5-0.1,0.7-0.2c0.2-0.1,0.3-0.3,0.2-0.5c0-0.5-0.3-0.8-1-0.8h-2c-0.1,0-0.3,0-0.4,0c-0.1,0-0.2,0.1-0.3,0.1&#10;&#9;&#9;c-0.1,0.1-0.2,0.2-0.2,0.3c-0.1,0.1-0.1,0.3-0.1,0.5l-0.2,1.9c0,0.1,0,0.2,0,0.4c0,0.1,0,0.1,0,0.2c0,0.5,0.2,0.7,0.6,0.7&#10;&#9;&#9;c0.1,0,0.2,0,0.3,0l0.3-0.1l0.3-0.1c0.1,0,0.2,0,0.3,0c0.2,0,0.5,0.1,0.7,0.3c0.2,0.2,0.3,0.5,0.2,0.8c0,0.1-0.1,0.2-0.2,0.3&#10;&#9;&#9;c-0.1,0.1-0.1,0.2-0.2,0.4c-0.1,0.1-0.2,0.2-0.3,0.2c-0.1,0.1-0.3,0.1-0.4,0.1c-0.2,0-0.3,0-0.5-0.1c-0.1-0.1-0.3-0.1-0.4-0.2&#10;&#9;&#9;l-0.4-0.2c-0.3-0.2-0.6-0.1-0.8,0.1c-0.1,0.1-0.2,0.3-0.2,0.5c0,0.2,0.1,0.4,0.2,0.5c0.1,0.2,0.3,0.3,0.5,0.5&#10;&#9;&#9;c0.2,0.1,0.5,0.3,0.7,0.3c0.3,0.1,0.6,0.1,0.9,0.1c0.4,0,0.8-0.1,1.1-0.2c0.6-0.3,1.2-0.8,1.4-1.4c0.1-0.3,0.2-0.7,0.2-1.1&#10;&#9;&#9;c0-0.3-0.1-0.7-0.2-1C97.5,313.2,97.4,313,97.2,312.8z" id="H1Cr4ElChlX"/>
	<path d="M102,313.1c0.3-0.2,0.5-0.4,0.6-0.7c0.1-0.2,0.2-0.5,0.2-0.8c0-0.3-0.1-0.5-0.2-0.8c-0.1-0.2-0.3-0.4-0.4-0.6&#10;&#9;&#9;c-0.2-0.2-0.4-0.3-0.7-0.4c-0.3-0.1-0.6-0.2-0.9-0.2c-0.3,0-0.6,0.1-0.9,0.2c-0.3,0.1-0.5,0.2-0.7,0.4c-0.2,0.2-0.4,0.3-0.5,0.5&#10;&#9;&#9;c-0.1,0.2-0.2,0.4-0.2,0.6c0,0.2,0.1,0.4,0.2,0.5c0.3,0.2,0.7,0.3,0.9,0l0.4-0.4c0.1-0.1,0.2-0.2,0.3-0.3c0.1-0.1,0.3-0.1,0.4-0.1&#10;&#9;&#9;c0.2,0,0.3,0.1,0.4,0.2c0.1,0.1,0.2,0.3,0.2,0.5c0,0.4-0.2,0.6-0.8,0.7c-0.2,0-0.4,0.1-0.5,0.2c-0.1,0.1-0.2,0.3-0.2,0.5&#10;&#9;&#9;c0,0.2,0,0.4,0.2,0.5c0.2,0.1,0.3,0.2,0.5,0.2c0.3,0,0.5,0.1,0.8,0.2c0.2,0.1,0.3,0.4,0.3,0.6c0,0.2-0.1,0.5-0.2,0.6&#10;&#9;&#9;c-0.2,0.2-0.4,0.3-0.6,0.3c-0.1,0-0.2,0-0.3-0.1c-0.1,0-0.2-0.1-0.3-0.2c-0.1-0.1-0.2-0.2-0.2-0.2l-0.2-0.3&#10;&#9;&#9;c-0.1-0.1-0.2-0.2-0.3-0.3c-0.3-0.2-0.7-0.1-0.9,0.1c-0.1,0.2-0.2,0.4-0.2,0.6c0,0.3,0.1,0.5,0.2,0.7c0.2,0.3,0.4,0.5,0.7,0.7&#10;&#9;&#9;c0.5,0.4,1,0.6,1.6,0.5c0.3,0,0.7-0.1,1-0.2c0.3-0.1,0.6-0.3,0.8-0.5c0.2-0.2,0.4-0.5,0.5-0.7c0.1-0.3,0.2-0.6,0.2-0.9&#10;&#9;&#9;C103.2,314.1,102.7,313.4,102,313.1z" id="H11LVVeC2em"/>
</g>
<g id="H1x8V4eC2x7">
	<path d="M264.5,377.8H263c0.4-0.4,0.7-0.7,1-1.1c0.3-0.3,0.5-0.6,0.8-0.9c0.2-0.3,0.4-0.6,0.5-0.9&#10;&#9;&#9;c0.1-0.3,0.2-0.6,0.2-0.9c0-0.3-0.1-0.6-0.2-0.8c-0.1-0.3-0.3-0.5-0.5-0.7c-0.2-0.2-0.5-0.3-0.7-0.5c-0.3-0.1-0.6-0.2-1-0.2&#10;&#9;&#9;c-0.4,0-0.7,0.1-1.1,0.2c-0.3,0.2-0.6,0.4-0.9,0.7c-0.2,0.2-0.3,0.4-0.4,0.7c-0.1,0.2-0.1,0.4-0.1,0.6c0,0.2,0.1,0.4,0.2,0.6&#10;&#9;&#9;c0.2,0.1,0.4,0.2,0.6,0.2c0.2,0,0.4-0.1,0.5-0.2c0.1-0.2,0.2-0.4,0.3-0.6c0.1-0.2,0.2-0.4,0.3-0.6c0.1-0.1,0.3-0.2,0.4-0.2&#10;&#9;&#9;c0.2,0,0.3,0.1,0.4,0.2c0.1,0.1,0.2,0.3,0.2,0.5c0,0.4-0.2,0.8-0.5,1c-0.3,0.4-0.8,1-1.3,1.6l-1,1.1c-0.2,0.2-0.3,0.4-0.3,0.7&#10;&#9;&#9;c0,0.5,0.3,0.8,1,0.8h2.9c0.8,0,1.2-0.2,1.2-0.8S265.3,377.8,264.5,377.8z" id="B1-IVNeRhxX"/>
	<path d="M269.4,372.1h-2.7c-0.3,0-0.5,0.1-0.7,0.2c-0.2,0.1-0.3,0.4-0.2,0.6c0,0.2,0.1,0.5,0.3,0.6&#10;&#9;&#9;c0.3,0.1,0.5,0.2,0.8,0.1h1.9l-2.1,4.3c-0.1,0.1-0.1,0.2-0.2,0.4c0,0.1-0.1,0.2-0.1,0.3c0,0.2,0.1,0.4,0.2,0.6&#10;&#9;&#9;c0.2,0.1,0.4,0.2,0.6,0.2c0.3,0,0.6-0.2,0.9-0.8l2.4-5.1c0-0.1,0.1-0.2,0.1-0.3c0-0.1,0-0.2,0-0.3&#10;&#9;&#9;C270.6,372.5,270.2,372.1,269.4,372.1z" id="BkM8EVxA3gQ"/>
	<path d="M271.8,377.5c-0.2,0-0.5,0.1-0.6,0.3c-0.2,0.2-0.3,0.4-0.3,0.6c0,0.2,0.1,0.5,0.3,0.6&#10;&#9;&#9;c0.2,0.2,0.4,0.3,0.6,0.3c0.1,0,0.2,0,0.4-0.1c0.1,0,0.2-0.1,0.3-0.2c0.1-0.1,0.1-0.2,0.2-0.3c0-0.1,0.1-0.2,0.1-0.4&#10;&#9;&#9;C272.7,378,272.3,377.6,271.8,377.5C271.8,377.6,271.8,377.5,271.8,377.5L271.8,377.5z" id="ryXI4VeChlQ"/>
	<path d="M274.8,372.1H274c-0.8,0-1.1,0.3-1.1,0.8s0.4,0.8,1.1,0.8h0.1v4.6c0,0.8,0.3,1.2,0.8,1.2s0.8-0.4,0.8-1.2&#10;&#9;&#9;v-4.9c0-0.3,0-0.6-0.2-0.9C275.4,372.2,275.1,372.1,274.8,372.1z" id="HyVUEElRnem"/>
	<path d="M281.8,376.3h-0.2v-2.6c0-0.4-0.1-0.9-0.4-1.2c-0.4-0.4-1.1-0.5-1.6-0.2c-0.2,0.2-0.4,0.4-0.5,0.6l-2.1,3.4&#10;&#9;&#9;l-0.3,0.4c-0.1,0.2-0.1,0.3-0.1,0.5c0,0.2,0.1,0.4,0.2,0.5c0.2,0.1,0.5,0.2,0.7,0.1h2.5v0.7c0,0.6,0.2,0.9,0.7,0.9&#10;&#9;&#9;c0.2,0,0.4-0.1,0.6-0.2c0.1-0.2,0.2-0.4,0.2-0.6v-0.8h0.1c0.7,0,1-0.2,1-0.8c0-0.2-0.1-0.4-0.2-0.5&#10;&#9;&#9;C282.3,376.4,282.1,376.3,281.8,376.3z M280.1,376.3h-1.7l1.7-2.7V376.3z" id="r1rINVxCnxm"/>
</g>
<g id="rJIUE4lA2g7">
	<path d="M84,377.2h-1.5c0.4-0.4,0.7-0.8,1-1.1c0.3-0.3,0.5-0.6,0.8-0.9c0.2-0.3,0.4-0.6,0.5-0.9&#10;&#9;&#9;c0.1-0.3,0.2-0.6,0.2-0.9c0-0.3,0-0.6-0.2-0.8c-0.1-0.3-0.3-0.5-0.5-0.7c-0.2-0.2-0.5-0.3-0.7-0.5c-0.3-0.1-0.6-0.2-0.9-0.2&#10;&#9;&#9;c-0.4,0-0.7,0.1-1.1,0.2c-0.6,0.3-1,0.8-1.2,1.4c-0.1,0.2-0.1,0.4-0.1,0.6c0,0.2,0.1,0.4,0.2,0.6c0.2,0.2,0.4,0.2,0.6,0.2&#10;&#9;&#9;c0.2,0,0.4-0.1,0.5-0.2c0.1-0.2,0.2-0.4,0.3-0.6c0.1-0.2,0.2-0.4,0.3-0.6c0.2-0.2,0.6-0.2,0.8,0c0,0,0,0,0,0&#10;&#9;&#9;c0.1,0.1,0.2,0.3,0.2,0.5c0,0.4-0.2,0.8-0.5,1c-0.3,0.4-0.8,1-1.3,1.6l-1,1.1c-0.2,0.2-0.3,0.4-0.3,0.7c0,0.5,0.3,0.8,1,0.8h3&#10;&#9;&#9;c0.8,0,1.2-0.2,1.2-0.8S84.7,377.2,84,377.2z" id="SJw8NVlA3l7"/>
	<path d="M90,372c-0.2-0.2-0.5-0.4-0.8-0.5c-0.3-0.1-0.7-0.2-1-0.2c-0.4,0-0.7,0.1-1.1,0.2c-0.3,0.1-0.6,0.3-0.8,0.5&#10;&#9;&#9;c-0.2,0.2-0.4,0.5-0.6,0.8c-0.1,0.3-0.2,0.7-0.2,1c0,0.6,0.2,1.2,0.6,1.6c0.2,0.2,0.4,0.4,0.7,0.5c0.3,0.1,0.5,0.2,0.8,0.2h0.2h0.3&#10;&#9;&#9;c-0.2,0.2-0.4,0.5-0.6,0.7l-0.5,0.5c-0.1,0.1-0.2,0.3-0.3,0.4c-0.1,0.1-0.1,0.2-0.1,0.4c0,0.1,0,0.2,0.1,0.3c0,0.1,0.1,0.2,0.2,0.2&#10;&#9;&#9;c0.1,0.1,0.2,0.1,0.2,0.2c0.1,0,0.2,0.1,0.3,0.1c0.3,0,0.5-0.1,0.7-0.4c0.3-0.3,0.6-0.6,0.9-1c0.5-0.6,0.9-1.3,1.3-2&#10;&#9;&#9;c0.3-0.5,0.4-1.1,0.4-1.7c0-0.4-0.1-0.7-0.2-1C90.4,372.5,90.2,372.2,90,372z M88.8,374.5c-0.2,0.2-0.4,0.3-0.7,0.3&#10;&#9;&#9;c-0.2,0-0.5-0.1-0.7-0.3c-0.1-0.1-0.2-0.2-0.2-0.3c-0.1-0.4-0.1-0.8,0.2-1.1c0.3-0.4,0.9-0.4,1.3,0c0,0,0,0,0,0&#10;&#9;&#9;c0.2,0.2,0.3,0.4,0.3,0.7C89.1,374,89,374.3,88.8,374.5L88.8,374.5z" id="rydI4EeA2lX"/>
	<path d="M92.1,376.9c-0.2,0-0.5,0.1-0.7,0.3c-0.2,0.2-0.3,0.4-0.3,0.6c0,0.2,0.1,0.5,0.3,0.6c0.2,0.2,0.4,0.3,0.7,0.3&#10;&#9;&#9;c0.1,0,0.2,0,0.4-0.1c0.1,0,0.2-0.1,0.3-0.2c0.1-0.1,0.1-0.2,0.2-0.3c0-0.1,0.1-0.2,0.1-0.4c0-0.2-0.1-0.5-0.3-0.6&#10;&#9;&#9;C92.6,377,92.4,376.9,92.1,376.9z" id="SyF8VVlA2eQ"/>
	<path d="M98,372c-0.2-0.2-0.5-0.4-0.8-0.5c-0.3-0.1-0.7-0.2-1-0.2c-0.4,0-0.7,0.1-1.1,0.2c-1,0.4-1.6,1.3-1.6,2.4&#10;&#9;&#9;c0,0.3,0.1,0.6,0.2,0.9c0.1,0.3,0.3,0.5,0.4,0.7c0.2,0.2,0.4,0.4,0.7,0.5c0.3,0.1,0.5,0.2,0.8,0.2h0.2h0.3&#10;&#9;&#9;c-0.2,0.3-0.3,0.5-0.6,0.7l-0.5,0.5c-0.1,0.1-0.2,0.3-0.3,0.4c-0.1,0.1-0.1,0.2-0.1,0.4c0,0.1,0,0.2,0.1,0.3c0,0.1,0.1,0.2,0.2,0.2&#10;&#9;&#9;c0.1,0.1,0.3,0.2,0.5,0.2c0.3,0,0.5-0.1,0.7-0.4c0.3-0.3,0.6-0.6,0.9-1c0.5-0.6,0.9-1.3,1.3-2c0.3-0.5,0.4-1.1,0.4-1.7&#10;&#9;&#9;c0-0.4-0.1-0.7-0.2-1C98.4,372.5,98.2,372.2,98,372z M96.8,374.5c-0.2,0.2-0.4,0.3-0.7,0.3c-0.2,0-0.5-0.1-0.7-0.3&#10;&#9;&#9;c-0.1-0.1-0.2-0.2-0.2-0.3c-0.2-0.4-0.1-0.8,0.2-1.1c0.2-0.2,0.4-0.3,0.7-0.3c0.2,0,0.5,0.1,0.7,0.3c0.2,0.2,0.3,0.4,0.3,0.7&#10;&#9;&#9;C97.1,374.1,97,374.3,96.8,374.5L96.8,374.5z" id="r1c8NEg02gX"/>
	<path d="M102.4,371.5h-2.7c-0.3,0-0.5,0.1-0.7,0.2c-0.2,0.1-0.3,0.4-0.2,0.6c0,0.2,0.1,0.5,0.3,0.6&#10;&#9;&#9;c0.3,0.1,0.5,0.2,0.8,0.1h1.9l-2.1,4.4c-0.1,0.1-0.1,0.2-0.2,0.4c0,0.1-0.1,0.2-0.1,0.3c0,0.2,0.1,0.4,0.2,0.6&#10;&#9;&#9;c0.2,0.2,0.4,0.2,0.6,0.2c0.3,0,0.6-0.2,0.8-0.8l2.4-5.1c0-0.1,0.1-0.2,0.1-0.3c0-0.1,0-0.2,0-0.3&#10;&#9;&#9;C103.6,371.8,103.2,371.5,102.4,371.5z" id="BJsU4NxC2gm"/>
</g>
<g id="S13UEExC3e7">
	<path d="M167.5,389.8h-2.8c-0.8,0-1.2,0.2-1.2,0.8s0.4,0.8,1.2,0.8h0.6v4.6c0,0.8,0.3,1.2,0.8,1.2s0.8-0.4,0.8-1.2&#10;&#9;&#9;v-4.6h0.6c0.8,0,1.2-0.2,1.2-0.8S168.3,389.8,167.5,389.8z" id="rJTUNVxR3xX"/>
	<path d="M174.8,390.6c-0.3-0.3-0.7-0.6-1.1-0.8c-0.9-0.4-1.9-0.4-2.9,0c-0.4,0.2-0.8,0.4-1.1,0.8&#10;&#9;&#9;c-0.3,0.3-0.6,0.7-0.7,1.2c-0.2,0.5-0.3,1-0.3,1.5c0,0.5,0.1,1.1,0.2,1.5c0.2,0.4,0.4,0.8,0.7,1.2c0.3,0.3,0.7,0.6,1.1,0.8&#10;&#9;&#9;c0.5,0.2,1,0.3,1.4,0.3c0.5,0,1-0.1,1.4-0.3c0.4-0.2,0.8-0.4,1.1-0.8c0.3-0.3,0.6-0.8,0.7-1.2c0.3-1,0.3-2.1,0-3.1&#10;&#9;&#9;C175.4,391.4,175.1,391,174.8,390.6z M173.9,394.3c-0.1,0.3-0.2,0.5-0.4,0.7c-0.1,0.2-0.3,0.3-0.6,0.4c-0.2,0.1-0.5,0.2-0.7,0.1&#10;&#9;&#9;c-0.2,0-0.5,0-0.7-0.1c-0.2-0.1-0.4-0.2-0.5-0.4c-0.2-0.2-0.3-0.4-0.4-0.7c-0.1-0.3-0.1-0.6-0.1-0.9c0-0.3,0-0.6,0.1-1&#10;&#9;&#9;c0.1-0.3,0.2-0.5,0.4-0.7c0.1-0.2,0.3-0.3,0.6-0.4c0.2-0.1,0.5-0.2,0.7-0.1c0.2,0,0.5,0,0.7,0.1c0.2,0.1,0.4,0.3,0.5,0.4&#10;&#9;&#9;c0.2,0.2,0.3,0.5,0.4,0.7c0.1,0.3,0.1,0.6,0.1,1C174,393.7,174,394,173.9,394.3z" id="ByCUN4xCneX"/>
	<path d="M179.9,389.8H177c-0.8,0-1.2,0.2-1.2,0.8s0.4,0.8,1.2,0.8h0.6v4.6c0,0.8,0.3,1.2,0.8,1.2s0.8-0.4,0.8-1.2&#10;&#9;&#9;v-4.6h0.6c0.8,0,1.1-0.2,1.1-0.8S180.6,389.8,179.9,389.8z" id="H11v44lRhem"/>
	<path d="M184.6,390.6c-0.1-0.6-0.6-1-1.2-1c-0.3,0-0.5,0.1-0.8,0.3c-0.2,0.2-0.4,0.5-0.5,0.8l-1.9,5&#10;&#9;&#9;c0,0.1-0.1,0.1-0.1,0.2c0,0.1,0,0.2,0,0.2c0,0.2,0.1,0.4,0.2,0.6c0.1,0.1,0.4,0.2,0.6,0.2c0.4,0,0.6-0.2,0.8-0.7l0.2-0.7h2.6&#10;&#9;&#9;l0.2,0.7c0.2,0.5,0.4,0.8,0.9,0.8c0.2,0,0.4-0.1,0.6-0.2c0.2-0.1,0.2-0.3,0.2-0.6c0-0.2,0-0.3-0.1-0.5L184.6,390.6z M182.5,394.1&#10;&#9;&#9;l0.9-2.7l0.8,2.7H182.5z" id="r1evVVx0hgm"/>
	<path d="M190.1,395.4h-1.4v-4.6c0-0.8-0.3-1.2-0.8-1.2s-0.8,0.4-0.8,1.2v5.1c0,0.2,0,0.3,0,0.5c0,0.1,0.1,0.2,0.2,0.3&#10;&#9;&#9;c0.1,0.1,0.2,0.1,0.3,0.2c0.2,0,0.4,0.1,0.5,0h1.9c0.8,0,1.2-0.2,1.2-0.8S190.9,395.4,190.1,395.4z" id="SkWvVNeRhem"/>
	<path d="M161.3,410.7c1.2-1,1.5-2.6,0.9-4c-0.2-0.4-0.5-0.8-0.9-1.1c-0.4-0.3-0.8-0.6-1.3-0.8c-1.1-0.4-2.2-0.4-3.3,0&#10;&#9;&#9;c-0.5,0.2-0.9,0.4-1.3,0.8c-0.4,0.3-0.7,0.7-0.9,1.1c-0.2,0.4-0.3,0.9-0.3,1.4c0,1,0.4,1.9,1.2,2.5c-0.5,0.3-1,0.8-1.3,1.4&#10;&#9;&#9;c-0.5,1.1-0.6,2.4-0.1,3.5c0.2,0.5,0.5,1,0.9,1.3c0.4,0.4,0.9,0.7,1.5,0.9c1.2,0.4,2.6,0.4,3.8,0c0.5-0.2,1-0.5,1.5-0.9&#10;&#9;&#9;c0.8-0.8,1.3-1.9,1.3-3C163.1,412.6,162.4,411.4,161.3,410.7z M157.5,407.4c0.2-0.3,0.6-0.4,0.9-0.4c0.4,0,0.7,0.1,1,0.4&#10;&#9;&#9;c0.3,0.3,0.4,0.6,0.4,1c0,0.4-0.1,0.7-0.4,1c-0.3,0.3-0.6,0.4-1,0.4c-0.2,0-0.3,0-0.5-0.1c-0.2-0.1-0.3-0.2-0.4-0.3&#10;&#9;&#9;c-0.1-0.1-0.2-0.3-0.3-0.4c-0.1-0.2-0.1-0.3-0.1-0.5C157.1,408.1,157.2,407.7,157.5,407.4z M160,414.4c-0.1,0.2-0.2,0.4-0.4,0.6&#10;&#9;&#9;c-0.2,0.2-0.4,0.3-0.6,0.4c-0.2,0.1-0.4,0.2-0.7,0.1c-0.2,0-0.5,0-0.7-0.1c-0.2-0.1-0.4-0.2-0.6-0.4c-0.2-0.2-0.3-0.4-0.4-0.6&#10;&#9;&#9;c-0.1-0.2-0.1-0.5-0.1-0.7c0-0.3,0-0.5,0.1-0.7c0.1-0.2,0.2-0.4,0.4-0.6c0.2-0.2,0.3-0.3,0.6-0.4c0.2-0.1,0.4-0.2,0.7-0.1&#10;&#9;&#9;c0.5,0,0.9,0.2,1.2,0.5c0.3,0.4,0.5,0.8,0.5,1.3C160.1,413.9,160.1,414.1,160,414.4L160,414.4z" id="ByfvVNx0nl7"/>
	<path d="M173.5,412.3h-0.2H173v-4.7c0.1-0.8-0.2-1.6-0.6-2.2c-0.4-0.5-1-0.7-1.6-0.7c-0.4,0-0.8,0.1-1.2,0.3&#10;&#9;&#9;c-0.4,0.3-0.7,0.7-0.9,1.1l-3.8,6c-0.2,0.3-0.3,0.5-0.5,0.8c-0.1,0.3-0.2,0.6-0.2,0.9c0,0.3,0.1,0.7,0.4,0.9&#10;&#9;&#9;c0.4,0.2,0.9,0.3,1.3,0.3h4.5v1.3c0,1.1,0.4,1.6,1.2,1.6c0.4,0,0.7-0.1,1-0.4c0.3-0.3,0.4-0.7,0.4-1.2v-1.4h0.3&#10;&#9;&#9;c1.2,0,1.7-0.5,1.7-1.4c0-0.3-0.1-0.7-0.4-0.9C174.3,412.4,173.9,412.3,173.5,412.3z M170.4,412.3h-3l3-4.9V412.3z" id="ryQPNNeChlm"/>
	<path d="M178.1,414.5c-0.4,0-0.9,0.2-1.2,0.5c-0.3,0.3-0.5,0.7-0.5,1.2c0,0.4,0.2,0.9,0.5,1.2&#10;&#9;&#9;c0.3,0.3,0.7,0.5,1.2,0.5c0.2,0,0.4,0,0.6-0.1c0.2-0.1,0.4-0.2,0.5-0.4c0.1-0.2,0.3-0.3,0.4-0.5c0.1-0.2,0.1-0.4,0.1-0.6&#10;&#9;&#9;C179.7,415.3,179,414.6,178.1,414.5C178.1,414.6,178.1,414.5,178.1,414.5z" id="SJ4w4ElR3e7"/>
	<path d="M188.5,410.2c-0.3-0.4-0.8-0.7-1.2-0.9c-0.5-0.2-1-0.3-1.5-0.3c-0.4,0-0.8,0.1-1.2,0.2l0.2-1.5h3&#10;&#9;&#9;c0.5,0,0.9-0.1,1.3-0.4c0.3-0.2,0.5-0.6,0.4-1c0-0.9-0.6-1.4-1.9-1.4H184c-0.3,0-0.5,0-0.8,0.1c-0.2,0-0.4,0.1-0.6,0.2&#10;&#9;&#9;c-0.2,0.1-0.3,0.3-0.4,0.5c-0.1,0.3-0.2,0.5-0.2,0.8l-0.4,3.3c0,0.2,0,0.5-0.1,0.6c0,0.1,0,0.3,0,0.4c0,0.8,0.4,1.3,1.1,1.3&#10;&#9;&#9;c0.2,0,0.4,0,0.5-0.1l0.5-0.1l0.6-0.1c0.2,0,0.4-0.1,0.6-0.1c0.4,0,0.9,0.1,1.2,0.5c0.3,0.4,0.5,0.9,0.4,1.3c0,0.3,0,0.5-0.1,0.8&#10;&#9;&#9;c-0.1,0.2-0.2,0.4-0.4,0.6c-0.2,0.2-0.4,0.3-0.6,0.4c-0.2,0.1-0.5,0.2-0.7,0.1c-0.3,0-0.6-0.1-0.9-0.2c-0.2-0.1-0.5-0.2-0.7-0.4&#10;&#9;&#9;l-0.6-0.4c-0.2-0.1-0.4-0.2-0.6-0.2c-0.3,0-0.6,0.1-0.9,0.4c-0.2,0.3-0.4,0.6-0.3,0.9c0,0.4,0.1,0.7,0.3,1c0.2,0.3,0.5,0.6,0.9,0.8&#10;&#9;&#9;c0.4,0.3,0.8,0.4,1.3,0.6c0.5,0.2,1.1,0.2,1.6,0.2c0.7,0,1.4-0.1,2-0.4c0.6-0.2,1.1-0.6,1.5-1c0.4-0.4,0.8-1,1-1.5&#10;&#9;&#9;c0.2-0.6,0.4-1.3,0.4-1.9c0-0.6-0.1-1.2-0.3-1.7C189.1,411,188.8,410.6,188.5,410.2z" id="Byrv4ElA2eQ"/>
	<path d="M197.8,410.7c0.4-0.3,0.8-0.7,1.1-1.2c0.2-0.4,0.4-1,0.4-1.5c0-0.5-0.1-0.9-0.3-1.4c-0.2-0.4-0.5-0.8-0.8-1.1&#10;&#9;&#9;c-0.4-0.3-0.8-0.6-1.2-0.8c-0.5-0.2-1-0.3-1.5-0.3c-0.5,0-1.1,0.1-1.6,0.3c-0.5,0.2-0.9,0.4-1.3,0.7c-0.4,0.3-0.7,0.6-0.9,1&#10;&#9;&#9;c-0.2,0.3-0.3,0.7-0.3,1.1c0,0.3,0.1,0.7,0.4,0.9c0.2,0.2,0.5,0.3,0.8,0.4c0.3,0,0.6-0.1,0.8-0.3l0.7-0.6c0.2-0.2,0.4-0.3,0.6-0.5&#10;&#9;&#9;c0.2-0.1,0.5-0.2,0.7-0.2c0.3,0,0.6,0.1,0.8,0.3c0.2,0.2,0.3,0.5,0.3,0.8c0,0.7-0.4,1.1-1.4,1.3c-0.3,0.1-0.7,0.2-0.9,0.4&#10;&#9;&#9;c-0.2,0.2-0.3,0.5-0.3,0.9c0,0.3,0.1,0.7,0.3,0.9c0.3,0.2,0.6,0.3,0.9,0.4c0.5,0.1,1,0.2,1.4,0.5c0.3,0.2,0.5,0.7,0.5,1.1&#10;&#9;&#9;c0,0.4-0.1,0.9-0.4,1.2c-0.3,0.3-0.7,0.5-1.1,0.5c-0.2,0-0.4,0-0.6-0.1c-0.2-0.1-0.3-0.2-0.5-0.3c-0.2-0.1-0.3-0.3-0.4-0.5&#10;&#9;&#9;c-0.1-0.2-0.2-0.4-0.4-0.5c-0.2-0.2-0.4-0.4-0.6-0.6c-0.2-0.1-0.5-0.2-0.7-0.2c-0.4,0-0.7,0.1-0.9,0.4c-0.2,0.3-0.4,0.6-0.4,1&#10;&#9;&#9;c0,0.5,0.2,0.9,0.4,1.3c0.3,0.5,0.7,0.9,1.2,1.3c0.8,0.7,1.8,1,2.9,1c0.6,0,1.3-0.1,1.8-0.3c0.5-0.2,1-0.5,1.4-0.9&#10;&#9;&#9;c0.4-0.4,0.7-0.8,0.9-1.3c0.2-0.5,0.3-1.1,0.3-1.6C199.9,412.5,199.1,411.2,197.8,410.7z" id="ByUPVVx0hxX"/>
</g>
<rect x="35.1" y="48.9" width="282.2" height="6.2" id="SkwPVVlAneX"/>
<polygon points="32.5,453 52,460.1 24,432.4 " id="B1uwV4xR2x7"/>
<g id="ByKvVNgR3gX">
	<rect x="249.1" y="65.2" width="45.4" height="3.9" id="ryqvE4xC2eQ"/>
</g>
<g id="rJsDENg0nxX">
	<rect x="249.1" y="75" width="45.4" height="3.9" id="BJnwNElAnem"/>
</g>
<g id="Sk6PN4x0ngX">
	<rect x="249.1" y="84.8" width="45.4" height="3.9" id="H10DV4gC3xX"/>
</g>
<g id="B1kOE4lAhxm">
	<rect x="249.1" y="94.6" width="45.4" height="3.9" id="S1l_VNl02xQ"/>
</g>
<g id="B1-uV4eR3e7">
	<rect x="144.5" y="285.8" width="67.6" height="3.9" id="BJzuEElAngQ"/>
</g>
<g id="HkmdEVxRhlm">
	<rect x="35.3" y="40.5" width="55.4" height="3.9" id="HJNOEEgA3eQ"/>
</g>
<g id="HJHuNNgAngm">
	<rect x="302.5" y="40.5" width="13.9" height="3.9" id="SkL_N4lAnl7"/>
</g>
<g id="Sywd44lR3gX">
	<rect x="168.8" y="446.6" width="15.1" height="3.9" id="ryddVVgCneX"/>
</g>
<g id="ryFOVNlRhxQ">
	<polygon points="1.9,199.9 0,200.9 9.7,231.9 94.9,447.7 103.6,443.7 19.4,233.1 &#9;" id="H1q_V4xC2xm"/>
</g>
<polygon points="13,228.8 95.3,441.1 99.7,441.6 104.4,439.8 107.4,436.6 25.1,224.1 " id="HJjON4xCngQ"/>
<polygon points="21.6,224.6 105.1,438.9 107.4,436.6 25.1,224.1 " id="S1huNNeAngQ"/>
<polygon points="13,228.8 95.3,441.1 99.7,441.6 17.4,227.1 " id="ByadVVxAhe7"/>
<path d="M17.1,221.6l-4.1,7.1c0.4,0.6,1.2,0.9,1.9,0.7c1.1-0.4,1-1.8,1-1.8s1.3,1.4,4,0.4c1.3-0.5,2.3-1.6,2.5-2.9&#10;&#9;c0.5,0.6,1.3,0.8,2,0.5c0.8-0.3,0.6-1.5,0.6-1.5L17.1,221.6z" id="HJR_4Vx0hem"/>
<polygon points="4,190.9 6.8,202.7 12.1,200.7 6.2,190 " id="Sy1KNNlAhx7"/>
<polygon points="6.8,202.7 13,228.8 23.9,224.2 12.1,200.7 " id="SkeFVNx02gm"/>
<path d="M12.1,200.7l-2.9,1.1l10.1,24.5l3.2-1.2c0.5,0.6,1.3,0.8,2,0.5c0.8-0.3,0.6-1.5,0.6-1.5L12.1,200.7z" id="Hk-Y4Nx03l7"/>
<g id="S1fY4VeAng7">
	<polygon points="4.9,190.5 8.7,202 10.4,201.3 5.3,190.4 &#9;" id="HymFNEeRhx7"/>
</g>
<path d="M8.7,202l7.3,25.6c1.1,0.9,2.6,1.1,3.9,0.5c1.4-0.4,2.4-1.6,2.6-3l-12-23.7L8.7,202z" id="SyEYVNxR2lQ"/>
<g id="ByBKNNlRngQ">
	<path d="M139.3,85.5c-14.8,7.6-28.8,17.2-39,30.6c-5,6.7-8.8,14.2-11.2,22.2c-2.3,7.6-3.9,16.3-2.2,24.2&#10;&#9;&#9;c-0.6,0.7-1.1,1.4-1.6,2.1c-2.1,3.1-3.2,6.8-3,10.6c0.3,3.9,3,6.9,6.2,9c7.9,5.1,18.9,2.4,22.6-6.4c3.2-7.6-3.2-14.1-9.8-18.1&#10;&#9;&#9;c0.1-0.2,0-0.4-0.2-0.5c-1.4-1.3-3.1-2-5-2l-0.8-0.3c-0.2-0.1-0.5,0-0.6,0.3c0,0.1,0,0.1,0,0.2c-2.7,0.6-5.1,2.1-6.9,4.1&#10;&#9;&#9;c-1.5-7.8,0.3-16.2,2.6-23.7c2.5-8.1,6.5-15.6,11.7-22.3c9.9-12.7,23.6-21.8,37.8-29.1C140.4,86.2,139.9,85.2,139.3,85.5z&#10;&#9;&#9; M87.4,164.9c0.1,0.3,0.4,0.4,0.7,0.3c0.2-0.1,0.4-0.3,0.3-0.6c-0.2-0.6-0.3-1.2-0.5-1.8c2.1-2.4,5-4.4,7.9-4.4&#10;&#9;&#9;c7.1,2.8,16.2,9.2,14.6,17.9c-1.9,9.8-14.1,11.4-21.4,7.1c-6.6-3.8-6.8-11-3.4-17.1c0.5-0.8,1-1.6,1.5-2.4&#10;&#9;&#9;C87.3,164.2,87.3,164.5,87.4,164.9z" id="BJ8tNEgRnlX"/>
	<path d="M153.6,73.9c-0.2-0.4-0.8-0.5-1.2-0.3c-0.1,0-0.1,0.1-0.2,0.1c-1.2,1.4-2.2,3.1-2.8,4.8&#10;&#9;&#9;c-0.2-0.8-0.5-1.7-0.8-2.4c-0.2-0.4-0.8-0.5-1.2-0.3c-0.1,0.1-0.2,0.2-0.3,0.3c-0.5,0.8-0.9,1.7-1.2,2.5v-1.5&#10;&#9;&#9;c0-0.5-0.4-0.8-0.8-0.8s-0.8,0.4-0.8,0.8v9.4c0,0.5,0.4,0.8,0.8,0.8s0.8-0.4,0.8-0.8c0.1-2.7,0.7-5.4,1.8-7.9&#10;&#9;&#9;c0.3,1.1,0.4,2.3,0.4,3.4c0,0.5,0.4,0.8,0.8,0.8c0.4,0,0.7-0.2,0.8-0.6c0.7-2.3,1.7-4.4,2.9-6.4c0.4,1.1,0.5,2.3,0.5,3.4&#10;&#9;&#9;c0,0.5,0.4,0.8,0.8,0.8s0.8-0.4,0.8-0.8v-1.7c0-0.2,0-0.3-0.1-0.4C154.5,76.1,154.1,75,153.6,73.9z" id="SJDYVVeC2lX"/>
	<path d="M168.5,68.1c-1.9,1-3.4,2.6-5.1,3.8c-0.1-0.5-0.2-1-0.3-1.4c0-0.5-0.4-0.8-0.9-0.8c-0.3,0-0.5,0.2-0.7,0.4&#10;&#9;&#9;c-0.3,0.5-0.6,0.9-1,1.2c-0.2,0-0.4,0.1-0.6,0.2c-0.3,0.3-0.5,0.6-0.5,1c-0.1,0.7,0.7,0.9,1.2,0.7c0.4-0.2,0.8-0.5,1.1-0.8&#10;&#9;&#9;c0.1,0.3,0.1,0.6,0.2,0.8c0,0.5,0.4,0.8,0.9,0.8c0.1,0,0.3,0,0.4-0.1c2.2-1.2,3.9-3.2,6.1-4.4C170.3,69,169.4,67.6,168.5,68.1z" id="ByOtENeA3eX"/>
</g>
<g id="r1YFE4lCnxQ">
	<g id="HJ5FNNlRnxm">
		<path d="M255.6,140.2L255.6,140.2c-7,0-12.6,5.6-12.6,12.6c0,7,5.6,12.6,12.6,12.6c7,0,12.6-5.6,12.6-12.6&#10;&#9;&#9;&#9;S262.5,140.2,255.6,140.2L255.6,140.2L255.6,140.2z M255.6,163.2L255.6,163.2c-5.7,0-10.3-4.6-10.3-10.3c0-5.7,4.6-10.3,10.3-10.3&#10;&#9;&#9;&#9;l0,0c5.7,0,10.3,4.6,10.3,10.3C265.9,158.5,261.3,163.2,255.6,163.2C255.6,163.2,255.6,163.2,255.6,163.2z" id="BJjK4NxRhx7"/>
		<g id="By2K44gC2lm">
			<polygon points="243,151.6 242.4,164.9 255.4,165.5 252.5,157.7 &#9;&#9;&#9;" id="Sk6FVVgA3l7"/>
			<path d="M255.6,141.4c-6.3,0.2-11.3,5.5-11.1,11.8c0.2,6.1,5.1,10.9,11.1,11.1l0,0c6.3,0,11.4-5.1,11.4-11.5&#10;&#9;&#9;&#9;&#9;C267,146.5,261.9,141.4,255.6,141.4C255.6,141.4,255.6,141.4,255.6,141.4L255.6,141.4z" id="HyAYNVeAnlm"/>
			<path d="M254.7,153.1h-0.2v-2.7c0-0.4-0.1-0.9-0.4-1.3c-0.2-0.3-0.6-0.4-0.9-0.4c-0.2,0-0.5,0.1-0.7,0.2&#10;&#9;&#9;&#9;&#9;c-0.2,0.2-0.4,0.4-0.5,0.6l-2.2,3.5c-0.1,0.1-0.2,0.3-0.3,0.4c-0.1,0.2-0.1,0.3-0.1,0.5c0,0.2,0.1,0.4,0.2,0.5&#10;&#9;&#9;&#9;&#9;c0.2,0.1,0.5,0.2,0.8,0.1h2.6v0.7c0,0.6,0.2,0.9,0.7,0.9c0.2,0,0.4-0.1,0.6-0.2c0.2-0.2,0.2-0.4,0.2-0.6v-0.8h0.2&#10;&#9;&#9;&#9;&#9;c0.7,0,1-0.2,1-0.8c0-0.2-0.1-0.4-0.2-0.5C255.2,153.2,254.9,153.1,254.7,153.1z M252.9,153.1h-1.7l1.7-2.8V153.1z" id="ryJcEEeAhgQ"/>
			<path d="M260.8,152.2c0.4-0.4,0.7-0.9,0.7-1.4c0-0.6-0.2-1.1-0.7-1.4c-0.2-0.2-0.5-0.3-0.7-0.4&#10;&#9;&#9;&#9;&#9;c-0.3-0.1-0.6-0.2-0.9-0.2c-0.3,0-0.6,0-0.9,0.2c-0.3,0.1-0.5,0.2-0.7,0.4c-0.2,0.2-0.4,0.4-0.5,0.6c-0.1,0.3-0.2,0.5-0.2,0.8&#10;&#9;&#9;&#9;&#9;c0,0.6,0.2,1.1,0.7,1.4c-0.3,0.2-0.6,0.5-0.7,0.8c-0.2,0.3-0.2,0.7-0.2,1c0,0.3,0.1,0.6,0.2,0.9c0.1,0.3,0.3,0.5,0.5,0.8&#10;&#9;&#9;&#9;&#9;c0.2,0.2,0.5,0.4,0.8,0.5c0.3,0.1,0.7,0.2,1.1,0.2c0.4,0,0.7-0.1,1.1-0.2c0.3-0.1,0.6-0.3,0.8-0.5c0.2-0.2,0.4-0.5,0.5-0.8&#10;&#9;&#9;&#9;&#9;c0.1-0.3,0.2-0.6,0.2-0.9C261.8,153.2,261.4,152.5,260.8,152.2z M258.6,150.3c0.1-0.1,0.3-0.2,0.5-0.2c0.2,0,0.4,0.1,0.5,0.2&#10;&#9;&#9;&#9;&#9;c0.3,0.3,0.3,0.8,0,1.1c-0.1,0.1-0.3,0.2-0.5,0.2c-0.1,0-0.2,0-0.3-0.1c-0.1,0-0.2-0.1-0.2-0.2c-0.1-0.1-0.1-0.2-0.2-0.2&#10;&#9;&#9;&#9;&#9;c0-0.1-0.1-0.2-0.1-0.3C258.4,150.7,258.4,150.5,258.6,150.3L258.6,150.3z M260,154.2c-0.1,0.1-0.1,0.2-0.2,0.3&#10;&#9;&#9;&#9;&#9;c-0.1,0.1-0.2,0.2-0.3,0.2c-0.1,0.1-0.2,0.1-0.4,0.1c-0.1,0-0.3,0-0.4-0.1c-0.1-0.1-0.2-0.1-0.3-0.2c-0.1-0.1-0.2-0.2-0.2-0.3&#10;&#9;&#9;&#9;&#9;c0-0.1-0.1-0.3-0.1-0.4c0-0.1,0-0.3,0.1-0.4c0-0.1,0.1-0.2,0.2-0.3c0.1-0.1,0.2-0.2,0.3-0.2c0.1-0.1,0.2-0.1,0.4-0.1&#10;&#9;&#9;&#9;&#9;c0.3,0,0.5,0.1,0.7,0.3c0.2,0.2,0.3,0.5,0.3,0.8C260.1,154,260.1,154.1,260,154.2L260,154.2z" id="rklcEVxRngQ"/>
		</g>
	</g>
	<g id="Syb9EEeAhl7">
		<g id="SyGq4NxA3g7">
			<path d="M306.4,131c-2.1-0.2-5.4-0.6-6.9,1c-0.2,0-0.4,0.1-0.5,0.2c-0.4,0.3-2.2,1.5-2.5,1.7c0-0.1,0-0.1,0-0.2&#10;&#9;&#9;&#9;&#9;c0.1-0.5-0.2-0.9-0.6-1c-0.3-0.1-0.7,0.1-0.9,0.4l-0.1,0.2l-0.8,0.7c-0.1-0.5-0.6-0.7-1.1-0.6c0,0-0.1,0-0.1,0.1&#10;&#9;&#9;&#9;&#9;c-0.5,0.3-1,0.6-1.4,1c-0.7-0.4-1.6-0.3-2.3,0.2c-0.1-0.3-0.3-0.5-0.5-0.7c-0.3-0.3-0.7-0.3-1-0.1c-0.7,0.4-1.3,1.1-1.5,1.9&#10;&#9;&#9;&#9;&#9;c-0.8,0-1.6,0.2-2.4,0.6c-0.1-0.3-0.2-0.6-0.4-0.8c-0.2-0.4-0.7-0.5-1.1-0.3c-0.1,0.1-0.2,0.2-0.3,0.3c-0.2,0.4-0.4,0.8-0.5,1.2&#10;&#9;&#9;&#9;&#9;l-0.1-0.1c-0.2-0.4-0.7-0.5-1.1-0.3c-0.1,0-0.1,0.1-0.2,0.1c-0.7,0.8-1.4,1.7-2,2.6c-1.1-1.7-2.6-1.3-3.8,0.3&#10;&#9;&#9;&#9;&#9;c-0.2-0.3-0.4-0.6-0.6-0.9c-0.3-0.3-0.7-0.3-1-0.1c-0.4,0.3-0.7,0.6-1,1c-0.2-0.4-0.7-0.6-1.1-0.5c-0.3,0.1-0.5,0.4-0.5,0.7v2.8&#10;&#9;&#9;&#9;&#9;c0,0.5,0.4,0.8,0.9,0.8c0.3,0,0.5-0.2,0.7-0.4c0.4-0.9,0.9-1.7,1.4-2.5c0.2,0.3,0.3,0.7,0.4,1c0.2,0.6,1.2,0.9,1.5,0.2&#10;&#9;&#9;&#9;&#9;c0.2-0.3,1.4-3.1,2.2-0.8c0.1,0.4,0.6,0.7,1,0.6c0.1,0,0.2-0.1,0.3-0.2c0.7-0.7,1.3-1.5,1.9-2.4c0,0.2,0,0.4,0.1,0.5&#10;&#9;&#9;&#9;&#9;c0.1,0.4,0.6,0.7,1,0.6c0.1,0,0.3-0.1,0.4-0.2c0.2-0.2,0.4-0.5,0.5-0.7l0.2,0.4c0.2,0.4,0.8,0.5,1.2,0.3c0.2-0.1,0.4-0.4,0.4-0.7&#10;&#9;&#9;&#9;&#9;c0-0.3,0-0.6,0-0.9c0.8-0.4,1.7-0.8,1.7-0.4c0,0.9,1.5,1.2,1.6,0.2c0-0.2,0.1-0.4,0.1-0.6c0.3,0.3,0.8,0.3,1.2,0&#10;&#9;&#9;&#9;&#9;c0.2-0.2,1.8-1.6,1.9-1.3c0.1,0.4,0.6,0.7,1,0.6c0.1,0,0.3-0.1,0.3-0.2c0.3-0.4,0.7-0.7,1-1c0.7,0.6,1.8,0.6,2.5,0l0.3,0.1&#10;&#9;&#9;&#9;&#9;c1.1,0.2,2.2-0.2,3-1c0.2,0.4,0.8,0.5,1.2,0.3c0.2-0.1,0.4-0.4,0.4-0.7c0.1-2.5,4.5-1.6,6-1.4C307.5,132.8,307.4,131.1,306.4,131&#10;&#9;&#9;&#9;&#9;z" id="r1X5VElRheX"/>
		</g>
		<g id="H145NEgCnxm">
			<path d="M281.2,145.1c-0.6,0.4-1.3,0-2,0c-0.5,0-1,0.2-1.5,0.5c-0.4,0.3-0.8,0.6-1.1,0.9c-0.9,0.7-0.7,0.4-0.8-0.6&#10;&#9;&#9;&#9;&#9;c-0.1-0.8-1.2-0.7-1.5-0.2l-0.2,0.3c-0.4-0.2-0.9,0-1.2,0.4c-0.1,0.1-0.1,0.2-0.1,0.3c0,0.8-0.2,1.6-0.3,2.4&#10;&#9;&#9;&#9;&#9;c-0.1,0.4,0.1,0.9,0.6,1c0.4,0.1,0.8-0.1,1-0.4c0.3-0.5,0.6-1.1,0.8-1.6c0.5,0.6,1.4,0.7,2.1,0.2c0.8-0.4,1.3-1.2,2.2-1.5&#10;&#9;&#9;&#9;&#9;c0.5-0.1,1,0.2,1.4,0.2c0.6,0,1.1-0.2,1.5-0.5C282.9,146,282.1,144.6,281.2,145.1z" id="HJrq44eChgm"/>
		</g>
		<g id="HyIqVElRnlm">
			<path d="M304,138.4c-1.1,0.1-2.2,0.2-3.4,0.4c-0.5,0.1-0.9,0.2-1.3,0.3c-1.2,0.3-0.6,0.2-0.4,1&#10;&#9;&#9;&#9;&#9;c-0.1-0.4-0.6-0.7-1-0.6c-0.1,0-0.3,0.1-0.3,0.2c-0.2,0.2-0.4,0.5-0.6,0.7c-0.4-0.7-1.4-1-2.1-0.6c-0.1,0-0.2,0.1-0.3,0.2&#10;&#9;&#9;&#9;&#9;c-0.2-0.4-0.8-0.6-1.2-0.4c-0.1,0-0.1,0.1-0.2,0.1c-0.3,0.1-0.5,0.3-0.6,0.5c-0.1,0.2-0.1,0.4-0.2,0.6l0,0&#10;&#9;&#9;&#9;&#9;c-0.5-0.1-1.1,0.1-1.4,0.5c-0.9-0.7-2.2-0.5-2.9,0.4c-0.1,0-0.2,0.1-0.3,0.1c-0.9,0.4-1.6,1.1-1.9,2l0,0&#10;&#9;&#9;&#9;&#9;c-0.1,0.2-0.1,0.5-0.2,0.7c-0.2,0.9,1,1.5,1.5,0.6c0-0.1,0.1-0.2,0.1-0.2l0.2-0.2c0.3,0.4,0.8,0.4,1.2,0.1c0,0,0,0,0.1,0&#10;&#9;&#9;&#9;&#9;c0.6-0.5,0.8-1.3,0.5-2.1c0.3-0.2,0.6-0.1,0.6,0.8c0,1.1,1.6,1.1,1.7,0l0.5-0.7c0.1,0.2,0.3,0.4,0.6,0.4c0.1,0.9,0.3,1.7,0.6,2.5&#10;&#9;&#9;&#9;&#9;c0.1,0.4,0.6,0.7,1,0.6c0.4-0.1,0.7-0.6,0.6-1c-0.1-0.7-0.2-1.3-0.1-2c0-0.5,0.2-1.1,0.4-1.6c0.5,0.1,0.7,0.4,0.5,0.8&#10;&#9;&#9;&#9;&#9;c-0.2,0.9,1.1,1.5,1.5,0.6c0.3-0.6,0.7-1.3,1.1-1.8c0.7,0,1.4-0.6,2.1-0.8c1.2-0.2,2.4-0.4,3.6-0.5&#10;&#9;&#9;&#9;&#9;C305,139.9,305,138.2,304,138.4z" id="HkDqN4g0heX"/>
		</g>
	</g>
</g>
<g id="Sy_qENx0hem">
	<path d="M280,342.7c-1.4-0.3-2.8-0.7-4.2-1c-0.6-0.1-1.1-0.2-1.7-0.2c-1.6-0.1-0.8-0.1-0.9,1c0-0.6-0.4-1.1-1-1.1&#10;&#9;&#9;c-0.2,0-0.3,0-0.5,0.1c-0.4,0.2-0.7,0.4-1.1,0.6c-0.2-1.1-1.2-1.8-2.3-1.7c-0.1,0-0.3,0-0.4,0.1c-0.1-0.6-0.6-1-1.2-0.9&#10;&#9;&#9;c-0.1,0-0.2,0-0.3,0.1c-0.4-0.1-0.8,0.1-1,0.4l-0.5,0.6l0,0c-0.6-0.3-1.3-0.3-1.9,0c-0.6-1.2-2.3-1.4-3.7-0.8c-0.1,0-0.3,0-0.4,0&#10;&#9;&#9;c-1.2,0-2.3,0.6-3.1,1.6l0,0c-0.2,0.2-0.4,0.5-0.5,0.8c-0.6,1,0.6,2.3,1.6,1.4l0.2-0.2l0.3-0.2c0.2,0.6,0.8,0.9,1.4,0.7&#10;&#9;&#9;c0,0,0,0,0.1,0c0.9-0.4,1.6-1.3,1.5-2.3c0.5-0.1,0.8,0.1,0.4,1.2c-0.5,1.3,1.5,2,2,0.7l0.9-0.6c0,0.3,0.2,0.6,0.5,0.7&#10;&#9;&#9;c-0.2,1.1-0.3,2.2-0.3,3.3c0,0.6,0.4,1.1,1,1.1c0.6,0,1.1-0.4,1.1-1c0.1-0.9,0.4-1.7,0.8-2.5c0.3-0.6,0.7-1.2,1.2-1.8&#10;&#9;&#9;c0.6,0.4,0.7,0.8,0.2,1.2c-0.7,1,0.7,2.3,1.6,1.4c0.6-0.7,1.4-1.2,2.1-1.7c0.9,0.3,2-0.1,2.9-0.1c1.5,0.2,3,0.6,4.5,1&#10;&#9;&#9;C280.6,345,281.4,343,280,342.7z" id="H1K94VxC2eX"/>
</g>
<g id="Bk5q4Vg0ngm">
	<path d="M265.9,314.6h-0.2V312c0-0.4-0.1-0.9-0.4-1.2c-0.4-0.4-1.1-0.5-1.6-0.2c-0.2,0.2-0.4,0.4-0.5,0.6l-2.1,3.4&#10;&#9;&#9;l-0.3,0.4c-0.1,0.2-0.1,0.3-0.1,0.5c0,0.2,0.1,0.4,0.2,0.5c0.2,0.1,0.5,0.2,0.7,0.1h2.5v0.7c0,0.6,0.2,0.9,0.7,0.9&#10;&#9;&#9;c0.2,0,0.4-0.1,0.6-0.2c0.2-0.2,0.2-0.4,0.2-0.6v-0.8h0.1c0.6,0,1-0.2,1-0.8c0-0.2-0.1-0.4-0.2-0.5&#10;&#9;&#9;C266.4,314.7,266.1,314.6,265.9,314.6z M264.2,314.6h-1.7l1.7-2.7V314.6z" id="Byj944xRheQ"/>
	<path d="M268.1,315.9c-0.2,0-0.5,0.1-0.6,0.3c-0.2,0.2-0.3,0.4-0.3,0.6c0,0.5,0.4,0.9,0.9,0.9c0,0,0,0,0,0&#10;&#9;&#9;c0.1,0,0.2,0,0.4-0.1c0.1,0,0.2-0.1,0.3-0.2c0.1-0.1,0.1-0.2,0.2-0.3c0-0.1,0.1-0.2,0.1-0.4c0-0.2-0.1-0.5-0.3-0.6&#10;&#9;&#9;C268.6,316,268.3,315.9,268.1,315.9z" id="S13c4EgRhlX"/>
	<path d="M273.6,313.7c0.4-0.4,0.7-0.9,0.6-1.4c0-0.3-0.1-0.5-0.2-0.8c-0.1-0.2-0.3-0.5-0.5-0.6&#10;&#9;&#9;c-0.2-0.2-0.5-0.3-0.7-0.4c-0.6-0.2-1.2-0.2-1.8,0c-0.3,0.1-0.5,0.2-0.7,0.4c-0.2,0.2-0.4,0.4-0.5,0.6c-0.1,0.2-0.2,0.5-0.2,0.8&#10;&#9;&#9;c0,0.6,0.2,1.1,0.7,1.4c-0.3,0.2-0.6,0.4-0.7,0.8c-0.3,0.6-0.3,1.3,0,1.9c0.1,0.3,0.3,0.5,0.5,0.7c0.2,0.2,0.5,0.4,0.8,0.5&#10;&#9;&#9;c0.7,0.2,1.4,0.2,2.1,0c0.3-0.1,0.6-0.3,0.8-0.5c0.2-0.2,0.4-0.5,0.5-0.7c0.1-0.3,0.2-0.6,0.2-0.9&#10;&#9;&#9;C274.6,314.8,274.2,314.1,273.6,313.7z M271.5,311.9c0.3-0.3,0.8-0.3,1,0c0,0,0,0,0,0c0.1,0.1,0.2,0.3,0.2,0.5&#10;&#9;&#9;c0,0.2-0.1,0.4-0.2,0.5c-0.1,0.1-0.3,0.2-0.5,0.2c-0.2,0-0.4-0.1-0.5-0.2c-0.1-0.1-0.1-0.2-0.2-0.2c0-0.1-0.1-0.2-0.1-0.3&#10;&#9;&#9;C271.2,312.3,271.3,312.1,271.5,311.9z M272.9,315.8c0,0.1-0.1,0.2-0.2,0.3c-0.1,0.1-0.2,0.2-0.3,0.2c-0.1,0.1-0.2,0.1-0.4,0.1&#10;&#9;&#9;c-0.1,0-0.3,0-0.4-0.1c-0.1,0-0.2-0.1-0.3-0.2c-0.1-0.1-0.2-0.2-0.2-0.3c-0.1-0.1-0.1-0.3-0.1-0.4c0-0.1,0-0.3,0.1-0.4&#10;&#9;&#9;c0.1-0.1,0.1-0.2,0.2-0.3c0.1-0.1,0.2-0.2,0.3-0.2c0.1-0.1,0.2-0.1,0.4-0.1c0.3,0,0.5,0.1,0.7,0.3c0.2,0.2,0.3,0.5,0.3,0.7&#10;&#9;&#9;C272.9,315.5,272.9,315.7,272.9,315.8z" id="r1acVExA3em"/>
	<path d="M279.4,311c-0.2-0.2-0.5-0.4-0.8-0.5c-0.3-0.1-0.7-0.2-1-0.2c-0.4,0-0.7,0.1-1.1,0.2&#10;&#9;&#9;c-0.3,0.1-0.6,0.3-0.9,0.5c-0.2,0.2-0.4,0.5-0.6,0.8c-0.1,0.3-0.2,0.7-0.2,1c0,0.3,0.1,0.6,0.2,0.9c0.1,0.3,0.3,0.5,0.4,0.7&#10;&#9;&#9;c0.2,0.2,0.4,0.4,0.7,0.5c0.3,0.1,0.5,0.2,0.8,0.2h0.2h0.3c-0.2,0.2-0.4,0.5-0.5,0.7l-0.5,0.5c-0.1,0.1-0.2,0.3-0.3,0.4&#10;&#9;&#9;c-0.1,0.1-0.1,0.2-0.1,0.4c0,0.1,0,0.2,0.1,0.3c0,0.1,0.1,0.2,0.2,0.2c0.1,0.1,0.2,0.1,0.3,0.2c0.1,0,0.2,0.1,0.3,0.1&#10;&#9;&#9;c0.3,0,0.5-0.1,0.7-0.4c0.3-0.3,0.6-0.6,0.9-1c0.5-0.6,0.9-1.3,1.3-2c0.3-0.5,0.4-1.1,0.4-1.7c0-0.4-0.1-0.7-0.2-1&#10;&#9;&#9;C279.8,311.5,279.7,311.2,279.4,311z M278.2,313.5c-0.2,0.2-0.4,0.3-0.6,0.3c-0.2,0-0.5-0.1-0.6-0.3c-0.1-0.1-0.2-0.2-0.2-0.3&#10;&#9;&#9;c-0.1-0.1-0.1-0.3-0.1-0.4c0-0.3,0.1-0.5,0.3-0.7c0.3-0.4,0.9-0.4,1.2-0.1c0,0,0,0,0.1,0.1C278.6,312.5,278.6,313.1,278.2,313.5&#10;&#9;&#9;L278.2,313.5z" id="BJC5VNlRhxQ"/>
	<g id="BJJoN4e0ng7">
		<path d="M292.1,301.7c-4.4-3.3-9.2-5.9-14.4-7.7c-1-0.4-1.4,1.2-0.4,1.6c9.4,3.6,28.2,13.6,18,25.7&#10;&#9;&#9;&#9;c-8.8,10.3-27.5,14.4-39.5,8.1c-4.5-2.4-8.8-6.4-8.8-11.8c-0.1-4.5,3-8.6,6.1-11.5c6.9-6.5,18.4-10.8,27.6-7.1&#10;&#9;&#9;&#9;c1,0.4,1.4-1.2,0.4-1.6c-8.6-3.5-18.7-0.2-25.9,4.8c-6,4.2-12.3,12.1-9,19.9c4.5,10.6,18.4,12.9,28.5,11.4&#10;&#9;&#9;&#9;c6.3-1,12.2-3.4,17.4-7.1c4.3-3.2,8.5-7.6,7.9-13.3C299.4,308.2,295.6,304.4,292.1,301.7z" id="rJli4VlCheQ"/>
	</g>
</g>
<g id="SkWj44gR3lm">
	<path d="M242,40.1c0,0.7-0.6,1.2-1.2,1.2H109.7c-0.7,0-1.2-0.6-1.2-1.2V20.5h-3.7v19.6c0,2.7,2.1,4.9,4.8,4.9&#10;&#9;&#9;c0,0,0,0,0,0h131.1c2.7,0,4.9-2.2,4.9-4.9V20.5H242V40.1z" id="ryGjVElAnlQ"/>
</g>
<path d="M242,4.9H110.9c-2.7,0-4.9,2.2-4.9,4.9v28.8c0,2.7,2.2,4.9,4.9,4.9l0,0H242c2.7,0,4.9-2.2,4.9-4.9V9.7&#10;&#9;C246.9,7.1,244.7,4.9,242,4.9z M243.2,38.6c0,0.7-0.6,1.2-1.2,1.2H110.9c-0.7,0-1.2-0.6-1.2-1.2V9.7c0-0.7,0.6-1.2,1.2-1.2H242&#10;&#9;c0.7,0,1.2,0.6,1.2,1.2V38.6z" id="Bk7iVNg03xQ"/>
<path d="M114.6,1.2h123.8c1.7,0,3,1.4,3,3v6.1c0,1.7-1.4,3-3,3H114.6c-1.7,0-3-1.4-3-3V4.3&#10;&#9;C111.5,2.6,112.9,1.2,114.6,1.2z" id="HyVsVEx03xm"/>
<polygon points="148.7,13.4 198.9,13.4 208.2,1.2 157.9,1.2 " id="B1SiEEg0nxQ"/>
<polygon points="212,13.4 219.8,13.4 229.1,1.2 221.3,1.2 " id="S1UoVVgA3x7"/>
<path d="M111.5,11.6c0,1.6,1.4,3,3,3h123.8c1.6,0,3-1.4,3-3V7.9H111.5V11.6z" id="ryws4VeA2eQ"/>
<script>(function(){var a=document.querySelector('#BkV4xA3e7'),b=a.querySelectorAll('style'),c=function(d){b.forEach(function(f){var g=f.textContent;g&amp;&amp;(f.textContent=g.replace(/transform-box:[^;\r\n]*/gi,'transform-box: '+d))})};c('initial'),window.requestAnimationFrame(function(){return c('fill-box')})})();</script></svg>