<svg version="1.1" id="B1QwA0DxQ" xmlns="http://www.w3.org/2000/svg" xmlns:xlink="http://www.w3.org/1999/xlink" x="0px" y="0px" viewBox="0 0 495 316" style="enable-background:new 0 0 495.9 316;" xml:space="preserve"><style>@-webkit-keyframes ryYVXDACPgQ_rJJ41y_g7_Animation{62.50%{-webkit-transform: scale(0, 1);transform: scale(0, 1);}75%{-webkit-transform: scale(1, 1);transform: scale(1, 1);}100%{-webkit-transform: scale(1, 1);transform: scale(1, 1);}}@keyframes ryYVXDACPgQ_rJJ41y_g7_Animation{62.50%{-webkit-transform: scale(0, 1);transform: scale(0, 1);}75%{-webkit-transform: scale(1, 1);transform: scale(1, 1);}100%{-webkit-transform: scale(1, 1);transform: scale(1, 1);}}@-webkit-keyframes Hyw4XD00vlm_HJDlykdl7_Animation{50%{-webkit-transform: scale(0, 1);transform: scale(0, 1);}62.50%{-webkit-transform: scale(1, 1);transform: scale(1, 1);}100%{-webkit-transform: scale(1, 1);transform: scale(1, 1);}0%{-webkit-transform: scale(0, 1);transform: scale(0, 1);}}@keyframes Hyw4XD00vlm_HJDlykdl7_Animation{50%{-webkit-transform: scale(0, 1);transform: scale(0, 1);}62.50%{-webkit-transform: scale(1, 1);transform: scale(1, 1);}100%{-webkit-transform: scale(1, 1);transform: scale(1, 1);}0%{-webkit-transform: scale(0, 1);transform: scale(0, 1);}}@-webkit-keyframes HksEmvC0veQ_S1AARCvlm_Animation{37.50%{-webkit-transform: scale(0, 1);transform: scale(0, 1);}50%{-webkit-transform: scale(1, 1);transform: scale(1, 1);}100%{-webkit-transform: scale(1, 1);transform: scale(1, 1);}}@keyframes HksEmvC0veQ_S1AARCvlm_Animation{37.50%{-webkit-transform: scale(0, 1);transform: scale(0, 1);}50%{-webkit-transform: scale(1, 1);transform: scale(1, 1);}100%{-webkit-transform: scale(1, 1);transform: scale(1, 1);}}@-webkit-keyframes r1O47P0RDx7_B1osACveQ_Animation{25%{-webkit-transform: scale(0, 1);transform: scale(0, 1);}37.50%{-webkit-transform: scale(1, 1);transform: scale(1, 1);}100%{-webkit-transform: scale(1, 1);transform: scale(1, 1);}0%{-webkit-transform: scale(0, 1);transform: scale(0, 1);}}@keyframes r1O47P0RDx7_B1osACveQ_Animation{25%{-webkit-transform: scale(0, 1);transform: scale(0, 1);}37.50%{-webkit-transform: scale(1, 1);transform: scale(1, 1);}100%{-webkit-transform: scale(1, 1);transform: scale(1, 1);}0%{-webkit-transform: scale(0, 1);transform: scale(0, 1);}}@-webkit-keyframes H1IEmvA0vxX_HJcqCRweQ_Animation{12.50%{-webkit-transform: scale(0, 1);transform: scale(0, 1);}25%{-webkit-transform: scale(1, 1);transform: scale(1, 1);}100%{-webkit-transform: scale(1, 1);transform: scale(1, 1);}}@keyframes H1IEmvA0vxX_HJcqCRweQ_Animation{12.50%{-webkit-transform: scale(0, 1);transform: scale(0, 1);}25%{-webkit-transform: scale(1, 1);transform: scale(1, 1);}100%{-webkit-transform: scale(1, 1);transform: scale(1, 1);}}@-webkit-keyframes rycEQwA0veQ_BynOAAPlX_Animation{0%{-webkit-transform: scale(0, 1);transform: scale(0, 1);}12.50%{-webkit-transform: scale(1, 1);transform: scale(1, 1);}100%{-webkit-transform: scale(1, 1);transform: scale(1, 1);}}@keyframes rycEQwA0veQ_BynOAAPlX_Animation{0%{-webkit-transform: scale(0, 1);transform: scale(0, 1);}12.50%{-webkit-transform: scale(1, 1);transform: scale(1, 1);}100%{-webkit-transform: scale(1, 1);transform: scale(1, 1);}}#B1QwA0DxQ *{-webkit-animation-duration: 4s;animation-duration: 4s;-webkit-animation-iteration-count: infinite;animation-iteration-count: infinite;-webkit-animation-timing-function: cubic-bezier(0, 0, 1, 1);animation-timing-function: cubic-bezier(0, 0, 1, 1);}#HkbXwARPeQ{fill: #282C35;}#S1f7wR0wxQ{fill: #3E434F;}#Sy77DCAweQ{fill: #F1F2F2;}#HJ4mP0CvgQ{fill: #E6E7E8;}#HkHXDR0vlX{fill: #E3E4E4;}#BJUQvACwgm{fill: #D1D3D4;}#BkPQDRAwem{fill: #E6E7E8;}#Sk_QPARvgX{fill: #393E49;}#B1KXDCRvgQ{fill: #27576D;}#BycXwCRDxm{fill: #2B5D74;}#SksmDC0Pem{fill: #2F647D;}#H12QPA0wlQ{fill: #403F44;}#rJa7PRRDxQ{fill: #FFFFFF;}#ryRmvC0DlX{fill: #FFFFFF;}#SkylXvCAvlm{fill: #353439;}#HyexmDCRweQ{fill: #3E3D42;}#rkbx7vCCPx7{fill: #FBFBFB;}#HJMl7wC0DlX{fill: #E6E7E8;}#ryXeQPC0Dx7{fill: #D1D3D4;}#Sy4gQPACvgm{fill: #BCBEC0;}#r1HgXPRRDg7{fill: #403F44;}#SJ8g7wRRvl7{fill: #FFFFFF;}#SJDlXwARvx7{fill: #FFFFFF;}#HyOlQw0RvgQ{fill: #353439;}#B1tlXvRRwl7{fill: #3E3D42;}#rycxXw0CwlQ{fill: #FBFBFB;}#BkslmP0ADl7{fill: #FF876C;}#rkhxQDRAPeX{fill: #F3796A;}#B1pemP0Rwgm{fill: #F37368;}#SJAxQwR0Pgm{fill: #403F44;}#Bk1ZmvCCveQ{fill: #FFFFFF;}#rJlbmwCAvl7{fill: #FFFFFF;}#By-bmwRAPeX{fill: #353439;}#SkG-mwCCwgQ{fill: #3E3D42;}#BkQW7P0Cvl7{fill: #FBFBFB;}#rk4-mwRRweQ{fill: #F1F2F2;}#S1SZXv00Dg7{fill: #E3E4E4;}#BJ8-7wACDxX{fill: #D9DADB;}#HJPWQDACDeQ{fill: #FFFFFF;}#SkOZXPC0Dg7{fill: #D1D3D4;}#BJYbQwRAvxX{fill: #E6E7E8;}#H15WQPRRPl7{fill: #FFFFFF;}#HysW7w00wx7{fill: #C2C4C5;}#HJn-QPRCwx7{fill: #C2C4C5;}#BJ6bXvAAwe7{fill: #C2C4C5;}#ByAWQwCCveQ{fill: #D1D3D4;}#HkyGQDACvg7{fill: #D1D3D4;}#Bkez7PR0vxQ{fill: #D1D3D4;}#HybMmDCCDl7{fill: #D1D3D4;}#B1GfXPRCPlQ{opacity: 0.3;fill: #A7A9AC;enable-background: new;}#BJmGmw0RPxm{fill: #C3EBF3;}#B14fmPCRPxQ{fill: #C3EBF3;}#BkHMQv00wlX{fill: #C3EBF3;}#rkUf7DRCvxQ{opacity: 0.3;fill: #A7A9AC;enable-background: new;}#rJvGmD0CPxm{fill: #F1F2F2;}#SJ_MQv00wlm{fill: #F1F2F2;}#BytfXvAAPlm{fill: #F1F2F2;}#S1qGmDR0DeQ{opacity: 0.3;fill: #A7A9AC;enable-background: new;}#BJozmvA0Pl7{fill: #F1F2F2;}#BynM7w0RPlQ{fill: #F1F2F2;}#B1pfXPACwlm{fill: #F1F2F2;}#BJAzXD0RveQ{opacity: 0.3;fill: #A7A9AC;enable-background: new;}#BJkmmPCCvgX{fill: #F1F2F2;}#HJeQQvCAvlX{fill: #F1F2F2;}#HyZ7XD00Dem{fill: #F1F2F2;}#HkfXQv00vgQ{fill: #343943;}#BkQXmvRCDeX{fill: #343943;}#SyNX7vACwxX{fill: #FFFFFF;}#Syr7QwARDxX{fill: #262A33;}#B1LmXPCRve7{fill: #262A33;}#HJD7Qw00wxX{opacity: 0.3;fill: #A7A9AC;enable-background: new;}#rJu7mvCRPeQ{opacity: 0.3;fill: #A7A9AC;enable-background: new;}#HkKQXwCCveX{fill: #343943;}#BJ5mQDCCwlm{fill: #FFFFFF;}#HJsm7vRADe7{fill: #343943;}#rk2mXD00wgQ{fill: #262A33;}#rJ67Xv0RvgX{fill: #262A33;-webkit-transform:  matrix(0.9985, -5.530035, -02, 5.530035, -02, 0.9985, -16.0805, 4.014);transform:  matrix(0.9985, -5.530035, -02, 5.530035, -02, 0.9985, -16.0805, 4.014);}#rJkE7w0CPlm{fill: #E6E7E8;}#BJeVXvR0PlX{fill: #E6E7E8;}#B1WEmwC0vlm{fill: #E6E7E8;}#BkGVXPRAvx7{fill: #E6E7E8;}#SyX4XvR0PgQ{fill: #E6E7E8;}#HkVVmwC0DlQ{fill: #E6E7E8;}#H1IEmvA0vxX{fill: #19B2B8;}#Hyw4XD00vlm{fill: #FF876C;}#r1O47P0RDx7{fill: #19B2B8;}#ryYVXDACPgQ{fill: #FF876C;}#rycEQwA0veQ{fill: #19B2B8;}#HksEmvC0veQ{fill: #FF876C;}#r12VXv0Rve7{opacity: 0.3;fill: #A7A9AC;enable-background: new;}#SkaE7DARDxQ{opacity: 0.3;fill: #A7A9AC;enable-background: new;}#SykSmDC0Px7{opacity: 0.2;enable-background: new;}#BJerQwA0Pe7{opacity: 0.2;enable-background: new;}#S1bBQDACPlm{opacity: 0.2;enable-background: new;}#BJzBXw0CvlX{opacity: 0.2;enable-background: new;}#r1mrmDACvg7{opacity: 0.2;}#ByESmP0ADgm{opacity: 0.2;enable-background: new;}#BySBXvCCDem{opacity: 0.2;enable-background: new;}#SkLrmP00DgQ{opacity: 0.2;enable-background: new;}#B1vBmPRRDlX{opacity: 0.2;enable-background: new;}#Hk_B7DC0DeX{opacity: 0.2;}#S1tHQPCAweX{opacity: 0.2;enable-background: new;}#BJcBmPRRveX{opacity: 0.2;enable-background: new;}#HkjSmPCRvgm{opacity: 0.2;enable-background: new;}#SyhrQvRCDlX{opacity: 0.2;enable-background: new;}#S1aHQwC0Dl7{opacity: 0.2;}#ryCHmvCAPx7{fill: #1F232C;}#HyJLQDRCDe7{fill: #E3E4E4;}#HkeUXvCAvem{fill: #1F232C;}#rkW87PACvgX{fill: #E3E4E4;}#H1IEmvA0vxX_rJedAAveX{-webkit-transform-origin: 50% 50%;transform-origin: 50% 50%;transform-box: fill-box;-webkit-transform: scale(1, 1);transform: scale(1, 1);}#rycEQwA0veQ_BynOAAPlX{-webkit-animation-name: rycEQwA0veQ_BynOAAPlX_Animation;animation-name: rycEQwA0veQ_BynOAAPlX_Animation;-webkit-transform-origin: 0% 50%;transform-origin: 0% 50%;transform-box: fill-box;-webkit-transform: scale(0, 1);transform: scale(0, 1);}#H1IEmvA0vxX_HJcqCRweQ{-webkit-animation-name: H1IEmvA0vxX_HJcqCRweQ_Animation;animation-name: H1IEmvA0vxX_HJcqCRweQ_Animation;-webkit-transform-origin: 0% 50%;transform-origin: 0% 50%;transform-box: fill-box;-webkit-transform: scale(0, 1);transform: scale(0, 1);}#r1O47P0RDx7_B1osACveQ{-webkit-animation-name: r1O47P0RDx7_B1osACveQ_Animation;animation-name: r1O47P0RDx7_B1osACveQ_Animation;-webkit-transform-origin: 0% 50%;transform-origin: 0% 50%;transform-box: fill-box;-webkit-transform: scale(0, 1);transform: scale(0, 1);}#HksEmvC0veQ_S1AARCvlm{-webkit-animation-name: HksEmvC0veQ_S1AARCvlm_Animation;animation-name: HksEmvC0veQ_S1AARCvlm_Animation;-webkit-transform-origin: 0% 50%;transform-origin: 0% 50%;transform-box: fill-box;-webkit-transform: scale(0, 1);transform: scale(0, 1);}#Hyw4XD00vlm_HJDlykdl7{-webkit-animation-name: Hyw4XD00vlm_HJDlykdl7_Animation;animation-name: Hyw4XD00vlm_HJDlykdl7_Animation;-webkit-transform-origin: 0% 50%;transform-origin: 0% 50%;transform-box: fill-box;-webkit-transform: scale(0, 1);transform: scale(0, 1);}#ryYVXDACPgQ_rJJ41y_g7{-webkit-animation-name: ryYVXDACPgQ_rJJ41y_g7_Animation;animation-name: ryYVXDACPgQ_rJJ41y_g7_Animation;-webkit-transform-origin: 0% 50%;transform-origin: 0% 50%;transform-box: fill-box;-webkit-transform: scale(0, 1);transform: scale(0, 1);}</style>

<title>Asset 22</title>
<g id="rJl7PARDe7">
	<path d="M386.8,42c0-5.3-3.8-9.7-8.4-9.7H112.7c-4.7,0-8.4,4.3-8.4,9.7v155.8h282.5V42z" id="HkbXwARPeQ"/>
	<path d="M368.2,56.7c0-4.4-3.3-8-7.3-8H130.2c-4,0-7.3,3.6-7.3,8v129h245.3V56.7z" id="S1f7wR0wxQ"/>
	<path d="M104.3,197.8v52.8c0,5.3,3.8,9.6,8.4,9.6h265.6c4.7,0,8.4-4.3,8.4-9.6v-52.8H104.3z" id="Sy77DCAweQ"/>
	<polygon points="283.3,260.2 276.3,260.2 216.2,260.2 209.2,260.2 205.5,300.4 216.2,300.4 276.3,300.4 287.1,300.4 &#9;&#10;&#9;&#9;" id="HJ4mP0CvgQ"/>
	<polygon points="283.8,264.9 208.8,264.9 209.2,260.2 283.3,260.2 &#9;" id="HkHXDR0vlX"/>
	<path d="M297.3,307.3c0.3-0.7,0.5-1.4,0.5-2.1c0-2.9-2.4-5.3-5.3-5.3h-93.9c-2.9,0-5.3,2.4-5.3,5.3&#10;&#9;&#9;c0,0.7,0.2,1.4,0.4,2.1H297.3z" id="BJUQvACwgm"/>
	<path d="M257.6,226.3c0,6.2-5,11.3-11.3,11.3c-6.2,0-11.3-5-11.3-11.3c0-6.2,5-11.3,11.3-11.3c0,0,0,0,0,0&#10;&#9;&#9;C252.5,215,257.6,220,257.6,226.3z" id="BkPQDRAwem"/>
	<path d="M368.2,58.7v-2c0-4.4-3.3-8-7.3-8H130.2c-4,0-7.3,3.6-7.3,8v127.4C155.4,123.2,249.1,75.2,368.2,58.7z" id="Sk_QPARvgX"/>
	<polygon points="466,222.6 479.8,299.5 477.6,299.8 463.8,222.9 &#9;" id="B1KXDCRvgQ"/>
	<polygon points="463.8,222.9 477.6,299.8 475.3,300.1 461.5,223.2 &#9;" id="BycXwCRDxm"/>
	<polygon points="459.2,223.5 461.5,223.2 475.3,300.1 473.1,300.4 &#9;" id="SksmDC0Pem"/>
	<path d="M459.8,214.6l0.3-5.7l2.3,5.3C461.6,214.7,460.6,214.9,459.8,214.6z" id="H12QPA0wlQ"/>
	<path d="M462.4,214.2l3.6,8.3l-6.7,0.9l0.5-8.9C460.6,214.9,461.6,214.7,462.4,214.2z" id="rJa7PRRDxQ"/>
	<polygon points="473.5,302.5 480.1,301.6 479.8,299.5 473.1,300.4 &#9;" id="ryRmvC0DlX"/>
	<polygon points="474.9,310.3 481.6,309.4 480.1,301.6 473.5,302.5 &#9;" id="SkylXvCAvlm"/>
	<polygon points="481.6,309.4 480.1,301.6 478.1,301.9 479.5,309.7 &#9;" id="HyexmDCRweQ"/>
	<polygon points="479.8,299.5 480.1,301.6 478.1,301.9 477.7,299.8 &#9;" id="rkbx7vCCPx7"/>
	<polygon points="479.1,222.4 472.4,300.1 470.2,299.9 476.9,222.3 &#9;" id="HJMl7wC0DlX"/>
	<polygon points="476.9,222.3 470.2,299.9 467.9,299.8 474.6,222.1 &#9;" id="ryXeQPC0Dx7"/>
	<polygon points="472.4,222 474.6,222.1 467.9,299.8 465.7,299.6 &#9;" id="Sy4gQPACvgm"/>
	<path d="M475.1,213.4l1.8-5.5l0.8,5.7C476.9,213.9,476,213.9,475.1,213.4z" id="r1HgXPRRDg7"/>
	<path d="M477.8,213.6l1.3,8.8l-6.8-0.5l2.8-8.6C476,213.9,476.9,213.9,477.8,213.6z" id="SJ8g7wRRvl7"/>
	<polygon points="465.5,301.7 472.2,302.2 472.4,300.1 465.7,299.6 &#9;" id="SJDlXwARvx7"/>
	<polygon points="464.8,309.6 471.6,310.1 472.2,302.2 465.5,301.7 &#9;" id="HyOlQw0RvgQ"/>
	<polygon points="471.6,310.1 472.2,302.2 470.2,302 469.5,310 &#9;" id="B1tlXvRRwl7"/>
	<polygon points="472.4,300.1 472.2,302.2 470.2,302 470.4,299.9 &#9;" id="rycxXw0CwlQ"/>
	<polygon points="456.3,221.1 472,297.7 469.8,298.1 454.1,221.5 &#9;" id="BkslmP0ADl7"/>
	<polygon points="454.1,221.5 469.8,298.1 467.5,298.5 451.8,221.9 &#9;" id="rkhxQDRAPeX"/>
	<polygon points="449.6,222.2 451.8,221.9 467.5,298.5 465.3,298.8 &#9;" id="B1pemP0Rwgm"/>
	<path d="M449.9,213.3l0.2-5.7l2.4,5.3C451.7,213.4,450.8,213.6,449.9,213.3z" id="SJAxQwR0Pgm"/>
	<path d="M452.5,212.9l3.8,8.3l-6.7,1.1l0.3-8.9C450.8,213.6,451.7,213.4,452.5,212.9z" id="Bk1ZmvCCveQ"/>
	<polygon points="465.8,300.9 472.4,299.8 472,297.7 465.3,298.8 &#9;" id="rJlbmwCAvl7"/>
	<polygon points="467.4,308.7 474,307.6 472.4,299.8 465.8,300.9 &#9;" id="By-bmwRAPeX"/>
	<polygon points="474,307.6 472.4,299.8 470.4,300.2 472,308 &#9;" id="SkG-mwCCwgQ"/>
	<polygon points="472,297.7 472.4,299.8 470.4,300.2 470,298.1 &#9;" id="BkQW7P0Cvl7"/>
	<rect x="438.4" y="260.6" width="57.5" height="7.5" id="rk4-mwRRweQ"/>
	<rect x="443.5" y="268.1" width="47.4" height="46.8" id="S1SZXv00Dg7"/>
	<rect x="443.5" y="268.1" width="47.4" height="2.1" id="BJ8-7wACDxX"/>
	<rect x="147.9" y="23.2" width="192.4" height="162.4" id="HJPWQDACDeQ"/>
	<path d="M340.3,9.6c0-5.3-4.3-9.6-9.6-9.6H157.6c-5.3,0-9.6,4.3-9.6,9.6V10h192.4V9.6z" id="SkOZXPC0Dg7"/>
	<rect x="147.9" y="10" width="192.4" height="13.2" id="BJYbQwRAvxX"/>
	<path d="M169.8,18.9c0.1,0.5,0.6,0.9,1.1,0.9h146.2c0.5,0.1,1-0.3,1.1-0.9v-4.6c-0.1-0.5-0.6-0.9-1.1-0.9H170.9&#10;&#9;&#9;c-0.5-0.1-1,0.3-1.1,0.9V18.9z" id="H15WQPRRPl7"/>
	<path d="M156.5,5c0,0.8-0.6,1.4-1.4,1.4c-0.8,0-1.4-0.6-1.4-1.4c0-0.8,0.6-1.4,1.4-1.4S156.5,4.2,156.5,5&#10;&#9;&#9;C156.5,5,156.5,5,156.5,5z" id="HysW7w00wx7"/>
	<path d="M160.4,5c0,0.8-0.6,1.4-1.4,1.4c-0.8,0-1.4-0.6-1.4-1.4s0.6-1.4,1.4-1.4c0,0,0,0,0,0&#10;&#9;&#9;C159.8,3.6,160.4,4.2,160.4,5z" id="HJn-QPRCwx7"/>
	<path d="M164.4,5c0,0.8-0.6,1.4-1.4,1.4c-0.8,0-1.4-0.6-1.4-1.4s0.6-1.4,1.4-1.4c0,0,0,0,0.1,0&#10;&#9;&#9;C163.8,3.6,164.4,4.2,164.4,5z" id="BJ6bXvAAwe7"/>
	<path d="M153.6,14.1h2.8c0.8,0,1.4,0.6,1.4,1.4v2.2c0,0.8-0.6,1.4-1.4,1.4h-2.8c-0.8,0-1.4-0.6-1.4-1.4v-2.2&#10;&#9;&#9;C152.2,14.8,152.9,14.1,153.6,14.1z" id="ByAWQwCCveQ"/>
	<path d="M162,14h2.8c0.8,0,1.4,0.6,1.4,1.4v2.2c0,0.8-0.6,1.4-1.4,1.4H162c-0.8,0-1.4-0.6-1.4-1.4v-2.2&#10;&#9;&#9;C160.6,14.6,161.3,14,162,14z" id="HkyGQDACvg7"/>
	<path d="M323.3,14.1h2.8c0.8,0,1.4,0.6,1.4,1.4v2.2c0,0.8-0.6,1.4-1.4,1.4h-2.8c-0.8,0-1.4-0.6-1.4-1.4v-2.2&#10;&#9;&#9;C322,14.8,322.6,14.1,323.3,14.1z" id="Bkez7PR0vxQ"/>
	<path d="M331.5,14.1h2.8c0.8,0,1.4,0.6,1.4,1.4v2.2c0,0.8-0.6,1.4-1.4,1.4h-2.8c-0.8,0-1.4-0.6-1.4-1.4v-2.2&#10;&#9;&#9;C330.1,14.8,330.7,14.1,331.5,14.1z" id="HybMmDCCDl7"/>
	<rect x="281.4" y="29.3" width="51.5" height="40.9" id="B1GfXPRCPlQ"/>
	<rect x="156.5" y="115.1" width="55.1" height="36.5" id="BJmGmw0RPxm"/>
	<rect x="216.9" y="115.1" width="55.1" height="36.5" id="B14fmPCRPxQ"/>
	<rect x="277.8" y="115.1" width="55.1" height="36.5" id="BkHMQv00wlX"/>
	<rect x="156.5" y="156.9" width="41.4" height="6.1" id="rkUf7DRCvxQ"/>
	<rect x="156.5" y="166" width="48.7" height="3.1" id="rJvGmD0CPxm"/>
	<rect x="156.5" y="172.8" width="29.9" height="3.2" id="SJ_MQv00wlm"/>
	<rect x="188.8" y="172.8" width="13.4" height="3.2" id="BytfXvAAPlm"/>
	<rect x="216.9" y="156.5" width="41.3" height="6.1" id="S1qGmDR0DeQ"/>
	<rect x="216.9" y="165.5" width="48.7" height="3.1" id="BJozmvA0Pl7"/>
	<rect x="216.9" y="172.3" width="29.9" height="3.2" id="BynM7w0RPlQ"/>
	<rect x="249.2" y="172.3" width="13.4" height="3.2" id="B1pfXPACwlm"/>
	<rect x="277.8" y="156.5" width="41.4" height="6.1" id="BJAzXD0RveQ"/>
	<rect x="277.8" y="165.5" width="48.7" height="3.1" id="BJkmmPCCvgX"/>
	<rect x="277.8" y="172.3" width="29.9" height="3.2" id="HJeQQvCAvlX"/>
	<rect x="310.1" y="172.3" width="13.4" height="3.2" id="HyZ7XD00Dem"/>
	<path d="M444.3,166.4c0-2.2-1.7-3.9-3.9-3.9c0,0,0,0,0,0h-82c-2.2,0-3.9,1.8-3.9,3.9v21.4h89.8L444.3,166.4z" id="HkfXQv00vgQ"/>
	<path d="M354.5,312.1c0,2.2,1.7,3.9,3.9,3.9c0,0,0,0,0,0h82c2.2,0,3.9-1.8,3.9-3.9v-27.9h-89.9V312.1z" id="BkQXmvRCDeX"/>
	<rect x="354.5" y="187.8" width="89.8" height="96.4" id="SyNX7vACwxX"/>
	<path d="M406.8,300.7c0,3.6-2.9,6.5-6.5,6.5c-3.6,0-6.5-2.9-6.5-6.5c0-3.6,2.9-6.5,6.5-6.5S406.8,297.1,406.8,300.7&#10;&#9;&#9;C406.8,300.7,406.8,300.7,406.8,300.7z" id="Syr7QwARDxX"/>
	<path d="M417.2,174.1c0,1.3-1.1,2.4-2.4,2.4H383c-1.3,0-2.4-1.1-2.4-2.4c0,0,0,0,0,0l0,0c0-1.3,1.1-2.4,2.4-2.4&#10;&#9;&#9;c0,0,0,0,0,0h31.8C416.2,171.7,417.2,172.7,417.2,174.1L417.2,174.1z" id="B1LmXPCRve7"/>
	<rect x="358.5" y="259.2" width="38.2" height="21.4" id="HJD7Qw00wxX"/>
	<rect x="401.5" y="259.2" width="38.2" height="21.4" id="rJu7mvCRPeQ"/>
	<path d="M0,300.4c0,4.6,3.7,8.3,8.3,8.3c0,0,0,0,0,0h112.4c4.6,0,8.3-3.7,8.3-8.3v-21.2H0V300.4z" id="HkKQXwCCveX"/>
	<rect y="144.1" width="129" height="135" id="BJ5mQDCCwlm"/>
	<path d="M129,130.5c0-4.6-3.7-8.3-8.3-8.3H8.3c-4.6,0-8.3,3.7-8.3,8.3v13.6h129V130.5z" id="HJsm7vRADe7"/>
	<path d="M75.1,134.9H53.9c-0.9-0.1-1.6-0.9-1.6-1.8c0.1-0.8,0.7-1.5,1.6-1.6h21.2c0.9,0.1,1.6,0.9,1.6,1.8&#10;&#9;&#9;C76.6,134.1,75.9,134.8,75.1,134.9z" id="rk2mXD00wgQ"/>
	
		<ellipse cx="64.5" cy="292.6" rx="5.8" ry="5.8" id="rJ67Xv0RvgX"/>
	<g id="ryAX7w0CwgX">
		<rect x="155" y="29.3" width="122.7" height="40.9" id="rJkE7w0CPlm"/>
		<rect x="147.9" y="74.8" width="192.4" height="34.3" id="BJeVXvR0PlX"/>
		<rect x="358.5" y="191.3" width="81.1" height="27.7" id="B1WEmwC0vlm"/>
		<rect x="354.5" y="222.5" width="89.8" height="33.6" id="BkGVXPRAvx7"/>
		<rect x="5.9" y="148.1" width="116.8" height="39.8" id="SyX4XvR0PgQ"/>
		<rect y="193" width="129" height="48.3" id="HkVVmwC0DlQ"/>
	</g>
	<g id="SkSNXv0Rwx7">
		<g id="H1IEmvA0vxX_HJcqCRweQ" data-animator-group="true" data-animator-type="2"><rect x="155" y="29.3" width="122.7" height="40.9" id="H1IEmvA0vxX"/></g>
		<g id="Hyw4XD00vlm_HJDlykdl7" data-animator-group="true" data-animator-type="2"><rect x="147.9" y="74.8" width="192.4" height="34.3" id="Hyw4XD00vlm"/></g>
		<g id="r1O47P0RDx7_B1osACveQ" data-animator-group="true" data-animator-type="2"><rect x="358.5" y="191.3" width="81.1" height="27.7" id="r1O47P0RDx7"/></g>
		<g id="ryYVXDACPgQ_rJJ41y_g7" data-animator-group="true" data-animator-type="2"><rect x="354.5" y="222.5" width="89.8" height="33.6" id="ryYVXDACPgQ"/></g>
		<g id="rycEQwA0veQ_BynOAAPlX" data-animator-group="true" data-animator-type="2"><rect x="5.9" y="148.1" width="116.8" height="39.8" id="rycEQwA0veQ"/></g>
		<g id="HksEmvC0veQ_S1AARCvlm" data-animator-group="true" data-animator-type="2"><rect y="193" width="129" height="48.3" id="HksEmvC0veQ"/></g>
	</g>
	<rect x="5.9" y="245.8" width="55" height="30.8" id="r12VXv0Rve7"/>
	<rect x="67.7" y="245.8" width="55" height="30.8" id="SkaE7DARDxQ"/>
	<g id="rk047DCRPlQ">
		<rect x="156.8" y="86.6" width="29.5" height="3.4" id="SykSmDC0Px7"/>
		<rect x="156.8" y="91.7" width="34.7" height="1.7" id="BJerQwA0Pe7"/>
		<rect x="156.8" y="95.4" width="21.3" height="1.8" id="S1bBQDACPlm"/>
		<rect x="179.8" y="95.4" width="9.5" height="1.8" id="BJzBXw0CvlX"/>
		<rect x="324.6" y="88.6" width="8.2" height="7.2" id="r1mrmDACvg7"/>
		<rect x="359.6" y="234" width="23.3" height="2.7" id="ByESmP0ADgm"/>
		<rect x="359.6" y="238" width="27.4" height="1.4" id="BySBXvCCDem"/>
		<rect x="359.6" y="241" width="16.9" height="1.4" id="SkLrmP00DgQ"/>
		<rect x="377.9" y="241" width="7.5" height="1.4" id="B1vBmPRRDlX"/>
		<rect x="431.5" y="235.8" width="8.2" height="7.2" id="Hk_B7DC0DeX"/>
		<rect x="7.5" y="209.6" width="33.5" height="3.9" id="S1tHQPCAweX"/>
		<rect x="7.5" y="215.3" width="39.5" height="2" id="BJcBmPRRveX"/>
		<rect x="7.5" y="219.6" width="24.3" height="2" id="HkjSmPCRvgm"/>
		<rect x="33.7" y="219.6" width="10.9" height="2" id="SyhrQvRCDlX"/>
		<rect x="110.9" y="212.1" width="11.8" height="10.3" id="S1aHQwC0Dl7"/>
	</g>
	<rect x="129" y="185.6" width="4.1" height="12.1" id="ryCHmvCAPx7"/>
	<rect x="129" y="197.8" width="4.1" height="62.5" id="HyJLQDRCDe7"/>
	<rect x="350.4" y="185.6" width="4.1" height="12.1" id="HkeUXvCAvem"/>
	<rect x="350.4" y="197.7" width="4.1" height="62.5" id="rkW87PACvgX"/>
</g>
<script>(function(){var a=document.querySelector('#B1QwA0DxQ'),b=a.querySelectorAll('style'),c=function(d){b.forEach(function(f){var g=f.textContent;g&amp;&amp;(f.textContent=g.replace(/transform-box:[^;\r\n]*/gi,'transform-box: '+d))})};c('initial'),window.requestAnimationFrame(function(){return c('fill-box')})})();</script></svg>