<svg version="1.1" id="Byntgy_lQ" xmlns="http://www.w3.org/2000/svg" xmlns:xlink="http://www.w3.org/1999/xlink" x="0px" y="0px" viewBox="0 0 220 290" style="enable-background:new 0 0 220.6 290.5;" xml:space="preserve"><style>@-webkit-keyframes HkwnteJOgQ_Animation{0%{opacity: 0.3;}6.67%{opacity: 1;}13.33%{opacity: 0.3;}20%{opacity: 1;}26.67%{opacity: 0.3;}100%{opacity: 0.3;}}@keyframes HkwnteJOgQ_Animation{0%{opacity: 0.3;}6.67%{opacity: 1;}13.33%{opacity: 0.3;}20%{opacity: 1;}26.67%{opacity: 0.3;}100%{opacity: 0.3;}}@-webkit-keyframes HkoehKxJOx7_SJXcey_xm_Animation{0%{-webkit-transform: translate(-5px, 0px);transform: translate(-5px, 0px);}13.33%{-webkit-transform: translate(5px, 0px);transform: translate(5px, 0px);}53.33%{-webkit-transform: translate(5px, 0px);transform: translate(5px, 0px);}66.67%{-webkit-transform: translate(-5px, 0px);transform: translate(-5px, 0px);}100%{-webkit-transform: translate(-5px, 0px);transform: translate(-5px, 0px);}}@keyframes HkoehKxJOx7_SJXcey_xm_Animation{0%{-webkit-transform: translate(-5px, 0px);transform: translate(-5px, 0px);}13.33%{-webkit-transform: translate(5px, 0px);transform: translate(5px, 0px);}53.33%{-webkit-transform: translate(5px, 0px);transform: translate(5px, 0px);}66.67%{-webkit-transform: translate(-5px, 0px);transform: translate(-5px, 0px);}100%{-webkit-transform: translate(-5px, 0px);transform: translate(-5px, 0px);}}#Byntgy_lQ *{-webkit-animation-duration: 1.5s;animation-duration: 1.5s;-webkit-animation-iteration-count: infinite;animation-iteration-count: infinite;-webkit-animation-timing-function: cubic-bezier(0, 0, 1, 1);animation-timing-function: cubic-bezier(0, 0, 1, 1);}#H1Qntl1_e7{fill: #58595B;}#B1rnKlJdl7{fill: #414042;}#HyL2FgyOg7{opacity: 0.3;fill: #E2E2E2;enable-background: new;}#HkwnteJOgQ{fill: #FFFFFF;-webkit-animation-name: HkwnteJOgQ_Animation;animation-name: HkwnteJOgQ_Animation;-webkit-transform-origin: 50% 50%;transform-origin: 50% 50%;transform-box: fill-box;}#HJu2tlkdeQ{fill: #F4F4F4;}#r1Y2tekug7{fill: #333333;}#Hychtl1_e7{fill: #333333;}#HJjhKlydxX{fill: #B5B5B5;}#HJ22Kxy_xQ{fill: #B5B5B5;}#HJa2Fekdl7{fill: #333333;}#SJ03Kly_xm{fill: #333333;}#HJ1g2KlyugQ{fill: #B5B5B5;}#Hygx2tlkOx7{fill: #AAAAAA;}#Sy-lnFx1ulQ{fill: #AAAAAA;}#H1fghtxJueX{fill: #AAAAAA;}#S1XehFgydlX{fill: #AAAAAA;}#HJExhFl1OxX{fill: #AAAAAA;}#HJBxhtg1dgm{fill: #AAAAAA;}#B1LxhKlydem{fill: #AAAAAA;}#BJDx3txJugX{fill: #AAAAAA;}#SJ_x2KlJOem{opacity: 0.47;fill: #E2E2E2;enable-background: new;}#r1FehYgJOem{fill: #FFFFFF;}#BJqx3Yl1dg7{fill: #FFFFFF;}#r1hl3YxJOem{fill: #333333;}#H16x3tx1_gm{fill: #333333;}#HkoehKxJOx7_SJXcey_xm{-webkit-animation-name: HkoehKxJOx7_SJXcey_xm_Animation;animation-name: HkoehKxJOx7_SJXcey_xm_Animation;-webkit-transform-origin: 50% 50%;transform-origin: 50% 50%;transform-box: fill-box;-webkit-transform: translate(0px, 0px);transform: translate(0px, 0px);}</style>

<title>Asset 23</title>
<g id="Hygntl1_e7">
	<g id="HkZ3YlkueQ">
		<g id="H1fntgyOeX">
			<path id="H1Qntl1_e7" d="M206.2,272.5c0,3.9-3.1,7-7,7H21.5c-3.9,0-7-3.1-7-7L0,155.2c0-4.1,3.6-7.4,8.1-7.4h204.5&#10;&#9;&#9;&#9;&#9;c4.5,0,8.1,3.3,8.1,7.4L206.2,272.5z"/>
			<g id="BkEhKe1ul7">
				<rect id="B1rnKlJdl7" x="12.8" y="278.9" width="194.1" height="11.6"/>
			</g>
			<path id="HyL2FgyOg7" d="M140.2,279.5H21.5c-3.9,0-7-3.1-7-7L0,155.2c0-4.1,3.6-7.4,8.1-7.4h70.7L140.2,279.5z"/>
		</g>
		<circle id="HkwnteJOgQ" cx="109" cy="215.3" r="12.5"/>
	</g>
	<path d="M133.2,3.5c16.8,5,31.1,15.2,37.1,29.6c16.2,38.2-3.5,74.4-3.5,74.4c0.5,0,1,0.2,1.4,0.5&#10;&#9;&#9;c5.9,4.2,7.7,12.2,4.1,18.5c-2.7,4.5-7.8,7-12.8,8.6c-5.8,1.9-11.8,2.8-17.9,2.7c0.3,3.7-2.5,6.9-6.2,7.2c-3.7,0.3-6.9-2.5-7.2-6.2&#10;&#9;&#9;c0-0.2,0-0.4,0-0.6c0.6,3.2-1.6,6.8-4.8,7.3s-6.6-2.7-5.8-5.9c0,3.2-2.5,6.4-5.7,6.7s-6.4-2.9-5.7-6c-0.8,3.8-4.6,6.1-8.4,5.3&#10;&#9;&#9;c-3.1-0.7-5.4-3.5-5.5-6.7c-0.1,3.8-3.1,6.8-6.9,6.7c-0.1,0-0.1,0-0.2,0c-3.4-0.4-5.8-3.6-5.4-7c0-0.2,0.1-0.4,0.1-0.6&#10;&#9;&#9;c-4.1-1-8.3-1.7-12.6-2.2c-3.7-0.4-7.4-0.6-11-1.7s-7-3.2-8.7-6.4c-1-2-1.5-4.2-1.3-6.4c0.5-4.8,3.6-8.9,8.1-10.6&#10;&#9;&#9;c0,0-22.6-42.8,1-83.8C70.5,1.2,105.2-4.8,133.2,3.5" id="HJu2tlkdeQ"/>
	<path d="M99.9,114.6c0.7,1.3,2,2.1,3.4,2.2c1.7,0.3,3.4-0.3,4.6-1.6c0.7-1,1.1-2.2,1.2-3.4c0.9-5,1.3-10.2,1.3-15.3&#10;&#9;&#9;c0-0.4,0-0.7-0.1-1.1c-0.1-0.8-0.9-1.3-1.7-1.2c-0.4,0.1-0.8,0.3-1,0.7l-4.8,7.5c-0.9,1.3-1.6,2.6-2.3,4c-0.8,1.9-1.2,3.9-1.1,5.9&#10;&#9;&#9;C99.5,113.1,99.6,113.9,99.9,114.6z" id="r1Y2tekug7"/>
	<path d="M122.5,113.4c-0.7,1.2-1.9,2-3.2,2.1c-1.6,0.3-3.2-0.3-4.3-1.5c-0.6-1-1-2.1-1.2-3.2&#10;&#9;&#9;c-0.8-4.8-1.3-9.6-1.2-14.4c0-0.3,0-0.7,0.1-1c0.1-0.8,0.9-1.3,1.6-1.1c0.4,0.1,0.7,0.3,0.9,0.6l4.6,7.1c0.8,1.2,1.5,2.4,2.2,3.8&#10;&#9;&#9;c0.8,1.8,1.1,3.7,1.1,5.6C123,112,122.8,112.8,122.5,113.4z" id="Hychtl1_e7"/>
	<path d="M61.6,89.9c-1,5.2-0.9,11,2.1,15.4c4.3,6.3,13.8,7.6,20.5,4S95,98.2,96.1,90.7c0.5-3.3,0.5-6.9-1.1-9.9&#10;&#9;&#9;c-2.1-4-6.7-6.1-11.2-6.3s-8.9,1.4-12.9,3.5c-2.7,1.2-5,3-6.8,5.3C62.8,85.3,62,87.6,61.6,89.9z" id="HJjhKlydxX"/>
	<path d="M128.6,83.7c-2.5,7.6-0.3,16.8,6.1,21.7s16.6,4.3,21.7-1.9c1.1-1.3,2-2.9,2.5-4.5c0.7-2.5,0.9-5.1,0.8-7.7&#10;&#9;&#9;c0-3.2-0.1-6.6-1.6-9.5c-2-4-6.3-6.6-10.8-7.2c-4.5-0.4-9,0.5-13,2.6c-1.3,0.5-2.4,1.3-3.4,2.2C129.9,80.6,129.1,82.1,128.6,83.7z" id="HJ22Kxy_xQ"/>
	<path d="M79.4,104.9c6.6-0.9,12.8-5.2,15-11.5c0.8-2.3,1.1-4.8,1.1-7.3c0.2-2.7-0.2-5.4-1.3-7.9&#10;&#9;&#9;c-0.9-1.6-2.2-3.1-3.7-4.2c-0.9-0.8-1.9-1.4-2.9-1.9c-2.1-0.8-4.4-1-6.6-0.6c-5.2,0.7-10.1,3.1-13.7,6.9c-3.6,3.9-5.3,9.2-4.6,14.4&#10;&#9;&#9;c0.8,5.3,4.5,9.7,9.6,11.4C74.6,105.1,77,105.3,79.4,104.9z" id="HJa2Fekdl7"/>
	<path d="M129.4,94.3c1.1,2.5,2.7,4.7,4.9,6.3c3.4,2.4,7.8,2.9,12,2.8c2.6-0.1,5.2-0.4,7.3-1.9c2.9-2.2,3.6-6.2,3.9-9.9&#10;&#9;&#9;c0.3-4.2,0.2-8.6-1.8-12.2c-2.1-3.4-5.4-5.9-9.2-7.1c-1.9-0.7-3.9-1-5.9-0.9c-5.1,0.5-9.4,3.7-11.4,8.4&#10;&#9;&#9;C127.1,84.5,127.2,89.7,129.4,94.3z" id="SJ03Kly_xm"/>
	<path d="M148,28.5c-0.9,1.7-0.3,3.7,0.7,5.3c1.1,1.6,2.5,2.8,4.3,3.6c0.9,0.5,1.9,0.6,2.9,0.4c0.4-0.1,0.8-0.3,1.2-0.6&#10;&#9;&#9;c2.6-1.9,3.7-5.2,2.7-8.2c-0.4-1.3-1.2-2.3-2.3-3.1c-2.3-1.6-5.6-0.9-7.9,0.8C148.9,27.3,148.4,27.9,148,28.5z" id="HJ1g2KlyugQ"/>
	<path d="M95.7,1.4c-0.1,1.7,1.8,2.6,1.7,4.5c-0.1,0.8-0.4,1.6-1,2.3c-0.5,0.6-1,1.2-1.6,1.8c-2.1,2.4-4.2,4.8-6.4,7.2&#10;&#9;&#9;l0.1-0.6c1.3,2,3.1,3.6,5.2,4.8l0.4,0.2L94,22c-1.5,4-2.8,8-4,12.1c-0.6,2-1.2,4.1-1.7,6.2s-1,4.2-1.5,6.2c0.2-2.1,0.6-4.2,1-6.3&#10;&#9;&#9;s0.9-4.2,1.4-6.3c1-4.2,2.3-8.3,3.8-12.3l0.2,0.7c-2.2-1.3-4.1-3-5.5-5.2l-0.2-0.3l0.3-0.3c2.2-2.4,4.4-4.7,6.6-7&#10;&#9;&#9;C94.9,9,95.5,8.4,96,7.8c0.5-0.6,0.9-1.3,1-2c0-0.8-0.2-1.5-0.7-2.2C95.9,3,95.7,2.2,95.7,1.4z" id="Hygx2tlkOx7"/>
	<path d="M165.4,35.3c0.6,1.9,2.2,3.2,3.1,5c0.9,1.8,1.5,3.7,1.9,5.7c0.4,2,0.6,3.9,0.8,5.9l0.6,5.9&#10;&#9;&#9;c0.2,2,0.4,3.9,0.5,5.9c0.1,2,0.1,4,0,6c-0.1,2-0.4,4-0.9,5.9c-0.5,1.9-1.3,3.8-2.3,5.5c1.5-3.6,2.3-7.5,2.3-11.4&#10;&#9;&#9;c0-2,0-3.9-0.2-5.9s-0.4-3.9-0.6-5.9c-0.4-3.9-0.6-7.9-1.1-11.8c-0.2-1.9-0.7-3.8-1.5-5.6c-0.4-0.9-0.9-1.7-1.4-2.6&#10;&#9;&#9;C166,37.2,165.6,36.3,165.4,35.3z" id="Sy-lnFx1ulQ"/>
	<path d="M52.2,45.8c-0.9,1-1.2,2.4-1.1,3.7c0.1,1.4,0.1,2.7-0.1,4.1c-0.4,2.8-1.6,5.2-2.2,7.8c-0.6,2.6-0.6,5.2,0,7.8&#10;&#9;&#9;c0.6,2.6,0.8,5.3,0.6,8c-0.2-2.7-0.8-5.3-1.5-7.8c-0.3-1.3-0.5-2.7-0.6-4.1c-0.1-1.4,0.1-2.8,0.4-4.1c0.7-2.7,1.9-5.1,2.4-7.6&#10;&#9;&#9;c0.2-1.3,0.3-2.7,0.4-4c0.1-0.7,0.2-1.4,0.4-2C51.2,46.8,51.7,46.3,52.2,45.8z" id="H1fghtxJueX"/>
	<path d="M61,32.8c-0.4,0-0.8,0.3-0.8,0.8c0,0.4,0.1,0.9,0.2,1.2l-0.2-0.3c0.4,0.2,0.9,0.3,1.4,0.2&#10;&#9;&#9;c0.4-0.1,0.8-0.4,0.9-0.9c0.2-0.4,0.1-0.9-0.3-1.1c-0.4-0.3-0.9-0.4-1.3-0.2l0,0c-0.4,0.4-0.7,0.8-1.1,1.1c0.2-0.5,0.4-1,0.7-1.5&#10;&#9;&#9;l0,0v0c0.6-0.6,1.6-0.7,2.3-0.2c0.4,0.2,0.6,0.6,0.8,1c0.1,0.4,0.1,0.8,0,1.2c-0.2,0.8-0.9,1.4-1.7,1.6c-0.8,0.2-1.5,0-2.2-0.5&#10;&#9;&#9;l-0.2-0.1V35c-0.1-0.5-0.1-1.1,0.1-1.6c0.1-0.3,0.3-0.5,0.6-0.6C60.5,32.7,60.8,32.7,61,32.8z" id="S1XehFgydlX"/>
	<path d="M67.9,32.6c-0.2,0.6-0.1,1.2,0.2,1.7c0.1,0.1,0.3,0.2,0.5,0.2c0.2,0,0.4-0.1,0.6-0.2c0.2-0.1,0.3-0.3,0.3-0.4&#10;&#9;&#9;c0-0.2,0-0.4-0.1-0.6C69.1,32.8,68.5,32.5,67.9,32.6z M67.9,32.6c0.7-0.6,1.8-0.5,2.3,0.3c0.2,0.3,0.4,0.7,0.4,1.1&#10;&#9;&#9;c0,0.5-0.3,1-0.7,1.2c-0.4,0.3-0.8,0.4-1.3,0.4c-0.5,0-0.9-0.3-1.2-0.8C67,34.1,67.3,33.2,67.9,32.6z" id="HJExhFl1OxX"/>
	<path d="M78.2,17.5c-0.1-0.7-0.5-1.3-1.1-1.6c-0.6-0.2-1.3-0.2-1.9,0c-1.1,0.4-1.8,1.6-1.6,2.7c0.1,0.5,0.4,1,0.8,1.3&#10;&#9;&#9;c0.5,0.4,1.1,0.5,1.7,0.4c0.6-0.1,1.2-0.5,1.6-1C78.1,18.8,78.3,18.2,78.2,17.5z M78.2,17.5c0.1,0.7-0.1,1.4-0.4,2&#10;&#9;&#9;c-0.3,0.7-0.9,1.2-1.6,1.4c-0.7,0.3-1.5,0.2-2.2-0.1c-0.8-0.4-1.3-1.1-1.4-2c-0.1-0.8,0.1-1.7,0.6-2.3c0.5-0.6,1.2-1,2-1.1&#10;&#9;&#9;c0.7-0.1,1.5,0,2.1,0.4C77.9,16.1,78.2,16.8,78.2,17.5z" id="HJBxhtg1dgm"/>
	<path d="M161.8,121.5c-0.2,0.4-0.2,0.9,0,1.3l-0.2-0.3c0.4,0.2,0.8,0.2,1.2,0.2l-0.3,0.1c0,0,0.1,0,0.1-0.1&#10;&#9;&#9;c0-0.1,0-0.2,0-0.3c-0.1-0.3-0.3-0.6-0.7-0.6c0.2-0.2,0.4-0.3,0.7-0.2c0.3,0,0.5,0.2,0.7,0.4c0.2,0.2,0.3,0.5,0.4,0.7&#10;&#9;&#9;c0,0.3-0.1,0.7-0.3,0.9l-0.1,0.1h-0.1c-0.7,0.2-1.4,0-1.9-0.4l-0.2-0.1V123C160.9,122.4,161.2,121.7,161.8,121.5z" id="B1LxhKlydem"/>
	<path d="M156.4,126c0.2,0.3,0.4,0.6,0.6,0.8l-0.5-0.2c0.3-0.1,0.5-0.3,0.8-0.4l-0.4,0.5c0-0.3,0-0.5,0-0.8&#10;&#9;&#9;c0,0,0-0.1-0.1-0.2S156.5,125.8,156.4,126c-0.1-0.1-0.1-0.2-0.1-0.4c0.1-0.1,0.2-0.3,0.3-0.3c0.3-0.2,0.7-0.2,1,0.1&#10;&#9;&#9;c0.2,0.2,0.4,0.5,0.4,0.8c0,0.2,0,0.5,0,0.7l-0.1,0.4l-0.3,0.1c-0.3,0.1-0.6,0.1-0.9,0.2h-0.4l-0.1-0.2&#10;&#9;&#9;C156.1,126.9,156.1,126.4,156.4,126z" id="BJDx3txJugX"/>
	<path d="M90.8,143.4c-1.3,1.6-3.3,2.4-5.4,2.3c-3.4-0.4-5.8-3.6-5.4-7c0-0.2,0.1-0.4,0.1-0.6c-4.1-1-8.3-1.7-12.6-2.2&#10;&#9;&#9;c-3.7-0.4-7.4-0.6-11-1.7s-7-3.2-8.7-6.4c-1-2-1.5-4.2-1.3-6.4c0.5-4.8,3.6-8.9,8.1-10.6c0,0-22.7-42.8,1-83.8&#10;&#9;&#9;C70.5,1.2,105.2-4.8,133.2,3.5c0,0-29.2-1.8-46.4,30.2S72.6,113.8,90.8,143.4z" id="SJ_x2KlJOem"/>
	<circle cx="143.4" cy="88.3" r="15.1" id="r1FehYgJOem"/>
	<circle cx="79.6" cy="88.3" r="15.1" id="BJqx3Yl1dg7"/>
	<g id="HkoehKxJOx7_SJXcey_xm" data-animator-group="true" data-animator-type="0"><g id="HkoehKxJOx7">
		<circle cx="143.4" cy="96.9" r="5.6" id="r1hl3YxJOem"/>
		<circle cx="78.2" cy="96.9" r="5.6" id="H16x3tx1_gm"/>
	</g></g>
</g>
<script>(function(){var a=document.querySelector('#Byntgy_lQ'),b=a.querySelectorAll('style'),c=function(d){b.forEach(function(f){var g=f.textContent;g&amp;&amp;(f.textContent=g.replace(/transform-box:[^;\r\n]*/gi,'transform-box: '+d))})};c('initial'),window.requestAnimationFrame(function(){return c('fill-box')})})();</script></svg>