<svg version="1.1" id="r1VXEShve7" xmlns="http://www.w3.org/2000/svg" xmlns:xlink="http://www.w3.org/1999/xlink" x="0px" y="0px" viewBox="0 0 508 305" style="enable-background:new 0 0 508.9 305.2;" xml:space="preserve"><style>@-webkit-keyframes HJ8lm4B2vlX_H1gsSnvem_Animation{0%{-webkit-transform: scale(1, 1);transform: scale(1, 1);}15%{-webkit-transform: scale(1.2, 1.2);transform: scale(1.2, 1.2);}30%{-webkit-transform: scale(1, 1);transform: scale(1, 1);}45%{-webkit-transform: scale(1.2, 1.2);transform: scale(1.2, 1.2);}60%{-webkit-transform: scale(1, 1);transform: scale(1, 1);}75%{-webkit-transform: scale(1.2, 1.2);transform: scale(1.2, 1.2);}90%{-webkit-transform: scale(1, 1);transform: scale(1, 1);}100%{-webkit-transform: scale(1.2, 1.2);transform: scale(1.2, 1.2);}}@keyframes HJ8lm4B2vlX_H1gsSnvem_Animation{0%{-webkit-transform: scale(1, 1);transform: scale(1, 1);}15%{-webkit-transform: scale(1.2, 1.2);transform: scale(1.2, 1.2);}30%{-webkit-transform: scale(1, 1);transform: scale(1, 1);}45%{-webkit-transform: scale(1.2, 1.2);transform: scale(1.2, 1.2);}60%{-webkit-transform: scale(1, 1);transform: scale(1, 1);}75%{-webkit-transform: scale(1.2, 1.2);transform: scale(1.2, 1.2);}90%{-webkit-transform: scale(1, 1);transform: scale(1, 1);}100%{-webkit-transform: scale(1.2, 1.2);transform: scale(1.2, 1.2);}}@-webkit-keyframes Byu7VHnweQ_B1wEr2Dlm_Animation{0%{-webkit-transform: rotate(-20deg);transform: rotate(-20deg);}25%{-webkit-transform: rotate(0deg);transform: rotate(0deg);}50%{-webkit-transform: rotate(-20deg);transform: rotate(-20deg);}75%{-webkit-transform: rotate(0deg);transform: rotate(0deg);}100%{-webkit-transform: rotate(-20deg);transform: rotate(-20deg);}}@keyframes Byu7VHnweQ_B1wEr2Dlm_Animation{0%{-webkit-transform: rotate(-20deg);transform: rotate(-20deg);}25%{-webkit-transform: rotate(0deg);transform: rotate(0deg);}50%{-webkit-transform: rotate(-20deg);transform: rotate(-20deg);}75%{-webkit-transform: rotate(0deg);transform: rotate(0deg);}100%{-webkit-transform: rotate(-20deg);transform: rotate(-20deg);}}@-webkit-keyframes SyP7NBhwgQ_SJ2PBnDeQ_Animation{0%{-webkit-transform: rotate(20deg);transform: rotate(20deg);}25%{-webkit-transform: rotate(0deg);transform: rotate(0deg);}50%{-webkit-transform: rotate(20deg);transform: rotate(20deg);}75%{-webkit-transform: rotate(0deg);transform: rotate(0deg);}100%{-webkit-transform: rotate(20deg);transform: rotate(20deg);}}@keyframes SyP7NBhwgQ_SJ2PBnDeQ_Animation{0%{-webkit-transform: rotate(20deg);transform: rotate(20deg);}25%{-webkit-transform: rotate(0deg);transform: rotate(0deg);}50%{-webkit-transform: rotate(20deg);transform: rotate(20deg);}75%{-webkit-transform: rotate(0deg);transform: rotate(0deg);}100%{-webkit-transform: rotate(20deg);transform: rotate(20deg);}}#r1VXEShve7 *{-webkit-animation-duration: 2s;animation-duration: 2s;-webkit-animation-iteration-count: infinite;animation-iteration-count: infinite;-webkit-animation-timing-function: cubic-bezier(0, 0, 1, 1);animation-timing-function: cubic-bezier(0, 0, 1, 1);}#SyP7NBhwgQ{fill: #EBF9FA;}#Byu7VHnweQ{fill: #EBF9FA;}#HkYXNHhvg7{fill: #EBF9FA;}#S1cQEBnDeQ{fill: #8EBABF;}#H1i74HhveQ{fill: #9FD4D4;}#B127NB2veX{fill: #EBF9FA;}#ryT7EBhDxQ{fill: #EBF9FA;}#By0mNr2Px7{fill: #EBF9FA;}#SkJxQ4SnPeX{fill: #EBF9FA;}#B1eg7NS3vgQ{fill: #EBF9FA;}#HJbg74HhDeX{fill: #D8EAEB;}#BkMeXNS2vlQ{fill: #EBF9FA;}#HJmg7NH3Dg7{fill: #EBF9FA;}#ryNe7NHnwxX{fill: #EBF9FA;}#SJBlXNS3Dx7{fill: #EBF9FA;}#HJ8lm4B2vlX{fill: #8EBABF;}#ryPem4H3Pgm{fill: #8EBABF;}#rJux7Erhvgm{fill: #8EBABF;}#B1FxX4BnweX{fill: none;stroke: #8EBABF;stroke-width: 3;stroke-linecap: round;stroke-linejoin: round;}#ry5l7VS2vgm{fill: none;stroke: #8EBABF;stroke-width: 3;stroke-linecap: round;stroke-linejoin: round;}#Sysl7NS3De7{fill: none;stroke: #8EBABF;stroke-width: 3;stroke-linecap: round;stroke-linejoin: round;}#Hy3lX4B3vgm{fill: none;stroke: #8EBABF;stroke-width: 3;stroke-linecap: round;stroke-linejoin: round;}#rypl74BnPxQ{fill: none;stroke: #8EBABF;stroke-width: 3;stroke-linecap: round;stroke-linejoin: round;}#rJAxmEr2Pg7{fill: none;stroke: #8EBABF;stroke-width: 3;stroke-linecap: round;stroke-linejoin: round;}#BykWXVr2PlX{fill: none;stroke: #8EBABF;stroke-width: 3;stroke-linecap: round;stroke-linejoin: round;}#B1x-7VS3DgX{fill: none;stroke: #8EBABF;stroke-width: 3;stroke-linecap: round;stroke-linejoin: round;}#SyP7NBhwgQ_SJ2PBnDeQ{-webkit-animation-name: SyP7NBhwgQ_SJ2PBnDeQ_Animation;animation-name: SyP7NBhwgQ_SJ2PBnDeQ_Animation;-webkit-transform-origin: 0% 50%;transform-origin: 0% 50%;transform-box: fill-box;}#Byu7VHnweQ_B1wEr2Dlm{-webkit-animation-name: Byu7VHnweQ_B1wEr2Dlm_Animation;animation-name: Byu7VHnweQ_B1wEr2Dlm_Animation;-webkit-transform-origin: 100% 50%;transform-origin: 100% 50%;transform-box: fill-box;}#HJ8lm4B2vlX_H1gsSnvem{-webkit-animation-name: HJ8lm4B2vlX_H1gsSnvem_Animation;animation-name: HJ8lm4B2vlX_H1gsSnvem_Animation;-webkit-transform-origin: 50% 50%;transform-origin: 50% 50%;transform-box: fill-box;}</style>

<title>Asset 1</title>
<g id="S1BQ4Hnvxm">
	<g id="rkI7EShwlQ">
		<g id="SyP7NBhwgQ_SJ2PBnDeQ" data-animator-group="true" data-animator-type="1"><path d="M508.7,147c0-1.4-0.1-2.8-0.4-4.2c-0.9-3.8-3.6-6.7-5.1-10.2s-0.7-7.2-1.1-10.9c-0.2-2.2-0.7-4.5-1.3-6.7&#10;&#9;&#9;&#9;c-1.5-4.8-3.4-9.5-5.6-14c-3.8-8.3-12-24.7-17.4-32.1c-3.5-4.8-7-9.4-12.9-11.7l-3.7-1.5c-3-1.5-6.2-2.5-9.1-4.3&#10;&#9;&#9;&#9;c-2.2-1.4-4.3-3.4-6.9-4c-2-0.5-4.2-0.2-6,0.9c-0.7,0.5-1.4,1-2,1.5c-1.6,1.2-3.4,2.2-5.3,2.8c-2.4,0.8-2.5,3.1-1.9,5.1&#10;&#9;&#9;&#9;c0.9,2.8,1,5.5,2.5,8.2c-2.2,0.8-4.1,3.4-2,5.6c0.5,0.6,1.2,1,2,1.2c2.1,0.7,4.4,1.2,6.6,1.3c1.4,0,2.9,0.1,4.3,0.5&#10;&#9;&#9;&#9;c0.9,0.4,1.8,0.9,2.7,1.4c4.3,2.5,9.5,2.8,14.2,1c1,5.4,4.7,19.8,4.8,25.3c0,4.3-0.2,8.5-0.1,12.8c0.2,4.2,0.9,8.3,2,12.3&#10;&#9;&#9;&#9;c-2.1,0.7-3.4-2.6-4.4-3.9c-3.1-3.9-7.5-6.5-12.3-7.4c-4.5-0.9-8.4-0.1-12.8,0.6c-3.4,0.5-6.3-4.7-8.9-6.8c-6-5-14.6-7.2-22.2-5.2&#10;&#9;&#9;&#9;c-3.6,1-7.2,2.4-10.5,4.1c-1.5,0.8-3.4,0.7-4.8-0.3c-1.2-0.8-2.8-1.8-4.3-2.9l-10.9,82.1c6-5.9,23.8-18.4,27.3-20.6&#10;&#9;&#9;&#9;c2-1.3,4.1-2.4,6.3-3.2c0.6-0.2,1.2-0.4,1.8-0.5c4.9-1,9.9,0.5,14.8,1.6c25.5,6,54.4,4.4,77.7-8.2c1.5-0.7,2.9-1.8,4.1-3.1&#10;&#9;&#9;&#9;C509.5,151.8,508.8,149.4,508.7,147z" id="SyP7NBhwgQ"/></g>
		<g id="Byu7VHnweQ_B1wEr2Dlm" data-animator-group="true" data-animator-type="1"><path d="M117.9,108.5c-1.4,1-3.3,1.1-4.8,0.3c-3.3-1.7-6.8-3.1-10.5-4.1c-7.6-2.1-16.1,0.1-22.2,5.2&#10;&#9;&#9;&#9;c-2.5,2.1-5.5,7.3-8.9,6.8c-4.4-0.7-8.3-1.5-12.8-0.6c-4.9,0.9-9.3,3.6-12.4,7.5c-1,1.3-2.3,4.6-4.4,3.9c1.1-4,1.7-8.2,2-12.4&#10;&#9;&#9;&#9;c0.1-4.2-0.1-8.5,0-12.8c0-5.6,3.8-19.9,4.8-25.3c4.6,1.8,9.8,1.5,14.2-1c0.9-0.6,1.8-1.1,2.7-1.5c1.4-0.4,2.8-0.6,4.2-0.5&#10;&#9;&#9;&#9;c2.3-0.1,4.5-0.6,6.6-1.3c0.8-0.2,1.4-0.7,2-1.2c2.1-2.2,0.2-4.8-2-5.6c1.5-2.6,1.6-5.3,2.5-8.1c0.6-2,0.5-4.2-1.8-5.1&#10;&#9;&#9;&#9;c-1.9-0.6-3.7-1.6-5.3-2.8c-0.6-0.5-1.3-1-2-1.5c-1.8-1.1-4-1.4-6-0.9c-2.6,0.7-4.6,2.6-6.8,4c-2.8,1.8-6.1,2.9-9.1,4.3l-3.8,1.6&#10;&#9;&#9;&#9;c-6,2.3-9.4,6.9-12.9,11.7c-5.4,7.4-13.6,23.8-17.4,32.1c-2.3,4.5-4.1,9.2-5.6,14c-0.6,2.2-1,4.4-1.3,6.7&#10;&#9;&#9;&#9;c-0.4,3.7,0.3,7.4-1.1,10.9s-4.2,6.4-5.1,10.2c-0.3,1.4-0.4,2.8-0.4,4.2c-0.1,2.4-0.8,4.8,0.9,6.8c1.1,1.3,2.5,2.3,4.1,3.1&#10;&#9;&#9;&#9;c23.3,12.6,52.2,14.3,77.7,8.2c4.9-1.1,9.9-2.6,14.8-1.6c0.6,0.1,1.2,0.3,1.8,0.5c2.2,0.8,4.4,1.8,6.3,3.1&#10;&#9;&#9;&#9;c3.5,2.2,10.4,8.5,16.4,14.4v-75.9C120.7,106.7,119.1,107.6,117.9,108.5z" id="Byu7VHnweQ"/></g>
		<path d="M116.3,0h277.1c3.5,0,6.3,2.8,6.3,6.3v265.2c0,3.5-2.8,6.4-6.4,6.4l0,0h-277c-3.5,0-6.3-2.8-6.3-6.4l0,0V6.3&#10;&#9;&#9;&#9;C109.9,2.8,112.8,0,116.3,0z" id="HkYXNHhvg7"/>
		<path d="M393.3,0H116.3c-3.5,0-6.3,2.8-6.3,6.3v16.1h289.8V6.3C399.7,2.8,396.8,0,393.3,0z" id="S1cQEBnDeQ"/>
		<rect x="109.9" y="22.1" width="289.8" height="5" id="H1i74HhveQ"/>
		<path d="M166.4,5.7h182.7c1.7,0,3,1.3,3,3v5.1c0,1.7-1.3,3-3,3H166.4c-1.7,0-3-1.3-3-3V8.7&#10;&#9;&#9;&#9;C163.4,7.1,164.8,5.7,166.4,5.7z" id="B127NB2veX"/>
		<path d="M363.6,5.7h19.2c1.7,0,3,1.3,3,3v5.1c0,1.7-1.3,3-3,3h-19.2c-1.7,0-3-1.3-3-3V8.7&#10;&#9;&#9;&#9;C360.6,7.1,361.9,5.7,363.6,5.7z" id="ryT7EBhDxQ"/>
		<path d="M129.8,11.2c0,2.1-1.7,3.8-3.8,3.8c-2.1,0-3.8-1.7-3.8-3.8c0-2.1,1.7-3.8,3.8-3.8c0,0,0,0,0,0&#10;&#9;&#9;&#9;C128.1,7.4,129.8,9.1,129.8,11.2z" id="By0mNr2Px7"/>
		<path d="M141.1,11.2c0,2.1-1.7,3.8-3.8,3.8c-2.1,0-3.8-1.7-3.8-3.8c0-2.1,1.7-3.8,3.8-3.8&#10;&#9;&#9;&#9;C139.4,7.4,141.1,9.1,141.1,11.2C141.1,11.2,141.1,11.2,141.1,11.2z" id="SkJxQ4SnPeX"/>
		<path d="M152.3,11.2c0,2.1-1.7,3.8-3.8,3.8c-2.1,0-3.8-1.7-3.8-3.8c0-2.1,1.7-3.8,3.8-3.8&#10;&#9;&#9;&#9;C150.6,7.4,152.3,9.1,152.3,11.2C152.3,11.2,152.3,11.2,152.3,11.2z" id="B1eg7NS3vgQ"/>
		<path d="M118.3,271.6c0-1.3,1.3-2.3,3-2.3h266.9c1.6,0,3,1,3,2.3s-1.4,2.3-3,2.3H121.3&#10;&#9;&#9;&#9;C119.7,273.9,118.3,272.8,118.3,271.6z" id="HJbg74HhDeX"/>
		<rect x="204.2" y="277.9" width="2.9" height="27.4" id="BkMeXNS2vlQ"/>
		<path d="M207.1,305.2c-0.2-4.1-3.6-7.3-7.7-7.1c-3.9,0.1-7,3.3-7.1,7.1H207.1z" id="HJmg7NH3Dg7"/>
		<rect x="302.5" y="277.9" width="2.9" height="27.4" id="ryNe7NHnwxX"/>
		<path d="M302.5,305.2c0.2-4.1,3.6-7.3,7.7-7.1c3.9,0.1,7,3.3,7.1,7.1H302.5z" id="SJBlXNS3Dx7"/>
		<g id="HJ8lm4B2vlX_H1gsSnvem" data-animator-group="true" data-animator-type="2"><path d="M312.1,100.3H197.5c0,0,9.7,34.2,57.3,34.2S312.1,100.3,312.1,100.3z" id="HJ8lm4B2vlX"/></g>
		<circle cx="167.6" cy="78.9" r="7.9" id="ryPem4H3Pgm"/>
		<circle cx="342.2" cy="78.9" r="7.9" id="rJux7Erhvgm"/>
		<polyline points="152,65.3 179.9,76.7 183.3,71 &#9;&#9;" id="B1FxX4BnweX"/>
		<polyline points="357.8,65.3 329.9,76.7 326.5,71 &#9;&#9;" id="ry5l7VS2vgm"/>
		<path d="M209.6,206.2L209.6,206.2c0,8.3,6.7,15,15,15l0,0h15.2c8.3,0,15-6.7,15-15l0,0l0,0" id="Sysl7NS3De7"/>
		<path d="M254.8,206.2L254.8,206.2c0,8.3,6.7,15,15,15l0,0H285c8.3,0,15-6.7,15-15l0,0l0,0" id="Hy3lX4B3vgm"/>
		<path d="M136.4,154.4L136.4,154.4c0,21.7,17.6,39.3,39.3,39.3l0,0h39.9c21.7,0,39.3-17.6,39.3-39.3c0,0,0,0,0,0l0,0" id="rypl74BnPxQ"/>
		<path d="M254.8,154.4L254.8,154.4c0,21.7,17.6,39.3,39.3,39.3H334c21.7,0,39.3-17.6,39.3-39.3l0,0" id="rJAxmEr2Pg7"/>
		<path d="M209.6,237.1L209.6,237.1c0,8.3,6.7,15,15,15l0,0h15.2c8.3,0,15-6.7,15-15l0,0l0,0" id="BykWXVr2PlX"/>
		<path d="M254.8,237.1L254.8,237.1c0,8.3,6.7,15,15,15l0,0H285c8.3,0,15-6.7,15-15l0,0l0,0" id="B1x-7VS3DgX"/>
	</g>
</g>
<script>(function(){var a=document.querySelector('#r1VXEShve7'),b=a.querySelectorAll('style'),c=function(d){b.forEach(function(f){var g=f.textContent;g&amp;&amp;(f.textContent=g.replace(/transform-box:[^;\r\n]*/gi,'transform-box: '+d))})};c('initial'),window.requestAnimationFrame(function(){return c('fill-box')})})();</script></svg>