<svg version="1.1" id="BJdljI7JHbm" xmlns="http://www.w3.org/2000/svg" xmlns:xlink="http://www.w3.org/1999/xlink" x="0px" y="0px" viewBox="-35 0 190 210" style="enable-background:new 0 0 190 210;" xml:space="preserve"><style>@-webkit-keyframes Sk6zoLQkBbX_S1iEHkS-7_Animation{25%{-webkit-transform: rotate(3deg);transform: rotate(3deg);}30%{-webkit-transform: rotate(-3deg);transform: rotate(-3deg);}35%{-webkit-transform: rotate(3deg);transform: rotate(3deg);}40%{-webkit-transform: rotate(-3deg);transform: rotate(-3deg);}45%{-webkit-transform: rotate(3deg);transform: rotate(3deg);}0%{-webkit-transform: rotate(3deg);transform: rotate(3deg);}100%{-webkit-transform: rotate(3deg);transform: rotate(3deg);}}@keyframes Sk6zoLQkBbX_S1iEHkS-7_Animation{25%{-webkit-transform: rotate(3deg);transform: rotate(3deg);}30%{-webkit-transform: rotate(-3deg);transform: rotate(-3deg);}35%{-webkit-transform: rotate(3deg);transform: rotate(3deg);}40%{-webkit-transform: rotate(-3deg);transform: rotate(-3deg);}45%{-webkit-transform: rotate(3deg);transform: rotate(3deg);}0%{-webkit-transform: rotate(3deg);transform: rotate(3deg);}100%{-webkit-transform: rotate(3deg);transform: rotate(3deg);}}@-webkit-keyframes Hkvmi8XJB-m_BJ77NJBbm_Animation{0%{-webkit-transform: scale(1, 1);transform: scale(1, 1);}25%{-webkit-transform: scale(1.1, 1.1);transform: scale(1.1, 1.1);}50%{-webkit-transform: scale(1.1, 1.1);transform: scale(1.1, 1.1);}75%{-webkit-transform: scale(1.1, 1.1);transform: scale(1.1, 1.1);}100%{-webkit-transform: scale(1, 1);transform: scale(1, 1);}}@keyframes Hkvmi8XJB-m_BJ77NJBbm_Animation{0%{-webkit-transform: scale(1, 1);transform: scale(1, 1);}25%{-webkit-transform: scale(1.1, 1.1);transform: scale(1.1, 1.1);}50%{-webkit-transform: scale(1.1, 1.1);transform: scale(1.1, 1.1);}75%{-webkit-transform: scale(1.1, 1.1);transform: scale(1.1, 1.1);}100%{-webkit-transform: scale(1, 1);transform: scale(1, 1);}}@-webkit-keyframes ByLmjUm1rZm_BkTgE1rWm_Animation{0%{-webkit-transform: rotate(5deg);transform: rotate(5deg);}25%{-webkit-transform: rotate(0deg);transform: rotate(0deg);}75%{-webkit-transform: rotate(0deg);transform: rotate(0deg);}100%{-webkit-transform: rotate(5deg);transform: rotate(5deg);}}@keyframes ByLmjUm1rZm_BkTgE1rWm_Animation{0%{-webkit-transform: rotate(5deg);transform: rotate(5deg);}25%{-webkit-transform: rotate(0deg);transform: rotate(0deg);}75%{-webkit-transform: rotate(0deg);transform: rotate(0deg);}100%{-webkit-transform: rotate(5deg);transform: rotate(5deg);}}@-webkit-keyframes BJB7jImJHW7_BJzTm1rZX_Animation{0%{-webkit-transform: rotate(-5deg);transform: rotate(-5deg);}25%{-webkit-transform: rotate(0deg);transform: rotate(0deg);}75%{-webkit-transform: rotate(0deg);transform: rotate(0deg);}100%{-webkit-transform: rotate(-5deg);transform: rotate(-5deg);}}@keyframes BJB7jImJHW7_BJzTm1rZX_Animation{0%{-webkit-transform: rotate(-5deg);transform: rotate(-5deg);}25%{-webkit-transform: rotate(0deg);transform: rotate(0deg);}75%{-webkit-transform: rotate(0deg);transform: rotate(0deg);}100%{-webkit-transform: rotate(-5deg);transform: rotate(-5deg);}}@-webkit-keyframes B1_ms8Q1rWm_Animation{0%{opacity: 0;}25%{opacity: 1;}75%{opacity: 1;}100%{opacity: 0;}}@keyframes B1_ms8Q1rWm_Animation{0%{opacity: 0;}25%{opacity: 1;}75%{opacity: 1;}100%{opacity: 0;}}#BJdljI7JHbm *{-webkit-animation-duration: 2s;animation-duration: 2s;-webkit-animation-iteration-count: infinite;animation-iteration-count: infinite;-webkit-animation-timing-function: cubic-bezier(0, 0, 1, 1);animation-timing-function: cubic-bezier(0, 0, 1, 1);}#SkogoIXJrZm{fill: #004013;}#Bk2eo8QkH-m{fill: #C2D69F;}#HkCli871H-7{fill: #A2C53A;}#SkJbsLXJHZQ{fill: #FFFFFF;}#r1gWjI7kSZX{fill: #FFFFFF;}#SJZbsImJrWQ{fill: #F1E008;}#BkGboImyB-7{fill: #F1E008;}#B1XWj8mkBb7{fill: #F1E008;}#Bk4Wi8XJrZQ{fill: #FFFFFF;}#ry8bs871BZQ{fill: #A2C53A;}#rkPZsUmkH-X{fill: #FFFFFF;}#S1_bjU7JSWX{fill: #FFFFFF;}#ByK-s8XkBWm{fill: #F1E008;}#SJqWo87kHZX{fill: #F1E008;}#B1jWsU71Bb7{fill: #F1E008;}#SJn-jLQyBZm{fill: #FFFFFF;}#H1A-sI7yS-X{fill: #A2C53A;}#BkJMjI7kSZm{fill: #A2C53A;}#SyxzjUQ1BbQ{fill: #FFFFFF;}#Sk-GoLQkSW7{fill: #FFFFFF;}#BkMzjUQJSZX{fill: #F1E008;}#HJ7fiLmkS-m{fill: #F1E008;}#Hy4zoL71r-m{fill: #F1E008;}#HkIfs87yHWQ{fill: #A2C53A;}#BJPMjLXkrbm{fill: #A2C53A;}#r1OMsL7yBWm{fill: #FFFFFF;}#BJKziIXySZQ{fill: #FFFFFF;}#Hy5foImkHW7{fill: #F1E008;}#H1szi8X1HWm{fill: #F1E008;}#By2GsU7kSbX{fill: #F1E008;}#ByRGoI71rZX{fill: #A2C53A;}#S1k7i87JSWQ{fill: #90AD3D;}#Syx7jI7ySbm{fill: #A2C53A;}#r1-7o8QJHWm{fill: #1D1E1D;}#S1fQj8m1HZQ{fill: #1D1E1D;}#rk77j8X1B-7{fill: #7EBA42;}#HyNmjUm1rZQ{fill: #7EBA42;}#BJB7jImJHW7{fill: #1D1E1D;}#ByLmjUm1rZm{fill: #1D1E1D;}#Hkvmi8XJB-m{fill: #749128;}#HytXsLmkH-X{fill: #D8771E;}#By9mo8mJHbm{fill: #D8771E;}#HJ37jLm1BZX{-webkit-clip-path: url(#SVGID_2_);clip-path: url(#SVGID_2_);}#BJ6QsLQJrWX{fill: #72A537;}#rk0miI7JH-Q{fill: #7EBA42;}#Hk1VsU7krZ7{fill: #749128;}#r1gEiUmkHW7{fill: #749128;}#r1ZNjIXJHbX{fill: #749128;}#B1_ms8Q1rWm{-webkit-animation-name: B1_ms8Q1rWm_Animation;animation-name: B1_ms8Q1rWm_Animation;-webkit-transform-origin: 50% 50%;transform-origin: 50% 50%;transform-box: fill-box;opacity: 0;}#BJB7jImJHW7_Hk297yB-Q{-webkit-transform-origin: 0% 0%;transform-origin: 0% 0%;transform-box: fill-box;-webkit-transform: scale(1.1, 1.1);transform: scale(1.1, 1.1);}#BJB7jImJHW7_BJzTm1rZX{-webkit-animation-name: BJB7jImJHW7_BJzTm1rZX_Animation;animation-name: BJB7jImJHW7_BJzTm1rZX_Animation;-webkit-transform-origin: 0% 0%;transform-origin: 0% 0%;transform-box: fill-box;-webkit-transform: rotate(-5deg);transform: rotate(-5deg);}#ByLmjUm1rZm_BkTgE1rWm{-webkit-animation-name: ByLmjUm1rZm_BkTgE1rWm_Animation;animation-name: ByLmjUm1rZm_BkTgE1rWm_Animation;-webkit-transform-origin: 100% 0%;transform-origin: 100% 0%;transform-box: fill-box;-webkit-transform: rotate(5deg);transform: rotate(5deg);}#Hkvmi8XJB-m_BJ77NJBbm{-webkit-animation-name: Hkvmi8XJB-m_BJ77NJBbm_Animation;animation-name: Hkvmi8XJB-m_BJ77NJBbm_Animation;-webkit-transform-origin: 50% 0%;transform-origin: 50% 0%;transform-box: fill-box;-webkit-transform: scale(1, 1);transform: scale(1, 1);}#Sk6zoLQkBbX_S1iEHkS-7{-webkit-transform-origin: 50% 100%;transform-origin: 50% 100%;transform-box: fill-box;-webkit-animation-name: Sk6zoLQkBbX_S1iEHkS-7_Animation;animation-name: Sk6zoLQkBbX_S1iEHkS-7_Animation;}</style>

<title>Asset 37</title>
<g id="Hktlo87yrZQ">
	<g id="HJcli8QJHZQ">
		<path d="M48.2,191.3c-2.8-1.5-21.2-11.6-25.1-30c-0.9-4.1-2.1-8-2.6-12.1c-1.2-11.9-0.8-24.9,6.5-34.3&#10;&#9;&#9;&#9;c5.1-6.5,12.9-10.3,20.6-13.2c3.6-1.5,7.3-2.4,11.2-2.6c4.2-0.1,8.3,1.2,12.2,2.5c7.1,2.3,14.3,4.6,20.7,8.5s12,9.4,14.6,16.4&#10;&#9;&#9;&#9;c2.1,5.9,1.9,12.3,1,18.5c-1.7,11.6-5.7,23.1-13,32.4c-5.4,7-12.7,12.2-21,15.1C66.4,194.9,54.7,194.9,48.2,191.3z" id="SkogoIXJrZm"/>
		<path d="M86.4,210.4L86.4,210.4z" id="Bk2eo8QkH-m"/>
		<g id="HJ6xjUXySZ7">
			<path d="M64,181.6c0.7,0,2.7,5,2.9,5.5c1.9,4.1,3,8.6,3.3,13.2c0.1,2-0.2,4.1-0.3,6.1c-0.1,1.1-0.1,2.1,0.1,3.2&#10;&#9;&#9;&#9;&#9;c0.3,1,0.6,0.8,1.6,0.9c4.5,0.3,9.1,0.1,13.6-0.1l2-0.1c1.2,0,2.2,0,3.4-0.1s2.4-0.2,3.6-0.3c0.8,0,1.6-0.1,2.4-0.4&#10;&#9;&#9;&#9;&#9;c0.8-0.4,0.9-1.2,1-2.1c0.1-1.2,0.1-2.4-0.1-3.6c-0.3-2.6-0.8-5.2-1.6-7.8c-0.9-3-2.3-5.9-4-8.5c-1-1.5-2.1-2.8-3.4-4.1&#10;&#9;&#9;&#9;&#9;c-0.6-0.6-1.3-1.2-2-1.8c-0.4-0.3-1.8-1.7-2.3-1.7L64,181.6z" id="HkCli871H-7"/>
			<path d="M83.6,202.7c-1.8-0.9-4.4-0.7-5.6,1.1c-0.6,1-0.8,2.2-0.8,3.4c0,0.3-0.1,3,0,3.4c2.7,0,5.3-0.1,8-0.2h1.3&#10;&#9;&#9;&#9;&#9;C85.9,207.8,86.4,204.1,83.6,202.7z" id="SkJbsLXJHZQ"/>
			<path d="M97.6,205.4c0-0.5,0-1-0.1-1.5c-1.3-2.6-3.5-4.3-7.1-3.3c-1.8,0.5-3.2,1.9-3.5,3.8c-0.3,2-0.4,4-0.3,6.1h0.7&#10;&#9;&#9;&#9;&#9;h0.2h0.5l2.7-0.1c1.2-0.1,2.4-0.2,3.6-0.3c0.8,0,1.6-0.1,2.4-0.4c0.3-0.1,0.6-0.4,0.7-0.7c0.1-0.5,0.2-1,0.3-1.5&#10;&#9;&#9;&#9;&#9;c0-0.1,0-0.3,0-0.5C97.6,206.4,97.6,205.9,97.6,205.4z" id="r1gWjI7kSZX"/>
			<path d="M89.5,190c1.8-2.3-1.4-4.5-3.5-3.5c-1.4,0.7-2.4,2.9-0.6,3.7c0.7,0.3,1.4,0.5,2.1,0.6&#10;&#9;&#9;&#9;&#9;C88.2,190.9,89,190.6,89.5,190z" id="SJZbsImJrWQ"/>
			<path d="M85,194.5c0.8-1.3-1.8-2.5-2.6-1.4s0.4,1.7,1.3,1.9C84.1,195,84.7,194.9,85,194.5z" id="BkGboImyB-7"/>
			<path d="M92.1,196.1c0.4-0.4,0.5-1.1-0.2-1.4s-1.8,0.4-1.3,1.2c0.2,0.4,0.7,0.6,1.2,0.4&#10;&#9;&#9;&#9;&#9;C91.9,196.2,92,196.2,92.1,196.1z" id="B1XWj8mkBb7"/>
			<path d="M77.2,210.5c-0.1-0.1-0.1-0.2-0.1-0.3c-0.2-2.4-0.2-6.5-3.1-7.5c-1.1-0.4-2.3-0.2-3.2,0.5&#10;&#9;&#9;&#9;&#9;c-0.4,0.5-0.7,1.1-0.8,1.7c0,0.5-0.1,1-0.1,1.5c-0.1,1.1-0.1,2.1,0.1,3.2c0.3,1,0.6,0.8,1.6,0.9s1.9,0.1,2.9,0.1&#10;&#9;&#9;&#9;&#9;S76.3,210.5,77.2,210.5z" id="Bk4Wi8XJrZQ"/>
		</g>
		<g id="HyrboIm1SWm">
			<path d="M58.9,181.7c-0.7-0.1-2.7,5-2.9,5.5c-1.9,4.1-3,8.6-3.3,13.2c-0.1,2.1,0.2,4.1,0.3,6.1&#10;&#9;&#9;&#9;&#9;c0.1,1.1,0.1,2.1-0.1,3.2c-0.3,1-0.6,0.8-1.6,0.9c-4.5,0.3-9.1,0.1-13.6-0.1l-1.9-0.1c-1.2,0-2.3,0-3.4-0.1l-3.6-0.3&#10;&#9;&#9;&#9;&#9;c-0.8,0-1.6-0.1-2.4-0.4c-0.8-0.4-0.9-1.2-1-2c-0.1-1.2,0-2.4,0.1-3.6c0.3-2.6,0.8-5.2,1.6-7.8c0.9-3,2.3-5.9,4-8.5&#10;&#9;&#9;&#9;&#9;c1-1.5,2.1-2.8,3.4-4.1c0.7-0.6,1.3-1.3,2-1.8c0.4-0.3,1.8-1.7,2.3-1.7L58.9,181.7z" id="ry8bs871BZQ"/>
			<path d="M39.4,202.9c1.8-0.9,4.4-0.7,5.6,1.1c0.6,1,0.8,2.2,0.8,3.4c0,0.3,0.1,3,0,3.4c-2.7,0-5.3-0.1-8-0.2&#10;&#9;&#9;&#9;&#9;l-1.3-0.1C37.1,207.9,36.5,204.3,39.4,202.9z" id="rkPZsUmkH-X"/>
			<path d="M25.4,205.5c0-0.5,0.1-0.9,0.1-1.5c1.3-2.6,3.5-4.3,7.1-3.3c1.8,0.5,3.2,1.9,3.5,3.8c0.3,2,0.4,4,0.3,6.1&#10;&#9;&#9;&#9;&#9;h-0.6h-0.7l-2.7-0.1c-1.2-0.1-2.4-0.2-3.6-0.3c-0.8,0-1.6-0.1-2.4-0.4c-0.3-0.1-0.6-0.4-0.7-0.7c-0.1-0.5-0.2-1-0.3-1.5&#10;&#9;&#9;&#9;&#9;c0-0.1,0-0.3,0-0.5C25.4,206.5,25.4,206,25.4,205.5z" id="S1_bjU7JSWX"/>
			<path d="M33.5,190.1c-1.8-2.3,1.5-4.5,3.5-3.4c1.4,0.7,2.5,2.9,0.6,3.7c-0.7,0.3-1.4,0.5-2.1,0.6&#10;&#9;&#9;&#9;&#9;C34.7,191,34,190.7,33.5,190.1z" id="ByK-s8XkBWm"/>
			<path d="M38,194.6c-0.8-1.3,1.8-2.5,2.6-1.4s-0.4,1.7-1.3,1.8C38.9,195.2,38.3,195,38,194.6z" id="SJqWo87kHZX"/>
			<path d="M30.9,196.2c-0.4-0.3-0.4-0.8-0.2-1.2c0.1-0.1,0.2-0.2,0.3-0.3c0.8-0.3,1.8,0.4,1.3,1.2&#10;&#9;&#9;&#9;&#9;c-0.2,0.4-0.7,0.6-1.2,0.4C31.1,196.4,31,196.3,30.9,196.2z" id="B1jWsU71Bb7"/>
			<path d="M45.8,210.8c0.1-0.1,0.1-0.2,0.1-0.3c0.2-2.4,0.2-6.5,3.1-7.5c1.1-0.4,2.3-0.2,3.2,0.5&#10;&#9;&#9;&#9;&#9;c0.4,0.5,0.7,1.1,0.8,1.7c0,0.5,0.1,1,0.1,1.5c0.1,1.1,0.1,2.1-0.1,3.2c-0.3,1-0.6,0.8-1.6,0.9s-1.9,0.1-2.9,0.1&#10;&#9;&#9;&#9;&#9;S46.7,210.8,45.8,210.8z" id="SJn-jLQyBZm"/>
		</g>
		<g id="ByaZsI7yBZ7">
			<path d="M24.7,147.6c0-3,0.6-5.9,1.7-8.7c1.6-4.6,5.6-8.8,9.4-11.7c-2.2-1.2-4.8-3.4-7.4-3.4c-2-0.1-3.9,0-5.9,0.2&#10;&#9;&#9;&#9;&#9;c-10.8,1-18,8.2-21.5,18.1c-0.5,1.5-0.8,3.1-1,4.7c-0.5,3.6,4.3,3.3,6.5,3.6c1.8,0.3,3.6,0.6,5.5,0.8c2.6,0.3,5.2,0.5,7.8,0.6&#10;&#9;&#9;&#9;&#9;c1,0,2.8,0.3,3.7-0.2C24.9,150.8,24.7,148.8,24.7,147.6z" id="H1A-sI7yS-X"/>
			<path d="M24.7,147.6c0-3,0.6-5.9,1.7-8.7c1.6-4.6,5.6-8.8,9.4-11.7c-2.2-1.2-4.8-3.4-7.4-3.4c-2-0.1-3.9,0-5.9,0.2&#10;&#9;&#9;&#9;&#9;c-10.8,1-18,8.2-21.5,18.1c-0.5,1.5-0.8,3.1-1,4.7c-0.5,3.6,4.3,3.3,6.5,3.6c1.8,0.3,3.6,0.6,5.5,0.8c2.6,0.3,5.2,0.5,7.8,0.6&#10;&#9;&#9;&#9;&#9;c1,0,2.8,0.3,3.7-0.2C24.9,150.8,24.7,148.8,24.7,147.6z" id="BkJMjI7kSZm"/>
			<path d="M0,146.8c-0.5,3.6,4.3,3.3,6.5,3.6l1.6,0.2c0.3-1.3,0.4-2.6,0.4-3.9C8.5,145.4,7.9,144,7,143&#10;&#9;&#9;&#9;&#9;c-1-1-2.4-1.5-3.8-1.1c-0.9,0.3-1.6,1-2.1,1.8c-0.3,0.5-0.6,1.1-0.9,1.6C0.2,145.8,0.1,146.3,0,146.8z" id="SyxzjUQ1BbQ"/>
			<path d="M17.1,151.6c0.2-1,0.3-2.1,0.3-3.1c0.1-1.4-0.5-2.8-1.6-3.8c-1.8-1.4-4.4-0.7-5.6,1.1&#10;&#9;&#9;&#9;&#9;c-0.9,1.5-1.6,3.1-2,4.8c1.3,0.2,2.6,0.4,3.9,0.5C13.7,151.4,15.4,151.5,17.1,151.6z" id="Sk-GoLQkSW7"/>
			<path d="M12.1,133.2c-0.8-0.2-1.4-0.8-1.5-1.6c-0.1-1.8,1.7-2.6,3.2-1.8C16,131,14.1,133.6,12.1,133.2z" id="BkMzjUQJSZX"/>
			<path d="M13.6,138.3c0.9-0.4,0.4-1.8-0.5-1.8s-1.1,1.3-0.3,1.7C13,138.4,13.3,138.4,13.6,138.3z" id="HJ7fiLmkS-m"/>
			<path d="M7.3,139.2c1.7-0.7,0.8-3.1-0.8-3.1s-1.8,2.3-0.5,3C6.4,139.3,6.9,139.4,7.3,139.2z" id="Hy4zoL71r-m"/>
		</g>
		<g id="HJHMiL7JHW7">
			<path d="M103.6,147.6c0-3-0.6-5.9-1.7-8.7c-1.6-4.6-5.6-8.8-9.4-11.7c2.2-1.2,4.8-3.4,7.4-3.4c2-0.1,3.9,0,5.9,0.2&#10;&#9;&#9;&#9;&#9;c10.8,1,18,8.2,21.5,18.1c0.5,1.5,0.8,3.1,1,4.7c0.5,3.6-4.3,3.3-6.5,3.6c-1.8,0.3-3.6,0.6-5.5,0.8c-2.6,0.3-5.2,0.5-7.8,0.6&#10;&#9;&#9;&#9;&#9;c-1,0-2.8,0.3-3.7-0.2C103.4,150.8,103.5,148.8,103.6,147.6z" id="HkIfs87yHWQ"/>
			<path d="M103.6,147.6c0-3-0.6-5.9-1.7-8.7c-1.6-4.6-5.6-8.8-9.4-11.7c2.2-1.2,4.8-3.4,7.4-3.4c2-0.1,3.9,0,5.9,0.2&#10;&#9;&#9;&#9;&#9;c10.8,1,18,8.2,21.5,18.1c0.5,1.5,0.8,3.1,1,4.7c0.5,3.6-4.3,3.3-6.5,3.6c-1.8,0.3-3.6,0.6-5.5,0.8c-2.6,0.3-5.2,0.5-7.8,0.6&#10;&#9;&#9;&#9;&#9;c-1,0-2.8,0.3-3.7-0.2C103.4,150.8,103.5,148.8,103.6,147.6z" id="BJPMjLXkrbm"/>
			<path d="M128.2,146.8c0.5,3.6-4.3,3.3-6.5,3.6l-1.6,0.2c-0.3-1.3-0.4-2.6-0.4-3.9c0-1.4,0.6-2.7,1.5-3.8&#10;&#9;&#9;&#9;&#9;c1-1,2.4-1.5,3.8-1.1c0.9,0.3,1.6,1,2.1,1.8c0.3,0.5,0.6,1.1,0.9,1.6C128.1,145.8,128.1,146.3,128.2,146.8z" id="r1OMsL7yBWm"/>
			<path d="M111.1,151.6c-0.2-1-0.3-2.1-0.3-3.1c-0.1-1.4,0.5-2.8,1.6-3.8c1.8-1.4,4.4-0.7,5.6,1.1&#10;&#9;&#9;&#9;&#9;c0.9,1.5,1.6,3.1,2,4.8c-1.3,0.2-2.6,0.4-3.9,0.5C114.5,151.4,112.8,151.5,111.1,151.6z" id="BJKziIXySZQ"/>
			<path d="M116.2,133.2c0.8-0.2,1.4-0.8,1.5-1.6c0.1-1.8-1.7-2.6-3.2-1.8C112.2,131,114.2,133.6,116.2,133.2z" id="Hy5foImkHW7"/>
			<path d="M114.7,138.3c-1-0.4-0.4-1.8,0.5-1.8s1.1,1.3,0.3,1.7C115.2,138.4,114.9,138.4,114.7,138.3z" id="H1szi8X1HWm"/>
			<path d="M120.9,139.2c-1.7-0.7-0.8-3.1,0.8-3.1s1.8,2.3,0.5,3C121.8,139.3,121.3,139.4,120.9,139.2z" id="By2GsU7kSbX"/>
		</g>
		<g id="Sk6zoLQkBbX_S1iEHkS-7" data-animator-group="true" data-animator-type="1"><g id="Sk6zoLQkBbX">
			<path d="M48.9,90.8c0,10.5,0.4,23.3,6.4,32.2c3.1,4.6,11.7,3.5,15.1,0c4.1-4.3,4.8-11.1,5.3-16.8&#10;&#9;&#9;&#9;&#9;c0-0.5,0.1-1,0.1-1.5c1.9-31.6-0.3-17.9-0.3-17.9L48.9,90.8z" id="ByRGoI71rZX"/>
			<path d="M76.5,86.2c0-0.1,0-0.2,0-0.3s0-0.3,0-0.4c0-0.1,0-0.1,0-0.2c0-0.2,0-0.3,0-0.4l0,0c0-0.8-0.1-1.1-0.2-1.1&#10;&#9;&#9;&#9;&#9;c-0.3,0-0.8,3-0.8,3l-26.6,4.1c0,3.5,0,7.2,0.3,11c5.7,0,11.5-0.1,17.1-0.6c3.3-0.3,6.6-1,9.7-2.1c0.3-4.5,0.4-7.8,0.4-10.2v-0.1&#10;&#9;&#9;&#9;&#9;c0-0.3,0-0.5,0-0.8v-0.4c0-0.2,0-0.4,0-0.5L76.5,86.2L76.5,86.2z" id="S1k7i87JSWQ"/>
			<path d="M56.4,0c-4.3-0.1-8.5,0.2-12.7,0.9c-9.5,1.5-18.1,6.5-24.1,14.1C13,23.2,9.7,33.5,7.8,43.7&#10;&#9;&#9;&#9;&#9;c-1.4,8.6-2.2,17.3-2.3,26c-0.2,7.4-1.8,21,6.8,23.8c7.1,2.3,16,2.4,23.4,3c10.4,0.9,20.8,1,31.2,0.2c9-0.8,18.1-2.3,26.5-5.5&#10;&#9;&#9;&#9;&#9;c4.2-1.6,19.8-8.2,19.9-13.9c0.1-5.2-0.2-10.3-0.9-15.4c-1.8-15-6-30.7-15.4-42.9C91.9,12.2,85,6.9,77,3.9&#10;&#9;&#9;&#9;&#9;C70.4,1.4,63.4,0.1,56.4,0z" id="Syx7jI7ySbm"/>
			<path d="M26,53.1c0.2,1.4-0.3,2.9-1.4,3.9c-4,3.7-8.1-1.1-8-5.2c0.1-2.5,2-7,5.1-4.4C23.3,48.7,25.7,50.9,26,53.1z" id="r1-7o8QJHWm"/>
			<path d="M82.9,47.5c-0.3,1.4,0.3,2.9,1.4,3.9c4,3.7,8.2-1.1,8-5.2c-0.1-2.5-2-7-5.1-4.4&#10;&#9;&#9;&#9;&#9;C85.6,43.1,83.2,45.3,82.9,47.5z" id="S1fQj8m1HZQ"/>
			<path d="M104.4,53.4c-1-0.9-2.4-1.4-3.8-1.5c-0.7,0-1.3,0-2,0.1c-4.6,1-6.8,6.4-1.8,8.9c2.3,1.2,7.6,0.5,8.8-2&#10;&#9;&#9;&#9;&#9;C106.5,57,106,54.8,104.4,53.4z M99.8,57.4c0,0.1-0.1,0.2-0.1,0.3c-0.4,0.5-1-0.2-1.2-1c-0.1-1-0.1-1.9,0.1-2.9&#10;&#9;&#9;&#9;&#9;c0-0.2,0.1-0.5,0.3-0.5c0.2,0,0.4,0.2,0.5,0.5C99.8,55,100,56.2,99.8,57.4z M102.5,56.4c0,0.1-0.1,0.2-0.1,0.2&#10;&#9;&#9;&#9;&#9;c-0.3,0.4-0.8-0.1-1-0.7c-0.1-0.7,0-1.4,0.1-2.1c0-0.2,0.1-0.4,0.3-0.4c0.2,0,0.3,0.2,0.4,0.3C102.5,54.6,102.6,55.5,102.5,56.4z&#10;&#9;&#9;&#9;&#9;" id="rk77j8X1B-7"/>
			<path d="M20.8,62.2c-1.6-1-3.5-1.4-5.4-1.2c-3.8,0.3-7.1,2.9-4.5,6.7c1,1.5,3,2.1,4.8,2.1c2,0,4.5-0.3,5.9-2&#10;&#9;&#9;&#9;&#9;c0,0,0.1-0.1,0.1-0.1C23,65.9,22.6,63.4,20.8,62.2z M14.8,66.5c-0.1,0.2-0.1,0.4-0.3,0.5c-0.3,0.1-0.5-0.3-0.6-0.5&#10;&#9;&#9;&#9;&#9;c-0.3-1.1-0.5-2.3-0.4-3.4c0-0.3,0.1-0.6,0.3-0.6c0.2,0,0.4,0.2,0.5,0.4C14.7,64,14.9,65.3,14.8,66.5z M17.8,65.7&#10;&#9;&#9;&#9;&#9;c0,0.2-0.2,0.3-0.3,0.4c-0.3,0.1-0.5-0.2-0.6-0.4c-0.3-0.9-0.4-1.8-0.4-2.7c0-0.2,0.1-0.5,0.3-0.5c0.2,0,0.4,0.2,0.5,0.3&#10;&#9;&#9;&#9;&#9;C17.8,63.6,18,64.7,17.8,65.7z" id="HyNmjUm1rZQ"/>
			<g id="BJB7jImJHW7_BJzTm1rZX" data-animator-group="true" data-animator-type="1"><path d="M29,52.2c-4.8,0-13.2-8.6-14.2-9.6c-0.4-0.4-0.4-1,0-1.4c0.4-0.4,1-0.4,1.4,0c3.6,3.8,10.3,9.5,13,9&#10;&#9;&#9;&#9;&#9;c0.5-0.1,1.1,0.3,1.2,0.8c0.1,0.5-0.3,1.1-0.8,1.2C29.4,52.2,29.2,52.2,29,52.2z" id="BJB7jImJHW7"/></g>
			<g id="ByLmjUm1rZm_BkTgE1rWm" data-animator-group="true" data-animator-type="1"><path d="M79.8,47.6c-0.2,0-0.4,0-0.6-0.1c-0.5-0.1-0.9-0.6-0.8-1.2c0.1-0.5,0.6-0.9,1.2-0.8c2.7,0.5,9.4-5.3,13-9&#10;&#9;&#9;&#9;&#9;c0.4-0.4,1-0.4,1.4,0c0.4,0.4,0.4,1,0,1.4C93,38.9,84.6,47.6,79.8,47.6z" id="ByLmjUm1rZm"/></g>
			<g id="Hkvmi8XJB-m_BJ77NJBbm" data-animator-group="true" data-animator-type="2"><path d="M86.8,82.3c-17.2-6.4-33.6-4.6-49.1,5.4C33,90.8,28.3,81.9,32,77c5.5-7.2,14.2-13.6,27.7-15.1&#10;&#9;&#9;&#9;&#9;S83,64.8,90,70.6C94.7,74.6,92,84.3,86.8,82.3z" id="Hkvmi8XJB-m"/></g>
			<g id="B1_ms8Q1rWm">
				<path d="M104.4,53.4c-1-0.9-2.4-1.4-3.8-1.5c-0.7,0-1.3,0-2,0.1c-4.6,1-6.8,6.4-1.8,8.9c2.3,1.2,7.6,0.5,8.8-2&#10;&#9;&#9;&#9;&#9;&#9;C106.5,57,106,54.8,104.4,53.4z M99.8,57.4c0,0.1-0.1,0.2-0.1,0.3c-0.4,0.5-1-0.2-1.2-1c-0.1-1-0.1-1.9,0.1-2.9&#10;&#9;&#9;&#9;&#9;&#9;c0-0.2,0.1-0.5,0.3-0.5c0.2,0,0.4,0.2,0.5,0.5C99.8,55,100,56.2,99.8,57.4z M102.5,56.4c0,0.1-0.1,0.2-0.1,0.2&#10;&#9;&#9;&#9;&#9;&#9;c-0.3,0.4-0.8-0.1-1-0.7c-0.1-0.7,0-1.4,0.1-2.1c0-0.2,0.1-0.4,0.3-0.4c0.2,0,0.3,0.2,0.4,0.3C102.5,54.6,102.6,55.5,102.5,56.4&#10;&#9;&#9;&#9;&#9;&#9;z" id="HytXsLmkH-X"/>
				<path d="M20.8,62.2c-1.6-1-3.5-1.4-5.4-1.2c-3.8,0.3-7.1,2.9-4.5,6.7c1,1.5,3,2.1,4.8,2.1c2,0,4.5-0.3,5.9-2&#10;&#9;&#9;&#9;&#9;&#9;c0,0,0.1-0.1,0.1-0.1C23,65.9,22.6,63.4,20.8,62.2z M14.8,66.5c-0.1,0.2-0.1,0.4-0.3,0.5c-0.3,0.1-0.5-0.3-0.6-0.5&#10;&#9;&#9;&#9;&#9;&#9;c-0.3-1.1-0.5-2.3-0.4-3.4c0-0.3,0.1-0.6,0.3-0.6c0.2,0,0.4,0.2,0.5,0.4C14.7,64,14.9,65.3,14.8,66.5z M17.8,65.7&#10;&#9;&#9;&#9;&#9;&#9;c0,0.2-0.2,0.3-0.3,0.4c-0.3,0.1-0.5-0.2-0.6-0.4c-0.3-0.9-0.4-1.8-0.4-2.7c0-0.2,0.1-0.5,0.3-0.5c0.2,0,0.4,0.2,0.5,0.3&#10;&#9;&#9;&#9;&#9;&#9;C17.8,63.6,18,64.7,17.8,65.7z" id="By9mo8mJHbm"/>
			</g>
		</g></g>
		<g id="SJj7o87JrZQ">
			<defs>
				<path id="SVGID_1_" d="M50.1,186c-2.4-1.4-18.6-10.3-22.1-26.4c-0.8-3.6-1.9-7.1-2.2-10.7c-1-10.4-0.8-21.9,5.8-30.2&#10;&#9;&#9;&#9;&#9;&#9;c4.5-5.7,11.3-9.1,18.1-11.6c3.1-1.3,6.5-2.1,9.9-2.3c3.7,0,7.3,1.1,10.8,2.2c6.3,2,12.6,4.1,18.2,7.4s10.6,8.3,12.8,14.5&#10;&#9;&#9;&#9;&#9;&#9;c1.8,5.2,1.6,10.9,0.9,16.3c-1.5,10.2-5,20.4-11.4,28.5c-4.8,6.1-11.2,10.8-18.5,13.3C66.1,189.1,55.8,189.1,50.1,186z"/>
			</defs>
			<clipPath id="SVGID_2_">
				<use xlink:href="#SVGID_1_" style="overflow:visible;"/>
			</clipPath>
			<g id="HJ37jLm1BZX">
				<path d="M50.1,186c-2.4-1.4-18.6-10.3-22.1-26.4c-0.8-3.6-1.9-7.1-2.2-10.7c-1-10.4-0.8-21.9,5.8-30.2&#10;&#9;&#9;&#9;&#9;&#9;c4.5-5.7,11.3-9.1,18.1-11.6c3.1-1.3,6.5-2.1,9.9-2.3c3.7,0,7.3,1.1,10.8,2.2c6.3,2,12.6,4.1,18.2,7.4s10.6,8.3,12.8,14.5&#10;&#9;&#9;&#9;&#9;&#9;c1.8,5.2,1.6,10.9,0.9,16.3c-1.5,10.2-5,20.4-11.4,28.5c-4.8,6.1-11.2,10.8-18.5,13.3C66.1,189.1,55.8,189.1,50.1,186z" id="BJ6QsLQJrWX"/>
				<path d="M50.1,186c-18.9-11-36-65.4-0.5-78.9c3.1-1.3,6.5-2.1,9.9-2.3c3.7,0,7.3,1.1,10.8,2.2&#10;&#9;&#9;&#9;&#9;&#9;c6.3,2,12.6,4.1,18.2,7.4s10.6,8.3,12.8,14.5c1.8,5.2,1.6,10.9,0.9,16.3c-1.5,10.2-5,20.4-11.4,28.5&#10;&#9;&#9;&#9;&#9;&#9;c-4.8,6.1-11.2,10.8-18.5,13.3C66.1,189.1,55.7,189.2,50.1,186z" id="rk0miI7JH-Q"/>
				<path d="M69.7,138.8c-10,0-20.2-1.2-30.2-2.6c-4.4-0.6-9.9-1.4-14.2-4.4l0.8-1.1c4,2.8,9.4,3.6,13.6,4.2&#10;&#9;&#9;&#9;&#9;&#9;c20.9,3,43,5.2,62-3.4l0.6,1.2C92,137.2,81,138.8,69.7,138.8z" id="Hk1VsU7krZ7"/>
				<path d="M69.7,155.4c-10,0-20.2-1.2-30.2-2.6c-4.4-0.6-9.9-1.4-14.2-4.4l0.8-1.1c4,2.8,9.4,3.6,13.6,4.2&#10;&#9;&#9;&#9;&#9;&#9;c20.9,3,43,5.2,62-3.4l0.6,1.2C92,153.9,81,155.4,69.7,155.4z" id="r1gEiUmkHW7"/>
				<path d="M69.6,174.7c-10.1,0-20.3-1.3-30.1-2.7c-2.5-0.3-4.9-0.8-7.3-1.4l0.3-1.3c2.4,0.6,4.8,1,7.2,1.3&#10;&#9;&#9;&#9;&#9;&#9;c17.1,2.4,35.3,4.4,52,0.1l0.3,1.3C84.7,173.9,77.2,174.8,69.6,174.7z" id="r1ZNjIXJHbX"/>
			</g>
		</g>
	</g>
</g>
<script>(function(){var a=document.querySelector('#BJdljI7JHbm'),b=a.querySelectorAll('style'),c=function(d){b.forEach(function(f){var g=f.textContent;g&amp;&amp;(f.textContent=g.replace(/transform-box:[^;\r\n]*/gi,'transform-box: '+d))})};c('initial'),window.requestAnimationFrame(function(){return c('fill-box')})})();</script></svg>