<svg version="1.1" id="rkNuxAJSZ7" xmlns="http://www.w3.org/2000/svg" xmlns:xlink="http://www.w3.org/1999/xlink" x="0px" y="0px" viewBox="-40 0 190 152" style="enable-background:new 0 0 108.2 152.7;" xml:space="preserve"><style>@-webkit-keyframes Hkhl_xRJBZ7_BkRH0yBbm_Animation{0%{-webkit-transform: rotate(-1deg);transform: rotate(-1deg);}50%{-webkit-transform: rotate(1deg);transform: rotate(1deg);}100%{-webkit-transform: rotate(-1deg);transform: rotate(-1deg);}}@keyframes Hkhl_xRJBZ7_BkRH0yBbm_Animation{0%{-webkit-transform: rotate(-1deg);transform: rotate(-1deg);}50%{-webkit-transform: rotate(1deg);transform: rotate(1deg);}100%{-webkit-transform: rotate(-1deg);transform: rotate(-1deg);}}@-webkit-keyframes SkcWOgR1SZ7_Animation{0%{opacity: 0;}5%{opacity: 1;}10%{opacity: 0;}100%{opacity: 0;}}@keyframes SkcWOgR1SZ7_Animation{0%{opacity: 0;}5%{opacity: 1;}10%{opacity: 0;}100%{opacity: 0;}}@-webkit-keyframes BkxZOg0yr-m_Animation{0%{opacity: 1;}5%{opacity: 0;}10%{opacity: 1;}100%{opacity: 1;}}@keyframes BkxZOg0yr-m_Animation{0%{opacity: 1;}5%{opacity: 0;}10%{opacity: 1;}100%{opacity: 1;}}#rkNuxAJSZ7 *{-webkit-animation-duration: 2s;animation-duration: 2s;-webkit-animation-iteration-count: infinite;animation-iteration-count: infinite;-webkit-animation-timing-function: cubic-bezier(0, 0, 1, 1);animation-timing-function: cubic-bezier(0, 0, 1, 1);}#BJrOgRJBbm{fill: #00A34E;}#rJUuxRJHbm{fill: #005D28;}#ryvOgC1rZX{fill: #A2C53A;}#ry_deAkr-Q{fill: #A2C53A;}#BJKOxAyrZ7{fill: #A2C53A;}#SJqOxRyBW7{fill: #FFFFFF;}#Syi_gRkHbm{fill: #FFFFFF;}#r1n_gCyrb7{fill: #FFFFFF;}#Sk6_gAyrbQ{fill: #C2D69F;}#rkRulRkHbm{fill: #FFFFFF;}#SJkeueAyrWQ{fill: #FFFFFF;}#rylldlCJHb7{fill: #007235;}#HyWlOe0ySbX{fill: #F1E008;}#B1zxulCJB-7{fill: #F1E008;}#HkmxulAJHWm{fill: #F1E008;}#B1NlOg01HZX{fill: #F1E008;}#H1HgulAkr-Q{fill: #F1E008;}#H18gOgRJr-Q{fill: #F1E008;}#ByvxdlRkHZm{fill: #007235;}#BydgOeCkrW7{fill: #007235;}#SktgdxR1rWQ{fill: #007235;}#SJce_gRyBWX{fill: #007235;}#B1jldl01Bbm{fill: #004013;}#By6gOeA1rZ7{fill: #A2C53A;}#rk0edlRJHZX{fill: #90AD3D;}#r1Jb_xR1B-X{fill: #A2C53A;}#Bk-WueRkBbQ{fill: #1D1E1D;}#BkGbOeRkrWm{fill: #1D1E1D;}#SkXW_lRkBbm{fill: #749128;}#Sk4bOe0yH-7{fill: #7EBA42;}#SJHZOlCJBZ7{fill: #7EBA42;}#HyIZueC1B-m{fill: #A2C53A;}#Bkw-OeRJSZ7{fill: #A2C53A;}#HyuW_xC1Bbm{fill: #A2C53A;}#rJY-OlA1BWm{fill: #A2C53A;}#Sy2-_lCJSbX{fill: #1D1E1D;}#BkaWug0kHWX{fill: #1D1E1D;}#B11M_eR1BZX{fill: #1D1E1D;}#HkeGdl0yH-7{fill: #1D1E1D;}#BkxZOg0yr-m{-webkit-animation-name: BkxZOg0yr-m_Animation;animation-name: BkxZOg0yr-m_Animation;-webkit-transform-origin: 50% 50%;transform-origin: 50% 50%;transform-box: fill-box;opacity: 1;}#SkcWOgR1SZ7{-webkit-animation-name: SkcWOgR1SZ7_Animation;animation-name: SkcWOgR1SZ7_Animation;-webkit-transform-origin: 50% 50%;transform-origin: 50% 50%;transform-box: fill-box;opacity: 0;}#Hkhl_xRJBZ7_BkRH0yBbm{-webkit-animation-name: Hkhl_xRJBZ7_BkRH0yBbm_Animation;animation-name: Hkhl_xRJBZ7_BkRH0yBbm_Animation;-webkit-transform-origin: 50% 100%;transform-origin: 50% 100%;transform-box: fill-box;-webkit-transform: rotate(-1deg);transform: rotate(-1deg);}</style>

<title>Asset 43</title>
<path d="M47.5,86.3c0,0-31,14.7-26.5,38l77.3-7C98.3,117.3,98.9,77.4,47.5,86.3z" id="BJrOgRJBbm"/>
<path d="M81.4,113.8l-1.9-9c1.6-1.9,3.2-3.7,4.7-5.6c0.4-0.5,4-5.2,4.3-5c-0.7-0.7-1.5-1.3-2.2-1.9&#10;&#9;c-0.4,0.6-0.8,1.1-1.3,1.6l-7.3,9.1l-10-4.1c-0.2-0.1-0.4-0.1-0.6-0.1l-16,1.6c-0.2,0-0.4,0.1-0.5,0.2l-9.6,5.7&#10;&#9;c-0.5,0.3-5.6-3.1-6.5-3.5c-0.6-0.3-5-3.1-5.4-2.8s-0.8,1-1.2,1.4c0.9,0.5,1.7,1.1,2.6,1.7l9.2,5.3l-0.6,9.4&#10;&#9;c0.2,1.6,0.3,3.2,0.3,4.8l1.8-0.2c0.1-0.2,0.2-0.4,0.2-0.6l0.9-13.4l9.4-5.6l15.4-1.5l9.9,4.1l2.7,12.8c0.1,0.3,0.2,0.5,0.5,0.7&#10;&#9;l2.1-0.2C81.7,117.2,81.5,115.5,81.4,113.8z" id="rJUuxRJHbm"/>
<path d="M39.5,143.2c-1-2.8-1.4-5.8-1.3-8.8c0-4.9,2.3-10.2,5-14.2c-2.5-0.4-5.6-1.6-8.2-0.8c-1.9,0.6-3.7,1.3-5.5,2.1&#10;&#9;c-9.8,4.6-14.3,13.7-14.3,24.2c0.1,1.6,0.3,3.2,0.7,4.8c0.7,3.6,5.1,1.7,7.4,1.2c1.8-0.3,3.6-0.7,5.4-1.1c2.6-0.5,5.1-1.2,7.6-2&#10;&#9;c0.9-0.3,2.8-0.6,3.5-1.4C40.7,146.2,39.9,144.3,39.5,143.2z" id="ryvOgC1rZX"/>
<path d="M39.5,143.2c-1-2.8-1.4-5.8-1.3-8.8c0-4.9,2.3-10.2,5-14.2c-2.5-0.4-5.6-1.6-8.2-0.8c-1.9,0.6-3.7,1.3-5.5,2.1&#10;&#9;c-9.8,4.6-14.3,13.7-14.3,24.2c0.1,1.6,0.3,3.2,0.7,4.8c0.7,3.6,5.1,1.7,7.4,1.2c1.8-0.3,3.6-0.7,5.4-1.1c2.6-0.5,5.1-1.2,7.6-2&#10;&#9;c0.9-0.3,2.8-0.6,3.5-1.4C40.7,146.2,39.9,144.3,39.5,143.2z" id="ry_deAkr-Q"/>
<path d="M70.2,117.3c0.7-0.1,2.7,5,2.9,5.5c1.9,4.2,3,8.6,3.3,13.2c0.1,2-0.2,4.1-0.3,6.1c-0.1,1.1-0.1,2.1,0.1,3.2&#10;&#9;c0.3,1,0.6,0.8,1.6,0.9c4.5,0.3,9.1,0.1,13.6,0c0.7,0,1.3-0.1,1.9-0.1c1.2,0,2.3,0,3.4-0.1s2.4-0.2,3.6-0.3c0.8,0,1.6-0.1,2.4-0.4&#10;&#9;c0.8-0.4,0.9-1.2,1-2.1c0.1-1.2,0.1-2.4-0.1-3.6c-0.3-2.6-0.8-5.2-1.6-7.8c-0.9-3-2.3-5.9-4.1-8.6c-1-1.5-2.1-2.8-3.4-4.1&#10;&#9;c-0.6-0.6-1.3-1.3-2-1.8c-0.4-0.3-1.8-1.7-2.3-1.7L70.2,117.3z" id="BJKOxAyrZ7"/>
<path d="M15.9,150.6c0.7,3.6,5.1,1.7,7.4,1.2l1.6-0.3c-0.1-1.3-0.4-2.6-0.9-3.8c-0.5-1.3-1.5-2.4-2.7-3.1&#10;&#9;c-1.3-0.7-2.8-0.6-3.9,0.2c-0.7,0.6-1.2,1.4-1.4,2.4c-0.1,0.6-0.2,1.2-0.3,1.8C15.8,149.6,15.8,150.1,15.9,150.6z" id="SJqOxRyBW7"/>
<path d="M33.6,149.5c-0.2-1-0.5-2-0.8-3c-0.4-1.4-1.4-2.5-2.7-3.1c-2.1-0.8-4.4,0.8-4.9,2.9c-0.4,1.7-0.5,3.5-0.3,5.2&#10;&#9;c1.3-0.2,2.5-0.5,3.8-0.8C30.4,150.4,32,150,33.6,149.5z" id="Syi_gRkHbm"/>
<path d="M89.7,138.4c-1.8-0.9-4.4-0.7-5.6,1.1c-0.6,1-0.8,2.2-0.8,3.4c0,0.3-0.1,3,0,3.4c2.7,0,5.3-0.1,8-0.2h1.3&#10;&#9;C92,143.4,92.6,139.8,89.7,138.4z" id="r1n_gCyrb7"/>
<path d="M92.6,146.1L92.6,146.1z" id="Sk6_gAyrbQ"/>
<path d="M103.7,141.1c0-0.5-0.1-1-0.1-1.5c-1.3-2.6-3.5-4.3-7-3.3c-1.8,0.4-3.2,1.9-3.6,3.8c-0.3,2-0.4,4-0.3,6.1h0.6&#10;&#9;H94l2.7-0.1c1.2-0.1,2.4-0.2,3.6-0.3c0.8,0,1.6-0.1,2.4-0.4c0.3-0.1,0.6-0.4,0.7-0.7c0.2-0.5,0.2-1,0.3-1.5v-0.5&#10;&#9;C103.7,142.1,103.7,141.5,103.7,141.1z" id="rkRulRkHbm"/>
<path d="M83.2,146.3c-0.1-0.1-0.1-0.2-0.1-0.3c-0.2-2.5-0.2-6.5-3.1-7.5c-1.1-0.4-2.3-0.2-3.2,0.5&#10;&#9;c-0.4,0.5-0.6,1.1-0.8,1.7c0,0.5-0.1,1-0.1,1.5c-0.1,1.1-0.1,2.1,0.1,3.2c0.3,1,0.6,0.8,1.6,0.9s1.9,0.1,2.9,0.1L83.2,146.3z" id="SJkeueAyrWQ"/>
<path d="M89.7,95.5l-7.5,9.1l2.1,9.4l10.5,3.7l3.4-0.3C98.3,117.3,98.5,104.9,89.7,95.5z" id="rylldlCJHb7"/>
<path d="M95.6,125.7c1.8-2.3-1.5-4.5-3.5-3.4c-1.4,0.7-2.5,2.9-0.6,3.7c0.7,0.3,1.4,0.5,2.1,0.6&#10;&#9;C94.4,126.6,95.1,126.3,95.6,125.7z" id="HyWlOe0ySbX"/>
<path d="M91.1,130.2c0.8-1.3-1.8-2.5-2.6-1.4s0.4,1.7,1.3,1.8C90.2,130.7,90.8,130.5,91.1,130.2z" id="B1zxulCJB-7"/>
<path d="M98.2,131.7c0.4-0.3,0.4-0.8,0.2-1.2c-0.1-0.1-0.2-0.2-0.3-0.3c-0.8-0.3-1.8,0.4-1.3,1.2&#10;&#9;c0.2,0.4,0.7,0.6,1.2,0.4C98,131.9,98.1,131.8,98.2,131.7z" id="HkmxulAJHWm"/>
<path d="M22.8,133.8c-0.8,0.1-1.6-0.3-1.9-1.1c-0.7-1.7,0.8-3,2.5-2.8C25.8,130.4,24.8,133.5,22.8,133.8z" id="B1NlOg01HZX"/>
<path d="M25.9,138.2c0.8-0.7-0.2-1.8-1-1.5s-0.6,1.6,0.3,1.7C25.4,138.4,25.7,138.3,25.9,138.2z" id="H1HgulAkr-Q"/>
<path d="M20.3,141.1c1.4-1.2-0.3-3.2-1.8-2.6s-1,2.8,0.5,3C19.5,141.5,19.9,141.4,20.3,141.1z" id="H18gOgRJr-Q"/>
<path d="M37.6,108.5l-11.4-4.8c-3.9,5.4-6.4,12-5.4,19.5l15.7-1.9L37.6,108.5z" id="ByvxdlRkHZm"/>
<path d="M55.5,98.9l-2.5-13.4c-1.8,0.2-3.6,0.4-5.5,0.8c-6,3.1-11.6,7-16.5,11.8l9.1,5.2L55.5,98.9z" id="BydgOeCkrW7"/>
<path d="M76.4,99.7l7.7-9c-4.3-2.7-9-4.4-14-5.1L61.7,94l0.7,0.3L76.4,99.7z" id="SktgdxR1rWQ"/>
<polygon points="44.4,119.1 44.1,109.6 58,103.4 74.8,106.9 75.9,117.3 " id="SJce_gRyBWX"/>
<path d="M98.4,111.6c1,0.3,1.9,0.9,2.4,1.8c0.8,1.4,1,3.1,0.5,4.6c-0.6,1.9-4,1.8-5.6,2.1c-3.7,0.6-7.4,1.2-11.2,1.6&#10;&#9;c-7.2,0.8-14.3,1.3-21.5,2.3c-12.5,1.7-24.7,3.6-37.5,3c-2.1-0.1-5.2,0.2-7.1-0.4c-1.3-0.4-2.2-1.5-2.5-2.8&#10;&#9;c-1.1-5.6,5.3-5.1,8.8-5.5l9.9-1l24.8-2.5l22.5-2.3c3.5-0.3,7.3-0.9,11-1C94.7,111.5,96.7,111.1,98.4,111.6z" id="B1jldl01Bbm"/>
<g id="Hkhl_xRJBZ7_BkRH0yBbm" data-animator-group="true" data-animator-type="1"><g id="Hkhl_xRJBZ7">
	<path d="M43.6,90.8c0,10.5,0.4,23.3,6.4,32.2c3.1,4.6,11.7,3.5,15.1,0c4.2-4.3,4.8-11.1,5.3-16.8c0-0.5,0.1-1,0.1-1.5&#10;&#9;&#9;c1.9-31.6-0.3-17.9-0.3-17.9L43.6,90.8z" id="By6gOeA1rZ7"/>
	<path d="M71.2,86.2c0-0.1,0-0.2,0-0.3s0-0.3,0-0.4c0-0.1,0-0.1,0-0.2c0-0.2,0-0.3,0-0.4l0,0c0-0.8-0.1-1.1-0.2-1.1&#10;&#9;&#9;c-0.3,0-0.8,3-0.8,3l-26.6,4.1c0,3.5,0,7.2,0.3,11c5.7,0,11.5-0.1,17.1-0.6c3.3-0.3,6.6-1,9.7-2.1c0.3-4.5,0.4-7.8,0.4-10.2v-0.1&#10;&#9;&#9;c0-0.3,0-0.5,0-0.8v-0.4c0-0.2,0-0.4,0-0.5L71.2,86.2L71.2,86.2z" id="rk0edlRJHZX"/>
	<path d="M51.1,0c-4.3-0.1-8.5,0.2-12.7,0.9c-9.5,1.5-18.1,6.5-24.1,14C7.8,23.2,4.4,33.5,2.6,43.7&#10;&#9;&#9;c-1.4,8.6-2.2,17.3-2.3,26c-0.2,7.3-1.8,21,6.8,23.8c7.1,2.3,16,2.4,23.4,3c10.4,0.9,20.8,1,31.2,0.2c9-0.8,18.1-2.3,26.5-5.5&#10;&#9;&#9;c4.2-1.6,19.8-8.2,19.9-13.9c0.1-5.2-0.2-10.3-0.9-15.4c-1.8-15-6-30.7-15.4-42.9c-5.1-6.8-12-12-20-15.1C65.2,1.4,58.2,0.1,51.1,0&#10;&#9;&#9;z" id="r1Jb_xR1B-X"/>
	<g id="BkxZOg0yr-m">
		<path d="M20,53.2c0.2,1.4-0.3,2.9-1.4,3.9c-4,3.7-7.4-1.1-7.3-5.3c0.1-2.5,2-7,5.1-4.4C18.3,48.8,19.5,50.9,20,53.2z" id="Bk-WueRkBbQ"/>
		<path d="M86.6,46.8c0.3,2.7-0.5,5.5-2.8,5.8c-1.5,0.2-2.8-0.8-3.9-1.7c-3.4-2.8-1.9-11.2,3.6-9.5&#10;&#9;&#9;&#9;C85.1,41.9,86.3,44.3,86.6,46.8z" id="BkGbOeRkrWm"/>
	</g>
	<path d="M0.3,75.2c-0.1,0-0.2,0-0.3,0c0,0.8,0,1.7,0,2.6C14.9,81.2,30.1,83,45.4,83c19.9,0,43.1-3.2,62.5-14.8&#10;&#9;&#9;c-0.1-0.8-0.1-1.6-0.2-2.4c-0.3-0.1-0.7-0.1-1,0.1C63.3,91.8,0.9,75.3,0.3,75.2z" id="SkXW_lRkBbm"/>
	<path d="M95.4,51.9c-0.7,0-1.3,0-2,0.2c-4.7,1-6.8,6.4-1.8,8.9c2.3,1.2,7.6,0.5,8.8-2c0.8-1.9,0.3-4.2-1.2-5.6&#10;&#9;&#9;C98.2,52.5,96.8,52,95.4,51.9z" id="Sk4bOe0yH-7"/>
	<path d="M10.5,69.8c-1.8,0-3.8-0.6-4.8-2.1c-2.5-3.8,0.8-6.4,4.6-6.7c1.9-0.2,3.7,0.2,5.4,1.2&#10;&#9;&#9;c1.8,1.3,2.2,3.8,0.9,5.6c0,0-0.1,0.1-0.1,0.1C15.1,69.5,12.5,69.9,10.5,69.8z" id="SJHZOlCJBZ7"/>
	<path d="M94.4,57.7c0.1-0.1,0.1-0.2,0.2-0.3c0.1-1.2,0-2.4-0.4-3.6c-0.1-0.2-0.3-0.5-0.5-0.5s-0.3,0.3-0.3,0.5&#10;&#9;&#9;c-0.2,0.9-0.2,1.9-0.1,2.9C93.4,57.6,94.1,58.2,94.4,57.7z" id="HyIZueC1B-m"/>
	<path d="M97.2,56.6c0.1-0.1,0.1-0.1,0.1-0.2c0.1-0.9,0-1.8-0.3-2.7c-0.1-0.2-0.2-0.4-0.4-0.3s-0.2,0.2-0.3,0.4&#10;&#9;&#9;c-0.2,0.7-0.2,1.4-0.1,2.1C96.3,56.5,96.9,57,97.2,56.6z" id="Bkw-OeRJSZ7"/>
	<path d="M9.6,66.6c0.2-1.3,0-2.5-0.6-3.7c-0.1-0.2-0.2-0.5-0.5-0.4s-0.3,0.4-0.3,0.7c0,1.2,0.1,2.3,0.4,3.4&#10;&#9;&#9;C8.7,66.8,9,67.1,9.2,67S9.5,66.8,9.6,66.6z" id="HyuW_xC1Bbm"/>
	<path d="M12.6,65.7c0.2-1,0-2-0.6-2.9c-0.1-0.2-0.2-0.4-0.5-0.3s-0.3,0.3-0.3,0.5c0,0.9,0.1,1.8,0.4,2.7&#10;&#9;&#9;c0.1,0.2,0.3,0.5,0.6,0.4S12.6,65.8,12.6,65.7z" id="rJY-OlA1BWm"/>
	<g id="SkcWOgR1SZ7">
		<g id="HJjWOlAkrWX">
			<line x1="11.4" y1="53.9" x2="19.9" y2="52.5" id="Sy2-_lCJSbX"/>
			<path d="M11.4,54.9c-0.5,0-0.9-0.3-1-0.8c-0.1-0.5,0.3-1.1,0.8-1.2l8.5-1.4c0.5-0.1,1.1,0.3,1.2,0.8&#10;&#9;&#9;&#9;&#9;s-0.3,1.1-0.8,1.2l-8.5,1.4C11.5,54.9,11.4,54.9,11.4,54.9z" id="BkaWug0kHWX"/>
		</g>
		<g id="HyA-OlCJHbQ">
			<line x1="78.1" y1="47.6" x2="86.6" y2="46.2" id="B11M_eR1BZX"/>
			<path d="M78.1,48.6c-0.5,0-0.9-0.3-1-0.8c-0.1-0.5,0.3-1.1,0.8-1.2l8.5-1.4c0.5-0.1,1.1,0.3,1.2,0.8&#10;&#9;&#9;&#9;&#9;c0.1,0.5-0.3,1.1-0.8,1.2l-8.5,1.4C78.2,48.6,78.2,48.6,78.1,48.6z" id="HkeGdl0yH-7"/>
		</g>
	</g>
</g></g>
<script>(function(){var a=document.querySelector('#rkNuxAJSZ7'),b=a.querySelectorAll('style'),c=function(d){b.forEach(function(f){var g=f.textContent;g&amp;&amp;(f.textContent=g.replace(/transform-box:[^;\r\n]*/gi,'transform-box: '+d))})};c('initial'),window.requestAnimationFrame(function(){return c('fill-box')})})();</script></svg>