<svg version="1.1" id="H1DWQ-93OGm" xmlns="http://www.w3.org/2000/svg" xmlns:xlink="http://www.w3.org/1999/xlink" x="0px" y="0px" viewBox="0 0 462 451" style="enable-background:new 0 0 462.6 451.2;" xml:space="preserve"><style>@-webkit-keyframes HJ37QWq3Of7_BksOs3dGm_Animation{22.50%{-webkit-transform: rotate(0deg);transform: rotate(0deg);}25%{-webkit-transform: rotate(5deg);transform: rotate(5deg);}27.50%{-webkit-transform: rotate(-5deg);transform: rotate(-5deg);}30%{-webkit-transform: rotate(5deg);transform: rotate(5deg);}32.50%{-webkit-transform: rotate(-5deg);transform: rotate(-5deg);}35%{-webkit-transform: rotate(0deg);transform: rotate(0deg);}100%{-webkit-transform: rotate(0deg);transform: rotate(0deg);}}@keyframes HJ37QWq3Of7_BksOs3dGm_Animation{22.50%{-webkit-transform: rotate(0deg);transform: rotate(0deg);}25%{-webkit-transform: rotate(5deg);transform: rotate(5deg);}27.50%{-webkit-transform: rotate(-5deg);transform: rotate(-5deg);}30%{-webkit-transform: rotate(5deg);transform: rotate(5deg);}32.50%{-webkit-transform: rotate(-5deg);transform: rotate(-5deg);}35%{-webkit-transform: rotate(0deg);transform: rotate(0deg);}100%{-webkit-transform: rotate(0deg);transform: rotate(0deg);}}@-webkit-keyframes rkbE7Z92_MX_BkDUihOzm_Animation{0%{-webkit-transform: rotate(0deg);transform: rotate(0deg);}100%{-webkit-transform: rotate(-360deg);transform: rotate(-360deg);}}@keyframes rkbE7Z92_MX_BkDUihOzm_Animation{0%{-webkit-transform: rotate(0deg);transform: rotate(0deg);}100%{-webkit-transform: rotate(-360deg);transform: rotate(-360deg);}}@-webkit-keyframes rkm4X-92dMm_B1-Sjn_Mm_Animation{0%{-webkit-transform: rotate(0deg);transform: rotate(0deg);}100%{-webkit-transform: rotate(360deg);transform: rotate(360deg);}}@keyframes rkm4X-92dMm_B1-Sjn_Mm_Animation{0%{-webkit-transform: rotate(0deg);transform: rotate(0deg);}100%{-webkit-transform: rotate(360deg);transform: rotate(360deg);}}@-webkit-keyframes Hki-mbchdGQ_Animation{0%{opacity: 0;}37.50%{opacity: 0;}50%{opacity: 1;}75%{opacity: 1;}87.50%{opacity: 0;}100%{opacity: 0;}}@keyframes Hki-mbchdGQ_Animation{0%{opacity: 0;}37.50%{opacity: 0;}50%{opacity: 1;}75%{opacity: 1;}87.50%{opacity: 0;}100%{opacity: 0;}}@-webkit-keyframes Hki-mbchdGQ_S10nc3dMX_Animation{37.50%{-webkit-transform: translate(10px, 0px);transform: translate(10px, 0px);}87.50%{-webkit-transform: translate(-10px, 0px);transform: translate(-10px, 0px);}}@keyframes Hki-mbchdGQ_S10nc3dMX_Animation{37.50%{-webkit-transform: translate(10px, 0px);transform: translate(10px, 0px);}87.50%{-webkit-transform: translate(-10px, 0px);transform: translate(-10px, 0px);}}@-webkit-keyframes rJu7Xbc3_zm_Animation{25%{opacity: 0;}37.50%{opacity: 1;}62.50%{opacity: 1;}75%{opacity: 0;}0%{opacity: 0;}100%{opacity: 0;}}@keyframes rJu7Xbc3_zm_Animation{25%{opacity: 0;}37.50%{opacity: 1;}62.50%{opacity: 1;}75%{opacity: 0;}0%{opacity: 0;}100%{opacity: 0;}}@-webkit-keyframes rJu7Xbc3_zm_SyQ9chuzQ_Animation{25%{-webkit-transform: translate(10px, 0px);transform: translate(10px, 0px);}75%{-webkit-transform: translate(-10px, 0px);transform: translate(-10px, 0px);}0%{-webkit-transform: translate(10px, 0px);transform: translate(10px, 0px);}100%{-webkit-transform: translate(-10px, 0px);transform: translate(-10px, 0px);}}@keyframes rJu7Xbc3_zm_SyQ9chuzQ_Animation{25%{-webkit-transform: translate(10px, 0px);transform: translate(10px, 0px);}75%{-webkit-transform: translate(-10px, 0px);transform: translate(-10px, 0px);}0%{-webkit-transform: translate(10px, 0px);transform: translate(10px, 0px);}100%{-webkit-transform: translate(-10px, 0px);transform: translate(-10px, 0px);}}@-webkit-keyframes HkKmXbch_MQ_H1arc3uG7_Animation{12.50%{-webkit-transform: translate(-5px, 0px);transform: translate(-5px, 0px);}62.50%{-webkit-transform: translate(5px, 0px);transform: translate(5px, 0px);}}@keyframes HkKmXbch_MQ_H1arc3uG7_Animation{12.50%{-webkit-transform: translate(-5px, 0px);transform: translate(-5px, 0px);}62.50%{-webkit-transform: translate(5px, 0px);transform: translate(5px, 0px);}}@-webkit-keyframes HkKmXbch_MQ_Animation{0%{opacity: 0;}12.50%{opacity: 0;}25%{opacity: 1;}50%{opacity: 1;}62.50%{opacity: 0;}100%{opacity: 0;}}@keyframes HkKmXbch_MQ_Animation{0%{opacity: 0;}12.50%{opacity: 0;}25%{opacity: 1;}50%{opacity: 1;}62.50%{opacity: 0;}100%{opacity: 0;}}@-webkit-keyframes SJBN7Wqh_fX_Animation{0%{opacity: 0;}12.50%{opacity: 1;}37.50%{opacity: 1;}50%{opacity: 0;}100%{opacity: 0;}}@keyframes SJBN7Wqh_fX_Animation{0%{opacity: 0;}12.50%{opacity: 1;}37.50%{opacity: 1;}50%{opacity: 0;}100%{opacity: 0;}}@-webkit-keyframes SJBN7Wqh_fX_rkoZcn_zQ_Animation{0%{-webkit-transform: translate(-10px, 0px);transform: translate(-10px, 0px);}50%{-webkit-transform: translate(10px, 0px);transform: translate(10px, 0px);}100%{-webkit-transform: translate(10px, 0px);transform: translate(10px, 0px);}}@keyframes SJBN7Wqh_fX_rkoZcn_zQ_Animation{0%{-webkit-transform: translate(-10px, 0px);transform: translate(-10px, 0px);}50%{-webkit-transform: translate(10px, 0px);transform: translate(10px, 0px);}100%{-webkit-transform: translate(10px, 0px);transform: translate(10px, 0px);}}#H1DWQ-93OGm *{-webkit-animation-duration: 4s;animation-duration: 4s;-webkit-animation-iteration-count: infinite;animation-iteration-count: infinite;-webkit-animation-timing-function: cubic-bezier(0, 0, 1, 1);animation-timing-function: cubic-bezier(0, 0, 1, 1);}#r1YbX-c2OMX{opacity: 0.1;enable-background: new;}#Hki-mbchdGQ{fill: #FFFFFF;-webkit-animation-name: Hki-mbchdGQ_Animation;animation-name: Hki-mbchdGQ_Animation;-webkit-transform-origin: 50% 50%;transform-origin: 50% 50%;transform-box: fill-box;}#SJnZQZqnuM7{fill: #FFFFFF;}#r16-7Wq2_M7{fill: #E8E8E8;}#rJA-7W92uGX{fill: #FFDB79;}#SykzQZq3uG7{fill: #9BDDE7;}#rJeGm-93dMX{fill: #F77B55;}#rJWfQZ9hOfX{fill: #FFFFFF;}#SJzGX-q2df7{fill: #FFD45B;}#HymfXW9nOzQ{fill: #CCCCCC;}#SyEGmZ5n_M7{fill: #CCCCCC;}#BkrzXW9nuM7{fill: #CCCCCC;}#Sk8MXWq3_zX{fill: #ADECF7;}#BJwfXWc3OfX{fill: #F26D6E;}#HJOGmW93dzQ{fill: #A6A9AB;}#Hytfm-93_zm{fill: #A6A9AB;}#Sy5zmbc3_MX{fill: #A6A9AB;}#rkizmb5hdfm{fill: #A6A9AB;}#B1nfX-52OMQ{fill: #A6A9AB;}#H16MmWq3OfQ{enable-background: new;}#HkyXmWcnOfQ{enable-background: new;}#SkPQXW9hOzX{fill: #FEFEFE;}#rJu7Xbc3_zm{fill: #FFFFFF;-webkit-animation-name: rJu7Xbc3_zm_Animation;animation-name: rJu7Xbc3_zm_Animation;-webkit-transform-origin: 50% 50%;transform-origin: 50% 50%;transform-box: fill-box;}#HkKmXbch_MQ{fill: #FFFFFF;-webkit-animation-name: HkKmXbch_MQ_Animation;animation-name: HkKmXbch_MQ_Animation;-webkit-transform-origin: 50% 50%;transform-origin: 50% 50%;transform-box: fill-box;}#BkcQ7-qndM7{fill: #D9D8DF;}#SkiXXW52uG7{fill: #FFFFFF;}#H1TQ7b9nuz7{fill: #E8E8E8;}#rJ0XXWchOMQ{fill: #FACD00;}#Bk1VmbqnuzQ{fill: #4C2C0D;}#BkeVXWqnOM7{fill: #FEFEFE;}#rkbE7Z92_MX{fill: #E6E6E6;}#SyMEQZq3ufQ{fill: #363F48;}#rkm4X-92dMm{fill: #E6E6E6;}#rkEVmWq2OGX{fill: #363F48;}#SJBN7Wqh_fX{fill: #FFFFFF;-webkit-animation-name: SJBN7Wqh_fX_Animation;animation-name: SJBN7Wqh_fX_Animation;-webkit-transform-origin: 50% 50%;transform-origin: 50% 50%;transform-box: fill-box;opacity: 0;}#SJBN7Wqh_fX_rkoZcn_zQ{-webkit-animation-name: SJBN7Wqh_fX_rkoZcn_zQ_Animation;animation-name: SJBN7Wqh_fX_rkoZcn_zQ_Animation;-webkit-transform-origin: 50% 50%;transform-origin: 50% 50%;transform-box: fill-box;-webkit-transform: translate(-10px, 0px);transform: translate(-10px, 0px);}#HkKmXbch_MQ_H1arc3uG7{-webkit-animation-name: HkKmXbch_MQ_H1arc3uG7_Animation;animation-name: HkKmXbch_MQ_H1arc3uG7_Animation;-webkit-transform-origin: 50% 50%;transform-origin: 50% 50%;transform-box: fill-box;}#rJu7Xbc3_zm_SyQ9chuzQ{-webkit-animation-name: rJu7Xbc3_zm_SyQ9chuzQ_Animation;animation-name: rJu7Xbc3_zm_SyQ9chuzQ_Animation;-webkit-transform-origin: 50% 50%;transform-origin: 50% 50%;transform-box: fill-box;}#Hki-mbchdGQ_S10nc3dMX{-webkit-animation-name: Hki-mbchdGQ_S10nc3dMX_Animation;animation-name: Hki-mbchdGQ_S10nc3dMX_Animation;-webkit-transform-origin: 50% 50%;transform-origin: 50% 50%;transform-box: fill-box;}#rkm4X-92dMm_B1-Sjn_Mm{-webkit-animation-name: rkm4X-92dMm_B1-Sjn_Mm_Animation;animation-name: rkm4X-92dMm_B1-Sjn_Mm_Animation;-webkit-transform-origin: 50% 50%;transform-origin: 50% 50%;transform-box: fill-box;}#rkbE7Z92_MX_BkDUihOzm{-webkit-animation-name: rkbE7Z92_MX_BkDUihOzm_Animation;animation-name: rkbE7Z92_MX_BkDUihOzm_Animation;-webkit-transform-origin: 50% 50%;transform-origin: 50% 50%;transform-box: fill-box;}#HJ37QWq3Of7_BksOs3dGm{-webkit-animation-name: HJ37QWq3Of7_BksOs3dGm_Animation;animation-name: HJ37QWq3Of7_BksOs3dGm_Animation;-webkit-transform-origin: 50% 50%;transform-origin: 50% 50%;transform-box: fill-box;}</style>

<title>Asset 21</title>
<g id="rJu-7-9n_fQ">
	<circle id="r1YbX-c2OMX" cx="226.8" cy="240.8" r="201.2"/>
	<g id="H15bmbc3_M7">
		<g id="Hki-mbchdGQ_S10nc3dMX" data-animator-group="true" data-animator-type="0"><path d="M393,146.1c6.7,0,12.6-4.1,15-10.4c2.9-2.7,4.5-6.4,4.5-10.3l0,0c0-7.8-6.3-14.1-14.1-14.1h-9.7&#10;&#9;&#9;&#9;c5.4-9.5,2.1-21.6-7.4-27s-21.6-2.1-27,7.4c-1.7,3-2.6,6.4-2.6,9.8c0,0.2,0,0.3,0,0.5c-1.2-0.4-2.4-0.6-3.6-0.6&#10;&#9;&#9;&#9;c-5.7,0-10.6,4.2-11.5,9.8h-7.3c-7.8,0-14.1,6.3-14.1,14.1l0,0c0,7.8,6.3,14.1,14.1,14.1h11.4c3.7,8,13.3,11.5,21.3,7.7&#10;&#9;&#9;&#9;c3.4-1.6,6.1-4.3,7.7-7.7h10.5C383.1,143.7,387.9,146.1,393,146.1z" id="Hki-mbchdGQ"/></g>
		<path d="M59,126.9h334c5.4,0,9.7,4.4,9.8,9.8v220c0,5.4-4.4,9.7-9.8,9.7H59c-5.4,0-9.7-4.4-9.7-9.7v-220&#10;&#9;&#9;&#9;C49.3,131.3,53.6,126.9,59,126.9z" id="SJnZQZqnuM7"/>
		<path d="M56.3,126.9h339.3c3.9,0,7.1,3.2,7.1,7.1v21.9c0,0.3-0.3,0.6-0.6,0.6H49.2V134&#10;&#9;&#9;&#9;C49.2,130.1,52.4,126.9,56.3,126.9L56.3,126.9z" id="r16-7Wq2_M7"/>
		<path d="M66.7,147.8c3.6,0,6.5-2.9,6.5-6.5s-2.9-6.5-6.5-6.5s-6.5,2.9-6.5,6.5l0,0C60.2,144.9,63.1,147.8,66.7,147.8z&#10;&#9;&#9;&#9;" id="rJA-7W92uGX"/>
		<path d="M84.8,147.8c3.6,0,6.5-2.9,6.5-6.5s-2.9-6.5-6.5-6.5s-6.5,2.9-6.5,6.5l0,0C78.4,144.9,81.3,147.8,84.8,147.8z&#10;&#9;&#9;&#9;" id="SykzQZq3uG7"/>
		<path d="M103,147.8c3.6,0,6.5-2.9,6.5-6.5s-2.9-6.5-6.5-6.5s-6.5,2.9-6.5,6.5l0,0C96.5,144.9,99.4,147.8,103,147.8z" id="rJeGm-93dMX"/>
		<rect x="119.3" y="135.9" width="273.4" height="12.3" id="rJWfQZ9hOfX"/>
		<path d="M88.5,194.4h278.8c4.9,0,8.9,4,8.9,8.9V221c0,4.9-4,8.9-8.9,8.9H88.5c-4.9,0-9-4-9-8.9v-17.7&#10;&#9;&#9;&#9;C79.6,198.4,83.6,194.4,88.5,194.4z" id="SJzGX-q2df7"/>
		<rect x="190.2" y="173.4" width="75.3" height="5.4" id="HymfXW9nOzQ"/>
		<rect x="98.2" y="173.4" width="75.3" height="5.4" id="SyEGmZ5n_M7"/>
		<rect x="284.8" y="173.4" width="75.3" height="5.4" id="BkrzXW9nuM7"/>
		<path d="M113.1,303.6c14.4,0,26-11.6,26-26s-11.6-26-26-26s-26,11.6-26,26v0.1C87.2,292,98.8,303.6,113.1,303.6&#10;&#9;&#9;&#9;L113.1,303.6z" id="Sk8MXWq3_zX"/>
		<polygon points="98.7,272.1 112.2,295.1 144.1,242.9 113,278.5 &#9;&#9;" id="BJwfXWc3OfX"/>
		<rect x="163.2" y="265" width="122.4" height="3.9" id="HJOGmW93dzQ"/>
		<rect x="212.1" y="276" width="73.4" height="3.9" id="Hytfm-93_zm"/>
		<rect x="161.8" y="287" width="80.4" height="3.9" id="Sy5zmbc3_MX"/>
		<rect x="262.6" y="287" width="23" height="3.9" id="rkizmb5hdfm"/>
		<rect x="176.2" y="276" width="13" height="3.9" id="B1nfX-52OMQ"/>
		<g id="H16MmWq3OfQ">
			<path d="M96,207.4h1.3v4.5h0c0.2-0.4,0.5-0.7,0.9-0.9c0.4-0.2,0.9-0.4,1.3-0.4c1,0,2.5,0.6,2.5,3.1v4.3h-1.3v-4.2&#10;&#9;&#9;&#9;&#9;c0-1.2-0.4-2.2-1.7-2.2c-0.9,0-1.5,0.6-1.8,1.3c-0.1,0.2-0.1,0.4-0.1,0.6v4.4H96V207.4z" id="SkRGXW92dGm"/>
		</g>
		<g id="HkyXmWcnOfQ">
			<path d="M105.8,208.7v2.1h1.9v1h-1.9v3.9c0,0.9,0.3,1.4,1,1.4c0.3,0,0.6,0,0.8-0.1l0.1,1c-0.3,0.1-0.7,0.2-1.2,0.2&#10;&#9;&#9;&#9;&#9;c-0.6,0-1.1-0.2-1.4-0.6c-0.4-0.4-0.5-1-0.5-1.9v-4h-1.1v-1h1.1v-1.7L105.8,208.7z" id="Ske7X-93uzX"/>
			<path d="M110.8,208.7v2.1h1.9v1h-1.9v3.9c0,0.9,0.3,1.4,1,1.4c0.3,0,0.6,0,0.8-0.1l0.1,1c-0.3,0.1-0.7,0.2-1.2,0.2&#10;&#9;&#9;&#9;&#9;c-0.6,0-1.1-0.2-1.4-0.6c-0.4-0.4-0.5-1-0.5-1.9v-4h-1.1v-1h1.1v-1.7L110.8,208.7z" id="ryWQmZc2dzQ"/>
			<path d="M114.1,213.2c0-0.9,0-1.7-0.1-2.4h1.2l0.1,1.2h0c0.5-0.9,1.4-1.4,2.6-1.4c1.8,0,3.1,1.5,3.1,3.7c0,2.6-1.6,3.9-3.3,3.9&#10;&#9;&#9;&#9;&#9;c-1,0-1.8-0.4-2.2-1.1h0v3.9h-1.3V213.2z M115.4,215.1c0,0.2,0,0.4,0.1,0.5c0.2,0.9,1,1.5,2,1.5c1.4,0,2.2-1.1,2.2-2.8&#10;&#9;&#9;&#9;&#9;c0-1.5-0.8-2.7-2.2-2.7c-0.9,0-1.7,0.6-2,1.6c0,0.2-0.1,0.4-0.1,0.5V215.1z" id="BkGmQ-q3_zQ"/>
			<path d="M122.5,216.7c0.4,0.3,1.1,0.5,1.7,0.5c1,0,1.4-0.5,1.4-1.1c0-0.6-0.4-1-1.3-1.3c-1.3-0.5-1.9-1.2-1.9-2.1&#10;&#9;&#9;&#9;&#9;c0-1.2,0.9-2.1,2.5-2.1c0.7,0,1.4,0.2,1.8,0.4l-0.3,1c-0.3-0.2-0.8-0.4-1.5-0.4c-0.8,0-1.2,0.4-1.2,1c0,0.6,0.4,0.9,1.4,1.2&#10;&#9;&#9;&#9;&#9;c1.3,0.5,1.9,1.1,1.9,2.2c0,1.3-1,2.2-2.7,2.2c-0.8,0-1.5-0.2-2-0.5L122.5,216.7z" id="By77QW52Ofm"/>
			<path d="M128.3,212c0-0.6,0.4-0.9,0.9-0.9s0.9,0.4,0.9,0.9c0,0.5-0.3,0.9-0.9,0.9C128.6,213,128.3,212.6,128.3,212z M128.3,217.3&#10;&#9;&#9;&#9;&#9;c0-0.6,0.4-0.9,0.9-0.9s0.9,0.4,0.9,0.9c0,0.5-0.3,0.9-0.9,0.9C128.6,218.2,128.3,217.8,128.3,217.3z" id="B1NXQ-52OM7"/>
			<path d="M130.6,218.7l4.2-10.9h1l-4.2,10.9H130.6z" id="SyHQQ-9huM7"/>
			<path d="M135.7,218.7l4.2-10.9h1l-4.2,10.9H135.7z" id="HJ8QXW9h_z7"/>
		</g>
		<path d="M29.6,206c-1.4,0.1-2.7-1-2.8-2.5s1-2.7,2.5-2.8h0.2h0.2h1h0.2h5.4c1.5,0,2.6,1.2,2.6,2.6&#10;&#9;&#9;&#9;c0,1.5-1.2,2.6-2.6,2.6h-5.9h-0.1L29.6,206L29.6,206z M13.2,206.4c1.2-0.8,2.8-0.6,3.7,0.6s0.6,2.8-0.6,3.7h-0.1l-0.1,0.1&#10;&#9;&#9;&#9;l-0.1,0.1l-0.1,0.1l-0.1,0.1l-0.1,0.1l-0.1,0.1l-0.1,0.1l-0.1,0.1l-0.1,0.1l-0.1,0.1l-0.1,0.1l-0.1,0.1l-0.1,0.1l-0.1,0.1&#10;&#9;&#9;&#9;l-0.1,0.1l-0.1,0.1l-0.1,0.1l-0.1,0.1l-0.1,0.1l-0.1,0.1l-0.1,0.1l-0.1,0.1l-0.1,0.1l-0.1,0.1l-0.1,0.1l-0.1,0.1l-0.1,0.1&#10;&#9;&#9;&#9;l-0.1,0.1l-0.1,0.1l-0.1,0.1l0,0c-1,1-2.7,1.1-3.7,0.1s-1.1-2.7-0.1-3.7V210L9,210l0.1-0.1l0.1-0.1l0.1-0.1l0.1-0.1l0.1-0.1&#10;&#9;&#9;&#9;l0.1-0.1l0.1-0.1l0.1-0.1l0.1-0.1L10,209l0.1-0.1l0.1-0.1l0.1-0.1l0.1-0.1L11,208l0.2-0.1l0.1-0.1l0.1-0.1l0.1-0.1l0.1-0.1&#10;&#9;&#9;&#9;l0.2-0.1l0.1-0.1l0.1-0.1l0.2-0.1l0.1-0.1l0.1-0.1l0.2-0.1l0.1-0.1l0.2-0.1L13.2,206.4z M0.7,225.1c0.3-1.4,1.7-2.3,3.1-2&#10;&#9;&#9;&#9;s2.3,1.7,2,3.1l0,0l0,0v0.1v0.2v0.1v0.2v0.2v0.1v0.2v0.2v0.1v0.2v0.2v0.1v0.2v0.2v0.1v0.2v0.2v0.1v0.2v0.2v0.2v0.4v0.2v0.5v0.2&#10;&#9;&#9;&#9;v0.2l0,0c-0.1,1.6-1.4,2.9-3,2.8c-1.6-0.1-2.9-1.4-2.8-3l0,0v-0.6V230v-0.4v-0.2v-0.2V229v-0.2v-0.2v-0.2v-0.2V228v-0.2v-0.2v-0.2&#10;&#9;&#9;&#9;v-0.2V227v-0.2v-0.2v-0.2v-0.2V226v-0.2l0.1-0.2v-0.2v-0.2V225L0.7,225.1z M0,246.7c0-1.5,1.2-2.6,2.6-2.6c1.5,0,2.6,1.2,2.6,2.6&#10;&#9;&#9;&#9;v5.3c0,1.5-1.2,2.6-2.6,2.6S0,253.5,0,252l0,0V246.7z M0,267.8c0-1.5,1.2-2.6,2.6-2.6c1.5,0,2.6,1.2,2.6,2.6v5.3&#10;&#9;&#9;&#9;c0,1.5-1.2,2.6-2.6,2.6c-1.5,0-2.6-1.2-2.6-2.6V267.8z M0,288.9c0-1.5,1.2-2.6,2.6-2.6c1.5,0,2.6,1.2,2.6,2.6v5.2&#10;&#9;&#9;&#9;c0,1.5-1.2,2.6-2.6,2.6c-1.5,0-2.6-1.2-2.6-2.6V288.9z M0,309.9c0-1.5,1.2-2.6,2.6-2.6c1.5,0,2.6,1.2,2.6,2.6v5.3&#10;&#9;&#9;&#9;c0,1.5-1.2,2.6-2.6,2.6c-1.5,0-2.6-1.2-2.6-2.6V309.9z M0,331c0-1.5,1.2-2.6,2.6-2.6c1.5,0,2.6,1.2,2.6,2.6v5.3&#10;&#9;&#9;&#9;c0,1.5-1.2,2.6-2.6,2.6S0,337.7,0,336.3V331z M0,352.1c0-1.5,1.2-2.6,2.6-2.6c1.5,0,2.6,1.2,2.6,2.6v5.2c0,1.5-1.2,2.6-2.6,2.6&#10;&#9;&#9;&#9;S0,358.8,0,357.3l0,0V352.1z M0,373.1c0-1.5,1.2-2.6,2.6-2.6c1.5,0,2.6,1.2,2.6,2.6v5.3c0,1.5-1.2,2.6-2.6,2.6S0,379.8,0,378.4&#10;&#9;&#9;&#9;V373.1z M1.4,394.9c-0.5-1.4,0.2-2.9,1.5-3.4c1.4-0.5,2.9,0.2,3.4,1.5c0,0.1,0.1,0.2,0.1,0.3v0.1l0.1,0.1v0.1v0.2l0.1,0.1v0.1&#10;&#9;&#9;&#9;l0.1,0.2l0.1,0.1v0.1l0.1,0.2l0.1,0.1v0.1l0.1,0.1l0.1,0.2v0.1l0.1,0.1l0.1,0.1l0.1,0.2l0.1,0.1v0.1l0.1,0.1l0.1,0.1l0.1,0.1&#10;&#9;&#9;&#9;l0.1,0.2l0.1,0.1l0.1,0.1l0.1,0.1l0.1,0.1l0.1,0.1l0.1,0.1v0.1c0.7,1.3,0.2,2.9-1.1,3.6s-2.9,0.2-3.6-1.1l-0.1-0.1l-0.1-0.2&#10;&#9;&#9;&#9;L3.6,399L3,399.6v-0.2l-0.1-0.2L2.8,399l0.2-0.2l-0.1-0.2l-0.1-0.2l-0.1-0.2L2.6,398v-0.2l-0.1-0.2l-0.1-0.2l-0.1-0.2L2.2,397&#10;&#9;&#9;&#9;l-0.1-0.2l0.1,0.2l-0.1-0.2L2,396.6v-0.2l-0.1-0.2V396l-0.1,0l-0.1-0.2l-0.1-0.2l-0.1-0.2l-0.1-0.2L1.4,394.9L1.4,394.9z&#10;&#9;&#9;&#9; M15.4,412.5c-1.3-0.7-1.7-2.3-1-3.6l0,0c0.7-1.3,2.4-1.7,3.6-1l0,0l0.1,0.1l0.1,0.1l0.1,0.1l0.1,0.1l0.1,0.1l0.1,0.1l0.1,0.1&#10;&#9;&#9;&#9;l0.1,0.1l0.1,0.1l0.1,0.1l0.1,0.1l0.1,0.1l0.1,0.1l0.1,0.1l0.2,0.1l0.1,0.1l0.1,0.1l0.1,0.1l0.1,0.1l0.1,0.1l0.2,0.1h0.1l0.1,0.1&#10;&#9;&#9;&#9;l0.1,0.1l0.2,0.1h0.1l0.1,0.1l0.1,0.1h0.2l0.1,0.1l0,0c1.4,0.5,2.1,2,1.6,3.4s-2,2.1-3.4,1.6h-0.1l-0.2-0.1l-0.2-0.1l-0.2-0.1&#10;&#9;&#9;&#9;l-0.2-0.1l-0.2-0.1l-0.2-0.1l-0.2-0.1l-0.2-0.1l-0.2-0.1l-0.2-0.1l-0.2-0.1l-0.2-0.1l-0.2-0.1l-0.2-0.1l-0.2-0.1l-0.2-0.1&#10;&#9;&#9;&#9;l-0.2-0.1l-0.2-0.1l-0.2-0.1l-0.1-0.1l0,0l-0.2-0.1l-0.2-0.1l-0.2-0.1l-0.2-0.1l-0.2-0.1l-0.1-0.1l-0.2-0.1l-0.2-0.1L15.4,412.5&#10;&#9;&#9;&#9;L15.4,412.5z M37.1,416.7c-1.5,0-2.6-1.2-2.6-2.6s1.2-2.6,2.6-2.6l0,0h5.3c1.5,0,2.6,1.2,2.6,2.6c0,1.5-1.2,2.6-2.6,2.6H37.1z&#10;&#9;&#9;&#9; M58.2,416.7c-1.5,0-2.6-1.2-2.6-2.6s1.2-2.6,2.6-2.6l0,0h5.3c1.5,0,2.6,1.2,2.6,2.6c0,1.5-1.2,2.6-2.6,2.6H58.2z M208.8,416.7&#10;&#9;&#9;&#9;c-1.5,0-2.6-1.2-2.6-2.6c0-1.5,1.2-2.6,2.6-2.6l0,0h3c1.5,0,2.6,1.2,2.6,2.6c0,1.5-1.2,2.6-2.6,2.6l0,0H208.8z M226.8,416.7&#10;&#9;&#9;&#9;c-1.5,0-2.6-1.2-2.6-2.6c0-1.5,1.2-2.6,2.6-2.6h5.3c1.5,0,2.6,1.2,2.6,2.6c0,1.5-1.2,2.6-2.6,2.6l0,0H226.8z M247.9,416.7&#10;&#9;&#9;&#9;c-1.5,0-2.6-1.2-2.6-2.6c0-1.5,1.2-2.6,2.6-2.6l0,0h5.2c1.5,0,2.6,1.2,2.6,2.6c0,1.5-1.2,2.6-2.6,2.6H247.9z M268.9,416.7&#10;&#9;&#9;&#9;c-1.5,0-2.6-1.2-2.6-2.6c0-1.5,1.2-2.6,2.6-2.6h5.3c1.5,0,2.6,1.2,2.6,2.6s-1.2,2.6-2.6,2.6l0,0H268.9z M290,416.7&#10;&#9;&#9;&#9;c-1.5,0-2.6-1.2-2.6-2.6s1.2-2.6,2.6-2.6l0,0h5.3c1.5,0,2.6,1.2,2.6,2.6s-1.2,2.6-2.6,2.6l0,0H290z M311.1,416.7&#10;&#9;&#9;&#9;c-1.5,0-2.6-1.2-2.6-2.6s1.2-2.6,2.6-2.6l0,0h5.2c1.5,0,2.6,1.2,2.6,2.6s-1.2,2.6-2.6,2.6l0,0H311.1z M332.2,416.7&#10;&#9;&#9;&#9;c-1.5,0-2.6-1.2-2.6-2.6c0-1.5,1.2-2.6,2.6-2.6h5.3c1.5,0,2.6,1.2,2.6,2.6s-1.2,2.6-2.6,2.6l0,0H332.2z M353.3,416.7&#10;&#9;&#9;&#9;c-1.5,0-2.6-1.2-2.6-2.6s1.2-2.6,2.6-2.6l0,0h5.3c1.5,0,2.6,1.2,2.6,2.6c0,1.5-1.2,2.6-2.6,2.6H353.3z M374.3,416.7&#10;&#9;&#9;&#9;c-1.5,0-2.6-1.2-2.6-2.6c0-1.5,1.2-2.6,2.6-2.6h5.2c1.5,0,2.6,1.2,2.6,2.6c0,1.5-1.2,2.6-2.6,2.6H374.3z M395.4,416.7&#10;&#9;&#9;&#9;c-1.5,0-2.6-1.2-2.6-2.6c0-1.5,1.2-2.6,2.6-2.6h5.3c1.5,0,2.6,1.2,2.6,2.6c0,1.5-1.2,2.6-2.6,2.6H395.4z M416.5,416.7&#10;&#9;&#9;&#9;c-1.5,0-2.6-1.2-2.6-2.6s1.2-2.6,2.6-2.6l0,0h5.3c1.5,0,2.6,1.2,2.6,2.6s-1.2,2.6-2.6,2.6l0,0H416.5z M438.1,416&#10;&#9;&#9;&#9;c-1.4,0.3-2.8-0.6-3.1-2s0.6-2.8,2-3.1l0,0h0.2h0.2h0.1l0.2-0.1h0.1h0.2h0.1h0.2h0.1l0.1-0.1h0.2h0.1l0.2-0.1h0.1h0.2l0.1-0.1h0.1&#10;&#9;&#9;&#9;l0.2-0.1h0.1l0.1-0.1h0.2l0.1-0.1h0.1l0.2-0.1l0.1-0.1h0.1l0.1-0.1l0.2-0.1l0.1-0.1h0.1l0,0c1.3-0.6,2.9,0,3.5,1.4s0,2.9-1.4,3.5&#10;&#9;&#9;&#9;l0,0l-0.2,0.1l-0.2,0.1l-0.2,0.1l-0.2,0.1l-0.2,0.1l-0.2,0.1l-0.2,0.1l-0.2,0.1l-0.2,0.1l-0.2,0.1l-0.2,0.1l-0.2,0.1l-0.2,0.1&#10;&#9;&#9;&#9;h-0.2l-0.2,0.1l-0.2,0.1h-0.2l-0.2,0.1l-0.2,0.1h0.5l-0.2,0.1h-0.2l-0.2,0.1h-0.2H439l-0.2,0.1h-0.2h-0.2l-0.2,0.1H438L438.1,416z&#10;&#9;&#9;&#9; M456.8,403.5c-0.8,1.2-2.5,1.5-3.7,0.6s-1.5-2.5-0.6-3.7l0,0l0.1-0.1l0.1-0.1l0.1-0.1l0.1-0.1l0.1-0.1l0.1-0.1l0.1-0.1l0.1-0.1&#10;&#9;&#9;&#9;l0.1-0.1l0.1-0.1l0.1-0.1l0.1-0.1l0.1-0.1l0.1-0.1l0.1-0.1l0.1-0.1l0.1-0.1l0.1-0.1l0.1-0.1l0.1-0.1l0.1-0.1l0.1-0.1l0.1-0.1&#10;&#9;&#9;&#9;l0.1-0.1l0.1-0.1l0.1-0.1l0.1-0.1l0.1-0.1l0.1-0.2v-0.1l0.1-0.1c0.6-1.3,2.2-1.9,3.5-1.3l0,0c1.3,0.6,1.9,2.2,1.3,3.5l-0.1,0.1&#10;&#9;&#9;&#9;l-0.1,0.2l-0.1,0.2l-0.1,0.2l-0.1,0.2l-0.1,0.2l-0.1,0.2l-0.1,0.2l-0.1,0.2l-0.1,0.2l-0.1,0.1l-0.1,0.2l-0.1,0.2l-0.1,0.2&#10;&#9;&#9;&#9;l-0.1,0.2l-0.1,0.1l-0.1,0.2l-0.1,0.2l-0.1,0.1l-0.1,0.2l-0.1,0.2l-0.1,0.1l-0.1,0.2l-0.1,0.2l-0.1,0.1l-0.1,0.2l-0.1,0.1&#10;&#9;&#9;&#9;l-0.1,0.2l-0.1,0.1l-0.1,0.2L456.8,403.5z M462.6,382c0,1.5-1.2,2.6-2.6,2.6c-1.5,0-2.6-1.2-2.6-2.6v-5.3c0-1.5,1.2-2.6,2.6-2.6&#10;&#9;&#9;&#9;c1.5,0,2.6,1.2,2.6,2.6V382z M462.6,361c0,1.5-1.2,2.6-2.6,2.6c-1.5,0-2.6-1.2-2.6-2.6v-5.2c0-1.5,1.2-2.6,2.6-2.6&#10;&#9;&#9;&#9;s2.6,1.2,2.6,2.6l0,0V361z M462.6,339.9c0,1.5-1.2,2.6-2.6,2.6c-1.5,0-2.6-1.2-2.6-2.6v-5.3c0-1.5,1.2-2.6,2.6-2.6&#10;&#9;&#9;&#9;c1.5,0,2.6,1.2,2.6,2.6V339.9z M462.6,318.8c0,1.5-1.2,2.6-2.6,2.6c-1.5,0-2.6-1.2-2.6-2.6v-5.3c0-1.5,1.2-2.6,2.6-2.6&#10;&#9;&#9;&#9;s2.6,1.2,2.6,2.6l0,0V318.8z M462.6,297.7c0,1.5-1.2,2.6-2.6,2.6c-1.5,0-2.6-1.2-2.6-2.6v-5.2c0-1.5,1.2-2.6,2.6-2.6&#10;&#9;&#9;&#9;c1.5,0,2.6,1.2,2.6,2.6V297.7z M462.6,276.7c0,1.5-1.2,2.6-2.6,2.6c-1.5,0-2.6-1.2-2.6-2.6v-5.3c0-1.5,1.2-2.6,2.6-2.6&#10;&#9;&#9;&#9;s2.6,1.2,2.6,2.6l0,0V276.7z M462.6,255.6c0,1.5-1.2,2.6-2.6,2.6s-2.6-1.2-2.6-2.6l0,0v-5.3c0-1.5,1.2-2.6,2.6-2.6&#10;&#9;&#9;&#9;c1.5,0,2.6,1.2,2.6,2.6l0,0V255.6z M462.6,234.5c0,1.5-1.2,2.6-2.6,2.6c-1.5,0-2.6-1.2-2.6-2.6V231v-0.2v-0.5v-0.2v-0.3v-0.1v-0.1&#10;&#9;&#9;&#9;c-0.2-1.4,0.8-2.8,2.2-3c1.4-0.2,2.8,0.8,3,2.2c0,0.1,0,0.2,0,0.3v0.2v0.4v0.2v0.2v0.2v0.8v0.2V234.5L462.6,234.5z M456.3,213.1&#10;&#9;&#9;&#9;c0.8,1.2,0.5,2.8-0.7,3.7c-1.1,0.8-2.6,0.5-3.5-0.5l-0.1-0.1l-0.1-0.1l0.1-0.1l-0.1-0.1l-0.1-0.1l-0.1-0.1l-0.1-0.1l-0.1-0.1&#10;&#9;&#9;&#9;l-0.1-0.1l-0.1-0.1l-0.1-0.1l-0.1-0.1L451,215l-0.1-0.1l-0.1-0.1l-0.1-0.1l-0.1-0.1l-0.1-0.1l-0.1-0.1l-0.1-0.1l-0.1-0.1l-0.1-0.1&#10;&#9;&#9;&#9;L450,214l-0.1-0.1l-0.1-0.1l-0.1-0.1l-0.1-0.1l-0.1-0.1l-0.1-0.1l-0.1-0.1l-0.1-0.1l0,0c-1.1-1-1.1-2.7-0.2-3.7&#10;&#9;&#9;&#9;c1-1.1,2.6-1.2,3.7-0.2l0,0h0.1l0.1,0.1l0.1,0.1l0.1,0.1l0.1,0.1l0.1,0.1l0.1,0.1l0.1,0.1l0.1,0.1l0.1,0.1l0.1,0.1l0.1,0.1&#10;&#9;&#9;&#9;l0.1,0.1l0.1,0.1l0.1,0.1l0.1,0.1l0.1,0.1l0.1,0.1l0.1,0.1l0.1,0.1l0.1,0.2l0.1,0.1l0.1,0.1l0.1,0.1l0.1,0.1l0.1,0.2l0.1,0.1&#10;&#9;&#9;&#9;l0.1,0.1l0.1,0.1l0.1,0.2l0.1,0.1L456.3,213.1z M438.7,201.2c1.4,0.3,2.4,1.7,2.1,3.1c-0.3,1.4-1.7,2.4-3.1,2.1l0,0l0,0h-0.2h-0.2&#10;&#9;&#9;&#9;h-0.1H437h-0.1h-0.2h-0.2h-0.1h-0.2H436h-0.2h-0.1h-0.2h-0.2h-0.1H435h0h-0.3h-0.1H434h-0.2H433c-1.5,0-2.6-1.2-2.6-2.6&#10;&#9;&#9;&#9;c0-1.5,1.2-2.6,2.6-2.6h0.2h0.2h1h0.2h0.4h0.2h0.2h0.2h0.2h0.2h0.2h0.2h0.2h0.2h0.2h0.2h0.2h0.2h0.2h0.2h0.2h0.2H438.7h0.1H438.7z&#10;&#9;&#9;&#9; M418.7,200.7c1.5,0,2.6,1.2,2.6,2.6c0,1.5-1.2,2.6-2.6,2.6h-5.3c-1.5,0-2.6-1.2-2.6-2.6c0-1.5,1.2-2.6,2.6-2.6l0,0H418.7z" id="SkPQXW9hOzX"/>
	</g>
	<g id="rJu7Xbc3_zm_SyQ9chuzQ" data-animator-group="true" data-animator-type="0"><path d="M148,3.1c-14.7,0-27.2,9.5-30.7,22.3C103,27,91.9,38.4,91.9,52.3c0,15,12.9,27.1,28.9,27.1h74.1&#10;&#9;&#9;c13.8,0,24.9-10.5,24.9-23.4c0-9.6-6.2-17.9-15-21.5c0-0.2,0-0.3,0-0.5c0-9.1-7.9-16.5-17.6-16.5c-3.6,0-7.2,1-10.2,3&#10;&#9;&#9;C171.9,10.2,160.9,3.1,148,3.1L148,3.1z" id="rJu7Xbc3_zm"/></g>
	<g id="HkKmXbch_MQ_H1arc3uG7" data-animator-group="true" data-animator-type="0"><path d="M68.2,75.2c-7.4,0-13.6,4.7-15.3,11.1c-7.2,0.8-12.8,6.5-12.8,13.4c0,7.5,6.5,13.5,14.4,13.5h37&#10;&#9;&#9;c6.9,0,12.4-5.2,12.4-11.7c-0.1-4.8-3-9-7.5-10.7v-0.2c-0.2-4.7-4.1-8.4-8.8-8.3c-1.8,0-3.6,0.5-5.1,1.5&#10;&#9;&#9;C79.9,78.5,74.3,75.1,68.2,75.2z" id="HkKmXbch_MQ"/></g>
	<rect x="416.2" y="311.3" width="8.7" height="8.7" id="BkcQ7-qndM7"/>
	<rect x="413.3" y="317.6" width="14.5" height="3.8" id="SkiXXW52uG7"/>
	<g id="HJ37QWq3Of7_BksOs3dGm" data-animator-group="true" data-animator-type="1"><g id="HJ37QWq3Of7">
		<path d="M427.9,305v9h-14.2v-9c0.3-14.2-11-26-25.2-26.2c-14.2-0.3-26,11-26.2,25.2c0,0.3,0,0.7,0,1v41H348v-41&#10;&#9;&#9;&#9;c0-1.6,0.1-3.3,0.3-4.9c2.8-21.9,22.9-37.4,44.8-34.6c18.8,2.4,33.4,17.7,34.8,36.7C427.9,303.1,427.9,304,427.9,305z" id="H1TQ7b9nuz7"/>
		<path d="M432.8,318.6v28.6c0,24.8-20.1,44.8-44.9,44.8s-44.8-20.1-44.8-44.8c0-0.1,0-0.2,0-0.3v-28.3&#10;&#9;&#9;&#9;c0-2.6,2.1-4.8,4.8-4.8H428C430.6,313.8,432.8,315.9,432.8,318.6z" id="rJ0XXWchOMQ"/>
		<path d="M398,342.4c0-5.6-4.5-10.1-10.1-10.1s-10.1,4.5-10.1,10.1c0,3.7,2,7.1,5.2,8.9v11c0,2.7,2.2,4.9,4.9,4.9l0,0&#10;&#9;&#9;&#9;c2.7,0,4.9-2.2,4.9-4.9v-11C396,349.4,398,346,398,342.4z" id="Bk1VmbqnuzQ"/>
	</g></g>
	<polygon points="418.3,319.4 434.9,328.5 451.5,337.6 437.4,341.6 448.5,359.9 440.5,364.9 429.3,346.5 419.2,357.3 &#10;&#9;&#9;418.8,338.3 &#9;" id="BkeVXWqnOM7"/>
	<g id="rkbE7Z92_MX_BkDUihOzm" data-animator-group="true" data-animator-type="1"><path d="M182.6,386.5c3.5,1.5,6.6,3.8,9.2,6.6l10.5-4.8l7.4,16.2l-10.5,4.7c0.2,1.9,0.2,3.8,0,5.7&#10;&#9;&#9;c-0.2,1.9-0.6,3.7-1.1,5.6l9.4,6.7L197,441.7l-9.4-6.7c-3.1,2.2-6.6,3.8-10.2,4.7l-1.1,11.5l-17.8-1.8l1.1-11.4&#10;&#9;&#9;c-3.5-1.6-6.6-3.8-9.2-6.6l-10.5,4.7l-7.4-16.2l10.4-4.8c-0.2-1.9-0.2-3.8,0-5.7c0.2-1.9,0.6-3.8,1.1-5.6l-9.3-6.7l10.4-14.5&#10;&#9;&#9;l9.4,6.7c3.1-2.2,6.6-3.8,10.3-4.7l1.1-11.5l17.8,1.7L182.6,386.5z" id="rkbE7Z92_MX"/></g>
	<path d="M172.8,394.8L172.8,394.8c-9.7-0.9-18.2,6.1-19.2,15.7c-0.9,9.6,6.1,18.2,15.7,19.2&#10;&#9;&#9;c9.6,0.9,18.2-6.1,19.2-15.7C189.5,404.3,182.4,395.7,172.8,394.8z M179.9,413.1c-0.5,4.9-4.8,8.5-9.7,8s-8.5-4.8-8-9.8l0,0&#10;&#9;&#9;c0.5-4.9,4.8-8.5,9.7-8C176.8,403.8,180.4,408.2,179.9,413.1z" id="SyMEQZq3ufQ"/>
	<g id="rkm4X-92dMm_B1-Sjn_Mm" data-animator-group="true" data-animator-type="1"><path d="M118.2,390.8c1.5,2.5,2.4,5.2,2.8,8.1l8.6,1.7l-2.6,13.2l-8.5-1.6c-0.7,1.3-1.5,2.4-2.5,3.5&#10;&#9;&#9;c-0.9,1.1-2,2.1-3.1,3l2.8,8.2l-12.8,4.4L100,423c-2.9,0-5.7-0.5-8.4-1.6l-5.7,6.6l-10.2-8.9l5.7-6.5c-1.5-2.5-2.4-5.2-2.8-8.1&#10;&#9;&#9;l-8.5-1.7l2.6-13.2l8.6,1.6c0.7-1.2,1.5-2.4,2.5-3.5c0.9-1.1,2-2.1,3.1-3l-2.8-8.3l12.8-4.4l2.8,8.3c2.9,0,5.7,0.5,8.4,1.6l5.7-6.5&#10;&#9;&#9;l10.2,8.9L118.2,390.8z" id="rkm4X-92dMm"/></g>
	<path d="M108.5,391.7C108.5,391.6,108.5,391.6,108.5,391.7c-2.5-2.2-5.6-3.3-8.7-3.3c-3.7,0-7.4,1.5-10,4.6&#10;&#9;&#9;c-4.8,5.5-4.2,13.9,1.3,18.7c5.5,4.8,13.9,4.2,18.7-1.3C114.6,404.9,114,396.5,108.5,391.7z M104.9,406.1c-2.4,2.8-6.7,3.1-9.5,0.7&#10;&#9;&#9;s-3.1-6.7-0.7-9.5l0,0c2.4-2.8,6.7-3.1,9.5-0.7C107,399,107.3,403.3,104.9,406.1z" id="rkEVmWq2OGX"/>
</g>
<g id="SJBN7Wqh_fX_rkoZcn_zQ" data-animator-group="true" data-animator-type="0"><path d="M247.1,61.2c2,0,4.1,0.4,5.9,1.3c1.6-0.8,3.4-1.2,5.1-1.3c-0.3-1-0.5-2-0.5-3c0-6.1,5.5-11.1,12.2-11.1&#10;&#9;s12.3,4.9,12.3,11.1c0,2.2-0.7,4.4-2.1,6.1c3.9,1.1,6.7,4.2,6.7,7.8c0,1.5-0.5,3-1.4,4.2c5.5,1.1,9,2.7,9,4.5&#10;&#9;c0,3.2-10.6,5.8-23.7,5.8c-4.8,0-9.6-0.4-14.4-1.2c-5.7,5.1-14.5,4.6-19.6-1.1s-4.6-14.5,1.1-19.6C240.4,62.5,243.7,61.2,247.1,61.2&#10;&#9;L247.1,61.2z" id="SJBN7Wqh_fX"/></g>
<script>(function(){var a=document.querySelector('#H1DWQ-93OGm'),b=a.querySelectorAll('style'),c=function(d){b.forEach(function(f){var g=f.textContent;g&amp;&amp;(f.textContent=g.replace(/transform-box:[^;\r\n]*/gi,'transform-box: '+d))})};c('initial'),window.requestAnimationFrame(function(){return c('fill-box')})})();</script></svg>