<?xml version="1.0" encoding="UTF-8"?>
<svg width="158px" height="61px" viewBox="0 0 158 61" version="1.1" xmlns="http://www.w3.org/2000/svg" xmlns:xlink="http://www.w3.org/1999/xlink">
    <!-- Generator: Sketch 50.2 (55047) - http://www.bohemiancoding.com/sketch -->
    <title>Group 11</title>
    <desc>Created with Sketch.</desc>
    <defs></defs>
    <g id="Desktop" stroke="none" stroke-width="1" fill="none" fill-rule="evenodd">
        <g id="Desktop-/-1.0.Internal_C10_NewHomepage" transform="translate(-993.000000, -405.000000)" fill="#FFFFFF">
            <g id="Group-11" transform="translate(992.000000, 405.000000)">
                <path d="M141.340173,40.7878 L148.1906,40.7878 C153.7726,40.7878 158.2956,45.3108 158.2956,50.8918 C158.2956,56.4728 153.7726,60.9968 148.1906,60.9968 L109.8786,60.9968 C109.863448,60.9968 109.848304,60.9967666 109.833168,60.9967 L21.5783,60.9967 C10.2143,60.9967 0.9993,51.7827 0.9993,40.4167 C0.9993,29.0517 10.2143,19.8387 21.5783,19.8387 L22.7115918,19.8387 C22.2550655,18.3901214 22.0089,16.8481751 22.0089,15.2487 C22.0089,6.8267 28.8339,-0.0003 37.2569,-0.0003 L95.0749,-0.0003 C102.640254,-0.0003 108.91727,5.50720379 110.11711,12.7312 L126.8557,12.7312 C136.6677,12.7312 144.6217,20.6862 144.6217,30.4982 C144.6217,34.3333793 143.406517,37.8845473 141.340173,40.7878 Z" id="Combined-Shape"></path>
            </g>
        </g>
    </g>
</svg>