<?xml version="1.0" encoding="UTF-8"?>
<svg width="1426px" height="1024px" viewBox="0 0 1426 1024" version="1.1" xmlns="http://www.w3.org/2000/svg" xmlns:xlink="http://www.w3.org/1999/xlink">
    <!-- Generator: Sketch 51.1 (57501) - http://www.bohemiancoding.com/sketch -->
    <title>Group 2</title>
    <desc>Created with Sketch.</desc>
    <defs>
        <radialGradient cx="50.130939%" cy="49.9980263%" fx="50.130939%" fy="49.9980263%" r="49.5842368%" id="radialGradient-1">
            <stop stop-color="#FFFFFF" offset="0%"></stop>
            <stop stop-color="#FFFFFF" stop-opacity="0" offset="100%"></stop>
        </radialGradient>
        <radialGradient cx="50.130939%" cy="49.9980263%" fx="50.130939%" fy="49.9980263%" r="49.5842368%" id="radialGradient-2">
            <stop stop-color="#FFFFFF" stop-opacity="0.344910553" offset="0%"></stop>
            <stop stop-color="#FFFFFF" stop-opacity="0" offset="100%"></stop>
        </radialGradient>
    </defs>
    <g id="Desktop" stroke="none" stroke-width="1" fill="none" fill-rule="evenodd">
        <g id="Desktop-/-5.5.Internal_C10_Q4" transform="translate(-9.000000, 0.000000)" fill-rule="nonzero">
            <g id="Group-2" transform="translate(0.000000, -208.000000)">
                <circle id="Oval-2" fill="url(#radialGradient-1)" cx="720.5" cy="720.5" r="511.5"></circle>
                <path d="M1007.15057,37.1711544 C1007.15057,37.1711544 1006.61372,37.1711544 1007.15057,37.1711544 C1006.61372,37.1711544 1006.61372,37.1711544 1007.15057,37.1711544 C1006.07687,36.4125967 1005.00318,36.0333178 1003.92948,35.6540389 C1003.92948,35.6540389 1003.39263,35.6540389 1003.39263,35.2747601 C1003.39263,35.2747601 1003.39263,35.2747601 1003.39263,35.2747601 C1003.39263,35.2747601 1003.39263,35.2747601 1002.85578,35.2747601 C1002.85578,35.2747601 1002.85578,35.2747601 1002.85578,35.2747601 C1002.85578,35.2747601 1002.85578,35.2747601 1002.31893,34.8954812 C1002.31893,34.8954812 1002.31893,34.8954812 1001.78208,34.5162024 C1001.78208,34.5162024 1001.78208,34.5162024 1001.78208,34.5162024 C1001.78208,34.5162024 1001.24524,34.5162024 1001.24524,34.5162024 C1000.70839,34.5162024 1000.17154,34.1369235 1000.17154,34.1369235 C1000.17154,34.1369235 1000.17154,34.1369235 1000.17154,34.1369235 C1000.17154,34.1369235 1000.17154,34.1369235 999.634689,34.1369235 C999.634689,34.1369235 999.634689,34.1369235 999.634689,34.1369235 C999.634689,34.1369235 999.634689,34.1369235 999.09784,34.1369235 C999.09784,34.1369235 999.09784,34.1369235 999.09784,34.1369235 C999.09784,34.1369235 999.09784,34.1369235 998.560991,34.1369235 C998.560991,34.1369235 998.560991,34.1369235 998.560991,34.1369235 C998.560991,34.1369235 998.560991,34.1369235 998.560991,34.1369235 C998.560991,34.1369235 998.560991,34.1369235 998.560991,34.1369235 C998.560991,34.1369235 998.560991,34.1369235 998.560991,34.1369235 C998.560991,34.1369235 998.024142,34.1369235 998.024142,34.1369235 C998.024142,34.1369235 998.024142,34.1369235 998.024142,34.1369235 C998.024142,34.1369235 997.487294,34.1369235 997.487294,33.7576446 C997.487294,33.7576446 997.487294,33.7576446 997.487294,33.7576446 C997.487294,33.7576446 997.487294,33.7576446 996.950445,33.7576446 C996.950445,33.7576446 996.950445,33.7576446 996.950445,33.7576446 C996.950445,33.7576446 996.950445,33.7576446 996.950445,33.7576446 C996.950445,33.7576446 996.950445,33.7576446 996.950445,33.7576446 C996.950445,33.7576446 996.950445,33.7576446 996.413596,33.7576446 C996.413596,33.7576446 996.413596,33.7576446 996.413596,33.7576446 C996.413596,33.7576446 996.413596,33.7576446 996.413596,33.7576446 C996.413596,33.7576446 996.413596,33.7576446 996.413596,33.7576446 C996.413596,33.7576446 996.413596,33.7576446 995.876747,33.7576446 C995.876747,33.7576446 995.876747,33.7576446 995.876747,33.7576446 C995.339898,33.7576446 995.339898,33.3783658 994.80305,33.3783658 C994.80305,33.3783658 994.80305,33.3783658 994.80305,33.3783658 C994.80305,33.3783658 994.266201,33.3783658 994.266201,33.3783658 C994.266201,33.3783658 994.266201,33.3783658 994.266201,33.3783658 C994.266201,33.3783658 994.266201,33.3783658 993.729352,33.3783658 C993.729352,33.3783658 993.729352,33.3783658 993.729352,33.3783658 C993.729352,33.3783658 993.729352,33.3783658 993.192503,33.3783658 C993.192503,33.3783658 993.192503,33.3783658 993.192503,33.3783658 C993.192503,33.3783658 993.192503,33.3783658 992.655654,33.3783658 C992.655654,33.3783658 992.655654,33.3783658 992.655654,33.3783658 C992.655654,33.3783658 992.655654,33.3783658 992.118806,33.3783658 C992.118806,33.3783658 992.118806,33.3783658 992.118806,33.3783658 C991.581957,33.3783658 991.581957,32.9990869 991.045108,32.9990869 C991.045108,32.9990869 991.045108,32.9990869 991.045108,32.9990869 C991.045108,32.9990869 990.508259,32.9990869 990.508259,32.9990869 C990.508259,32.9990869 990.508259,32.9990869 990.508259,32.9990869 C990.508259,32.9990869 990.508259,32.9990869 989.97141,32.9990869 C989.97141,32.9990869 989.97141,32.9990869 989.97141,32.9990869 C989.97141,32.9990869 989.97141,32.9990869 989.434562,32.9990869 C989.434562,32.9990869 989.434562,32.9990869 989.434562,32.9990869 C989.434562,32.9990869 989.434562,32.9990869 988.897713,32.9990869 C988.897713,32.9990869 988.897713,32.9990869 988.897713,32.9990869 C988.897713,32.9990869 988.897713,32.9990869 988.360864,32.9990869 C988.360864,32.9990869 988.360864,32.9990869 988.360864,32.9990869 C988.360864,32.9990869 987.824015,32.9990869 987.824015,32.9990869 C987.824015,32.9990869 987.824015,32.9990869 987.824015,32.9990869 C987.824015,32.9990869 987.287166,32.9990869 987.287166,32.6198081 C987.287166,32.6198081 987.287166,32.6198081 987.287166,32.6198081 C987.287166,32.6198081 986.750318,32.6198081 986.750318,32.6198081 C986.750318,32.6198081 986.750318,32.6198081 986.750318,32.6198081 C986.750318,32.6198081 986.750318,32.6198081 986.213469,32.6198081 C986.213469,32.6198081 986.213469,32.6198081 986.213469,32.6198081 C986.213469,32.6198081 986.213469,32.6198081 985.67662,32.6198081 C985.67662,32.6198081 985.67662,32.6198081 985.67662,32.6198081 C985.67662,32.6198081 985.139771,32.6198081 985.139771,32.6198081 C985.139771,32.6198081 985.139771,32.6198081 985.139771,32.6198081 C985.139771,32.6198081 984.602922,32.6198081 984.602922,32.6198081 C984.602922,32.6198081 984.602922,32.6198081 984.602922,32.6198081 C984.066074,32.6198081 984.066074,32.2405292 983.529225,32.2405292 C983.529225,32.2405292 983.529225,32.2405292 983.529225,32.2405292 C983.529225,32.2405292 982.992376,32.2405292 982.992376,32.2405292 C982.992376,32.2405292 982.992376,32.2405292 982.992376,32.2405292 C982.992376,32.2405292 982.992376,32.2405292 982.455527,32.2405292 C982.455527,32.2405292 981.918679,32.2405292 981.918679,32.2405292 C981.918679,32.2405292 981.918679,32.2405292 981.918679,32.2405292 C981.918679,32.2405292 981.918679,32.2405292 981.38183,32.2405292 C981.38183,32.2405292 981.38183,32.2405292 981.38183,32.2405292 C981.38183,32.2405292 980.844981,32.2405292 980.844981,32.2405292 C980.844981,32.2405292 980.844981,32.2405292 980.844981,32.2405292 C980.308132,31.8612503 979.771283,31.8612503 979.234435,31.4819715 C979.234435,31.4819715 979.234435,31.4819715 979.234435,31.4819715 C979.234435,31.4819715 978.697586,31.4819715 978.697586,31.4819715 C978.697586,31.4819715 978.697586,31.4819715 978.697586,31.4819715 C978.697586,31.4819715 978.697586,31.4819715 978.160737,31.4819715 C978.160737,31.4819715 978.160737,31.4819715 978.160737,31.4819715 C978.160737,31.4819715 978.160737,31.4819715 977.623888,31.4819715 C977.623888,31.4819715 977.623888,31.4819715 977.623888,31.4819715 C977.623888,31.4819715 977.087039,31.4819715 977.087039,31.4819715 C977.087039,31.4819715 977.087039,31.4819715 977.087039,31.4819715 C977.087039,31.4819715 976.550191,31.4819715 976.550191,31.4819715 C976.013342,31.4819715 976.013342,31.1026926 975.476493,31.1026926 C975.476493,31.1026926 975.476493,31.1026926 975.476493,31.1026926 C975.476493,31.1026926 974.939644,31.1026926 974.939644,31.1026926 C974.939644,31.1026926 974.939644,31.1026926 974.939644,31.1026926 C974.939644,31.1026926 974.939644,31.1026926 974.402795,31.1026926 C974.402795,31.1026926 974.402795,31.1026926 974.402795,31.1026926 C974.402795,31.1026926 974.402795,31.1026926 973.865947,31.1026926 C973.865947,31.1026926 973.865947,31.1026926 973.865947,31.1026926 C973.865947,31.1026926 973.865947,31.1026926 973.329098,31.1026926 C973.329098,31.1026926 973.329098,31.1026926 973.329098,31.1026926 C973.329098,31.1026926 972.792249,31.1026926 972.792249,30.7234138 C972.792249,30.7234138 972.792249,30.7234138 972.792249,30.7234138 C972.2554,30.7234138 972.2554,30.3441349 971.718551,30.3441349 C971.718551,30.3441349 971.718551,30.3441349 971.718551,30.3441349 C971.718551,30.3441349 971.718551,30.3441349 971.181703,30.3441349 C971.181703,30.3441349 971.181703,30.3441349 971.181703,30.3441349 C971.181703,30.3441349 971.181703,30.3441349 970.644854,30.3441349 C970.644854,30.3441349 970.644854,30.3441349 970.644854,30.3441349 C970.644854,30.3441349 970.108005,30.3441349 970.108005,30.3441349 C970.108005,30.3441349 970.108005,30.3441349 970.108005,30.3441349 C970.108005,30.3441349 970.108005,30.3441349 969.571156,30.3441349 C969.571156,30.3441349 969.571156,30.3441349 969.571156,30.3441349 C969.571156,30.3441349 969.034307,30.3441349 969.034307,29.964856 C969.034307,29.964856 969.034307,29.964856 969.034307,29.964856 C968.497459,29.964856 967.96061,29.5855772 967.96061,29.5855772 C967.96061,29.5855772 967.423761,29.5855772 967.423761,29.2062983 C967.423761,29.2062983 967.423761,29.2062983 967.423761,29.2062983 C967.423761,29.2062983 967.423761,29.2062983 966.886912,29.2062983 C966.886912,29.2062983 966.886912,29.2062983 966.886912,29.2062983 C966.886912,29.2062983 966.886912,29.2062983 966.350064,29.2062983 C966.350064,29.2062983 966.350064,29.2062983 966.350064,29.2062983 C966.350064,29.2062983 965.813215,29.2062983 965.813215,29.2062983 C965.813215,29.2062983 965.813215,29.2062983 965.813215,29.2062983 C965.276366,29.2062983 964.739517,28.8270195 964.202668,28.4477406 C964.202668,28.4477406 963.66582,28.4477406 963.66582,28.4477406 C963.66582,28.4477406 963.66582,28.4477406 963.66582,28.4477406 C963.66582,28.4477406 963.66582,28.4477406 963.128971,28.4477406 C963.128971,28.4477406 963.128971,28.4477406 963.128971,28.4477406 C963.128971,28.4477406 963.128971,28.4477406 962.592122,28.4477406 C962.592122,28.4477406 962.592122,28.4477406 962.592122,28.4477406 C962.592122,28.4477406 962.592122,28.4477406 962.055273,28.4477406 C962.055273,28.4477406 962.055273,28.4477406 962.055273,28.4477406 C962.055273,28.4477406 961.518424,28.4477406 961.518424,28.4477406 C961.518424,28.4477406 961.518424,28.4477406 961.518424,28.4477406 C960.981576,28.4477406 960.981576,28.0684617 960.444727,28.0684617 C960.444727,28.0684617 960.444727,28.0684617 960.444727,28.0684617 C960.444727,28.0684617 959.907878,28.0684617 959.907878,28.0684617 C959.907878,28.0684617 959.907878,28.0684617 959.907878,28.0684617 C959.907878,28.0684617 959.907878,28.0684617 959.371029,28.0684617 C959.371029,28.0684617 959.371029,28.0684617 959.371029,28.0684617 C959.371029,28.0684617 959.371029,28.0684617 958.83418,28.0684617 C958.83418,28.0684617 958.83418,28.0684617 958.83418,28.0684617 C958.83418,28.0684617 958.83418,28.0684617 958.297332,28.0684617 C958.297332,28.0684617 958.297332,28.0684617 958.297332,28.0684617 C958.297332,28.0684617 958.297332,28.0684617 957.760483,28.0684617 C957.760483,28.0684617 957.760483,28.0684617 957.760483,28.0684617 C957.223634,28.0684617 957.223634,27.6891829 956.686785,27.6891829 C956.686785,27.6891829 956.149936,27.6891829 956.149936,27.6891829 C956.149936,27.6891829 956.149936,27.6891829 956.149936,27.6891829 C956.149936,27.6891829 956.149936,27.6891829 955.613088,27.6891829 C955.613088,27.6891829 955.613088,27.6891829 955.613088,27.6891829 C955.613088,27.6891829 955.613088,27.6891829 955.076239,27.6891829 C955.076239,27.6891829 955.076239,27.6891829 955.076239,27.6891829 C955.076239,27.6891829 955.076239,27.6891829 954.53939,27.6891829 C954.53939,27.6891829 954.53939,27.6891829 954.53939,27.6891829 C954.53939,27.6891829 954.002541,27.6891829 954.002541,27.6891829 C954.002541,27.6891829 954.002541,27.6891829 954.002541,27.6891829 C954.002541,27.6891829 953.465693,27.6891829 953.465693,27.6891829 C953.465693,27.6891829 953.465693,27.6891829 953.465693,27.6891829 C953.465693,27.6891829 952.928844,27.6891829 952.928844,27.309904 C952.928844,27.309904 952.928844,27.309904 952.928844,27.309904 C952.928844,27.309904 952.391995,27.309904 952.391995,27.309904 C952.391995,27.309904 952.391995,27.309904 952.391995,27.309904 C952.391995,27.309904 952.391995,27.309904 951.855146,27.309904 C951.855146,27.309904 951.855146,27.309904 951.855146,27.309904 C951.855146,27.309904 951.855146,27.309904 951.318297,27.309904 C951.318297,27.309904 951.318297,27.309904 951.318297,27.309904 C951.318297,27.309904 951.318297,27.309904 950.781449,27.309904 C950.781449,27.309904 950.781449,27.309904 950.781449,27.309904 C950.781449,27.309904 950.2446,27.309904 950.2446,27.309904 C950.2446,27.309904 950.2446,27.309904 950.2446,27.309904 C949.707751,27.309904 949.707751,26.9306252 949.170902,26.9306252 C949.170902,26.9306252 949.170902,26.9306252 949.170902,26.9306252 C949.170902,26.9306252 948.634053,26.9306252 948.634053,26.9306252 C948.634053,26.9306252 948.634053,26.9306252 948.634053,26.9306252 C948.634053,26.9306252 948.634053,26.9306252 948.097205,26.9306252 C948.097205,26.9306252 948.097205,26.9306252 948.097205,26.9306252 C948.097205,26.9306252 948.097205,26.9306252 947.560356,26.9306252 C947.560356,26.9306252 947.560356,26.9306252 947.560356,26.9306252 C947.560356,26.9306252 947.560356,26.9306252 947.023507,26.9306252 C947.023507,26.9306252 947.023507,26.9306252 947.023507,26.9306252 C947.023507,26.9306252 947.023507,26.9306252 946.486658,26.9306252 C946.486658,26.9306252 946.486658,26.9306252 946.486658,26.9306252 C946.486658,26.9306252 945.949809,26.9306252 945.949809,26.9306252 C945.949809,26.9306252 945.949809,26.9306252 945.949809,26.9306252 C945.949809,26.9306252 945.412961,26.9306252 945.412961,26.9306252 C945.412961,26.9306252 945.412961,26.9306252 945.412961,26.9306252 C945.412961,26.9306252 945.412961,26.9306252 944.876112,26.9306252 C944.876112,26.9306252 944.876112,26.9306252 944.876112,26.9306252 C944.876112,26.9306252 944.876112,26.9306252 944.339263,26.9306252 C944.339263,26.9306252 944.339263,26.9306252 944.339263,26.9306252 C944.339263,26.9306252 944.339263,26.9306252 943.802414,26.9306252 C943.802414,26.9306252 943.802414,26.9306252 943.265565,26.9306252 C943.265565,26.9306252 943.265565,26.9306252 942.728717,26.9306252 C942.728717,26.9306252 942.728717,26.9306252 942.728717,26.9306252 C942.728717,26.9306252 942.728717,26.9306252 942.191868,26.9306252 C942.191868,26.9306252 942.191868,26.9306252 942.191868,26.9306252 C942.191868,26.9306252 942.191868,26.9306252 941.655019,26.9306252 C941.655019,26.9306252 941.655019,26.9306252 941.655019,26.9306252 C941.655019,26.9306252 941.11817,26.9306252 941.11817,26.5513463 C941.11817,26.5513463 941.11817,26.5513463 941.11817,26.5513463 C941.11817,26.5513463 940.581321,26.5513463 940.581321,26.5513463 C940.581321,26.5513463 940.581321,26.5513463 940.044473,26.5513463 C940.044473,26.5513463 940.044473,26.5513463 939.507624,26.5513463 C939.507624,26.5513463 939.507624,26.5513463 939.507624,26.5513463 C939.507624,26.5513463 939.507624,26.5513463 939.507624,26.5513463 C939.507624,26.5513463 939.507624,26.5513463 939.507624,26.5513463 C939.507624,26.5513463 939.507624,26.5513463 938.970775,26.5513463 C938.970775,26.5513463 938.970775,26.5513463 938.970775,26.5513463 C938.970775,26.5513463 938.433926,26.5513463 938.433926,26.5513463 C938.433926,26.5513463 938.433926,26.5513463 938.433926,26.5513463 C938.433926,26.5513463 937.897078,26.5513463 937.897078,26.5513463 C937.897078,26.5513463 937.897078,26.5513463 937.897078,26.5513463 C937.897078,26.5513463 937.360229,26.5513463 937.360229,26.5513463 C937.360229,26.5513463 936.82338,26.5513463 936.82338,26.5513463 C936.82338,26.5513463 936.82338,26.5513463 936.82338,26.5513463 C936.82338,26.5513463 936.286531,26.5513463 936.286531,26.5513463 C936.286531,26.5513463 936.286531,26.5513463 936.286531,26.5513463 C936.286531,26.5513463 935.749682,26.5513463 935.749682,26.5513463 C935.749682,26.5513463 935.749682,26.5513463 935.749682,26.5513463 C935.749682,26.5513463 935.749682,26.5513463 935.212834,26.5513463 C935.212834,26.5513463 935.212834,26.5513463 935.212834,26.5513463 C935.212834,26.5513463 934.675985,26.5513463 934.675985,26.5513463 C934.139136,26.5513463 933.602287,26.1720675 933.602287,26.1720675 C933.602287,26.1720675 933.065438,26.1720675 933.065438,26.1720675 C933.065438,26.1720675 933.065438,26.1720675 933.065438,26.1720675 C933.065438,26.1720675 933.065438,26.1720675 932.52859,26.1720675 C932.52859,26.1720675 932.52859,26.1720675 932.52859,26.1720675 C932.52859,26.1720675 932.52859,26.1720675 931.991741,26.1720675 C931.991741,26.1720675 931.991741,26.1720675 931.991741,26.1720675 C931.991741,26.1720675 931.991741,26.1720675 931.454892,26.1720675 C931.454892,26.1720675 931.454892,26.1720675 931.454892,26.1720675 C931.454892,26.1720675 931.454892,26.1720675 930.918043,26.1720675 C930.918043,26.1720675 930.918043,26.1720675 930.918043,26.1720675 C930.918043,26.1720675 930.918043,26.1720675 930.381194,26.1720675 C930.381194,26.1720675 929.844346,26.1720675 929.844346,25.7927886 C929.844346,25.7927886 929.307497,25.7927886 929.307497,25.7927886 C929.307497,25.7927886 929.307497,25.7927886 929.307497,25.7927886 C929.307497,25.7927886 929.307497,25.7927886 928.770648,25.7927886 C928.770648,25.7927886 928.770648,25.7927886 928.770648,25.7927886 C928.770648,25.7927886 928.770648,25.7927886 928.233799,25.7927886 C928.233799,25.7927886 928.233799,25.7927886 928.233799,25.7927886 C928.233799,25.7927886 928.233799,25.7927886 927.69695,25.7927886 C927.69695,25.7927886 927.69695,25.7927886 927.69695,25.7927886 C927.69695,25.7927886 927.69695,25.7927886 927.160102,25.7927886 C927.160102,25.7927886 927.160102,25.7927886 927.160102,25.7927886 C927.160102,25.7927886 926.623253,25.7927886 926.623253,25.7927886 C926.623253,25.7927886 926.623253,25.7927886 926.623253,25.7927886 C926.086404,25.7927886 926.086404,25.4135097 925.549555,25.4135097 C925.549555,25.4135097 925.549555,25.4135097 925.549555,25.4135097 C925.549555,25.4135097 925.012706,25.4135097 925.012706,25.4135097 C925.012706,25.4135097 925.012706,25.4135097 925.012706,25.4135097 C925.012706,25.4135097 924.475858,25.4135097 924.475858,25.4135097 C924.475858,25.4135097 924.475858,25.4135097 924.475858,25.4135097 C924.475858,25.4135097 924.475858,25.4135097 923.939009,25.4135097 C923.939009,25.4135097 923.939009,25.4135097 923.939009,25.4135097 C923.939009,25.4135097 923.939009,25.4135097 923.40216,25.4135097 C923.40216,25.4135097 922.865311,25.4135097 922.865311,25.4135097 C922.865311,25.4135097 922.865311,25.4135097 922.865311,25.4135097 C922.328463,25.4135097 921.791614,25.0342309 921.791614,25.0342309 C921.791614,25.0342309 921.254765,25.0342309 921.254765,25.0342309 C921.254765,25.0342309 921.254765,25.0342309 921.254765,25.0342309 C921.254765,25.0342309 920.717916,25.0342309 920.717916,25.0342309 C920.717916,25.0342309 920.717916,25.0342309 920.717916,25.0342309 C920.717916,25.0342309 920.181067,25.0342309 920.181067,25.0342309 C920.181067,25.0342309 920.181067,25.0342309 920.181067,25.0342309 C920.181067,25.0342309 919.644219,25.0342309 919.644219,25.0342309 C919.10737,24.654952 918.033672,24.654952 917.496823,24.2756732 C917.496823,24.2756732 917.496823,24.2756732 917.496823,24.2756732 C917.496823,24.2756732 916.959975,24.2756732 916.959975,24.2756732 C916.959975,24.2756732 916.959975,24.2756732 916.959975,24.2756732 C916.959975,24.2756732 916.423126,24.2756732 916.423126,24.2756732 C916.423126,24.2756732 916.423126,24.2756732 916.423126,24.2756732 C915.886277,23.8963943 914.812579,23.8963943 914.275731,23.5171154 C913.738882,23.5171154 913.202033,23.1378366 913.202033,23.1378366 C912.128335,22.7585577 910.517789,22.3792789 909.444091,22 L750,617.467809 C756.979034,619.364203 764.494917,622.019155 770.937103,625.811944 L1059.2249,80.7882232 C1035.06671,50.4459145 1021.10864,43.618895 1007.15057,37.1711544 Z M1290.75963,273.387372 C1289.68252,272.251676 1289.14397,271.494545 1288.60542,271.115979 C1286.98976,269.601718 1286.45121,268.844587 1285.91266,268.466021 C1285.37411,267.330325 1285.37411,266.951759 1284.83556,266.951759 C1283.75845,266.194628 1283.75845,265.816063 1283.75845,265.816063 C1283.75845,264.680366 1283.75845,264.301801 1283.2199,264.301801 C1282.1428,263.54467 1282.1428,263.166104 1282.1428,263.166104 C1282.1428,262.030408 1282.1428,262.030408 1282.1428,261.651842 C1282.1428,260.516146 1281.60424,260.516146 1281.60424,260.137581 C1281.60424,259.001884 1281.60424,258.623319 1281.60424,258.623319 C1281.06569,258.244753 1281.06569,257.866188 1280.52714,257.487622 C1279.98859,256.351926 1279.98859,255.97336 1279.45003,255.97336 C1278.91148,255.216229 1278.37293,254.459098 1277.83438,254.080533 C1252.52243,224.930991 1225.59482,198.431407 1197.05156,173.824651 L790.444727,639.460194 C796.3688,644.76011 802.292873,650.438593 807.139842,656.874206 L1303.68488,289.287123 C1299.37646,283.987206 1295.06805,278.687289 1290.75963,273.387372 Z M1430.52805,569.004789 C1430.52805,569.004789 1430.52805,568.624768 1430.52805,568.624768 C1430.52805,568.624768 1430.52805,568.244746 1430.52805,568.244746 C1430.52805,568.244746 1430.52805,568.244746 1430.52805,568.244746 C1430.52805,568.244746 1430.52805,567.864725 1430.52805,567.864725 C1430.52805,567.864725 1430.52805,567.864725 1430.52805,567.484703 C1430.52805,567.484703 1430.52805,567.104682 1430.52805,567.104682 C1430.52805,566.72466 1430.52805,566.72466 1430.52805,566.344639 C1430.52805,566.344639 1430.52805,566.344639 1430.52805,566.344639 C1430.52805,566.344639 1430.52805,566.344639 1430.52805,565.964617 C1430.52805,565.964617 1430.52805,565.584596 1430.52805,565.584596 C1430.52805,565.584596 1430.52805,565.584596 1430.52805,565.204574 C1430.52805,565.204574 1430.52805,564.824553 1430.52805,564.824553 C1430.52805,564.824553 1430.52805,564.824553 1430.52805,564.444531 C1430.52805,564.444531 1430.52805,564.06451 1430.52805,564.06451 C1430.52805,564.06451 1430.52805,564.06451 1430.52805,563.684488 C1430.52805,563.684488 1430.52805,563.304467 1430.52805,563.304467 C1430.52805,563.304467 1430.52805,563.304467 1430.52805,563.304467 C1430.52805,563.304467 1430.52805,562.924445 1430.52805,562.924445 C1430.52805,562.924445 1430.52805,562.924445 1430.52805,562.924445 C1430.52805,562.164402 1429.9898,561.404359 1429.9898,560.644316 C1429.9898,560.644316 1429.9898,560.644316 1429.9898,560.644316 C1429.9898,560.264295 1429.9898,560.264295 1429.9898,559.884273 C1429.9898,559.504252 1429.9898,559.504252 1429.9898,559.12423 C1425.68377,540.503177 1420.83949,521.882123 1414.91871,503.641091 C1414.91871,502.881048 1414.38045,502.121005 1414.38045,501.360962 C1414.38045,501.360962 1414.38045,500.98094 1414.38045,500.98094 C1414.38045,500.98094 1414.38045,500.98094 1414.38045,500.98094 C1414.38045,500.98094 1414.38045,500.600919 1414.38045,500.600919 C1414.38045,500.600919 1414.38045,500.600919 1414.38045,500.600919 C1414.38045,500.600919 1414.38045,500.220897 1414.38045,500.220897 C1414.38045,500.220897 1414.38045,500.220897 1414.38045,500.220897 C1414.38045,500.220897 1414.38045,499.840876 1414.38045,499.840876 C1414.38045,499.840876 1414.38045,499.840876 1414.38045,499.840876 C1414.38045,499.840876 1414.38045,499.460854 1414.38045,499.460854 C1414.38045,499.460854 1414.38045,499.460854 1414.38045,499.460854 C1414.38045,499.080833 1413.8422,498.32079 1413.8422,497.560747 C1413.8422,497.560747 1413.8422,497.560747 1413.8422,497.560747 C1413.8422,497.560747 1413.8422,497.180725 1413.8422,497.180725 C1413.8422,497.180725 1413.8422,497.180725 1413.8422,497.180725 C1413.8422,497.180725 1413.8422,496.800704 1413.8422,496.800704 C1413.8422,496.800704 1413.8422,496.800704 1413.8422,496.800704 C1413.8422,496.800704 1413.8422,496.420682 1413.8422,496.420682 C1413.8422,496.420682 1413.8422,496.420682 1413.8422,496.420682 C1413.8422,496.420682 1413.8422,496.040661 1413.8422,496.040661 C1413.8422,496.040661 1413.8422,496.040661 1413.8422,496.040661 C1413.8422,496.040661 1413.8422,495.660639 1413.8422,495.660639 C1413.8422,495.280618 1413.8422,495.280618 1413.8422,494.900596 C1413.8422,494.900596 1413.8422,494.900596 1413.8422,494.900596 C1413.8422,494.900596 1413.8422,494.520575 1413.8422,494.520575 C1413.8422,494.520575 1413.8422,494.520575 1413.8422,494.520575 C1413.8422,494.520575 1413.8422,494.140553 1413.8422,494.140553 C1413.8422,494.140553 1413.8422,494.140553 1413.8422,493.760532 C1413.8422,493.760532 1413.8422,493.38051 1413.8422,493.38051 C1413.8422,493.38051 1413.8422,493.38051 1413.8422,493.000489 C1413.8422,493.000489 1413.8422,492.620467 1413.8422,492.620467 C1413.8422,492.620467 1413.8422,492.620467 1413.8422,492.240446 C1413.8422,492.240446 1413.8422,491.860424 1413.8422,491.860424 C1413.8422,491.860424 1413.8422,491.860424 1413.8422,491.480403 C1413.8422,491.480403 1413.8422,491.100381 1413.8422,491.100381 C1413.8422,491.100381 1413.8422,491.100381 1413.8422,491.100381 C1413.8422,491.100381 1413.8422,490.72036 1413.8422,490.72036 C1413.8422,490.72036 1413.8422,490.340338 1413.8422,490.340338 C1413.8422,490.340338 1413.8422,489.960317 1413.8422,489.960317 C1413.8422,489.960317 1413.8422,489.960317 1413.8422,489.580295 C1413.8422,489.580295 1413.8422,489.580295 1413.8422,489.200274 C1413.8422,489.200274 1413.8422,488.820252 1413.8422,488.820252 C1413.8422,488.820252 1413.8422,488.820252 1413.8422,488.440231 C1413.8422,488.440231 1413.8422,488.440231 1413.8422,488.060209 C1413.8422,488.060209 1413.8422,488.060209 1413.8422,487.680188 C1413.8422,487.680188 1413.8422,487.300166 1413.8422,487.300166 C1413.8422,487.300166 1413.8422,487.300166 1413.8422,486.920145 C1413.8422,486.920145 1413.8422,486.540123 1413.8422,486.540123 C1413.8422,486.540123 1413.8422,486.540123 1413.8422,486.160102 C1413.8422,486.160102 1413.8422,485.78008 1413.8422,485.78008 C1413.8422,485.78008 1413.8422,485.78008 1413.8422,485.78008 C1413.8422,485.400059 1413.30395,484.640016 1413.30395,484.259994 C1413.30395,484.259994 1413.30395,483.879973 1413.30395,483.879973 C1413.30395,483.879973 1413.30395,483.879973 1413.30395,483.879973 C1413.30395,483.879973 1413.30395,483.499951 1413.30395,483.499951 C1413.30395,483.499951 1413.30395,483.499951 1413.30395,483.499951 C1413.30395,483.499951 1413.30395,483.11993 1413.30395,483.11993 C1413.30395,483.11993 1413.30395,483.11993 1413.30395,483.11993 C1413.30395,483.11993 1413.30395,482.739908 1413.30395,482.739908 C1413.30395,482.739908 1413.30395,482.739908 1413.30395,482.739908 C1413.30395,482.739908 1413.30395,482.359887 1413.30395,482.359887 C1413.30395,482.359887 1413.30395,482.359887 1413.30395,482.359887 C1413.30395,481.599844 1412.76569,481.219822 1412.76569,480.459779 C1412.76569,480.459779 1412.76569,480.459779 1412.76569,480.459779 C1412.76569,480.459779 1412.76569,480.079758 1412.76569,480.079758 C1412.76569,480.079758 1412.76569,480.079758 1412.76569,480.079758 C1412.76569,480.079758 1412.76569,479.699736 1412.76569,479.699736 C1412.76569,479.699736 1412.76569,479.699736 1412.76569,479.699736 C1412.76569,479.699736 1412.76569,479.319715 1412.76569,479.319715 C1412.76569,479.319715 1412.76569,479.319715 1412.76569,479.319715 C1412.76569,479.319715 1412.76569,478.939693 1412.76569,478.939693 C1412.76569,478.939693 1412.76569,478.939693 1412.76569,478.939693 C1412.22744,477.799629 1412.22744,477.039586 1411.68919,475.899521 C1411.68919,475.899521 1411.68919,475.899521 1411.68919,475.899521 C1411.68919,475.899521 1411.68919,475.5195 1411.68919,475.5195 C1411.68919,475.5195 1411.68919,475.5195 1411.68919,475.5195 C1411.68919,475.5195 1411.68919,475.139478 1411.68919,475.139478 C1411.68919,475.139478 1411.68919,475.139478 1411.68919,475.139478 C1409.53617,469.439156 1407.38316,464.118854 1405.23015,458.798553 C1404.69189,457.278467 1404.15364,456.138403 1403.61539,454.618317 C1403.61539,454.618317 1403.61539,454.238295 1403.61539,454.238295 C1403.07713,453.098231 1402.53888,451.958166 1402.00063,450.818102 C1402.00063,450.818102 1402.00063,450.818102 1402.00063,450.818102 C1402.00063,450.818102 1402.00063,450.43808 1402.00063,450.43808 C1402.00063,450.43808 1402.00063,450.058059 1402.00063,450.058059 C1401.46237,448.917994 1401.46237,448.157951 1400.92412,447.017887 C1400.92412,447.017887 1400.92412,447.017887 1400.92412,446.637865 C1400.92412,446.637865 1400.92412,446.257844 1400.92412,446.257844 C1400.92412,446.257844 1400.92412,446.257844 1400.92412,446.257844 C1400.92412,446.257844 1400.92412,445.877822 1400.92412,445.877822 C1400.92412,445.877822 1400.92412,445.877822 1400.92412,445.497801 C1400.92412,445.497801 1400.92412,445.117779 1400.92412,445.117779 C1400.92412,445.117779 1400.92412,445.117779 1400.92412,444.737758 C1400.92412,444.737758 1400.92412,444.357736 1400.92412,444.357736 C1400.92412,444.357736 1400.92412,444.357736 1400.92412,443.977715 C1400.92412,443.977715 1400.92412,443.597693 1400.92412,443.597693 C1400.92412,443.597693 1400.92412,443.597693 1400.92412,443.217672 C1400.92412,443.217672 1400.92412,443.217672 1400.92412,442.83765 C1400.92412,442.83765 1400.92412,442.457629 1400.92412,442.457629 C1400.92412,442.457629 1400.92412,442.457629 1400.92412,442.457629 C1400.92412,442.457629 1400.92412,442.077607 1400.92412,442.077607 C1400.92412,442.077607 1400.92412,442.077607 1400.92412,442.077607 C1400.92412,442.077607 1400.92412,441.697586 1400.92412,441.697586 C1400.92412,441.697586 1400.92412,441.697586 1400.92412,441.697586 C1400.92412,441.697586 1400.92412,441.317564 1400.92412,441.317564 C1400.92412,441.317564 1400.92412,441.317564 1400.92412,440.937543 C1400.92412,440.937543 1400.92412,440.557521 1400.92412,440.557521 C1400.92412,440.557521 1400.92412,440.557521 1400.92412,440.1775 C1400.92412,440.1775 1400.92412,439.797478 1400.92412,439.797478 C1400.92412,439.797478 1400.92412,439.797478 1400.92412,439.797478 C1400.92412,439.797478 1400.92412,439.417457 1400.92412,439.417457 C1400.92412,439.037435 1400.38587,438.277392 1400.38587,437.897371 C1400.38587,437.897371 1400.38587,437.897371 1400.38587,437.897371 C1400.38587,437.897371 1400.38587,437.517349 1400.38587,437.517349 C1400.38587,437.517349 1400.38587,437.137328 1400.38587,437.137328 C1400.38587,437.137328 1400.38587,437.137328 1400.38587,437.137328 C1400.38587,437.137328 1400.38587,436.757306 1400.38587,436.757306 C1399.84761,434.857199 1398.77111,433.337113 1398.23285,431.817027 L832.52859,682.251197 C835.75811,689.091584 837.911123,696.311993 838.98763,703.532402 L1432.68107,581.165477 C1432.14281,577.365262 1431.06631,573.185026 1430.52805,569.004789 Z M825.703877,722.7446 C825.703877,730.677378 824.62427,738.610157 822.465057,745.787433 L1423.8059,898.398983 C1424.88551,893.488216 1425.96511,888.955199 1427.58452,884.044432 C1427.58452,883.66668 1427.58452,883.288929 1428.12433,882.911178 C1428.12433,882.533426 1428.12433,882.533426 1428.12433,882.155675 C1428.12433,882.155675 1428.12433,881.777924 1428.12433,881.400172 C1428.12433,880.644669 1428.66413,879.889167 1428.66413,879.133664 C1428.66413,879.133664 1428.66413,879.133664 1428.66413,879.133664 C1428.66413,879.133664 1428.66413,878.755913 1428.66413,878.755913 C1428.66413,878.755913 1428.66413,878.755913 1428.66413,878.755913 C1428.66413,878.755913 1428.66413,878.378161 1428.66413,878.378161 C1428.66413,878.378161 1428.66413,878.378161 1428.66413,878.378161 C1428.66413,878.378161 1428.66413,878.00041 1428.66413,878.00041 C1428.66413,878.00041 1428.66413,878.00041 1428.66413,878.00041 C1428.66413,878.00041 1428.66413,877.622659 1428.66413,877.622659 C1428.66413,877.622659 1428.66413,877.622659 1428.66413,877.244907 C1428.66413,877.244907 1428.66413,876.867156 1428.66413,876.867156 C1428.66413,876.867156 1428.66413,876.867156 1428.66413,876.867156 C1428.66413,876.867156 1428.66413,876.489404 1428.66413,876.489404 C1428.66413,876.489404 1428.66413,876.489404 1428.66413,876.489404 C1428.66413,876.489404 1428.66413,876.111653 1428.66413,876.111653 C1428.66413,876.111653 1428.66413,876.111653 1428.66413,876.111653 C1428.66413,876.111653 1428.66413,875.733902 1428.66413,875.733902 C1428.66413,875.733902 1428.66413,875.35615 1428.66413,875.35615 C1428.66413,875.35615 1428.66413,875.35615 1428.66413,874.978399 C1428.66413,874.978399 1428.66413,874.600648 1428.66413,874.600648 C1428.66413,874.600648 1428.66413,874.222896 1428.66413,874.222896 C1428.66413,874.222896 1428.66413,873.845145 1428.66413,873.845145 C1428.66413,873.845145 1428.66413,873.845145 1428.66413,873.467394 C1428.66413,873.467394 1428.66413,873.089642 1428.66413,873.089642 C1428.66413,873.089642 1428.66413,873.089642 1428.66413,872.711891 C1428.66413,872.711891 1428.66413,872.334139 1428.66413,872.334139 C1428.66413,872.334139 1428.66413,872.334139 1428.66413,871.956388 C1428.66413,871.956388 1428.66413,871.578637 1428.66413,871.578637 C1428.66413,871.578637 1428.66413,871.578637 1428.66413,871.200885 C1428.66413,871.200885 1428.66413,870.823134 1428.66413,870.823134 C1428.66413,870.823134 1428.66413,870.823134 1428.66413,870.445383 C1428.66413,870.445383 1428.66413,870.067631 1428.66413,870.067631 C1428.66413,870.067631 1428.66413,870.067631 1428.66413,870.067631 C1428.66413,869.312129 1429.20393,868.556626 1429.20393,868.178874 C1429.20393,868.178874 1429.20393,868.178874 1429.20393,868.178874 C1429.20393,868.178874 1429.20393,867.801123 1429.20393,867.801123 C1429.20393,867.801123 1429.20393,867.801123 1429.20393,867.801123 C1429.20393,867.801123 1429.20393,867.423372 1429.20393,867.423372 C1429.20393,867.423372 1429.20393,867.04562 1429.20393,867.04562 C1429.20393,867.04562 1429.20393,867.04562 1429.20393,866.667869 C1429.20393,866.667869 1429.20393,866.290118 1429.20393,866.290118 C1429.20393,866.290118 1429.20393,866.290118 1429.20393,865.912366 C1429.20393,865.912366 1429.20393,865.534615 1429.20393,865.534615 C1429.20393,865.534615 1429.20393,865.534615 1429.20393,865.534615 C1429.20393,865.534615 1429.20393,865.156864 1429.20393,865.156864 C1429.20393,865.156864 1429.20393,865.156864 1429.20393,865.156864 C1429.20393,865.156864 1429.20393,864.779112 1429.20393,864.779112 C1429.20393,864.023609 1429.20393,863.645858 1429.74374,862.890355 C1429.74374,862.890355 1429.74374,862.890355 1429.74374,862.890355 C1429.74374,862.890355 1429.74374,862.512604 1429.74374,862.512604 C1429.74374,862.512604 1429.74374,862.512604 1429.74374,862.512604 C1429.74374,862.512604 1429.74374,862.134853 1429.74374,862.134853 C1429.74374,862.134853 1429.74374,861.757101 1429.74374,861.757101 C1429.74374,861.757101 1429.74374,861.757101 1429.74374,861.757101 C1429.74374,861.757101 1429.74374,861.37935 1429.74374,861.37935 C1429.74374,861.37935 1429.74374,861.37935 1429.74374,861.37935 C1429.74374,861.37935 1429.74374,861.001599 1429.74374,861.001599 C1429.74374,861.001599 1429.74374,861.001599 1429.74374,861.001599 C1429.74374,861.001599 1429.74374,860.623847 1429.74374,860.623847 C1429.74374,859.868344 1430.28354,859.112842 1430.28354,858.357339 C1430.28354,858.357339 1430.28354,857.979588 1430.28354,857.979588 C1430.28354,857.979588 1430.28354,857.979588 1430.28354,857.979588 C1430.28354,857.979588 1430.28354,857.601836 1430.28354,857.601836 C1430.28354,857.601836 1430.28354,857.601836 1430.28354,857.601836 C1430.28354,857.601836 1430.28354,857.224085 1430.28354,857.224085 C1430.28354,857.224085 1430.28354,857.224085 1430.28354,857.224085 C1430.28354,857.224085 1430.28354,856.846334 1430.28354,856.846334 C1430.28354,856.846334 1430.28354,856.846334 1430.28354,856.846334 C1430.28354,856.846334 1430.28354,856.468582 1430.28354,856.468582 C1430.28354,856.468582 1430.28354,856.468582 1430.28354,856.468582 C1430.28354,856.468582 1430.28354,856.090831 1430.28354,856.090831 C1430.28354,856.090831 1430.28354,856.090831 1430.28354,856.090831 C1430.28354,855.335328 1430.28354,854.579825 1430.82334,854.202074 C1430.82334,854.202074 1430.82334,854.202074 1430.82334,854.202074 C1430.82334,854.202074 1430.82334,853.824323 1430.82334,853.824323 C1430.82334,853.824323 1430.82334,853.446571 1430.82334,853.446571 C1430.82334,853.446571 1430.82334,853.446571 1430.82334,853.446571 C1430.82334,853.446571 1430.82334,853.06882 1430.82334,853.06882 C1430.82334,853.06882 1430.82334,853.06882 1430.82334,853.06882 C1430.82334,853.06882 1430.82334,852.691069 1430.82334,852.691069 C1430.82334,852.691069 1430.82334,852.691069 1430.82334,852.313317 C1430.82334,852.313317 1430.82334,851.935566 1430.82334,851.935566 C1430.82334,851.935566 1430.82334,851.935566 1430.82334,851.935566 C1430.82334,851.935566 1430.82334,851.557814 1430.82334,851.557814 C1430.82334,851.557814 1430.82334,851.557814 1430.82334,851.557814 C1430.82334,851.557814 1430.82334,851.180063 1430.82334,851.180063 C1430.82334,851.180063 1430.82334,851.180063 1430.82334,850.802312 C1430.82334,850.802312 1430.82334,850.42456 1430.82334,850.42456 C1430.82334,850.42456 1430.82334,850.42456 1430.82334,850.42456 C1430.82334,850.046809 1430.82334,850.046809 1430.82334,849.669058 C1430.82334,849.669058 1430.82334,849.669058 1430.82334,849.669058 C1430.82334,849.669058 1430.82334,849.291306 1430.82334,849.291306 C1430.82334,849.291306 1430.82334,849.291306 1430.82334,848.913555 C1430.82334,848.913555 1430.82334,848.535804 1430.82334,848.535804 C1430.82334,848.535804 1430.82334,848.535804 1430.82334,848.158052 L1430.82334,847.780301 C1430.82334,847.780301 1430.82334,847.402549 1430.82334,847.402549 L1430.82334,847.024798 C1430.82334,847.024798 1430.82334,846.647047 1430.82334,846.647047 C1430.82334,846.647047 1430.82334,846.269295 1430.82334,846.269295 C1430.82334,846.269295 1430.82334,845.891544 1430.82334,845.891544 C1430.82334,845.891544 1430.82334,845.891544 1430.82334,845.513793 C1430.82334,845.513793 1430.82334,845.136041 1430.82334,845.136041 C1430.82334,845.136041 1430.82334,844.75829 1430.82334,844.75829 C1430.82334,844.75829 1430.82334,844.75829 1430.82334,844.380539 C1430.82334,844.380539 1430.82334,844.002787 1430.82334,844.002787 C1430.82334,844.002787 1430.82334,843.625036 1430.82334,843.625036 C1430.82334,843.625036 1430.82334,843.247285 1430.82334,843.247285 C1430.82334,843.247285 1430.82334,842.869533 1430.82334,842.869533 C1430.82334,842.869533 1430.82334,842.869533 1430.82334,842.869533 C1430.82334,842.869533 1430.82334,842.491782 1430.82334,842.491782 L1430.82334,842.11403 C1430.82334,842.11403 1430.82334,841.736279 1430.82334,841.736279 C1430.82334,841.736279 1430.82334,841.736279 1430.82334,841.358528 C1430.82334,841.358528 1430.82334,840.980776 1430.82334,840.980776 C1430.82334,840.980776 1430.82334,840.980776 1430.82334,840.980776 C1430.82334,840.980776 1430.82334,840.603025 1430.82334,840.603025 C1430.82334,840.603025 1430.82334,840.603025 1430.82334,840.603025 C1430.82334,840.603025 1430.82334,840.225274 1430.82334,840.225274 C1430.82334,840.225274 1430.82334,839.847522 1430.82334,839.847522 C1430.82334,839.847522 1430.82334,839.847522 1430.82334,839.847522 C1430.82334,839.469771 1430.82334,839.469771 1430.82334,839.09202 C1430.82334,838.336517 1430.82334,837.581014 1431.36315,836.825511 C1431.36315,836.825511 1431.36315,836.825511 1431.36315,836.825511 C1431.36315,836.825511 1431.36315,836.44776 1431.36315,836.070009 C1431.36315,835.692257 1431.36315,835.692257 1431.36315,835.314506 C1436.22138,805.472148 1438.92039,774.874288 1440,743.898676 L825.703877,722.7446 Z M815.287417,768.487929 C811.510501,775.309361 807.194026,781.751825 802.337992,787.81532 L1277.68978,1183.83736 C1278.76889,1182.32148 1280.38757,1180.80561 1281.46669,1179.28974 C1281.46669,1179.28974 1281.46669,1179.28974 1281.46669,1179.28974 C1281.46669,1179.28974 1281.46669,1179.28974 1281.46669,1178.91077 C1281.46669,1178.91077 1281.46669,1178.91077 1281.46669,1178.91077 C1281.46669,1178.91077 1281.46669,1178.91077 1281.46669,1178.5318 C1281.46669,1178.5318 1281.46669,1178.5318 1281.46669,1178.5318 C1281.46669,1178.5318 1281.46669,1178.15283 1281.46669,1178.15283 C1281.46669,1178.15283 1281.46669,1178.15283 1281.46669,1177.77386 C1281.46669,1177.77386 1281.46669,1177.77386 1281.46669,1177.39489 C1281.46669,1177.39489 1281.46669,1177.39489 1281.46669,1177.01592 C1281.46669,1177.01592 1281.46669,1177.01592 1281.46669,1176.63696 C1281.46669,1176.63696 1281.46669,1176.63696 1281.46669,1176.25799 C1281.46669,1176.25799 1281.46669,1176.25799 1281.46669,1175.87902 C1281.46669,1175.87902 1281.46669,1175.50005 1282.00625,1175.50005 C1282.00625,1175.50005 1282.00625,1175.50005 1282.00625,1175.50005 C1282.00625,1175.50005 1282.00625,1175.12108 1282.00625,1175.12108 C1282.00625,1175.12108 1282.00625,1175.12108 1282.00625,1175.12108 C1282.00625,1175.12108 1282.00625,1174.74211 1282.00625,1174.74211 C1282.00625,1174.74211 1282.00625,1174.74211 1282.00625,1174.74211 C1282.00625,1174.74211 1282.00625,1174.36315 1282.00625,1174.36315 C1282.00625,1174.36315 1282.00625,1174.36315 1282.00625,1174.36315 C1282.00625,1174.36315 1282.00625,1173.98418 1282.54581,1173.98418 C1282.54581,1173.98418 1282.54581,1173.98418 1282.54581,1173.98418 C1301.43039,1150.8671 1319.23585,1126.23415 1335.42263,1100.4643 C1335.42263,1100.4643 1335.42263,1100.4643 1335.42263,1100.4643 C1335.42263,1100.4643 1335.42263,1100.08533 1335.42263,1100.08533 C1335.42263,1100.08533 1335.42263,1100.08533 1335.42263,1100.08533 C1335.42263,1100.08533 1335.42263,1099.70636 1335.42263,1099.70636 C1335.42263,1099.70636 1335.42263,1099.70636 1335.42263,1099.70636 C1335.42263,1099.70636 1335.42263,1099.32739 1335.42263,1099.32739 C1335.42263,1099.32739 1335.42263,1098.94842 1335.96218,1098.94842 C1335.96218,1098.94842 1335.96218,1098.56945 1336.50174,1098.56945 C1336.50174,1098.56945 1336.50174,1098.19049 1336.50174,1098.19049 C1336.50174,1098.19049 1336.50174,1098.19049 1336.50174,1097.81152 C1336.50174,1097.81152 1336.50174,1097.43255 1336.50174,1097.43255 C1336.50174,1097.43255 1336.50174,1097.43255 1336.50174,1097.05358 C1336.50174,1097.05358 1336.50174,1097.05358 1336.50174,1096.67461 C1336.50174,1096.67461 1336.50174,1096.67461 1336.50174,1096.29564 C1336.50174,1096.29564 1336.50174,1096.29564 1336.50174,1095.91668 C1336.50174,1095.91668 1336.50174,1095.91668 1336.50174,1095.53771 C1336.50174,1095.53771 1336.50174,1095.53771 1336.50174,1095.53771 C1336.50174,1095.15874 1337.0413,1094.77977 1337.0413,1094.4008 C1337.0413,1094.4008 1337.0413,1094.02183 1337.0413,1094.02183 C1337.0413,1094.02183 1337.0413,1094.02183 1337.0413,1094.02183 C1337.0413,1094.02183 1337.0413,1093.64286 1337.0413,1093.64286 C1337.0413,1093.64286 1337.0413,1093.64286 1337.0413,1093.64286 C1345.67425,1079.62103 1353.76764,1065.22023 1361.32147,1050.44046 L815.287417,768.487929 Z M786.561848,804.167726 C780.10661,809.090435 773.651371,812.877134 766.658196,816.285164 L1022.716,1375.95934 C1072.20616,1353.61781 1118.4687,1325.97491 1160.96569,1293.78796 L786.561848,804.167726 Z M743.931797,822.465057 C736.980666,823.98048 729.494832,824.738192 722.008998,824.738192 L719.870188,824.738192 L708.106734,1440 C710.245544,1440 711.849651,1440 713.988461,1440 L715.592568,1440 C715.592568,1440 715.592568,1440 716.127271,1440 L723.078402,1440 C723.078402,1440 723.078402,1440 723.078402,1440 L727.890724,1440 C727.890724,1440 727.890724,1440 728.425427,1440 L728.960129,1440 C728.960129,1440 728.960129,1440 728.960129,1440 L732.168344,1440 C732.168344,1440 732.168344,1440 732.168344,1440 C732.168344,1440 732.703046,1440 732.703046,1440 L733.772451,1440 C733.772451,1440 733.772451,1440 733.772451,1440 L735.376558,1440 L735.911261,1440 C735.911261,1440 735.911261,1440 735.911261,1440 L736.445963,1440 C736.445963,1440 736.445963,1440 736.445963,1440 L736.980666,1440 C736.980666,1440 736.980666,1440 736.980666,1440 L737.515368,1440 C737.515368,1440 737.515368,1440 737.515368,1440 C737.515368,1440 738.05007,1440 738.05007,1440 L739.654178,1440 C739.654178,1440 739.654178,1440 739.654178,1440 C739.654178,1440 740.18888,1440 740.18888,1440 C740.18888,1440 740.18888,1440 740.18888,1440 L740.723583,1440 C740.723583,1440 740.723583,1440 740.723583,1440 C741.258285,1440 741.792987,1440 742.32769,1440 L742.862392,1440 C742.862392,1440 743.397095,1440 743.397095,1440 C777.083348,1438.86343 810.234898,1435.45373 842.317044,1430.14975 C842.317044,1430.14975 842.851746,1430.14975 842.851746,1430.14975 C843.386449,1430.14975 843.386449,1430.14975 843.921151,1430.14975 L844.455854,1430.14975 C851.941688,1429.01318 859.427522,1427.49776 866.378653,1425.98234 L743.931797,822.465057 Z M673.425873,813.316391 L396.13723,1362.95951 C399.898898,1364.85352 403.660565,1366.74754 407.422233,1368.26275 C407.422233,1368.26275 407.959614,1368.26275 407.959614,1368.64155 C407.959614,1368.64155 407.959614,1368.64155 407.959614,1368.64155 C407.959614,1368.64155 408.496995,1368.64155 408.496995,1368.64155 C408.496995,1368.64155 408.496995,1368.64155 408.496995,1368.64155 C408.496995,1368.64155 408.496995,1368.64155 409.034376,1368.64155 C409.034376,1368.64155 409.034376,1368.64155 409.034376,1368.64155 C409.034376,1368.64155 409.571757,1368.64155 409.571757,1368.64155 C409.571757,1368.64155 409.571757,1368.64155 409.571757,1368.64155 C409.571757,1368.64155 409.571757,1368.64155 410.109138,1368.64155 C410.109138,1368.64155 410.109138,1368.64155 410.646519,1369.02036 C410.646519,1369.02036 410.646519,1369.02036 411.183901,1369.02036 C411.183901,1369.02036 411.183901,1369.02036 411.183901,1369.02036 C411.183901,1369.02036 411.183901,1369.02036 411.183901,1369.02036 C411.183901,1369.02036 411.183901,1369.02036 411.183901,1369.02036 C411.183901,1369.02036 411.183901,1369.02036 411.183901,1369.02036 C411.183901,1369.02036 411.183901,1369.02036 411.721282,1369.02036 C411.721282,1369.02036 411.721282,1369.02036 411.721282,1369.02036 C411.721282,1369.02036 411.721282,1369.02036 412.258663,1369.39916 C412.258663,1369.39916 412.258663,1369.39916 412.796044,1369.77796 C412.796044,1369.77796 412.796044,1369.77796 412.796044,1369.77796 C455.24915,1389.85452 499.851781,1405.76425 546.603936,1417.12834 L694.383736,819.756042 C687.397782,819.377239 680.411827,816.725618 673.425873,813.316391 Z M637.821623,783.125794 L149.123253,1160.51565 C181.954311,1202.95307 219.629295,1241.22252 261.609992,1275.32402 L655.044473,800.176541 C648.04769,795.25077 642.665549,789.567187 637.821623,783.125794 Z M619.124404,743.786531 L12.8081321,872.893389 C22.5091925,916.684019 35.9828874,958.964627 53.2292169,998.980202 C53.2292169,998.980202 53.2292169,998.980202 53.2292169,998.980202 C53.2292169,998.980202 53.2292169,999.357708 53.2292169,999.357708 C53.2292169,999.357708 53.2292169,999.357708 53.2292169,999.357708 C53.2292169,999.357708 53.2292169,999.735213 53.2292169,999.735213 C53.2292169,999.735213 53.2292169,999.735213 53.2292169,1000.11272 C53.2292169,1000.11272 53.2292169,1000.11272 53.2292169,1000.49022 C53.2292169,1000.49022 53.2292169,1000.49022 53.2292169,1000.86773 L53.2292169,1001.24524 C53.2292169,1001.24524 53.2292169,1001.24524 53.2292169,1001.62274 C53.2292169,1002.00025 53.7681647,1002.37775 53.7681647,1002.75526 C53.7681647,1002.75526 53.7681647,1002.75526 53.7681647,1002.75526 C53.7681647,1002.75526 53.7681647,1003.13276 53.7681647,1003.13276 C53.7681647,1003.13276 53.7681647,1003.13276 53.7681647,1003.51027 C53.7681647,1003.51027 53.7681647,1003.51027 53.7681647,1003.88777 C53.7681647,1003.88777 53.7681647,1003.88777 53.7681647,1004.26528 C53.7681647,1004.26528 53.7681647,1004.26528 53.7681647,1004.64278 C53.7681647,1004.64278 53.7681647,1004.64278 53.7681647,1005.02029 C53.7681647,1005.02029 53.7681647,1005.39779 53.7681647,1005.39779 C53.7681647,1005.39779 53.7681647,1005.39779 53.7681647,1005.7753 C53.7681647,1005.7753 53.7681647,1005.7753 53.7681647,1006.15281 C53.7681647,1006.15281 53.7681647,1006.53031 53.7681647,1006.53031 C53.7681647,1006.53031 53.7681647,1006.53031 53.7681647,1006.90782 C53.7681647,1006.90782 53.7681647,1007.28532 53.7681647,1007.28532 C53.7681647,1007.28532 53.7681647,1007.28532 53.7681647,1007.66283 C53.7681647,1007.66283 53.7681647,1008.04033 53.7681647,1008.04033 C53.7681647,1008.04033 53.7681647,1008.04033 53.7681647,1008.04033 C53.7681647,1008.04033 53.7681647,1008.41784 53.7681647,1008.41784 C53.7681647,1008.41784 53.7681647,1008.41784 53.7681647,1008.41784 C53.7681647,1008.41784 53.7681647,1008.79534 53.7681647,1008.79534 C53.7681647,1008.79534 53.7681647,1008.79534 53.7681647,1008.79534 C53.7681647,1008.79534 53.7681647,1009.17285 53.7681647,1009.17285 C53.7681647,1009.17285 53.7681647,1009.17285 53.7681647,1009.17285 C53.7681647,1009.17285 53.7681647,1009.55035 53.7681647,1009.55035 C53.7681647,1009.55035 53.7681647,1009.55035 53.7681647,1009.55035 C53.7681647,1009.55035 53.7681647,1009.92786 53.7681647,1009.92786 C53.7681647,1009.92786 53.7681647,1009.92786 53.7681647,1009.92786 C55.9239559,1014.83543 58.0797471,1019.743 60.2355383,1024.65057 L621.819143,764.926835 C622.897038,758.131738 620.741247,750.959134 619.124404,743.786531 Z M16.7218601,554.409149 C14.5642007,563.956495 12.4065414,573.503841 10.7882968,583.051187 C10.7882968,583.433081 10.7882968,583.433081 10.7882968,583.433081 C10.7882968,583.433081 10.7882968,583.433081 10.7882968,583.433081 C10.7882968,583.814975 10.7882968,583.814975 10.7882968,584.196869 C10.7882968,584.960657 10.248882,585.724444 10.248882,586.488232 C10.248882,586.870126 10.248882,586.870126 10.248882,587.25202 C10.248882,587.25202 10.248882,587.25202 10.248882,587.25202 C10.248882,587.25202 10.248882,587.633913 10.248882,587.633913 C10.248882,587.633913 10.248882,587.633913 10.248882,588.015807 C10.248882,588.015807 10.248882,588.397701 10.248882,588.397701 C10.248882,588.397701 10.248882,588.779595 10.248882,588.779595 C10.248882,588.779595 10.248882,589.161489 10.248882,589.161489 C10.248882,589.161489 10.248882,589.161489 10.248882,589.543383 C10.248882,589.543383 10.248882,589.925277 10.248882,589.925277 C10.248882,589.925277 10.248882,589.925277 10.248882,590.30717 C10.248882,590.30717 10.248882,590.30717 10.248882,590.689064 C10.248882,590.689064 10.248882,591.070958 10.248882,591.070958 C10.248882,591.070958 10.248882,591.070958 10.248882,591.452852 C10.248882,591.452852 10.248882,591.834746 10.248882,591.834746 C10.248882,591.834746 10.248882,591.834746 10.248882,591.834746 C10.248882,592.598534 10.248882,593.362321 9.70946715,594.126109 C9.70946715,594.126109 9.70946715,594.508003 9.70946715,594.508003 C9.70946715,594.508003 9.70946715,594.508003 9.70946715,594.508003 C9.70946715,594.508003 9.70946715,594.889897 9.70946715,594.889897 C9.70946715,594.889897 9.70946715,594.889897 9.70946715,594.889897 C9.70946715,594.889897 9.70946715,595.27179 9.70946715,595.27179 C9.70946715,595.27179 9.70946715,595.27179 9.70946715,595.27179 C9.70946715,595.27179 9.70946715,595.653684 9.70946715,595.653684 C6.4729781,613.602695 4.31531873,631.551706 2.15765937,649.882611 C2.15765937,651.410186 1.61824453,652.937762 1.61824453,654.465337 C1.61824453,654.465337 1.61824453,654.465337 1.61824453,654.465337 C1.61824453,654.465337 1.61824453,654.847231 1.61824453,654.847231 C1.61824453,654.847231 1.61824453,655.229125 1.61824453,655.229125 C1.61824453,655.229125 1.61824453,655.611019 1.61824453,655.611019 C1.61824453,655.611019 1.61824453,655.992912 1.61824453,655.992912 L1.61824453,656.374806 C1.61824453,656.374806 1.61824453,656.7567 1.61824453,656.7567 C1.61824453,656.7567 1.61824453,657.138594 1.61824453,657.138594 C1.61824453,657.138594 1.61824453,657.138594 1.61824453,657.138594 C1.61824453,657.520488 1.61824453,657.902382 1.61824453,657.902382 C1.61824453,657.902382 1.61824453,657.902382 1.61824453,657.902382 C1.61824453,657.902382 1.61824453,658.284275 1.61824453,658.284275 L1.61824453,658.666169 C1.61824453,658.666169 1.61824453,658.666169 1.61824453,659.048063 L1.61824453,659.429957 C1.61824453,659.429957 1.61824453,659.429957 1.61824453,659.811851 L1.61824453,660.193745 C1.61824453,660.193745 1.61824453,660.193745 1.61824453,660.575639 L1.61824453,660.957532 C1.61824453,660.957532 1.61824453,660.957532 1.61824453,661.339426 L1.61824453,661.72132 C1.61824453,661.72132 1.61824453,661.72132 1.61824453,662.103214 L1.61824453,662.867002 C1.61824453,662.867002 1.61824453,663.248895 1.61824453,663.248895 C1.61824453,663.630789 1.61824453,663.630789 1.61824453,664.012683 C1.61824453,664.776471 1.61824453,665.540259 1.61824453,666.68594 C1.61824453,666.68594 1.61824453,666.68594 1.61824453,666.68594 C1.61824453,666.68594 1.61824453,667.067834 1.61824453,667.449728 C1.61824453,667.831622 1.61824453,667.831622 1.61824453,668.213515 L1.61824453,668.977303 C1.61824453,668.977303 1.61824453,668.977303 1.61824453,668.977303 C0.539414842,684.253057 0,699.528811 0,715.186459 L620.327068,720.914867 C620.327068,712.895096 621.405898,704.875325 623.024142,697.237448 L16.7218601,554.409149 Z M157.521815,268.055909 C139.750857,289.634141 123.59544,312.34807 108.517051,336.197695 C108.517051,336.197695 108.517051,336.197695 108.517051,336.197695 C108.517051,336.197695 108.517051,336.197695 108.517051,336.576261 C108.517051,336.576261 108.517051,336.576261 108.517051,336.576261 C108.517051,336.576261 108.517051,336.954826 108.517051,336.954826 C108.517051,336.954826 108.517051,336.954826 108.517051,337.333392 C108.517051,337.333392 108.517051,337.333392 108.517051,337.711957 C108.517051,337.711957 108.517051,338.090523 108.517051,338.090523 C108.517051,338.090523 108.517051,338.090523 108.517051,338.090523 C108.517051,338.090523 108.517051,338.469088 108.517051,338.469088 C108.517051,338.469088 108.517051,338.469088 108.517051,338.469088 C107.978537,338.847654 107.978537,339.604785 107.440024,339.98335 C107.440024,339.98335 107.440024,340.361916 106.90151,340.361916 C106.90151,340.361916 106.90151,340.361916 106.90151,340.361916 C106.90151,340.361916 106.90151,340.740481 106.362996,340.740481 C106.362996,340.740481 106.362996,341.119047 105.824482,341.119047 C93.4386626,361.183017 82.1298711,381.625553 71.3595934,402.82522 L626.567408,674.256671 C629.798491,667.442492 634.106602,660.628314 639.491741,654.571266 L157.521815,268.055909 Z M409.64432,69.5298602 C375.216061,86.2173198 341.863685,105.180342 310.663075,126.798188 C310.663075,126.798188 310.663075,126.798188 310.125133,127.177448 C310.125133,127.177448 310.125133,127.177448 310.125133,127.177448 C310.125133,127.177448 310.125133,127.177448 309.587192,127.556708 C309.587192,127.556708 309.587192,127.556708 309.587192,127.556708 C309.587192,127.556708 309.587192,127.556708 309.04925,127.935969 C309.04925,127.935969 309.04925,127.935969 309.04925,127.935969 C309.04925,127.935969 309.04925,127.935969 308.511309,128.315229 C308.511309,128.315229 308.511309,128.315229 308.511309,128.315229 C308.511309,128.315229 307.973367,128.69449 307.973367,128.69449 C307.973367,128.69449 307.973367,128.69449 307.973367,128.69449 C307.973367,128.69449 307.973367,128.69449 307.973367,129.07375 C307.973367,129.07375 307.973367,129.07375 307.973367,129.07375 C307.973367,129.07375 307.973367,129.07375 307.435426,129.07375 C307.435426,129.07375 307.435426,129.07375 307.435426,129.453011 C307.435426,129.453011 307.435426,129.453011 307.435426,129.453011 C307.435426,129.453011 307.435426,129.453011 306.897484,129.832271 C306.897484,129.832271 306.897484,129.832271 306.897484,129.832271 C306.897484,129.832271 306.897484,129.832271 306.359543,130.211532 C306.359543,130.211532 306.359543,130.211532 306.359543,130.211532 C306.359543,130.211532 305.821601,130.590792 305.821601,130.590792 C305.821601,130.590792 305.821601,130.590792 305.821601,130.590792 C305.283659,130.970052 305.283659,130.970052 304.745718,131.349313 C293.986887,138.934522 283.765997,146.519731 273.545108,154.4842 L657.097433,637.662008 C663.01479,632.731622 670.00803,628.559757 677.001271,625.146413 L409.64432,69.5298602 Z M717.353972,0 C717.353972,0 717.353972,0 717.353972,0 L715.736783,0 C715.736783,0 715.197721,0 715.197721,0 L710.885218,0 C710.885218,0 710.885218,0 710.885218,0 L708.189904,0 C708.189904,0 707.650841,0 707.650841,0 L707.111779,0 C707.111779,0 707.111779,0 707.111779,0 L706.033653,0 C706.033653,0 706.033653,0 706.033653,0 L705.49459,0 C705.49459,0 705.49459,0 705.49459,0 L704.416465,0 C704.416465,0 704.416465,0 704.416465,0 C703.877402,0 703.338339,0 702.260213,0 L701.721151,0 C701.721151,0 701.721151,0 701.721151,0 C701.721151,0 701.182088,0 701.182088,0 L699.564899,0 C699.564899,0 699.025837,0 699.025837,0 L698.486774,0 C698.486774,0 698.486774,0 698.486774,0 L697.947711,0 C697.408648,0 696.869585,0 695.79146,0 L694.713334,0 C694.713334,0 694.713334,0 694.713334,0 C694.713334,0 694.174271,0 694.174271,0 L693.635209,0 C693.635209,0 693.635209,0 693.635209,0 L693.096146,0 L692.557083,0 C692.557083,0 692.557083,0 692.557083,0 C692.01802,0 691.478957,0 691.478957,0 C690.400832,0 689.861769,0 688.783643,0 C688.24458,0 688.24458,0 687.705518,0 C687.705518,0 687.705518,0 687.705518,0 C687.705518,0 687.166455,0 687.166455,0 L686.627392,0 C659.674252,1.51464996 633.260175,4.1652874 607.38516,8.33057479 C607.38516,8.33057479 606.846098,8.33057479 606.846098,8.33057479 C606.846098,8.33057479 606.307035,8.33057479 606.307035,8.33057479 C606.307035,8.33057479 606.307035,8.33057479 606.307035,8.33057479 C606.307035,8.33057479 605.767972,8.33057479 605.767972,8.33057479 C605.767972,8.33057479 605.767972,8.33057479 605.767972,8.33057479 C605.767972,8.33057479 605.228909,8.33057479 605.228909,8.33057479 C604.689846,8.33057479 604.150784,8.70923728 603.611721,8.70923728 C603.611721,8.70923728 603.611721,8.70923728 603.611721,8.70923728 C603.611721,8.70923728 603.072658,8.70923728 603.072658,8.70923728 C603.072658,8.70923728 603.072658,8.70923728 603.072658,8.70923728 C603.072658,8.70923728 603.072658,8.70923728 602.533595,8.70923728 C602.533595,8.70923728 602.533595,8.70923728 602.533595,8.70923728 C602.533595,8.70923728 602.533595,8.70923728 601.994532,8.70923728 C601.994532,8.70923728 601.994532,8.70923728 601.45547,8.70923728 C601.45547,8.70923728 601.45547,8.70923728 600.916407,8.70923728 C600.916407,8.70923728 600.916407,8.70923728 600.377344,8.70923728 C600.377344,8.70923728 600.377344,8.70923728 600.377344,8.70923728 C600.377344,8.70923728 600.377344,8.70923728 599.838281,8.70923728 C599.838281,8.70923728 599.838281,8.70923728 599.299218,8.70923728 C599.299218,8.70923728 599.299218,8.70923728 598.760156,8.70923728 C598.760156,8.70923728 598.760156,8.70923728 598.760156,8.70923728 C598.221093,8.70923728 597.68203,8.70923728 597.142967,9.08789977 C597.142967,9.08789977 596.603904,9.08789977 596.603904,9.08789977 C596.603904,9.08789977 596.603904,9.08789977 596.603904,9.08789977 C596.603904,9.08789977 596.064842,9.08789977 596.064842,9.08789977 C596.064842,9.08789977 595.525779,9.08789977 595.525779,9.08789977 C595.525779,9.08789977 595.525779,9.08789977 595.525779,9.08789977 C595.525779,9.08789977 594.986716,9.08789977 594.986716,9.08789977 C594.986716,9.08789977 594.447653,9.08789977 594.447653,9.08789977 C594.447653,9.08789977 594.447653,9.08789977 594.447653,9.08789977 C583.666397,10.9812122 572.885141,13.2531872 562.642948,15.5251621 L699.025837,615.70521 C706.572716,613.811897 714.658658,613.054572 722.7446,613.054572 L722.7446,0 L717.353972,0 Z" id="Shape" fill="url(#radialGradient-2)"></path>
            </g>
        </g>
    </g>
</svg>