<?xml version="1.0" encoding="UTF-8"?>
<svg width="48px" height="55px" viewBox="0 0 48 55" version="1.1" xmlns="http://www.w3.org/2000/svg" xmlns:xlink="http://www.w3.org/1999/xlink">
    <!-- Generator: Sketch 50.2 (55047) - http://www.bohemiancoding.com/sketch -->
    <title>surprise head</title>
    <desc>Created with Sketch.</desc>
    <defs></defs>
    <g id="Desktop" stroke="none" stroke-width="1" fill="none" fill-rule="evenodd">
        <g id="Desktop-/-2.0.Internal_C10_Q1" transform="translate(-337.000000, -969.000000)">
            <g id="progess-v2" transform="translate(0.000000, 971.000000)">
                <g id="surprise-head" transform="translate(341.000000, 0.000000)">
                    <g id="head" transform="translate(0.058156, 0.162964)">
                        <path d="M26.6749194,24.4342715 C29.5073042,22.8986001 30.828685,14.0881162 31.2698431,12.0837735 C31.8572564,9.41567819 32.3067891,6.65717926 31.8641355,3.96172493 C31.6760077,2.81740583 31.2907795,1.63948277 30.4192304,0.869267999 C29.5273433,0.0809130304 28.2254033,-0.154909486 27.0592504,0.0957820415 C25.8930974,0.346473569 24.857946,1.03847734 24.0312605,1.89404024 C22.4203603,3.56204591 21.5550922,5.83313866 21.2195129,8.12147947 C20.762503,11.234753 21.0227115,14.4066105 21.8084216,17.4461337 C22.2794888,19.2669928 23.1145488,24.0218052 25.3556322,24.6031835 C25.8278957,24.7257042 26.2672593,24.6555224 26.6749194,24.4342715" id="Fill-1" fill="#F1727E"></path>
                        <path d="M14.3852981,24.5526627 C10.3412986,22.9366986 7.90580651,18.6633448 5.93659619,14.9651244 C4.16418726,11.6368449 0.662737507,2.40646023 7.62585802,2.08558697 C9.10994392,2.01718952 10.5330154,2.82011612 11.5167233,3.92696531 C12.5004312,5.03381449 13.1057899,6.4184168 13.6157388,7.80569554 C14.7543754,10.9046948 15.4889411,14.1306755 16.0703726,17.3736068 C16.3649765,19.0196063 18.5145383,26.0014992 14.772919,24.6974869 C14.6419175,24.6519877 14.5130096,24.6035148 14.3852981,24.5526627" id="Fill-4" fill="#F1727E"></path>
                        <path d="M27.907169,48.2447666 C31.6568637,47.5093453 35.0829427,45.868996 37.3261197,42.8333387 C39.7768654,39.5166571 40.2093499,34.9149955 38.7073186,31.0799802 C37.2058854,27.2446675 33.9045271,24.2182289 30.0444681,22.7319226 C26.933032,21.5343724 23.5260948,21.2878442 20.1933319,21.4412924 C16.3921937,21.616152 12.5674274,22.3111296 9.14344203,23.9618872 C5.71915756,25.6123474 2.71240311,28.279848 1.10898019,31.711021 C0.374115399,33.2835676 -0.0604627591,35.0250262 0.0866896523,36.7531027 C0.351085448,39.8595365 2.47941179,42.5707519 5.08448802,44.3062629 C8.05535164,46.2856257 11.492497,47.2039358 14.9278478,47.9235959 C18.8004686,48.7351466 23.5700611,49.095274 27.907169,48.2447666" id="Fill-11" fill="#F48E95"></path>
                        <path d="M24.2389166,42.6230017 C24.2389166,44.5648945 22.7880297,46.1380359 21.0027599,46.1380359 C19.216892,46.1380359 17.7663042,44.5648945 17.7663042,42.6230017 C17.7663042,41.1331267 18.6220014,39.8603394 19.8273352,39.3488454 C20.0872446,39.2388147 20.3594168,39.1644697 20.6468425,39.128784 C20.7634877,39.113915 20.8828247,39.1079674 21.0027599,39.1079674 C21.0353608,39.1079674 21.0682607,39.1079674 21.1014597,39.1109412 C21.4783135,39.1228364 21.8399136,39.2031291 22.1751938,39.3458716 C23.3835185,39.8573656 24.2389166,41.1331267 24.2389166,42.6230017" id="Fill-13" fill="#7E4255"></path>
                        <path d="M33.380162,39.3783753 C32.0013559,38.826735 30.0814955,38.6337352 29.1279957,40.0483729 C28.3165638,41.2524654 29.0107523,42.7878395 30.4451892,42.9618069 C31.2195339,43.0557791 33.8401628,42.6257673 33.1076908,41.3000463 C32.5675338,40.3228549 30.1538753,40.308878 30.4622374,41.7743677 C30.5328227,42.1107047 31.0505479,41.9682596 30.9799626,41.6325173 C30.8298193,40.9191022 32.1006538,41.1305395 32.4042305,41.3583328 C33.0380027,41.8335464 32.1757255,42.1808865 31.7761409,42.2956752 C31.0484543,42.5047335 30.0115083,42.6132773 29.5251876,41.8912381 C28.9536261,41.0428124 29.5888938,40.0373698 30.4143829,39.6820005 C31.3394691,39.2838084 32.3444124,39.5356894 33.2374959,39.892843 C33.5581207,40.0213113 33.6974968,39.5050592 33.380162,39.3783753" id="Fill-17" fill="#F1727E"></path>
                        <path d="M7.59065509,39.7399599 C8.2417746,39.0785863 9.47851286,39.0663937 10.3363037,39.2659358 C11.4955776,39.5353623 11.9935629,40.6344796 11.0227159,41.5022351 C10.4158618,42.0446566 9.11362273,42.5293864 8.35363436,41.9896413 C7.73691023,41.5521949 8.21934283,40.9999599 8.76847256,40.9024192 C9.27782329,40.8117182 9.77281768,40.9916332 10.135016,41.3470026 C10.3811673,41.588178 10.7610119,41.2110998 10.5142625,40.9693297 C10.0515698,40.5152301 9.42228389,40.282084 8.77236074,40.3659452 C8.20917376,40.4388034 7.58228056,40.7572976 7.52126615,41.3806066 C7.36095377,43.0090607 9.73632867,42.8273613 10.651844,42.38367 C11.9131076,41.7722563 12.7520558,40.1672953 11.4031587,39.1597711 C10.7675919,38.6848549 9.89963195,38.6194312 9.13126906,38.6482771 C8.41793877,38.6747439 7.72404935,38.8412768 7.21081045,39.3625844 C6.96914552,39.6082204 7.34809288,39.9858933 7.59065509,39.7399599" id="Fill-19" fill="#F1727E"></path>
                        <path d="M11.5521356,35.1485579 C11.4656985,36.9536559 10.6246567,38.3798914 9.67444689,38.3337975 C8.72423711,38.2885957 8.02496407,36.7897994 8.11170025,34.9847014 C8.19933369,33.1799009 9.04007643,31.7539627 9.98938894,31.7994619 C10.9392996,31.8446637 11.6388718,33.3437574 11.5521356,35.1485579" id="Fill-21" fill="#020202"></path>
                        <path d="M9.74153284,34.5285499 C9.56985502,34.9201997 9.13288414,35.1072518 8.76530221,34.9484508 C8.39831845,34.7887576 8.23950152,34.3429847 8.41088024,33.9519297 C8.58195987,33.5605773 9.01893075,33.372633 9.3862136,33.531434 C9.75409463,33.6905325 9.91231338,34.1369002 9.74153284,34.5285499" id="Fill-23" fill="#FEFEF4"></path>
                        <path d="M9.87208574,35.4275006 C9.80389316,35.5818409 9.63161716,35.656186 9.48625929,35.5934388 C9.34120052,35.5303941 9.27869065,35.3543451 9.34628505,35.2000047 C9.41387945,35.045367 9.58645453,34.9713193 9.73211149,35.0340666 C9.87657209,35.0968138 9.93997923,35.2731603 9.87208574,35.4275006" id="Fill-25" fill="#FEFEF4"></path>
                        <path d="M32.3946895,34.2375336 C32.6477199,36.0271678 32.0890192,37.5839533 31.1462867,37.7148006 C30.2044515,37.8462426 29.2365954,36.5032735 28.983565,34.7136394 C28.7314319,32.9243026 29.2901325,31.3678145 30.2316687,31.2363724 C31.1732048,31.1049304 32.14136,32.4478995 32.3946895,34.2375336" id="Fill-27" fill="#020202"></path>
                        <path d="M30.4996835,33.9636762 C30.4042737,34.3803059 30.0097736,34.6452717 29.6191617,34.5569497 C29.2282507,34.4683304 28.9886794,34.05973 29.0840892,33.6436951 C29.1786018,33.2273628 29.5728027,32.9620996 29.9634146,33.0501241 C30.3549238,33.1381487 30.5935978,33.5473439 30.4996835,33.9636762" id="Fill-29" fill="#FEFEF4"></path>
                        <path d="M30.7961417,34.8227184 C30.7584564,34.9868723 30.6029294,35.0918475 30.4482998,35.0573514 C30.2936701,35.0222606 30.1991576,34.8607831 30.237142,34.6966292 C30.2742292,34.5324753 30.4300552,34.4275001 30.584984,34.4619962 C30.7384173,34.4967897 30.8338271,34.6585646 30.7961417,34.8227184" id="Fill-31" fill="#FEFEF4"></path>
                        <path d="M21.6216076,37.6439051 C21.1687849,37.5505277 20.7351041,37.6001902 20.3145831,37.778321 C20.0202783,37.6956493 19.9006422,38.1738367 20.2042188,38.2990338 C20.3250513,38.3489936 20.4512674,38.3823002 20.5786798,38.3998456 C20.7240377,38.442371 20.8747792,38.4631876 21.032998,38.4554557 C21.1272114,38.4506977 21.1930113,38.4060906 21.2357812,38.3457224 C21.3945981,38.298439 21.5477323,38.2285546 21.6856129,38.1316087 C21.8584871,38.0105749 21.8662634,37.6944598 21.6216076,37.6439051" id="Fill-47" fill="#231F20"></path>
                        <path d="M22.1751041,39.3458716 L21.9148955,40.6008161 C21.8819956,40.7524801 21.6995505,40.8684583 21.4812146,40.8744059 L20.6347892,40.8952226 C20.4164533,40.9011702 20.2280264,40.7970871 20.1888456,40.648397 L19.8272455,39.3488454 C20.087454,39.2388147 20.3596261,39.1644697 20.6470519,39.128784 C20.796597,39.1198626 20.948834,39.113915 21.10137,39.1109412 C21.4782237,39.1228364 21.840123,39.2031291 22.1751041,39.3458716" id="Fill-45" fill="#FFFFFF"></path>
                    </g>
                </g>
            </g>
        </g>
    </g>
</svg>