<?xml version="1.0" encoding="UTF-8"?>
<svg width="212px" height="184px" viewBox="0 0 212 184" version="1.1" xmlns="http://www.w3.org/2000/svg" xmlns:xlink="http://www.w3.org/1999/xlink">
    <!-- Generator: Sketch 50.2 (55047) - http://www.bohemiancoding.com/sketch -->
    <title>locker</title>
    <desc>Created with Sketch.</desc>
    <defs></defs>
    <g id="Desktop" stroke="none" stroke-width="1" fill="none" fill-rule="evenodd">
        <g id="Desktop-/-3.0.Internal_C10_Q2" transform="translate(-614.000000, -456.000000)">
            <g id="content" transform="translate(331.000000, 150.000000)">
                <g id="locker" transform="translate(283.000000, 190.000000)">
                    <g id="Group" transform="translate(0.000000, 116.000000)" fill="#FBCE00">
                        <path d="M212,78.1223063 C212,78.384262 212,78.6462176 211.986888,78.9081732 C211.570877,137.026597 164.283878,184 106.005364,184 C47.7173139,184 0.430315264,137.026597 0.0119200904,78.9081732 C0,78.6462176 0,78.384262 0,78.1223063 L0,11.2759982 C0,5.04859898 5.05531034,0 11.3014377,0 L200.699754,0 C206.945882,0 212,5.04859898 212,11.2759982 L212,78.1223063 Z" id="Fill-5"></path>
                    </g>
                    <path d="M130,183.779667 C130,170.645535 119.254896,160 105.9994,160 C92.7451039,160 82,170.645535 82,183.779667 C82,192.747896 87.014782,200.550339 94.412696,204.600853 L94.412696,230.520571 C94.412696,236.859833 99.6015607,242 105.9994,242 C112.398439,242 117.586103,236.859833 117.586103,230.520571 L117.586103,204.600853 C124.984017,200.550339 130,192.747896 130,183.779667" id="Fill-8" fill="#4C2C0D"></path>
                </g>
            </g>
        </g>
    </g>
</svg>