<?xml version="1.0" encoding="utf-8"?>
<!-- Generator: Adobe Illustrator 22.1.0, SVG Export Plug-In . SVG Version: 6.00 Build 0)  -->
<svg version="1.1" id="Layer_1" xmlns="http://www.w3.org/2000/svg" xmlns:xlink="http://www.w3.org/1999/xlink" x="0px" y="0px"
	 viewBox="0 0 1426 1024" style="enable-background:new 0 0 1426 1024;" xml:space="preserve">
<style type="text/css">
	.st0{fill:url(#Shape_1_);}
</style>
<title>Shape</title>
<desc>Created with Sketch.</desc>
<g id="Desktop">
	<g id="Desktop-_x2F_-5.5.Internal_x5F_C10_x5F_Q4" transform="translate(-9.000000, 0.000000)">
		
			<radialGradient id="Shape_1_" cx="122.4228" cy="825.6375" r="0.4959" gradientTransform="matrix(1440 0 0 -1440 -175567 1189430)" gradientUnits="userSpaceOnUse">
			<stop  offset="0" style="stop-color:#FFFFFF;stop-opacity:0.3449"/>
			<stop  offset="1" style="stop-color:#FFFFFF;stop-opacity:0"/>
		</radialGradient>
		<path id="Shape" class="st0" d="M1003.2-171.5C1003.2-171.5,1002.7-171.5,1003.2-171.5C1002.7-171.5,1002.7-171.5,1003.2-171.5
			c-1.1-0.8-2.1-1.1-3.2-1.5c0,0-0.5,0-0.5-0.4l0,0c0,0,0,0-0.5,0l0,0c0,0,0,0-0.5-0.4c0,0,0,0-0.5-0.4l0,0h-0.5
			c-0.5,0-1.1-0.4-1.1-0.4l0,0c0,0,0,0-0.5,0l0,0c0,0,0,0-0.5,0l0,0c0,0,0,0-0.5,0l0,0l0,0l0,0l0,0h-0.5l0,0c0,0-0.5,0-0.5-0.4l0,0
			c0,0,0,0-0.5,0l0,0l0,0l0,0c0,0,0,0-0.5,0l0,0l0,0l0,0c0,0,0,0-0.5,0l0,0c-0.5,0-0.5-0.4-1.1-0.4l0,0h-0.5l0,0c0,0,0,0-0.5,0l0,0
			c0,0,0,0-0.5,0l0,0c0,0,0,0-0.5,0l0,0c0,0,0,0-0.5,0l0,0c-0.5,0-0.5-0.4-1.1-0.4l0,0h-0.5l0,0c0,0,0,0-0.5,0l0,0c0,0,0,0-0.5,0
			l0,0c0,0,0,0-0.5,0l0,0c0,0,0,0-0.5,0l0,0h-0.5l0,0c0,0-0.5,0-0.5-0.4l0,0h-0.5l0,0c0,0,0,0-0.5,0l0,0c0,0,0,0-0.5,0l0,0h-0.5l0,0
			h-0.5l0,0c-0.5,0-0.5-0.4-1.1-0.4l0,0h-0.5l0,0c0,0,0,0-0.5,0H978l0,0c0,0,0,0-0.5,0l0,0h-0.5l0,0c-0.5-0.4-1.1-0.4-1.6-0.8l0,0
			h-0.5l0,0c0,0,0,0-0.5,0l0,0c0,0,0,0-0.5,0l0,0h-0.5l0,0h-0.5c-0.5,0-0.5-0.4-1.1-0.4l0,0H971l0,0c0,0,0,0-0.5,0l0,0
			c0,0,0,0-0.5,0l0,0c0,0,0,0-0.5,0l0,0c0,0-0.5,0-0.5-0.4l0,0c-0.5,0-0.5-0.4-1.1-0.4l0,0c0,0,0,0-0.5,0l0,0c0,0,0,0-0.5,0l0,0
			h-0.5l0,0c0,0,0,0-0.5,0l0,0c0,0-0.5,0-0.5-0.4l0,0c-0.5,0-1.1-0.4-1.1-0.4s-0.5,0-0.5-0.4l0,0c0,0,0,0-0.5,0l0,0c0,0,0,0-0.5,0
			l0,0h-0.5l0,0c-0.5,0-1.1-0.4-1.6-0.8h-0.5l0,0c0,0,0,0-0.5,0l0,0c0,0,0,0-0.5,0l0,0c0,0,0,0-0.5,0l0,0h-0.5l0,0
			c-0.5,0-0.5-0.4-1.1-0.4l0,0H956l0,0c0,0,0,0-0.5,0l0,0c0,0,0,0-0.5,0l0,0c0,0,0,0-0.5,0l0,0c0,0,0,0-0.5,0l0,0
			c-0.5,0-0.5-0.4-1.1-0.4h-0.5l0,0c0,0,0,0-0.5,0l0,0c0,0,0,0-0.5,0l0,0c0,0,0,0-0.5,0l0,0h-0.5l0,0h-0.5l0,0c0,0-0.5,0-0.5-0.4
			l0,0h-0.5l0,0c0,0,0,0-0.5,0l0,0c0,0,0,0-0.5,0l0,0c0,0,0,0-0.5,0l0,0h-0.5l0,0c-0.5,0-0.5-0.4-1.1-0.4l0,0h-0.5l0,0
			c0,0,0,0-0.5,0l0,0c0,0,0,0-0.5,0l0,0c0,0,0,0-0.5,0l0,0c0,0,0,0-0.5,0l0,0H942l0,0h-0.5l0,0c0,0,0,0-0.5,0l0,0c0,0,0,0-0.5,0l0,0
			c0,0,0,0-0.5,0c0,0,0,0-0.5,0c0,0,0,0-0.5,0l0,0c0,0,0,0-0.5,0l0,0c0,0,0,0-0.5,0l0,0c0,0-0.5,0-0.5-0.4l0,0h-0.5c0,0,0,0-0.5,0
			c0,0,0,0-0.5,0l0,0l0,0l0,0c0,0,0,0-0.5,0l0,0h-0.5l0,0H934l0,0h-0.5h-0.5l0,0h-0.5l0,0h-0.5l0,0c0,0,0,0-0.5,0l0,0h-0.5
			c-0.5,0-1.1-0.4-1.1-0.4h-0.5l0,0c0,0,0,0-0.5,0l0,0c0,0,0,0-0.5,0l0,0c0,0,0,0-0.5,0l0,0c0,0,0,0-0.5,0l0,0c0,0,0,0-0.5,0
			c0,0-0.5,0-0.5-0.4h-0.5l0,0c0,0,0,0-0.5,0l0,0c0,0,0,0-0.5,0l0,0c0,0,0,0-0.5,0l0,0c0,0,0,0-0.5,0l0,0h-0.5l0,0
			c-0.5,0-0.5-0.4-1.1-0.4l0,0h-0.5l0,0h-0.5l0,0c0,0,0,0-0.5,0l0,0c0,0,0,0-0.5,0H919l0,0c-0.5,0-1.1-0.4-1.1-0.4h-0.5l0,0h-0.5
			l0,0h-0.5l0,0h-0.5c-0.5-0.4-1.6-0.4-2.1-0.8l0,0h-0.5l0,0h-0.5l0,0c-0.5-0.4-1.6-0.4-2.1-0.8c-0.5,0-1.1-0.4-1.1-0.4
			c-1.1-0.4-2.7-0.8-3.8-1.1L746.1,408.8c7,1.9,14.5,4.6,20.9,8.3l288.3-545C1031.2-158.2,1017.2-165,1003.2-171.5z M1290.8,65.4
			L1290.8,65.4c0-0.4-0.5-0.4-0.5-0.4c-0.5-0.8-1.1-1.5-1.6-1.9c0,0,0-0.4-0.5-0.4c0,0,0-0.4-0.5-0.4c-0.5-0.8-1.1-1.5-1.6-1.9l0,0
			c0,0,0-0.4-0.5-0.4l0,0v-0.4l0,0v-0.4l0,0c0,0,0-0.4-0.5-0.4c0,0,0-0.4-0.5-0.4l0,0c0,0,0-0.4-0.5-0.4l0,0v-0.4l0,0v-0.4l0,0v-0.4
			c0,0,0,0,0-0.4c0,0,0-0.4-0.5-0.4l0,0c0,0,0-0.4-0.5-0.4l0,0c0,0,0-0.4-0.5-0.4l0,0v-0.4c0,0,0,0,0-0.4c0,0,0,0,0-0.4l0,0V54
			c0,0,0,0,0-0.4c0,0,0,0,0-0.4c0,0,0,0,0-0.4l0,0c0-0.4-0.5-0.4-0.5-0.8l0,0c0,0,0,0,0-0.4l0,0v-0.4l0,0V51l0,0v-0.4l0,0
			c-0.5-0.4-0.5-0.8-1.1-1.1l0,0l-0.5-0.4l0,0v-0.4l0,0v-0.4l0,0c0,0,0-0.4-0.5-0.4l0,0c-0.5-0.8-1.1-1.5-1.6-1.9l0,0
			c0,0,0-0.4-0.5-0.4c-24.8-28.8-51.7-55.3-80.2-79.9L790.4,431.5c5.9,5.3,11.8,11,16.7,17.4l496.5-367.6
			C1299.4,76,1295.1,70.7,1290.8,65.4z M1430.5,361v-0.4v-0.4l0,0v-0.4c0,0,0,0,0-0.4v-0.4c0-0.4,0-0.4,0-0.8l0,0c0,0,0,0,0-0.4
			v-0.4c0,0,0,0,0-0.4v-0.4c0,0,0,0,0-0.4v-0.4c0,0,0,0,0-0.4v-0.4l0,0v-0.4l0,0c0-0.8-0.5-1.5-0.5-2.3l0,0c0-0.4,0-0.4,0-0.8
			c0-0.4,0-0.4,0-0.8c-4.3-18.6-9.2-37.2-15.1-55.5c0-0.8-0.5-1.5-0.5-2.3V293l0,0v-0.4l0,0v-0.4l0,0v-0.4l0,0v-0.4l0,0
			c0-0.4-0.5-1.1-0.5-1.9l0,0v-0.4l0,0v-0.4l0,0v-0.4l0,0V288l0,0v-0.4c0-0.4,0-0.4,0-0.8l0,0v-0.4l0,0v-0.4c0,0,0,0,0-0.4v-0.4
			c0,0,0,0,0-0.4v-0.4c0,0,0,0,0-0.4v-0.4c0,0,0,0,0-0.4v-0.4l0,0v-0.4v-0.4V282c0,0,0,0,0-0.4c0,0,0,0,0-0.4v-0.4c0,0,0,0,0-0.4
			c0,0,0,0,0-0.4c0,0,0,0,0-0.4v-0.4c0,0,0,0,0-0.4v-0.4c0,0,0,0,0-0.4v-0.4l0,0c0-0.4-0.5-1.1-0.5-1.5v-0.4l0,0v-0.4l0,0v-0.4l0,0
			v-0.4l0,0v-0.4l0,0c0-0.8-0.5-1.1-0.5-1.9l0,0v-0.4l0,0v-0.4l0,0v-0.4l0,0v-0.4l0,0c-0.5-1.1-0.5-1.9-1.1-3l0,0v-0.4l0,0v-0.4l0,0
			c-2.2-5.7-4.3-11-6.5-16.3c-0.5-1.5-1.1-2.7-1.6-4.2v-0.4c-0.5-1.1-1.1-2.3-1.6-3.4l0,0v-0.4v-0.4c-0.5-1.1-0.5-1.9-1.1-3
			c0,0,0,0,0-0.4v-0.4l0,0v-0.4c0,0,0,0,0-0.4v-0.4c0,0,0,0,0-0.4v-0.4c0,0,0,0,0-0.4v-0.4c0,0,0,0,0-0.4c0,0,0,0,0-0.4v-0.4l0,0
			v-0.4l0,0v-0.4l0,0v-0.4c0,0,0,0,0-0.4v-0.4c0,0,0,0,0-0.4v-0.4l0,0v-0.4c0-0.4-0.5-1.1-0.5-1.5l0,0v-0.4v-0.4l0,0v-0.4
			c-0.5-1.9-1.6-3.4-2.2-4.9L832.5,474.3c3.2,6.8,5.4,14.1,6.5,21.3l593.7-122.4C1432.1,369.4,1431.1,365.2,1430.5,361z
			 M825.7,514.7c0,7.9-1.1,15.9-3.2,23l601.3,152.6c1.1-4.9,2.2-9.4,3.8-14.4c0-0.4,0-0.8,0.5-1.1c0-0.4,0-0.4,0-0.8
			c0,0,0-0.4,0-0.8c0-0.8,0.5-1.5,0.5-2.3l0,0v-0.4l0,0v-0.4l0,0V670l0,0v-0.4c0,0,0,0,0-0.4v-0.4l0,0v-0.4l0,0v-0.4l0,0v-0.4v-0.4
			c0,0,0,0,0-0.4v-0.4v-0.4v-0.4c0,0,0,0,0-0.4v-0.4c0,0,0,0,0-0.4v-0.4c0,0,0,0,0-0.4v-0.4c0,0,0,0,0-0.4v-0.4c0,0,0,0,0-0.4v-0.4
			l0,0c0-0.8,0.5-1.5,0.5-1.9l0,0v-0.4l0,0v-0.4V659c0,0,0,0,0-0.4v-0.4c0,0,0,0,0-0.4v-0.4l0,0v-0.4l0,0v-0.4c0-0.8,0-1.1,0.5-1.9
			l0,0v-0.4l0,0v-0.4v-0.4l0,0v-0.4l0,0V653l0,0v-0.4c0-0.8,0.5-1.5,0.5-2.3V650l0,0v-0.4l0,0v-0.4l0,0v-0.4l0,0v-0.4l0,0v-0.4l0,0
			c0-0.8,0-1.5,0.5-1.9l0,0v-0.4v-0.4l0,0v-0.4l0,0v-0.4c0,0,0,0,0-0.4v-0.4l0,0v-0.4l0,0v-0.4c0,0,0,0,0-0.4v-0.4l0,0
			c0-0.4,0-0.4,0-0.8l0,0v-0.4c0,0,0,0,0-0.4v-0.4c0,0,0,0,0-0.4v-0.4v-0.4V639v-0.4v-0.4v-0.4c0,0,0,0,0-0.4v-0.4v-0.4
			c0,0,0,0,0-0.4V636v-0.4v-0.4v-0.4l0,0v-0.4v-0.4v-0.4c0,0,0,0,0-0.4V633l0,0v-0.4l0,0v-0.4v-0.4l0,0c0-0.4,0-0.4,0-0.8
			c0-0.8,0-1.5,0.5-2.3l0,0c0,0,0-0.4,0-0.8s0-0.4,0-0.8c4.9-29.8,7.6-60.4,8.6-91.4L825.7,514.7z M815.3,560.5
			c-3.8,6.8-8.1,13.3-12.9,19.3l475.4,396c1.1-1.5,2.7-3,3.8-4.5l0,0c0,0,0,0,0-0.4l0,0c0,0,0,0,0-0.4l0,0v-0.4c0,0,0,0,0-0.4
			c0,0,0,0,0-0.4c0,0,0,0,0-0.4c0,0,0,0,0-0.4c0,0,0,0,0-0.4c0,0,0,0,0-0.4c0,0,0-0.4,0.5-0.4l0,0v-0.4l0,0v-0.4l0,0v-0.4l0,0
			c0,0,0-0.4,0.5-0.4l0,0c18.9-23.1,36.7-47.8,52.9-73.5l0,0v-0.4l0,0v-0.4l0,0v-0.4c0,0,0-0.4,0.5-0.4c0,0,0-0.4,0.5-0.4v-0.4
			c0,0,0,0,0-0.4v-0.4c0,0,0,0,0-0.4c0,0,0,0,0-0.4c0,0,0,0,0-0.4c0,0,0,0,0-0.4c0,0,0,0,0-0.4l0,0c0-0.4,0.5-0.8,0.5-1.1V886l0,0
			v-0.4l0,0c8.6-14,16.7-28.4,24.3-43.2L815.3,560.5z M786.6,596.2c-6.5,4.9-12.9,8.7-19.9,12.1l256.1,559.7
			c49.5-22.3,95.8-50,138.2-82.2L786.6,596.2z M743.9,614.5c-7,1.5-14.4,2.3-21.9,2.3h-2.1L708.1,1232c2.1,0,3.7,0,5.9,0h1.6
			c0,0,0,0,0.5,0h7l0,0h4.8c0,0,0,0,0.5,0h0.5l0,0h3.2l0,0h0.5h1.1l0,0h1.6h0.5l0,0h0.5l0,0h0.5l0,0h0.5l0,0h0.5h1.6l0,0h0.5l0,0
			h0.5l0,0c0.5,0,1.1,0,1.6,0h0.5h0.5c33.7-1.1,66.8-4.5,98.9-9.9h0.5c0.5,0,0.5,0,1.1,0h0.5c7.5-1.1,15-2.7,21.9-4.2L743.9,614.5z
			 M673.4,605.3L396.1,1155c3.8,1.9,7.5,3.8,11.3,5.3c0,0,0.5,0,0.5,0.4l0,0h0.5l0,0c0,0,0,0,0.5,0l0,0h0.5l0,0c0,0,0,0,0.5,0
			c0,0,0,0,0.5,0.4c0,0,0,0,0.5,0l0,0l0,0l0,0l0,0c0,0,0,0,0.5,0l0,0c0,0,0,0,0.5,0.4c0,0,0,0,0.5,0.4l0,0
			c42.5,20.1,87.1,36,133.8,47.4l147.8-597.4C687.4,611.4,680.4,608.7,673.4,605.3z M637.8,575.1L149.1,952.5
			c32.8,42.4,70.5,80.7,112.5,114.8L655,592.2C648,587.3,642.7,581.6,637.8,575.1z M619.1,535.8L12.8,664.9
			C22.5,708.7,36,751,53.2,791l0,0v0.4l0,0v0.4c0,0,0,0,0,0.4c0,0,0,0,0,0.4c0,0,0,0,0,0.4v0.4c0,0,0,0,0,0.4s0.5,0.8,0.5,1.1l0,0
			v0.4c0,0,0,0,0,0.4c0,0,0,0,0,0.4c0,0,0,0,0,0.4c0,0,0,0,0,0.4c0,0,0,0,0,0.4v0.4c0,0,0,0,0,0.4c0,0,0,0,0,0.4v0.4c0,0,0,0,0,0.4
			v0.4c0,0,0,0,0,0.4v0.4l0,0v0.4l0,0v0.4l0,0v0.4l0,0v0.4l0,0v0.4l0,0c2.2,4.9,4.3,9.8,6.5,14.7l561.6-259.7
			C622.9,550.1,620.7,543,619.1,535.8z M16.7,346.4c-2.2,9.5-4.3,19.1-5.9,28.6c0,0.4,0,0.4,0,0.4l0,0c0,0.4,0,0.4,0,0.8
			c0,0.8-0.5,1.5-0.5,2.3c0,0.4,0,0.4,0,0.8l0,0v0.4c0,0,0,0,0,0.4v0.4v0.4v0.4c0,0,0,0,0,0.4v0.4c0,0,0,0,0,0.4c0,0,0,0,0,0.4v0.4
			c0,0,0,0,0,0.4v0.4l0,0c0,0.8,0,1.5-0.5,2.3v0.4l0,0v0.4l0,0v0.4l0,0v0.4c-3.2,17.9-5.4,35.9-7.6,54.2c0,1.5-0.5,3.1-0.5,4.6l0,0
			v0.4v0.4v0.4v0.4v0.4v0.4v0.4l0,0c0,0.4,0,0.8,0,0.8l0,0v0.4v0.4c0,0,0,0,0,0.4v0.4c0,0,0,0,0,0.4v0.4c0,0,0,0,0,0.4v0.4
			c0,0,0,0,0,0.4v0.4c0,0,0,0,0,0.4v0.8v0.4c0,0.4,0,0.4,0,0.8c0,0.8,0,1.5,0,2.7l0,0c0,0,0,0.4,0,0.8s0,0.4,0,0.8v0.8l0,0
			C0.5,476.3,0,491.5,0,507.2l620.3,5.7c0-8,1.1-16,2.7-23.7L16.7,346.4z M157.5,60.1c-17.8,21.6-33.9,44.3-49,68.1l0,0
			c0,0,0,0,0,0.4l0,0v0.4c0,0,0,0,0,0.4c0,0,0,0,0,0.4v0.4l0,0v0.4l0,0c-0.5,0.4-0.5,1.1-1.1,1.5c0,0,0,0.4-0.5,0.4l0,0
			c0,0,0,0.4-0.5,0.4c0,0,0,0.4-0.5,0.4c-12.4,20.1-23.7,40.5-34.5,61.7l555.2,271.4c3.2-6.8,7.5-13.6,12.9-19.7L157.5,60.1z
			 M409.6-138.5c-34.4,16.7-67.8,35.7-99,57.3c0,0,0,0-0.5,0.4l0,0c0,0,0,0-0.5,0.4l0,0c0,0,0,0-0.5,0.4l0,0c0,0,0,0-0.5,0.4l0,0
			l-0.5,0.4l0,0c0,0,0,0,0,0.4l0,0c0,0,0,0-0.5,0c0,0,0,0,0,0.4l0,0c0,0,0,0-0.5,0.4l0,0c0,0,0,0-0.5,0.4l0,0l-0.5,0.4l0,0
			c-0.5,0.4-0.5,0.4-1.1,0.8c-10.8,7.6-21,15.2-31.2,23.1l383.6,483.2c5.9-4.9,12.9-9.1,19.9-12.5L409.6-138.5z M717.4-208
			L717.4-208h-1.6h-0.5h-4.3l0,0h-2.7h-0.5h-0.5l0,0H706l0,0h-0.5l0,0h-1.1l0,0c-0.5,0-1.1,0-2.2,0h-0.5l0,0h-0.5h-1.6H699h-0.5l0,0
			h-0.5c-0.5,0-1.1,0-2.2,0h-1.1l0,0h-0.5h-0.5l0,0h-0.5h-0.5l0,0c-0.5,0-1.1,0-1.1,0c-1.1,0-1.6,0-2.7,0c-0.5,0-0.5,0-1.1,0l0,0
			h-0.5h-0.5c-27,1.5-53.4,4.2-79.2,8.3h-0.5h-0.5l0,0h-0.5l0,0h-0.5c-0.5,0-1.1,0.4-1.6,0.4l0,0h-0.5l0,0c0,0,0,0-0.5,0l0,0
			c0,0,0,0-0.5,0c0,0,0,0-0.5,0c0,0,0,0-0.5,0c0,0,0,0-0.5,0l0,0c0,0,0,0-0.5,0c0,0,0,0-0.5,0c0,0,0,0-0.5,0l0,0
			c-0.5,0-1.1,0-1.6,0.4h-0.5l0,0h-0.5h-0.5l0,0H595h-0.5l0,0c-10.8,1.9-21.6,4.2-31.8,6.4L699,407.7c7.5-1.9,15.6-2.7,23.7-2.7
			V-208H717.4z"/>
	</g>
</g>
</svg>
