<?xml version="1.0" encoding="UTF-8"?>
<svg width="116px" height="61px" viewBox="0 0 116 61" version="1.1" xmlns="http://www.w3.org/2000/svg" xmlns:xlink="http://www.w3.org/1999/xlink">
    <!-- Generator: Sketch 50.2 (55047) - http://www.bohemiancoding.com/sketch -->
    <title>Group 9</title>
    <desc>Created with Sketch.</desc>
    <defs></defs>
    <g id="Desktop" stroke="none" stroke-width="1" fill="none" fill-rule="evenodd">
        <g id="Desktop-/-1.0.Internal_C10_NewHomepage" transform="translate(-873.000000, -279.000000)" fill="#FFFFFF">
            <g id="Group-9" transform="translate(873.000000, 279.000000)">
                <path d="M53.8967001,49.7675 L18.375,49.7675 C8.227,49.7675 0,41.5415 0,31.3925 C0,21.2445 8.227,13.0175 18.375,13.0175 L18.4595,13.0175 C18.4597702,5.82872973 24.2866667,0 31.4755,0 L80.8275,0 C88.0163333,0 93.8422299,5.82872973 93.8425,13.0175 L97.235,13.0175 C107.384,13.0175 115.611,21.2445 115.611,31.3925 C115.611,41.5415 107.384,49.7675 97.235,49.7675 L91.3346999,49.7675 C91.3347,55.856 86.3977,60.792 80.3097,60.792 L64.9207,60.792 C58.8327,60.792 53.8967,55.856 53.8967,49.769 Z" id="Combined-Shape"></path>
            </g>
        </g>
    </g>
</svg>