<?xml version="1.0" encoding="UTF-8"?>
<svg width="142px" height="61px" viewBox="0 0 142 61" version="1.1" xmlns="http://www.w3.org/2000/svg" xmlns:xlink="http://www.w3.org/1999/xlink">
    <!-- Generator: Sketch 50.2 (55047) - http://www.bohemiancoding.com/sketch -->
    <title>Group 10</title>
    <desc>Created with Sketch.</desc>
    <defs></defs>
    <g id="Desktop" stroke="none" stroke-width="1" fill="none" fill-rule="evenodd">
        <g id="Desktop-/-1.0.Internal_C10_NewHomepage" transform="translate(-290.000000, -354.000000)" fill="#FFFFFF">
            <g id="Group-10" transform="translate(290.000000, 354.000000)">
                <path d="M119.523179,34.9598 L128.4526,34.9598 C135.4696,34.9598 141.1566,40.6458 141.1566,47.6628 C141.1566,54.6778 135.4696,60.3658 128.4526,60.3658 L80.2876,60.3658 C80.2635734,60.3658 80.2395624,60.3657333 80.2155671,60.3656 L19.1716,60.3656 C8.5836,60.3656 -0.0004,51.7826 -0.0004,41.1946 C-0.0004,30.6066 8.5836,22.0246 19.1716,22.0246 L32.8202596,22.0246 C34.7690333,9.54788156 45.5634689,0.0003 58.5866,0.0003 L94.9906,0.0003 C109.3966,0.0003 121.0736,11.6783 121.0736,26.0813 C121.0736,29.1987643 120.526548,32.1885192 119.523179,34.9598 Z" id="Combined-Shape"></path>
            </g>
        </g>
    </g>
</svg>