<?xml version="1.0" encoding="UTF-8"?>
<svg width="212px" height="300px" viewBox="0 0 212 300" version="1.1" xmlns="http://www.w3.org/2000/svg" xmlns:xlink="http://www.w3.org/1999/xlink">
    <!-- Generator: Sketch 50.2 (55047) - http://www.bohemiancoding.com/sketch -->
    <title>locker</title>
    <desc>Created with Sketch.</desc>
    <defs></defs>
    <g id="Desktop" stroke="none" stroke-width="1" fill="none" fill-rule="evenodd">
        <g id="Desktop-/-3.0.Internal_C10_Q2" transform="translate(-614.000000, -340.000000)">
            <g id="content" transform="translate(331.000000, 150.000000)">
                <g id="locker" transform="translate(283.000000, 190.000000)">
                    <g id="Group-2" transform="translate(11.000000, 0.000000)">
                        <polygon id="Fill-1" fill="#DAD9E0" points="161.494063 130.662191 181.978438 130.662191 181.978438 110.111265 161.494063 110.111265"></polygon>
                        <polygon id="Fill-2" fill="#FFFFFF" points="154.648125 133.938426 188.824375 133.938426 188.824375 125.003241 154.648125 125.003241"></polygon>
                        <path d="M189.050119,95.2790963 L189.050119,116.628232 L155.479494,116.628232 L155.479494,95.2790963 C155.479494,61.7185407 128.368869,34.5079235 94.9169938,34.5079235 C61.4532438,34.5079235 34.3426188,61.7185407 34.3426188,95.2790963 L34.3426188,192.184158 L0.77199375,192.184158 L0.77199375,95.2790963 C0.77199375,91.3833556 1.00949375,87.5471827 1.47261875,83.7824914 C7.11324375,37.045516 46.7994938,0.840145679 94.9169938,0.840145679 C144.708869,0.840145679 185.463869,39.6188494 188.825681,88.7147136 C188.978869,90.8829852 189.050119,93.075084 189.050119,95.2790963" id="Fill-3" fill="#FFFFFF"></path>
                    </g>
                    <path d="M212,127.275998 L212,194.122306 C212,194.384262 212,194.646218 211.986888,194.908173 C211.570877,253.026597 164.283878,300 106.005364,300 C47.7173139,300 0.430315264,253.026597 0.0119200904,194.908173 C0,194.646218 0,194.384262 0,194.122306 L0,127.275998 C0,121.048599 5.05531034,116 11.3014377,116 L200.699754,116 C206.945882,116 212,121.048599 212,127.275998" id="Fill-5" fill="#FBCE00"></path>
                    <path d="M130,183.779667 C130,170.645535 119.254896,160 105.9994,160 C92.7451039,160 82,170.645535 82,183.779667 C82,192.747896 87.014782,200.550339 94.412696,204.600853 L94.412696,230.520571 C94.412696,236.859833 99.6015607,242 105.9994,242 C112.398439,242 117.586103,236.859833 117.586103,230.520571 L117.586103,204.600853 C124.984017,200.550339 130,192.747896 130,183.779667" id="Fill-8" fill="#4C2C0D"></path>
                </g>
            </g>
        </g>
    </g>
</svg>