<svg version="1.1" id="SJ1032wl7" xmlns="http://www.w3.org/2000/svg" xmlns:xlink="http://www.w3.org/1999/xlink" x="0px" y="0px" viewBox="0 0 336 305" style="enable-background:new 0 0 336.4 305.2;" xml:space="preserve"><style>@-webkit-keyframes SJPxk0hhvxQ_SyR032DgQ_Animation{0%{-webkit-transform: translate(0px, 0px);transform: translate(0px, 0px);}10%{-webkit-transform: translate(10px, 10px);transform: translate(10px, 10px);}20%{-webkit-transform: translate(-10px, -10px);transform: translate(-10px, -10px);}30%{-webkit-transform: translate(-10px, 10px);transform: translate(-10px, 10px);}40%{-webkit-transform: translate(10px, 10px);transform: translate(10px, 10px);}50%{-webkit-transform: translate(10px, -10px);transform: translate(10px, -10px);}60%{-webkit-transform: translate(0px, 0px);transform: translate(0px, 0px);}100%{-webkit-transform: translate(0px, 0px);transform: translate(0px, 0px);}}@keyframes SJPxk0hhvxQ_SyR032DgQ_Animation{0%{-webkit-transform: translate(0px, 0px);transform: translate(0px, 0px);}10%{-webkit-transform: translate(10px, 10px);transform: translate(10px, 10px);}20%{-webkit-transform: translate(-10px, -10px);transform: translate(-10px, -10px);}30%{-webkit-transform: translate(-10px, 10px);transform: translate(-10px, 10px);}40%{-webkit-transform: translate(10px, 10px);transform: translate(10px, 10px);}50%{-webkit-transform: translate(10px, -10px);transform: translate(10px, -10px);}60%{-webkit-transform: translate(0px, 0px);transform: translate(0px, 0px);}100%{-webkit-transform: translate(0px, 0px);transform: translate(0px, 0px);}}#SJ1032wl7 *{-webkit-animation-duration: 1s;animation-duration: 1s;-webkit-animation-iteration-count: infinite;animation-iteration-count: infinite;-webkit-animation-timing-function: cubic-bezier(0, 0, 1, 1);animation-timing-function: cubic-bezier(0, 0, 1, 1);}#Hkfy0nhwl7{fill: #EBF9FA;}#H1X1R22vgm{fill: #8EBABF;}#HJ4kAn3ve7{fill: #9FD4D4;}#H1HkC33Dg7{fill: #EBF9FA;}#HJUyR3nDgm{fill: #EBF9FA;}#BJvyC22PlQ{fill: #EBF9FA;}#SJ_JRn2DgX{fill: #EBF9FA;}#H1tyAnnPlQ{fill: #EBF9FA;}#B1q1Rh2wxm{fill: #D8EAEB;}#Hki1Rhhwe7{fill: #EBF9FA;}#B131R32De7{fill: #EBF9FA;}#S1TJ0nhwgQ{fill: #EBF9FA;}#SyCJR32DgQ{fill: #EBF9FA;}#SkyxyC22Plm{fill: #EBF9FA;}#HJxe1Rh3PlX{fill: #EBF9FA;}#r1-eJC22DxX{fill: #EBF9FA;}#Hyfgk02hwxm{fill: #EBF9FA;}#SkXe10n3Dl7{fill: #EBF9FA;}#rJEgkC32PgQ{fill: #EBF9FA;}#Hyre1R3nDe7{fill: #EBF9FA;}#r1Le1C3nPxQ{fill: #EBF9FA;}#BJde10n2vlQ{fill: #8EBABF;}#SJKlkAh3veX{fill: #8EBABF;}#SJcxy03nDem{fill: #8EBABF;}#HkixyC23PlQ{fill: none;stroke: #8EBABF;stroke-width: 3;stroke-linecap: round;stroke-linejoin: round;}#BJhlk0nhveQ{fill: none;stroke: #8EBABF;stroke-width: 3;stroke-linecap: round;stroke-linejoin: round;}#SJTxyAh3DlX{fill: #EBF9FA;}#BkRe1R32vxm{fill: #EBF9FA;}#HJJWkAh2DxQ{fill: #EBF9FA;}#S1ebJ02nvgX{fill: #EBF9FA;}#SJPxk0hhvxQ_SyR032DgQ{-webkit-animation-name: SJPxk0hhvxQ_SyR032DgQ_Animation;animation-name: SJPxk0hhvxQ_SyR032DgQ_Animation;-webkit-transform-origin: 50% 50%;transform-origin: 50% 50%;transform-box: fill-box;-webkit-transform: translate(0px, 0px);transform: translate(0px, 0px);}</style>

<title>Asset 4</title>
<g id="HJxkCn3veQ">
	<g id="HyZyR32wlQ">
		<path d="M29.7,0h277.1c3.5,0,6.3,2.8,6.3,6.3v265.2c0,3.5-2.8,6.4-6.4,6.4l0,0h-277c-3.5,0-6.4-2.8-6.4-6.4l0,0V6.3&#10;&#9;&#9;&#9;C23.3,2.8,26.2,0,29.7,0C29.7,0,29.7,0,29.7,0z" id="Hkfy0nhwl7"/>
		<path d="M306.7,0H29.6c-3.5,0-6.3,2.8-6.3,6.3v16.1h289.8V6.3C313.1,2.8,310.2,0,306.7,0z" id="H1X1R22vgm"/>
		<rect x="23.3" y="22.1" width="289.8" height="5" id="HJ4kAn3ve7"/>
		<path d="M79.8,5.7h182.7c1.7,0,3,1.3,3,3v5.1c0,1.7-1.3,3-3,3H79.8c-1.7,0-3-1.3-3-3V8.7C76.8,7.1,78.2,5.7,79.8,5.7z&#10;&#9;&#9;&#9;" id="H1HkC33Dg7"/>
		<path d="M277,5.7h19.2c1.7,0,3,1.3,3,3v5.1c0,1.7-1.3,3-3,3H277c-1.7,0-3-1.3-3-3V8.7C274,7.1,275.3,5.7,277,5.7z" id="HJUyR3nDgm"/>
		<path d="M43.2,11.2c0,2.1-1.7,3.8-3.8,3.8c-2.1,0-3.8-1.7-3.8-3.8s1.7-3.8,3.8-3.8c0,0,0,0,0,0&#10;&#9;&#9;&#9;C41.5,7.4,43.2,9.1,43.2,11.2z" id="BJvyC22PlQ"/>
		<path d="M54.4,11.2c0,2.1-1.7,3.8-3.8,3.8c-2.1,0-3.8-1.7-3.8-3.8s1.7-3.8,3.8-3.8c0,0,0,0,0,0&#10;&#9;&#9;&#9;C52.7,7.4,54.4,9.1,54.4,11.2z" id="SJ_JRn2DgX"/>
		<path d="M65.7,11.2c0,2.1-1.7,3.8-3.8,3.8c-2.1,0-3.8-1.7-3.8-3.8s1.7-3.8,3.8-3.8c0,0,0,0,0,0&#10;&#9;&#9;&#9;C64,7.4,65.7,9.1,65.7,11.2z" id="H1tyAnnPlQ"/>
		<path d="M31.7,271.6c0-1.3,1.3-2.3,3-2.3h267c1.6,0,3,1,3,2.3s-1.4,2.3-3,2.3h-267C33.1,273.9,31.7,272.8,31.7,271.6z&#10;&#9;&#9;&#9;" id="B1q1Rh2wxm"/>
		<path d="M6.3,104.2H3.4c0,11,8.9,19.9,19.9,19.9v-2.9C13.9,121.2,6.3,113.6,6.3,104.2z" id="Hki1Rhhwe7"/>
		<path d="M9.7,100.9c0-2.7-2.2-4.9-4.9-4.9C2.2,96,0,98.2,0,100.9s2.2,4.9,4.9,4.9c0,0,0,0,0,0&#10;&#9;&#9;&#9;C7.5,105.7,9.7,103.6,9.7,100.9z" id="B131R32De7"/>
		<path d="M4.9,92.3c-0.6,0-1,0.4-1,1V99c0,0.6,0.4,1,1,1s1-0.4,1-1v-5.7C5.9,92.7,5.4,92.3,4.9,92.3z" id="S1TJ0nhwgQ"/>
		<path d="M8.1,92.3c-0.6,0-1,0.4-1,1V99c0.1,0.5,0.7,0.9,1.2,0.7C8.7,99.6,9,99.4,9,99v-5.7C9,92.8,8.6,92.3,8.1,92.3z&#10;&#9;&#9;&#9;" id="SyCJR32DgQ"/>
		<path d="M1.7,92.3c-0.6,0-1,0.4-1,1V99c0.1,0.5,0.7,0.9,1.2,0.7c0.4-0.1,0.6-0.4,0.7-0.7v-5.7&#10;&#9;&#9;&#9;C2.6,92.8,2.2,92.3,1.7,92.3z" id="SkyxyC22Plm"/>
		<path d="M11.7,97.1c-0.3,0-0.5,0.1-0.7,0.3L7,101.4c-0.3,0.5-0.1,1.1,0.4,1.4c0.3,0.2,0.7,0.2,1,0l4.1-4.1&#10;&#9;&#9;&#9;c0.4-0.4,0.4-1,0-1.4C12.2,97.2,12,97.1,11.7,97.1z" id="HJxe1Rh3PlX"/>
		<path d="M333,104.2h-2.9c0,9.4-7.6,17-17,17v2.9C324.1,124.1,333,115.2,333,104.2z" id="r1-eJC22DxX"/>
		<path d="M326.7,100.9c0-2.7,2.2-4.9,4.9-4.9c2.7,0,4.9,2.2,4.9,4.9s-2.2,4.9-4.9,4.9c0,0,0,0,0,0&#10;&#9;&#9;&#9;C328.8,105.7,326.7,103.6,326.7,100.9z" id="Hyfgk02hwxm"/>
		<path d="M331.5,92.3c-0.6,0-1,0.4-1,1V99c0.1,0.5,0.7,0.9,1.2,0.8c0.4-0.1,0.7-0.4,0.8-0.8v-5.7&#10;&#9;&#9;&#9;C332.4,92.7,332,92.3,331.5,92.3z" id="SkXe10n3Dl7"/>
		<path d="M328.3,92.3c-0.6,0-1,0.4-1,1V99c-0.1,0.5,0.2,1.1,0.7,1.2c0.5,0.1,1.1-0.2,1.2-0.7c0-0.2,0-0.3,0-0.5v-5.7&#10;&#9;&#9;&#9;C329.2,92.8,328.8,92.3,328.3,92.3z" id="rJEgkC32PgQ"/>
		<path d="M334.7,92.3c-0.6,0-1,0.4-1,1V99c-0.1,0.5,0.2,1.1,0.7,1.2c0.5,0.1,1.1-0.2,1.2-0.7c0-0.2,0-0.3,0-0.5v-5.7&#10;&#9;&#9;&#9;C335.6,92.8,335.2,92.3,334.7,92.3z" id="Hyre1R3nDe7"/>
		<path d="M324.6,97.1c-0.3,0-0.5,0.1-0.7,0.3c-0.4,0.4-0.4,1,0,1.4l4.1,4.1c0.4,0.4,1,0.4,1.4,0c0.4-0.4,0.4-1,0-1.4&#10;&#9;&#9;&#9;l-4.1-4.1C325.1,97.2,324.9,97.1,324.6,97.1z" id="r1Le1C3nPxQ"/>
		<g id="SJPxk0hhvxQ_SyR032DgQ" data-animator-group="true" data-animator-type="0"><g id="SJPxk0hhvxQ">
			<path d="M202.4,118.4c-22.2-8.2-46.5-8.2-68.7,0.1c-7,2.5-12.2-6.8-6.2-11.3c8.7-6.5,21.7-11.9,40.6-11.9&#10;&#9;&#9;&#9;&#9;s31.8,5.4,40.5,11.9C214.6,111.6,209.4,121,202.4,118.4z" id="BJde10n2vlQ"/>
			<circle cx="80.9" cy="73.9" r="7.8" id="SJKlkAh3veX"/>
			<circle cx="255.4" cy="73.9" r="7.9" id="SJcxy03nDem"/>
			<polyline points="65.3,60.3 93.2,71.7 96.6,66 &#9;&#9;&#9;" id="HkixyC23PlQ"/>
			<polyline points="271.1,60.3 243.2,71.7 239.8,66 &#9;&#9;&#9;" id="BJhlk0nhveQ"/>
		</g></g>
		<rect x="117.6" y="277.9" width="2.9" height="27.4" id="SJTxyAh3DlX"/>
		<path d="M120.5,305.2c-0.2-4.1-3.6-7.3-7.7-7.1c-3.9,0.1-7,3.3-7.1,7.1H120.5z" id="BkRe1R32vxm"/>
		<rect x="215.9" y="277.9" width="2.9" height="27.4" id="HJJWkAh2DxQ"/>
		<path d="M215.9,305.2c0.2-4.1,3.6-7.3,7.7-7.1c3.9,0.1,7,3.3,7.1,7.1H215.9z" id="S1ebJ02nvgX"/>
	</g>
</g>
<script>(function(){var a=document.querySelector('#SJ1032wl7'),b=a.querySelectorAll('style'),c=function(d){b.forEach(function(f){var g=f.textContent;g&amp;&amp;(f.textContent=g.replace(/transform-box:[^;\r\n]*/gi,'transform-box: '+d))})};c('initial'),window.requestAnimationFrame(function(){return c('fill-box')})})();</script></svg>