<svg version="1.1" id="SkRWbTDl7" xmlns="http://www.w3.org/2000/svg" xmlns:xlink="http://www.w3.org/1999/xlink" x="0px" y="0px" viewBox="0 0 377 305" style="enable-background:new 0 0 377 305.2;" xml:space="preserve"><style>@-webkit-keyframes rkR0ZZTvlm_B1SpWpwgm_Animation{0%{-webkit-transform: scale(1, 1);transform: scale(1, 1);}50%{-webkit-transform: scale(1.2, 1.2);transform: scale(1.2, 1.2);}100%{-webkit-transform: scale(1, 1);transform: scale(1, 1);}}@keyframes rkR0ZZTvlm_B1SpWpwgm_Animation{0%{-webkit-transform: scale(1, 1);transform: scale(1, 1);}50%{-webkit-transform: scale(1.2, 1.2);transform: scale(1.2, 1.2);}100%{-webkit-transform: scale(1, 1);transform: scale(1, 1);}}@-webkit-keyframes SJkeCWWaPlQ_ryUFW6PgQ_Animation{0%{-webkit-transform: rotate(-20deg);transform: rotate(-20deg);}50%{-webkit-transform: rotate(0deg);transform: rotate(0deg);}100%{-webkit-transform: rotate(-20deg);transform: rotate(-20deg);}}@keyframes SJkeCWWaPlQ_ryUFW6PgQ_Animation{0%{-webkit-transform: rotate(-20deg);transform: rotate(-20deg);}50%{-webkit-transform: rotate(0deg);transform: rotate(0deg);}100%{-webkit-transform: rotate(-20deg);transform: rotate(-20deg);}}@-webkit-keyframes rJ3xAWWaPgQ_BkXv-TPgm_Animation{0%{-webkit-transform: rotate(0deg);transform: rotate(0deg);}50%{-webkit-transform: rotate(20deg);transform: rotate(20deg);}100%{-webkit-transform: rotate(0deg);transform: rotate(0deg);}}@keyframes rJ3xAWWaPgQ_BkXv-TPgm_Animation{0%{-webkit-transform: rotate(0deg);transform: rotate(0deg);}50%{-webkit-transform: rotate(20deg);transform: rotate(20deg);}100%{-webkit-transform: rotate(0deg);transform: rotate(0deg);}}@-webkit-keyframes rJ5b0Z-ave7_Animation{0%{opacity: 1;}10%{opacity: 0;}20%{opacity: 1;}100%{opacity: 1;}}@keyframes rJ5b0Z-ave7_Animation{0%{opacity: 1;}10%{opacity: 0;}20%{opacity: 1;}100%{opacity: 1;}}@-webkit-keyframes B1DZCWbaPxX_Animation{0%{opacity: 0;}10%{opacity: 1;}20%{opacity: 0;}100%{opacity: 0;}}@keyframes B1DZCWbaPxX_Animation{0%{opacity: 0;}10%{opacity: 1;}20%{opacity: 0;}100%{opacity: 0;}}#SkRWbTDl7 *{-webkit-animation-duration: 1s;animation-duration: 1s;-webkit-animation-iteration-count: infinite;animation-iteration-count: infinite;-webkit-animation-timing-function: cubic-bezier(0, 0, 1, 1);animation-timing-function: cubic-bezier(0, 0, 1, 1);}#SkWC-WpPgX{fill: #EBF9FA;}#H1GCWW6Dx7{fill: #8EBABF;}#SJmCbZTweQ{fill: #9FD4D4;}#SkN0ZZ6Dg7{fill: #EBF9FA;}#rySAZW6DeX{fill: #EBF9FA;}#B1IR-W6wxm{fill: #EBF9FA;}#BJwRbWTvgm{fill: #EBF9FA;}#BJuRZWpwlX{fill: #EBF9FA;}#HJF0bbavxm{fill: #D8EAEB;}#H1qRbWawg7{fill: #EBF9FA;}#rJi0-baDlm{fill: #EBF9FA;}#Hkn0bWTwgm{fill: #EBF9FA;}#S16CZZTwg7{fill: #EBF9FA;}#rkR0ZZTvlm{fill: none;stroke: #8EBABF;stroke-width: 3;stroke-linecap: round;stroke-miterlimit: 10;}#BkllAWbaPe7{fill: #EBF9FA;}#B1ZgCZ-pwlX{fill: #EBF9FA;}#ByGlRbb6Dl7{fill: #EBF9FA;}#HkXg0ZWTvgm{fill: #16BA94;}#H1Nl0bZpwgX{fill: #16BA94;}#SJSeCb-TvlQ{fill: #16BA94;}#S1UgCbWpPem{fill: #19CFA5;}#H1Dl0-ZaweX{fill: #FFD940;}#SkOg0WZpDlQ{fill: #16BA94;-webkit-transform:  matrix(0.4471, -0.8945, 0.8945, 0.4471, 118.132, 365.709);transform:  matrix(0.4471, -0.8945, 0.8945, 0.4471, 118.132, 365.709);}#BkYl0--6Dxm{fill: #10856A;-webkit-transform:  matrix(0.3323, -0.9432, 0.9432, 0.3323, 170.0243, 374.2295);transform:  matrix(0.3323, -0.9432, 0.9432, 0.3323, 170.0243, 374.2295);}#rkqeAW-pPg7{fill: #19CFA5;}#B1jxRb-pDgm{fill: #10856A;}#Sype0ZWpwem{fill: #EBF9FA;}#B1Al0--6Dem{fill: #EBF9FA;}#rkJ-CWWaPxQ{fill: #633F2C;}#SklbAWWpDgX{fill: #BD655A;}#SJZbRZZaPxX{fill: #FFC10E;}#SJMWC-bTDxX{fill: #FFFFFF;}#BJXWRWZ6wlX{fill: #EBF9FA;}#SyVW0ZWTwl7{fill: #EBF9FA;}#BJHW0bZTweQ{fill: #EBF9FA;}#H1L-0WWTDgX{fill: #EBF9FA;}#ByubCWbTPem{fill: none;stroke: #8EBABF;stroke-width: 3;stroke-linecap: round;stroke-miterlimit: 10;}#HkKZAZbaPlX{fill: none;stroke: #8EBABF;stroke-width: 3;stroke-linecap: round;stroke-miterlimit: 10;}#B1iZRW-TvxX{fill: #8EBABF;}#ry2ZA-WTPgX{fill: #8EBABF;}#B1DZCWbaPxX{-webkit-animation-name: B1DZCWbaPxX_Animation;animation-name: B1DZCWbaPxX_Animation;-webkit-transform-origin: 50% 50%;transform-origin: 50% 50%;transform-box: fill-box;opacity: 0;}#rJ5b0Z-ave7{-webkit-animation-name: rJ5b0Z-ave7_Animation;animation-name: rJ5b0Z-ave7_Animation;-webkit-transform-origin: 50% 50%;transform-origin: 50% 50%;transform-box: fill-box;opacity: 1;}#rJ3xAWWaPgQ_BkXv-TPgm{-webkit-transform-origin: 100% 100%;transform-origin: 100% 100%;transform-box: fill-box;-webkit-transform: rotate(0deg);transform: rotate(0deg);-webkit-animation-name: rJ3xAWWaPgQ_BkXv-TPgm_Animation;animation-name: rJ3xAWWaPgQ_BkXv-TPgm_Animation;}#SJkeCWWaPlQ_ryUFW6PgQ{-webkit-animation-name: SJkeCWWaPlQ_ryUFW6PgQ_Animation;animation-name: SJkeCWWaPlQ_ryUFW6PgQ_Animation;-webkit-transform-origin: 0% 100%;transform-origin: 0% 100%;transform-box: fill-box;-webkit-transform: rotate(-20deg);transform: rotate(-20deg);}#rkR0ZZTvlm_B1SpWpwgm{-webkit-animation-name: rkR0ZZTvlm_B1SpWpwgm_Animation;animation-name: rkR0ZZTvlm_B1SpWpwgm_Animation;-webkit-transform-origin: 50% 100%;transform-origin: 50% 100%;transform-box: fill-box;}</style>

<title>Asset 9</title>
<g id="rke0WbTDxQ">
	<path d="M49.8,0h277.1c3.5,0,6.3,2.8,6.3,6.3v265.2c0,3.5-2.8,6.4-6.4,6.4l0,0h-277c-3.5,0-6.3-2.8-6.3-6.4l0,0V6.3&#10;&#9;&#9;C43.5,2.8,46.3,0,49.8,0z" id="SkWC-WpPgX"/>
	<path d="M326.9,0H49.8c-3.5,0-6.3,2.8-6.3,6.3v16.1h289.8V6.3C333.2,2.8,330.4,0,326.9,0z" id="H1GCWW6Dx7"/>
	<rect x="43.5" y="22.1" width="289.8" height="5" id="SJmCbZTweQ"/>
	<path d="M100,5.7h182.7c1.7,0,3,1.3,3,3v5.1c0,1.7-1.3,3-3,3H100c-1.7,0-3-1.3-3-3V8.7C97,7.1,98.3,5.7,100,5.7z" id="SkN0ZZ6Dg7"/>
	<path d="M297.1,5.7h19.2c1.7,0,3,1.3,3,3v5.1c0,1.7-1.3,3-3,3h-19.2c-1.7,0-3-1.3-3-3V8.7&#10;&#9;&#9;C294.1,7.1,295.5,5.7,297.1,5.7z" id="rySAZW6DeX"/>
	<path d="M63.3,11.2c0,2.1-1.7,3.8-3.8,3.8c-2.1,0-3.8-1.7-3.8-3.8s1.7-3.8,3.8-3.8l0,0C61.6,7.4,63.3,9.1,63.3,11.2z" id="B1IR-W6wxm"/>
	<path d="M74.6,11.2c0,2.1-1.7,3.8-3.8,3.8c-2.1,0-3.8-1.7-3.8-3.8s1.7-3.8,3.8-3.8l0,0C72.9,7.4,74.6,9.1,74.6,11.2z" id="BJwRbWTvgm"/>
	<path d="M85.9,11.2c0,2.1-1.7,3.8-3.8,3.8c-2.1,0-3.8-1.7-3.8-3.8c0-2.1,1.7-3.8,3.8-3.8C84.2,7.4,85.9,9.1,85.9,11.2&#10;&#9;&#9;C85.9,11.2,85.9,11.2,85.9,11.2z" id="BJuRZWpwlX"/>
	<path d="M51.9,271.6c0-1.3,1.3-2.3,3-2.3h266.9c1.6,0,3,1,3,2.3s-1.4,2.3-3,2.3H54.9C53.2,273.9,51.9,272.8,51.9,271.6&#10;&#9;&#9;z" id="HJF0bbavxm"/>
	<rect x="137.8" y="277.9" width="2.9" height="27.4" id="H1qRbWawg7"/>
	<path d="M140.7,305.2c0-4.1-3.3-7.4-7.4-7.4c-4.1,0-7.4,3.3-7.4,7.4H140.7z" id="rJi0-baDlm"/>
	<rect x="236.1" y="277.9" width="2.9" height="27.4" id="Hkn0bWTwgm"/>
	<path d="M236.1,305.2c0-4.1,3.3-7.4,7.4-7.4c4.1,0,7.4,3.3,7.4,7.4H236.1z" id="S16CZZTwg7"/>
	<g id="rkR0ZZTvlm_B1SpWpwgm" data-animator-group="true" data-animator-type="2"><path d="M155.4,115.4c22,10.6,44,10.6,66,0" id="rkR0ZZTvlm"/></g>
	<g id="SJkeCWWaPlQ_ryUFW6PgQ" data-animator-group="true" data-animator-type="1"><g id="SJkeCWWaPlQ">
		<path d="M353.2,104.2h-2.9c0,9.4-7.6,17-17,17v2.9C344.2,124.2,353.2,115.2,353.2,104.2z" id="BkllAWbaPe7"/>
		<path d="M346.8,100.9c0-2.7,2.2-4.9,4.9-4.9c2.7,0,4.9,2.2,4.9,4.9s-2.2,4.9-4.9,4.9l0,0&#10;&#9;&#9;&#9;C349,105.7,346.8,103.6,346.8,100.9z" id="B1ZgCZ-pwlX"/>
		<path d="M344.8,97.1c-0.3,0-0.5,0.1-0.7,0.3c-0.4,0.4-0.4,1,0,1.4l4.1,4.1c0.5,0.3,1.1,0.1,1.4-0.4&#10;&#9;&#9;&#9;c0.2-0.3,0.2-0.7,0-1l-4.1-4.1C345.3,97.2,345.1,97.1,344.8,97.1z" id="ByGlRbb6Dl7"/>
		<path d="M370.2,84.8c2.5-7-1.2-14.7-8.2-17.3l0,0l-33.6-11.9c-0.9-0.3-1.9,0.2-2.2,1.1l-1.9,5.3c0,0,1.3,3.4,2.4,3.7&#10;&#9;&#9;&#9;l8.4,2.9l1.2,0.4c4.5,1.8,7.6,6.1,7.7,11v0.2c0.1,5.6,3.5,10.5,8.7,12.6c5.1,1.9,15.2-1.2,15.2-1.2L370.2,84.8z" id="HkXg0ZWTvgm"/>
		<path d="M375.1,84.1l-6.8-2.4l-1,2.8l-1,2.8l-0.2,0.6l9.6,3.4l1.2-3.4C377.3,86.3,376.6,84.6,375.1,84.1z" id="H1Nl0bZpwgX"/>
		<path d="M373.4,90.4l-1-0.4l0.1-0.1c0.2-0.2,0.5-0.3,0.8-0.1c0,0,0,0,0,0C373.4,89.9,373.5,90.2,373.4,90.4z" id="SJSeCb-TvlQ"/>
		<path d="M359.5,74.5L359.5,74.5l-35.2-12.4l-1.6,8.2c-0.2,1.1,0.4,2.1,1.5,2.5l9,3.2c4.8,1.7,8.1,6.1,8.2,11.2&#10;&#9;&#9;&#9;c0,0,0,0.1,0,0.2c0.1,5.6,3.5,10.5,8.7,12.6c7,2.6,14.8-1,17.5-8C370.2,85,366.6,77.1,359.5,74.5L359.5,74.5z" id="S1UgCbWpPem"/>
		<circle cx="354.9" cy="87.3" r="9.2" id="H1Dl0-ZaweX"/>
		<ellipse cx="354.9" cy="87.3" rx="8.2" ry="8.2" id="SkOg0WZpDlQ"/>
		
			<rect x="346.3" y="64.2" width="6.1" height="5.6" id="BkYl0--6Dxm"/>
		<path d="M367,85.1l7.1,2.5c1.4,0.5,2.1,2,1.6,3.4l-0.2,0.5c-0.5,1.4-2,2.1-3.4,1.6l-7.1-2.5l0,0L367,85.1L367,85.1z" id="rkqeAW-pPg7"/>
		<path d="M374.2,90.7c-0.3,0.7-1,1.1-1.8,0.8c-0.7-0.3-1.1-1-0.8-1.8c0.3-0.7,1-1.1,1.8-0.8c0,0,0,0,0,0&#10;&#9;&#9;&#9;C374.1,89.2,374.4,90,374.2,90.7z" id="B1jxRb-pDgm"/>
	</g></g>
	<g id="rJ3xAWWaPgQ_BkXv-TPgm" data-animator-group="true" data-animator-type="1"><g id="rJ3xAWWaPgQ">
		<path d="M26.5,104.2h-2.9c0,11,8.9,19.9,19.9,19.9v-2.9C34.1,121.2,26.5,113.6,26.5,104.2z" id="Sype0ZWpwem"/>
		<path d="M29.9,100.9c0-2.7-2.2-4.9-4.9-4.9s-4.9,2.2-4.9,4.9c0,2.7,2.2,4.8,4.8,4.9C27.7,105.8,29.9,103.6,29.9,100.9&#10;&#9;&#9;&#9;C29.9,100.9,29.9,100.9,29.9,100.9z" id="B1Al0--6Dem"/>
		<path d="M21.5,60.8c-0.8-2.4-3.4-3-5.5-2.6l0,0c-2.1,0.5-4.2,2.1-3.9,4.6L21.5,60.8z" id="rkJ-CWWaPxQ"/>
		<path d="M20.8,94.7c0.2,0.2,0.4,0.4,0.6,0.6c1.1,1.6,1.5,4,1.9,6.6l0.1,1c0.3,2.2,0.4,3.5,0.5,5&#10;&#9;&#9;&#9;c0.1,1,0.2,2.1,0.3,3.5c0,0.2,0,0.5,0.1,0.8c0.1,1.6,0.4,3.6,1.2,4.7c1,1,2.5,1.4,4,1.1c0.6-0.1,1.1-0.4,1.6-0.7&#10;&#9;&#9;&#9;c0.6-0.6,1.1-1.4,1.2-2.3c0-1.4-0.4-2.8-1-4.1c-0.2-0.4-0.3-0.9-0.5-1.3c-0.4-1.1-0.7-2-1-2.8c-0.5-1.5-1-2.7-1.7-5.1l-0.3-1.1&#10;&#9;&#9;&#9;c-0.8-2.4-1.4-4.6-1-6.6c0.1-0.3,0.2-0.7,0.3-1c0.3-0.5,0.4-1.1,0.3-1.7c-0.2-0.7-0.8-1.3-1.5-1.5l-5.6,1.2l0,0&#10;&#9;&#9;&#9;c-0.5,0.5-0.8,1.2-0.7,1.9C19.9,93.8,20.2,94.3,20.8,94.7z" id="SklbAWWpDgX"/>
		<path d="M26,90.1c4.4-2,6.4-5.6,5.7-10.1c-0.1-0.6-0.2-1.1-0.3-1.7c-0.5-2.6-0.7-5.2-0.7-7.8c0.1-2.4,0.5-5.6,2-7.5&#10;&#9;&#9;&#9;c0.2-0.2,0.4-0.4,0.7-0.6c0.7-0.4,1.2-1.1,1.3-1.9l-0.2-0.4c-2.3-1-5.5-0.5-8.4-0.2c-3,0.4-6.3,1-9.5,1.7s-6.4,1.5-9.3,2.4&#10;&#9;&#9;&#9;c-3.1,1-5.8,1.9-7.4,3.7v0.5c0.5,0.6,1.2,1,2,1.1c0.3,0.1,0.5,0.1,0.8,0.2c3.4,1.7,5.8,7,6.9,10c0.3,1,0.6,2,0.8,3&#10;&#9;&#9;&#9;c0.1,0.6,0.3,1.3,0.5,1.9c0.6,2.2,1.9,4.1,3.8,5.4c1.7,1,3.7,1.6,5.7,1.5L26,90.1z" id="SJZbRZZaPxX"/>
		<path d="M27.9,78c0.2,0,0.4,0.1,0.5,0.3c0,0,0,0,0,0c0.4,1.7,0.4,3.4-0.1,5.1c-0.5,1.8-1.8,3.2-3.5,3.9&#10;&#9;&#9;&#9;c-0.2,0.1-0.4,0-0.5-0.2c0,0,0,0,0,0c-0.1-0.2,0-0.4,0.2-0.5c0,0,0,0,0,0c1.4-0.6,2.5-1.9,3-3.4c0.5-1.5,0.5-3.1,0.1-4.6&#10;&#9;&#9;&#9;C27.5,78.3,27.7,78.1,27.9,78L27.9,78z" id="SJMWC-bTDxX"/>
		<path d="M20.1,101.8c0.1,0.5,0.7,0.8,1.2,0.7l5.6-1.4c0.6,0,1-0.4,1-1s-0.4-1-1-1c-0.2,0-0.3,0-0.5,0.1l-5.6,1.4&#10;&#9;&#9;&#9;C20.3,100.8,20,101.3,20.1,101.8z" id="BJXWRWZ6wlX"/>
		<path d="M19.3,98.7c0.1,0.5,0.7,0.8,1.2,0.7l5.6-1.4c0.5-0.1,0.8-0.7,0.7-1.2c-0.1-0.5-0.7-0.8-1.2-0.7L20,97.5&#10;&#9;&#9;&#9;C19.5,97.6,19.2,98.2,19.3,98.7z" id="SyVW0ZWTwl7"/>
		<path d="M20.8,104.9c0.1,0.5,0.7,0.8,1.2,0.7l5.6-1.4c0.6,0,1-0.5,1-1c0-0.6-0.5-1-1-1c-0.2,0-0.3,0-0.5,0.1l-5.6,1.4&#10;&#9;&#9;&#9;C21,103.9,20.7,104.4,20.8,104.9z" id="BJHW0bZTweQ"/>
		<path d="M24.2,95.1c0,0.3,0.1,0.5,0.3,0.7l4.1,4.1c0.3,0.5,0.9,0.6,1.4,0.3c0.5-0.3,0.6-0.9,0.3-1.4&#10;&#9;&#9;&#9;c-0.1-0.1-0.2-0.2-0.3-0.3l-4.1-4.1c-0.4-0.4-1-0.3-1.4,0.1C24.4,94.7,24.3,94.9,24.2,95.1L24.2,95.1z" id="H1L-0WWTDgX"/>
	</g></g>
	<g id="B1DZCWbaPxX">
		<line x1="88.8" y1="81.5" x2="113.2" y2="81.5" id="ByubCWbTPem"/>
		<line x1="263.5" y1="81.5" x2="288" y2="81.5" id="HkKZAZbaPlX"/>
	</g>
	<g id="rJ5b0Z-ave7">
		<circle cx="100.9" cy="81.7" r="8.5" id="B1iZRW-TvxX"/>
		<circle cx="275.7" cy="81.7" r="8.5" id="ry2ZA-WTPgX"/>
	</g>
</g>
<script>(function(){var a=document.querySelector('#SkRWbTDl7'),b=a.querySelectorAll('style'),c=function(d){b.forEach(function(f){var g=f.textContent;g&amp;&amp;(f.textContent=g.replace(/transform-box:[^;\r\n]*/gi,'transform-box: '+d))})};c('initial'),window.requestAnimationFrame(function(){return c('fill-box')})})();</script></svg>