<svg version="1.1" id="Sk_lIb86Dx7" xmlns="http://www.w3.org/2000/svg" xmlns:xlink="http://www.w3.org/1999/xlink" x="0px" y="0px" viewBox="0 0 443 305" style="enable-background:new 0 0 443.3 305.2;" xml:space="preserve"><style>@-webkit-keyframes H1MbI-8pPeQ_rka8IpPgQ_Animation{0%{-webkit-transform: rotate(0deg);transform: rotate(0deg);}50%{-webkit-transform: rotate(-2deg);transform: rotate(-2deg);}100%{-webkit-transform: rotate(0deg);transform: rotate(0deg);}}@keyframes H1MbI-8pPeQ_rka8IpPgQ_Animation{0%{-webkit-transform: rotate(0deg);transform: rotate(0deg);}50%{-webkit-transform: rotate(-2deg);transform: rotate(-2deg);}100%{-webkit-transform: rotate(0deg);transform: rotate(0deg);}}@-webkit-keyframes B1CbIZI6Dl7_rJ6V8Tvgm_Animation{0%{-webkit-transform: scale(1, 1);transform: scale(1, 1);}50%{-webkit-transform: scale(1.2, 1.2);transform: scale(1.2, 1.2);}100%{-webkit-transform: scale(1, 1);transform: scale(1, 1);}}@keyframes B1CbIZI6Dl7_rJ6V8Tvgm_Animation{0%{-webkit-transform: scale(1, 1);transform: scale(1, 1);}50%{-webkit-transform: scale(1.2, 1.2);transform: scale(1.2, 1.2);}100%{-webkit-transform: scale(1, 1);transform: scale(1, 1);}}@-webkit-keyframes HJUzLb8pPl7_Animation{0%{opacity: 0;}10%{opacity: 1;}20%{opacity: 0;}100%{opacity: 0;}}@keyframes HJUzLb8pPl7_Animation{0%{opacity: 0;}10%{opacity: 1;}20%{opacity: 0;}100%{opacity: 0;}}@-webkit-keyframes rk1zLWITPe7_Animation{0%{opacity: 1;}10%{opacity: 0;}20%{opacity: 1;}100%{opacity: 1;}}@keyframes rk1zLWITPe7_Animation{0%{opacity: 1;}10%{opacity: 0;}20%{opacity: 1;}100%{opacity: 1;}}#Sk_lIb86Dx7 *{-webkit-animation-duration: 1s;animation-duration: 1s;-webkit-animation-iteration-count: infinite;animation-iteration-count: infinite;-webkit-animation-timing-function: cubic-bezier(0, 0, 1, 1);animation-timing-function: cubic-bezier(0, 0, 1, 1);}#SJcgIbITweQ{fill: #EBF9FA;}#HJogIWL6vem{fill: #8EBABF;}#HkneLbLawg7{fill: #9FD4D4;}#HJax8bL6we7{fill: #EBF9FA;}#HJAxIWI6vxX{fill: #EBF9FA;}#BJJbIbLpwg7{fill: #EBF9FA;}#HklZLW8pPgQ{fill: #EBF9FA;}#rJ-bIWU6wxQ{fill: #EBF9FA;}#B1QW8W86PlQ{fill: #DD4E31;}#B1EZI-I6weX{fill: #F9CA35;}#SyBW8-ITveX{fill: #E8AF2E;-webkit-transform:  matrix(0.9657, -0.2598, 0.2598, 0.9657, -39.3782, 60.136);transform:  matrix(0.9657, -0.2598, 0.2598, 0.9657, -39.3782, 60.136);}#S18bUZITPg7{fill: #F0F1F1;}#rkDZU-U6vx7{fill: #F7CF9C;}#HJdbU-IpPgm{fill: #2B2B38;}#S1FWUb86wl7{fill: #D8EAEB;}#S19W8WUaPlX{fill: #EBF9FA;}#SksbL-L6PlX{fill: #EBF9FA;}#HJ2ZUZ8avxm{fill: #EBF9FA;}#rkTb8b8aDgX{fill: #EBF9FA;}#B1CbIZI6Dl7{fill: none;stroke: #8EBABF;stroke-width: 3;stroke-linecap: round;stroke-miterlimit: 10;}#ByxGIZU6DgQ{fill: #8EBABF;}#S1WfIZIpwlm{fill: #8EBABF;}#ByzMIWI6DlX{fill: #EBF9FA;}#rkmGUbIpPl7{fill: #EBF9FA;}#SJNMI-86wg7{fill: #EBF9FA;}#BJHM8-8awgX{fill: #EBF9FA;}#rJwzIZI6vlX{fill: none;stroke: #8EBABF;stroke-width: 3;stroke-linecap: round;stroke-miterlimit: 10;}#HJuGLb8awem{fill: none;stroke: #8EBABF;stroke-width: 3;stroke-linecap: round;stroke-miterlimit: 10;}#rk1zLWITPe7{-webkit-animation-name: rk1zLWITPe7_Animation;animation-name: rk1zLWITPe7_Animation;-webkit-transform-origin: 50% 50%;transform-origin: 50% 50%;transform-box: fill-box;opacity: 1;}#HJUzLb8pPl7{-webkit-animation-name: HJUzLb8pPl7_Animation;animation-name: HJUzLb8pPl7_Animation;-webkit-transform-origin: 50% 50%;transform-origin: 50% 50%;transform-box: fill-box;opacity: 0;}#B1CbIZI6Dl7_rJ6V8Tvgm{-webkit-animation-name: B1CbIZI6Dl7_rJ6V8Tvgm_Animation;animation-name: B1CbIZI6Dl7_rJ6V8Tvgm_Animation;-webkit-transform-origin: 50% 50%;transform-origin: 50% 50%;transform-box: fill-box;-webkit-transform: scale(1, 1);transform: scale(1, 1);}#H1MbI-8pPeQ_rka8IpPgQ{-webkit-animation-name: H1MbI-8pPeQ_rka8IpPgQ_Animation;animation-name: H1MbI-8pPeQ_rka8IpPgQ_Animation;-webkit-transform-origin: 50% 50%;transform-origin: 50% 50%;transform-box: fill-box;-webkit-transform: rotate(0deg);transform: rotate(0deg);}</style>

<title>Asset 11</title>
<g id="BkFeLb8pvx7">
	<path d="M77.4,0h277.1c3.5,0,6.3,2.8,6.3,6.3v265.2c0,3.5-2.8,6.4-6.4,6.4l0,0h-277c-3.5,0-6.4-2.8-6.4-6.3&#10;&#9;&#9;c0,0,0,0,0,0V6.3C71,2.8,73.8,0,77.4,0C77.4,0,77.4,0,77.4,0z" id="SJcgIbITweQ"/>
	<path d="M354.4,0H77.4C73.9,0,71,2.8,71,6.3v16.1h289.8V6.3C360.8,2.8,357.9,0,354.4,0z" id="HJogIWL6vem"/>
	<rect x="71" y="22.1" width="289.8" height="5" id="HkneLbLawg7"/>
	<path d="M127.5,5.7h182.7c1.7,0,3,1.3,3,3v5.1c0,1.7-1.3,3-3,3H127.5c-1.7,0-3-1.3-3-3V8.7&#10;&#9;&#9;C124.5,7.1,125.9,5.7,127.5,5.7z" id="HJax8bL6we7"/>
	<path d="M324.7,5.7h19.2c1.7,0,3,1.3,3,3v5.1c0,1.7-1.3,3-3,3h-19.2c-1.7,0-3-1.3-3-3V8.7C321.7,7.1,323,5.7,324.7,5.7&#10;&#9;&#9;z" id="HJAxIWI6vxX"/>
	<path d="M90.9,11.2c0,2.1-1.7,3.8-3.8,3.8c-2.1,0-3.8-1.7-3.8-3.8s1.7-3.8,3.8-3.8l0,0C89.2,7.4,90.9,9.1,90.9,11.2z" id="BJJbIbLpwg7"/>
	<path d="M102.2,11.2c0,2.1-1.7,3.8-3.8,3.8c-2.1,0-3.8-1.7-3.8-3.8c0-2.1,1.7-3.8,3.8-3.8&#10;&#9;&#9;C100.4,7.4,102.2,9.1,102.2,11.2C102.2,11.2,102.2,11.2,102.2,11.2z" id="HklZLW8pPgQ"/>
	<path d="M113.4,11.2c0,2.1-1.7,3.8-3.8,3.8c-2.1,0-3.8-1.7-3.8-3.8c0-2.1,1.7-3.8,3.8-3.8&#10;&#9;&#9;C111.7,7.4,113.4,9.1,113.4,11.2C113.4,11.2,113.4,11.2,113.4,11.2z" id="rJ-bIWU6wxQ"/>
	<g id="H1MbI-8pPeQ_rka8IpPgQ" data-animator-group="true" data-animator-type="1"><g id="H1MbI-8pPeQ">
		<path d="M58.6,235.2c4.1-1.1,6.5-5.3,5.4-9.3c0,0,0,0,0,0L51.4,179c-1.1-4.1-5.3-6.5-9.4-5.4l-36.4,9.8&#10;&#9;&#9;&#9;c-4.1,1.1-6.5,5.3-5.4,9.4c0,0,0,0,0,0l12.6,46.8c1.1,4.1,5.2,6.5,9.3,5.4c0,0,0,0,0,0L58.6,235.2z" id="B1QW8W86PlQ"/>
		<polygon points="377.5,150.2 360.9,88.1 29.8,177.1 46.4,239.2 &#9;&#9;" id="B1EZI-I6weX"/>
		
			<rect x="36.3" y="162.8" width="342.9" height="32.4" id="SyBW8-ITveX"/>
		<polygon points="57.9,236 41.2,173.9 25.2,178.1 41.9,240.3 &#9;&#9;" id="S18bUZITPg7"/>
		<polygon points="360.8,87.8 443.3,100.4 377.5,149.9 &#9;&#9;" id="rkDZU-U6vx7"/>
		<polygon points="414.5,96 443.3,100.4 420.3,117.7 &#9;&#9;" id="HJdbU-IpPgm"/>
	</g></g>
	<path d="M79.4,271.6c0-1.3,1.3-2.3,3-2.3h266.9c1.6,0,3,1,3,2.3s-1.4,2.3-3,2.3H82.4C80.8,273.9,79.4,272.8,79.4,271.6&#10;&#9;&#9;z" id="S1FWUb86wl7"/>
	<rect x="165.3" y="277.9" width="2.9" height="27.4" id="S19W8WUaPlX"/>
	<path d="M168.2,305.2c-0.2-4.1-3.6-7.3-7.7-7.1c-3.9,0.1-7,3.3-7.1,7.1H168.2z" id="SksbL-L6PlX"/>
	<rect x="263.6" y="277.9" width="2.9" height="27.4" id="HJ2ZUZ8avxm"/>
	<path d="M263.6,305.2c0.2-4.1,3.6-7.3,7.7-7.1c3.9,0.1,7,3.3,7.1,7.1H263.6z" id="rkTb8b8aDgX"/>
	<g id="B1CbIZI6Dl7_rJ6V8Tvgm" data-animator-group="true" data-animator-type="2"><path d="M182.9,115.4c22,10.6,44,10.6,66,0" id="B1CbIZI6Dl7"/></g>
	<g id="rk1zLWITPe7">
		<circle cx="128.4" cy="81.7" r="8.5" id="ByxGIZU6DgQ"/>
		<circle cx="303.3" cy="81.7" r="8.5" id="S1WfIZIpwlm"/>
	</g>
	<path d="M54,171.9h-2.9c0-11,8.9-19.9,19.9-19.9v2.9C61.6,154.9,54,162.5,54,171.9z" id="ByzMIWI6DlX"/>
	<path d="M57.4,175.2c0,2.7-2.2,4.9-4.9,4.9s-4.9-2.2-4.9-4.9s2.2-4.9,4.9-4.9C55.3,170.4,57.4,172.6,57.4,175.2z" id="rkmGUbIpPl7"/>
	<path d="M380.7,139.7h-2.9c0,9.4-7.6,17-17,17v2.9C371.8,159.6,380.7,150.7,380.7,139.7z" id="SJNMI-86wg7"/>
	<path d="M374.4,136.4c0-2.7,2.2-4.9,4.9-4.9c2.7,0,4.9,2.2,4.9,4.9s-2.2,4.9-4.9,4.9l0,0&#10;&#9;&#9;C376.5,141.2,374.4,139.1,374.4,136.4z" id="BJHM8-8awgX"/>
	<g id="HJUzLb8pPl7">
		<line x1="116.3" y1="81.7" x2="140.7" y2="81.7" id="rJwzIZI6vlX"/>
		<line x1="291.1" y1="81.7" x2="315.5" y2="81.7" id="HJuGLb8awem"/>
	</g>
</g>
<script>(function(){var a=document.querySelector('#Sk_lIb86Dx7'),b=a.querySelectorAll('style'),c=function(d){b.forEach(function(f){var g=f.textContent;g&amp;&amp;(f.textContent=g.replace(/transform-box:[^;\r\n]*/gi,'transform-box: '+d))})};c('initial'),window.requestAnimationFrame(function(){return c('fill-box')})})();</script></svg>